<svg width="339" height="179" viewBox="0 0 339 179" fill="none" xmlns="http://www.w3.org/2000/svg">
<g filter="url(#filter0_d_3136_3491)">
<rect x="50.9099" y="46.5039" width="237.34" height="78" rx="16" fill="white" shape-rendering="crispEdges"/>
<circle cx="93.9099" cy="85.5039" r="23" fill="url(#paint0_linear_3136_3491)"/>
<path d="M87.5459 96.1239C86.99 96.1239 86.5142 95.926 86.1184 95.5302C85.7226 95.1344 85.5247 94.6586 85.5247 94.1027V90.8132H87.2018V94.1027C87.2018 94.2032 87.234 94.2856 87.2985 94.3501C87.363 94.4146 87.4454 94.4468 87.5459 94.4468H100.274C100.375 94.4468 100.457 94.4146 100.522 94.3501C100.586 94.2856 100.618 94.2032 100.618 94.1027V90.8132H102.296V94.1027C102.296 94.6586 102.098 95.1344 101.702 95.5302C101.306 95.926 100.83 96.1239 100.274 96.1239H87.5459ZM85.5247 84.6638V76.902C85.5247 76.3462 85.7226 75.8703 86.1184 75.4745C86.5142 75.0788 86.99 74.8809 87.5459 74.8809H96.4258L102.296 80.7507V84.6638H100.618V81.5892H95.5872V76.5579H87.5459C87.4454 76.5579 87.363 76.5902 87.2985 76.6547C87.234 76.7191 87.2018 76.8016 87.2018 76.902V84.6638H85.5247ZM81.9341 88.577V86.9H105.886V88.577H81.9341Z" fill="white"/>
<path d="M137.198 80.5039L141.182 68.8239H144.894L148.99 80.5039H146.654L143.182 70.3759L143.998 70.7279H141.998L142.83 70.3759L139.47 80.5039H137.198ZM139.982 77.3999L140.702 75.4799H145.438L146.142 77.3999H139.982ZM151.077 80.5039V68.8239H153.349V80.5039H151.077ZM159.205 80.5039L163.189 68.8239H166.901L170.997 80.5039H168.661L165.189 70.3759L166.005 70.7279H164.005L164.837 70.3759L161.477 80.5039H159.205ZM161.989 77.3999L162.709 75.4799H167.445L168.149 77.3999H161.989ZM176.143 83.9279C175.727 83.9279 175.3 83.9119 174.863 83.8799C174.436 83.8479 174.036 83.8052 173.663 83.7519V81.8959C174.047 81.9386 174.457 81.9759 174.895 82.0079C175.332 82.0506 175.743 82.0719 176.127 82.0719C176.841 82.0719 177.417 81.9866 177.855 81.8159C178.303 81.6452 178.628 81.3732 178.831 80.9999C179.044 80.6372 179.151 80.1732 179.151 79.6079V77.8959L179.631 76.8079C179.599 77.6079 179.433 78.2906 179.135 78.8559C178.836 79.4106 178.431 79.8372 177.919 80.1359C177.407 80.4239 176.815 80.5679 176.143 80.5679C175.545 80.5679 175.001 80.4559 174.511 80.2319C174.031 80.0079 173.615 79.6986 173.263 79.3039C172.921 78.9092 172.655 78.4452 172.463 77.9119C172.271 77.3786 172.175 76.8079 172.175 76.1999V75.8639C172.175 75.2559 172.271 74.6906 172.463 74.1679C172.665 73.6346 172.948 73.1706 173.311 72.7759C173.673 72.3812 174.105 72.0772 174.607 71.8639C175.108 71.6506 175.663 71.5439 176.271 71.5439C176.985 71.5439 177.604 71.6986 178.127 72.0079C178.66 72.3172 179.076 72.7652 179.375 73.3519C179.673 73.9386 179.839 74.6586 179.871 75.5119L179.487 75.5759V71.8159H181.247V79.4799C181.247 80.5359 181.065 81.3892 180.703 82.0399C180.34 82.6906 179.78 83.1652 179.023 83.4639C178.276 83.7732 177.316 83.9279 176.143 83.9279ZM176.783 78.6639C177.209 78.6639 177.599 78.5679 177.951 78.3759C178.303 78.1839 178.585 77.9066 178.799 77.5439C179.012 77.1812 179.119 76.7439 179.119 76.2319V75.6719C179.119 75.1812 179.007 74.7652 178.783 74.4239C178.569 74.0826 178.287 73.8266 177.935 73.6559C177.583 73.4746 177.199 73.3839 176.783 73.3839C176.313 73.3839 175.897 73.4959 175.535 73.7199C175.183 73.9332 174.905 74.2372 174.703 74.6319C174.5 75.0266 174.399 75.4959 174.399 76.0399C174.399 76.5732 174.5 77.0372 174.703 77.4319C174.905 77.8266 175.183 78.1306 175.535 78.3439C175.897 78.5572 176.313 78.6639 176.783 78.6639ZM187.881 80.8079C187.134 80.8079 186.478 80.6799 185.913 80.4239C185.358 80.1679 184.894 79.8266 184.521 79.3999C184.158 78.9626 183.881 78.4772 183.689 77.9439C183.507 77.4106 183.417 76.8666 183.417 76.3119V76.0079C183.417 75.4319 183.507 74.8772 183.689 74.3439C183.881 73.7999 184.158 73.3199 184.521 72.9039C184.894 72.4772 185.353 72.1412 185.897 71.8959C186.441 71.6399 187.07 71.5119 187.785 71.5119C188.723 71.5119 189.507 71.7199 190.137 72.1359C190.777 72.5412 191.257 73.0799 191.577 73.7519C191.897 74.4132 192.057 75.1279 192.057 75.8959V76.6959H184.361V75.3359H190.665L189.977 76.0079C189.977 75.4532 189.897 74.9786 189.737 74.5839C189.577 74.1892 189.331 73.8852 189.001 73.6719C188.681 73.4586 188.275 73.3519 187.785 73.3519C187.294 73.3519 186.878 73.4639 186.537 73.6879C186.195 73.9119 185.934 74.2372 185.753 74.6639C185.582 75.0799 185.497 75.5812 185.497 76.1679C185.497 76.7119 185.582 77.1972 185.753 77.6239C185.923 78.0399 186.185 78.3706 186.537 78.6159C186.889 78.8506 187.337 78.9679 187.881 78.9679C188.425 78.9679 188.867 78.8612 189.209 78.6479C189.55 78.4239 189.769 78.1519 189.865 77.8319H191.913C191.785 78.4292 191.539 78.9519 191.177 79.3999C190.814 79.8479 190.35 80.1946 189.785 80.4399C189.23 80.6852 188.595 80.8079 187.881 80.8079ZM194.235 80.5039V71.8159H195.995V75.5439H195.835C195.835 74.6586 195.952 73.9226 196.187 73.3359C196.421 72.7386 196.768 72.2906 197.227 71.9919C197.696 71.6932 198.277 71.5439 198.971 71.5439H199.067C200.101 71.5439 200.885 71.8799 201.419 72.5519C201.952 73.2132 202.219 74.2052 202.219 75.5279V80.5039H199.995V75.3359C199.995 74.8026 199.84 74.3706 199.531 74.0399C199.232 73.7092 198.816 73.5439 198.283 73.5439C197.739 73.5439 197.296 73.7146 196.955 74.0559C196.624 74.3866 196.459 74.8346 196.459 75.3999V80.5039H194.235ZM208.706 80.6159C207.906 80.6159 207.244 80.5146 206.722 80.3119C206.21 80.0986 205.826 79.7466 205.57 79.2559C205.314 78.7546 205.186 78.0826 205.186 77.2399L205.202 69.3679H207.282L207.266 77.3839C207.266 77.8106 207.378 78.1412 207.602 78.3759C207.836 78.5999 208.167 78.7119 208.594 78.7119H209.954V80.6159H208.706ZM203.81 73.4479V71.8159H209.954V73.4479H203.81ZM138.174 103.704V91.8159H139.934V95.5599L139.662 95.5439C139.705 94.6586 139.886 93.9172 140.206 93.3199C140.537 92.7226 140.974 92.2799 141.518 91.9919C142.062 91.6932 142.67 91.5439 143.342 91.5439C143.961 91.5439 144.515 91.6559 145.006 91.8799C145.507 92.1039 145.934 92.4186 146.286 92.8239C146.649 93.2292 146.926 93.7039 147.118 94.2479C147.31 94.7812 147.406 95.3572 147.406 95.9759V96.3119C147.406 96.9412 147.31 97.5279 147.118 98.0719C146.937 98.6052 146.665 99.0799 146.302 99.4959C145.95 99.9012 145.523 100.221 145.022 100.456C144.521 100.68 143.961 100.792 143.342 100.792C142.691 100.792 142.094 100.659 141.55 100.392C141.017 100.115 140.585 99.6932 140.254 99.1279C139.923 98.5519 139.737 97.8106 139.694 96.9039L140.398 97.9759V103.704H138.174ZM142.782 98.9199C143.262 98.9199 143.678 98.8026 144.03 98.5679C144.393 98.3332 144.675 98.0079 144.878 97.5919C145.081 97.1652 145.182 96.6852 145.182 96.1519C145.182 95.5972 145.081 95.1172 144.878 94.7119C144.675 94.3066 144.393 93.9919 144.03 93.7679C143.678 93.5332 143.262 93.4159 142.782 93.4159C142.345 93.4159 141.939 93.5119 141.566 93.7039C141.203 93.8959 140.905 94.1786 140.67 94.5519C140.446 94.9252 140.334 95.3732 140.334 95.8959V96.5359C140.334 97.0372 140.451 97.4639 140.686 97.8159C140.921 98.1679 141.225 98.4399 141.598 98.6319C141.971 98.8239 142.366 98.9199 142.782 98.9199ZM154.945 100.504V97.9279H154.577V95.0639C154.577 94.5626 154.455 94.1892 154.209 93.9439C153.964 93.6986 153.585 93.5759 153.073 93.5759C152.807 93.5759 152.487 93.5812 152.113 93.5919C151.74 93.6026 151.361 93.6186 150.977 93.6399C150.604 93.6506 150.268 93.6666 149.969 93.6879V91.7999C150.215 91.7786 150.492 91.7572 150.801 91.7359C151.111 91.7146 151.425 91.7039 151.745 91.7039C152.076 91.6932 152.385 91.6879 152.673 91.6879C153.569 91.6879 154.311 91.8052 154.897 92.0399C155.495 92.2746 155.943 92.6426 156.241 93.1439C156.551 93.6452 156.705 94.3012 156.705 95.1119V100.504H154.945ZM152.145 100.728C151.516 100.728 150.961 100.616 150.481 100.392C150.012 100.168 149.644 99.8479 149.377 99.4319C149.121 99.0159 148.993 98.5146 148.993 97.9279C148.993 97.2879 149.148 96.7652 149.457 96.3599C149.777 95.9546 150.22 95.6506 150.785 95.4479C151.361 95.2452 152.033 95.1439 152.801 95.1439H154.817V96.4719H152.769C152.257 96.4719 151.863 96.5999 151.585 96.8559C151.319 97.1012 151.185 97.4212 151.185 97.8159C151.185 98.2106 151.319 98.5306 151.585 98.7759C151.863 99.0212 152.257 99.1439 152.769 99.1439C153.079 99.1439 153.361 99.0906 153.617 98.9839C153.884 98.8666 154.103 98.6746 154.273 98.4079C154.455 98.1306 154.556 97.7572 154.577 97.2879L155.121 97.9119C155.068 98.5199 154.919 99.0319 154.673 99.4479C154.439 99.8639 154.108 100.184 153.681 100.408C153.265 100.621 152.753 100.728 152.145 100.728ZM159.408 100.504V91.8159H161.168V95.4959H161.12C161.12 94.2479 161.386 93.3039 161.92 92.6639C162.453 92.0239 163.237 91.7039 164.272 91.7039H164.592V93.6399H163.984C163.237 93.6399 162.656 93.8426 162.24 94.2479C161.834 94.6426 161.632 95.2186 161.632 95.9759V100.504H159.408ZM171.617 100.504V97.9279H171.249V95.0639C171.249 94.5626 171.126 94.1892 170.881 93.9439C170.635 93.6986 170.257 93.5759 169.745 93.5759C169.478 93.5759 169.158 93.5812 168.785 93.5919C168.411 93.6026 168.033 93.6186 167.649 93.6399C167.275 93.6506 166.939 93.6666 166.641 93.6879V91.7999C166.886 91.7786 167.163 91.7572 167.473 91.7359C167.782 91.7146 168.097 91.7039 168.417 91.7039C168.747 91.6932 169.057 91.6879 169.345 91.6879C170.241 91.6879 170.982 91.8052 171.569 92.0399C172.166 92.2746 172.614 92.6426 172.913 93.1439C173.222 93.6452 173.377 94.3012 173.377 95.1119V100.504H171.617ZM168.817 100.728C168.187 100.728 167.633 100.616 167.153 100.392C166.683 100.168 166.315 99.8479 166.049 99.4319C165.793 99.0159 165.665 98.5146 165.665 97.9279C165.665 97.2879 165.819 96.7652 166.129 96.3599C166.449 95.9546 166.891 95.6506 167.457 95.4479C168.033 95.2452 168.705 95.1439 169.473 95.1439H171.489V96.4719H169.441C168.929 96.4719 168.534 96.5999 168.257 96.8559C167.99 97.1012 167.857 97.4212 167.857 97.8159C167.857 98.2106 167.99 98.5306 168.257 98.7759C168.534 99.0212 168.929 99.1439 169.441 99.1439C169.75 99.1439 170.033 99.0906 170.289 98.9839C170.555 98.8666 170.774 98.6746 170.945 98.4079C171.126 98.1306 171.227 97.7572 171.249 97.2879L171.793 97.9119C171.739 98.5199 171.59 99.0319 171.345 99.4479C171.11 99.8639 170.779 100.184 170.353 100.408C169.937 100.621 169.425 100.728 168.817 100.728ZM176.079 100.504V91.8159H177.839V95.5439H177.679C177.679 94.6692 177.791 93.9386 178.015 93.3519C178.239 92.7546 178.57 92.3066 179.007 92.0079C179.455 91.6986 180.01 91.5439 180.671 91.5439H180.767C181.439 91.5439 181.994 91.6986 182.431 92.0079C182.879 92.3066 183.21 92.7546 183.423 93.3519C183.647 93.9386 183.759 94.6692 183.759 95.5439H183.199C183.199 94.6692 183.311 93.9386 183.535 93.3519C183.77 92.7546 184.106 92.3066 184.543 92.0079C184.991 91.6986 185.546 91.5439 186.207 91.5439H186.303C186.975 91.5439 187.535 91.6986 187.983 92.0079C188.431 92.3066 188.767 92.7546 188.991 93.3519C189.226 93.9386 189.343 94.6692 189.343 95.5439V100.504H187.119V95.3359C187.119 94.7919 186.98 94.3599 186.703 94.0399C186.426 93.7092 186.031 93.5439 185.519 93.5439C185.007 93.5439 184.596 93.7146 184.287 94.0559C183.978 94.3866 183.823 94.8346 183.823 95.3999V100.504H181.599V95.3359C181.599 94.7919 181.46 94.3599 181.183 94.0399C180.906 93.7092 180.511 93.5439 179.999 93.5439C179.487 93.5439 179.076 93.7146 178.767 94.0559C178.458 94.3866 178.303 94.8346 178.303 95.3999V100.504H176.079ZM195.928 100.808C195.181 100.808 194.525 100.68 193.96 100.424C193.405 100.168 192.941 99.8266 192.568 99.3999C192.205 98.9626 191.928 98.4772 191.736 97.9439C191.554 97.4106 191.464 96.8666 191.464 96.3119V96.0079C191.464 95.4319 191.554 94.8772 191.736 94.3439C191.928 93.7999 192.205 93.3199 192.568 92.9039C192.941 92.4772 193.4 92.1412 193.944 91.8959C194.488 91.6399 195.117 91.5119 195.832 91.5119C196.77 91.5119 197.554 91.7199 198.184 92.1359C198.824 92.5412 199.304 93.0799 199.624 93.7519C199.944 94.4132 200.104 95.1279 200.104 95.8959V96.6959H192.408V95.3359H198.712L198.024 96.0079C198.024 95.4532 197.944 94.9786 197.784 94.5839C197.624 94.1892 197.378 93.8852 197.048 93.6719C196.728 93.4586 196.322 93.3519 195.832 93.3519C195.341 93.3519 194.925 93.4639 194.584 93.6879C194.242 93.9119 193.981 94.2372 193.8 94.6639C193.629 95.0799 193.544 95.5812 193.544 96.1679C193.544 96.7119 193.629 97.1972 193.8 97.6239C193.97 98.0399 194.232 98.3706 194.584 98.6159C194.936 98.8506 195.384 98.9679 195.928 98.9679C196.472 98.9679 196.914 98.8612 197.256 98.6479C197.597 98.4239 197.816 98.1519 197.912 97.8319H199.96C199.832 98.4292 199.586 98.9519 199.224 99.3999C198.861 99.8479 198.397 100.195 197.832 100.44C197.277 100.685 196.642 100.808 195.928 100.808ZM206.057 100.616C205.257 100.616 204.596 100.515 204.073 100.312C203.561 100.099 203.177 99.7466 202.921 99.2559C202.665 98.7546 202.537 98.0826 202.537 97.2399L202.553 89.3679H204.633L204.617 97.3839C204.617 97.8106 204.729 98.1412 204.953 98.3759C205.188 98.5999 205.519 98.7119 205.945 98.7119H207.305V100.616H206.057ZM201.161 93.4479V91.8159H207.305V93.4479H201.161ZM209.492 100.504V91.8159H211.252V95.4959H211.204C211.204 94.2479 211.471 93.3039 212.004 92.6639C212.537 92.0239 213.321 91.7039 214.356 91.7039H214.676V93.6399H214.068C213.321 93.6399 212.74 93.8426 212.324 94.2479C211.919 94.6426 211.716 95.2186 211.716 95.9759V100.504H209.492ZM216.9 100.504V91.8159H219.124V100.504H216.9ZM215.684 93.4799V91.8159H219.124V93.4799H215.684ZM217.716 90.7759C217.279 90.7759 216.953 90.6639 216.74 90.4399C216.537 90.2052 216.436 89.9172 216.436 89.5759C216.436 89.2132 216.537 88.9199 216.74 88.6959C216.953 88.4719 217.279 88.3599 217.716 88.3599C218.153 88.3599 218.473 88.4719 218.676 88.6959C218.879 88.9199 218.98 89.2132 218.98 89.5759C218.98 89.9172 218.879 90.2052 218.676 90.4399C218.473 90.6639 218.153 90.7759 217.716 90.7759ZM225.159 100.776C223.964 100.776 223.026 100.525 222.343 100.024C221.671 99.5119 221.319 98.8079 221.287 97.9119H223.287C223.319 98.2106 223.484 98.4826 223.783 98.7279C224.082 98.9732 224.551 99.0959 225.191 99.0959C225.724 99.0959 226.146 98.9999 226.455 98.8079C226.775 98.6159 226.935 98.3546 226.935 98.0239C226.935 97.7359 226.812 97.5066 226.567 97.3359C226.332 97.1652 225.927 97.0532 225.351 96.9999L224.583 96.9199C223.612 96.8132 222.866 96.5359 222.343 96.0879C221.82 95.6399 221.559 95.0426 221.559 94.2959C221.559 93.6986 221.708 93.1972 222.007 92.7919C222.306 92.3866 222.716 92.0826 223.239 91.8799C223.772 91.6666 224.38 91.5599 225.063 91.5599C226.13 91.5599 226.994 91.7946 227.655 92.2639C228.316 92.7332 228.663 93.4212 228.695 94.3279H226.695C226.674 94.0292 226.524 93.7732 226.247 93.5599C225.97 93.3466 225.57 93.2399 225.047 93.2399C224.578 93.2399 224.215 93.3306 223.959 93.5119C223.703 93.6932 223.575 93.9279 223.575 94.2159C223.575 94.4932 223.676 94.7066 223.879 94.8559C224.092 95.0052 224.434 95.1066 224.903 95.1599L225.671 95.2399C226.695 95.3466 227.495 95.6292 228.071 96.0879C228.658 96.5466 228.951 97.1652 228.951 97.9439C228.951 98.5199 228.791 99.0212 228.471 99.4479C228.162 99.8639 227.724 100.189 227.159 100.424C226.594 100.659 225.927 100.776 225.159 100.776ZM234.996 100.808C234.25 100.808 233.594 100.68 233.028 100.424C232.474 100.168 232.01 99.8266 231.636 99.3999C231.274 98.9626 230.996 98.4772 230.804 97.9439C230.623 97.4106 230.532 96.8666 230.532 96.3119V96.0079C230.532 95.4319 230.623 94.8772 230.804 94.3439C230.996 93.7999 231.274 93.3199 231.636 92.9039C232.01 92.4772 232.468 92.1412 233.012 91.8959C233.556 91.6399 234.186 91.5119 234.9 91.5119C235.839 91.5119 236.623 91.7199 237.252 92.1359C237.892 92.5412 238.372 93.0799 238.692 93.7519C239.012 94.4132 239.172 95.1279 239.172 95.8959V96.6959H231.476V95.3359H237.78L237.092 96.0079C237.092 95.4532 237.012 94.9786 236.852 94.5839C236.692 94.1892 236.447 93.8852 236.116 93.6719C235.796 93.4586 235.391 93.3519 234.9 93.3519C234.41 93.3519 233.994 93.4639 233.652 93.6879C233.311 93.9119 233.05 94.2372 232.868 94.6639C232.698 95.0799 232.612 95.5812 232.612 96.1679C232.612 96.7119 232.698 97.1972 232.868 97.6239C233.039 98.0399 233.3 98.3706 233.652 98.6159C234.004 98.8506 234.452 98.9679 234.996 98.9679C235.54 98.9679 235.983 98.8612 236.324 98.6479C236.666 98.4239 236.884 98.1519 236.98 97.8319H239.028C238.9 98.4292 238.655 98.9519 238.292 99.3999C237.93 99.8479 237.466 100.195 236.9 100.44C236.346 100.685 235.711 100.808 234.996 100.808ZM244.95 100.792C244.342 100.792 243.782 100.68 243.27 100.456C242.758 100.232 242.315 99.9172 241.942 99.5119C241.569 99.1066 241.281 98.6372 241.078 98.1039C240.875 97.5599 240.774 96.9732 240.774 96.3439V96.0079C240.774 95.3892 240.87 94.8079 241.062 94.2639C241.265 93.7199 241.542 93.2452 241.894 92.8399C242.257 92.4346 242.689 92.1199 243.19 91.8959C243.702 91.6612 244.267 91.5439 244.886 91.5439C245.569 91.5439 246.166 91.6932 246.678 91.9919C247.201 92.2799 247.617 92.7172 247.926 93.3039C248.235 93.8906 248.406 94.6266 248.438 95.5119L247.782 94.7439V88.8239H250.006V100.504H248.246V96.8079H248.63C248.598 97.6932 248.417 98.4346 248.086 99.0319C247.755 99.6186 247.318 100.061 246.774 100.36C246.241 100.648 245.633 100.792 244.95 100.792ZM245.446 98.9199C245.883 98.9199 246.283 98.8239 246.646 98.6319C247.009 98.4292 247.297 98.1412 247.51 97.7679C247.734 97.3839 247.846 96.9359 247.846 96.4239V95.7839C247.846 95.2719 247.734 94.8452 247.51 94.5039C247.286 94.1519 246.993 93.8852 246.63 93.7039C246.267 93.5119 245.873 93.4159 245.446 93.4159C244.966 93.4159 244.539 93.5332 244.166 93.7679C243.803 93.9919 243.515 94.3119 243.302 94.7279C243.099 95.1439 242.998 95.6292 242.998 96.1839C242.998 96.7386 243.105 97.2239 243.318 97.6399C243.531 98.0452 243.819 98.3599 244.182 98.5839C244.555 98.8079 244.977 98.9199 245.446 98.9199ZM252.938 96.7119V88.8239H255.21V96.7119H252.938ZM252.762 100.504V98.1359H255.386V100.504H252.762Z" fill="white"/>
<path d="M137.198 80.5039L141.182 68.8239H144.894L148.99 80.5039H146.654L143.182 70.3759L143.998 70.7279H141.998L142.83 70.3759L139.47 80.5039H137.198ZM139.982 77.3999L140.702 75.4799H145.438L146.142 77.3999H139.982ZM151.077 80.5039V68.8239H153.349V80.5039H151.077ZM159.205 80.5039L163.189 68.8239H166.901L170.997 80.5039H168.661L165.189 70.3759L166.005 70.7279H164.005L164.837 70.3759L161.477 80.5039H159.205ZM161.989 77.3999L162.709 75.4799H167.445L168.149 77.3999H161.989ZM176.143 83.9279C175.727 83.9279 175.3 83.9119 174.863 83.8799C174.436 83.8479 174.036 83.8052 173.663 83.7519V81.8959C174.047 81.9386 174.457 81.9759 174.895 82.0079C175.332 82.0506 175.743 82.0719 176.127 82.0719C176.841 82.0719 177.417 81.9866 177.855 81.8159C178.303 81.6452 178.628 81.3732 178.831 80.9999C179.044 80.6372 179.151 80.1732 179.151 79.6079V77.8959L179.631 76.8079C179.599 77.6079 179.433 78.2906 179.135 78.8559C178.836 79.4106 178.431 79.8372 177.919 80.1359C177.407 80.4239 176.815 80.5679 176.143 80.5679C175.545 80.5679 175.001 80.4559 174.511 80.2319C174.031 80.0079 173.615 79.6986 173.263 79.3039C172.921 78.9092 172.655 78.4452 172.463 77.9119C172.271 77.3786 172.175 76.8079 172.175 76.1999V75.8639C172.175 75.2559 172.271 74.6906 172.463 74.1679C172.665 73.6346 172.948 73.1706 173.311 72.7759C173.673 72.3812 174.105 72.0772 174.607 71.8639C175.108 71.6506 175.663 71.5439 176.271 71.5439C176.985 71.5439 177.604 71.6986 178.127 72.0079C178.66 72.3172 179.076 72.7652 179.375 73.3519C179.673 73.9386 179.839 74.6586 179.871 75.5119L179.487 75.5759V71.8159H181.247V79.4799C181.247 80.5359 181.065 81.3892 180.703 82.0399C180.34 82.6906 179.78 83.1652 179.023 83.4639C178.276 83.7732 177.316 83.9279 176.143 83.9279ZM176.783 78.6639C177.209 78.6639 177.599 78.5679 177.951 78.3759C178.303 78.1839 178.585 77.9066 178.799 77.5439C179.012 77.1812 179.119 76.7439 179.119 76.2319V75.6719C179.119 75.1812 179.007 74.7652 178.783 74.4239C178.569 74.0826 178.287 73.8266 177.935 73.6559C177.583 73.4746 177.199 73.3839 176.783 73.3839C176.313 73.3839 175.897 73.4959 175.535 73.7199C175.183 73.9332 174.905 74.2372 174.703 74.6319C174.5 75.0266 174.399 75.4959 174.399 76.0399C174.399 76.5732 174.5 77.0372 174.703 77.4319C174.905 77.8266 175.183 78.1306 175.535 78.3439C175.897 78.5572 176.313 78.6639 176.783 78.6639ZM187.881 80.8079C187.134 80.8079 186.478 80.6799 185.913 80.4239C185.358 80.1679 184.894 79.8266 184.521 79.3999C184.158 78.9626 183.881 78.4772 183.689 77.9439C183.507 77.4106 183.417 76.8666 183.417 76.3119V76.0079C183.417 75.4319 183.507 74.8772 183.689 74.3439C183.881 73.7999 184.158 73.3199 184.521 72.9039C184.894 72.4772 185.353 72.1412 185.897 71.8959C186.441 71.6399 187.07 71.5119 187.785 71.5119C188.723 71.5119 189.507 71.7199 190.137 72.1359C190.777 72.5412 191.257 73.0799 191.577 73.7519C191.897 74.4132 192.057 75.1279 192.057 75.8959V76.6959H184.361V75.3359H190.665L189.977 76.0079C189.977 75.4532 189.897 74.9786 189.737 74.5839C189.577 74.1892 189.331 73.8852 189.001 73.6719C188.681 73.4586 188.275 73.3519 187.785 73.3519C187.294 73.3519 186.878 73.4639 186.537 73.6879C186.195 73.9119 185.934 74.2372 185.753 74.6639C185.582 75.0799 185.497 75.5812 185.497 76.1679C185.497 76.7119 185.582 77.1972 185.753 77.6239C185.923 78.0399 186.185 78.3706 186.537 78.6159C186.889 78.8506 187.337 78.9679 187.881 78.9679C188.425 78.9679 188.867 78.8612 189.209 78.6479C189.55 78.4239 189.769 78.1519 189.865 77.8319H191.913C191.785 78.4292 191.539 78.9519 191.177 79.3999C190.814 79.8479 190.35 80.1946 189.785 80.4399C189.23 80.6852 188.595 80.8079 187.881 80.8079ZM194.235 80.5039V71.8159H195.995V75.5439H195.835C195.835 74.6586 195.952 73.9226 196.187 73.3359C196.421 72.7386 196.768 72.2906 197.227 71.9919C197.696 71.6932 198.277 71.5439 198.971 71.5439H199.067C200.101 71.5439 200.885 71.8799 201.419 72.5519C201.952 73.2132 202.219 74.2052 202.219 75.5279V80.5039H199.995V75.3359C199.995 74.8026 199.84 74.3706 199.531 74.0399C199.232 73.7092 198.816 73.5439 198.283 73.5439C197.739 73.5439 197.296 73.7146 196.955 74.0559C196.624 74.3866 196.459 74.8346 196.459 75.3999V80.5039H194.235ZM208.706 80.6159C207.906 80.6159 207.244 80.5146 206.722 80.3119C206.21 80.0986 205.826 79.7466 205.57 79.2559C205.314 78.7546 205.186 78.0826 205.186 77.2399L205.202 69.3679H207.282L207.266 77.3839C207.266 77.8106 207.378 78.1412 207.602 78.3759C207.836 78.5999 208.167 78.7119 208.594 78.7119H209.954V80.6159H208.706ZM203.81 73.4479V71.8159H209.954V73.4479H203.81ZM138.174 103.704V91.8159H139.934V95.5599L139.662 95.5439C139.705 94.6586 139.886 93.9172 140.206 93.3199C140.537 92.7226 140.974 92.2799 141.518 91.9919C142.062 91.6932 142.67 91.5439 143.342 91.5439C143.961 91.5439 144.515 91.6559 145.006 91.8799C145.507 92.1039 145.934 92.4186 146.286 92.8239C146.649 93.2292 146.926 93.7039 147.118 94.2479C147.31 94.7812 147.406 95.3572 147.406 95.9759V96.3119C147.406 96.9412 147.31 97.5279 147.118 98.0719C146.937 98.6052 146.665 99.0799 146.302 99.4959C145.95 99.9012 145.523 100.221 145.022 100.456C144.521 100.68 143.961 100.792 143.342 100.792C142.691 100.792 142.094 100.659 141.55 100.392C141.017 100.115 140.585 99.6932 140.254 99.1279C139.923 98.5519 139.737 97.8106 139.694 96.9039L140.398 97.9759V103.704H138.174ZM142.782 98.9199C143.262 98.9199 143.678 98.8026 144.03 98.5679C144.393 98.3332 144.675 98.0079 144.878 97.5919C145.081 97.1652 145.182 96.6852 145.182 96.1519C145.182 95.5972 145.081 95.1172 144.878 94.7119C144.675 94.3066 144.393 93.9919 144.03 93.7679C143.678 93.5332 143.262 93.4159 142.782 93.4159C142.345 93.4159 141.939 93.5119 141.566 93.7039C141.203 93.8959 140.905 94.1786 140.67 94.5519C140.446 94.9252 140.334 95.3732 140.334 95.8959V96.5359C140.334 97.0372 140.451 97.4639 140.686 97.8159C140.921 98.1679 141.225 98.4399 141.598 98.6319C141.971 98.8239 142.366 98.9199 142.782 98.9199ZM154.945 100.504V97.9279H154.577V95.0639C154.577 94.5626 154.455 94.1892 154.209 93.9439C153.964 93.6986 153.585 93.5759 153.073 93.5759C152.807 93.5759 152.487 93.5812 152.113 93.5919C151.74 93.6026 151.361 93.6186 150.977 93.6399C150.604 93.6506 150.268 93.6666 149.969 93.6879V91.7999C150.215 91.7786 150.492 91.7572 150.801 91.7359C151.111 91.7146 151.425 91.7039 151.745 91.7039C152.076 91.6932 152.385 91.6879 152.673 91.6879C153.569 91.6879 154.311 91.8052 154.897 92.0399C155.495 92.2746 155.943 92.6426 156.241 93.1439C156.551 93.6452 156.705 94.3012 156.705 95.1119V100.504H154.945ZM152.145 100.728C151.516 100.728 150.961 100.616 150.481 100.392C150.012 100.168 149.644 99.8479 149.377 99.4319C149.121 99.0159 148.993 98.5146 148.993 97.9279C148.993 97.2879 149.148 96.7652 149.457 96.3599C149.777 95.9546 150.22 95.6506 150.785 95.4479C151.361 95.2452 152.033 95.1439 152.801 95.1439H154.817V96.4719H152.769C152.257 96.4719 151.863 96.5999 151.585 96.8559C151.319 97.1012 151.185 97.4212 151.185 97.8159C151.185 98.2106 151.319 98.5306 151.585 98.7759C151.863 99.0212 152.257 99.1439 152.769 99.1439C153.079 99.1439 153.361 99.0906 153.617 98.9839C153.884 98.8666 154.103 98.6746 154.273 98.4079C154.455 98.1306 154.556 97.7572 154.577 97.2879L155.121 97.9119C155.068 98.5199 154.919 99.0319 154.673 99.4479C154.439 99.8639 154.108 100.184 153.681 100.408C153.265 100.621 152.753 100.728 152.145 100.728ZM159.408 100.504V91.8159H161.168V95.4959H161.12C161.12 94.2479 161.386 93.3039 161.92 92.6639C162.453 92.0239 163.237 91.7039 164.272 91.7039H164.592V93.6399H163.984C163.237 93.6399 162.656 93.8426 162.24 94.2479C161.834 94.6426 161.632 95.2186 161.632 95.9759V100.504H159.408ZM171.617 100.504V97.9279H171.249V95.0639C171.249 94.5626 171.126 94.1892 170.881 93.9439C170.635 93.6986 170.257 93.5759 169.745 93.5759C169.478 93.5759 169.158 93.5812 168.785 93.5919C168.411 93.6026 168.033 93.6186 167.649 93.6399C167.275 93.6506 166.939 93.6666 166.641 93.6879V91.7999C166.886 91.7786 167.163 91.7572 167.473 91.7359C167.782 91.7146 168.097 91.7039 168.417 91.7039C168.747 91.6932 169.057 91.6879 169.345 91.6879C170.241 91.6879 170.982 91.8052 171.569 92.0399C172.166 92.2746 172.614 92.6426 172.913 93.1439C173.222 93.6452 173.377 94.3012 173.377 95.1119V100.504H171.617ZM168.817 100.728C168.187 100.728 167.633 100.616 167.153 100.392C166.683 100.168 166.315 99.8479 166.049 99.4319C165.793 99.0159 165.665 98.5146 165.665 97.9279C165.665 97.2879 165.819 96.7652 166.129 96.3599C166.449 95.9546 166.891 95.6506 167.457 95.4479C168.033 95.2452 168.705 95.1439 169.473 95.1439H171.489V96.4719H169.441C168.929 96.4719 168.534 96.5999 168.257 96.8559C167.99 97.1012 167.857 97.4212 167.857 97.8159C167.857 98.2106 167.99 98.5306 168.257 98.7759C168.534 99.0212 168.929 99.1439 169.441 99.1439C169.75 99.1439 170.033 99.0906 170.289 98.9839C170.555 98.8666 170.774 98.6746 170.945 98.4079C171.126 98.1306 171.227 97.7572 171.249 97.2879L171.793 97.9119C171.739 98.5199 171.59 99.0319 171.345 99.4479C171.11 99.8639 170.779 100.184 170.353 100.408C169.937 100.621 169.425 100.728 168.817 100.728ZM176.079 100.504V91.8159H177.839V95.5439H177.679C177.679 94.6692 177.791 93.9386 178.015 93.3519C178.239 92.7546 178.57 92.3066 179.007 92.0079C179.455 91.6986 180.01 91.5439 180.671 91.5439H180.767C181.439 91.5439 181.994 91.6986 182.431 92.0079C182.879 92.3066 183.21 92.7546 183.423 93.3519C183.647 93.9386 183.759 94.6692 183.759 95.5439H183.199C183.199 94.6692 183.311 93.9386 183.535 93.3519C183.77 92.7546 184.106 92.3066 184.543 92.0079C184.991 91.6986 185.546 91.5439 186.207 91.5439H186.303C186.975 91.5439 187.535 91.6986 187.983 92.0079C188.431 92.3066 188.767 92.7546 188.991 93.3519C189.226 93.9386 189.343 94.6692 189.343 95.5439V100.504H187.119V95.3359C187.119 94.7919 186.98 94.3599 186.703 94.0399C186.426 93.7092 186.031 93.5439 185.519 93.5439C185.007 93.5439 184.596 93.7146 184.287 94.0559C183.978 94.3866 183.823 94.8346 183.823 95.3999V100.504H181.599V95.3359C181.599 94.7919 181.46 94.3599 181.183 94.0399C180.906 93.7092 180.511 93.5439 179.999 93.5439C179.487 93.5439 179.076 93.7146 178.767 94.0559C178.458 94.3866 178.303 94.8346 178.303 95.3999V100.504H176.079ZM195.928 100.808C195.181 100.808 194.525 100.68 193.96 100.424C193.405 100.168 192.941 99.8266 192.568 99.3999C192.205 98.9626 191.928 98.4772 191.736 97.9439C191.554 97.4106 191.464 96.8666 191.464 96.3119V96.0079C191.464 95.4319 191.554 94.8772 191.736 94.3439C191.928 93.7999 192.205 93.3199 192.568 92.9039C192.941 92.4772 193.4 92.1412 193.944 91.8959C194.488 91.6399 195.117 91.5119 195.832 91.5119C196.77 91.5119 197.554 91.7199 198.184 92.1359C198.824 92.5412 199.304 93.0799 199.624 93.7519C199.944 94.4132 200.104 95.1279 200.104 95.8959V96.6959H192.408V95.3359H198.712L198.024 96.0079C198.024 95.4532 197.944 94.9786 197.784 94.5839C197.624 94.1892 197.378 93.8852 197.048 93.6719C196.728 93.4586 196.322 93.3519 195.832 93.3519C195.341 93.3519 194.925 93.4639 194.584 93.6879C194.242 93.9119 193.981 94.2372 193.8 94.6639C193.629 95.0799 193.544 95.5812 193.544 96.1679C193.544 96.7119 193.629 97.1972 193.8 97.6239C193.97 98.0399 194.232 98.3706 194.584 98.6159C194.936 98.8506 195.384 98.9679 195.928 98.9679C196.472 98.9679 196.914 98.8612 197.256 98.6479C197.597 98.4239 197.816 98.1519 197.912 97.8319H199.96C199.832 98.4292 199.586 98.9519 199.224 99.3999C198.861 99.8479 198.397 100.195 197.832 100.44C197.277 100.685 196.642 100.808 195.928 100.808ZM206.057 100.616C205.257 100.616 204.596 100.515 204.073 100.312C203.561 100.099 203.177 99.7466 202.921 99.2559C202.665 98.7546 202.537 98.0826 202.537 97.2399L202.553 89.3679H204.633L204.617 97.3839C204.617 97.8106 204.729 98.1412 204.953 98.3759C205.188 98.5999 205.519 98.7119 205.945 98.7119H207.305V100.616H206.057ZM201.161 93.4479V91.8159H207.305V93.4479H201.161ZM209.492 100.504V91.8159H211.252V95.4959H211.204C211.204 94.2479 211.471 93.3039 212.004 92.6639C212.537 92.0239 213.321 91.7039 214.356 91.7039H214.676V93.6399H214.068C213.321 93.6399 212.74 93.8426 212.324 94.2479C211.919 94.6426 211.716 95.2186 211.716 95.9759V100.504H209.492ZM216.9 100.504V91.8159H219.124V100.504H216.9ZM215.684 93.4799V91.8159H219.124V93.4799H215.684ZM217.716 90.7759C217.279 90.7759 216.953 90.6639 216.74 90.4399C216.537 90.2052 216.436 89.9172 216.436 89.5759C216.436 89.2132 216.537 88.9199 216.74 88.6959C216.953 88.4719 217.279 88.3599 217.716 88.3599C218.153 88.3599 218.473 88.4719 218.676 88.6959C218.879 88.9199 218.98 89.2132 218.98 89.5759C218.98 89.9172 218.879 90.2052 218.676 90.4399C218.473 90.6639 218.153 90.7759 217.716 90.7759ZM225.159 100.776C223.964 100.776 223.026 100.525 222.343 100.024C221.671 99.5119 221.319 98.8079 221.287 97.9119H223.287C223.319 98.2106 223.484 98.4826 223.783 98.7279C224.082 98.9732 224.551 99.0959 225.191 99.0959C225.724 99.0959 226.146 98.9999 226.455 98.8079C226.775 98.6159 226.935 98.3546 226.935 98.0239C226.935 97.7359 226.812 97.5066 226.567 97.3359C226.332 97.1652 225.927 97.0532 225.351 96.9999L224.583 96.9199C223.612 96.8132 222.866 96.5359 222.343 96.0879C221.82 95.6399 221.559 95.0426 221.559 94.2959C221.559 93.6986 221.708 93.1972 222.007 92.7919C222.306 92.3866 222.716 92.0826 223.239 91.8799C223.772 91.6666 224.38 91.5599 225.063 91.5599C226.13 91.5599 226.994 91.7946 227.655 92.2639C228.316 92.7332 228.663 93.4212 228.695 94.3279H226.695C226.674 94.0292 226.524 93.7732 226.247 93.5599C225.97 93.3466 225.57 93.2399 225.047 93.2399C224.578 93.2399 224.215 93.3306 223.959 93.5119C223.703 93.6932 223.575 93.9279 223.575 94.2159C223.575 94.4932 223.676 94.7066 223.879 94.8559C224.092 95.0052 224.434 95.1066 224.903 95.1599L225.671 95.2399C226.695 95.3466 227.495 95.6292 228.071 96.0879C228.658 96.5466 228.951 97.1652 228.951 97.9439C228.951 98.5199 228.791 99.0212 228.471 99.4479C228.162 99.8639 227.724 100.189 227.159 100.424C226.594 100.659 225.927 100.776 225.159 100.776ZM234.996 100.808C234.25 100.808 233.594 100.68 233.028 100.424C232.474 100.168 232.01 99.8266 231.636 99.3999C231.274 98.9626 230.996 98.4772 230.804 97.9439C230.623 97.4106 230.532 96.8666 230.532 96.3119V96.0079C230.532 95.4319 230.623 94.8772 230.804 94.3439C230.996 93.7999 231.274 93.3199 231.636 92.9039C232.01 92.4772 232.468 92.1412 233.012 91.8959C233.556 91.6399 234.186 91.5119 234.9 91.5119C235.839 91.5119 236.623 91.7199 237.252 92.1359C237.892 92.5412 238.372 93.0799 238.692 93.7519C239.012 94.4132 239.172 95.1279 239.172 95.8959V96.6959H231.476V95.3359H237.78L237.092 96.0079C237.092 95.4532 237.012 94.9786 236.852 94.5839C236.692 94.1892 236.447 93.8852 236.116 93.6719C235.796 93.4586 235.391 93.3519 234.9 93.3519C234.41 93.3519 233.994 93.4639 233.652 93.6879C233.311 93.9119 233.05 94.2372 232.868 94.6639C232.698 95.0799 232.612 95.5812 232.612 96.1679C232.612 96.7119 232.698 97.1972 232.868 97.6239C233.039 98.0399 233.3 98.3706 233.652 98.6159C234.004 98.8506 234.452 98.9679 234.996 98.9679C235.54 98.9679 235.983 98.8612 236.324 98.6479C236.666 98.4239 236.884 98.1519 236.98 97.8319H239.028C238.9 98.4292 238.655 98.9519 238.292 99.3999C237.93 99.8479 237.466 100.195 236.9 100.44C236.346 100.685 235.711 100.808 234.996 100.808ZM244.95 100.792C244.342 100.792 243.782 100.68 243.27 100.456C242.758 100.232 242.315 99.9172 241.942 99.5119C241.569 99.1066 241.281 98.6372 241.078 98.1039C240.875 97.5599 240.774 96.9732 240.774 96.3439V96.0079C240.774 95.3892 240.87 94.8079 241.062 94.2639C241.265 93.7199 241.542 93.2452 241.894 92.8399C242.257 92.4346 242.689 92.1199 243.19 91.8959C243.702 91.6612 244.267 91.5439 244.886 91.5439C245.569 91.5439 246.166 91.6932 246.678 91.9919C247.201 92.2799 247.617 92.7172 247.926 93.3039C248.235 93.8906 248.406 94.6266 248.438 95.5119L247.782 94.7439V88.8239H250.006V100.504H248.246V96.8079H248.63C248.598 97.6932 248.417 98.4346 248.086 99.0319C247.755 99.6186 247.318 100.061 246.774 100.36C246.241 100.648 245.633 100.792 244.95 100.792ZM245.446 98.9199C245.883 98.9199 246.283 98.8239 246.646 98.6319C247.009 98.4292 247.297 98.1412 247.51 97.7679C247.734 97.3839 247.846 96.9359 247.846 96.4239V95.7839C247.846 95.2719 247.734 94.8452 247.51 94.5039C247.286 94.1519 246.993 93.8852 246.63 93.7039C246.267 93.5119 245.873 93.4159 245.446 93.4159C244.966 93.4159 244.539 93.5332 244.166 93.7679C243.803 93.9919 243.515 94.3119 243.302 94.7279C243.099 95.1439 242.998 95.6292 242.998 96.1839C242.998 96.7386 243.105 97.2239 243.318 97.6399C243.531 98.0452 243.819 98.3599 244.182 98.5839C244.555 98.8079 244.977 98.9199 245.446 98.9199ZM252.938 96.7119V88.8239H255.21V96.7119H252.938ZM252.762 100.504V98.1359H255.386V100.504H252.762Z" fill="#282828"/>
</g>
<circle cx="281.306" cy="49.0104" r="11.5065" transform="rotate(12.9832 281.306 49.0104)" fill="white"/>
<path d="M279.361 56.1964L289.567 44.8032L287.305 42.7764L279.125 51.9071L274.519 47.7811L272.493 50.0436L279.361 56.1964ZM281.96 64.3508C279.841 64.4673 277.827 64.1746 275.919 63.4727C274.011 62.7709 272.33 61.7685 270.876 60.4655C269.421 59.1626 268.241 57.6013 267.334 55.7817C266.427 53.9621 265.916 51.9927 265.799 49.8736C265.683 47.7545 265.976 45.7409 266.678 43.8329C267.379 41.925 268.382 40.2437 269.685 38.7893C270.988 37.3348 272.549 36.1543 274.369 35.2476C276.188 34.341 278.158 33.8294 280.277 33.713C282.396 33.5966 284.409 33.8893 286.317 34.5911C288.225 35.2929 289.907 36.2953 291.361 37.5983C292.815 38.9012 293.996 40.4625 294.903 42.2821C295.809 44.1017 296.321 46.0711 296.437 48.1902C296.554 50.3093 296.261 52.3229 295.559 54.2309C294.857 56.1389 293.855 57.8201 292.552 59.2745C291.249 60.729 289.688 61.9095 287.868 62.8162C286.049 63.7228 284.079 64.2344 281.96 64.3508Z" fill="#62D264"/>
<defs>
<filter id="filter0_d_3136_3491" x="0.909912" y="0.503906" width="337.34" height="178" filterUnits="userSpaceOnUse" color-interpolation-filters="sRGB">
<feFlood flood-opacity="0" result="BackgroundImageFix"/>
<feColorMatrix in="SourceAlpha" type="matrix" values="0 0 0 0 0 0 0 0 0 0 0 0 0 0 0 0 0 0 127 0" result="hardAlpha"/>
<feOffset dy="4"/>
<feGaussianBlur stdDeviation="25"/>
<feComposite in2="hardAlpha" operator="out"/>
<feColorMatrix type="matrix" values="0 0 0 0 0 0 0 0 0 0 0 0 0 0 0 0 0 0 0.1 0"/>
<feBlend mode="normal" in2="BackgroundImageFix" result="effect1_dropShadow_3136_3491"/>
<feBlend mode="normal" in="SourceGraphic" in2="effect1_dropShadow_3136_3491" result="shape"/>
</filter>
<linearGradient id="paint0_linear_3136_3491" x1="70.9099" y1="85.694" x2="116.91" y2="85.694" gradientUnits="userSpaceOnUse">
<stop stop-color="#E5534E"/>
<stop offset="1" stop-color="#7D00E8"/>
</linearGradient>
</defs>
</svg>
