<svg width="1052" height="238" viewBox="0 0 1052 238" fill="none" xmlns="http://www.w3.org/2000/svg">
<path d="M0 16C0 7.16344 7.16344 0 16 0H1036C1044.84 0 1052 7.16344 1052 16V222C1052 230.837 1044.84 238 1036 238H16C7.16346 238 0 230.837 0 222V16Z" fill="white"/>
<path d="M28.227 38.361C26.973 38.361 25.8837 38.1393 24.959 37.696C24.047 37.2527 23.287 36.6763 22.679 35.967C22.0837 35.245 21.634 34.4723 21.33 33.649C21.0387 32.813 20.893 32.0087 20.893 31.236V30.818C20.893 29.9693 21.045 29.127 21.349 28.291C21.653 27.4423 22.109 26.676 22.717 25.992C23.3377 25.308 24.104 24.7633 25.016 24.358C25.928 23.94 26.9983 23.731 28.227 23.731C29.443 23.731 30.507 23.94 31.419 24.358C32.331 24.7633 33.091 25.308 33.699 25.992C34.3197 26.676 34.782 27.4423 35.086 28.291C35.39 29.127 35.542 29.9693 35.542 30.818V31.236C35.542 32.0087 35.39 32.813 35.086 33.649C34.7947 34.4723 34.345 35.245 33.737 35.967C33.1417 36.6763 32.3817 37.2527 31.457 37.696C30.545 38.1393 29.4683 38.361 28.227 38.361ZM28.227 35.853C28.9363 35.853 29.5697 35.7263 30.127 35.473C30.697 35.2197 31.1783 34.8713 31.571 34.428C31.9763 33.972 32.2803 33.459 32.483 32.889C32.6983 32.3063 32.806 31.692 32.806 31.046C32.806 30.3493 32.6983 29.7097 32.483 29.127C32.2803 28.5443 31.9763 28.0377 31.571 27.607C31.1783 27.1763 30.697 26.8407 30.127 26.6C29.557 26.3593 28.9237 26.239 28.227 26.239C27.5177 26.239 26.878 26.3593 26.308 26.6C25.738 26.8407 25.2503 27.1763 24.845 27.607C24.4523 28.0377 24.1483 28.5443 23.933 29.127C23.7303 29.7097 23.629 30.3493 23.629 31.046C23.629 31.692 23.7303 32.3063 23.933 32.889C24.1483 33.459 24.4523 33.972 24.845 34.428C25.2503 34.8713 25.738 35.2197 26.308 35.473C26.878 35.7263 27.5177 35.853 28.227 35.853ZM40.1615 38L36.9315 27.683H39.6485L42.7455 38H40.1615ZM40.9405 38V35.834H43.7335V38H40.9405ZM41.9855 38L44.6455 27.683H47.1915L44.3985 38H41.9855ZM53.7305 38.361C52.8438 38.361 52.0648 38.209 51.3935 37.905C50.7348 37.601 50.1838 37.1957 49.7405 36.689C49.3098 36.1697 48.9805 35.5933 48.7525 34.96C48.5372 34.3267 48.4295 33.6807 48.4295 33.022V32.661C48.4295 31.977 48.5372 31.3183 48.7525 30.685C48.9805 30.039 49.3098 29.469 49.7405 28.975C50.1838 28.4683 50.7285 28.0693 51.3745 27.778C52.0205 27.474 52.7678 27.322 53.6165 27.322C54.7312 27.322 55.6622 27.569 56.4095 28.063C57.1695 28.5443 57.7395 29.184 58.1195 29.982C58.4995 30.7673 58.6895 31.616 58.6895 32.528V33.478H49.5505V31.863H57.0365L56.2195 32.661C56.2195 32.0023 56.1245 31.4387 55.9345 30.97C55.7445 30.5013 55.4532 30.1403 55.0605 29.887C54.6805 29.6337 54.1992 29.507 53.6165 29.507C53.0338 29.507 52.5398 29.64 52.1345 29.906C51.7292 30.172 51.4188 30.5583 51.2035 31.065C51.0008 31.559 50.8995 32.1543 50.8995 32.851C50.8995 33.497 51.0008 34.0733 51.2035 34.58C51.4062 35.074 51.7165 35.4667 52.1345 35.758C52.5525 36.0367 53.0845 36.176 53.7305 36.176C54.3765 36.176 54.9022 36.0493 55.3075 35.796C55.7128 35.53 55.9725 35.207 56.0865 34.827H58.5185C58.3665 35.5363 58.0752 36.157 57.6445 36.689C57.2138 37.221 56.6628 37.6327 55.9915 37.924C55.3328 38.2153 54.5792 38.361 53.7305 38.361ZM61.0457 38V27.683H63.1357V32.053H63.0787C63.0787 30.571 63.3954 29.45 64.0287 28.69C64.6621 27.93 65.5931 27.55 66.8217 27.55H67.2017V29.849H66.4797C65.5931 29.849 64.9027 30.0897 64.4087 30.571C63.9274 31.0397 63.6867 31.7237 63.6867 32.623V38H61.0457ZM75.3139 38V34.941H74.8769V31.54C74.8769 30.9447 74.7312 30.5013 74.4399 30.21C74.1486 29.9187 73.6989 29.773 73.0909 29.773C72.7742 29.773 72.3942 29.7793 71.9509 29.792C71.5076 29.8047 71.0579 29.8237 70.6019 29.849C70.1586 29.8617 69.7596 29.8807 69.4049 29.906V27.664C69.6962 27.6387 70.0256 27.6133 70.3929 27.588C70.7602 27.5627 71.1339 27.55 71.5139 27.55C71.9066 27.5373 72.2739 27.531 72.6159 27.531C73.6799 27.531 74.5602 27.6703 75.2569 27.949C75.9662 28.2277 76.4982 28.6647 76.8529 29.26C77.2202 29.8553 77.4039 30.6343 77.4039 31.597V38H75.3139ZM71.9889 38.266C71.2416 38.266 70.5829 38.133 70.0129 37.867C69.4556 37.601 69.0186 37.221 68.7019 36.727C68.3979 36.233 68.2459 35.6377 68.2459 34.941C68.2459 34.181 68.4296 33.5603 68.7969 33.079C69.1769 32.5977 69.7026 32.2367 70.3739 31.996C71.0579 31.7553 71.8559 31.635 72.7679 31.635H75.1619V33.212H72.7299C72.1219 33.212 71.6532 33.364 71.3239 33.668C71.0072 33.9593 70.8489 34.3393 70.8489 34.808C70.8489 35.2767 71.0072 35.6567 71.3239 35.948C71.6532 36.2393 72.1219 36.385 72.7299 36.385C73.0972 36.385 73.4329 36.3217 73.7369 36.195C74.0536 36.0557 74.3132 35.8277 74.5159 35.511C74.7312 35.1817 74.8516 34.7383 74.8769 34.181L75.5229 34.922C75.4596 35.644 75.2822 36.252 74.9909 36.746C74.7122 37.24 74.3196 37.62 73.8129 37.886C73.3189 38.1393 72.7109 38.266 71.9889 38.266ZM80.5158 38V24.13H83.1568V38H80.5158ZM79.2238 26.106V24.13H83.1568V26.106H79.2238ZM86.4549 38V24.13H89.0959V38H86.4549ZM85.1629 26.106V24.13H89.0959V26.106H85.1629ZM96.7585 38V24.13H99.4565V38H96.7585ZM102.859 38V27.683H104.949V32.11H104.759C104.759 31.0587 104.898 30.1847 105.177 29.488C105.455 28.7787 105.867 28.2467 106.412 27.892C106.969 27.5373 107.659 27.36 108.483 27.36H108.597C109.825 27.36 110.756 27.759 111.39 28.557C112.023 29.3423 112.34 30.5203 112.34 32.091V38H109.699V31.863C109.699 31.2297 109.515 30.7167 109.148 30.324C108.793 29.9313 108.299 29.735 107.666 29.735C107.02 29.735 106.494 29.9377 106.089 30.343C105.696 30.7357 105.5 31.2677 105.5 31.939V38H102.859ZM119.813 38.133C118.863 38.133 118.078 38.0127 117.457 37.772C116.849 37.5187 116.393 37.1007 116.089 36.518C115.785 35.9227 115.633 35.1247 115.633 34.124L115.652 24.776H118.122L118.103 34.295C118.103 34.8017 118.236 35.1943 118.502 35.473C118.781 35.739 119.173 35.872 119.68 35.872H121.295V38.133H119.813ZM113.999 29.621V27.683H121.295V29.621H113.999ZM128.223 38.361C127.336 38.361 126.557 38.209 125.886 37.905C125.227 37.601 124.676 37.1957 124.233 36.689C123.802 36.1697 123.473 35.5933 123.245 34.96C123.03 34.3267 122.922 33.6807 122.922 33.022V32.661C122.922 31.977 123.03 31.3183 123.245 30.685C123.473 30.039 123.802 29.469 124.233 28.975C124.676 28.4683 125.221 28.0693 125.867 27.778C126.513 27.474 127.26 27.322 128.109 27.322C129.224 27.322 130.155 27.569 130.902 28.063C131.662 28.5443 132.232 29.184 132.612 29.982C132.992 30.7673 133.182 31.616 133.182 32.528V33.478H124.043V31.863H131.529L130.712 32.661C130.712 32.0023 130.617 31.4387 130.427 30.97C130.237 30.5013 129.946 30.1403 129.553 29.887C129.173 29.6337 128.692 29.507 128.109 29.507C127.526 29.507 127.032 29.64 126.627 29.906C126.222 30.172 125.911 30.5583 125.696 31.065C125.493 31.559 125.392 32.1543 125.392 32.851C125.392 33.497 125.493 34.0733 125.696 34.58C125.899 35.074 126.209 35.4667 126.627 35.758C127.045 36.0367 127.577 36.176 128.223 36.176C128.869 36.176 129.395 36.0493 129.8 35.796C130.205 35.53 130.465 35.207 130.579 34.827H133.011C132.859 35.5363 132.568 36.157 132.137 36.689C131.706 37.221 131.155 37.6327 130.484 37.924C129.825 38.2153 129.072 38.361 128.223 38.361ZM135.538 38V27.683H137.628V32.053H137.571C137.571 30.571 137.888 29.45 138.521 28.69C139.155 27.93 140.086 27.55 141.314 27.55H141.694V29.849H140.972C140.086 29.849 139.395 30.0897 138.901 30.571C138.42 31.0397 138.179 31.7237 138.179 32.623V38H135.538ZM145.998 38L142.768 27.683H145.485L148.582 38H145.998ZM146.777 38V35.834H149.57V38H146.777ZM147.822 38L150.482 27.683H153.028L150.235 38H147.822ZM155.666 38V27.683H158.307V38H155.666ZM154.222 29.659V27.683H158.307V29.659H154.222ZM156.635 26.448C156.116 26.448 155.73 26.315 155.476 26.049C155.236 25.7703 155.115 25.4283 155.115 25.023C155.115 24.5923 155.236 24.244 155.476 23.978C155.73 23.712 156.116 23.579 156.635 23.579C157.155 23.579 157.535 23.712 157.775 23.978C158.016 24.244 158.136 24.5923 158.136 25.023C158.136 25.4283 158.016 25.7703 157.775 26.049C157.535 26.315 157.155 26.448 156.635 26.448ZM166.118 38.361C165.231 38.361 164.452 38.209 163.781 37.905C163.122 37.601 162.571 37.1957 162.128 36.689C161.697 36.1697 161.368 35.5933 161.14 34.96C160.925 34.3267 160.817 33.6807 160.817 33.022V32.661C160.817 31.977 160.925 31.3183 161.14 30.685C161.368 30.039 161.697 29.469 162.128 28.975C162.571 28.4683 163.116 28.0693 163.762 27.778C164.408 27.474 165.155 27.322 166.004 27.322C167.119 27.322 168.05 27.569 168.797 28.063C169.557 28.5443 170.127 29.184 170.507 29.982C170.887 30.7673 171.077 31.616 171.077 32.528V33.478H161.938V31.863H169.424L168.607 32.661C168.607 32.0023 168.512 31.4387 168.322 30.97C168.132 30.5013 167.841 30.1403 167.448 29.887C167.068 29.6337 166.587 29.507 166.004 29.507C165.421 29.507 164.927 29.64 164.522 29.906C164.117 30.172 163.806 30.5583 163.591 31.065C163.388 31.559 163.287 32.1543 163.287 32.851C163.287 33.497 163.388 34.0733 163.591 34.58C163.794 35.074 164.104 35.4667 164.522 35.758C164.94 36.0367 165.472 36.176 166.118 36.176C166.764 36.176 167.29 36.0493 167.695 35.796C168.1 35.53 168.36 35.207 168.474 34.827H170.906C170.754 35.5363 170.463 36.157 170.032 36.689C169.601 37.221 169.05 37.6327 168.379 37.924C167.72 38.2153 166.967 38.361 166.118 38.361ZM176.874 38L178.831 28.025H181.871L184.132 38H182.042L179.743 28.082H180.845L178.812 38H176.874ZM176.095 38L176.076 35.834H178.185V38H176.095ZM175.031 38L172.219 27.683H174.784L177.463 38H175.031ZM182.707 38V35.834H184.816L184.797 38H182.707ZM183.543 38L185.918 27.683H188.312L185.823 38H183.543ZM198.536 38.323C197.117 38.323 196.002 38.0253 195.192 37.43C194.394 36.822 193.976 35.986 193.938 34.922H196.313C196.351 35.2767 196.547 35.5997 196.902 35.891C197.256 36.1823 197.814 36.328 198.574 36.328C199.207 36.328 199.707 36.214 200.075 35.986C200.455 35.758 200.645 35.4477 200.645 35.055C200.645 34.713 200.499 34.4407 200.208 34.238C199.929 34.0353 199.448 33.9023 198.764 33.839L197.852 33.744C196.699 33.6173 195.812 33.288 195.192 32.756C194.571 32.224 194.261 31.5147 194.261 30.628C194.261 29.9187 194.438 29.3233 194.793 28.842C195.147 28.3607 195.635 27.9997 196.256 27.759C196.889 27.5057 197.611 27.379 198.422 27.379C199.688 27.379 200.714 27.6577 201.5 28.215C202.285 28.7723 202.697 29.5893 202.735 30.666H200.36C200.334 30.3113 200.157 30.0073 199.828 29.754C199.498 29.5007 199.023 29.374 198.403 29.374C197.845 29.374 197.415 29.4817 197.111 29.697C196.807 29.9123 196.655 30.191 196.655 30.533C196.655 30.8623 196.775 31.1157 197.016 31.293C197.269 31.4703 197.674 31.5907 198.232 31.654L199.144 31.749C200.36 31.8757 201.31 32.2113 201.994 32.756C202.69 33.3007 203.039 34.0353 203.039 34.96C203.039 35.644 202.849 36.2393 202.469 36.746C202.101 37.24 201.582 37.6263 200.911 37.905C200.239 38.1837 199.448 38.323 198.536 38.323ZM209.855 38.133C208.905 38.133 208.119 38.0127 207.499 37.772C206.891 37.5187 206.435 37.1007 206.131 36.518C205.827 35.9227 205.675 35.1247 205.675 34.124L205.694 24.776H208.164L208.145 34.295C208.145 34.8017 208.278 35.1943 208.544 35.473C208.822 35.739 209.215 35.872 209.722 35.872H211.337V38.133H209.855ZM204.041 29.621V27.683H211.337V29.621H204.041ZM219.917 38V34.941H219.48V31.54C219.48 30.9447 219.334 30.5013 219.043 30.21C218.752 29.9187 218.302 29.773 217.694 29.773C217.377 29.773 216.997 29.7793 216.554 29.792C216.111 29.8047 215.661 29.8237 215.205 29.849C214.762 29.8617 214.363 29.8807 214.008 29.906V27.664C214.299 27.6387 214.629 27.6133 214.996 27.588C215.363 27.5627 215.737 27.55 216.117 27.55C216.51 27.5373 216.877 27.531 217.219 27.531C218.283 27.531 219.163 27.6703 219.86 27.949C220.569 28.2277 221.101 28.6647 221.456 29.26C221.823 29.8553 222.007 30.6343 222.007 31.597V38H219.917ZM216.592 38.266C215.845 38.266 215.186 38.133 214.616 37.867C214.059 37.601 213.622 37.221 213.305 36.727C213.001 36.233 212.849 35.6377 212.849 34.941C212.849 34.181 213.033 33.5603 213.4 33.079C213.78 32.5977 214.306 32.2367 214.977 31.996C215.661 31.7553 216.459 31.635 217.371 31.635H219.765V33.212H217.333C216.725 33.212 216.256 33.364 215.927 33.668C215.61 33.9593 215.452 34.3393 215.452 34.808C215.452 35.2767 215.61 35.6567 215.927 35.948C216.256 36.2393 216.725 36.385 217.333 36.385C217.7 36.385 218.036 36.3217 218.34 36.195C218.657 36.0557 218.916 35.8277 219.119 35.511C219.334 35.1817 219.455 34.7383 219.48 34.181L220.126 34.922C220.063 35.644 219.885 36.252 219.594 36.746C219.315 37.24 218.923 37.62 218.416 37.886C217.922 38.1393 217.314 38.266 216.592 38.266ZM229.47 38.133C228.52 38.133 227.735 38.0127 227.114 37.772C226.506 37.5187 226.05 37.1007 225.746 36.518C225.442 35.9227 225.29 35.1247 225.29 34.124L225.309 24.776H227.779L227.76 34.295C227.76 34.8017 227.893 35.1943 228.159 35.473C228.438 35.739 228.83 35.872 229.337 35.872H230.952V38.133H229.47ZM223.656 29.621V27.683H230.952V29.621H223.656ZM233.813 38V27.683H236.454V38H233.813ZM232.369 29.659V27.683H236.454V29.659H232.369ZM234.782 26.448C234.262 26.448 233.876 26.315 233.623 26.049C233.382 25.7703 233.262 25.4283 233.262 25.023C233.262 24.5923 233.382 24.244 233.623 23.978C233.876 23.712 234.262 23.579 234.782 23.579C235.301 23.579 235.681 23.712 235.922 23.978C236.162 24.244 236.283 24.5923 236.283 25.023C236.283 25.4283 236.162 25.7703 235.922 26.049C235.681 26.315 235.301 26.448 234.782 26.448ZM243.39 38.323C241.972 38.323 240.857 38.0253 240.046 37.43C239.248 36.822 238.83 35.986 238.792 34.922H241.167C241.205 35.2767 241.402 35.5997 241.756 35.891C242.111 36.1823 242.668 36.328 243.428 36.328C244.062 36.328 244.562 36.214 244.929 35.986C245.309 35.758 245.499 35.4477 245.499 35.055C245.499 34.713 245.354 34.4407 245.062 34.238C244.784 34.0353 244.302 33.9023 243.618 33.839L242.706 33.744C241.554 33.6173 240.667 33.288 240.046 32.756C239.426 32.224 239.115 31.5147 239.115 30.628C239.115 29.9187 239.293 29.3233 239.647 28.842C240.002 28.3607 240.49 27.9997 241.11 27.759C241.744 27.5057 242.466 27.379 243.276 27.379C244.543 27.379 245.569 27.6577 246.354 28.215C247.14 28.7723 247.551 29.5893 247.589 30.666H245.214C245.189 30.3113 245.012 30.0073 244.682 29.754C244.353 29.5007 243.878 29.374 243.257 29.374C242.7 29.374 242.269 29.4817 241.965 29.697C241.661 29.9123 241.509 30.191 241.509 30.533C241.509 30.8623 241.63 31.1157 241.87 31.293C242.124 31.4703 242.529 31.5907 243.086 31.654L243.998 31.749C245.214 31.8757 246.164 32.2113 246.848 32.756C247.545 33.3007 247.893 34.0353 247.893 34.96C247.893 35.644 247.703 36.2393 247.323 36.746C246.956 37.24 246.437 37.6263 245.765 37.905C245.094 38.1837 244.302 38.323 243.39 38.323ZM254.709 38.133C253.759 38.133 252.974 38.0127 252.353 37.772C251.745 37.5187 251.289 37.1007 250.985 36.518C250.681 35.9227 250.529 35.1247 250.529 34.124L250.548 24.776H253.018L252.999 34.295C252.999 34.8017 253.132 35.1943 253.398 35.473C253.677 35.739 254.069 35.872 254.576 35.872H256.191V38.133H254.709ZM248.895 29.621V27.683H256.191V29.621H248.895ZM259.052 38V27.683H261.693V38H259.052ZM257.608 29.659V27.683H261.693V29.659H257.608ZM260.021 26.448C259.501 26.448 259.115 26.315 258.862 26.049C258.621 25.7703 258.501 25.4283 258.501 25.023C258.501 24.5923 258.621 24.244 258.862 23.978C259.115 23.712 259.501 23.579 260.021 23.579C260.54 23.579 260.92 23.712 261.161 23.978C261.401 24.244 261.522 24.5923 261.522 25.023C261.522 25.4283 261.401 25.7703 261.161 26.049C260.92 26.315 260.54 26.448 260.021 26.448ZM269.465 38.361C268.566 38.361 267.787 38.209 267.128 37.905C266.482 37.601 265.938 37.1957 265.494 36.689C265.064 36.1823 264.741 35.6123 264.525 34.979C264.31 34.3457 264.202 33.6997 264.202 33.041V32.68C264.202 31.9833 264.31 31.3183 264.525 30.685C264.753 30.039 265.089 29.469 265.532 28.975C265.976 28.4683 266.52 28.0693 267.166 27.778C267.825 27.474 268.585 27.322 269.446 27.322C270.346 27.322 271.15 27.4993 271.859 27.854C272.569 28.196 273.132 28.6773 273.55 29.298C273.981 29.9187 274.222 30.6407 274.272 31.464H271.707C271.644 30.932 271.416 30.4887 271.023 30.134C270.643 29.7793 270.118 29.602 269.446 29.602C268.864 29.602 268.376 29.7413 267.983 30.02C267.603 30.2987 267.318 30.685 267.128 31.179C266.938 31.6603 266.843 32.2177 266.843 32.851C266.843 33.459 266.932 34.01 267.109 34.504C267.299 34.998 267.584 35.3843 267.964 35.663C268.357 35.9417 268.857 36.081 269.465 36.081C269.921 36.081 270.314 35.9987 270.643 35.834C270.973 35.6693 271.232 35.4413 271.422 35.15C271.625 34.8587 271.752 34.5293 271.802 34.162H274.367C274.317 34.998 274.07 35.7327 273.626 36.366C273.196 36.9867 272.619 37.4743 271.897 37.829C271.188 38.1837 270.377 38.361 269.465 38.361ZM280.376 38.323C278.957 38.323 277.843 38.0253 277.032 37.43C276.234 36.822 275.816 35.986 275.778 34.922H278.153C278.191 35.2767 278.387 35.5997 278.742 35.891C279.097 36.1823 279.654 36.328 280.414 36.328C281.047 36.328 281.548 36.214 281.915 35.986C282.295 35.758 282.485 35.4477 282.485 35.055C282.485 34.713 282.339 34.4407 282.048 34.238C281.769 34.0353 281.288 33.9023 280.604 33.839L279.692 33.744C278.539 33.6173 277.653 33.288 277.032 32.756C276.411 32.224 276.101 31.5147 276.101 30.628C276.101 29.9187 276.278 29.3233 276.633 28.842C276.988 28.3607 277.475 27.9997 278.096 27.759C278.729 27.5057 279.451 27.379 280.262 27.379C281.529 27.379 282.555 27.6577 283.34 28.215C284.125 28.7723 284.537 29.5893 284.575 30.666H282.2C282.175 30.3113 281.997 30.0073 281.668 29.754C281.339 29.5007 280.864 29.374 280.243 29.374C279.686 29.374 279.255 29.4817 278.951 29.697C278.647 29.9123 278.495 30.191 278.495 30.533C278.495 30.8623 278.615 31.1157 278.856 31.293C279.109 31.4703 279.515 31.5907 280.072 31.654L280.984 31.749C282.2 31.8757 283.15 32.2113 283.834 32.756C284.531 33.3007 284.879 34.0353 284.879 34.96C284.879 35.644 284.689 36.2393 284.309 36.746C283.942 37.24 283.422 37.6263 282.751 37.905C282.08 38.1837 281.288 38.323 280.376 38.323Z" fill="#1D1B20"/>
<path d="M36 58.5H192C200.56 58.5 207.5 65.4396 207.5 74V202C207.5 210.56 200.56 217.5 192 217.5H36C27.4396 217.5 20.5 210.56 20.5 202V74C20.5 65.5735 27.2242 58.7172 35.5996 58.5049L36 58.5Z" fill="white"/>
<path d="M36 58.5H192C200.56 58.5 207.5 65.4396 207.5 74V202C207.5 210.56 200.56 217.5 192 217.5H36C27.4396 217.5 20.5 210.56 20.5 202V74C20.5 65.5735 27.2242 58.7172 35.5996 58.5049L36 58.5Z" stroke="#C9CDDE"/>
<path d="M38 103C38 88.0883 50.0883 76 65 76C79.9117 76 92 88.0883 92 103C92 117.912 79.9117 130 65 130C50.0883 130 38 117.912 38 103Z" fill="url(#paint0_linear_3131_8537)" fill-opacity="0.1"/>
<mask id="mask0_3131_8537" style="mask-type:alpha" maskUnits="userSpaceOnUse" x="48" y="86" width="34" height="34">
<rect x="48" y="86" width="34" height="34" fill="#D9D9D9"/>
</mask>
<g mask="url(#mask0_3131_8537)">
<path d="M73.1188 115.044H58.2165V98.0436L67.6157 88.6992L68.8142 89.8977C68.9613 90.0448 69.0835 90.2396 69.1808 90.4821C69.2778 90.7246 69.3264 90.953 69.3264 91.1674V91.5269L67.8226 98.0436H77.3142C77.9881 98.0436 78.5833 98.302 79.0999 98.8188C79.6168 99.3354 79.8752 99.9307 79.8752 100.605V102.893C79.8752 103.04 79.8561 103.199 79.8178 103.37C79.7798 103.54 79.7372 103.699 79.69 103.847L75.6305 113.425C75.4272 113.879 75.0868 114.263 74.6091 114.575C74.1314 114.887 73.6347 115.044 73.1188 115.044ZM60.3415 112.919H73.1188C73.2186 112.919 73.3208 112.891 73.4251 112.837C73.5297 112.782 73.6093 112.691 73.6638 112.564L77.7502 103.002V100.605C77.7502 100.477 77.7094 100.373 77.6277 100.291C77.546 100.209 77.4415 100.169 77.3142 100.169H65.1366L66.9127 92.4042L60.3415 98.9481V112.919ZM58.2165 98.0436V100.169H53.6669V112.919H58.2165V115.044H51.5419V98.0436H58.2165Z" fill="url(#paint1_linear_3131_8537)"/>
</g>
<path d="M40.944 156.936V155.56H43.552C44.1067 155.56 44.5653 155.453 44.928 155.24C45.2907 155.016 45.5627 154.717 45.744 154.344C45.936 153.971 46.032 153.555 46.032 153.096C46.032 152.627 45.936 152.205 45.744 151.832C45.5627 151.459 45.2907 151.165 44.928 150.952C44.5653 150.739 44.1067 150.632 43.552 150.632H40.944V149.256H43.264C44.224 149.256 45.024 149.411 45.664 149.72C46.3147 150.019 46.8053 150.445 47.136 151C47.4667 151.555 47.632 152.211 47.632 152.968V153.224C47.632 153.971 47.4667 154.627 47.136 155.192C46.8053 155.747 46.3147 156.179 45.664 156.488C45.024 156.787 44.224 156.936 43.264 156.936H40.944ZM39.696 161V149.256H41.264V161H39.696ZM54.9306 161V158.44H54.6746V155.48C54.6746 154.893 54.52 154.451 54.2106 154.152C53.912 153.853 53.4693 153.704 52.8826 153.704C52.552 153.704 52.2106 153.709 51.8586 153.72C51.5066 153.731 51.1706 153.741 50.8506 153.752C50.5306 153.763 50.2533 153.779 50.0186 153.8V152.456C50.2533 152.435 50.4986 152.419 50.7546 152.408C51.0213 152.387 51.2933 152.376 51.5706 152.376C51.848 152.365 52.1146 152.36 52.3706 152.36C53.2453 152.36 53.96 152.467 54.5146 152.68C55.0693 152.883 55.48 153.219 55.7466 153.688C56.0133 154.157 56.1466 154.792 56.1466 155.592V161H54.9306ZM52.1306 161.224C51.4906 161.224 50.936 161.117 50.4666 160.904C50.008 160.68 49.6506 160.36 49.3946 159.944C49.1493 159.528 49.0266 159.027 49.0266 158.44C49.0266 157.832 49.16 157.325 49.4266 156.92C49.704 156.515 50.104 156.211 50.6266 156.008C51.1493 155.795 51.7786 155.688 52.5146 155.688H54.8346V156.84H52.4506C51.832 156.84 51.3573 156.989 51.0266 157.288C50.696 157.587 50.5306 157.971 50.5306 158.44C50.5306 158.909 50.696 159.288 51.0266 159.576C51.3573 159.864 51.832 160.008 52.4506 160.008C52.8133 160.008 53.16 159.944 53.4906 159.816C53.8213 159.677 54.0933 159.453 54.3066 159.144C54.5306 158.824 54.6533 158.387 54.6746 157.832L55.0906 158.44C55.0373 159.048 54.888 159.56 54.6426 159.976C54.408 160.381 54.0773 160.691 53.6506 160.904C53.2346 161.117 52.728 161.224 52.1306 161.224ZM61.9157 161.256C60.7957 161.256 59.9264 161.016 59.3077 160.536C58.6997 160.056 58.3851 159.4 58.3637 158.568H59.8037C59.8251 158.899 59.9904 159.213 60.2997 159.512C60.6197 159.8 61.1584 159.944 61.9157 159.944C62.5984 159.944 63.1211 159.811 63.4837 159.544C63.8464 159.267 64.0277 158.931 64.0277 158.536C64.0277 158.184 63.8944 157.912 63.6277 157.72C63.3611 157.517 62.9291 157.384 62.3317 157.32L61.4037 157.224C60.5931 157.139 59.9317 156.899 59.4197 156.504C58.9077 156.099 58.6517 155.533 58.6517 154.808C58.6517 154.264 58.7904 153.8 59.0677 153.416C59.3451 153.021 59.7291 152.723 60.2197 152.52C60.7104 152.307 61.2757 152.2 61.9157 152.2C62.8757 152.2 63.6544 152.413 64.2517 152.84C64.8491 153.267 65.1584 153.901 65.1797 154.744H63.7397C63.7291 154.403 63.5691 154.115 63.2597 153.88C62.9611 153.635 62.5131 153.512 61.9157 153.512C61.3184 153.512 60.8651 153.635 60.5557 153.88C60.2464 154.125 60.0917 154.435 60.0917 154.808C60.0917 155.128 60.1984 155.384 60.4117 155.576C60.6357 155.768 60.9984 155.891 61.4997 155.944L62.4277 156.04C63.3451 156.136 64.0811 156.392 64.6357 156.808C65.1904 157.213 65.4677 157.789 65.4677 158.536C65.4677 159.069 65.3131 159.544 65.0037 159.96C64.7051 160.365 64.2891 160.685 63.7557 160.92C63.2224 161.144 62.6091 161.256 61.9157 161.256ZM70.6439 161.256C69.5239 161.256 68.6545 161.016 68.0359 160.536C67.4279 160.056 67.1132 159.4 67.0919 158.568H68.5319C68.5532 158.899 68.7185 159.213 69.0279 159.512C69.3479 159.8 69.8865 159.944 70.6439 159.944C71.3265 159.944 71.8492 159.811 72.2119 159.544C72.5745 159.267 72.7559 158.931 72.7559 158.536C72.7559 158.184 72.6225 157.912 72.3559 157.72C72.0892 157.517 71.6572 157.384 71.0599 157.32L70.1319 157.224C69.3212 157.139 68.6599 156.899 68.1479 156.504C67.6359 156.099 67.3799 155.533 67.3799 154.808C67.3799 154.264 67.5185 153.8 67.7959 153.416C68.0732 153.021 68.4572 152.723 68.9479 152.52C69.4385 152.307 70.0039 152.2 70.6439 152.2C71.6039 152.2 72.3825 152.413 72.9799 152.84C73.5772 153.267 73.8865 153.901 73.9079 154.744H72.4679C72.4572 154.403 72.2972 154.115 71.9879 153.88C71.6892 153.635 71.2412 153.512 70.6439 153.512C70.0465 153.512 69.5932 153.635 69.2839 153.88C68.9745 154.125 68.8199 154.435 68.8199 154.808C68.8199 155.128 68.9265 155.384 69.1399 155.576C69.3639 155.768 69.7265 155.891 70.2279 155.944L71.1559 156.04C72.0732 156.136 72.8092 156.392 73.3639 156.808C73.9185 157.213 74.1959 157.789 74.1959 158.536C74.1959 159.069 74.0412 159.544 73.7319 159.96C73.4332 160.365 73.0172 160.685 72.4839 160.92C71.9505 161.144 71.3372 161.256 70.6439 161.256Z" fill="#1D1B20"/>
<path d="M47.18 195.57C45.5 195.57 44.05 195.25 42.83 194.61C41.63 193.97 40.71 193.12 40.07 192.06C39.43 190.98 39.11 189.78 39.11 188.46H43.22C43.22 189.52 43.57 190.38 44.27 191.04C44.99 191.68 45.96 192 47.18 192C48 192 48.7 191.85 49.28 191.55C49.88 191.23 50.34 190.8 50.66 190.26C50.98 189.7 51.14 189.06 51.14 188.34C51.14 187.26 50.79 186.38 50.09 185.7C49.39 185 48.43 184.65 47.21 184.65C46.61 184.65 46.08 184.73 45.62 184.89C45.18 185.05 44.79 185.26 44.45 185.52L42.5 182.16L49.7 177.24L49.43 176.73H40.01V173.1H54.32V177.48L46.91 182.4L44.6 181.98C44.98 181.86 45.39 181.77 45.83 181.71C46.27 181.63 46.75 181.59 47.27 181.59C48.93 181.59 50.35 181.88 51.53 182.46C52.73 183.02 53.65 183.8 54.29 184.8C54.93 185.8 55.25 186.95 55.25 188.25V188.64C55.25 189.9 54.93 191.06 54.29 192.12C53.65 193.16 52.73 194 51.53 194.64C50.33 195.26 48.88 195.57 47.18 195.57ZM68.4593 195.63C66.8393 195.63 65.4593 195.36 64.3193 194.82C63.1993 194.26 62.2893 193.5 61.5893 192.54C60.8893 191.58 60.3793 190.47 60.0593 189.21C59.7393 187.93 59.5793 186.58 59.5793 185.16V183.84C59.5793 180.26 60.4793 177.55 62.2793 175.71C64.0993 173.85 66.7593 172.92 70.2593 172.92C71.0193 172.92 71.7293 172.94 72.3893 172.98C73.0493 173.02 73.7093 173.08 74.3693 173.16V176.73C73.7093 176.65 73.0293 176.59 72.3293 176.55C71.6493 176.51 70.9093 176.49 70.1093 176.49C68.4293 176.49 67.1093 176.78 66.1493 177.36C65.1893 177.94 64.4993 178.79 64.0793 179.91C63.6793 181.03 63.4793 182.42 63.4793 184.08V186.03L62.5193 187.41C62.5393 185.87 62.8393 184.6 63.4193 183.6C64.0193 182.58 64.8393 181.82 65.8793 181.32C66.9193 180.8 68.1093 180.54 69.4493 180.54C71.0093 180.54 72.3393 180.85 73.4393 181.47C74.5393 182.09 75.3793 182.95 75.9593 184.05C76.5593 185.15 76.8593 186.43 76.8593 187.89C76.8593 189.41 76.5193 190.76 75.8393 191.94C75.1593 193.1 74.1893 194.01 72.9293 194.67C71.6893 195.31 70.1993 195.63 68.4593 195.63ZM68.3693 192.06C69.3093 192.06 70.1093 191.89 70.7693 191.55C71.4293 191.19 71.9293 190.7 72.2693 190.08C72.6093 189.46 72.7793 188.75 72.7793 187.95C72.7793 187.13 72.6093 186.41 72.2693 185.79C71.9493 185.17 71.4693 184.69 70.8293 184.35C70.1893 184.01 69.4193 183.84 68.5193 183.84C67.6593 183.84 66.8693 184 66.1493 184.32C65.4493 184.62 64.8893 185.08 64.4693 185.7C64.0693 186.3 63.8693 187.05 63.8693 187.95C63.8693 188.73 64.0293 189.43 64.3493 190.05C64.6893 190.67 65.1893 191.16 65.8493 191.52C66.5293 191.88 67.3693 192.06 68.3693 192.06ZM89.7913 195.63C88.1713 195.63 86.7913 195.36 85.6513 194.82C84.5313 194.26 83.6213 193.5 82.9213 192.54C82.2213 191.58 81.7113 190.47 81.3913 189.21C81.0713 187.93 80.9113 186.58 80.9113 185.16V183.84C80.9113 180.26 81.8113 177.55 83.6113 175.71C85.4313 173.85 88.0913 172.92 91.5913 172.92C92.3513 172.92 93.0613 172.94 93.7213 172.98C94.3813 173.02 95.0413 173.08 95.7013 173.16V176.73C95.0413 176.65 94.3613 176.59 93.6613 176.55C92.9813 176.51 92.2413 176.49 91.4413 176.49C89.7613 176.49 88.4413 176.78 87.4813 177.36C86.5213 177.94 85.8313 178.79 85.4113 179.91C85.0113 181.03 84.8113 182.42 84.8113 184.08V186.03L83.8513 187.41C83.8713 185.87 84.1713 184.6 84.7513 183.6C85.3513 182.58 86.1713 181.82 87.2113 181.32C88.2513 180.8 89.4413 180.54 90.7813 180.54C92.3413 180.54 93.6713 180.85 94.7713 181.47C95.8713 182.09 96.7113 182.95 97.2913 184.05C97.8913 185.15 98.1913 186.43 98.1913 187.89C98.1913 189.41 97.8513 190.76 97.1713 191.94C96.4913 193.1 95.5213 194.01 94.2613 194.67C93.0213 195.31 91.5313 195.63 89.7913 195.63ZM89.7013 192.06C90.6413 192.06 91.4413 191.89 92.1013 191.55C92.7613 191.19 93.2613 190.7 93.6013 190.08C93.9413 189.46 94.1113 188.75 94.1113 187.95C94.1113 187.13 93.9413 186.41 93.6013 185.79C93.2813 185.17 92.8013 184.69 92.1613 184.35C91.5213 184.01 90.7513 183.84 89.8513 183.84C88.9913 183.84 88.2013 184 87.4813 184.32C86.7813 184.62 86.2213 185.08 85.8013 185.7C85.4013 186.3 85.2013 187.05 85.2013 187.95C85.2013 188.73 85.3613 189.43 85.6813 190.05C86.0213 190.67 86.5213 191.16 87.1813 191.52C87.8613 191.88 88.7013 192.06 89.7013 192.06Z" fill="#1D1B20"/>
<path d="M242 58.5H398C406.56 58.5 413.5 65.4396 413.5 74V202C413.5 210.56 406.56 217.5 398 217.5H242C233.44 217.5 226.5 210.56 226.5 202V74C226.5 65.5735 233.224 58.7172 241.6 58.5049L242 58.5Z" fill="white"/>
<path d="M242 58.5H398C406.56 58.5 413.5 65.4396 413.5 74V202C413.5 210.56 406.56 217.5 398 217.5H242C233.44 217.5 226.5 210.56 226.5 202V74C226.5 65.5735 233.224 58.7172 241.6 58.5049L242 58.5Z" stroke="#C9CDDE"/>
<path d="M244 103C244 88.0883 256.088 76 271 76C285.912 76 298 88.0883 298 103C298 117.912 285.912 130 271 130C256.088 130 244 117.912 244 103Z" fill="url(#paint2_linear_3131_8537)" fill-opacity="0.1"/>
<mask id="mask1_3131_8537" style="mask-type:alpha" maskUnits="userSpaceOnUse" x="254" y="86" width="34" height="34">
<rect x="254" y="86" width="34" height="34" fill="#D9D9D9"/>
</mask>
<g mask="url(#mask1_3131_8537)">
<path d="M265.197 114.333H276.803V110.083C276.803 108.47 276.239 107.09 275.111 105.944C273.983 104.798 272.613 104.225 271 104.225C269.387 104.225 268.017 104.798 266.889 105.944C265.761 107.09 265.197 108.47 265.197 110.083V114.333ZM271 101.774C272.613 101.774 273.983 101.201 275.111 100.054C276.239 98.9084 276.803 97.5289 276.803 95.916V91.666H265.197V95.916C265.197 97.5289 265.761 98.9084 266.889 100.054C268.017 101.201 269.387 101.774 271 101.774ZM260.375 116.458V114.333H263.072V110.083C263.072 108.488 263.509 107.036 264.381 105.728C265.254 104.419 266.41 103.51 267.851 102.999C266.41 102.48 265.254 101.568 264.381 100.264C263.509 98.9601 263.072 97.5107 263.072 95.916V91.666H260.375V89.541H281.625V91.666H278.928V95.916C278.928 97.5107 278.491 98.9601 277.619 100.264C276.746 101.568 275.59 102.48 274.149 102.999C275.59 103.51 276.746 104.419 277.619 105.728C278.491 107.036 278.928 108.488 278.928 110.083V114.333H281.625V116.458H260.375Z" fill="url(#paint3_linear_3131_8537)"/>
</g>
<path d="M245.728 161V149.32H247.296V161H245.728ZM250.653 161V152.456H251.869V156.12H251.677C251.677 155.277 251.789 154.568 252.013 153.992C252.248 153.405 252.6 152.963 253.069 152.664C253.539 152.355 254.131 152.2 254.845 152.2H254.909C255.987 152.2 256.781 152.536 257.293 153.208C257.816 153.88 258.077 154.851 258.077 156.12V161H256.541V155.8C256.541 155.139 256.355 154.611 255.981 154.216C255.608 153.811 255.096 153.608 254.445 153.608C253.773 153.608 253.229 153.816 252.813 154.232C252.397 154.648 252.189 155.203 252.189 155.896V161H250.653ZM264.828 164.2V152.456H266.044V156.152L265.756 156.12C265.81 155.203 266.002 154.456 266.332 153.88C266.674 153.293 267.116 152.861 267.66 152.584C268.204 152.307 268.796 152.168 269.436 152.168C270.055 152.168 270.615 152.285 271.116 152.52C271.628 152.755 272.066 153.075 272.428 153.48C272.791 153.885 273.068 154.355 273.26 154.888C273.452 155.421 273.548 155.987 273.548 156.584V156.872C273.548 157.469 273.447 158.035 273.244 158.568C273.042 159.101 272.754 159.571 272.38 159.976C272.018 160.381 271.58 160.701 271.068 160.936C270.567 161.171 270.012 161.288 269.404 161.288C268.796 161.288 268.215 161.155 267.66 160.888C267.106 160.621 266.647 160.189 266.284 159.592C265.922 158.995 265.714 158.211 265.66 157.24L266.364 158.52V164.2H264.828ZM269.164 159.944C269.74 159.944 270.242 159.811 270.668 159.544C271.095 159.267 271.426 158.888 271.66 158.408C271.895 157.917 272.012 157.357 272.012 156.728C272.012 156.088 271.895 155.528 271.66 155.048C271.426 154.568 271.095 154.195 270.668 153.928C270.242 153.651 269.74 153.512 269.164 153.512C268.652 153.512 268.178 153.629 267.74 153.864C267.303 154.088 266.951 154.419 266.684 154.856C266.428 155.283 266.3 155.8 266.3 156.408V157.144C266.3 157.731 266.434 158.232 266.7 158.648C266.967 159.064 267.319 159.384 267.756 159.608C268.194 159.832 268.663 159.944 269.164 159.944ZM276.01 161V152.456H277.226V155.976H277.162C277.162 154.728 277.434 153.816 277.978 153.24C278.532 152.653 279.359 152.36 280.458 152.36H280.746V153.736H280.202C279.348 153.736 278.692 153.965 278.234 154.424C277.775 154.872 277.546 155.523 277.546 156.376V161H276.01ZM286.564 161.288C285.818 161.288 285.162 161.16 284.596 160.904C284.031 160.648 283.551 160.312 283.156 159.896C282.772 159.469 282.479 158.995 282.276 158.472C282.084 157.949 281.988 157.416 281.988 156.872V156.584C281.988 156.04 282.09 155.507 282.292 154.984C282.495 154.451 282.794 153.976 283.188 153.56C283.583 153.133 284.063 152.797 284.628 152.552C285.194 152.296 285.839 152.168 286.564 152.168C287.29 152.168 287.935 152.296 288.5 152.552C289.066 152.797 289.546 153.133 289.94 153.56C290.335 153.976 290.634 154.451 290.836 154.984C291.039 155.507 291.14 156.04 291.14 156.584V156.872C291.14 157.416 291.039 157.949 290.836 158.472C290.644 158.995 290.351 159.469 289.956 159.896C289.572 160.312 289.098 160.648 288.532 160.904C287.967 161.16 287.311 161.288 286.564 161.288ZM286.564 159.912C287.204 159.912 287.748 159.773 288.196 159.496C288.655 159.208 289.002 158.824 289.236 158.344C289.482 157.864 289.604 157.325 289.604 156.728C289.604 156.12 289.482 155.576 289.236 155.096C288.991 154.616 288.639 154.237 288.18 153.96C287.732 153.683 287.194 153.544 286.564 153.544C285.946 153.544 285.407 153.683 284.948 153.96C284.49 154.237 284.138 154.616 283.892 155.096C283.647 155.576 283.524 156.12 283.524 156.728C283.524 157.325 283.642 157.864 283.876 158.344C284.122 158.824 284.468 159.208 284.916 159.496C285.375 159.773 285.924 159.912 286.564 159.912ZM296.823 164.328C296.428 164.328 296.028 164.312 295.623 164.28C295.228 164.248 294.849 164.205 294.487 164.152V162.856C294.871 162.909 295.271 162.952 295.687 162.984C296.113 163.027 296.513 163.048 296.887 163.048C297.665 163.048 298.284 162.941 298.743 162.728C299.212 162.525 299.548 162.2 299.751 161.752C299.964 161.315 300.071 160.749 300.071 160.056V158.424L300.583 157.208C300.551 158.072 300.369 158.792 300.039 159.368C299.708 159.933 299.276 160.36 298.743 160.648C298.22 160.925 297.639 161.064 296.999 161.064C296.401 161.064 295.852 160.952 295.351 160.728C294.86 160.493 294.433 160.173 294.071 159.768C293.719 159.363 293.441 158.899 293.239 158.376C293.047 157.843 292.951 157.283 292.951 156.696V156.408C292.951 155.811 293.052 155.256 293.255 154.744C293.457 154.221 293.74 153.768 294.103 153.384C294.465 153 294.897 152.701 295.399 152.488C295.911 152.275 296.471 152.168 297.079 152.168C297.793 152.168 298.423 152.323 298.967 152.632C299.511 152.931 299.937 153.373 300.247 153.96C300.567 154.536 300.743 155.245 300.775 156.088L300.327 156.104V152.456H301.543V159.992C301.543 161.016 301.383 161.843 301.063 162.472C300.753 163.112 300.252 163.581 299.559 163.88C298.876 164.179 297.964 164.328 296.823 164.328ZM297.287 159.656C297.799 159.656 298.263 159.544 298.679 159.32C299.105 159.096 299.441 158.776 299.687 158.36C299.943 157.933 300.071 157.427 300.071 156.84V156.104C300.071 155.528 299.937 155.043 299.671 154.648C299.415 154.253 299.079 153.955 298.663 153.752C298.247 153.549 297.793 153.448 297.303 153.448C296.748 153.448 296.257 153.576 295.831 153.832C295.404 154.088 295.073 154.451 294.839 154.92C294.604 155.379 294.487 155.923 294.487 156.552C294.487 157.181 294.604 157.731 294.839 158.2C295.084 158.669 295.415 159.032 295.831 159.288C296.257 159.533 296.743 159.656 297.287 159.656ZM304.538 161V152.456H305.754V155.976H305.69C305.69 154.728 305.962 153.816 306.506 153.24C307.06 152.653 307.887 152.36 308.986 152.36H309.274V153.736H308.73C307.876 153.736 307.22 153.965 306.762 154.424C306.303 154.872 306.074 155.523 306.074 156.376V161H304.538ZM314.788 161.288C314.042 161.288 313.396 161.16 312.852 160.904C312.308 160.648 311.866 160.312 311.524 159.896C311.183 159.469 310.927 158.995 310.756 158.472C310.596 157.949 310.516 157.416 310.516 156.872V156.584C310.516 156.029 310.596 155.491 310.756 154.968C310.927 154.445 311.183 153.976 311.524 153.56C311.866 153.133 312.298 152.797 312.82 152.552C313.354 152.296 313.978 152.168 314.692 152.168C315.62 152.168 316.383 152.371 316.98 152.776C317.588 153.171 318.036 153.683 318.324 154.312C318.623 154.941 318.772 155.613 318.772 156.328V157.016H311.188V155.864H317.652L317.3 156.488C317.3 155.88 317.204 155.357 317.012 154.92C316.82 154.472 316.532 154.125 316.148 153.88C315.764 153.635 315.279 153.512 314.692 153.512C314.084 153.512 313.578 153.651 313.172 153.928C312.778 154.205 312.479 154.584 312.276 155.064C312.084 155.544 311.988 156.099 311.988 156.728C311.988 157.336 312.084 157.885 312.276 158.376C312.479 158.856 312.788 159.24 313.204 159.528C313.62 159.805 314.148 159.944 314.788 159.944C315.46 159.944 316.004 159.795 316.42 159.496C316.847 159.197 317.103 158.851 317.188 158.456H318.628C318.511 159.043 318.276 159.549 317.924 159.976C317.572 160.403 317.13 160.728 316.596 160.952C316.063 161.176 315.46 161.288 314.788 161.288ZM323.903 161.256C322.783 161.256 321.914 161.016 321.295 160.536C320.687 160.056 320.373 159.4 320.351 158.568H321.791C321.813 158.899 321.978 159.213 322.287 159.512C322.607 159.8 323.146 159.944 323.903 159.944C324.586 159.944 325.109 159.811 325.471 159.544C325.834 159.267 326.015 158.931 326.015 158.536C326.015 158.184 325.882 157.912 325.615 157.72C325.349 157.517 324.917 157.384 324.319 157.32L323.391 157.224C322.581 157.139 321.919 156.899 321.407 156.504C320.895 156.099 320.639 155.533 320.639 154.808C320.639 154.264 320.778 153.8 321.055 153.416C321.333 153.021 321.717 152.723 322.207 152.52C322.698 152.307 323.263 152.2 323.903 152.2C324.863 152.2 325.642 152.413 326.239 152.84C326.837 153.267 327.146 153.901 327.167 154.744H325.727C325.717 154.403 325.557 154.115 325.247 153.88C324.949 153.635 324.501 153.512 323.903 153.512C323.306 153.512 322.853 153.635 322.543 153.88C322.234 154.125 322.079 154.435 322.079 154.808C322.079 155.128 322.186 155.384 322.399 155.576C322.623 155.768 322.986 155.891 323.487 155.944L324.415 156.04C325.333 156.136 326.069 156.392 326.623 156.808C327.178 157.213 327.455 157.789 327.455 158.536C327.455 159.069 327.301 159.544 326.991 159.96C326.693 160.365 326.277 160.685 325.743 160.92C325.21 161.144 324.597 161.256 323.903 161.256ZM332.631 161.256C331.511 161.256 330.642 161.016 330.023 160.536C329.415 160.056 329.101 159.4 329.079 158.568H330.519C330.541 158.899 330.706 159.213 331.015 159.512C331.335 159.8 331.874 159.944 332.631 159.944C333.314 159.944 333.837 159.811 334.199 159.544C334.562 159.267 334.743 158.931 334.743 158.536C334.743 158.184 334.61 157.912 334.343 157.72C334.077 157.517 333.645 157.384 333.047 157.32L332.119 157.224C331.309 157.139 330.647 156.899 330.135 156.504C329.623 156.099 329.367 155.533 329.367 154.808C329.367 154.264 329.506 153.8 329.783 153.416C330.061 153.021 330.445 152.723 330.935 152.52C331.426 152.307 331.991 152.2 332.631 152.2C333.591 152.2 334.37 152.413 334.967 152.84C335.565 153.267 335.874 153.901 335.895 154.744H334.455C334.445 154.403 334.285 154.115 333.975 153.88C333.677 153.635 333.229 153.512 332.631 153.512C332.034 153.512 331.581 153.635 331.271 153.88C330.962 154.125 330.807 154.435 330.807 154.808C330.807 155.128 330.914 155.384 331.127 155.576C331.351 155.768 331.714 155.891 332.215 155.944L333.143 156.04C334.061 156.136 334.797 156.392 335.351 156.808C335.906 157.213 336.183 157.789 336.183 158.536C336.183 159.069 336.029 159.544 335.719 159.96C335.421 160.365 335.005 160.685 334.471 160.92C333.938 161.144 333.325 161.256 332.631 161.256Z" fill="#1D1B20"/>
<path d="M249.55 195V175.74L250.87 176.76H245.08V173.1H253.78V195H249.55ZM267.434 195.57C265.714 195.57 264.234 195.23 262.994 194.55C261.774 193.87 260.834 192.97 260.174 191.85C259.534 190.71 259.214 189.47 259.214 188.13H263.324C263.324 188.89 263.494 189.56 263.834 190.14C264.194 190.72 264.684 191.18 265.304 191.52C265.924 191.84 266.644 192 267.464 192C268.324 192 269.064 191.82 269.684 191.46C270.304 191.1 270.774 190.61 271.094 189.99C271.434 189.37 271.604 188.66 271.604 187.86C271.604 187.08 271.434 186.38 271.094 185.76C270.774 185.12 270.304 184.62 269.684 184.26C269.084 183.88 268.354 183.69 267.494 183.69C266.774 183.69 266.094 183.83 265.454 184.11C264.814 184.39 264.314 184.76 263.954 185.22H260.024L261.134 173.1H273.824V176.73H262.994L264.494 175.56L263.774 183.12L262.754 182.82C263.334 182.16 264.044 181.61 264.884 181.17C265.724 180.73 266.784 180.51 268.064 180.51C269.684 180.51 271.064 180.84 272.204 181.5C273.344 182.16 274.214 183.04 274.814 184.14C275.414 185.22 275.714 186.4 275.714 187.68V188.07C275.714 189.37 275.394 190.59 274.754 191.73C274.114 192.87 273.174 193.8 271.934 194.52C270.714 195.22 269.214 195.57 267.434 195.57ZM278.986 190.47V185.85L287.566 172.5L290.776 174.69L283.216 186.51L283.576 187.11H297.016V190.47H278.986ZM290.446 195V179.31H294.376V195H290.446Z" fill="#1D1B20"/>
<path d="M448 58.5H604C612.56 58.5 619.5 65.4396 619.5 74V202C619.5 210.56 612.56 217.5 604 217.5H448C439.44 217.5 432.5 210.56 432.5 202V74C432.5 65.5735 439.224 58.7172 447.6 58.5049L448 58.5Z" fill="white"/>
<path d="M448 58.5H604C612.56 58.5 619.5 65.4396 619.5 74V202C619.5 210.56 612.56 217.5 604 217.5H448C439.44 217.5 432.5 210.56 432.5 202V74C432.5 65.5735 439.224 58.7172 447.6 58.5049L448 58.5Z" stroke="#C9CDDE"/>
<path d="M450 103C450 88.0883 462.088 76 477 76C491.912 76 504 88.0883 504 103C504 117.912 491.912 130 477 130C462.088 130 450 117.912 450 103Z" fill="url(#paint4_linear_3131_8537)" fill-opacity="0.1"/>
<mask id="mask2_3131_8537" style="mask-type:alpha" maskUnits="userSpaceOnUse" x="460" y="86" width="34" height="34">
<rect x="460" y="86" width="34" height="34" fill="#D9D9D9"/>
</mask>
<g mask="url(#mask2_3131_8537)">
<path d="M477 109.675C477.324 109.675 477.596 109.566 477.815 109.346C478.035 109.127 478.144 108.855 478.144 108.531C478.144 108.207 478.035 107.935 477.815 107.716C477.596 107.497 477.324 107.387 477 107.387C476.676 107.387 476.404 107.497 476.185 107.716C475.965 107.935 475.856 108.207 475.856 108.531C475.856 108.855 475.965 109.127 476.185 109.346C476.404 109.566 476.676 109.675 477 109.675ZM475.937 104.744H478.062V96.1897H475.937V104.744ZM471.987 115.042L464.958 108.02V97.9878L471.981 90.959H482.013L489.042 97.9814V108.014L482.019 115.042H471.987ZM472.892 112.917H481.108L486.917 107.109V98.8923L481.108 93.084H472.892L467.083 98.8923V107.109L472.892 112.917Z" fill="url(#paint5_linear_3131_8537)"/>
</g>
<path d="M451.728 161V149.32H453.296V161H451.728ZM456.653 161V152.456H457.869V156.12H457.677C457.677 155.277 457.789 154.568 458.013 153.992C458.248 153.405 458.6 152.963 459.069 152.664C459.539 152.355 460.131 152.2 460.845 152.2H460.909C461.987 152.2 462.781 152.536 463.293 153.208C463.816 153.88 464.077 154.851 464.077 156.12V161H462.541V155.8C462.541 155.139 462.355 154.611 461.981 154.216C461.608 153.811 461.096 153.608 460.445 153.608C459.773 153.608 459.229 153.816 458.813 154.232C458.397 154.648 458.189 155.203 458.189 155.896V161H456.653ZM470.702 161.288C469.966 161.288 469.326 161.16 468.782 160.904C468.248 160.648 467.806 160.307 467.454 159.88C467.102 159.443 466.835 158.963 466.654 158.44C466.483 157.917 466.398 157.395 466.398 156.872V156.584C466.398 156.04 466.483 155.507 466.654 154.984C466.835 154.461 467.102 153.992 467.454 153.576C467.816 153.149 468.264 152.808 468.798 152.552C469.331 152.296 469.955 152.168 470.67 152.168C471.384 152.168 472.024 152.301 472.59 152.568C473.166 152.835 473.624 153.213 473.966 153.704C474.318 154.184 474.515 154.755 474.558 155.416H473.086C473.011 154.883 472.766 154.44 472.35 154.088C471.934 153.725 471.374 153.544 470.67 153.544C470.062 153.544 469.555 153.683 469.15 153.96C468.744 154.237 468.44 154.616 468.238 155.096C468.035 155.576 467.934 156.12 467.934 156.728C467.934 157.315 468.035 157.853 468.238 158.344C468.44 158.824 468.744 159.208 469.15 159.496C469.566 159.773 470.083 159.912 470.702 159.912C471.182 159.912 471.598 159.827 471.95 159.656C472.302 159.485 472.584 159.256 472.798 158.968C473.011 158.68 473.139 158.355 473.182 157.992H474.654C474.622 158.664 474.424 159.245 474.062 159.736C473.71 160.227 473.24 160.611 472.654 160.888C472.078 161.155 471.427 161.288 470.702 161.288ZM480.827 161.288C480.08 161.288 479.424 161.16 478.859 160.904C478.293 160.648 477.813 160.312 477.419 159.896C477.035 159.469 476.741 158.995 476.539 158.472C476.347 157.949 476.251 157.416 476.251 156.872V156.584C476.251 156.04 476.352 155.507 476.555 154.984C476.757 154.451 477.056 153.976 477.451 153.56C477.845 153.133 478.325 152.797 478.891 152.552C479.456 152.296 480.101 152.168 480.827 152.168C481.552 152.168 482.197 152.296 482.763 152.552C483.328 152.797 483.808 153.133 484.203 153.56C484.597 153.976 484.896 154.451 485.099 154.984C485.301 155.507 485.403 156.04 485.403 156.584V156.872C485.403 157.416 485.301 157.949 485.099 158.472C484.907 158.995 484.613 159.469 484.219 159.896C483.835 160.312 483.36 160.648 482.795 160.904C482.229 161.16 481.573 161.288 480.827 161.288ZM480.827 159.912C481.467 159.912 482.011 159.773 482.459 159.496C482.917 159.208 483.264 158.824 483.499 158.344C483.744 157.864 483.867 157.325 483.867 156.728C483.867 156.12 483.744 155.576 483.499 155.096C483.253 154.616 482.901 154.237 482.443 153.96C481.995 153.683 481.456 153.544 480.827 153.544C480.208 153.544 479.669 153.683 479.211 153.96C478.752 154.237 478.4 154.616 478.155 155.096C477.909 155.576 477.787 156.12 477.787 156.728C477.787 157.325 477.904 157.864 478.139 158.344C478.384 158.824 478.731 159.208 479.179 159.496C479.637 159.773 480.187 159.912 480.827 159.912ZM487.853 161V152.456H489.069V156.12H488.877C488.877 155.288 488.984 154.584 489.197 154.008C489.421 153.421 489.752 152.973 490.189 152.664C490.627 152.355 491.181 152.2 491.853 152.2H491.917C492.589 152.2 493.144 152.355 493.581 152.664C494.029 152.973 494.36 153.421 494.573 154.008C494.787 154.584 494.893 155.288 494.893 156.12H494.445C494.445 155.288 494.557 154.584 494.781 154.008C495.005 153.421 495.336 152.973 495.773 152.664C496.221 152.355 496.781 152.2 497.453 152.2H497.517C498.189 152.2 498.749 152.355 499.197 152.664C499.645 152.973 499.976 153.421 500.189 154.008C500.413 154.584 500.525 155.288 500.525 156.12V161H498.989V155.784C498.989 155.091 498.819 154.557 498.477 154.184C498.136 153.8 497.661 153.608 497.053 153.608C496.424 153.608 495.917 153.811 495.533 154.216C495.149 154.611 494.957 155.165 494.957 155.88V161H493.421V155.784C493.421 155.091 493.251 154.557 492.909 154.184C492.568 153.8 492.093 153.608 491.485 153.608C490.856 153.608 490.349 153.811 489.965 154.216C489.581 154.611 489.389 155.165 489.389 155.88V161H487.853ZM503.488 164.2V152.456H504.704V156.152L504.416 156.12C504.469 155.203 504.661 154.456 504.992 153.88C505.333 153.293 505.776 152.861 506.32 152.584C506.864 152.307 507.456 152.168 508.096 152.168C508.714 152.168 509.274 152.285 509.776 152.52C510.288 152.755 510.725 153.075 511.088 153.48C511.45 153.885 511.728 154.355 511.92 154.888C512.112 155.421 512.208 155.987 512.208 156.584V156.872C512.208 157.469 512.106 158.035 511.904 158.568C511.701 159.101 511.413 159.571 511.04 159.976C510.677 160.381 510.24 160.701 509.728 160.936C509.226 161.171 508.672 161.288 508.064 161.288C507.456 161.288 506.874 161.155 506.32 160.888C505.765 160.621 505.306 160.189 504.944 159.592C504.581 158.995 504.373 158.211 504.32 157.24L505.024 158.52V164.2H503.488ZM507.824 159.944C508.4 159.944 508.901 159.811 509.328 159.544C509.754 159.267 510.085 158.888 510.32 158.408C510.554 157.917 510.672 157.357 510.672 156.728C510.672 156.088 510.554 155.528 510.32 155.048C510.085 154.568 509.754 154.195 509.328 153.928C508.901 153.651 508.4 153.512 507.824 153.512C507.312 153.512 506.837 153.629 506.4 153.864C505.962 154.088 505.61 154.419 505.344 154.856C505.088 155.283 504.96 155.8 504.96 156.408V157.144C504.96 157.731 505.093 158.232 505.36 158.648C505.626 159.064 505.978 159.384 506.416 159.608C506.853 159.832 507.322 159.944 507.824 159.944ZM514.765 161V149.32H516.301V161H514.765ZM513.581 150.536V149.32H516.301V150.536H513.581ZM523.029 161.288C522.282 161.288 521.637 161.16 521.093 160.904C520.549 160.648 520.106 160.312 519.765 159.896C519.424 159.469 519.168 158.995 518.997 158.472C518.837 157.949 518.757 157.416 518.757 156.872V156.584C518.757 156.029 518.837 155.491 518.997 154.968C519.168 154.445 519.424 153.976 519.765 153.56C520.106 153.133 520.538 152.797 521.061 152.552C521.594 152.296 522.218 152.168 522.933 152.168C523.861 152.168 524.624 152.371 525.221 152.776C525.829 153.171 526.277 153.683 526.565 154.312C526.864 154.941 527.013 155.613 527.013 156.328V157.016H519.429V155.864H525.893L525.541 156.488C525.541 155.88 525.445 155.357 525.253 154.92C525.061 154.472 524.773 154.125 524.389 153.88C524.005 153.635 523.52 153.512 522.933 153.512C522.325 153.512 521.818 153.651 521.413 153.928C521.018 154.205 520.72 154.584 520.517 155.064C520.325 155.544 520.229 156.099 520.229 156.728C520.229 157.336 520.325 157.885 520.517 158.376C520.72 158.856 521.029 159.24 521.445 159.528C521.861 159.805 522.389 159.944 523.029 159.944C523.701 159.944 524.245 159.795 524.661 159.496C525.088 159.197 525.344 158.851 525.429 158.456H526.869C526.752 159.043 526.517 159.549 526.165 159.976C525.813 160.403 525.37 160.728 524.837 160.952C524.304 161.176 523.701 161.288 523.029 161.288ZM532.672 161.096C532.032 161.096 531.477 161.005 531.008 160.824C530.549 160.643 530.192 160.333 529.936 159.896C529.691 159.448 529.568 158.845 529.568 158.088V149.864H531.04V158.28C531.04 158.739 531.163 159.096 531.408 159.352C531.664 159.597 532.021 159.72 532.48 159.72H533.984V161.096H532.672ZM528.096 153.608V152.456H533.984V153.608H528.096ZM539.876 161.288C539.129 161.288 538.484 161.16 537.94 160.904C537.396 160.648 536.953 160.312 536.612 159.896C536.271 159.469 536.015 158.995 535.844 158.472C535.684 157.949 535.604 157.416 535.604 156.872V156.584C535.604 156.029 535.684 155.491 535.844 154.968C536.015 154.445 536.271 153.976 536.612 153.56C536.953 153.133 537.385 152.797 537.908 152.552C538.441 152.296 539.065 152.168 539.78 152.168C540.708 152.168 541.471 152.371 542.068 152.776C542.676 153.171 543.124 153.683 543.412 154.312C543.711 154.941 543.86 155.613 543.86 156.328V157.016H536.276V155.864H542.74L542.388 156.488C542.388 155.88 542.292 155.357 542.1 154.92C541.908 154.472 541.62 154.125 541.236 153.88C540.852 153.635 540.367 153.512 539.78 153.512C539.172 153.512 538.665 153.651 538.26 153.928C537.865 154.205 537.567 154.584 537.364 155.064C537.172 155.544 537.076 156.099 537.076 156.728C537.076 157.336 537.172 157.885 537.364 158.376C537.567 158.856 537.876 159.24 538.292 159.528C538.708 159.805 539.236 159.944 539.876 159.944C540.548 159.944 541.092 159.795 541.508 159.496C541.935 159.197 542.191 158.851 542.276 158.456H543.716C543.599 159.043 543.364 159.549 543.012 159.976C542.66 160.403 542.217 160.728 541.684 160.952C541.151 161.176 540.548 161.288 539.876 161.288Z" fill="#1D1B20"/>
<path d="M459.84 195.6C458.16 195.6 456.68 195.33 455.4 194.79C454.12 194.25 453.12 193.48 452.4 192.48C451.68 191.48 451.32 190.29 451.32 188.91C451.32 187.99 451.48 187.18 451.8 186.48C452.12 185.76 452.56 185.15 453.12 184.65C453.68 184.13 454.34 183.74 455.1 183.48V183.12C454.52 182.86 453.99 182.52 453.51 182.1C453.05 181.68 452.68 181.17 452.4 180.57C452.14 179.97 452.01 179.28 452.01 178.5C452.01 177.18 452.35 176.08 453.03 175.2C453.73 174.3 454.67 173.63 455.85 173.19C457.05 172.73 458.38 172.5 459.84 172.5C461.32 172.5 462.65 172.73 463.83 173.19C465.03 173.63 465.97 174.3 466.65 175.2C467.35 176.08 467.7 177.18 467.7 178.5C467.7 179.28 467.56 179.97 467.28 180.57C467.02 181.17 466.66 181.68 466.2 182.1C465.74 182.52 465.21 182.86 464.61 183.12V183.48C465.37 183.74 466.03 184.13 466.59 184.65C467.17 185.17 467.61 185.79 467.91 186.51C468.23 187.21 468.39 188.01 468.39 188.91C468.39 190.29 468.03 191.48 467.31 192.48C466.61 193.48 465.62 194.25 464.34 194.79C463.06 195.33 461.56 195.6 459.84 195.6ZM459.84 192.09C460.76 192.09 461.55 191.95 462.21 191.67C462.87 191.39 463.38 190.98 463.74 190.44C464.1 189.9 464.28 189.25 464.28 188.49C464.28 187.73 464.1 187.09 463.74 186.57C463.4 186.03 462.89 185.62 462.21 185.34C461.55 185.06 460.76 184.92 459.84 184.92C458.94 184.92 458.16 185.06 457.5 185.34C456.84 185.62 456.33 186.03 455.97 186.57C455.61 187.09 455.43 187.73 455.43 188.49C455.43 189.25 455.61 189.9 455.97 190.44C456.33 190.98 456.84 191.39 457.5 191.67C458.16 191.95 458.94 192.09 459.84 192.09ZM459.84 181.74C461 181.74 461.91 181.5 462.57 181.02C463.25 180.52 463.59 179.8 463.59 178.86C463.59 177.88 463.25 177.16 462.57 176.7C461.89 176.24 460.98 176.01 459.84 176.01C458.7 176.01 457.79 176.25 457.11 176.73C456.45 177.19 456.12 177.9 456.12 178.86C456.12 179.8 456.46 180.52 457.14 181.02C457.82 181.5 458.72 181.74 459.84 181.74ZM479.897 195.57C478.217 195.57 476.767 195.25 475.547 194.61C474.347 193.97 473.427 193.12 472.787 192.06C472.147 190.98 471.827 189.78 471.827 188.46H475.937C475.937 189.52 476.287 190.38 476.987 191.04C477.707 191.68 478.677 192 479.897 192C480.717 192 481.417 191.85 481.997 191.55C482.597 191.23 483.057 190.8 483.377 190.26C483.697 189.7 483.857 189.06 483.857 188.34C483.857 187.26 483.507 186.38 482.807 185.7C482.107 185 481.147 184.65 479.927 184.65C479.327 184.65 478.797 184.73 478.337 184.89C477.897 185.05 477.507 185.26 477.167 185.52L475.217 182.16L482.417 177.24L482.147 176.73H472.727V173.1H487.037V177.48L479.627 182.4L477.317 181.98C477.697 181.86 478.107 181.77 478.547 181.71C478.987 181.63 479.467 181.59 479.987 181.59C481.647 181.59 483.067 181.88 484.247 182.46C485.447 183.02 486.367 183.8 487.007 184.8C487.647 185.8 487.967 186.95 487.967 188.25V188.64C487.967 189.9 487.647 191.06 487.007 192.12C486.367 193.16 485.447 194 484.247 194.64C483.047 195.26 481.597 195.57 479.897 195.57Z" fill="#1D1B20"/>
<path d="M654 58.5H810C818.56 58.5 825.5 65.4396 825.5 74V202C825.5 210.56 818.56 217.5 810 217.5H654C645.44 217.5 638.5 210.56 638.5 202V74C638.5 65.5735 645.224 58.7172 653.6 58.5049L654 58.5Z" fill="white"/>
<path d="M654 58.5H810C818.56 58.5 825.5 65.4396 825.5 74V202C825.5 210.56 818.56 217.5 810 217.5H654C645.44 217.5 638.5 210.56 638.5 202V74C638.5 65.5735 645.224 58.7172 653.6 58.5049L654 58.5Z" stroke="#C9CDDE"/>
<path d="M656 103C656 88.0883 668.088 76 683 76C697.912 76 710 88.0883 710 103C710 117.912 697.912 130 683 130C668.088 130 656 117.912 656 103Z" fill="url(#paint6_linear_3131_8537)" fill-opacity="0.1"/>
<mask id="mask3_3131_8537" style="mask-type:alpha" maskUnits="userSpaceOnUse" x="666" y="86" width="34" height="34">
<rect x="666" y="86" width="34" height="34" fill="#D9D9D9"/>
</mask>
<g mask="url(#mask3_3131_8537)">
<path d="M674.881 91.5293H689.784V108.529L680.384 117.874L679.186 116.675C679.039 116.528 678.917 116.333 678.819 116.09C678.722 115.848 678.674 115.62 678.674 115.405V115.046L680.178 108.529H670.686C670.012 108.529 669.417 108.271 668.9 107.754C668.383 107.237 668.125 106.642 668.125 105.968V103.68C668.125 103.533 668.144 103.374 668.182 103.203C668.22 103.032 668.263 102.873 668.31 102.726L672.37 93.1475C672.573 92.6934 672.913 92.3102 673.391 91.9979C673.869 91.6855 674.366 91.5293 674.881 91.5293ZM687.659 93.6543H674.881C674.782 93.6543 674.679 93.6815 674.575 93.7358C674.47 93.7903 674.391 93.8812 674.336 94.0085L670.25 103.571V105.968C670.25 106.095 670.291 106.2 670.373 106.281C670.454 106.363 670.559 106.404 670.686 106.404H682.864L681.088 114.169L687.659 107.625V93.6543ZM689.784 108.529V106.404H694.333V93.6543H689.784V91.5293H696.458V108.529H689.784Z" fill="url(#paint7_linear_3131_8537)"/>
</g>
<path d="M657.696 161V149.32H659.264V161H657.696ZM658.944 155.8V154.392L663.952 154.376V155.784L658.944 155.8ZM658.944 150.728V149.32H664.224V150.728H658.944ZM671.462 161V158.44H671.206V155.48C671.206 154.893 671.051 154.451 670.742 154.152C670.443 153.853 670.001 153.704 669.414 153.704C669.083 153.704 668.742 153.709 668.39 153.72C668.038 153.731 667.702 153.741 667.382 153.752C667.062 153.763 666.785 153.779 666.55 153.8V152.456C666.785 152.435 667.03 152.419 667.286 152.408C667.553 152.387 667.825 152.376 668.102 152.376C668.379 152.365 668.646 152.36 668.902 152.36C669.777 152.36 670.491 152.467 671.046 152.68C671.601 152.883 672.011 153.219 672.278 153.688C672.545 154.157 672.678 154.792 672.678 155.592V161H671.462ZM668.662 161.224C668.022 161.224 667.467 161.117 666.998 160.904C666.539 160.68 666.182 160.36 665.926 159.944C665.681 159.528 665.558 159.027 665.558 158.44C665.558 157.832 665.691 157.325 665.958 156.92C666.235 156.515 666.635 156.211 667.158 156.008C667.681 155.795 668.31 155.688 669.046 155.688H671.366V156.84H668.982C668.363 156.84 667.889 156.989 667.558 157.288C667.227 157.587 667.062 157.971 667.062 158.44C667.062 158.909 667.227 159.288 667.558 159.576C667.889 159.864 668.363 160.008 668.982 160.008C669.345 160.008 669.691 159.944 670.022 159.816C670.353 159.677 670.625 159.453 670.838 159.144C671.062 158.824 671.185 158.387 671.206 157.832L671.622 158.44C671.569 159.048 671.419 159.56 671.174 159.976C670.939 160.381 670.609 160.691 670.182 160.904C669.766 161.117 669.259 161.224 668.662 161.224ZM676.063 161V152.456H677.599V161H676.063ZM674.751 153.672V152.456H677.599V153.672H674.751ZM676.495 151.08C676.154 151.08 675.898 150.989 675.727 150.808C675.567 150.627 675.487 150.397 675.487 150.12C675.487 149.843 675.567 149.613 675.727 149.432C675.898 149.251 676.154 149.16 676.495 149.16C676.836 149.16 677.087 149.251 677.247 149.432C677.418 149.613 677.503 149.843 677.503 150.12C677.503 150.397 677.418 150.627 677.247 150.808C677.087 150.989 676.836 151.08 676.495 151.08ZM680.815 161V149.32H682.351V161H680.815ZM679.631 150.536V149.32H682.351V150.536H679.631Z" fill="#1D1B20"/>
<path d="M661.55 195V175.74L662.87 176.76H657.08V173.1H665.78V195H661.55ZM679.434 195.57C677.714 195.57 676.234 195.23 674.994 194.55C673.774 193.87 672.834 192.97 672.174 191.85C671.534 190.71 671.214 189.47 671.214 188.13H675.324C675.324 188.89 675.494 189.56 675.834 190.14C676.194 190.72 676.684 191.18 677.304 191.52C677.924 191.84 678.644 192 679.464 192C680.324 192 681.064 191.82 681.684 191.46C682.304 191.1 682.774 190.61 683.094 189.99C683.434 189.37 683.604 188.66 683.604 187.86C683.604 187.08 683.434 186.38 683.094 185.76C682.774 185.12 682.304 184.62 681.684 184.26C681.084 183.88 680.354 183.69 679.494 183.69C678.774 183.69 678.094 183.83 677.454 184.11C676.814 184.39 676.314 184.76 675.954 185.22H672.024L673.134 173.1H685.824V176.73H674.994L676.494 175.56L675.774 183.12L674.754 182.82C675.334 182.16 676.044 181.61 676.884 181.17C677.724 180.73 678.784 180.51 680.064 180.51C681.684 180.51 683.064 180.84 684.204 181.5C685.344 182.16 686.214 183.04 686.814 184.14C687.414 185.22 687.714 186.4 687.714 187.68V188.07C687.714 189.37 687.394 190.59 686.754 191.73C686.114 192.87 685.174 193.8 683.934 194.52C682.714 195.22 681.214 195.57 679.434 195.57ZM699.686 195.6C698.006 195.6 696.526 195.33 695.246 194.79C693.966 194.25 692.966 193.48 692.246 192.48C691.526 191.48 691.166 190.29 691.166 188.91C691.166 187.99 691.326 187.18 691.646 186.48C691.966 185.76 692.406 185.15 692.966 184.65C693.526 184.13 694.186 183.74 694.946 183.48V183.12C694.366 182.86 693.836 182.52 693.356 182.1C692.896 181.68 692.526 181.17 692.246 180.57C691.986 179.97 691.856 179.28 691.856 178.5C691.856 177.18 692.196 176.08 692.876 175.2C693.576 174.3 694.516 173.63 695.696 173.19C696.896 172.73 698.226 172.5 699.686 172.5C701.166 172.5 702.496 172.73 703.676 173.19C704.876 173.63 705.816 174.3 706.496 175.2C707.196 176.08 707.546 177.18 707.546 178.5C707.546 179.28 707.406 179.97 707.126 180.57C706.866 181.17 706.506 181.68 706.046 182.1C705.586 182.52 705.056 182.86 704.456 183.12V183.48C705.216 183.74 705.876 184.13 706.436 184.65C707.016 185.17 707.456 185.79 707.756 186.51C708.076 187.21 708.236 188.01 708.236 188.91C708.236 190.29 707.876 191.48 707.156 192.48C706.456 193.48 705.466 194.25 704.186 194.79C702.906 195.33 701.406 195.6 699.686 195.6ZM699.686 192.09C700.606 192.09 701.396 191.95 702.056 191.67C702.716 191.39 703.226 190.98 703.586 190.44C703.946 189.9 704.126 189.25 704.126 188.49C704.126 187.73 703.946 187.09 703.586 186.57C703.246 186.03 702.736 185.62 702.056 185.34C701.396 185.06 700.606 184.92 699.686 184.92C698.786 184.92 698.006 185.06 697.346 185.34C696.686 185.62 696.176 186.03 695.816 186.57C695.456 187.09 695.276 187.73 695.276 188.49C695.276 189.25 695.456 189.9 695.816 190.44C696.176 190.98 696.686 191.39 697.346 191.67C698.006 191.95 698.786 192.09 699.686 192.09ZM699.686 181.74C700.846 181.74 701.756 181.5 702.416 181.02C703.096 180.52 703.436 179.8 703.436 178.86C703.436 177.88 703.096 177.16 702.416 176.7C701.736 176.24 700.826 176.01 699.686 176.01C698.546 176.01 697.636 176.25 696.956 176.73C696.296 177.19 695.966 177.9 695.966 178.86C695.966 179.8 696.306 180.52 696.986 181.02C697.666 181.5 698.566 181.74 699.686 181.74ZM720.403 195.6C718.723 195.6 717.243 195.33 715.963 194.79C714.683 194.25 713.683 193.48 712.963 192.48C712.243 191.48 711.883 190.29 711.883 188.91C711.883 187.99 712.043 187.18 712.363 186.48C712.683 185.76 713.123 185.15 713.683 184.65C714.243 184.13 714.903 183.74 715.663 183.48V183.12C715.083 182.86 714.553 182.52 714.073 182.1C713.613 181.68 713.243 181.17 712.963 180.57C712.703 179.97 712.573 179.28 712.573 178.5C712.573 177.18 712.913 176.08 713.593 175.2C714.293 174.3 715.233 173.63 716.413 173.19C717.613 172.73 718.943 172.5 720.403 172.5C721.883 172.5 723.213 172.73 724.393 173.19C725.593 173.63 726.533 174.3 727.213 175.2C727.913 176.08 728.263 177.18 728.263 178.5C728.263 179.28 728.123 179.97 727.843 180.57C727.583 181.17 727.223 181.68 726.763 182.1C726.303 182.52 725.773 182.86 725.173 183.12V183.48C725.933 183.74 726.593 184.13 727.153 184.65C727.733 185.17 728.173 185.79 728.473 186.51C728.793 187.21 728.953 188.01 728.953 188.91C728.953 190.29 728.593 191.48 727.873 192.48C727.173 193.48 726.183 194.25 724.903 194.79C723.623 195.33 722.123 195.6 720.403 195.6ZM720.403 192.09C721.323 192.09 722.113 191.95 722.773 191.67C723.433 191.39 723.943 190.98 724.303 190.44C724.663 189.9 724.843 189.25 724.843 188.49C724.843 187.73 724.663 187.09 724.303 186.57C723.963 186.03 723.453 185.62 722.773 185.34C722.113 185.06 721.323 184.92 720.403 184.92C719.503 184.92 718.723 185.06 718.062 185.34C717.403 185.62 716.893 186.03 716.533 186.57C716.173 187.09 715.993 187.73 715.993 188.49C715.993 189.25 716.173 189.9 716.533 190.44C716.893 190.98 717.403 191.39 718.062 191.67C718.723 191.95 719.503 192.09 720.403 192.09ZM720.403 181.74C721.563 181.74 722.473 181.5 723.133 181.02C723.813 180.52 724.153 179.8 724.153 178.86C724.153 177.88 723.813 177.16 723.133 176.7C722.453 176.24 721.543 176.01 720.403 176.01C719.263 176.01 718.353 176.25 717.673 176.73C717.013 177.19 716.683 177.9 716.683 178.86C716.683 179.8 717.023 180.52 717.703 181.02C718.383 181.5 719.283 181.74 720.403 181.74Z" fill="#1D1B20"/>
<path d="M860 58.5H1016C1024.56 58.5 1031.5 65.4396 1031.5 74V202C1031.5 210.56 1024.56 217.5 1016 217.5H860C851.44 217.5 844.5 210.56 844.5 202V74C844.5 65.5735 851.224 58.7172 859.6 58.5049L860 58.5Z" fill="white"/>
<path d="M860 58.5H1016C1024.56 58.5 1031.5 65.4396 1031.5 74V202C1031.5 210.56 1024.56 217.5 1016 217.5H860C851.44 217.5 844.5 210.56 844.5 202V74C844.5 65.5735 851.224 58.7172 859.6 58.5049L860 58.5Z" stroke="#C9CDDE"/>
<path d="M862 103C862 88.0883 874.088 76 889 76C903.912 76 916 88.0883 916 103C916 117.912 903.912 130 889 130C874.088 130 862 117.912 862 103Z" fill="url(#paint8_linear_3131_8537)" fill-opacity="0.1"/>
<mask id="mask4_3131_8537" style="mask-type:alpha" maskUnits="userSpaceOnUse" x="872" y="86" width="34" height="34">
<rect x="872" y="86" width="34" height="34" fill="#D9D9D9"/>
</mask>
<g mask="url(#mask4_3131_8537)">
<path d="M882.897 115.042V112.917H887.937V108.062C886.735 107.821 885.673 107.315 884.75 106.545C883.827 105.775 883.172 104.815 882.783 103.665C881.148 103.471 879.769 102.777 878.645 101.584C877.52 100.391 876.958 98.974 876.958 97.334V95.9173C876.958 95.3379 877.168 94.8389 877.586 94.4203C878.005 94.0016 878.504 93.7923 879.083 93.7923H882.38V90.959H895.62V93.7923H898.917C899.496 93.7923 899.995 94.0016 900.414 94.4203C900.832 94.8389 901.042 95.3379 901.042 95.9173V97.334C901.042 98.974 900.479 100.391 899.355 101.584C898.231 102.777 896.852 103.471 895.217 103.665C894.828 104.815 894.173 105.775 893.25 106.545C892.327 107.315 891.265 107.821 890.062 108.062V112.917H895.103V115.042H882.897ZM882.38 101.382V95.9173H879.083V97.334C879.083 98.3221 879.393 99.1898 880.012 99.9371C880.632 100.684 881.421 101.166 882.38 101.382ZM889 106.025C890.244 106.025 891.3 105.591 892.167 104.724C893.034 103.856 893.468 102.801 893.468 101.557V93.084H884.532V101.557C884.532 102.801 884.966 103.856 885.833 104.724C886.7 105.591 887.756 106.025 889 106.025ZM895.62 101.382C896.579 101.166 897.368 100.684 897.988 99.9371C898.607 99.1898 898.917 98.3221 898.917 97.334V95.9173H895.62V101.382Z" fill="url(#paint9_linear_3131_8537)"/>
</g>
<path d="M867.488 159.288C866.517 159.288 865.691 159.128 865.008 158.808C864.325 158.488 863.803 158.045 863.44 157.48C863.077 156.915 862.896 156.275 862.896 155.56H864.464C864.464 155.912 864.555 156.264 864.736 156.616C864.928 156.968 865.243 157.261 865.68 157.496C866.128 157.731 866.731 157.848 867.488 157.848C868.192 157.848 868.768 157.747 869.216 157.544C869.664 157.331 869.995 157.059 870.208 156.728C870.421 156.387 870.528 156.019 870.528 155.624C870.528 155.144 870.32 154.749 869.904 154.44C869.488 154.12 868.88 153.923 868.08 153.848L866.784 153.736C865.749 153.651 864.923 153.331 864.304 152.776C863.685 152.221 863.376 151.491 863.376 150.584C863.376 149.869 863.547 149.245 863.888 148.712C864.24 148.179 864.725 147.763 865.344 147.464C865.963 147.155 866.683 147 867.504 147C868.315 147 869.029 147.149 869.648 147.448C870.267 147.747 870.747 148.168 871.088 148.712C871.44 149.245 871.616 149.885 871.616 150.632H870.048C870.048 150.259 869.957 149.907 869.776 149.576C869.605 149.245 869.333 148.973 868.96 148.76C868.587 148.547 868.101 148.44 867.504 148.44C866.928 148.44 866.448 148.541 866.064 148.744C865.691 148.947 865.408 149.213 865.216 149.544C865.035 149.864 864.944 150.211 864.944 150.584C864.944 151.011 865.109 151.389 865.44 151.72C865.771 152.051 866.261 152.243 866.912 152.296L868.208 152.408C869.008 152.472 869.696 152.643 870.272 152.92C870.859 153.187 871.307 153.549 871.616 154.008C871.936 154.456 872.096 154.995 872.096 155.624C872.096 156.339 871.904 156.973 871.52 157.528C871.136 158.083 870.597 158.515 869.904 158.824C869.211 159.133 868.405 159.288 867.488 159.288ZM877.613 159.256C876.6 159.256 875.821 158.925 875.277 158.264C874.733 157.603 874.461 156.648 874.461 155.4V150.44H875.997V155.704C875.997 156.376 876.179 156.904 876.541 157.288C876.904 157.661 877.395 157.848 878.013 157.848C878.653 157.848 879.176 157.645 879.581 157.24C879.987 156.824 880.189 156.259 880.189 155.544V150.44H881.725V159H880.509V155.336H880.701C880.701 156.179 880.589 156.893 880.365 157.48C880.141 158.056 879.805 158.499 879.357 158.808C878.92 159.107 878.36 159.256 877.677 159.256H877.613ZM888.514 159.288C887.778 159.288 887.138 159.16 886.594 158.904C886.061 158.648 885.618 158.307 885.266 157.88C884.914 157.443 884.647 156.963 884.466 156.44C884.295 155.917 884.21 155.395 884.21 154.872V154.584C884.21 154.04 884.295 153.507 884.466 152.984C884.647 152.461 884.914 151.992 885.266 151.576C885.629 151.149 886.077 150.808 886.61 150.552C887.143 150.296 887.767 150.168 888.482 150.168C889.197 150.168 889.837 150.301 890.402 150.568C890.978 150.835 891.437 151.213 891.778 151.704C892.13 152.184 892.327 152.755 892.37 153.416H890.898C890.823 152.883 890.578 152.44 890.162 152.088C889.746 151.725 889.186 151.544 888.482 151.544C887.874 151.544 887.367 151.683 886.962 151.96C886.557 152.237 886.253 152.616 886.05 153.096C885.847 153.576 885.746 154.12 885.746 154.728C885.746 155.315 885.847 155.853 886.05 156.344C886.253 156.824 886.557 157.208 886.962 157.496C887.378 157.773 887.895 157.912 888.514 157.912C888.994 157.912 889.41 157.827 889.762 157.656C890.114 157.485 890.397 157.256 890.61 156.968C890.823 156.68 890.951 156.355 890.994 155.992H892.466C892.434 156.664 892.237 157.245 891.874 157.736C891.522 158.227 891.053 158.611 890.466 158.888C889.89 159.155 889.239 159.288 888.514 159.288ZM898.367 159.288C897.631 159.288 896.991 159.16 896.447 158.904C895.914 158.648 895.471 158.307 895.119 157.88C894.767 157.443 894.501 156.963 894.319 156.44C894.149 155.917 894.063 155.395 894.063 154.872V154.584C894.063 154.04 894.149 153.507 894.319 152.984C894.501 152.461 894.767 151.992 895.119 151.576C895.482 151.149 895.93 150.808 896.463 150.552C896.997 150.296 897.621 150.168 898.335 150.168C899.05 150.168 899.69 150.301 900.255 150.568C900.831 150.835 901.29 151.213 901.631 151.704C901.983 152.184 902.181 152.755 902.223 153.416H900.751C900.677 152.883 900.431 152.44 900.015 152.088C899.599 151.725 899.039 151.544 898.335 151.544C897.727 151.544 897.221 151.683 896.815 151.96C896.41 152.237 896.106 152.616 895.903 153.096C895.701 153.576 895.599 154.12 895.599 154.728C895.599 155.315 895.701 155.853 895.903 156.344C896.106 156.824 896.41 157.208 896.815 157.496C897.231 157.773 897.749 157.912 898.367 157.912C898.847 157.912 899.263 157.827 899.615 157.656C899.967 157.485 900.25 157.256 900.463 156.968C900.677 156.68 900.805 156.355 900.847 155.992H902.319C902.287 156.664 902.09 157.245 901.727 157.736C901.375 158.227 900.906 158.611 900.319 158.888C899.743 159.155 899.093 159.288 898.367 159.288ZM908.188 159.288C907.442 159.288 906.796 159.16 906.252 158.904C905.708 158.648 905.266 158.312 904.924 157.896C904.583 157.469 904.327 156.995 904.156 156.472C903.996 155.949 903.916 155.416 903.916 154.872V154.584C903.916 154.029 903.996 153.491 904.156 152.968C904.327 152.445 904.583 151.976 904.924 151.56C905.266 151.133 905.698 150.797 906.22 150.552C906.754 150.296 907.378 150.168 908.092 150.168C909.02 150.168 909.783 150.371 910.38 150.776C910.988 151.171 911.436 151.683 911.724 152.312C912.023 152.941 912.172 153.613 912.172 154.328V155.016H904.588V153.864H911.052L910.7 154.488C910.7 153.88 910.604 153.357 910.412 152.92C910.22 152.472 909.932 152.125 909.548 151.88C909.164 151.635 908.679 151.512 908.092 151.512C907.484 151.512 906.978 151.651 906.572 151.928C906.178 152.205 905.879 152.584 905.676 153.064C905.484 153.544 905.388 154.099 905.388 154.728C905.388 155.336 905.484 155.885 905.676 156.376C905.879 156.856 906.188 157.24 906.604 157.528C907.02 157.805 907.548 157.944 908.188 157.944C908.86 157.944 909.404 157.795 909.82 157.496C910.247 157.197 910.503 156.851 910.588 156.456H912.028C911.911 157.043 911.676 157.549 911.324 157.976C910.972 158.403 910.53 158.728 909.996 158.952C909.463 159.176 908.86 159.288 908.188 159.288ZM917.303 159.256C916.183 159.256 915.314 159.016 914.695 158.536C914.087 158.056 913.773 157.4 913.751 156.568H915.191C915.213 156.899 915.378 157.213 915.687 157.512C916.007 157.8 916.546 157.944 917.303 157.944C917.986 157.944 918.509 157.811 918.871 157.544C919.234 157.267 919.415 156.931 919.415 156.536C919.415 156.184 919.282 155.912 919.015 155.72C918.749 155.517 918.317 155.384 917.719 155.32L916.791 155.224C915.981 155.139 915.319 154.899 914.807 154.504C914.295 154.099 914.039 153.533 914.039 152.808C914.039 152.264 914.178 151.8 914.455 151.416C914.733 151.021 915.117 150.723 915.607 150.52C916.098 150.307 916.663 150.2 917.303 150.2C918.263 150.2 919.042 150.413 919.639 150.84C920.237 151.267 920.546 151.901 920.567 152.744H919.127C919.117 152.403 918.957 152.115 918.647 151.88C918.349 151.635 917.901 151.512 917.303 151.512C916.706 151.512 916.253 151.635 915.943 151.88C915.634 152.125 915.479 152.435 915.479 152.808C915.479 153.128 915.586 153.384 915.799 153.576C916.023 153.768 916.386 153.891 916.887 153.944L917.815 154.04C918.733 154.136 919.469 154.392 920.023 154.808C920.578 155.213 920.855 155.789 920.855 156.536C920.855 157.069 920.701 157.544 920.391 157.96C920.093 158.365 919.677 158.685 919.143 158.92C918.61 159.144 917.997 159.256 917.303 159.256ZM926.031 159.256C924.911 159.256 924.042 159.016 923.423 158.536C922.815 158.056 922.501 157.4 922.479 156.568H923.919C923.941 156.899 924.106 157.213 924.415 157.512C924.735 157.8 925.274 157.944 926.031 157.944C926.714 157.944 927.237 157.811 927.599 157.544C927.962 157.267 928.143 156.931 928.143 156.536C928.143 156.184 928.01 155.912 927.743 155.72C927.477 155.517 927.045 155.384 926.447 155.32L925.519 155.224C924.709 155.139 924.047 154.899 923.535 154.504C923.023 154.099 922.767 153.533 922.767 152.808C922.767 152.264 922.906 151.8 923.183 151.416C923.461 151.021 923.845 150.723 924.335 150.52C924.826 150.307 925.391 150.2 926.031 150.2C926.991 150.2 927.77 150.413 928.367 150.84C928.965 151.267 929.274 151.901 929.295 152.744H927.855C927.845 152.403 927.685 152.115 927.375 151.88C927.077 151.635 926.629 151.512 926.031 151.512C925.434 151.512 924.981 151.635 924.671 151.88C924.362 152.125 924.207 152.435 924.207 152.808C924.207 153.128 924.314 153.384 924.527 153.576C924.751 153.768 925.114 153.891 925.615 153.944L926.543 154.04C927.461 154.136 928.197 154.392 928.751 154.808C929.306 155.213 929.583 155.789 929.583 156.536C929.583 157.069 929.429 157.544 929.119 157.96C928.821 158.365 928.405 158.685 927.871 158.92C927.338 159.144 926.725 159.256 926.031 159.256ZM935.75 159V150.456H936.966V153.976H936.902C936.902 152.728 937.174 151.816 937.718 151.24C938.273 150.653 939.099 150.36 940.198 150.36H940.486V151.736H939.942C939.089 151.736 938.433 151.965 937.974 152.424C937.515 152.872 937.286 153.523 937.286 154.376V159H935.75ZM947.599 159V156.44H947.343V153.48C947.343 152.893 947.189 152.451 946.879 152.152C946.581 151.853 946.138 151.704 945.551 151.704C945.221 151.704 944.879 151.709 944.527 151.72C944.175 151.731 943.839 151.741 943.519 151.752C943.199 151.763 942.922 151.779 942.687 151.8V150.456C942.922 150.435 943.167 150.419 943.423 150.408C943.69 150.387 943.962 150.376 944.239 150.376C944.517 150.365 944.783 150.36 945.039 150.36C945.914 150.36 946.629 150.467 947.183 150.68C947.738 150.883 948.149 151.219 948.415 151.688C948.682 152.157 948.815 152.792 948.815 153.592V159H947.599ZM944.799 159.224C944.159 159.224 943.605 159.117 943.135 158.904C942.677 158.68 942.319 158.36 942.063 157.944C941.818 157.528 941.695 157.027 941.695 156.44C941.695 155.832 941.829 155.325 942.095 154.92C942.373 154.515 942.773 154.211 943.295 154.008C943.818 153.795 944.447 153.688 945.183 153.688H947.503V154.84H945.119C944.501 154.84 944.026 154.989 943.695 155.288C943.365 155.587 943.199 155.971 943.199 156.44C943.199 156.909 943.365 157.288 943.695 157.576C944.026 157.864 944.501 158.008 945.119 158.008C945.482 158.008 945.829 157.944 946.159 157.816C946.49 157.677 946.762 157.453 946.975 157.144C947.199 156.824 947.322 156.387 947.343 155.832L947.759 156.44C947.706 157.048 947.557 157.56 947.311 157.976C947.077 158.381 946.746 158.691 946.319 158.904C945.903 159.117 945.397 159.224 944.799 159.224ZM955.113 159.096C954.473 159.096 953.918 159.005 953.449 158.824C952.99 158.643 952.633 158.333 952.377 157.896C952.131 157.448 952.009 156.845 952.009 156.088V147.864H953.481V156.28C953.481 156.739 953.603 157.096 953.849 157.352C954.105 157.597 954.462 157.72 954.921 157.72H956.425V159.096H955.113ZM950.537 151.608V150.456H956.425V151.608H950.537ZM959.163 159V150.456H960.699V159H959.163ZM957.851 151.672V150.456H960.699V151.672H957.851ZM959.595 149.08C959.254 149.08 958.998 148.989 958.827 148.808C958.667 148.627 958.587 148.397 958.587 148.12C958.587 147.843 958.667 147.613 958.827 147.432C958.998 147.251 959.254 147.16 959.595 147.16C959.936 147.16 960.187 147.251 960.347 147.432C960.518 147.613 960.603 147.843 960.603 148.12C960.603 148.397 960.518 148.627 960.347 148.808C960.187 148.989 959.936 149.08 959.595 149.08ZM967.755 159.288C967.008 159.288 966.352 159.16 965.787 158.904C965.222 158.648 964.742 158.312 964.347 157.896C963.963 157.469 963.67 156.995 963.467 156.472C963.275 155.949 963.179 155.416 963.179 154.872V154.584C963.179 154.04 963.28 153.507 963.483 152.984C963.686 152.451 963.984 151.976 964.379 151.56C964.774 151.133 965.254 150.797 965.819 150.552C966.384 150.296 967.03 150.168 967.755 150.168C968.48 150.168 969.126 150.296 969.691 150.552C970.256 150.797 970.736 151.133 971.131 151.56C971.526 151.976 971.824 152.451 972.027 152.984C972.23 153.507 972.331 154.04 972.331 154.584V154.872C972.331 155.416 972.23 155.949 972.027 156.472C971.835 156.995 971.542 157.469 971.147 157.896C970.763 158.312 970.288 158.648 969.723 158.904C969.158 159.16 968.502 159.288 967.755 159.288ZM967.755 157.912C968.395 157.912 968.939 157.773 969.387 157.496C969.846 157.208 970.192 156.824 970.427 156.344C970.672 155.864 970.795 155.325 970.795 154.728C970.795 154.12 970.672 153.576 970.427 153.096C970.182 152.616 969.83 152.237 969.371 151.96C968.923 151.683 968.384 151.544 967.755 151.544C967.136 151.544 966.598 151.683 966.139 151.96C965.68 152.237 965.328 152.616 965.083 153.096C964.838 153.576 964.715 154.12 964.715 154.728C964.715 155.325 964.832 155.864 965.067 156.344C965.312 156.824 965.659 157.208 966.107 157.496C966.566 157.773 967.115 157.912 967.755 157.912Z" fill="#1D1B20"/>
<g clip-path="url(#clip0_3131_8537)">
<path d="M880 166.027C870.06 166.027 862 174.079 862 184.014C862 193.948 870.06 202 880 202C889.94 202 898 193.948 898 184.014C898 174.079 889.942 166.027 880 166.027ZM880 195.601C873.588 195.601 868.391 190.408 868.391 184.001C868.391 177.593 873.588 172.401 880 172.401C886.412 172.401 891.609 177.593 891.609 184.001C891.609 190.408 886.412 195.601 880 195.601Z" fill="#29CC97"/>
<path d="M897.998 183.89H891.607C891.607 183.927 891.609 183.963 891.609 183.999C891.609 190.406 886.412 195.599 880 195.599C873.588 195.599 868.391 190.406 868.391 183.999C868.391 177.592 873.588 172.399 880 172.399C880.032 172.399 880.064 172.399 880.096 172.401V166.002C880.064 166.002 880.032 166 880 166C870.06 166 862 174.052 862 183.986C862 193.921 870.06 201.972 880 201.972C889.94 201.972 898 193.918 898 183.986C898 183.954 897.998 183.922 897.998 183.89Z" fill="#DEE1EF"/>
</g>
<path d="M915.55 194V174.74L916.87 175.76H911.08V172.1H919.78V194H915.55ZM933.404 171.47C935.024 171.47 936.394 171.75 937.514 172.31C938.654 172.85 939.574 173.6 940.274 174.56C940.974 175.52 941.484 176.64 941.804 177.92C942.124 179.18 942.284 180.52 942.284 181.94V183.26C942.284 186.84 941.374 189.56 939.554 191.42C937.754 193.26 935.104 194.18 931.604 194.18C930.844 194.18 930.134 194.16 929.474 194.12C928.814 194.08 928.154 194.02 927.494 193.94V190.37C928.154 190.45 928.824 190.51 929.504 190.55C930.204 190.59 930.954 190.61 931.754 190.61C933.434 190.61 934.754 190.32 935.714 189.74C936.674 189.16 937.354 188.31 937.754 187.19C938.174 186.07 938.384 184.68 938.384 183.02V181.07L939.344 179.69C939.324 181.23 939.014 182.51 938.414 183.53C937.834 184.53 937.024 185.29 935.984 185.81C934.944 186.31 933.754 186.56 932.414 186.56C930.854 186.56 929.524 186.25 928.424 185.63C927.324 185.01 926.474 184.15 925.874 183.05C925.294 181.95 925.004 180.67 925.004 179.21C925.004 177.69 925.344 176.35 926.024 175.19C926.704 174.01 927.664 173.1 928.904 172.46C930.164 171.8 931.664 171.47 933.404 171.47ZM933.494 175.04C932.554 175.04 931.754 175.22 931.094 175.58C930.434 175.92 929.934 176.4 929.594 177.02C929.254 177.64 929.084 178.35 929.084 179.15C929.084 179.97 929.244 180.69 929.564 181.31C929.904 181.93 930.394 182.41 931.034 182.75C931.674 183.09 932.444 183.26 933.344 183.26C934.204 183.26 934.984 183.11 935.684 182.81C936.404 182.49 936.964 182.03 937.364 181.43C937.784 180.81 937.994 180.05 937.994 179.15C937.994 178.37 937.824 177.67 937.484 177.05C937.164 176.43 936.664 175.94 935.984 175.58C935.324 175.22 934.494 175.04 933.494 175.04ZM952.546 194L960.616 172.1H964.066L955.996 194H952.546ZM950.986 184.04C949.826 184.04 948.866 183.78 948.106 183.26C947.346 182.72 946.776 182.01 946.396 181.13C946.036 180.25 945.856 179.29 945.856 178.25V177.47C945.856 176.33 946.046 175.33 946.426 174.47C946.806 173.59 947.376 172.91 948.136 172.43C948.916 171.93 949.866 171.68 950.986 171.68C952.146 171.68 953.106 171.93 953.866 172.43C954.626 172.91 955.196 173.59 955.576 174.47C955.956 175.33 956.146 176.33 956.146 177.47V178.25C956.146 179.29 955.956 180.25 955.576 181.13C955.216 182.01 954.656 182.72 953.896 183.26C953.156 183.78 952.186 184.04 950.986 184.04ZM950.986 181.25C951.706 181.25 952.236 180.99 952.576 180.47C952.936 179.93 953.116 179.07 953.116 177.89C953.116 176.61 952.936 175.72 952.576 175.22C952.216 174.72 951.686 174.47 950.986 174.47C950.286 174.47 949.756 174.72 949.396 175.22C949.056 175.72 948.886 176.6 948.886 177.86C948.886 179.04 949.056 179.9 949.396 180.44C949.756 180.98 950.286 181.25 950.986 181.25ZM965.476 194.45C964.316 194.45 963.356 194.19 962.596 193.67C961.836 193.13 961.266 192.42 960.886 191.54C960.526 190.66 960.346 189.7 960.346 188.66V187.88C960.346 186.74 960.536 185.74 960.916 184.88C961.296 184 961.866 183.32 962.626 182.84C963.406 182.34 964.356 182.09 965.476 182.09C966.636 182.09 967.596 182.34 968.356 182.84C969.116 183.32 969.686 184 970.066 184.88C970.446 185.74 970.636 186.74 970.636 187.88V188.66C970.636 189.7 970.446 190.66 970.066 191.54C969.706 192.42 969.146 193.13 968.386 193.67C967.646 194.19 966.676 194.45 965.476 194.45ZM965.476 191.66C966.196 191.66 966.726 191.4 967.066 190.88C967.426 190.34 967.606 189.48 967.606 188.3C967.606 187.02 967.426 186.13 967.066 185.63C966.706 185.13 966.176 184.88 965.476 184.88C964.776 184.88 964.246 185.13 963.886 185.63C963.546 186.13 963.376 187.01 963.376 188.27C963.376 189.45 963.546 190.31 963.886 190.85C964.246 191.39 964.776 191.66 965.476 191.66Z" fill="#1D1B20"/>
<defs>
<linearGradient id="paint0_linear_3131_8537" x1="38" y1="103.223" x2="92" y2="103.223" gradientUnits="userSpaceOnUse">
<stop stop-color="#E5534E"/>
<stop offset="1" stop-color="#7D00E8"/>
</linearGradient>
<linearGradient id="paint1_linear_3131_8537" x1="51.5419" y1="101.98" x2="79.8752" y2="101.98" gradientUnits="userSpaceOnUse">
<stop stop-color="#E5534E"/>
<stop offset="1" stop-color="#7D00E8"/>
</linearGradient>
<linearGradient id="paint2_linear_3131_8537" x1="244" y1="103.223" x2="298" y2="103.223" gradientUnits="userSpaceOnUse">
<stop stop-color="#E5534E"/>
<stop offset="1" stop-color="#7D00E8"/>
</linearGradient>
<linearGradient id="paint3_linear_3131_8537" x1="260.375" y1="103.111" x2="281.625" y2="103.111" gradientUnits="userSpaceOnUse">
<stop stop-color="#E5534E"/>
<stop offset="1" stop-color="#7D00E8"/>
</linearGradient>
<linearGradient id="paint4_linear_3131_8537" x1="450" y1="103.223" x2="504" y2="103.223" gradientUnits="userSpaceOnUse">
<stop stop-color="#E5534E"/>
<stop offset="1" stop-color="#7D00E8"/>
</linearGradient>
<linearGradient id="paint5_linear_3131_8537" x1="464.958" y1="103.1" x2="489.042" y2="103.1" gradientUnits="userSpaceOnUse">
<stop stop-color="#E5534E"/>
<stop offset="1" stop-color="#7D00E8"/>
</linearGradient>
<linearGradient id="paint6_linear_3131_8537" x1="656" y1="103.223" x2="710" y2="103.223" gradientUnits="userSpaceOnUse">
<stop stop-color="#E5534E"/>
<stop offset="1" stop-color="#7D00E8"/>
</linearGradient>
<linearGradient id="paint7_linear_3131_8537" x1="668.125" y1="104.81" x2="696.458" y2="104.81" gradientUnits="userSpaceOnUse">
<stop stop-color="#E5534E"/>
<stop offset="1" stop-color="#7D00E8"/>
</linearGradient>
<linearGradient id="paint8_linear_3131_8537" x1="862" y1="103.223" x2="916" y2="103.223" gradientUnits="userSpaceOnUse">
<stop stop-color="#E5534E"/>
<stop offset="1" stop-color="#7D00E8"/>
</linearGradient>
<linearGradient id="paint9_linear_3131_8537" x1="876.958" y1="103.1" x2="901.042" y2="103.1" gradientUnits="userSpaceOnUse">
<stop stop-color="#E5534E"/>
<stop offset="1" stop-color="#7D00E8"/>
</linearGradient>
<clipPath id="clip0_3131_8537">
<rect width="36" height="36" fill="white" transform="translate(862 166)"/>
</clipPath>
</defs>
</svg>
