<svg width="996" height="204" viewBox="0 0 996 204" fill="none" xmlns="http://www.w3.org/2000/svg">
<path d="M121.64 162L108.66 126.36H45.3L32.32 162H0.2L60.04 6.01999H95.24L154.64 162H121.64ZM76.98 39.68L55.42 98.64H98.54L76.98 39.68ZM201.22 162H171.96V53.76H199.9V66.96C202.687 61.9733 207.087 58.0133 213.1 55.08C219.113 52.1467 225.273 50.68 231.58 50.68C247.273 50.68 257.98 56.6933 263.7 68.72C271.473 56.6933 282.913 50.68 298.02 50.68C309.02 50.68 318.26 54.1267 325.74 61.02C333.367 67.9133 337.18 78.18 337.18 91.82V162H308.8V97.76C308.8 91.6 307.187 86.6867 303.96 83.02C300.88 79.2067 296.113 77.3 289.66 77.3C283.647 77.3 278.807 79.3533 275.14 83.46C271.473 87.5667 269.64 92.6267 269.64 98.64V162H240.6V97.76C240.6 91.6 238.987 86.6867 235.76 83.02C232.533 79.2067 227.767 77.3 221.46 77.3C215.3 77.3 210.387 79.3533 206.72 83.46C203.053 87.42 201.22 92.48 201.22 98.64V162ZM396.083 203.8H366.823V53.76H395.203V66.96C397.843 62.56 402.096 58.8933 407.963 55.96C413.83 52.88 420.65 51.34 428.423 51.34C443.823 51.34 455.996 56.62 464.943 67.18C473.89 77.5933 478.363 91.0867 478.363 107.66C478.363 124.233 473.596 137.873 464.063 148.58C454.676 159.287 442.43 164.64 427.323 164.64C412.95 164.64 402.536 160.24 396.083 151.44V203.8ZM441.843 130.32C446.976 124.747 449.543 117.267 449.543 107.88C449.543 98.4933 446.976 91.0867 441.843 85.66C436.856 80.2333 430.476 77.52 422.703 77.52C414.93 77.52 408.476 80.3067 403.343 85.88C398.21 91.3067 395.643 98.64 395.643 107.88C395.643 117.12 398.21 124.527 403.343 130.1C408.476 135.673 414.93 138.46 422.703 138.46C430.476 138.46 436.856 135.747 441.843 130.32ZM530.79 162H501.53V2.71999H530.79V162ZM591.376 162H562.116V53.76H591.376V162ZM558.596 18.34C558.596 13.3533 560.356 9.09999 563.876 5.57999C567.396 1.91332 571.649 0.0799866 576.636 0.0799866C581.623 0.0799866 585.876 1.83999 589.396 5.36C592.916 8.88 594.676 13.2067 594.676 18.34C594.676 23.18 592.916 27.36 589.396 30.88C585.876 34.4 581.623 36.16 576.636 36.16C571.649 36.16 567.396 34.4 563.876 30.88C560.356 27.36 558.596 23.18 558.596 18.34Z" fill="black"/>
<path d="M651.962 98.42V162H622.702V2.71999H651.962V62.78C658.562 54.86 668.315 50.9 681.222 50.9C694.422 50.9 704.395 54.9333 711.142 63C718.035 70.92 721.482 81.1867 721.482 93.8V162H692.222V98.86C692.222 92.4067 690.535 87.2 687.162 83.24C683.935 79.28 678.949 77.3 672.202 77.3C666.189 77.3 661.349 79.28 657.682 83.24C654.162 87.2 652.255 92.26 651.962 98.42ZM780.439 162H751.179V53.76H780.439V162ZM747.659 18.34C747.659 13.3533 749.419 9.09999 752.939 5.57999C756.459 1.91332 760.712 0.0799866 765.699 0.0799866C770.685 0.0799866 774.939 1.83999 778.459 5.36C781.979 8.88 783.739 13.2067 783.739 18.34C783.739 23.18 781.979 27.36 778.459 30.88C774.939 34.4 770.685 36.16 765.699 36.16C760.712 36.16 756.459 34.4 752.939 30.88C749.419 27.36 747.659 23.18 747.659 18.34ZM877.765 53.32V82.8C874.831 82.2133 871.898 81.92 868.965 81.92C860.605 81.92 853.858 84.34 848.725 89.18C843.591 93.8733 841.025 101.647 841.025 112.5V162H811.765V53.76H840.145V69.82C845.425 58.5267 855.691 52.88 870.945 52.88C872.558 52.88 874.831 53.0267 877.765 53.32ZM918.612 95.56H967.012C966.719 89.5467 964.519 84.4867 960.412 80.38C956.452 76.2733 950.586 74.22 942.812 74.22C935.772 74.22 930.052 76.42 925.652 80.82C921.252 85.22 918.906 90.1333 918.612 95.56ZM969.872 123.72L994.292 130.98C991.359 140.953 985.566 149.167 976.912 155.62C968.406 162.073 957.772 165.3 945.012 165.3C929.466 165.3 916.266 160.093 905.412 149.68C894.559 139.12 889.132 125.04 889.132 107.44C889.132 90.72 894.412 77.08 904.972 66.52C915.532 55.8133 927.999 50.46 942.372 50.46C959.092 50.46 972.146 55.4467 981.532 65.42C991.066 75.3933 995.832 89.1067 995.832 106.56C995.832 107.733 995.759 109.053 995.612 110.52C995.612 111.987 995.612 113.16 995.612 114.04L995.392 115.58H917.952C918.246 122.62 921.032 128.487 926.312 133.18C931.592 137.873 937.899 140.22 945.232 140.22C957.699 140.22 965.912 134.72 969.872 123.72Z" fill="url(#paint0_linear_2901_4899)"/>
<defs>
<linearGradient id="paint0_linear_2901_4899" x1="1004" y1="-23.3113" x2="588.906" y2="588.332" gradientUnits="userSpaceOnUse">
<stop stop-color="#8950EB"/>
<stop offset="1" stop-color="#664FCF"/>
</linearGradient>
</defs>
</svg>
