<svg width="344" height="172" viewBox="0 0 344 172" fill="none" xmlns="http://www.w3.org/2000/svg">
<g filter="url(#filter0_d_3136_3465)">
<path d="M50 62C50 53.1634 57.1634 46 66 46H277.722C286.559 46 293.722 53.1634 293.722 62V102C293.722 110.837 286.559 118 277.722 118H66C57.1634 118 50 110.837 50 102V62Z" fill="white"/>
<path d="M83.6667 89.7502L95.7502 82L83.6667 74.2498V89.7502ZM88.007 101.5C85.3106 101.5 82.7754 100.988 80.4015 99.9649C78.0279 98.9415 75.9631 97.5527 74.207 95.7984C72.4509 94.0441 71.0608 91.9811 70.0367 89.6093C69.0122 87.2379 68.5 84.7038 68.5 82.007C68.5 79.3106 69.0117 76.7754 70.0351 74.4015C71.0585 72.0279 72.4473 69.9631 74.2016 68.207C75.9559 66.4509 78.0189 65.0608 80.3907 64.0367C82.7621 63.0122 85.2962 62.5 87.993 62.5C90.6894 62.5 93.2246 63.0117 95.5985 64.0351C97.9721 65.0585 100.037 66.4473 101.793 68.2016C103.549 69.9559 104.939 72.0189 105.963 74.3907C106.988 76.7621 107.5 79.2962 107.5 81.993C107.5 84.6894 106.988 87.2246 105.965 89.5985C104.942 91.9721 103.553 94.0369 101.798 95.793C100.044 97.5491 97.9811 98.9392 95.6093 99.9633C93.2379 100.988 90.7038 101.5 88.007 101.5ZM88 99.3333C92.8389 99.3333 96.9375 97.6542 100.296 94.2958C103.654 90.9375 105.333 86.8389 105.333 82C105.333 77.1611 103.654 73.0625 100.296 69.7042C96.9375 66.3458 92.8389 64.6667 88 64.6667C83.1611 64.6667 79.0625 66.3458 75.7042 69.7042C72.3458 73.0625 70.6667 77.1611 70.6667 82C70.6667 86.8389 72.3458 90.9375 75.7042 94.2958C79.0625 97.6542 83.1611 99.3333 88 99.3333Z" fill="url(#paint0_linear_3136_3465)"/>
<path d="M125.44 77V65.24H127.712V77H125.44ZM132.576 77L128.992 71.912H131.536L135.232 77H132.576ZM127.04 73.096V71.256H130.016C130.432 71.256 130.789 71.1707 131.088 71C131.397 70.8293 131.637 70.5893 131.808 70.28C131.979 69.9707 132.064 69.6187 132.064 69.224C132.064 68.8187 131.979 68.4613 131.808 68.152C131.637 67.8427 131.397 67.6027 131.088 67.432C130.789 67.2613 130.432 67.176 130.016 67.176H127.04V65.24H129.776C130.715 65.24 131.525 65.3787 132.208 65.656C132.901 65.9333 133.435 66.3547 133.808 66.92C134.181 67.4853 134.368 68.1947 134.368 69.048V69.304C134.368 70.168 134.176 70.8773 133.792 71.432C133.419 71.9867 132.891 72.4027 132.208 72.68C131.525 72.9573 130.715 73.096 129.776 73.096H127.04ZM140.661 77.304C139.915 77.304 139.259 77.176 138.693 76.92C138.139 76.664 137.675 76.3227 137.301 75.896C136.939 75.4587 136.661 74.9733 136.469 74.44C136.288 73.9067 136.197 73.3627 136.197 72.808V72.504C136.197 71.928 136.288 71.3733 136.469 70.84C136.661 70.296 136.939 69.816 137.301 69.4C137.675 68.9733 138.133 68.6373 138.677 68.392C139.221 68.136 139.851 68.008 140.565 68.008C141.504 68.008 142.288 68.216 142.917 68.632C143.557 69.0373 144.037 69.576 144.357 70.248C144.677 70.9093 144.837 71.624 144.837 72.392V73.192H137.141V71.832H143.445L142.757 72.504C142.757 71.9493 142.677 71.4747 142.517 71.08C142.357 70.6853 142.112 70.3813 141.781 70.168C141.461 69.9547 141.056 69.848 140.565 69.848C140.075 69.848 139.659 69.96 139.317 70.184C138.976 70.408 138.715 70.7333 138.533 71.16C138.363 71.576 138.277 72.0773 138.277 72.664C138.277 73.208 138.363 73.6933 138.533 74.12C138.704 74.536 138.965 74.8667 139.317 75.112C139.669 75.3467 140.117 75.464 140.661 75.464C141.205 75.464 141.648 75.3573 141.989 75.144C142.331 74.92 142.549 74.648 142.645 74.328H144.693C144.565 74.9253 144.32 75.448 143.957 75.896C143.595 76.344 143.131 76.6907 142.565 76.936C142.011 77.1813 141.376 77.304 140.661 77.304ZM150.701 77.304C149.944 77.304 149.288 77.176 148.733 76.92C148.189 76.664 147.731 76.3227 147.357 75.896C146.995 75.4693 146.723 74.9893 146.541 74.456C146.36 73.9227 146.269 73.3787 146.269 72.824V72.52C146.269 71.9333 146.36 71.3733 146.541 70.84C146.733 70.296 147.016 69.816 147.389 69.4C147.763 68.9733 148.221 68.6373 148.765 68.392C149.32 68.136 149.96 68.008 150.685 68.008C151.443 68.008 152.12 68.1573 152.717 68.456C153.315 68.744 153.789 69.1493 154.141 69.672C154.504 70.1947 154.707 70.8027 154.749 71.496H152.589C152.536 71.048 152.344 70.6747 152.013 70.376C151.693 70.0773 151.251 69.928 150.685 69.928C150.195 69.928 149.784 70.0453 149.453 70.28C149.133 70.5147 148.893 70.84 148.733 71.256C148.573 71.6613 148.493 72.1307 148.493 72.664C148.493 73.176 148.568 73.64 148.717 74.056C148.877 74.472 149.117 74.7973 149.437 75.032C149.768 75.2667 150.189 75.384 150.701 75.384C151.085 75.384 151.416 75.3147 151.693 75.176C151.971 75.0373 152.189 74.8453 152.349 74.6C152.52 74.3547 152.627 74.0773 152.669 73.768H154.829C154.787 74.472 154.579 75.0907 154.205 75.624C153.843 76.1467 153.357 76.5573 152.749 76.856C152.152 77.1547 151.469 77.304 150.701 77.304ZM156.761 77V68.312H158.521V71.992H158.473C158.473 70.744 158.74 69.8 159.273 69.16C159.806 68.52 160.59 68.2 161.625 68.2H161.945V70.136H161.337C160.59 70.136 160.009 70.3387 159.593 70.744C159.188 71.1387 158.985 71.7147 158.985 72.472V77H156.761ZM166.543 77.272C165.54 77.272 164.761 76.9413 164.207 76.28C163.663 75.6187 163.391 74.6373 163.391 73.336V68.296H165.615V73.528C165.615 74.0613 165.764 74.488 166.063 74.808C166.361 75.1173 166.767 75.272 167.279 75.272C167.791 75.272 168.207 75.1067 168.527 74.776C168.857 74.4453 169.023 73.9973 169.023 73.432V68.296H171.247V77H169.487V73.304H169.663C169.663 74.1787 169.551 74.9093 169.327 75.496C169.103 76.0827 168.767 76.5253 168.319 76.824C167.871 77.1227 167.311 77.272 166.639 77.272H166.543ZM174.368 77V68.312H176.592V77H174.368ZM173.152 69.976V68.312H176.592V69.976H173.152ZM175.184 67.272C174.746 67.272 174.421 67.16 174.208 66.936C174.005 66.7013 173.904 66.4133 173.904 66.072C173.904 65.7093 174.005 65.416 174.208 65.192C174.421 64.968 174.746 64.856 175.184 64.856C175.621 64.856 175.941 64.968 176.144 65.192C176.346 65.416 176.448 65.7093 176.448 66.072C176.448 66.4133 176.346 66.7013 176.144 66.936C175.941 67.16 175.621 67.272 175.184 67.272ZM183.081 77.112C182.281 77.112 181.619 77.0107 181.097 76.808C180.585 76.5947 180.201 76.2427 179.945 75.752C179.689 75.2507 179.561 74.5787 179.561 73.736L179.577 65.864H181.657L181.641 73.88C181.641 74.3067 181.753 74.6373 181.977 74.872C182.211 75.096 182.542 75.208 182.969 75.208H184.329V77.112H183.081ZM178.185 69.944V68.312H184.329V69.944H178.185ZM186.345 77V68.312H188.105V72.04H187.945C187.945 71.1653 188.057 70.4347 188.281 69.848C188.505 69.2507 188.836 68.8027 189.273 68.504C189.721 68.1947 190.276 68.04 190.937 68.04H191.033C191.705 68.04 192.26 68.1947 192.697 68.504C193.145 68.8027 193.476 69.2507 193.689 69.848C193.913 70.4347 194.025 71.1653 194.025 72.04H193.465C193.465 71.1653 193.577 70.4347 193.801 69.848C194.036 69.2507 194.372 68.8027 194.809 68.504C195.257 68.1947 195.812 68.04 196.473 68.04H196.569C197.241 68.04 197.801 68.1947 198.249 68.504C198.697 68.8027 199.033 69.2507 199.257 69.848C199.492 70.4347 199.609 71.1653 199.609 72.04V77H197.385V71.832C197.385 71.288 197.247 70.856 196.969 70.536C196.692 70.2053 196.297 70.04 195.785 70.04C195.273 70.04 194.863 70.2107 194.553 70.552C194.244 70.8827 194.089 71.3307 194.089 71.896V77H191.865V71.832C191.865 71.288 191.727 70.856 191.449 70.536C191.172 70.2053 190.777 70.04 190.265 70.04C189.753 70.04 189.343 70.2107 189.033 70.552C188.724 70.8827 188.569 71.3307 188.569 71.896V77H186.345ZM206.024 77.304C205.277 77.304 204.621 77.176 204.056 76.92C203.501 76.664 203.037 76.3227 202.664 75.896C202.301 75.4587 202.024 74.9733 201.832 74.44C201.651 73.9067 201.56 73.3627 201.56 72.808V72.504C201.56 71.928 201.651 71.3733 201.832 70.84C202.024 70.296 202.301 69.816 202.664 69.4C203.037 68.9733 203.496 68.6373 204.04 68.392C204.584 68.136 205.213 68.008 205.928 68.008C206.867 68.008 207.651 68.216 208.28 68.632C208.92 69.0373 209.4 69.576 209.72 70.248C210.04 70.9093 210.2 71.624 210.2 72.392V73.192H202.504V71.832H208.808L208.12 72.504C208.12 71.9493 208.04 71.4747 207.88 71.08C207.72 70.6853 207.475 70.3813 207.144 70.168C206.824 69.9547 206.419 69.848 205.928 69.848C205.437 69.848 205.021 69.96 204.68 70.184C204.339 70.408 204.077 70.7333 203.896 71.16C203.725 71.576 203.64 72.0773 203.64 72.664C203.64 73.208 203.725 73.6933 203.896 74.12C204.067 74.536 204.328 74.8667 204.68 75.112C205.032 75.3467 205.48 75.464 206.024 75.464C206.568 75.464 207.011 75.3573 207.352 75.144C207.693 74.92 207.912 74.648 208.008 74.328H210.056C209.928 74.9253 209.683 75.448 209.32 75.896C208.957 76.344 208.493 76.6907 207.928 76.936C207.373 77.1813 206.739 77.304 206.024 77.304ZM212.208 77V68.312H213.968V72.04H213.808C213.808 71.1547 213.925 70.4187 214.16 69.832C214.394 69.2347 214.741 68.7867 215.2 68.488C215.669 68.1893 216.25 68.04 216.944 68.04H217.04C218.074 68.04 218.858 68.376 219.392 69.048C219.925 69.7093 220.192 70.7013 220.192 72.024V77H217.968V71.832C217.968 71.2987 217.813 70.8667 217.504 70.536C217.205 70.2053 216.789 70.04 216.256 70.04C215.712 70.04 215.269 70.2107 214.928 70.552C214.597 70.8827 214.432 71.3307 214.432 71.896V77H212.208ZM226.509 77.112C225.709 77.112 225.047 77.0107 224.525 76.808C224.013 76.5947 223.629 76.2427 223.373 75.752C223.117 75.2507 222.989 74.5787 222.989 73.736L223.005 65.864H225.085L225.069 73.88C225.069 74.3067 225.181 74.6373 225.405 74.872C225.639 75.096 225.97 75.208 226.397 75.208H227.757V77.112H226.509ZM221.613 69.944V68.312H227.757V69.944H221.613ZM125.264 100.2V88.312H127.024V92.056L126.752 92.04C126.795 91.1547 126.976 90.4133 127.296 89.816C127.627 89.2187 128.064 88.776 128.608 88.488C129.152 88.1893 129.76 88.04 130.432 88.04C131.051 88.04 131.605 88.152 132.096 88.376C132.597 88.6 133.024 88.9147 133.376 89.32C133.739 89.7253 134.016 90.2 134.208 90.744C134.4 91.2773 134.496 91.8533 134.496 92.472V92.808C134.496 93.4373 134.4 94.024 134.208 94.568C134.027 95.1013 133.755 95.576 133.392 95.992C133.04 96.3973 132.613 96.7173 132.112 96.952C131.611 97.176 131.051 97.288 130.432 97.288C129.781 97.288 129.184 97.1547 128.64 96.888C128.107 96.6107 127.675 96.1893 127.344 95.624C127.013 95.048 126.827 94.3067 126.784 93.4L127.488 94.472V100.2H125.264ZM129.872 95.416C130.352 95.416 130.768 95.2987 131.12 95.064C131.483 94.8293 131.765 94.504 131.968 94.088C132.171 93.6613 132.272 93.1813 132.272 92.648C132.272 92.0933 132.171 91.6133 131.968 91.208C131.765 90.8027 131.483 90.488 131.12 90.264C130.768 90.0293 130.352 89.912 129.872 89.912C129.435 89.912 129.029 90.008 128.656 90.2C128.293 90.392 127.995 90.6747 127.76 91.048C127.536 91.4213 127.424 91.8693 127.424 92.392V93.032C127.424 93.5333 127.541 93.96 127.776 94.312C128.011 94.664 128.315 94.936 128.688 95.128C129.061 95.32 129.456 95.416 129.872 95.416ZM136.601 97V88.312H138.361V91.992H138.313C138.313 90.744 138.58 89.8 139.113 89.16C139.647 88.52 140.431 88.2 141.465 88.2H141.786V90.136H141.177C140.431 90.136 139.849 90.3387 139.433 90.744C139.028 91.1387 138.825 91.7147 138.825 92.472V97H136.601ZM147.537 97.304C146.769 97.304 146.092 97.1813 145.505 96.936C144.918 96.6907 144.422 96.36 144.017 95.944C143.612 95.5173 143.302 95.0373 143.089 94.504C142.886 93.9707 142.785 93.416 142.785 92.84V92.504C142.785 91.9067 142.892 91.3413 143.105 90.808C143.329 90.264 143.644 89.784 144.049 89.368C144.465 88.9413 144.966 88.6107 145.553 88.376C146.14 88.1307 146.801 88.008 147.537 88.008C148.273 88.008 148.934 88.1307 149.521 88.376C150.108 88.6107 150.604 88.9413 151.009 89.368C151.425 89.784 151.74 90.264 151.953 90.808C152.166 91.3413 152.273 91.9067 152.273 92.504V92.84C152.273 93.416 152.166 93.9707 151.953 94.504C151.75 95.0373 151.446 95.5173 151.041 95.944C150.636 96.36 150.14 96.6907 149.553 96.936C148.966 97.1813 148.294 97.304 147.537 97.304ZM147.537 95.4C148.081 95.4 148.54 95.2827 148.913 95.048C149.286 94.8027 149.569 94.4773 149.761 94.072C149.953 93.656 150.049 93.1867 150.049 92.664C150.049 92.1307 149.948 91.6613 149.745 91.256C149.553 90.84 149.265 90.5147 148.881 90.28C148.508 90.0347 148.06 89.912 147.537 89.912C147.014 89.912 146.561 90.0347 146.177 90.28C145.804 90.5147 145.516 90.84 145.313 91.256C145.11 91.6613 145.009 92.1307 145.009 92.664C145.009 93.1867 145.105 93.656 145.297 94.072C145.5 94.4773 145.788 94.8027 146.161 95.048C146.534 95.2827 146.993 95.4 147.537 95.4ZM158.226 97.304C157.469 97.304 156.813 97.176 156.258 96.92C155.714 96.664 155.256 96.3227 154.882 95.896C154.52 95.4693 154.248 94.9893 154.066 94.456C153.885 93.9227 153.794 93.3787 153.794 92.824V92.52C153.794 91.9333 153.885 91.3733 154.066 90.84C154.258 90.296 154.541 89.816 154.914 89.4C155.288 88.9733 155.746 88.6373 156.29 88.392C156.845 88.136 157.485 88.008 158.21 88.008C158.968 88.008 159.645 88.1573 160.242 88.456C160.84 88.744 161.314 89.1493 161.666 89.672C162.029 90.1947 162.232 90.8027 162.274 91.496H160.114C160.061 91.048 159.869 90.6747 159.538 90.376C159.218 90.0773 158.776 89.928 158.21 89.928C157.72 89.928 157.309 90.0453 156.978 90.28C156.658 90.5147 156.418 90.84 156.258 91.256C156.098 91.6613 156.018 92.1307 156.018 92.664C156.018 93.176 156.093 93.64 156.242 94.056C156.402 94.472 156.642 94.7973 156.962 95.032C157.293 95.2667 157.714 95.384 158.226 95.384C158.61 95.384 158.941 95.3147 159.218 95.176C159.496 95.0373 159.714 94.8453 159.874 94.6C160.045 94.3547 160.152 94.0773 160.194 93.768H162.354C162.312 94.472 162.104 95.0907 161.73 95.624C161.368 96.1467 160.882 96.5573 160.274 96.856C159.677 97.1547 158.994 97.304 158.226 97.304ZM168.174 97.304C167.427 97.304 166.771 97.176 166.206 96.92C165.651 96.664 165.187 96.3227 164.814 95.896C164.451 95.4587 164.174 94.9733 163.982 94.44C163.801 93.9067 163.71 93.3627 163.71 92.808V92.504C163.71 91.928 163.801 91.3733 163.982 90.84C164.174 90.296 164.451 89.816 164.814 89.4C165.187 88.9733 165.646 88.6373 166.19 88.392C166.734 88.136 167.363 88.008 168.078 88.008C169.017 88.008 169.801 88.216 170.43 88.632C171.07 89.0373 171.55 89.576 171.87 90.248C172.19 90.9093 172.35 91.624 172.35 92.392V93.192H164.654V91.832H170.958L170.27 92.504C170.27 91.9493 170.19 91.4747 170.03 91.08C169.87 90.6853 169.625 90.3813 169.294 90.168C168.974 89.9547 168.569 89.848 168.078 89.848C167.587 89.848 167.171 89.96 166.83 90.184C166.489 90.408 166.227 90.7333 166.046 91.16C165.875 91.576 165.79 92.0773 165.79 92.664C165.79 93.208 165.875 93.6933 166.046 94.12C166.217 94.536 166.478 94.8667 166.83 95.112C167.182 95.3467 167.63 95.464 168.174 95.464C168.718 95.464 169.161 95.3573 169.502 95.144C169.843 94.92 170.062 94.648 170.158 94.328H172.206C172.078 94.9253 171.833 95.448 171.47 95.896C171.107 96.344 170.643 96.6907 170.078 96.936C169.523 97.1813 168.889 97.304 168.174 97.304ZM177.51 97.272C176.315 97.272 175.376 97.0213 174.694 96.52C174.022 96.008 173.67 95.304 173.638 94.408H175.638C175.67 94.7067 175.835 94.9787 176.134 95.224C176.432 95.4693 176.902 95.592 177.542 95.592C178.075 95.592 178.496 95.496 178.806 95.304C179.126 95.112 179.286 94.8507 179.286 94.52C179.286 94.232 179.163 94.0027 178.918 93.832C178.683 93.6613 178.278 93.5493 177.702 93.496L176.934 93.416C175.963 93.3093 175.216 93.032 174.694 92.584C174.171 92.136 173.91 91.5387 173.91 90.792C173.91 90.1947 174.059 89.6933 174.358 89.288C174.656 88.8827 175.067 88.5787 175.59 88.376C176.123 88.1627 176.731 88.056 177.414 88.056C178.48 88.056 179.344 88.2907 180.006 88.76C180.667 89.2293 181.014 89.9173 181.046 90.824H179.046C179.024 90.5253 178.875 90.2693 178.598 90.056C178.32 89.8427 177.92 89.736 177.398 89.736C176.928 89.736 176.566 89.8267 176.31 90.008C176.054 90.1893 175.926 90.424 175.926 90.712C175.926 90.9893 176.027 91.2027 176.23 91.352C176.443 91.5013 176.784 91.6027 177.254 91.656L178.022 91.736C179.046 91.8427 179.846 92.1253 180.422 92.584C181.008 93.0427 181.302 93.6613 181.302 94.44C181.302 95.016 181.142 95.5173 180.822 95.944C180.512 96.36 180.075 96.6853 179.51 96.92C178.944 97.1547 178.278 97.272 177.51 97.272ZM186.441 97.272C185.246 97.272 184.308 97.0213 183.625 96.52C182.953 96.008 182.601 95.304 182.569 94.408H184.569C184.601 94.7067 184.766 94.9787 185.065 95.224C185.364 95.4693 185.833 95.592 186.473 95.592C187.006 95.592 187.428 95.496 187.737 95.304C188.057 95.112 188.217 94.8507 188.217 94.52C188.217 94.232 188.094 94.0027 187.849 93.832C187.614 93.6613 187.209 93.5493 186.633 93.496L185.865 93.416C184.894 93.3093 184.148 93.032 183.625 92.584C183.102 92.136 182.841 91.5387 182.841 90.792C182.841 90.1947 182.99 89.6933 183.289 89.288C183.588 88.8827 183.998 88.5787 184.521 88.376C185.054 88.1627 185.662 88.056 186.345 88.056C187.412 88.056 188.276 88.2907 188.937 88.76C189.598 89.2293 189.945 89.9173 189.977 90.824H187.977C187.956 90.5253 187.806 90.2693 187.529 90.056C187.252 89.8427 186.852 89.736 186.329 89.736C185.86 89.736 185.497 89.8267 185.241 90.008C184.985 90.1893 184.857 90.424 184.857 90.712C184.857 90.9893 184.958 91.2027 185.161 91.352C185.374 91.5013 185.716 91.6027 186.185 91.656L186.953 91.736C187.977 91.8427 188.777 92.1253 189.353 92.584C189.94 93.0427 190.233 93.6613 190.233 94.44C190.233 95.016 190.073 95.5173 189.753 95.944C189.444 96.36 189.006 96.6853 188.441 96.92C187.876 97.1547 187.209 97.272 186.441 97.272ZM196.239 97V88.312H198.463V97H196.239ZM195.023 89.976V88.312H198.463V89.976H195.023ZM197.055 87.272C196.618 87.272 196.293 87.16 196.079 86.936C195.877 86.7013 195.775 86.4133 195.775 86.072C195.775 85.7093 195.877 85.416 196.079 85.192C196.293 84.968 196.618 84.856 197.055 84.856C197.493 84.856 197.813 84.968 198.015 85.192C198.218 85.416 198.319 85.7093 198.319 86.072C198.319 86.4133 198.218 86.7013 198.015 86.936C197.813 87.16 197.493 87.272 197.055 87.272ZM201.176 97V88.312H202.936V92.04H202.776C202.776 91.1547 202.894 90.4187 203.128 89.832C203.363 89.2347 203.71 88.7867 204.168 88.488C204.638 88.1893 205.219 88.04 205.912 88.04H206.008C207.043 88.04 207.827 88.376 208.36 89.048C208.894 89.7093 209.16 90.7013 209.16 92.024V97H206.936V91.832C206.936 91.2987 206.782 90.8667 206.472 90.536C206.174 90.2053 205.758 90.04 205.224 90.04C204.68 90.04 204.238 90.2107 203.896 90.552C203.566 90.8827 203.4 91.3307 203.4 91.896V97H201.176ZM212.118 97V88.312H214.342V97H212.118ZM210.902 89.976V88.312H214.342V89.976H210.902ZM212.934 87.272C212.496 87.272 212.171 87.16 211.958 86.936C211.755 86.7013 211.654 86.4133 211.654 86.072C211.654 85.7093 211.755 85.416 211.958 85.192C212.171 84.968 212.496 84.856 212.934 84.856C213.371 84.856 213.691 84.968 213.894 85.192C214.096 85.416 214.198 85.7093 214.198 86.072C214.198 86.4133 214.096 86.7013 213.894 86.936C213.691 87.16 213.371 87.272 212.934 87.272ZM220.831 97.112C220.031 97.112 219.369 97.0107 218.847 96.808C218.335 96.5947 217.951 96.2427 217.695 95.752C217.439 95.2507 217.311 94.5787 217.311 93.736L217.327 85.864H219.407L219.391 93.88C219.391 94.3067 219.503 94.6373 219.727 94.872C219.961 95.096 220.292 95.208 220.719 95.208H222.079V97.112H220.831ZM215.935 89.944V88.312H222.079V89.944H215.935ZM224.511 97V88.312H226.735V97H224.511ZM223.295 89.976V88.312H226.735V89.976H223.295ZM225.327 87.272C224.89 87.272 224.565 87.16 224.351 86.936C224.149 86.7013 224.047 86.4133 224.047 86.072C224.047 85.7093 224.149 85.416 224.351 85.192C224.565 84.968 224.89 84.856 225.327 84.856C225.765 84.856 226.085 84.968 226.287 85.192C226.49 85.416 226.591 85.7093 226.591 86.072C226.591 86.4133 226.49 86.7013 226.287 86.936C226.085 87.16 225.765 87.272 225.327 87.272ZM234.712 97V94.424H234.344V91.56C234.344 91.0587 234.222 90.6853 233.976 90.44C233.731 90.1947 233.352 90.072 232.84 90.072C232.574 90.072 232.254 90.0773 231.88 90.088C231.507 90.0987 231.128 90.1147 230.744 90.136C230.371 90.1467 230.035 90.1627 229.736 90.184V88.296C229.982 88.2747 230.259 88.2533 230.568 88.232C230.878 88.2107 231.192 88.2 231.512 88.2C231.843 88.1893 232.152 88.184 232.44 88.184C233.336 88.184 234.078 88.3013 234.664 88.536C235.262 88.7707 235.71 89.1387 236.008 89.64C236.318 90.1413 236.472 90.7973 236.472 91.608V97H234.712ZM231.912 97.224C231.283 97.224 230.728 97.112 230.248 96.888C229.779 96.664 229.411 96.344 229.144 95.928C228.888 95.512 228.76 95.0107 228.76 94.424C228.76 93.784 228.915 93.2613 229.224 92.856C229.544 92.4507 229.987 92.1467 230.552 91.944C231.128 91.7413 231.8 91.64 232.568 91.64H234.584V92.968H232.536C232.024 92.968 231.63 93.096 231.352 93.352C231.086 93.5973 230.952 93.9173 230.952 94.312C230.952 94.7067 231.086 95.0267 231.352 95.272C231.63 95.5173 232.024 95.64 232.536 95.64C232.846 95.64 233.128 95.5867 233.384 95.48C233.651 95.3627 233.87 95.1707 234.04 94.904C234.222 94.6267 234.323 94.2533 234.344 93.784L234.888 94.408C234.835 95.016 234.686 95.528 234.44 95.944C234.206 96.36 233.875 96.68 233.448 96.904C233.032 97.1173 232.52 97.224 231.912 97.224ZM242.781 97.112C241.981 97.112 241.319 97.0107 240.797 96.808C240.285 96.5947 239.901 96.2427 239.645 95.752C239.389 95.2507 239.261 94.5787 239.261 93.736L239.277 85.864H241.357L241.341 93.88C241.341 94.3067 241.453 94.6373 241.677 94.872C241.911 95.096 242.242 95.208 242.669 95.208H244.029V97.112H242.781ZM237.885 89.944V88.312H244.029V89.944H237.885ZM249.886 97.304C249.14 97.304 248.484 97.176 247.918 96.92C247.364 96.664 246.9 96.3227 246.526 95.896C246.164 95.4587 245.886 94.9733 245.694 94.44C245.513 93.9067 245.422 93.3627 245.422 92.808V92.504C245.422 91.928 245.513 91.3733 245.694 90.84C245.886 90.296 246.164 89.816 246.526 89.4C246.9 88.9733 247.358 88.6373 247.902 88.392C248.446 88.136 249.076 88.008 249.79 88.008C250.729 88.008 251.513 88.216 252.142 88.632C252.782 89.0373 253.262 89.576 253.582 90.248C253.902 90.9093 254.062 91.624 254.062 92.392V93.192H246.366V91.832H252.67L251.982 92.504C251.982 91.9493 251.902 91.4747 251.742 91.08C251.582 90.6853 251.337 90.3813 251.006 90.168C250.686 89.9547 250.281 89.848 249.79 89.848C249.3 89.848 248.884 89.96 248.542 90.184C248.201 90.408 247.94 90.7333 247.758 91.16C247.588 91.576 247.502 92.0773 247.502 92.664C247.502 93.208 247.588 93.6933 247.758 94.12C247.929 94.536 248.19 94.8667 248.542 95.112C248.894 95.3467 249.342 95.464 249.886 95.464C250.43 95.464 250.873 95.3573 251.214 95.144C251.556 94.92 251.774 94.648 251.87 94.328H253.918C253.79 94.9253 253.545 95.448 253.182 95.896C252.82 96.344 252.356 96.6907 251.79 96.936C251.236 97.1813 250.601 97.304 249.886 97.304ZM259.67 97.288C259.062 97.288 258.502 97.176 257.99 96.952C257.478 96.728 257.036 96.4133 256.662 96.008C256.289 95.6027 256.001 95.1333 255.798 94.6C255.596 94.056 255.494 93.4693 255.494 92.84V92.504C255.494 91.8853 255.59 91.304 255.782 90.76C255.985 90.216 256.262 89.7413 256.614 89.336C256.977 88.9307 257.409 88.616 257.91 88.392C258.422 88.1573 258.988 88.04 259.606 88.04C260.289 88.04 260.886 88.1893 261.398 88.488C261.921 88.776 262.337 89.2133 262.646 89.8C262.956 90.3867 263.126 91.1227 263.158 92.008L262.502 91.24V85.32H264.726V97H262.966V93.304H263.35C263.318 94.1893 263.137 94.9307 262.806 95.528C262.476 96.1147 262.038 96.5573 261.494 96.856C260.961 97.144 260.353 97.288 259.67 97.288ZM260.166 95.416C260.604 95.416 261.004 95.32 261.366 95.128C261.729 94.9253 262.017 94.6373 262.23 94.264C262.454 93.88 262.566 93.432 262.566 92.92V92.28C262.566 91.768 262.454 91.3413 262.23 91C262.006 90.648 261.713 90.3813 261.35 90.2C260.988 90.008 260.593 89.912 260.166 89.912C259.686 89.912 259.26 90.0293 258.886 90.264C258.524 90.488 258.236 90.808 258.022 91.224C257.82 91.64 257.718 92.1253 257.718 92.68C257.718 93.2347 257.825 93.72 258.038 94.136C258.252 94.5413 258.54 94.856 258.902 95.08C259.276 95.304 259.697 95.416 260.166 95.416Z" fill="white"/>
<path d="M125.44 77V65.24H127.712V77H125.44ZM132.576 77L128.992 71.912H131.536L135.232 77H132.576ZM127.04 73.096V71.256H130.016C130.432 71.256 130.789 71.1707 131.088 71C131.397 70.8293 131.637 70.5893 131.808 70.28C131.979 69.9707 132.064 69.6187 132.064 69.224C132.064 68.8187 131.979 68.4613 131.808 68.152C131.637 67.8427 131.397 67.6027 131.088 67.432C130.789 67.2613 130.432 67.176 130.016 67.176H127.04V65.24H129.776C130.715 65.24 131.525 65.3787 132.208 65.656C132.901 65.9333 133.435 66.3547 133.808 66.92C134.181 67.4853 134.368 68.1947 134.368 69.048V69.304C134.368 70.168 134.176 70.8773 133.792 71.432C133.419 71.9867 132.891 72.4027 132.208 72.68C131.525 72.9573 130.715 73.096 129.776 73.096H127.04ZM140.661 77.304C139.915 77.304 139.259 77.176 138.693 76.92C138.139 76.664 137.675 76.3227 137.301 75.896C136.939 75.4587 136.661 74.9733 136.469 74.44C136.288 73.9067 136.197 73.3627 136.197 72.808V72.504C136.197 71.928 136.288 71.3733 136.469 70.84C136.661 70.296 136.939 69.816 137.301 69.4C137.675 68.9733 138.133 68.6373 138.677 68.392C139.221 68.136 139.851 68.008 140.565 68.008C141.504 68.008 142.288 68.216 142.917 68.632C143.557 69.0373 144.037 69.576 144.357 70.248C144.677 70.9093 144.837 71.624 144.837 72.392V73.192H137.141V71.832H143.445L142.757 72.504C142.757 71.9493 142.677 71.4747 142.517 71.08C142.357 70.6853 142.112 70.3813 141.781 70.168C141.461 69.9547 141.056 69.848 140.565 69.848C140.075 69.848 139.659 69.96 139.317 70.184C138.976 70.408 138.715 70.7333 138.533 71.16C138.363 71.576 138.277 72.0773 138.277 72.664C138.277 73.208 138.363 73.6933 138.533 74.12C138.704 74.536 138.965 74.8667 139.317 75.112C139.669 75.3467 140.117 75.464 140.661 75.464C141.205 75.464 141.648 75.3573 141.989 75.144C142.331 74.92 142.549 74.648 142.645 74.328H144.693C144.565 74.9253 144.32 75.448 143.957 75.896C143.595 76.344 143.131 76.6907 142.565 76.936C142.011 77.1813 141.376 77.304 140.661 77.304ZM150.701 77.304C149.944 77.304 149.288 77.176 148.733 76.92C148.189 76.664 147.731 76.3227 147.357 75.896C146.995 75.4693 146.723 74.9893 146.541 74.456C146.36 73.9227 146.269 73.3787 146.269 72.824V72.52C146.269 71.9333 146.36 71.3733 146.541 70.84C146.733 70.296 147.016 69.816 147.389 69.4C147.763 68.9733 148.221 68.6373 148.765 68.392C149.32 68.136 149.96 68.008 150.685 68.008C151.443 68.008 152.12 68.1573 152.717 68.456C153.315 68.744 153.789 69.1493 154.141 69.672C154.504 70.1947 154.707 70.8027 154.749 71.496H152.589C152.536 71.048 152.344 70.6747 152.013 70.376C151.693 70.0773 151.251 69.928 150.685 69.928C150.195 69.928 149.784 70.0453 149.453 70.28C149.133 70.5147 148.893 70.84 148.733 71.256C148.573 71.6613 148.493 72.1307 148.493 72.664C148.493 73.176 148.568 73.64 148.717 74.056C148.877 74.472 149.117 74.7973 149.437 75.032C149.768 75.2667 150.189 75.384 150.701 75.384C151.085 75.384 151.416 75.3147 151.693 75.176C151.971 75.0373 152.189 74.8453 152.349 74.6C152.52 74.3547 152.627 74.0773 152.669 73.768H154.829C154.787 74.472 154.579 75.0907 154.205 75.624C153.843 76.1467 153.357 76.5573 152.749 76.856C152.152 77.1547 151.469 77.304 150.701 77.304ZM156.761 77V68.312H158.521V71.992H158.473C158.473 70.744 158.74 69.8 159.273 69.16C159.806 68.52 160.59 68.2 161.625 68.2H161.945V70.136H161.337C160.59 70.136 160.009 70.3387 159.593 70.744C159.188 71.1387 158.985 71.7147 158.985 72.472V77H156.761ZM166.543 77.272C165.54 77.272 164.761 76.9413 164.207 76.28C163.663 75.6187 163.391 74.6373 163.391 73.336V68.296H165.615V73.528C165.615 74.0613 165.764 74.488 166.063 74.808C166.361 75.1173 166.767 75.272 167.279 75.272C167.791 75.272 168.207 75.1067 168.527 74.776C168.857 74.4453 169.023 73.9973 169.023 73.432V68.296H171.247V77H169.487V73.304H169.663C169.663 74.1787 169.551 74.9093 169.327 75.496C169.103 76.0827 168.767 76.5253 168.319 76.824C167.871 77.1227 167.311 77.272 166.639 77.272H166.543ZM174.368 77V68.312H176.592V77H174.368ZM173.152 69.976V68.312H176.592V69.976H173.152ZM175.184 67.272C174.746 67.272 174.421 67.16 174.208 66.936C174.005 66.7013 173.904 66.4133 173.904 66.072C173.904 65.7093 174.005 65.416 174.208 65.192C174.421 64.968 174.746 64.856 175.184 64.856C175.621 64.856 175.941 64.968 176.144 65.192C176.346 65.416 176.448 65.7093 176.448 66.072C176.448 66.4133 176.346 66.7013 176.144 66.936C175.941 67.16 175.621 67.272 175.184 67.272ZM183.081 77.112C182.281 77.112 181.619 77.0107 181.097 76.808C180.585 76.5947 180.201 76.2427 179.945 75.752C179.689 75.2507 179.561 74.5787 179.561 73.736L179.577 65.864H181.657L181.641 73.88C181.641 74.3067 181.753 74.6373 181.977 74.872C182.211 75.096 182.542 75.208 182.969 75.208H184.329V77.112H183.081ZM178.185 69.944V68.312H184.329V69.944H178.185ZM186.345 77V68.312H188.105V72.04H187.945C187.945 71.1653 188.057 70.4347 188.281 69.848C188.505 69.2507 188.836 68.8027 189.273 68.504C189.721 68.1947 190.276 68.04 190.937 68.04H191.033C191.705 68.04 192.26 68.1947 192.697 68.504C193.145 68.8027 193.476 69.2507 193.689 69.848C193.913 70.4347 194.025 71.1653 194.025 72.04H193.465C193.465 71.1653 193.577 70.4347 193.801 69.848C194.036 69.2507 194.372 68.8027 194.809 68.504C195.257 68.1947 195.812 68.04 196.473 68.04H196.569C197.241 68.04 197.801 68.1947 198.249 68.504C198.697 68.8027 199.033 69.2507 199.257 69.848C199.492 70.4347 199.609 71.1653 199.609 72.04V77H197.385V71.832C197.385 71.288 197.247 70.856 196.969 70.536C196.692 70.2053 196.297 70.04 195.785 70.04C195.273 70.04 194.863 70.2107 194.553 70.552C194.244 70.8827 194.089 71.3307 194.089 71.896V77H191.865V71.832C191.865 71.288 191.727 70.856 191.449 70.536C191.172 70.2053 190.777 70.04 190.265 70.04C189.753 70.04 189.343 70.2107 189.033 70.552C188.724 70.8827 188.569 71.3307 188.569 71.896V77H186.345ZM206.024 77.304C205.277 77.304 204.621 77.176 204.056 76.92C203.501 76.664 203.037 76.3227 202.664 75.896C202.301 75.4587 202.024 74.9733 201.832 74.44C201.651 73.9067 201.56 73.3627 201.56 72.808V72.504C201.56 71.928 201.651 71.3733 201.832 70.84C202.024 70.296 202.301 69.816 202.664 69.4C203.037 68.9733 203.496 68.6373 204.04 68.392C204.584 68.136 205.213 68.008 205.928 68.008C206.867 68.008 207.651 68.216 208.28 68.632C208.92 69.0373 209.4 69.576 209.72 70.248C210.04 70.9093 210.2 71.624 210.2 72.392V73.192H202.504V71.832H208.808L208.12 72.504C208.12 71.9493 208.04 71.4747 207.88 71.08C207.72 70.6853 207.475 70.3813 207.144 70.168C206.824 69.9547 206.419 69.848 205.928 69.848C205.437 69.848 205.021 69.96 204.68 70.184C204.339 70.408 204.077 70.7333 203.896 71.16C203.725 71.576 203.64 72.0773 203.64 72.664C203.64 73.208 203.725 73.6933 203.896 74.12C204.067 74.536 204.328 74.8667 204.68 75.112C205.032 75.3467 205.48 75.464 206.024 75.464C206.568 75.464 207.011 75.3573 207.352 75.144C207.693 74.92 207.912 74.648 208.008 74.328H210.056C209.928 74.9253 209.683 75.448 209.32 75.896C208.957 76.344 208.493 76.6907 207.928 76.936C207.373 77.1813 206.739 77.304 206.024 77.304ZM212.208 77V68.312H213.968V72.04H213.808C213.808 71.1547 213.925 70.4187 214.16 69.832C214.394 69.2347 214.741 68.7867 215.2 68.488C215.669 68.1893 216.25 68.04 216.944 68.04H217.04C218.074 68.04 218.858 68.376 219.392 69.048C219.925 69.7093 220.192 70.7013 220.192 72.024V77H217.968V71.832C217.968 71.2987 217.813 70.8667 217.504 70.536C217.205 70.2053 216.789 70.04 216.256 70.04C215.712 70.04 215.269 70.2107 214.928 70.552C214.597 70.8827 214.432 71.3307 214.432 71.896V77H212.208ZM226.509 77.112C225.709 77.112 225.047 77.0107 224.525 76.808C224.013 76.5947 223.629 76.2427 223.373 75.752C223.117 75.2507 222.989 74.5787 222.989 73.736L223.005 65.864H225.085L225.069 73.88C225.069 74.3067 225.181 74.6373 225.405 74.872C225.639 75.096 225.97 75.208 226.397 75.208H227.757V77.112H226.509ZM221.613 69.944V68.312H227.757V69.944H221.613ZM125.264 100.2V88.312H127.024V92.056L126.752 92.04C126.795 91.1547 126.976 90.4133 127.296 89.816C127.627 89.2187 128.064 88.776 128.608 88.488C129.152 88.1893 129.76 88.04 130.432 88.04C131.051 88.04 131.605 88.152 132.096 88.376C132.597 88.6 133.024 88.9147 133.376 89.32C133.739 89.7253 134.016 90.2 134.208 90.744C134.4 91.2773 134.496 91.8533 134.496 92.472V92.808C134.496 93.4373 134.4 94.024 134.208 94.568C134.027 95.1013 133.755 95.576 133.392 95.992C133.04 96.3973 132.613 96.7173 132.112 96.952C131.611 97.176 131.051 97.288 130.432 97.288C129.781 97.288 129.184 97.1547 128.64 96.888C128.107 96.6107 127.675 96.1893 127.344 95.624C127.013 95.048 126.827 94.3067 126.784 93.4L127.488 94.472V100.2H125.264ZM129.872 95.416C130.352 95.416 130.768 95.2987 131.12 95.064C131.483 94.8293 131.765 94.504 131.968 94.088C132.171 93.6613 132.272 93.1813 132.272 92.648C132.272 92.0933 132.171 91.6133 131.968 91.208C131.765 90.8027 131.483 90.488 131.12 90.264C130.768 90.0293 130.352 89.912 129.872 89.912C129.435 89.912 129.029 90.008 128.656 90.2C128.293 90.392 127.995 90.6747 127.76 91.048C127.536 91.4213 127.424 91.8693 127.424 92.392V93.032C127.424 93.5333 127.541 93.96 127.776 94.312C128.011 94.664 128.315 94.936 128.688 95.128C129.061 95.32 129.456 95.416 129.872 95.416ZM136.601 97V88.312H138.361V91.992H138.313C138.313 90.744 138.58 89.8 139.113 89.16C139.647 88.52 140.431 88.2 141.465 88.2H141.786V90.136H141.177C140.431 90.136 139.849 90.3387 139.433 90.744C139.028 91.1387 138.825 91.7147 138.825 92.472V97H136.601ZM147.537 97.304C146.769 97.304 146.092 97.1813 145.505 96.936C144.918 96.6907 144.422 96.36 144.017 95.944C143.612 95.5173 143.302 95.0373 143.089 94.504C142.886 93.9707 142.785 93.416 142.785 92.84V92.504C142.785 91.9067 142.892 91.3413 143.105 90.808C143.329 90.264 143.644 89.784 144.049 89.368C144.465 88.9413 144.966 88.6107 145.553 88.376C146.14 88.1307 146.801 88.008 147.537 88.008C148.273 88.008 148.934 88.1307 149.521 88.376C150.108 88.6107 150.604 88.9413 151.009 89.368C151.425 89.784 151.74 90.264 151.953 90.808C152.166 91.3413 152.273 91.9067 152.273 92.504V92.84C152.273 93.416 152.166 93.9707 151.953 94.504C151.75 95.0373 151.446 95.5173 151.041 95.944C150.636 96.36 150.14 96.6907 149.553 96.936C148.966 97.1813 148.294 97.304 147.537 97.304ZM147.537 95.4C148.081 95.4 148.54 95.2827 148.913 95.048C149.286 94.8027 149.569 94.4773 149.761 94.072C149.953 93.656 150.049 93.1867 150.049 92.664C150.049 92.1307 149.948 91.6613 149.745 91.256C149.553 90.84 149.265 90.5147 148.881 90.28C148.508 90.0347 148.06 89.912 147.537 89.912C147.014 89.912 146.561 90.0347 146.177 90.28C145.804 90.5147 145.516 90.84 145.313 91.256C145.11 91.6613 145.009 92.1307 145.009 92.664C145.009 93.1867 145.105 93.656 145.297 94.072C145.5 94.4773 145.788 94.8027 146.161 95.048C146.534 95.2827 146.993 95.4 147.537 95.4ZM158.226 97.304C157.469 97.304 156.813 97.176 156.258 96.92C155.714 96.664 155.256 96.3227 154.882 95.896C154.52 95.4693 154.248 94.9893 154.066 94.456C153.885 93.9227 153.794 93.3787 153.794 92.824V92.52C153.794 91.9333 153.885 91.3733 154.066 90.84C154.258 90.296 154.541 89.816 154.914 89.4C155.288 88.9733 155.746 88.6373 156.29 88.392C156.845 88.136 157.485 88.008 158.21 88.008C158.968 88.008 159.645 88.1573 160.242 88.456C160.84 88.744 161.314 89.1493 161.666 89.672C162.029 90.1947 162.232 90.8027 162.274 91.496H160.114C160.061 91.048 159.869 90.6747 159.538 90.376C159.218 90.0773 158.776 89.928 158.21 89.928C157.72 89.928 157.309 90.0453 156.978 90.28C156.658 90.5147 156.418 90.84 156.258 91.256C156.098 91.6613 156.018 92.1307 156.018 92.664C156.018 93.176 156.093 93.64 156.242 94.056C156.402 94.472 156.642 94.7973 156.962 95.032C157.293 95.2667 157.714 95.384 158.226 95.384C158.61 95.384 158.941 95.3147 159.218 95.176C159.496 95.0373 159.714 94.8453 159.874 94.6C160.045 94.3547 160.152 94.0773 160.194 93.768H162.354C162.312 94.472 162.104 95.0907 161.73 95.624C161.368 96.1467 160.882 96.5573 160.274 96.856C159.677 97.1547 158.994 97.304 158.226 97.304ZM168.174 97.304C167.427 97.304 166.771 97.176 166.206 96.92C165.651 96.664 165.187 96.3227 164.814 95.896C164.451 95.4587 164.174 94.9733 163.982 94.44C163.801 93.9067 163.71 93.3627 163.71 92.808V92.504C163.71 91.928 163.801 91.3733 163.982 90.84C164.174 90.296 164.451 89.816 164.814 89.4C165.187 88.9733 165.646 88.6373 166.19 88.392C166.734 88.136 167.363 88.008 168.078 88.008C169.017 88.008 169.801 88.216 170.43 88.632C171.07 89.0373 171.55 89.576 171.87 90.248C172.19 90.9093 172.35 91.624 172.35 92.392V93.192H164.654V91.832H170.958L170.27 92.504C170.27 91.9493 170.19 91.4747 170.03 91.08C169.87 90.6853 169.625 90.3813 169.294 90.168C168.974 89.9547 168.569 89.848 168.078 89.848C167.587 89.848 167.171 89.96 166.83 90.184C166.489 90.408 166.227 90.7333 166.046 91.16C165.875 91.576 165.79 92.0773 165.79 92.664C165.79 93.208 165.875 93.6933 166.046 94.12C166.217 94.536 166.478 94.8667 166.83 95.112C167.182 95.3467 167.63 95.464 168.174 95.464C168.718 95.464 169.161 95.3573 169.502 95.144C169.843 94.92 170.062 94.648 170.158 94.328H172.206C172.078 94.9253 171.833 95.448 171.47 95.896C171.107 96.344 170.643 96.6907 170.078 96.936C169.523 97.1813 168.889 97.304 168.174 97.304ZM177.51 97.272C176.315 97.272 175.376 97.0213 174.694 96.52C174.022 96.008 173.67 95.304 173.638 94.408H175.638C175.67 94.7067 175.835 94.9787 176.134 95.224C176.432 95.4693 176.902 95.592 177.542 95.592C178.075 95.592 178.496 95.496 178.806 95.304C179.126 95.112 179.286 94.8507 179.286 94.52C179.286 94.232 179.163 94.0027 178.918 93.832C178.683 93.6613 178.278 93.5493 177.702 93.496L176.934 93.416C175.963 93.3093 175.216 93.032 174.694 92.584C174.171 92.136 173.91 91.5387 173.91 90.792C173.91 90.1947 174.059 89.6933 174.358 89.288C174.656 88.8827 175.067 88.5787 175.59 88.376C176.123 88.1627 176.731 88.056 177.414 88.056C178.48 88.056 179.344 88.2907 180.006 88.76C180.667 89.2293 181.014 89.9173 181.046 90.824H179.046C179.024 90.5253 178.875 90.2693 178.598 90.056C178.32 89.8427 177.92 89.736 177.398 89.736C176.928 89.736 176.566 89.8267 176.31 90.008C176.054 90.1893 175.926 90.424 175.926 90.712C175.926 90.9893 176.027 91.2027 176.23 91.352C176.443 91.5013 176.784 91.6027 177.254 91.656L178.022 91.736C179.046 91.8427 179.846 92.1253 180.422 92.584C181.008 93.0427 181.302 93.6613 181.302 94.44C181.302 95.016 181.142 95.5173 180.822 95.944C180.512 96.36 180.075 96.6853 179.51 96.92C178.944 97.1547 178.278 97.272 177.51 97.272ZM186.441 97.272C185.246 97.272 184.308 97.0213 183.625 96.52C182.953 96.008 182.601 95.304 182.569 94.408H184.569C184.601 94.7067 184.766 94.9787 185.065 95.224C185.364 95.4693 185.833 95.592 186.473 95.592C187.006 95.592 187.428 95.496 187.737 95.304C188.057 95.112 188.217 94.8507 188.217 94.52C188.217 94.232 188.094 94.0027 187.849 93.832C187.614 93.6613 187.209 93.5493 186.633 93.496L185.865 93.416C184.894 93.3093 184.148 93.032 183.625 92.584C183.102 92.136 182.841 91.5387 182.841 90.792C182.841 90.1947 182.99 89.6933 183.289 89.288C183.588 88.8827 183.998 88.5787 184.521 88.376C185.054 88.1627 185.662 88.056 186.345 88.056C187.412 88.056 188.276 88.2907 188.937 88.76C189.598 89.2293 189.945 89.9173 189.977 90.824H187.977C187.956 90.5253 187.806 90.2693 187.529 90.056C187.252 89.8427 186.852 89.736 186.329 89.736C185.86 89.736 185.497 89.8267 185.241 90.008C184.985 90.1893 184.857 90.424 184.857 90.712C184.857 90.9893 184.958 91.2027 185.161 91.352C185.374 91.5013 185.716 91.6027 186.185 91.656L186.953 91.736C187.977 91.8427 188.777 92.1253 189.353 92.584C189.94 93.0427 190.233 93.6613 190.233 94.44C190.233 95.016 190.073 95.5173 189.753 95.944C189.444 96.36 189.006 96.6853 188.441 96.92C187.876 97.1547 187.209 97.272 186.441 97.272ZM196.239 97V88.312H198.463V97H196.239ZM195.023 89.976V88.312H198.463V89.976H195.023ZM197.055 87.272C196.618 87.272 196.293 87.16 196.079 86.936C195.877 86.7013 195.775 86.4133 195.775 86.072C195.775 85.7093 195.877 85.416 196.079 85.192C196.293 84.968 196.618 84.856 197.055 84.856C197.493 84.856 197.813 84.968 198.015 85.192C198.218 85.416 198.319 85.7093 198.319 86.072C198.319 86.4133 198.218 86.7013 198.015 86.936C197.813 87.16 197.493 87.272 197.055 87.272ZM201.176 97V88.312H202.936V92.04H202.776C202.776 91.1547 202.894 90.4187 203.128 89.832C203.363 89.2347 203.71 88.7867 204.168 88.488C204.638 88.1893 205.219 88.04 205.912 88.04H206.008C207.043 88.04 207.827 88.376 208.36 89.048C208.894 89.7093 209.16 90.7013 209.16 92.024V97H206.936V91.832C206.936 91.2987 206.782 90.8667 206.472 90.536C206.174 90.2053 205.758 90.04 205.224 90.04C204.68 90.04 204.238 90.2107 203.896 90.552C203.566 90.8827 203.4 91.3307 203.4 91.896V97H201.176ZM212.118 97V88.312H214.342V97H212.118ZM210.902 89.976V88.312H214.342V89.976H210.902ZM212.934 87.272C212.496 87.272 212.171 87.16 211.958 86.936C211.755 86.7013 211.654 86.4133 211.654 86.072C211.654 85.7093 211.755 85.416 211.958 85.192C212.171 84.968 212.496 84.856 212.934 84.856C213.371 84.856 213.691 84.968 213.894 85.192C214.096 85.416 214.198 85.7093 214.198 86.072C214.198 86.4133 214.096 86.7013 213.894 86.936C213.691 87.16 213.371 87.272 212.934 87.272ZM220.831 97.112C220.031 97.112 219.369 97.0107 218.847 96.808C218.335 96.5947 217.951 96.2427 217.695 95.752C217.439 95.2507 217.311 94.5787 217.311 93.736L217.327 85.864H219.407L219.391 93.88C219.391 94.3067 219.503 94.6373 219.727 94.872C219.961 95.096 220.292 95.208 220.719 95.208H222.079V97.112H220.831ZM215.935 89.944V88.312H222.079V89.944H215.935ZM224.511 97V88.312H226.735V97H224.511ZM223.295 89.976V88.312H226.735V89.976H223.295ZM225.327 87.272C224.89 87.272 224.565 87.16 224.351 86.936C224.149 86.7013 224.047 86.4133 224.047 86.072C224.047 85.7093 224.149 85.416 224.351 85.192C224.565 84.968 224.89 84.856 225.327 84.856C225.765 84.856 226.085 84.968 226.287 85.192C226.49 85.416 226.591 85.7093 226.591 86.072C226.591 86.4133 226.49 86.7013 226.287 86.936C226.085 87.16 225.765 87.272 225.327 87.272ZM234.712 97V94.424H234.344V91.56C234.344 91.0587 234.222 90.6853 233.976 90.44C233.731 90.1947 233.352 90.072 232.84 90.072C232.574 90.072 232.254 90.0773 231.88 90.088C231.507 90.0987 231.128 90.1147 230.744 90.136C230.371 90.1467 230.035 90.1627 229.736 90.184V88.296C229.982 88.2747 230.259 88.2533 230.568 88.232C230.878 88.2107 231.192 88.2 231.512 88.2C231.843 88.1893 232.152 88.184 232.44 88.184C233.336 88.184 234.078 88.3013 234.664 88.536C235.262 88.7707 235.71 89.1387 236.008 89.64C236.318 90.1413 236.472 90.7973 236.472 91.608V97H234.712ZM231.912 97.224C231.283 97.224 230.728 97.112 230.248 96.888C229.779 96.664 229.411 96.344 229.144 95.928C228.888 95.512 228.76 95.0107 228.76 94.424C228.76 93.784 228.915 93.2613 229.224 92.856C229.544 92.4507 229.987 92.1467 230.552 91.944C231.128 91.7413 231.8 91.64 232.568 91.64H234.584V92.968H232.536C232.024 92.968 231.63 93.096 231.352 93.352C231.086 93.5973 230.952 93.9173 230.952 94.312C230.952 94.7067 231.086 95.0267 231.352 95.272C231.63 95.5173 232.024 95.64 232.536 95.64C232.846 95.64 233.128 95.5867 233.384 95.48C233.651 95.3627 233.87 95.1707 234.04 94.904C234.222 94.6267 234.323 94.2533 234.344 93.784L234.888 94.408C234.835 95.016 234.686 95.528 234.44 95.944C234.206 96.36 233.875 96.68 233.448 96.904C233.032 97.1173 232.52 97.224 231.912 97.224ZM242.781 97.112C241.981 97.112 241.319 97.0107 240.797 96.808C240.285 96.5947 239.901 96.2427 239.645 95.752C239.389 95.2507 239.261 94.5787 239.261 93.736L239.277 85.864H241.357L241.341 93.88C241.341 94.3067 241.453 94.6373 241.677 94.872C241.911 95.096 242.242 95.208 242.669 95.208H244.029V97.112H242.781ZM237.885 89.944V88.312H244.029V89.944H237.885ZM249.886 97.304C249.14 97.304 248.484 97.176 247.918 96.92C247.364 96.664 246.9 96.3227 246.526 95.896C246.164 95.4587 245.886 94.9733 245.694 94.44C245.513 93.9067 245.422 93.3627 245.422 92.808V92.504C245.422 91.928 245.513 91.3733 245.694 90.84C245.886 90.296 246.164 89.816 246.526 89.4C246.9 88.9733 247.358 88.6373 247.902 88.392C248.446 88.136 249.076 88.008 249.79 88.008C250.729 88.008 251.513 88.216 252.142 88.632C252.782 89.0373 253.262 89.576 253.582 90.248C253.902 90.9093 254.062 91.624 254.062 92.392V93.192H246.366V91.832H252.67L251.982 92.504C251.982 91.9493 251.902 91.4747 251.742 91.08C251.582 90.6853 251.337 90.3813 251.006 90.168C250.686 89.9547 250.281 89.848 249.79 89.848C249.3 89.848 248.884 89.96 248.542 90.184C248.201 90.408 247.94 90.7333 247.758 91.16C247.588 91.576 247.502 92.0773 247.502 92.664C247.502 93.208 247.588 93.6933 247.758 94.12C247.929 94.536 248.19 94.8667 248.542 95.112C248.894 95.3467 249.342 95.464 249.886 95.464C250.43 95.464 250.873 95.3573 251.214 95.144C251.556 94.92 251.774 94.648 251.87 94.328H253.918C253.79 94.9253 253.545 95.448 253.182 95.896C252.82 96.344 252.356 96.6907 251.79 96.936C251.236 97.1813 250.601 97.304 249.886 97.304ZM259.67 97.288C259.062 97.288 258.502 97.176 257.99 96.952C257.478 96.728 257.036 96.4133 256.662 96.008C256.289 95.6027 256.001 95.1333 255.798 94.6C255.596 94.056 255.494 93.4693 255.494 92.84V92.504C255.494 91.8853 255.59 91.304 255.782 90.76C255.985 90.216 256.262 89.7413 256.614 89.336C256.977 88.9307 257.409 88.616 257.91 88.392C258.422 88.1573 258.988 88.04 259.606 88.04C260.289 88.04 260.886 88.1893 261.398 88.488C261.921 88.776 262.337 89.2133 262.646 89.8C262.956 90.3867 263.126 91.1227 263.158 92.008L262.502 91.24V85.32H264.726V97H262.966V93.304H263.35C263.318 94.1893 263.137 94.9307 262.806 95.528C262.476 96.1147 262.038 96.5573 261.494 96.856C260.961 97.144 260.353 97.288 259.67 97.288ZM260.166 95.416C260.604 95.416 261.004 95.32 261.366 95.128C261.729 94.9253 262.017 94.6373 262.23 94.264C262.454 93.88 262.566 93.432 262.566 92.92V92.28C262.566 91.768 262.454 91.3413 262.23 91C262.006 90.648 261.713 90.3813 261.35 90.2C260.988 90.008 260.593 89.912 260.166 89.912C259.686 89.912 259.26 90.0293 258.886 90.264C258.524 90.488 258.236 90.808 258.022 91.224C257.82 91.64 257.718 92.1253 257.718 92.68C257.718 93.2347 257.825 93.72 258.038 94.136C258.252 94.5413 258.54 94.856 258.902 95.08C259.276 95.304 259.697 95.416 260.166 95.416Z" fill="#3D3D4F"/>
</g>
<defs>
<filter id="filter0_d_3136_3465" x="0" y="0" width="343.722" height="172" filterUnits="userSpaceOnUse" color-interpolation-filters="sRGB">
<feFlood flood-opacity="0" result="BackgroundImageFix"/>
<feColorMatrix in="SourceAlpha" type="matrix" values="0 0 0 0 0 0 0 0 0 0 0 0 0 0 0 0 0 0 127 0" result="hardAlpha"/>
<feOffset dy="4"/>
<feGaussianBlur stdDeviation="25"/>
<feComposite in2="hardAlpha" operator="out"/>
<feColorMatrix type="matrix" values="0 0 0 0 0 0 0 0 0 0 0 0 0 0 0 0 0 0 0.1 0"/>
<feBlend mode="normal" in2="BackgroundImageFix" result="effect1_dropShadow_3136_3465"/>
<feBlend mode="normal" in="SourceGraphic" in2="effect1_dropShadow_3136_3465" result="shape"/>
</filter>
<linearGradient id="paint0_linear_3136_3465" x1="68.5" y1="82.1612" x2="107.5" y2="82.1612" gradientUnits="userSpaceOnUse">
<stop stop-color="#E5534E"/>
<stop offset="1" stop-color="#7D00E8"/>
</linearGradient>
</defs>
</svg>
