<svg width="600" height="410" viewBox="0 0 600 410" fill="none" xmlns="http://www.w3.org/2000/svg">
<g clip-path="url(#clip0_2547_2162)">
<rect width="600" height="410" rx="20" fill="white"/>
<g clip-path="url(#clip1_2547_2162)">
<path d="M321.57 110.919L317.83 108.769L326.57 103.729L330.3 105.879L321.57 110.919Z" fill="#E0E0E0"/>
<path d="M315.16 116.24L308.63 112.47L316.43 107.96L322.97 111.73L315.16 116.24Z" fill="#E0E0E0"/>
<path d="M337.97 120.389L334.24 118.239L342.97 113.199L346.7 115.349L337.97 120.389Z" fill="#E0E0E0"/>
<path d="M331.57 125.71L325.03 121.94L332.84 117.43L339.37 121.2L331.57 125.71Z" fill="#E0E0E0"/>
<path d="M354.38 129.86L350.64 127.71L359.37 122.67L363.11 124.82L354.38 129.86Z" fill="#E0E0E0"/>
<path d="M347.97 135.179L341.44 131.409L349.24 126.899L355.78 130.669L347.97 135.179Z" fill="#E0E0E0"/>
<path d="M370.78 139.34L367.04 137.18L375.78 132.14L379.51 134.29L370.78 139.34Z" fill="#E0E0E0"/>
<path d="M364.37 144.649L357.84 140.879L365.64 136.369L372.18 140.139L364.37 144.649Z" fill="#E0E0E0"/>
<path d="M387.18 148.809L383.45 146.649L392.18 141.609L395.91 143.759L387.18 148.809Z" fill="#E0E0E0"/>
<path d="M380.78 154.12L374.24 150.35L382.05 145.84L388.58 149.61L380.78 154.12Z" fill="#E0E0E0"/>
<path d="M403.59 158.28L399.85 156.12L408.58 151.08L412.32 153.23L403.59 158.28Z" fill="#E0E0E0"/>
<path d="M397.18 163.59L390.65 159.82L398.45 155.31L404.99 159.08L397.18 163.59Z" fill="#E0E0E0"/>
<path d="M419.99 167.75L416.26 165.59L424.99 160.55L428.72 162.71L419.99 167.75Z" fill="#E0E0E0"/>
<path d="M413.58 173.059L407.05 169.289L414.85 164.779L421.39 168.559L413.58 173.059Z" fill="#E0E0E0"/>
<path d="M436.39 177.22L432.66 175.06L441.39 170.02L445.13 172.18L436.39 177.22Z" fill="#E0E0E0"/>
<path d="M429.99 182.53L423.45 178.76L431.26 174.25L437.79 178.03L429.99 182.53Z" fill="#E0E0E0"/>
<path d="M452.8 186.689L449.06 184.529L457.79 179.489L461.53 181.649L452.8 186.689Z" fill="#E0E0E0"/>
<path d="M446.39 192L439.86 188.23L447.66 183.72L454.2 187.5L446.39 192Z" fill="#E0E0E0"/>
<path d="M469.2 196.16L465.47 194L474.2 188.96L477.93 191.12L469.2 196.16Z" fill="#E0E0E0"/>
<path d="M462.8 201.469L456.26 197.699L464.07 193.189L470.6 196.969L462.8 201.469Z" fill="#E0E0E0"/>
<path d="M329.13 105.21L327.73 104.4L389.61 68.6796L389.36 22.3197L420.97 4.06966L420.79 -29.4604L481.86 -64.7304L481.71 -92.0104L449.13 -110.82L449 -135.75L496.81 -163.36L498.21 -162.55L450.97 -135.28L451.1 -111.29L483.68 -92.4804L483.84 -64.2504L422.76 -28.9904L422.94 4.53964L391.33 22.7896L391.58 69.1496L329.13 105.21Z" fill="#E0E0E0"/>
<path d="M345.8 114.83L344.4 114.02L426.76 66.4697L406.84 54.9697L406.76 39.9197L426.78 28.3697L457.85 28.4197L480.58 15.2997L450.11 -2.30032L478.68 -18.7903L497.36 -18.7603L527.72 -36.2903L504.32 -49.8003L538.04 -69.2703L537.94 -86.9003L504.46 -106.23L557.01 -136.57L558.41 -135.76L507.26 -106.23L539.92 -87.3703L540.02 -68.8003L507.11 -49.8003L530.51 -36.2803L498.18 -17.6203L479.51 -17.6503L452.9 -2.29031L483.37 15.2997L458.67 29.5597L427.6 29.5097L408.74 40.3997L408.81 54.4997L429.55 66.4697L345.8 114.83Z" fill="#E0E0E0"/>
<path d="M361.95 124.149L360.55 123.339L432.27 81.9295L459.63 81.9795L481.31 69.4595L448.83 50.7095L465.99 40.8095L486.71 40.8495L511.63 26.4595L511.52 6.94949L584.05 -34.9305L583.87 -68.4805L645.85 -104.271L647.25 -103.461L585.85 -68.0105L586.03 -34.4505L513.5 7.41949L513.61 26.9395L487.54 41.9895L466.81 41.9495L451.63 50.7195L484.1 69.4695L460.45 83.1195L433.1 83.0695L361.95 124.149Z" fill="#E0E0E0"/>
<path d="M378.52 133.72L376.88 132.78L441.63 95.3899L449.06 99.6799L462.44 99.6999L504.31 75.5299L504.2 55.0099L561.07 22.1799L539.76 9.86992L576.85 -11.5401L601.17 -11.4901L632.02 -29.3101L631.86 -59.1001L677.29 -85.3301L678.93 -84.3901L634.17 -58.5501L634.33 -28.7501L602.13 -10.1601L577.81 -10.2101L543.02 9.87993L564.33 22.1799L506.5 55.5699L506.61 76.0899L463.41 101.04L448.11 101.01L441.64 97.2699L378.52 133.72Z" fill="#E0E0E0"/>
<path d="M476.88 190.509L475.25 189.569L524.4 161.189H524.88L652.47 161.419L682.2 144.259L682.1 126.419L709.47 110.609L759.77 139.649L795.83 118.829H796.31L865.5 118.949L932.84 80.0693L934.48 81.0193L866.47 120.279H865.99L796.79 120.159L759.78 141.529L709.48 112.489L684.41 126.969L684.51 144.809L653.43 162.749H652.96L525.36 162.519L476.88 190.509Z" fill="#E0E0E0"/>
<path d="M460.48 181.04L458.84 180.1L515.38 147.46L570.49 147.56L604.6 127.86L633.02 144.27L663.81 126.49L663.7 105.36L705.67 81.1301H706.14L774.88 81.26L804.8 63.98L832.49 79.97L892.13 45.54L893.76 46.48L832.5 81.8501L804.81 65.86L775.84 82.59H775.36L706.63 82.4601L666 105.92L666.12 127.04L633.03 146.15L604.61 129.74L571.46 148.89L516.34 148.79L460.48 181.04Z" fill="#E0E0E0"/>
<path d="M444.07 171.57L442.44 170.63L510.61 131.27L566.8 131.37L620.77 100.21L620.71 88.6497L679.89 54.4897L721.17 54.5597L761.02 31.5597L781.58 43.4297L805.74 43.4697L847.82 19.1797L849.46 20.1197L806.7 44.7997L780.64 44.7597L761.03 33.4397L722.13 55.8897L680.85 55.8197L623.02 89.2097L623.08 100.77L567.76 132.7L511.57 132.6L444.07 171.57Z" fill="#E0E0E0"/>
<path d="M411.13 152.71L409.5 151.77L459.93 122.65L492.35 122.71L571.91 76.7798L557.02 68.1798L607.94 38.7798L607.89 30.4899L652.87 4.51985L697.9 4.59985L721.95 -9.28015L721.84 -29.9301L752.99 -47.9102L754.63 -46.9702L724.14 -29.3701L724.25 -8.73015L698.86 5.92984L653.83 5.84985L610.2 31.0499L610.24 39.3298L560.28 68.1798L575.17 76.7798L493.32 124.04L460.89 123.98L411.13 152.71Z" fill="#E0E0E0"/>
<path d="M394.76 143.1L393.36 142.29L444.39 112.83L479.11 112.89L530.45 83.2499L530.36 67.5499L584.84 36.0999L584.73 15.9499L647.79 -20.4601L668.93 -20.4201L693.35 -34.5201L693.24 -55.7201L716.87 -69.3701L718.27 -68.5601L695.21 -55.2401L695.33 -34.0501L669.75 -19.2801L648.62 -19.3201L586.71 16.4299L586.81 36.5699L532.34 68.0299L532.42 83.7299L479.93 114.03L445.21 113.97L394.76 143.1Z" fill="#E0E0E0"/>
<path d="M427.67 162.1L426.04 161.16L468.08 136.88L475.95 141.43L513.34 119.85L544.29 119.9L596.61 89.6995L596.51 71.6295L638.98 47.1095L638.9 32.4795L659.14 20.7995L685.77 36.1695L733.98 8.33952L760.08 8.38953L791.9 -9.98047L793.53 -9.04047L761.04 9.71953L734.94 9.66953L685.78 38.0495L659.15 22.6795L641.2 33.0395L641.28 47.6695L598.82 72.1895L598.92 90.2495L545.25 121.23L514.3 121.18L475.96 143.31L468.09 138.77L427.67 162.1Z" fill="#E0E0E0"/>
<path d="M129.1 191.149L120.34 186.029L124.06 183.899L132.82 189.019L129.1 191.149Z" fill="#E0E0E0"/>
<path d="M135.54 196.519L127.71 191.939L134.22 188.229L142.05 192.799L135.54 196.519Z" fill="#E0E0E0"/>
<path d="M145.45 181.82L136.69 176.7L140.41 174.58L149.17 179.7L145.45 181.82Z" fill="#E0E0E0"/>
<path d="M151.88 187.189L144.05 182.609L150.57 178.899L158.4 183.469L151.88 187.189Z" fill="#E0E0E0"/>
<path d="M161.8 172.49L153.04 167.37L156.76 165.25L165.52 170.37L161.8 172.49Z" fill="#E0E0E0"/>
<path d="M168.23 177.859L160.4 173.289L166.92 169.569L174.75 174.149L168.23 177.859Z" fill="#E0E0E0"/>
<path d="M178.15 163.16L169.39 158.04L173.11 155.92L181.87 161.04L178.15 163.16Z" fill="#E0E0E0"/>
<path d="M184.58 168.529L176.75 163.959L183.27 160.239L191.1 164.819L184.58 168.529Z" fill="#E0E0E0"/>
<path d="M194.5 153.83L185.74 148.72L189.46 146.59L198.22 151.71L194.5 153.83Z" fill="#E0E0E0"/>
<path d="M200.93 159.21L193.1 154.63L199.61 150.92L207.44 155.49L200.93 159.21Z" fill="#E0E0E0"/>
<path d="M210.85 144.51L202.09 139.39L205.81 137.27L214.57 142.38L210.85 144.51Z" fill="#E0E0E0"/>
<path d="M217.28 149.88L209.45 145.3L215.96 141.59L223.79 146.16L217.28 149.88Z" fill="#E0E0E0"/>
<path d="M227.2 135.179L218.43 130.059L222.16 127.939L230.92 133.059L227.2 135.179Z" fill="#E0E0E0"/>
<path d="M233.63 140.55L225.8 135.98L232.31 132.26L240.14 136.83L233.63 140.55Z" fill="#E0E0E0"/>
<path d="M243.54 125.849L234.78 120.729L238.51 118.609L247.27 123.729L243.54 125.849Z" fill="#E0E0E0"/>
<path d="M249.98 131.22L242.15 126.65L248.66 122.93L256.49 127.51L249.98 131.22Z" fill="#E0E0E0"/>
<path d="M259.89 116.519L251.13 111.409L254.85 109.279L263.62 114.399L259.89 116.519Z" fill="#E0E0E0"/>
<path d="M266.33 121.89L258.5 117.32L265.01 113.6L272.84 118.18L266.33 121.89Z" fill="#E0E0E0"/>
<path d="M276.24 107.199L267.48 102.079L271.2 99.9492L279.96 105.069L276.24 107.199Z" fill="#E0E0E0"/>
<path d="M282.68 112.569L274.85 107.989L281.36 104.279L289.19 108.849L282.68 112.569Z" fill="#E0E0E0"/>
<path d="M-294.85 111.71L-342.82 83.6897L-341.43 82.8896L-294.03 110.58L-252.48 110.87L-220.01 92.3396L-171.12 92.6796L-109.84 128.48L-51.7698 128.88L-20.0498 147.41L60.2402 147.96L122.9 184.57L121.5 185.36L59.4202 149.1L-20.8698 148.54L-52.5798 130.01L-110.66 129.61L-171.94 93.8096L-219.19 93.4896L-251.66 112.01L-294.85 111.71Z" fill="#E0E0E0"/>
<path d="M-243.9 80.1301L-296.62 49.34L-295.22 48.54L-243.9 78.5201L-211.35 59.95L-179.18 60.17L-146.16 79.4601L-122.83 66.15L-90.3996 85.1001L-90.3896 95.8901L-63.6996 111.48L-33.3296 94.15L-8.54962 108.63L-8.53964 126.57L10.3804 137.63L34.8104 137.8L55.4804 126L139.51 175.09L138.11 175.89L55.4804 127.62L35.6304 138.94L9.57037 138.76L-10.5196 127.03V109.09L-33.3296 95.7601L-63.6996 113.09L-92.3696 96.34V85.56L-122.83 67.7701L-146.16 81.0701L-180 61.31L-210.53 61.1001L-243.9 80.1301Z" fill="#E0E0E0"/>
<path d="M-178.78 34.8595L-240.97 -1.4705L-239.57 -2.27051L-177.96 33.7195L-119.85 34.1295L-47.0797 76.6395L-13.2697 76.8695L12.8803 92.1495V104.119L28.1203 113.019L60.4903 94.5495L84.2103 108.41L84.2203 124.209L155.6 165.91L154.21 166.709L82.2403 124.66V108.869L60.4903 96.1595L28.1203 114.63L10.9103 104.579V92.6095L-14.0897 78.0095L-47.8997 77.7695L-120.67 35.2595L-178.78 34.8595Z" fill="#E0E0E0"/>
<path d="M-162.7 7.28949L-208.28 -19.3405L-206.65 -20.2705L-161.74 5.9695L-110.13 6.3295L-77.8298 25.1995V39.2395L-42.9198 59.6295L-21.6798 47.5095L36.3302 81.4095L71.8802 81.6495L115.23 106.98V115.809L108.79 119.489L172.12 156.489L170.49 157.42L105.53 119.459L112.93 115.239V107.51L70.9302 82.9795L35.3802 82.7295L-21.6798 49.3895L-42.9198 61.5095L-80.1298 39.7695V25.7295L-111.09 7.64949L-162.7 7.28949Z" fill="#E0E0E0"/>
<path d="M268.53 101.48L219.21 72.6697L219.19 -1.27031L189.37 -18.7003L158.46 -18.9103L131 -34.9503L181.13 -63.5503L144.94 -84.6903L144.93 -124.92L77.3701 -164.39L79.0001 -165.32L147.23 -125.45L147.25 -85.2303L184.39 -63.5303L134.26 -34.9303L159.42 -20.2303L190.32 -20.0203L221.5 -1.8103L221.52 72.1397L270.16 100.55L268.53 101.48Z" fill="#E0E0E0"/>
<path d="M252.18 110.81L195.46 77.6699L195.45 45.8499L161.23 25.8599L189.55 9.69992L158.65 -8.35008L122.06 -8.60008L79.9504 -33.2001L79.9404 -73.1601L49.9204 -90.7001L77.5204 -106.45L17.6904 -141.4L19.3204 -142.33L80.7804 -106.42L53.1804 -90.6801L82.2504 -73.6901L82.2604 -33.7401L123.01 -9.93007L159.6 -9.67007L192.8 9.71992L164.49 25.8799L197.75 45.3199L197.76 77.1399L253.81 109.88L252.18 110.81Z" fill="#E0E0E0"/>
<path d="M235.83 120.14L167.44 80.1796L167.43 47.7396L113.28 16.0996L93.2602 15.9696L33.8902 -18.7204L33.8802 -42.5504L-6.09982 -65.9104L14.4002 -77.6104V-91.5504L-27.8198 -116.22L-26.1998 -117.15L16.7002 -92.0904V-77.0404L-2.83981 -65.8904L36.1802 -43.0904L36.1902 -19.2504L94.2102 14.6396L114.23 14.7796L169.73 47.1996L169.74 79.6496L237.46 119.21L235.83 120.14Z" fill="#E0E0E0"/>
<path d="M-7.43996 22.4899L-52.56 -3.88016L-52.57 -29.8802L-76.7 -43.9702L-112.46 -44.2202L-143.71 -62.4802L-142.09 -63.4102L-111.5 -45.5402L-75.7399 -45.2902L-50.2699 -30.4102L-50.26 -4.41016L-6.47997 21.1599L7.87004 21.2598L58 50.5499L72.8501 42.0798L154.97 90.0598L154.98 108.78L204.9 137.94L203.27 138.87L152.68 109.31L152.67 90.5898L72.8501 43.9599L58.0101 52.4298L6.92006 22.5898L-7.43996 22.4899Z" fill="#E0E0E0"/>
<path d="M-157.04 -28.1L-180.75 -41.95L-179.35 -42.75L-156.22 -29.23L-119.51 -28.97L-93.85 -13.98L-93.84 -1.78L-31.73 34.51L3.17001 34.75L57.83 66.68L85.02 66.87L137.69 97.63V117.68L188.31 147.25L186.91 148.05L135.72 118.14L135.71 98.09L84.21 68L57.01 67.81L2.35001 35.88L-32.54 35.64L-95.82 -1.32001V-13.53L-120.32 -27.84L-157.04 -28.1Z" fill="#E0E0E0"/>
<path d="M-4.08963 4.60922L-24.3996 -7.25078L2.15036 -22.3908L-46.2196 -50.6508V-65.7208L-78.1396 -84.3708L-76.5196 -85.3008L-43.9196 -66.2608L-43.9096 -51.1808L5.41037 -22.3708L-21.1396 -7.23077L-3.13965 3.28922L22.2104 3.46922L64.8104 28.3592L96.1004 28.5692L149.94 60.0292L149.95 77.8992L188.41 100.369L180.56 104.849L221.11 128.529L219.48 129.459L177.3 104.819L185.15 100.349L147.65 78.4292L147.64 60.5592L95.1504 29.8992L63.8604 29.6792L21.2504 4.78922L-4.08963 4.60922Z" fill="#E0E0E0"/>
<path d="M304.27 295.37V306.97C300.99 306.78 297.83 305.79 294.92 304.18L135.89 212.9C134.65 212.22 133.91 211.17 133.48 209.99L133.05 209.74V196.46C133.05 198.38 133.98 200.3 135.9 201.35L294.93 292.63C297.84 294.3 301.06 295.23 304.28 295.35L304.27 295.37Z" fill="url(#paint0_linear_2547_2162)"/>
<path d="M464.04 205.88C463.85 207.74 462.8 209.47 460.94 210.52L316.34 292.7C309.65 296.48 301.54 296.42 294.91 292.64L135.88 201.36C133.96 200.31 133.03 198.39 133.03 196.47C133.03 196.04 133.09 195.54 133.22 195.11C133.53 193.69 134.4 192.39 135.88 191.52L282.47 108.23C288.54 104.82 295.97 104.82 302.04 108.29L461.01 199.51C463.43 200.87 464.42 203.47 464.04 205.89V205.88Z" fill="url(#paint1_linear_2547_2162)"/>
<path d="M460.97 209.87L316.33 292.04C309.68 295.82 301.53 295.8 294.89 292L135.88 200.74C134.08 199.71 133.16 197.93 133.06 196.12C132.95 198.15 133.86 200.22 135.88 201.38L294.89 292.64C301.52 296.45 309.68 296.46 316.33 292.68L460.97 210.51C463.21 209.24 464.24 206.95 464.13 204.7C464.03 206.73 462.99 208.73 460.97 209.88V209.87Z" fill="url(#paint2_linear_2547_2162)"/>
<path d="M464.17 205.88V217.11H464.11C463.92 219.09 462.93 220.95 460.95 222.06L316.35 304.18C312.57 306.29 308.42 307.21 304.27 306.97V295.37C308.42 295.74 312.57 294.81 316.35 292.71L460.95 210.53C462.81 209.48 463.86 207.74 464.05 205.89H464.17V205.88Z" fill="url(#paint3_linear_2547_2162)"/>
<path d="M281.92 308.12L278.19 305.98L286.91 300.91L290.64 303.06L281.92 308.12Z" fill="#E0E0E0"/>
<path d="M292.05 303.87L285.5 300.11L293.3 295.59L299.84 299.34L292.05 303.87Z" fill="#E0E0E0"/>
<path d="M265.5 298.69L261.76 296.55L270.48 291.48L274.22 293.63L265.5 298.69Z" fill="#E0E0E0"/>
<path d="M275.62 294.44L269.08 290.68L276.87 286.15L283.41 289.91L275.62 294.44Z" fill="#E0E0E0"/>
<path d="M249.07 289.26L245.33 287.11L254.05 282.05L257.79 284.2L249.07 289.26Z" fill="#E0E0E0"/>
<path d="M259.19 285L252.65 281.25L260.45 276.72L266.99 280.48L259.19 285Z" fill="#E0E0E0"/>
<path d="M232.65 279.83L228.91 277.68L237.63 272.62L241.37 274.77L232.65 279.83Z" fill="#E0E0E0"/>
<path d="M242.77 275.57L236.23 271.82L244.02 267.29L250.56 271.05L242.77 275.57Z" fill="#E0E0E0"/>
<path d="M216.22 270.4L212.48 268.25L221.2 263.19L224.94 265.34L216.22 270.4Z" fill="#E0E0E0"/>
<path d="M226.34 266.14L219.8 262.38L227.59 257.86L234.14 261.62L226.34 266.14Z" fill="#E0E0E0"/>
<path d="M199.79 260.97L196.06 258.82L204.78 253.76L208.51 255.91L199.79 260.97Z" fill="#E0E0E0"/>
<path d="M209.92 256.71L203.37 252.95L211.17 248.43L217.71 252.19L209.92 256.71Z" fill="#E0E0E0"/>
<path d="M183.37 251.54L179.63 249.39L188.35 244.33L192.09 246.47L183.37 251.54Z" fill="#E0E0E0"/>
<path d="M193.49 247.28L186.95 243.52L194.74 239L201.28 242.75L193.49 247.28Z" fill="#E0E0E0"/>
<path d="M166.94 242.1L163.2 239.96L171.92 234.9L175.66 237.04L166.94 242.1Z" fill="#E0E0E0"/>
<path d="M177.06 237.85L170.52 234.09L178.32 229.57L184.86 233.32L177.06 237.85Z" fill="#E0E0E0"/>
<path d="M150.52 232.67L146.78 230.53L155.5 225.46L159.24 227.61L150.52 232.67Z" fill="#E0E0E0"/>
<path d="M160.64 228.42L154.1 224.66L161.89 220.13L168.43 223.89L160.64 228.42Z" fill="#E0E0E0"/>
<path d="M134.09 223.24L130.35 221.1L139.07 216.03L142.81 218.18L134.09 223.24Z" fill="#E0E0E0"/>
<path d="M144.21 218.98L137.67 215.23L145.46 210.7L152.01 214.46L144.21 218.98Z" fill="#E0E0E0"/>
<path d="M112.32 575.62L110.92 574.81L158.09 547.42L157.9 523.44L125.28 504.7L125.06 476.48L186.05 441.07L185.79 407.54L217.35 389.21L216.99 342.85L279.35 306.65L280.76 307.45L218.97 343.32L219.33 389.68L187.76 408.01L188.02 441.54L127.03 476.95L127.25 504.23L159.87 522.96L160.07 547.9L112.32 575.62Z" fill="#E0E0E0"/>
<path d="M52.0599 548.97L50.6499 548.16L101.74 518.51L69.0299 499.73L68.8899 481.16L101.75 462.08L78.3099 448.62L110.6 429.88L129.28 429.86L155.84 414.44L125.33 396.92L150 382.6L181.07 382.58L199.91 371.65L199.8 357.54L179.03 345.62L262.67 297.07L264.07 297.87L181.82 345.62L201.77 357.07L201.88 372.12L181.9 383.72L150.82 383.74L128.12 396.92L158.63 414.44L130.1 431L111.43 431.02L81.1099 448.62L104.54 462.08L70.8699 481.63L70.9999 499.26L104.53 518.51L52.0599 548.97Z" fill="#E0E0E0"/>
<path d="M-36.86 516.88L-38.27 516.07L23.05 480.48L22.79 446.92L95.22 404.87L95.07 385.36L121.1 370.24L141.83 370.23L156.99 361.43L124.47 342.76L148.09 329.05L175.44 329.03L246.5 287.78L247.9 288.59L176.27 330.17L148.91 330.19L127.26 342.75L159.78 361.43L142.66 371.37L121.93 371.38L97.05 385.83L97.2 405.35L24.77 447.39L25.03 480.95L-36.86 516.88Z" fill="#E0E0E0"/>
<path d="M-68.35 498.02L-69.98 497.08L-25.29 471.13L-25.52 441.34L6.63004 422.67L30.95 422.66L65.7 402.49L44.36 390.24L102.11 356.71L101.95 336.19L145.09 311.14L160.39 311.13L166.87 314.85L229.9 278.25L231.54 279.19L166.88 316.73L159.45 312.46L146.06 312.47L104.25 336.74L104.41 357.26L47.61 390.23L68.95 402.49L31.92 423.99L7.60004 424L-23.21 441.89L-22.98 471.68L-68.35 498.02Z" fill="#E0E0E0"/>
<path d="M-324.3 333.22L-325.93 332.28L-258.01 292.86L-257.54 292.85L-188.34 292.82L-151.37 271.35L-101.01 300.27L-75.9702 285.73L-76.1102 267.89L-45.0802 249.88H-44.6002L82.9898 249.8L131.4 221.7L133.04 222.64L83.9498 251.13H83.4798L-44.1202 251.21L-73.8102 268.44L-73.6702 286.28L-101 302.15L-151.36 273.24L-187.38 294.14H-187.85L-257.05 294.18L-324.3 333.22Z" fill="#E0E0E0"/>
<path d="M-283.49 367.66L-285.13 366.72L-223.96 331.21L-196.23 347.13L-167.29 330.33H-166.82L-98.0804 330.29L-57.5204 306.74L-57.6804 285.62L-24.6404 266.43L3.81964 282.77L36.9296 263.55L92.0496 263.51L147.83 231.13L149.46 232.07L93.0096 264.84L37.8896 264.88L3.82962 284.65L-24.6204 268.31L-55.3704 286.17L-55.2104 307.29L-97.1204 331.62H-97.6004L-166.33 331.66L-196.21 349.01L-223.94 333.09L-283.49 367.66Z" fill="#E0E0E0"/>
<path d="M-239.13 393.921L-240.76 392.981L-198.07 368.191L-172 368.181L-152.37 379.451L-113.53 356.901L-72.2402 356.881L-14.4902 323.351L-14.5802 311.791L40.6598 279.721L96.8498 279.691L164.25 240.561L165.89 241.501L97.8198 281.021L41.6298 281.051L-12.2702 312.341L-12.1802 323.901L-71.2702 358.211L-112.56 358.231L-152.35 381.331L-172.95 369.511L-197.1 369.521L-239.13 393.921Z" fill="#E0E0E0"/>
<path d="M-144.14 460.78L-145.77 459.84L-115.33 442.17L-115.49 421.52L-90.14 406.81L-45.11 406.78L-1.53001 381.48L-1.60002 373.19L48.3 344.23L33.39 335.66L115.13 288.21L147.55 288.19L197.24 259.34L198.88 260.28L148.52 289.52L116.09 289.54L36.64 335.66L51.56 344.22L0.709976 373.74L0.769974 382.03L-44.14 408.11L-89.17 408.13L-113.19 422.07L-113.03 442.72L-144.14 460.78Z" fill="#E0E0E0"/>
<path d="M-107.97 482.15L-109.37 481.34L-86.3401 467.97L-86.5101 446.78L-60.9701 431.95L-39.8301 431.94L21.9999 396.05L21.8399 375.9L76.2399 344.32L76.1199 328.61L128.54 298.18L163.25 298.16L213.64 268.91L215.04 269.72L164.08 299.3L129.36 299.32L78.0999 329.08L78.2199 344.79L23.8199 376.37L23.9699 396.52L-39.0001 433.08L-60.1401 433.09L-84.5301 447.25L-84.3601 468.44L-107.97 482.15Z" fill="#E0E0E0"/>
<path d="M-183.13 422.94L-184.77 422L-152.33 403.17L-126.22 403.15L-77.13 374.65L-50.46 389.97L-32.54 379.56L-32.66 364.93L9.74998 340.31L9.60997 322.25L63.2 291.14L94.15 291.12L132.44 268.89L140.32 273.42L180.68 249.99L182.32 250.93L140.34 275.3L132.45 270.78L95.12 292.45L64.16 292.47L11.92 322.8L12.06 340.86L-30.35 365.48L-30.23 380.11L-50.45 391.85L-77.12 376.53L-125.26 404.48L-151.36 404.5L-183.13 422.94Z" fill="#E0E0E0"/>
<path d="M475.37 224.56L466.6 219.45L470.32 217.32L479.09 222.44L475.37 224.56Z" fill="#E0E0E0"/>
<path d="M465.21 220.25L457.38 215.68L463.89 211.96L471.72 216.53L465.21 220.25Z" fill="#E0E0E0"/>
<path d="M459.02 233.9L450.26 228.79L453.98 226.66L462.75 231.77L459.02 233.9Z" fill="#E0E0E0"/>
<path d="M448.87 229.58L441.03 225.02L447.54 221.29L455.38 225.86L448.87 229.58Z" fill="#E0E0E0"/>
<path d="M442.68 243.24L433.92 238.13L437.64 236L446.4 241.11L442.68 243.24Z" fill="#E0E0E0"/>
<path d="M432.52 238.92L424.69 234.35L431.2 230.63L439.03 235.2L432.52 238.92Z" fill="#E0E0E0"/>
<path d="M426.34 252.58L417.57 247.46L421.3 245.34L430.06 250.45L426.34 252.58Z" fill="#E0E0E0"/>
<path d="M416.18 248.26L408.35 243.69L414.86 239.97L422.69 244.54L416.18 248.26Z" fill="#E0E0E0"/>
<path d="M410 261.92L401.23 256.8L404.95 254.68L413.72 259.79L410 261.92Z" fill="#E0E0E0"/>
<path d="M399.84 257.6L392 253.03L398.51 249.31L406.35 253.88L399.84 257.6Z" fill="#E0E0E0"/>
<path d="M393.65 271.25L384.89 266.14L388.61 264.02L397.37 269.13L393.65 271.25Z" fill="#E0E0E0"/>
<path d="M383.49 266.94L375.66 262.37L382.17 258.65L390 263.22L383.49 266.94Z" fill="#E0E0E0"/>
<path d="M377.31 280.59L368.55 275.48L372.27 273.35L381.03 278.47L377.31 280.59Z" fill="#E0E0E0"/>
<path d="M367.15 276.28L359.32 271.71L365.83 267.99L373.66 272.56L367.15 276.28Z" fill="#E0E0E0"/>
<path d="M360.97 289.93L352.2 284.82L355.92 282.69L364.69 287.8L360.97 289.93Z" fill="#E0E0E0"/>
<path d="M350.81 285.62L342.97 281.05L349.49 277.33L357.32 281.9L350.81 285.62Z" fill="#E0E0E0"/>
<path d="M344.62 299.27L335.86 294.16L339.58 292.03L348.34 297.14L344.62 299.27Z" fill="#E0E0E0"/>
<path d="M334.46 294.95L326.63 290.38L333.14 286.66L340.98 291.23L334.46 294.95Z" fill="#E0E0E0"/>
<path d="M328.28 308.61L319.52 303.5L323.24 301.37L332 306.48L328.28 308.61Z" fill="#E0E0E0"/>
<path d="M318.12 304.29L310.29 299.72L316.8 296L324.63 300.57L318.12 304.29Z" fill="#E0E0E0"/>
<path d="M539.21 260.46L476.53 223.9L477.93 223.1L540.03 259.32L620.32 259.83L652.05 278.34L710.13 278.7L771.43 314.46L818.68 314.75L851.14 296.21L894.33 296.48L942.32 324.47L940.92 325.27L893.51 297.61L851.96 297.35L819.5 315.9L770.61 315.59L709.31 279.84L651.23 279.47L619.5 260.96L539.21 260.46Z" fill="#E0E0E0"/>
<path d="M543.99 282.42L459.93 233.38L461.32 232.59L543.99 280.8L563.83 269.47L589.89 269.63L609.98 281.35L610 299.29L632.82 312.6L663.18 295.25L691.85 311.98L691.86 322.76L722.34 340.54L745.66 327.21L779.51 346.96L810.04 347.15L843.4 328.09L896.14 358.85L894.74 359.65L843.4 329.7L810.86 348.3L778.69 348.09L745.66 328.83L722.34 342.15L689.89 323.22L689.88 312.44L663.18 296.86L632.82 314.21L608.03 299.75L608.01 281.81L589.08 270.77L564.65 270.61L543.99 282.42Z" fill="#E0E0E0"/>
<path d="M539 313.87L515.27 300.03L515.25 284.23L443.84 242.58L445.23 241.78L517.22 283.77L517.24 299.57L539 312.26L571.36 293.77L588.57 303.81L588.58 315.78L613.59 330.37L647.4 330.58L720.19 373.04L778.31 373.41L840.52 409.7L839.12 410.5L777.49 374.54L719.38 374.18L646.58 331.72L612.77 331.5L586.61 316.24L586.6 304.27L571.36 295.38L539 313.87Z" fill="#E0E0E0"/>
<path d="M527.62 326.78L484.25 301.48L484.24 292.65L490.69 288.97L427.33 252.01L428.96 251.08L493.94 288.99L486.55 293.22V300.94L528.57 325.45L564.11 325.68L621.2 358.98L642.43 346.85L679.65 368.56L679.67 382.6L710.63 400.66L762.24 400.99L807.84 427.59L806.21 428.52L761.29 402.31L709.68 401.99L677.36 383.14L677.35 369.09L642.43 348.73L621.2 360.86L563.16 327L527.62 326.78Z" fill="#E0E0E0"/>
<path d="M520.66 573.75L452.4 533.93V533.66L452.36 493.71L415.21 472.03L465.31 443.4L440.15 428.72L409.24 428.53L378.06 410.34V410.06L377.99 336.39L329.33 308.01L330.96 307.08L380.29 335.86V336.13L380.36 409.8L410.2 427.21L441.1 427.4L468.57 443.42L418.46 472.05L454.66 493.17V493.45L454.7 533.4L522.29 572.82L520.66 573.75Z" fill="#E0E0E0"/>
<path d="M580.33 550.73L518.84 514.86L546.43 499.1L517.35 482.13V481.86L517.32 442.17L476.54 418.39L439.95 418.16L406.74 398.79L435.05 382.61L401.77 363.2V362.92L401.74 331.38L345.67 298.67L347.3 297.74L404.04 330.84V331.12L404.07 362.66L438.3 382.63L410 398.81L440.91 416.84L477.5 417.07L519.62 441.64V441.91L519.66 481.6L549.69 499.12L522.1 514.88L581.95 549.8L580.33 550.73Z" fill="#E0E0E0"/>
<path d="M625.82 525.51L582.91 500.48L582.9 485.43L602.43 474.27L563.4 451.5L563.39 451.22L563.37 427.66L505.33 393.8L485.31 393.68L429.79 361.29L429.78 361.02L429.76 328.85L362.01 289.33L363.64 288.4L432.06 328.31V328.59L432.09 360.75L486.26 392.35L506.28 392.48L565.68 427.12V427.4L565.7 450.96L605.69 474.29L585.2 486L585.21 499.94L627.45 524.58L625.82 525.51Z" fill="#E0E0E0"/>
<path d="M675.32 453.63L649.84 438.76V438.49L649.82 412.76L606.02 387.22L591.66 387.13L541.51 357.87L526.67 366.35L444.52 318.43L444.5 299.71L394.56 270.58L396.19 269.65L446.8 299.17L446.82 317.89L526.67 364.47L541.51 355.99L592.61 385.8L606.97 385.89L652.12 412.23V412.5L652.14 438.23L676.27 452.3L712.03 452.53L743.31 470.77L741.68 471.7L711.08 453.85L675.32 453.63Z" fill="#E0E0E0"/>
<path d="M514.48 341.57L461.8 310.84L461.78 290.8L411.15 261.26L412.54 260.46L463.75 290.34L463.77 310.38L515.3 340.44L542.5 340.61L597.18 372.5L632.07 372.72L695.37 409.65L695.38 421.85L719.89 436.15L756.61 436.38L780.33 450.22L778.93 451.01L755.79 437.51L719.08 437.28L693.41 422.31L693.39 410.1L631.25 373.86L596.36 373.64L541.68 341.74L514.48 341.57Z" fill="#E0E0E0"/>
<path d="M676.12 493.63L643.51 474.61L643.5 459.54L594.16 430.76L620.69 415.6L602.68 405.09L577.34 404.93L534.72 380.07L503.43 379.87L449.57 348.45L449.55 330.58L411.07 308.14L418.92 303.66L378.36 279.99L379.98 279.06L422.18 303.68L414.33 308.16L451.85 330.05L451.87 347.92L504.38 378.55L535.67 378.75L578.29 403.61L603.64 403.77L623.95 415.62L597.42 430.78L645.8 459L645.82 474.07L677.75 492.7L676.12 493.63Z" fill="#E0E0E0"/>
<g clip-path="url(#clip2_2547_2162)">
<path d="M168.769 164.041C168.769 164.041 168.769 164.041 168.769 164.04C168.758 164.071 168.756 164.104 168.751 164.136C168.753 164.12 168.756 164.104 168.759 164.089C168.763 164.073 168.763 164.057 168.768 164.042L168.769 164.041Z" fill="#94C11F"/>
<path d="M168.853 163.883C168.853 163.883 168.853 163.883 168.853 163.882C168.831 163.912 168.819 163.944 168.804 163.975C168.815 163.953 168.825 163.931 168.838 163.91C168.844 163.901 168.846 163.892 168.852 163.883H168.853Z" fill="#94C11F"/>
<path d="M168.923 163.805C168.946 163.781 168.964 163.757 168.99 163.733C168.964 163.756 168.946 163.781 168.923 163.805Z" fill="#94C11F"/>
<path d="M111.728 156.965C111.742 156.951 111.752 156.935 111.767 156.922C111.751 156.936 111.741 156.951 111.726 156.966C111.726 156.966 111.727 156.965 111.728 156.964V156.965Z" fill="#94C11F"/>
<path d="M111.547 157.229C111.541 157.246 111.542 157.265 111.537 157.283V157.282C111.541 157.264 111.541 157.246 111.546 157.229H111.547Z" fill="#94C11F"/>
<path d="M111.631 157.07C111.619 157.088 111.613 157.107 111.603 157.124C111.603 157.124 111.603 157.123 111.604 157.122C111.614 157.105 111.62 157.087 111.631 157.07Z" fill="#94C11F"/>
<path d="M111.538 157.281C111.538 157.281 111.538 157.281 111.538 157.282C111.53 157.319 111.519 157.355 111.519 157.393C111.519 157.355 111.53 157.318 111.539 157.281H111.538Z" fill="white"/>
<path d="M111.96 156.791C112.254 156.627 112.638 156.549 113.022 156.555C112.638 156.55 112.253 156.628 111.96 156.791Z" fill="white"/>
<path d="M111.603 157.121C111.603 157.121 111.603 157.123 111.602 157.123C111.582 157.158 111.559 157.192 111.546 157.228C111.559 157.191 111.582 157.156 111.603 157.121H111.603Z" fill="white"/>
<path d="M111.727 156.966C111.727 156.966 111.727 156.967 111.726 156.967C111.691 157.001 111.656 157.035 111.63 157.07C111.657 157.034 111.692 157 111.727 156.966Z" fill="white"/>
<path d="M169.16 164.815C169.16 164.815 169.166 164.821 169.17 164.823C169.46 164.995 169.843 165.085 170.227 165.09C169.843 165.084 169.459 164.994 169.17 164.823C169.166 164.821 169.164 164.818 169.159 164.815H169.16Z" fill="white"/>
<path d="M169.182 163.603L179.577 157.801L169.182 163.603Z" fill="white"/>
<path d="M169.16 164.816C169.033 164.738 168.936 164.651 168.867 164.559C168.893 164.593 168.922 164.627 168.956 164.659C168.964 164.667 168.97 164.676 168.979 164.685C169.03 164.731 169.091 164.774 169.159 164.816H169.16Z" fill="white"/>
<path d="M168.789 164.42C168.799 164.443 168.81 164.466 168.824 164.489C168.831 164.503 168.835 164.518 168.844 164.531C168.844 164.531 168.844 164.531 168.845 164.532C168.82 164.495 168.805 164.457 168.789 164.419V164.42Z" fill="white"/>
<path d="M168.749 164.27C168.75 164.286 168.753 164.302 168.757 164.319C168.76 164.336 168.759 164.354 168.764 164.371C168.764 164.371 168.764 164.371 168.764 164.372C168.753 164.338 168.753 164.304 168.748 164.27H168.749Z" fill="white"/>
<path d="M168.838 163.909C168.824 163.93 168.814 163.952 168.804 163.973C168.793 163.995 168.777 164.017 168.77 164.039C168.77 164.039 168.77 164.039 168.77 164.04C168.785 163.995 168.81 163.951 168.839 163.908L168.838 163.909Z" fill="white"/>
<path d="M169.182 163.603C169.109 163.643 169.045 163.687 168.99 163.734C168.964 163.756 168.946 163.782 168.924 163.805C168.9 163.831 168.872 163.855 168.853 163.882C168.853 163.882 168.853 163.882 168.853 163.883C168.926 163.78 169.036 163.684 169.182 163.603V163.603Z" fill="white"/>
<path d="M168.761 164.089C168.757 164.104 168.754 164.12 168.752 164.136C168.748 164.159 168.741 164.181 168.74 164.204C168.74 164.204 168.74 164.205 168.74 164.206C168.74 164.167 168.751 164.128 168.761 164.09V164.089Z" fill="white"/>
<path d="M144.853 176.638L136.669 165.553V165.554L144.853 176.638Z" fill="#662483"/>
<path d="M135.933 164.556L136.669 165.554V165.553L135.933 164.556Z" fill="white"/>
<path d="M169.16 164.816C169.092 164.775 169.03 164.731 168.979 164.686C169.034 164.735 169.097 164.781 169.17 164.824C169.166 164.822 169.164 164.819 169.16 164.816H169.16Z" fill="#662483"/>
<path d="M168.868 164.558C168.861 164.55 168.852 164.541 168.846 164.533C168.846 164.533 168.845 164.533 168.845 164.532C168.875 164.576 168.914 164.618 168.958 164.659C168.924 164.626 168.894 164.593 168.869 164.559L168.868 164.558Z" fill="#662483"/>
<path d="M168.765 164.371C168.765 164.371 168.765 164.37 168.765 164.369C168.778 164.41 168.801 164.449 168.824 164.489C168.811 164.466 168.8 164.443 168.79 164.42C168.783 164.403 168.771 164.388 168.766 164.371H168.765Z" fill="#662483"/>
<path d="M168.74 164.205C168.74 164.205 168.74 164.204 168.74 164.203V164.205V164.206C168.74 164.244 168.749 164.28 168.757 164.317C168.753 164.3 168.751 164.284 168.749 164.267C168.747 164.246 168.739 164.225 168.74 164.203V164.205Z" fill="#662483"/>
<path d="M170.228 165.091C169.844 165.085 169.46 164.996 169.17 164.824C169.46 164.996 169.844 165.086 170.228 165.091Z" fill="#662483"/>
<path d="M111.631 157.07C111.62 157.087 111.614 157.104 111.604 157.121C111.584 157.156 111.561 157.192 111.548 157.228C111.542 157.246 111.543 157.263 111.539 157.281C111.53 157.318 111.52 157.355 111.519 157.393V157.394C111.517 157.615 111.661 157.839 111.95 158.011L122.232 164.122C122.812 164.466 123.767 164.48 124.352 164.153C124.938 163.827 124.942 163.276 124.364 162.932L114.081 156.821C114.009 156.778 113.93 156.74 113.848 156.708C113.6 156.61 113.313 156.558 113.024 156.554C112.64 156.549 112.255 156.627 111.962 156.79C111.889 156.83 111.825 156.875 111.77 156.922C111.754 156.936 111.745 156.951 111.73 156.966C111.695 157 111.659 157.034 111.633 157.07H111.631Z" fill="black"/>
<path d="M199.852 183.104C199.852 183.104 199.852 183.104 199.852 183.103C199.889 182.973 199.927 182.844 199.961 182.715C199.926 182.845 199.889 182.974 199.851 183.104H199.852Z" fill="#94C11F"/>
<path d="M199.083 185.288C199.136 185.161 199.191 185.032 199.242 184.904C199.191 185.033 199.136 185.161 199.083 185.29V185.288Z" fill="#94C11F"/>
<path d="M199.369 184.565C199.369 184.565 199.369 184.565 199.369 184.565C199.417 184.435 199.467 184.305 199.513 184.176C199.467 184.306 199.417 184.436 199.369 184.565Z" fill="#94C11F"/>
<path d="M199.625 183.837C199.669 183.708 199.712 183.578 199.752 183.448C199.712 183.578 199.669 183.708 199.625 183.838V183.837Z" fill="#94C11F"/>
<path d="M200.047 182.367C200.047 182.367 200.047 182.367 200.047 182.367C200.079 182.237 200.111 182.109 200.14 181.979C200.111 182.109 200.079 182.238 200.047 182.368V182.367Z" fill="#94C11F"/>
<path d="M200.521 179.408C200.531 179.278 200.541 179.149 200.548 179.02C200.541 179.149 200.531 179.279 200.521 179.408Z" fill="#94C11F"/>
<path d="M200.562 178.665C200.567 178.511 200.574 178.358 200.576 178.204C200.574 178.358 200.567 178.512 200.562 178.665Z" fill="#94C11F"/>
<path d="M200.345 180.891C200.366 180.761 200.387 180.632 200.405 180.502C200.387 180.631 200.366 180.761 200.345 180.891Z" fill="#94C11F"/>
<path d="M200.212 181.629C200.238 181.5 200.265 181.372 200.288 181.242C200.265 181.372 200.238 181.501 200.212 181.629Z" fill="#94C11F"/>
<path d="M110.355 185.315L144.455 177.234L110.354 185.315H110.355Z" fill="white"/>
<path d="M110.326 186.888C110.5 186.937 110.688 186.967 110.881 186.975C110.688 186.967 110.5 186.936 110.326 186.888V186.888Z" fill="white"/>
<path d="M111.4 195.878C111.396 195.881 111.394 195.885 111.39 195.888C111.39 195.888 111.396 195.882 111.4 195.879V195.878Z" fill="#662483"/>
<path d="M148.203 176.526C148.108 176.47 148.006 176.419 147.898 176.375C147.046 176.023 145.858 176.052 145.091 176.48C145.003 176.529 144.923 176.582 144.853 176.637C144.685 176.771 144.568 176.92 144.503 177.076C144.482 177.128 144.465 177.181 144.455 177.234C144.447 177.279 144.442 177.325 144.442 177.372C144.442 177.696 144.652 178.022 145.074 178.273C145.43 178.484 145.884 178.61 146.354 178.651C146.516 178.664 146.681 178.668 146.845 178.661C147.335 178.642 147.812 178.528 148.186 178.319C149.05 177.837 149.053 177.031 148.203 176.526V176.526Z" fill="#292929"/>
<path d="M110.354 185.314C110.268 185.334 110.19 185.36 110.116 185.387C110.116 185.387 110.115 185.387 110.114 185.388C110.188 185.36 110.268 185.334 110.354 185.314Z" fill="white"/>
<path d="M110.056 185.413C110.056 185.413 110.053 185.414 110.053 185.415C109.999 185.437 109.949 185.461 109.902 185.487C109.902 185.487 109.9 185.488 109.899 185.489C109.948 185.462 109.999 185.437 110.056 185.414V185.413Z" fill="white"/>
<path d="M109.677 185.647L109.676 185.649C109.637 185.686 109.603 185.723 109.575 185.763C109.604 185.722 109.638 185.683 109.678 185.646L109.677 185.647Z" fill="white"/>
<path d="M109.852 185.515C109.852 185.515 109.852 185.515 109.851 185.515C109.792 185.551 109.739 185.59 109.692 185.631C109.739 185.59 109.793 185.551 109.852 185.515L109.852 185.515Z" fill="white"/>
<path d="M109.478 185.948C109.463 185.996 109.456 186.045 109.456 186.095C109.456 186.045 109.463 185.995 109.478 185.947V185.948Z" fill="white"/>
<path d="M109.887 186.709C109.76 186.634 109.655 186.544 109.58 186.442C109.655 186.544 109.76 186.634 109.886 186.709C110.013 186.784 110.164 186.843 110.326 186.888C110.164 186.843 110.013 186.784 109.886 186.709H109.887Z" fill="white"/>
<path d="M109.474 186.208C109.474 186.208 109.474 186.213 109.476 186.215C109.481 186.233 109.48 186.252 109.486 186.269C109.478 186.249 109.479 186.228 109.474 186.206L109.474 186.208Z" fill="white"/>
<path d="M109.547 185.803C109.524 185.839 109.505 185.876 109.491 185.914C109.491 185.914 109.491 185.915 109.491 185.916C109.506 185.878 109.524 185.839 109.547 185.803H109.547Z" fill="white"/>
<path d="M109.456 186.096C109.456 186.135 109.466 186.175 109.476 186.215C109.476 186.213 109.476 186.21 109.475 186.207C109.466 186.17 109.456 186.133 109.456 186.096V186.096Z" fill="#662483"/>
<path d="M109.58 186.442C109.537 186.385 109.507 186.328 109.486 186.27C109.507 186.328 109.537 186.386 109.58 186.442C109.654 186.544 109.76 186.634 109.887 186.709C109.761 186.634 109.655 186.544 109.58 186.442L109.58 186.442Z" fill="#662483"/>
<path d="M111.391 195.889C111.367 195.91 111.35 195.933 111.329 195.955C111.347 195.935 111.364 195.914 111.385 195.895C111.387 195.893 111.388 195.891 111.39 195.889H111.391Z" fill="#662483"/>
<path d="M111.18 196.184C111.17 196.211 111.17 196.239 111.164 196.266C111.166 196.257 111.167 196.249 111.169 196.239C111.173 196.221 111.173 196.202 111.179 196.184L111.18 196.184Z" fill="#662483"/>
<path d="M111.264 196.025C111.244 196.053 111.234 196.082 111.219 196.11C111.225 196.099 111.23 196.087 111.237 196.076C111.248 196.059 111.252 196.042 111.264 196.026V196.025Z" fill="#662483"/>
<path d="M121.987 189.944C122.28 189.781 122.665 189.702 123.049 189.708C122.665 189.703 122.28 189.781 121.987 189.944Z" fill="white"/>
<path d="M111.593 195.746L121.987 189.944L111.592 195.746H111.593Z" fill="white"/>
<path d="M111.592 195.746C111.519 195.787 111.456 195.83 111.4 195.878C111.455 195.831 111.52 195.787 111.592 195.746Z" fill="white"/>
<path d="M111.215 196.594C111.225 196.614 111.232 196.635 111.245 196.654C111.249 196.661 111.251 196.669 111.256 196.676C111.256 196.676 111.256 196.676 111.256 196.677C111.237 196.65 111.228 196.622 111.214 196.594H111.215Z" fill="white"/>
<path d="M111.161 196.422C111.162 196.436 111.164 196.449 111.167 196.462C111.171 196.479 111.17 196.497 111.175 196.515C111.175 196.515 111.175 196.515 111.175 196.515C111.165 196.485 111.165 196.453 111.16 196.422H111.161Z" fill="white"/>
<path d="M111.17 196.238C111.167 196.247 111.167 196.256 111.165 196.265C111.16 196.292 111.151 196.32 111.15 196.347C111.15 196.311 111.161 196.274 111.17 196.237V196.238Z" fill="white"/>
<path d="M111.237 196.075C111.23 196.086 111.225 196.098 111.219 196.109C111.206 196.134 111.189 196.158 111.18 196.184C111.193 196.146 111.216 196.11 111.238 196.074L111.237 196.075Z" fill="white"/>
<path d="M111.385 195.895C111.363 195.914 111.348 195.934 111.329 195.954C111.307 195.978 111.281 196.001 111.263 196.025C111.296 195.979 111.339 195.937 111.386 195.895H111.385Z" fill="white"/>
<path d="M111.391 196.829C111.365 196.805 111.347 196.78 111.326 196.755C111.302 196.729 111.274 196.703 111.256 196.677C111.256 196.677 111.256 196.677 111.256 196.676C111.327 196.781 111.436 196.881 111.581 196.967C111.509 196.924 111.445 196.878 111.391 196.829Z" fill="#662483"/>
<path d="M111.176 196.514C111.176 196.514 111.176 196.514 111.176 196.514C111.191 196.561 111.216 196.608 111.245 196.654C111.233 196.634 111.225 196.614 111.216 196.594C111.203 196.567 111.185 196.541 111.177 196.514H111.176Z" fill="#662483"/>
<path d="M111.167 196.462C111.164 196.449 111.163 196.435 111.161 196.422C111.158 196.398 111.15 196.373 111.15 196.349C111.15 196.349 111.15 196.35 111.15 196.351C111.15 196.388 111.16 196.426 111.168 196.463L111.167 196.462Z" fill="#662483"/>
<path d="M180.255 198.245C179.871 198.238 179.487 198.149 179.198 197.978C179.487 198.15 179.871 198.239 180.255 198.245Z" fill="#662483"/>
<path d="M181.328 196.787L171.046 190.676C170.756 190.504 170.373 190.415 169.989 190.409C169.796 190.405 169.604 190.424 169.423 190.463C169.242 190.502 169.073 190.562 168.926 190.644C168.341 190.971 168.335 191.521 168.914 191.866L179.197 197.977C179.486 198.149 179.87 198.238 180.254 198.244C180.638 198.249 181.024 198.171 181.316 198.008C181.901 197.681 181.907 197.131 181.327 196.787L181.328 196.787Z" fill="black"/>
<path d="M111.581 196.968C111.798 197.097 112.068 197.179 112.351 197.215C112.068 197.179 111.798 197.096 111.581 196.968Z" fill="#662483"/>
<path d="M195.428 191.242C195.515 191.136 195.599 191.029 195.684 190.923C195.684 190.923 195.683 190.924 195.682 190.925C195.598 191.031 195.515 191.137 195.428 191.242Z" fill="white"/>
<path d="M197.43 188.476C197.498 188.367 197.563 188.257 197.629 188.146C197.629 188.146 197.629 188.147 197.628 188.148C197.562 188.257 197.498 188.367 197.43 188.476L197.43 188.476Z" fill="white"/>
<path d="M197 189.142C197.064 189.045 197.124 188.948 197.187 188.852C197.187 188.852 197.187 188.852 197.187 188.853C197.125 188.95 197.065 189.046 197 189.142H197Z" fill="white"/>
<path d="M195.999 190.529C196.073 190.433 196.143 190.335 196.216 190.238C196.216 190.238 196.216 190.239 196.215 190.24C196.142 190.336 196.073 190.433 195.999 190.529Z" fill="white"/>
<path d="M196.489 189.871C196.567 189.763 196.641 189.655 196.717 189.547C196.717 189.547 196.716 189.548 196.715 189.548C196.64 189.656 196.567 189.763 196.489 189.871V189.871Z" fill="white"/>
<path d="M197.853 187.771C197.86 187.758 197.868 187.745 197.877 187.731C197.869 187.745 197.861 187.758 197.853 187.771Z" fill="white"/>
<path d="M194.875 191.892C194.96 191.796 195.039 191.699 195.121 191.603C195.121 191.603 195.12 191.604 195.12 191.604C195.037 191.7 194.959 191.796 194.875 191.892Z" fill="white"/>
<path d="M199.242 184.904C199.286 184.791 199.326 184.678 199.369 184.565C199.369 184.565 199.369 184.565 199.369 184.566C199.326 184.679 199.286 184.791 199.242 184.904Z" fill="white"/>
<path d="M199.532 184.124C199.565 184.029 199.594 183.932 199.626 183.836C199.594 183.932 199.566 184.028 199.532 184.124V184.124Z" fill="white"/>
<path d="M198.962 185.579C199.005 185.482 199.042 185.385 199.082 185.288C199.042 185.385 199.005 185.482 198.962 185.578V185.579Z" fill="white"/>
<path d="M199.962 182.715C199.993 182.599 200.02 182.483 200.048 182.367C200.048 182.367 200.048 182.367 200.048 182.368C200.02 182.484 199.993 182.599 199.963 182.715H199.962Z" fill="white"/>
<path d="M199.752 183.447C199.788 183.332 199.819 183.217 199.852 183.103C199.852 183.103 199.852 183.103 199.852 183.103C199.819 183.218 199.788 183.333 199.753 183.447H199.752Z" fill="white"/>
<path d="M200.548 179.019C200.554 178.901 200.557 178.783 200.562 178.665C200.558 178.784 200.555 178.901 200.548 179.019Z" fill="white"/>
<path d="M200.406 180.502C200.422 180.385 200.434 180.267 200.448 180.15C200.434 180.268 200.422 180.385 200.406 180.502Z" fill="white"/>
<path d="M200.14 181.98C200.166 181.863 200.188 181.746 200.212 181.63C200.189 181.746 200.166 181.863 200.14 181.98Z" fill="white"/>
<path d="M200.3 181.179C200.317 181.083 200.33 180.987 200.345 180.891C200.33 180.987 200.317 181.083 200.3 181.179Z" fill="white"/>
<path d="M196.354 205.023C196.621 204.864 196.888 204.706 197.148 204.545C196.888 204.706 196.621 204.865 196.354 205.023Z" fill="#94C11F"/>
<path d="M198.816 203.468C199.019 203.332 199.224 203.198 199.424 203.062C199.224 203.198 199.019 203.332 198.816 203.468Z" fill="#94C11F"/>
<path d="M187.234 154.741C165.055 141.56 128.904 141.021 106.482 153.535C95.305 159.774 89.6521 168.078 89.5397 176.472C89.5382 176.596 89.5397 176.721 89.5405 176.846C89.5413 176.985 89.5413 177.124 89.5451 177.263C89.549 177.388 89.5559 177.515 89.562 177.64C89.5682 177.778 89.5743 177.916 89.5836 178.054C89.592 178.18 89.6051 178.307 89.6159 178.434C89.6282 178.571 89.6397 178.708 89.6544 178.845C89.6682 178.972 89.6867 179.099 89.7028 179.227C89.7205 179.363 89.7375 179.5 89.7582 179.637C89.7775 179.765 89.8013 179.893 89.8236 180.021C89.8467 180.156 89.869 180.291 89.8952 180.426C89.9206 180.555 89.9498 180.684 89.9775 180.813C90.006 180.947 90.0337 181.081 90.0652 181.214C90.096 181.343 90.1306 181.472 90.1629 181.6C90.1976 181.734 90.2307 181.868 90.2684 182.002C90.3045 182.13 90.3445 182.259 90.383 182.388C90.423 182.521 90.4615 182.653 90.5038 182.785C90.5453 182.915 90.5907 183.043 90.6354 183.173C90.6808 183.305 90.7246 183.437 90.7731 183.569C90.82 183.697 90.8708 183.824 90.9201 183.952C90.9716 184.084 91.0208 184.217 91.0755 184.35C91.127 184.477 91.1832 184.603 91.2378 184.73C91.2948 184.862 91.3502 184.995 91.4102 185.126C91.4679 185.253 91.5294 185.38 91.5902 185.507C91.6525 185.638 91.7126 185.769 91.778 185.899C91.841 186.027 91.9095 186.153 91.9757 186.281C92.0434 186.41 92.1088 186.54 92.1788 186.669C92.2473 186.794 92.3196 186.919 92.3904 187.045C92.4643 187.175 92.5358 187.305 92.612 187.435C92.6859 187.56 92.7636 187.684 92.8397 187.808C92.919 187.937 92.9959 188.066 93.0783 188.195C93.1575 188.32 93.2422 188.444 93.3245 188.569C93.4083 188.696 93.4907 188.824 93.5776 188.951C93.663 189.075 93.7523 189.199 93.84 189.323C93.9292 189.449 94.017 189.575 94.1093 189.701C94.1993 189.825 94.2947 189.946 94.3878 190.069C94.4832 190.194 94.5771 190.321 94.6748 190.446C94.771 190.568 94.871 190.689 94.9695 190.811C95.0703 190.935 95.1688 191.06 95.2719 191.184C95.3727 191.305 95.4788 191.424 95.5819 191.544C95.6889 191.668 95.7935 191.793 95.9036 191.916C96.0074 192.033 96.1167 192.149 96.2236 192.266C96.3383 192.391 96.4506 192.517 96.5676 192.641C96.6768 192.758 96.7915 192.873 96.903 192.988C97.0231 193.112 97.1408 193.236 97.2639 193.359C97.3801 193.476 97.5009 193.59 97.6194 193.706C97.744 193.827 97.8663 193.949 97.9933 194.069C98.1156 194.185 98.2426 194.299 98.3672 194.414C98.4965 194.534 98.6235 194.653 98.7558 194.772C98.8835 194.887 99.0166 195 99.1474 195.114C99.2821 195.231 99.4136 195.349 99.5506 195.465C99.6852 195.579 99.8253 195.692 99.9622 195.806C100.101 195.921 100.238 196.037 100.379 196.151C100.522 196.266 100.671 196.38 100.817 196.494C100.958 196.605 101.096 196.716 101.24 196.826C101.39 196.941 101.546 197.054 101.698 197.168C101.843 197.276 101.987 197.386 102.135 197.493C102.294 197.608 102.458 197.722 102.621 197.837C102.768 197.941 102.912 198.046 103.062 198.149C103.235 198.269 103.414 198.387 103.59 198.505C103.735 198.602 103.876 198.7 104.023 198.797C104.228 198.932 104.439 199.064 104.649 199.197C104.772 199.275 104.892 199.355 105.016 199.432C105.353 199.642 105.694 199.851 106.042 200.057C128.221 213.238 164.372 213.777 186.794 201.263C209.216 188.749 209.413 167.92 187.233 154.74L187.234 154.741ZM184.568 199.941C163.39 211.762 129.242 211.252 108.293 198.801C87.3438 186.351 87.5254 166.675 108.704 154.855C115.984 150.792 124.797 148.185 134.081 147.02C135.769 146.808 137.473 146.644 139.186 146.527C140.042 146.469 140.901 146.422 141.761 146.388C157.242 145.766 173.205 148.991 184.989 155.994C195.464 162.219 200.653 170.25 200.577 178.203C200.576 178.357 200.569 178.511 200.563 178.664C200.56 178.782 200.557 178.9 200.55 179.018C200.543 179.148 200.532 179.278 200.522 179.407C200.513 179.525 200.505 179.643 200.493 179.761C200.481 179.89 200.465 180.019 200.45 180.149C200.436 180.266 200.423 180.383 200.407 180.501C200.39 180.63 200.368 180.759 200.347 180.888C200.332 180.985 200.32 181.081 200.303 181.177C200.299 181.198 200.294 181.219 200.29 181.24C200.267 181.37 200.24 181.498 200.214 181.628C200.19 181.745 200.169 181.861 200.143 181.977C200.114 182.107 200.081 182.236 200.049 182.365C200.021 182.481 199.994 182.596 199.963 182.712C199.929 182.841 199.891 182.971 199.854 183.1C199.821 183.215 199.789 183.33 199.754 183.445C199.714 183.575 199.67 183.704 199.627 183.834C199.596 183.929 199.566 184.026 199.533 184.122C199.527 184.14 199.52 184.157 199.514 184.174C199.469 184.304 199.419 184.434 199.37 184.563C199.328 184.676 199.287 184.789 199.243 184.901C199.192 185.03 199.138 185.158 199.084 185.285C199.043 185.383 199.005 185.48 198.964 185.576C198.648 186.3 198.287 187.018 197.879 187.728C197.871 187.742 197.863 187.755 197.854 187.769C197.782 187.894 197.705 188.019 197.63 188.144C197.563 188.254 197.499 188.365 197.43 188.474C197.352 188.6 197.27 188.724 197.188 188.849C197.125 188.945 197.065 189.043 197 189.139C196.993 189.151 196.983 189.163 196.976 189.175C196.893 189.299 196.804 189.422 196.718 189.545C196.642 189.653 196.568 189.762 196.49 189.87C196.401 189.992 196.308 190.115 196.216 190.236C196.144 190.334 196.074 190.431 195.999 190.527C195.992 190.538 195.982 190.548 195.975 190.559C195.881 190.68 195.782 190.8 195.685 190.922C195.599 191.028 195.516 191.136 195.428 191.241C195.329 191.361 195.224 191.481 195.122 191.601C195.04 191.697 194.96 191.794 194.876 191.89C192.308 194.813 188.871 197.538 184.57 199.939L184.568 199.941Z" fill="#EEEEEE"/>
<path d="M179.577 157.801L169.182 163.603C169.036 163.685 168.926 163.78 168.853 163.882C168.846 163.89 168.844 163.9 168.839 163.909C168.81 163.952 168.785 163.995 168.769 164.04C168.764 164.057 168.765 164.073 168.761 164.088C168.752 164.127 168.741 164.165 168.74 164.204C168.74 164.226 168.747 164.247 168.749 164.269C168.753 164.303 168.755 164.337 168.766 164.371C168.771 164.388 168.783 164.403 168.789 164.42C168.806 164.458 168.82 164.497 168.846 164.533C168.852 164.542 168.862 164.55 168.868 164.559C168.937 164.651 169.033 164.738 169.16 164.816C169.164 164.818 169.166 164.821 169.171 164.823C169.46 164.995 169.844 165.085 170.228 165.09C170.612 165.096 170.998 165.018 171.29 164.855L181.685 159.053C182.27 158.726 182.275 158.176 181.696 157.832C181.541 157.739 181.357 157.672 181.162 157.628C180.63 157.506 180.005 157.561 179.577 157.8L179.577 157.801Z" fill="black"/>
<path d="M144.853 176.639C144.923 176.583 145.003 176.53 145.091 176.481C145.858 176.052 147.046 176.023 147.898 176.376L138.684 163.901C138.609 163.8 138.503 163.712 138.377 163.637C137.954 163.386 137.294 163.292 136.707 163.429C135.95 163.611 135.603 164.117 135.932 164.557L136.668 165.554L144.853 176.639Z" fill="black"/>
<path d="M93.9263 201.862C94.1063 201.99 94.2833 202.118 94.4664 202.245C94.2833 202.119 94.1063 201.99 93.9263 201.862Z" fill="#94C11F"/>
<path d="M91.2546 199.851C91.0861 199.715 90.9237 199.577 90.7583 199.44C90.9237 199.577 91.0861 199.714 91.2546 199.851Z" fill="#94C11F"/>
<path d="M95.0981 202.67C95.2705 202.786 95.4405 202.903 95.6152 203.018C95.4398 202.903 95.2705 202.785 95.0981 202.67Z" fill="#94C11F"/>
<path d="M91.5902 185.508C91.5302 185.381 91.4679 185.255 91.4102 185.127C91.4679 185.254 91.5294 185.381 91.5902 185.508Z" fill="#94C11F"/>
<path d="M91.9751 186.281C91.9089 186.154 91.8412 186.027 91.7773 185.899C91.8404 186.027 91.9089 186.153 91.9751 186.281Z" fill="#94C11F"/>
<path d="M90.6369 183.173C90.5923 183.045 90.5469 182.915 90.5054 182.786C90.5469 182.915 90.5923 183.044 90.6369 183.173Z" fill="#94C11F"/>
<path d="M89.5407 176.846C89.5407 176.721 89.5376 176.596 89.5399 176.472C89.5384 176.596 89.5399 176.721 89.5407 176.846Z" fill="#94C11F"/>
<path d="M89.6168 178.433C89.6052 178.307 89.5929 178.18 89.5845 178.054C89.5929 178.18 89.606 178.307 89.6168 178.433Z" fill="#94C11F"/>
<path d="M89.8252 180.021C89.8029 179.892 89.7798 179.764 89.7598 179.636C89.779 179.764 89.8029 179.892 89.8252 180.021Z" fill="#94C11F"/>
<path d="M89.7042 179.227C89.6873 179.1 89.6696 178.973 89.6558 178.845C89.6696 178.972 89.6881 179.099 89.7042 179.227Z" fill="#94C11F"/>
<path d="M90.1651 181.601C90.132 181.472 90.0974 181.343 90.0674 181.215C90.0982 181.343 90.1328 181.472 90.1651 181.601Z" fill="#94C11F"/>
<path d="M93.3238 188.569C93.2415 188.445 93.1577 188.321 93.0776 188.195C93.1569 188.32 93.2415 188.445 93.3238 188.569Z" fill="#94C11F"/>
<path d="M102.621 197.838C102.46 197.723 102.295 197.609 102.136 197.493C102.295 197.609 102.459 197.723 102.621 197.838Z" fill="#94C11F"/>
<path d="M101.699 197.168C101.546 197.054 101.391 196.941 101.241 196.827C101.391 196.942 101.547 197.055 101.699 197.168Z" fill="#94C11F"/>
<path d="M100.818 196.494C100.671 196.379 100.523 196.265 100.38 196.15C100.523 196.266 100.671 196.38 100.818 196.494Z" fill="#94C11F"/>
<path d="M99.9639 195.806C99.8262 195.693 99.6869 195.58 99.5522 195.465C99.6869 195.579 99.8269 195.692 99.9639 195.806Z" fill="#94C11F"/>
<path d="M103.591 198.505C103.415 198.387 103.236 198.27 103.063 198.149C103.236 198.269 103.415 198.387 103.591 198.505Z" fill="#94C11F"/>
<path d="M93.84 189.322C93.7523 189.198 93.6623 189.075 93.5776 188.95C93.663 189.074 93.7523 189.198 93.84 189.322Z" fill="#94C11F"/>
<path d="M104.649 199.197C104.44 199.064 104.229 198.932 104.023 198.797C104.228 198.932 104.44 199.064 104.649 199.197Z" fill="#94C11F"/>
<path d="M106.043 200.059C105.695 199.852 105.354 199.643 105.017 199.434C105.354 199.644 105.695 199.852 106.043 200.059Z" fill="#94C11F"/>
<path d="M95.582 191.545C95.4782 191.425 95.3728 191.305 95.272 191.185C95.3728 191.305 95.4789 191.425 95.582 191.545Z" fill="#94C11F"/>
<path d="M94.9695 190.811C94.871 190.69 94.7702 190.568 94.6748 190.446C94.771 190.569 94.871 190.69 94.9695 190.811Z" fill="#94C11F"/>
<path d="M94.3869 190.068C94.2938 189.946 94.1992 189.824 94.1084 189.701C94.1984 189.824 94.2938 189.946 94.3869 190.068Z" fill="#94C11F"/>
<path d="M98.3671 194.414C98.2425 194.3 98.1155 194.185 97.9932 194.069C98.1155 194.185 98.2425 194.299 98.3671 194.414Z" fill="#94C11F"/>
<path d="M96.2229 192.266C96.116 192.15 96.0075 192.034 95.9028 191.916C96.0067 192.033 96.116 192.149 96.2229 192.266Z" fill="#94C11F"/>
<path d="M92.8396 187.809C92.7634 187.685 92.6857 187.56 92.6118 187.437C92.6857 187.561 92.7634 187.685 92.8396 187.809Z" fill="#94C11F"/>
<path d="M214.934 179.934C214.922 180.089 214.912 180.245 214.897 180.401C214.882 180.558 214.862 180.716 214.843 180.873C214.825 181.028 214.808 181.184 214.787 181.34C214.766 181.496 214.739 181.652 214.715 181.808C214.69 181.964 214.666 182.121 214.639 182.277C214.611 182.432 214.578 182.588 214.547 182.743C214.515 182.899 214.485 183.056 214.451 183.212C214.416 183.367 214.378 183.521 214.34 183.676C214.302 183.832 214.265 183.988 214.225 184.144C214.184 184.298 214.138 184.451 214.095 184.604C214.05 184.76 214.007 184.917 213.959 185.073C213.912 185.226 213.861 185.378 213.811 185.531C213.759 185.687 213.71 185.843 213.655 185.998C213.602 186.151 213.544 186.302 213.487 186.454C213.429 186.61 213.373 186.765 213.312 186.92C213.253 187.07 213.188 187.22 213.125 187.371C213.06 187.527 212.997 187.682 212.93 187.836C212.864 187.986 212.793 188.135 212.724 188.284C212.653 188.439 212.583 188.594 212.509 188.749C212.436 188.897 212.36 189.045 212.285 189.193C212.207 189.347 212.131 189.501 212.049 189.655C211.971 189.802 211.888 189.949 211.806 190.096C211.722 190.249 211.639 190.402 211.551 190.554C211.466 190.701 211.376 190.848 211.288 190.994C211.197 191.145 211.108 191.297 211.014 191.448C210.922 191.594 210.825 191.74 210.731 191.885C210.634 192.035 210.538 192.185 210.438 192.334C210.34 192.479 210.237 192.624 210.136 192.767C210.032 192.917 209.93 193.066 209.823 193.214C209.719 193.358 209.61 193.501 209.503 193.643C209.392 193.791 209.283 193.94 209.169 194.087C209.058 194.23 208.942 194.371 208.828 194.514C208.711 194.659 208.597 194.805 208.477 194.951C208.359 195.094 208.235 195.236 208.113 195.378C207.991 195.522 207.872 195.665 207.746 195.807C207.621 195.949 207.491 196.089 207.363 196.23C207.234 196.372 207.108 196.514 206.977 196.655C206.844 196.796 206.707 196.936 206.571 197.076C206.437 197.214 206.306 197.354 206.169 197.492C206.028 197.634 205.882 197.773 205.738 197.914C205.599 198.049 205.463 198.185 205.321 198.32C205.175 198.458 205.024 198.595 204.875 198.732C204.728 198.867 204.585 199.004 204.434 199.139C204.283 199.274 204.126 199.408 203.971 199.543C203.817 199.677 203.667 199.812 203.509 199.946C203.348 200.082 203.181 200.218 203.017 200.353C202.86 200.483 202.706 200.613 202.546 200.743C202.375 200.88 202.199 201.015 202.025 201.151C201.865 201.277 201.707 201.403 201.544 201.527C201.365 201.664 201.179 201.799 200.996 201.934C200.831 202.056 200.67 202.179 200.503 202.301C200.317 202.435 200.124 202.568 199.935 202.701C199.764 202.821 199.596 202.942 199.423 203.061C199.223 203.198 199.018 203.332 198.815 203.468C198.645 203.582 198.478 203.696 198.305 203.809C198.082 203.953 197.853 204.097 197.626 204.24C197.466 204.341 197.31 204.443 197.147 204.543C196.887 204.704 196.62 204.863 196.354 205.022C196.219 205.102 196.088 205.184 195.952 205.264C195.546 205.502 195.135 205.738 194.717 205.971C167.876 220.953 124.583 220.307 98.0319 204.527L97.7588 219.728C124.31 235.507 167.602 236.154 194.444 221.172C207.778 213.73 214.546 203.829 214.726 193.814L214.999 178.613C214.997 178.74 214.989 178.866 214.985 178.991C214.979 179.147 214.976 179.303 214.967 179.458C214.959 179.616 214.946 179.774 214.933 179.932L214.934 179.934Z" fill="#17B5DD"/>
<path d="M195.244 150.27C168.693 134.492 125.401 133.845 98.5587 148.826C85.1816 156.293 78.4146 166.234 78.2769 176.281C78.2745 176.442 78.2769 176.602 78.2784 176.763C78.2792 176.918 78.2792 177.074 78.2838 177.23C78.2884 177.39 78.2976 177.55 78.3053 177.71C78.313 177.866 78.3192 178.022 78.3299 178.179C78.3407 178.339 78.3569 178.498 78.3715 178.658C78.3853 178.814 78.3984 178.971 78.4154 179.127C78.433 179.287 78.4554 179.447 78.4769 179.606C78.4977 179.762 78.5169 179.918 78.54 180.074C78.5646 180.233 78.5931 180.392 78.6208 180.55C78.6477 180.707 78.6739 180.864 78.7039 181.021C78.7347 181.178 78.7701 181.336 78.8039 181.494C78.8378 181.651 78.8701 181.808 78.907 181.965C78.9439 182.123 78.9863 182.279 79.027 182.437C79.0678 182.594 79.1063 182.751 79.1501 182.908C79.194 183.065 79.2432 183.222 79.2902 183.38C79.3371 183.536 79.3825 183.692 79.4325 183.848C79.4833 184.005 79.5387 184.162 79.5926 184.318C79.6464 184.474 79.698 184.63 79.7549 184.785C79.8118 184.941 79.8734 185.096 79.9334 185.251C79.9942 185.407 80.0527 185.564 80.1165 185.72C80.1796 185.874 80.2481 186.028 80.3143 186.183C80.3812 186.339 80.4466 186.495 80.5166 186.65C80.5859 186.804 80.6613 186.957 80.7344 187.111C80.8082 187.266 80.8798 187.422 80.9567 187.577C81.0329 187.729 81.1137 187.881 81.1929 188.033C81.2737 188.188 81.3522 188.344 81.4368 188.499C81.5184 188.65 81.6061 188.8 81.6908 188.951C81.7785 189.106 81.8639 189.261 81.9554 189.416C82.0439 189.565 82.137 189.714 82.2286 189.863C82.3232 190.017 82.4155 190.172 82.514 190.326C82.6087 190.475 82.7079 190.622 82.8056 190.769C82.9072 190.923 83.0072 191.078 83.1119 191.232C83.2127 191.379 83.3188 191.525 83.4227 191.672C83.5312 191.825 83.6366 191.978 83.7482 192.129C83.8559 192.276 83.969 192.422 84.0798 192.568C84.1944 192.718 84.3068 192.87 84.4245 193.021C84.5376 193.165 84.6561 193.308 84.773 193.452C84.8954 193.604 85.0154 193.755 85.1408 193.905C85.2593 194.048 85.384 194.188 85.5063 194.33C85.6356 194.481 85.7633 194.632 85.8964 194.782C86.0218 194.923 86.1534 195.063 86.2819 195.204C86.4181 195.352 86.5512 195.502 86.6912 195.65C86.8228 195.79 86.9605 195.929 87.0959 196.068C87.239 196.216 87.3791 196.363 87.5252 196.509C87.663 196.647 87.8061 196.783 87.9469 196.92C88.0977 197.067 88.2454 197.214 88.3993 197.36C88.544 197.496 88.694 197.631 88.8417 197.767C88.9979 197.912 89.1518 198.057 89.3118 198.2C89.4649 198.337 89.6242 198.473 89.7812 198.609C89.942 198.749 90.0997 198.891 90.2644 199.03C90.4252 199.166 90.5914 199.301 90.7553 199.436C90.7568 199.438 90.7591 199.439 90.7606 199.441C90.9261 199.578 91.0884 199.715 91.2569 199.851C91.4216 199.984 91.5924 200.115 91.7609 200.247C91.9363 200.384 92.1094 200.524 92.2887 200.661C92.4634 200.794 92.6434 200.925 92.8211 201.058C93.0004 201.191 93.1766 201.326 93.359 201.458C93.5459 201.593 93.739 201.727 93.9291 201.862C94.1091 201.99 94.2861 202.118 94.4692 202.245C94.6762 202.388 94.8901 202.529 95.1009 202.67C95.2733 202.786 95.4425 202.904 95.618 203.018C95.8573 203.176 96.1042 203.33 96.3489 203.487C96.502 203.585 96.6521 203.683 96.8075 203.78C97.2107 204.032 97.62 204.282 98.0355 204.529C124.586 220.308 167.878 220.954 194.72 205.973C195.138 205.739 195.55 205.504 195.955 205.266C196.091 205.185 196.223 205.104 196.358 205.023C196.624 204.864 196.891 204.706 197.151 204.545C197.313 204.445 197.469 204.342 197.63 204.241C197.857 204.098 198.086 203.955 198.308 203.81C198.481 203.698 198.648 203.583 198.818 203.469C199.021 203.334 199.227 203.199 199.426 203.063C199.6 202.943 199.768 202.822 199.939 202.702C200.128 202.569 200.32 202.437 200.506 202.302C200.674 202.181 200.836 202.058 201 201.936C201.183 201.8 201.368 201.665 201.547 201.528C201.711 201.404 201.867 201.277 202.028 201.153C202.202 201.016 202.379 200.881 202.549 200.744C202.709 200.616 202.864 200.485 203.021 200.355C203.185 200.219 203.352 200.084 203.512 199.947C203.669 199.814 203.821 199.679 203.975 199.544C204.129 199.41 204.286 199.276 204.437 199.14C204.587 199.005 204.732 198.869 204.879 198.733C205.027 198.596 205.179 198.459 205.324 198.321C205.466 198.187 205.602 198.051 205.741 197.915C205.885 197.774 206.032 197.635 206.172 197.493C206.309 197.356 206.441 197.216 206.575 197.077C206.71 196.937 206.848 196.797 206.98 196.656C207.112 196.515 207.238 196.373 207.366 196.232C207.494 196.091 207.625 195.95 207.75 195.808C207.875 195.666 207.994 195.523 208.117 195.38C208.238 195.238 208.362 195.095 208.481 194.952C208.601 194.808 208.715 194.661 208.831 194.515C208.945 194.373 209.062 194.231 209.172 194.088C209.286 193.941 209.395 193.792 209.506 193.644C209.613 193.501 209.722 193.359 209.826 193.216C209.934 193.067 210.036 192.918 210.139 192.769C210.24 192.624 210.343 192.48 210.441 192.336C210.542 192.187 210.637 192.036 210.734 191.887C210.829 191.741 210.926 191.595 211.017 191.449C211.111 191.298 211.2 191.147 211.291 190.995C211.379 190.849 211.469 190.703 211.554 190.556C211.642 190.404 211.725 190.251 211.81 190.098C211.891 189.951 211.975 189.804 212.053 189.656C212.135 189.503 212.211 189.348 212.288 189.195C212.364 189.046 212.441 188.899 212.512 188.75C212.587 188.595 212.657 188.441 212.728 188.286C212.796 188.136 212.867 187.988 212.933 187.838C213.001 187.683 213.064 187.528 213.129 187.373C213.191 187.222 213.256 187.072 213.316 186.921C213.376 186.767 213.433 186.611 213.49 186.456C213.547 186.304 213.605 186.152 213.659 186C213.713 185.845 213.763 185.688 213.814 185.532C213.864 185.38 213.916 185.228 213.963 185.075C214.01 184.919 214.053 184.763 214.098 184.606C214.142 184.453 214.187 184.299 214.228 184.146C214.27 183.99 214.306 183.834 214.344 183.677C214.381 183.523 214.421 183.369 214.454 183.214C214.489 183.058 214.519 182.901 214.551 182.745C214.581 182.589 214.614 182.434 214.642 182.279C214.67 182.123 214.694 181.966 214.718 181.81C214.743 181.653 214.769 181.497 214.791 181.341C214.812 181.186 214.829 181.03 214.847 180.874C214.865 180.717 214.885 180.56 214.901 180.402C214.915 180.247 214.926 180.091 214.938 179.936C214.95 179.778 214.963 179.619 214.971 179.462C214.98 179.307 214.984 179.151 214.989 178.995C215.344 168.728 208.775 158.311 195.247 150.272L195.244 150.27ZM106.043 200.058C105.695 199.852 105.353 199.643 105.016 199.433C104.892 199.355 104.772 199.276 104.649 199.198C104.44 199.065 104.229 198.932 104.024 198.798C103.877 198.702 103.735 198.604 103.591 198.507C103.414 198.388 103.236 198.271 103.063 198.151C102.914 198.047 102.769 197.943 102.621 197.839C102.46 197.724 102.295 197.61 102.136 197.494C101.987 197.386 101.844 197.277 101.699 197.169C101.546 197.055 101.391 196.942 101.241 196.828C101.097 196.717 100.958 196.607 100.818 196.496C100.671 196.381 100.523 196.267 100.38 196.152C100.238 196.038 100.102 195.922 99.9629 195.808C99.8251 195.694 99.6859 195.581 99.5512 195.466C99.4143 195.35 99.2819 195.232 99.148 195.115C99.0172 195.001 98.8841 194.888 98.7564 194.773C98.6241 194.654 98.4971 194.535 98.3679 194.416C98.2432 194.301 98.1163 194.186 97.9939 194.071C97.8662 193.95 97.7439 193.828 97.62 193.707C97.5015 193.592 97.3807 193.477 97.2645 193.36C97.1414 193.237 97.0237 193.113 96.9037 192.989C96.7921 192.874 96.6775 192.759 96.5682 192.643C96.4512 192.518 96.3381 192.392 96.2243 192.268C96.1173 192.151 96.0088 192.035 95.9042 191.917C95.7942 191.794 95.6895 191.669 95.5826 191.545C95.4787 191.425 95.3733 191.305 95.2725 191.185C95.1694 191.061 95.0709 190.937 94.9701 190.812C94.8716 190.691 94.7708 190.569 94.6754 190.447C94.5769 190.322 94.4838 190.196 94.3884 190.07C94.2953 189.948 94.2007 189.825 94.1099 189.703C94.0176 189.577 93.9299 189.45 93.8406 189.324C93.7529 189.2 93.6629 189.077 93.5782 188.952C93.4913 188.825 93.409 188.698 93.3251 188.57C93.2428 188.446 93.1589 188.322 93.0789 188.196C92.9973 188.067 92.9196 187.938 92.8404 187.809C92.7642 187.685 92.6865 187.56 92.6126 187.436C92.5365 187.306 92.4641 187.176 92.391 187.046C92.3202 186.92 92.2479 186.796 92.1794 186.67C92.1094 186.541 92.044 186.412 91.9763 186.282C91.9101 186.155 91.8424 186.028 91.7786 185.9C91.7139 185.77 91.6532 185.639 91.5908 185.509C91.5308 185.382 91.4685 185.255 91.4108 185.128C91.3508 184.996 91.2954 184.864 91.2384 184.731C91.1838 184.604 91.1277 184.478 91.0761 184.351C91.0222 184.218 90.9722 184.086 90.9207 183.953C90.8714 183.825 90.8207 183.698 90.7737 183.57C90.7252 183.438 90.6814 183.306 90.636 183.174C90.5914 183.045 90.546 182.916 90.5044 182.787C90.4621 182.654 90.4236 182.521 90.3836 182.389C90.3452 182.26 90.3051 182.132 90.269 182.003C90.2313 181.869 90.1982 181.735 90.1636 181.601C90.1305 181.473 90.0959 181.344 90.0659 181.216C90.0343 181.082 90.0066 180.949 89.9781 180.815C89.9504 180.685 89.9212 180.556 89.8958 180.427C89.8697 180.292 89.8473 180.157 89.8243 180.023C89.8019 179.894 89.7789 179.766 89.7589 179.638C89.7381 179.502 89.7212 179.365 89.7035 179.228C89.6865 179.101 89.6688 178.974 89.655 178.847C89.6396 178.71 89.6288 178.572 89.6165 178.435C89.605 178.309 89.5927 178.182 89.5842 178.055C89.575 177.918 89.5688 177.779 89.5627 177.641C89.5565 177.516 89.5496 177.39 89.5457 177.264C89.5419 177.125 89.5419 176.986 89.5411 176.847C89.5411 176.722 89.538 176.598 89.5403 176.473C89.6527 168.079 95.3056 159.775 106.483 153.536C128.904 141.022 165.055 141.561 187.235 154.742C209.414 167.923 209.217 188.751 186.795 201.265C164.374 213.78 128.222 213.24 106.044 200.059L106.043 200.058Z" fill="#27CEEF"/>
<path d="M111.592 195.747C111.519 195.787 111.455 195.832 111.4 195.878C111.396 195.881 111.394 195.885 111.39 195.889C111.388 195.89 111.387 195.893 111.385 195.895C111.338 195.937 111.296 195.981 111.263 196.026C111.251 196.042 111.246 196.059 111.236 196.075C111.215 196.111 111.192 196.147 111.179 196.184C111.172 196.202 111.173 196.22 111.169 196.239C111.16 196.275 111.15 196.312 111.149 196.349C111.149 196.373 111.157 196.398 111.16 196.422C111.164 196.453 111.165 196.484 111.175 196.515C111.183 196.542 111.201 196.568 111.214 196.594C111.228 196.622 111.237 196.65 111.255 196.677C111.273 196.705 111.301 196.73 111.325 196.756C111.346 196.78 111.364 196.806 111.39 196.829C111.444 196.878 111.508 196.924 111.58 196.968C111.797 197.097 112.067 197.18 112.35 197.215C112.823 197.275 113.333 197.204 113.699 196.999L124.094 191.197C124.68 190.871 124.684 190.32 124.106 189.976C123.816 189.804 123.432 189.714 123.048 189.708C122.665 189.703 122.279 189.781 121.987 189.944L111.592 195.747Z" fill="black"/>
<path d="M194.875 191.892C194.959 191.796 195.038 191.7 195.12 191.604C195.223 191.484 195.327 191.364 195.427 191.242C195.514 191.137 195.597 191.031 195.682 190.925C195.78 190.803 195.879 190.682 195.974 190.56C195.981 190.549 195.991 190.539 195.998 190.529C196.072 190.433 196.142 190.336 196.214 190.24C196.307 190.117 196.4 189.995 196.489 189.871C196.567 189.764 196.64 189.656 196.715 189.549C196.802 189.425 196.891 189.301 196.975 189.177C196.982 189.164 196.992 189.153 196.999 189.141C197.064 189.045 197.123 188.949 197.186 188.852C197.268 188.727 197.351 188.602 197.429 188.476C197.497 188.367 197.562 188.257 197.627 188.148C197.703 188.023 197.78 187.897 197.853 187.771C197.86 187.757 197.869 187.744 197.877 187.73C198.285 187.02 198.647 186.302 198.962 185.579C199.004 185.482 199.042 185.385 199.082 185.289C199.136 185.16 199.191 185.032 199.241 184.903C199.286 184.79 199.326 184.678 199.368 184.565C199.417 184.435 199.467 184.306 199.512 184.176C199.518 184.158 199.525 184.141 199.531 184.124C199.565 184.028 199.594 183.932 199.625 183.836C199.668 183.706 199.712 183.577 199.752 183.447C199.788 183.333 199.818 183.218 199.852 183.103C199.888 182.974 199.927 182.844 199.962 182.714C199.992 182.599 200.019 182.483 200.047 182.368C200.078 182.238 200.112 182.109 200.14 181.979C200.166 181.863 200.188 181.746 200.212 181.629C200.238 181.5 200.265 181.371 200.288 181.242C200.292 181.221 200.296 181.2 200.3 181.179C200.317 181.083 200.329 180.987 200.345 180.89C200.365 180.761 200.387 180.631 200.405 180.501C200.421 180.384 200.433 180.266 200.447 180.149C200.462 180.02 200.479 179.891 200.491 179.761C200.502 179.643 200.51 179.525 200.519 179.407C200.529 179.278 200.54 179.148 200.547 179.018C200.553 178.901 200.556 178.782 200.561 178.664C200.566 178.51 200.573 178.356 200.575 178.203C200.651 170.251 195.461 162.219 184.986 155.994C173.203 148.99 157.24 145.766 141.758 146.388C140.898 146.422 140.039 146.469 139.183 146.527C137.47 146.644 135.767 146.808 134.079 147.02C124.795 148.185 115.981 150.792 108.701 154.855C87.5229 166.676 87.3413 186.351 108.291 198.802C129.241 211.252 163.387 211.761 184.566 199.941C188.867 197.54 192.304 194.815 194.872 191.892H194.875ZM181.161 157.628C181.356 157.673 181.54 157.739 181.696 157.832C182.275 158.176 182.27 158.726 181.684 159.053L171.289 164.855C170.996 165.018 170.611 165.097 170.227 165.091C169.843 165.085 169.46 164.995 169.17 164.824C169.097 164.781 169.034 164.734 168.979 164.685C168.97 164.677 168.965 164.667 168.956 164.659C168.914 164.618 168.874 164.576 168.844 164.532C168.835 164.518 168.831 164.504 168.823 164.49C168.8 164.45 168.777 164.411 168.764 164.37C168.759 164.353 168.759 164.335 168.756 164.319C168.749 164.282 168.739 164.244 168.739 164.208V164.206C168.739 164.206 168.739 164.205 168.739 164.205C168.739 164.182 168.748 164.159 168.752 164.136C168.756 164.104 168.758 164.071 168.769 164.04C168.777 164.018 168.793 163.996 168.804 163.974C168.819 163.944 168.831 163.912 168.853 163.882C168.872 163.856 168.9 163.831 168.924 163.806C168.946 163.782 168.964 163.758 168.99 163.735C169.045 163.688 169.109 163.644 169.182 163.603L179.577 157.801C180.004 157.562 180.629 157.507 181.161 157.628ZM111.96 156.79C112.253 156.627 112.638 156.549 113.022 156.555C113.311 156.559 113.598 156.611 113.846 156.708C113.928 156.741 114.007 156.779 114.079 156.822L124.362 162.933C124.94 163.277 124.936 163.827 124.35 164.154C123.765 164.481 122.81 164.466 122.23 164.123L111.948 158.012C111.659 157.839 111.515 157.616 111.517 157.395C111.517 157.395 111.517 157.394 111.517 157.393C111.517 157.356 111.528 157.319 111.536 157.282C111.54 157.265 111.54 157.246 111.546 157.229C111.559 157.193 111.581 157.158 111.602 157.124C111.613 157.106 111.618 157.088 111.63 157.07C111.656 157.034 111.692 157.002 111.726 156.968C111.741 156.953 111.751 156.937 111.767 156.924C111.823 156.877 111.886 156.832 111.96 156.791L111.96 156.79ZM111.149 196.35C111.149 196.35 111.149 196.348 111.149 196.347C111.149 196.32 111.159 196.292 111.164 196.265C111.169 196.237 111.169 196.21 111.179 196.183C111.188 196.158 111.205 196.134 111.218 196.109C111.232 196.08 111.243 196.051 111.262 196.025C111.28 196 111.306 195.977 111.329 195.953C111.349 195.931 111.366 195.909 111.39 195.888C111.394 195.885 111.396 195.88 111.4 195.877C111.455 195.83 111.519 195.786 111.592 195.745L121.987 189.943C122.279 189.78 122.664 189.702 123.048 189.708C123.432 189.713 123.816 189.803 124.106 189.976C124.685 190.32 124.68 190.87 124.094 191.197L113.699 196.999C113.334 197.203 112.823 197.274 112.35 197.214C112.067 197.178 111.797 197.096 111.58 196.967C111.435 196.881 111.326 196.781 111.255 196.676C111.25 196.669 111.249 196.661 111.244 196.654C111.215 196.608 111.19 196.561 111.175 196.514C111.169 196.497 111.17 196.479 111.167 196.461C111.159 196.424 111.149 196.387 111.149 196.35ZM148.186 178.319C147.812 178.528 147.334 178.642 146.844 178.662C146.681 178.669 146.516 178.665 146.353 178.651C146.282 178.678 146.205 178.701 146.125 178.721L111.552 186.912C111.479 186.929 111.405 186.943 111.33 186.953C111.181 186.974 111.029 186.98 110.88 186.974C110.687 186.967 110.499 186.935 110.325 186.888C110.164 186.843 110.013 186.784 109.886 186.709C109.76 186.634 109.654 186.544 109.579 186.443C109.537 186.386 109.506 186.328 109.485 186.27C109.479 186.252 109.479 186.234 109.475 186.216C109.465 186.176 109.456 186.136 109.455 186.097C109.455 186.047 109.463 185.998 109.477 185.95C109.48 185.938 109.486 185.928 109.49 185.916C109.504 185.878 109.523 185.841 109.546 185.804C109.554 185.791 109.563 185.777 109.573 185.764C109.601 185.724 109.635 185.686 109.674 185.65C109.68 185.644 109.684 185.637 109.691 185.632C109.737 185.591 109.791 185.553 109.849 185.517C109.865 185.507 109.883 185.497 109.901 185.488C109.947 185.462 109.998 185.438 110.051 185.416C110.072 185.406 110.093 185.398 110.115 185.39C110.19 185.362 110.268 185.336 110.353 185.316L144.454 177.235C144.464 177.183 144.48 177.13 144.502 177.078C144.567 176.922 144.684 176.772 144.852 176.639L136.668 165.554L135.931 164.557C135.601 164.118 135.95 163.611 136.706 163.43C137.293 163.292 137.953 163.387 138.377 163.638C138.503 163.713 138.607 163.802 138.684 163.902L147.897 176.377C148.005 176.421 148.107 176.472 148.203 176.528C149.053 177.033 149.05 177.839 148.186 178.321V178.319ZM181.316 198.008C181.024 198.171 180.638 198.25 180.254 198.244C179.871 198.238 179.487 198.148 179.197 197.977L168.915 191.866C168.335 191.521 168.341 190.971 168.926 190.644C169.073 190.562 169.242 190.502 169.423 190.463C169.604 190.424 169.797 190.406 169.989 190.409C170.373 190.414 170.757 190.504 171.046 190.676L181.329 196.787C181.908 197.132 181.903 197.682 181.317 198.009L181.316 198.008Z" fill="white"/>
<path d="M145.074 178.273C144.651 178.022 144.441 177.696 144.442 177.372C144.442 177.326 144.447 177.279 144.455 177.233L110.355 185.314C110.269 185.334 110.189 185.36 110.115 185.388C110.095 185.395 110.075 185.404 110.056 185.411C110.001 185.434 109.948 185.459 109.9 185.486C109.884 185.495 109.867 185.504 109.852 185.513C109.793 185.55 109.739 185.588 109.692 185.629C109.687 185.635 109.682 185.64 109.678 185.645C109.638 185.682 109.604 185.721 109.575 185.761C109.565 185.774 109.557 185.787 109.548 185.801C109.525 185.837 109.506 185.876 109.492 185.914C109.488 185.925 109.483 185.935 109.479 185.946C109.464 185.994 109.457 186.044 109.458 186.094C109.458 186.131 109.468 186.168 109.476 186.205C109.481 186.225 109.481 186.246 109.488 186.268C109.509 186.326 109.54 186.383 109.582 186.44C109.657 186.541 109.762 186.631 109.889 186.706C110.016 186.782 110.167 186.841 110.329 186.885C110.502 186.933 110.69 186.964 110.883 186.972C111.033 186.978 111.184 186.972 111.333 186.951C111.408 186.94 111.482 186.926 111.555 186.91L146.128 178.719C146.209 178.699 146.285 178.676 146.356 178.649C145.887 178.608 145.433 178.482 145.077 178.271L145.074 178.273Z" fill="black"/>
<path d="M98.0331 204.529C97.6169 204.282 97.2076 204.032 96.8052 203.781C96.6497 203.683 96.4997 203.585 96.3466 203.487C96.1019 203.331 95.8557 203.176 95.6156 203.018C95.4402 202.903 95.2709 202.786 95.0986 202.67C94.8878 202.529 94.6739 202.388 94.4669 202.245C94.2838 202.119 94.1068 201.99 93.9268 201.862C93.7367 201.728 93.5436 201.594 93.3566 201.458C93.1743 201.326 92.9981 201.191 92.8188 201.058C92.6411 200.926 92.4603 200.794 92.2864 200.661C92.1071 200.524 91.934 200.385 91.7585 200.247C91.5908 200.115 91.4192 199.984 91.2546 199.851C91.0861 199.716 90.9237 199.578 90.7583 199.441C90.7568 199.44 90.7545 199.438 90.7529 199.436C90.589 199.301 90.4228 199.166 90.262 199.03C90.0981 198.891 89.9396 198.749 89.7788 198.609C89.6226 198.473 89.4634 198.337 89.3095 198.2C89.1495 198.057 88.9956 197.911 88.8394 197.768C88.6917 197.631 88.5416 197.497 88.397 197.36C88.2431 197.214 88.0954 197.067 87.9446 196.92C87.8037 196.783 87.6606 196.647 87.5229 196.509C87.3767 196.363 87.2359 196.215 87.0936 196.068C86.9589 195.929 86.8212 195.79 86.6889 195.65C86.5496 195.502 86.4157 195.353 86.2795 195.204C86.151 195.063 86.0195 194.923 85.8941 194.782C85.7609 194.632 85.634 194.481 85.504 194.33C85.3824 194.189 85.2577 194.048 85.1385 193.905C85.0123 193.755 84.893 193.603 84.7707 193.452C84.6545 193.309 84.536 193.165 84.4222 193.021C84.3044 192.87 84.1921 192.719 84.0775 192.568C83.9667 192.422 83.8536 192.276 83.7458 192.129C83.6343 191.977 83.5281 191.824 83.4204 191.672C83.3165 191.525 83.2103 191.379 83.1095 191.232C83.0041 191.078 82.9049 190.923 82.8033 190.77C82.7056 190.622 82.6063 190.475 82.5117 190.327C82.414 190.173 82.3209 190.017 82.2262 189.863C82.1347 189.714 82.0416 189.565 81.9531 189.416C81.8623 189.261 81.7761 189.106 81.6884 188.951C81.603 188.801 81.5161 188.65 81.4345 188.499C81.3507 188.345 81.2714 188.189 81.1906 188.033C81.1114 187.881 81.0306 187.729 80.9544 187.577C80.8775 187.422 80.8051 187.266 80.732 187.111C80.6589 186.957 80.5843 186.804 80.5143 186.65C80.4443 186.495 80.3789 186.339 80.3119 186.183C80.2458 186.029 80.1773 185.875 80.1142 185.72C80.0503 185.564 79.9919 185.408 79.9311 185.251C79.8711 185.096 79.8095 184.941 79.7526 184.786C79.6956 184.63 79.6441 184.473 79.5902 184.318C79.5364 184.161 79.481 184.005 79.4302 183.848C79.3802 183.692 79.3348 183.536 79.2878 183.38C79.2409 183.222 79.1917 183.065 79.1478 182.908C79.104 182.751 79.0655 182.594 79.0247 182.437C78.9839 182.28 78.9416 182.123 78.9047 181.965C78.8677 181.808 78.8354 181.651 78.8016 181.494C78.7677 181.336 78.7323 181.178 78.7015 181.021C78.6708 180.864 78.6454 180.707 78.6185 180.55C78.5908 180.392 78.5615 180.233 78.5377 180.074C78.5138 179.918 78.4946 179.762 78.4746 179.606C78.4538 179.446 78.4307 179.286 78.413 179.127C78.3953 178.971 78.383 178.814 78.3692 178.658C78.3545 178.498 78.3392 178.339 78.3276 178.179C78.3168 178.023 78.3107 177.866 78.303 177.71C78.2953 177.55 78.2861 177.39 78.2814 177.23C78.2768 177.075 78.2776 176.918 78.2761 176.763C78.2745 176.602 78.2722 176.442 78.2745 176.281C78.2745 176.249 78.2738 176.217 78.2745 176.185L78.0037 191.386C77.8213 201.529 84.3991 211.79 97.76 219.73L98.0331 204.529Z" fill="#17B5DD"/>
</g>
</g>
</g>
<g clip-path="url(#clip3_2547_2162)">
<path d="M303.071 187.006L306.301 180.645L281.067 164.276L240.047 220.827L239.749 221.246L394.46 204.937L356.246 183.218L303.071 187.006Z" fill="#070707"/>
<path opacity="0.6" d="M316.083 181.3L351.502 179.206L293.494 146.039L283.627 160.45L316.083 181.3Z" fill="#21B1FE"/>
</g>
<defs>
<linearGradient id="paint0_linear_2547_2162" x1="286.12" y1="270.36" x2="190.21" y2="244.19" gradientUnits="userSpaceOnUse">
<stop stop-color="#F3F4FB"/>
<stop offset="1" stop-color="#DBDBDB"/>
</linearGradient>
<linearGradient id="paint1_linear_2547_2162" x1="133.03" y1="200.59" x2="464.12" y2="200.59" gradientUnits="userSpaceOnUse">
<stop stop-color="white"/>
<stop offset="1" stop-color="#E8E9EE"/>
</linearGradient>
<linearGradient id="paint2_linear_2547_2162" x1="133.06" y1="245.81" x2="464.14" y2="245.81" gradientUnits="userSpaceOnUse">
<stop stop-color="#F3F4FB"/>
<stop offset="1" stop-color="#FEFEFE"/>
</linearGradient>
<linearGradient id="paint3_linear_2547_2162" x1="445.44" y1="281.58" x2="307.84" y2="225.03" gradientUnits="userSpaceOnUse">
<stop stop-color="#F3F4FB"/>
<stop offset="1" stop-color="#DCDDDE"/>
</linearGradient>
<clipPath id="clip0_2547_2162">
<rect width="600" height="410" rx="20" fill="white"/>
</clipPath>
<clipPath id="clip1_2547_2162">
<rect width="1299.5" height="748.76" fill="white" transform="translate(-350 -169)"/>
</clipPath>
<clipPath id="clip2_2547_2162">
<rect width="137" height="94" fill="white" transform="translate(78 138)"/>
</clipPath>
<clipPath id="clip3_2547_2162">
<rect width="153.517" height="78.1715" fill="white" transform="translate(244.243 143.203) rotate(3.29579)"/>
</clipPath>
</defs>
</svg>
