<svg width="223" height="49" viewBox="0 0 223 49" fill="none" xmlns="http://www.w3.org/2000/svg">
<g clip-path="url(#clip0_2541_1862)">
<mask id="mask0_2541_1862" style="mask-type:alpha" maskUnits="userSpaceOnUse" x="16" y="12" width="25" height="25">
<rect x="16.3154" y="12.666" width="24" height="24" fill="#D9D9D9"/>
</mask>
<g mask="url(#mask0_2541_1862)">
<path d="M19.3154 31.166L19.3154 29.166H21.3154V31.166H19.3154ZM19.3154 27.666V25.666H21.3154V27.666H19.3154ZM19.3154 24.166V22.166H21.3154V24.166H19.3154ZM22.8154 34.666L22.8154 32.666H24.8154V34.666H22.8154ZM25.3154 30.666C24.7654 30.666 24.2946 30.4702 23.9029 30.0785C23.5113 29.6868 23.3154 29.216 23.3154 28.666V16.666C23.3154 16.116 23.5113 15.6452 23.9029 15.2535C24.2946 14.8618 24.7654 14.666 25.3154 14.666H34.3154C34.8654 14.666 35.3363 14.8618 35.7279 15.2535C36.1196 15.6452 36.3154 16.116 36.3154 16.666V28.666C36.3154 29.216 36.1196 29.6868 35.7279 30.0785C35.3363 30.4702 34.8654 30.666 34.3154 30.666H25.3154ZM25.3154 28.666H34.3154V16.666H25.3154V28.666ZM26.3154 34.666V32.666H28.3154V34.666H26.3154ZM21.3154 34.666C20.7654 34.666 20.2946 34.4702 19.9029 34.0785C19.5113 33.6868 19.3154 33.216 19.3154 32.666H21.3154L21.3154 34.666ZM29.8154 34.666V32.666H31.8154C31.8154 33.216 31.6196 33.6868 31.2279 34.0785C30.8363 34.4702 30.3654 34.666 29.8154 34.666ZM19.3154 20.666C19.3154 20.116 19.5113 19.6452 19.9029 19.2535C20.2946 18.8618 20.7654 18.666 21.3154 18.666V20.666H19.3154Z" fill="white"/>
<path d="M19.3154 31.166L19.3154 29.166H21.3154V31.166H19.3154ZM19.3154 27.666V25.666H21.3154V27.666H19.3154ZM19.3154 24.166V22.166H21.3154V24.166H19.3154ZM22.8154 34.666L22.8154 32.666H24.8154V34.666H22.8154ZM25.3154 30.666C24.7654 30.666 24.2946 30.4702 23.9029 30.0785C23.5113 29.6868 23.3154 29.216 23.3154 28.666V16.666C23.3154 16.116 23.5113 15.6452 23.9029 15.2535C24.2946 14.8618 24.7654 14.666 25.3154 14.666H34.3154C34.8654 14.666 35.3363 14.8618 35.7279 15.2535C36.1196 15.6452 36.3154 16.116 36.3154 16.666V28.666C36.3154 29.216 36.1196 29.6868 35.7279 30.0785C35.3363 30.4702 34.8654 30.666 34.3154 30.666H25.3154ZM25.3154 28.666H34.3154V16.666H25.3154V28.666ZM26.3154 34.666V32.666H28.3154V34.666H26.3154ZM21.3154 34.666C20.7654 34.666 20.2946 34.4702 19.9029 34.0785C19.5113 33.6868 19.3154 33.216 19.3154 32.666H21.3154L21.3154 34.666ZM29.8154 34.666V32.666H31.8154C31.8154 33.216 31.6196 33.6868 31.2279 34.0785C30.8363 34.4702 30.3654 34.666 29.8154 34.666ZM19.3154 20.666C19.3154 20.116 19.5113 19.6452 19.9029 19.2535C20.2946 18.8618 20.7654 18.666 21.3154 18.666V20.666H19.3154Z" fill="#3D3D4F"/>
</g>
<path d="M49.4772 30.666V19.0297H53.8409C54.7348 19.0297 55.4848 19.1963 56.0909 19.5297C56.7007 19.863 57.1609 20.3213 57.4715 20.9047C57.7859 21.4842 57.9431 22.1433 57.9431 22.8819C57.9431 23.6281 57.7859 24.291 57.4715 24.8706C57.1571 25.4501 56.6931 25.9065 56.0795 26.2399C55.4659 26.5694 54.7102 26.7342 53.8124 26.7342H50.9204V25.0012H53.5284C54.0511 25.0012 54.4791 24.9103 54.8124 24.7285C55.1458 24.5467 55.392 24.2967 55.5511 23.9785C55.714 23.6603 55.7954 23.2948 55.7954 22.8819C55.7954 22.469 55.714 22.1054 55.5511 21.791C55.392 21.4766 55.1439 21.2323 54.8068 21.0581C54.4734 20.88 54.0435 20.791 53.517 20.791H51.5852V30.666H49.4772ZM59.7832 30.666V21.9387H61.7775V23.3933H61.8684C62.0275 22.8895 62.3002 22.5012 62.6866 22.2285C63.0767 21.952 63.5218 21.8137 64.0218 21.8137C64.1355 21.8137 64.2624 21.8194 64.4025 21.8308C64.5464 21.8384 64.6658 21.8516 64.7605 21.8706V23.7626C64.6733 23.7323 64.5351 23.7058 64.3457 23.6831C64.1601 23.6565 63.9802 23.6433 63.8059 23.6433C63.4309 23.6433 63.0938 23.7247 62.7945 23.8876C62.4991 24.0467 62.2661 24.2683 62.0957 24.5524C61.9252 24.8365 61.84 25.1641 61.84 25.5353V30.666H59.7832ZM69.6744 30.8365C68.8221 30.8365 68.0835 30.649 67.4585 30.274C66.8335 29.899 66.3486 29.3743 66.0039 28.7001C65.663 28.0259 65.4926 27.238 65.4926 26.3365C65.4926 25.435 65.663 24.6452 66.0039 23.9672C66.3486 23.2891 66.8335 22.7626 67.4585 22.3876C68.0835 22.0126 68.8221 21.8251 69.6744 21.8251C70.5267 21.8251 71.2653 22.0126 71.8903 22.3876C72.5153 22.7626 72.9982 23.2891 73.3392 23.9672C73.6838 24.6452 73.8562 25.435 73.8562 26.3365C73.8562 27.238 73.6838 28.0259 73.3392 28.7001C72.9982 29.3743 72.5153 29.899 71.8903 30.274C71.2653 30.649 70.5267 30.8365 69.6744 30.8365ZM69.6857 29.1887C70.1479 29.1887 70.5342 29.0618 70.8448 28.8081C71.1554 28.5505 71.3865 28.2058 71.538 27.774C71.6933 27.3422 71.771 26.8611 71.771 26.3308C71.771 25.7967 71.6933 25.3137 71.538 24.8819C71.3865 24.4463 71.1554 24.0997 70.8448 23.8422C70.5342 23.5846 70.1479 23.4558 69.6857 23.4558C69.2123 23.4558 68.8183 23.5846 68.5039 23.8422C68.1933 24.0997 67.9604 24.4463 67.8051 24.8819C67.6535 25.3137 67.5778 25.7967 67.5778 26.3308C67.5778 26.8611 67.6535 27.3422 67.8051 27.774C67.9604 28.2058 68.1933 28.5505 68.5039 28.8081C68.8183 29.0618 69.2123 29.1887 69.6857 29.1887ZM78.9406 30.8194C78.255 30.8194 77.6413 30.6433 77.0997 30.291C76.558 29.9387 76.13 29.4274 75.8156 28.7569C75.5012 28.0865 75.344 27.2721 75.344 26.3137C75.344 25.344 75.5031 24.5259 75.8213 23.8592C76.1432 23.1887 76.5769 22.6831 77.1224 22.3422C77.6678 21.9975 78.2758 21.8251 78.9463 21.8251C79.4576 21.8251 79.8781 21.9122 80.2076 22.0865C80.5372 22.2569 80.7985 22.4634 80.9917 22.7058C81.1849 22.9444 81.3345 23.1698 81.4406 23.3819H81.5258V19.0297H83.5883V30.666H81.5656V29.291H81.4406C81.3345 29.5031 81.1811 29.7285 80.9803 29.9672C80.7796 30.202 80.5144 30.4028 80.1849 30.5694C79.8553 30.7361 79.4406 30.8194 78.9406 30.8194ZM79.5144 29.1319C79.95 29.1319 80.3213 29.0145 80.6281 28.7797C80.9349 28.541 81.1678 28.2096 81.3269 27.7853C81.486 27.3611 81.5656 26.8668 81.5656 26.3024C81.5656 25.738 81.486 25.2475 81.3269 24.8308C81.1716 24.4141 80.9406 24.0903 80.6338 23.8592C80.3307 23.6281 79.9576 23.5126 79.5144 23.5126C79.0561 23.5126 78.6735 23.6319 78.3667 23.8706C78.0599 24.1092 77.8288 24.4387 77.6735 24.8592C77.5182 25.2797 77.4406 25.7607 77.4406 26.3024C77.4406 26.8478 77.5182 27.3346 77.6735 27.7626C77.8326 28.1868 78.0656 28.5221 78.3724 28.7683C78.683 29.0107 79.0637 29.1319 79.5144 29.1319ZM91.4426 26.9956V21.9387H93.4994V30.666H91.5051V29.1149H91.4142C91.2172 29.6035 90.8933 30.0031 90.4426 30.3137C89.9956 30.6243 89.4445 30.7797 88.7892 30.7797C88.2172 30.7797 87.7115 30.6528 87.2721 30.399C86.8365 30.1414 86.4956 29.7683 86.2494 29.2797C86.0032 28.7872 85.8801 28.1925 85.8801 27.4956V21.9387H87.9369V27.1774C87.9369 27.7304 88.0884 28.1698 88.3914 28.4956C88.6945 28.8213 89.0922 28.9842 89.5846 28.9842C89.8876 28.9842 90.1812 28.9103 90.4653 28.7626C90.7494 28.6149 90.9823 28.3952 91.1642 28.1035C91.3498 27.8081 91.4426 27.4387 91.4426 26.9956ZM99.5213 30.8365C98.65 30.8365 97.9019 30.6452 97.2769 30.2626C96.6557 29.88 96.1766 29.3516 95.8394 28.6774C95.5061 27.9993 95.3394 27.219 95.3394 26.3365C95.3394 25.4501 95.5099 24.6679 95.8508 23.9899C96.1917 23.3081 96.6728 22.7778 97.294 22.399C97.919 22.0164 98.6576 21.8251 99.5099 21.8251C100.218 21.8251 100.845 21.9558 101.391 22.2172C101.94 22.4747 102.377 22.8403 102.703 23.3137C103.029 23.7834 103.214 24.3327 103.26 24.9615H101.294C101.214 24.541 101.025 24.1906 100.726 23.9103C100.43 23.6262 100.035 23.4842 99.5383 23.4842C99.1178 23.4842 98.7485 23.5978 98.4303 23.8251C98.1122 24.0486 97.8641 24.3706 97.686 24.791C97.5118 25.2115 97.4247 25.7153 97.4247 26.3024C97.4247 26.8971 97.5118 27.4084 97.686 27.8365C97.8603 28.2607 98.1046 28.5884 98.419 28.8194C98.7372 29.0467 99.1103 29.1603 99.5383 29.1603C99.8413 29.1603 100.112 29.1035 100.351 28.9899C100.593 28.8725 100.796 28.7039 100.959 28.4842C101.122 28.2645 101.233 27.9975 101.294 27.6831H103.26C103.211 28.3005 103.029 28.8478 102.714 29.3251C102.4 29.7986 101.972 30.1698 101.43 30.4387C100.889 30.7039 100.252 30.8365 99.5213 30.8365ZM109.407 21.9387V23.5297H104.39V21.9387H109.407ZM105.628 19.8478H107.685V28.041C107.685 28.3175 107.727 28.5297 107.81 28.6774C107.897 28.8213 108.011 28.9198 108.151 28.9728C108.291 29.0259 108.447 29.0524 108.617 29.0524C108.746 29.0524 108.863 29.0429 108.969 29.024C109.079 29.005 109.162 28.988 109.219 28.9728L109.566 30.5808C109.456 30.6187 109.299 30.6603 109.094 30.7058C108.894 30.7512 108.647 30.7778 108.356 30.7853C107.84 30.8005 107.376 30.7228 106.964 30.5524C106.551 30.3781 106.223 30.1092 105.981 29.7456C105.742 29.3819 105.625 28.9274 105.628 28.3819V19.8478ZM118.534 30.8194C117.849 30.8194 117.235 30.6433 116.693 30.291C116.152 29.9387 115.724 29.4274 115.409 28.7569C115.095 28.0865 114.938 27.2721 114.938 26.3137C114.938 25.344 115.097 24.5259 115.415 23.8592C115.737 23.1887 116.171 22.6831 116.716 22.3422C117.262 21.9975 117.87 21.8251 118.54 21.8251C119.051 21.8251 119.472 21.9122 119.801 22.0865C120.131 22.2569 120.392 22.4634 120.585 22.7058C120.779 22.9444 120.928 23.1698 121.034 23.3819H121.12V19.0297H123.182V30.666H121.159V29.291H121.034C120.928 29.5031 120.775 29.7285 120.574 29.9672C120.373 30.202 120.108 30.4028 119.779 30.5694C119.449 30.7361 119.034 30.8194 118.534 30.8194ZM119.108 29.1319C119.544 29.1319 119.915 29.0145 120.222 28.7797C120.529 28.541 120.762 28.2096 120.921 27.7853C121.08 27.3611 121.159 26.8668 121.159 26.3024C121.159 25.738 121.08 25.2475 120.921 24.8308C120.765 24.4141 120.534 24.0903 120.228 23.8592C119.924 23.6281 119.551 23.5126 119.108 23.5126C118.65 23.5126 118.267 23.6319 117.96 23.8706C117.654 24.1092 117.423 24.4387 117.267 24.8592C117.112 25.2797 117.034 25.7607 117.034 26.3024C117.034 26.8478 117.112 27.3346 117.267 27.7626C117.426 28.1868 117.659 28.5221 117.966 28.7683C118.277 29.0107 118.657 29.1319 119.108 29.1319ZM131.036 26.9956V21.9387H133.093V30.666H131.099V29.1149H131.008C130.811 29.6035 130.487 30.0031 130.036 30.3137C129.589 30.6243 129.038 30.7797 128.383 30.7797C127.811 30.7797 127.305 30.6528 126.866 30.399C126.43 30.1414 126.089 29.7683 125.843 29.2797C125.597 28.7872 125.474 28.1925 125.474 27.4956V21.9387H127.531V27.1774C127.531 27.7304 127.682 28.1698 127.985 28.4956C128.288 28.8213 128.686 28.9842 129.178 28.9842C129.481 28.9842 129.775 28.9103 130.059 28.7626C130.343 28.6149 130.576 28.3952 130.758 28.1035C130.944 27.8081 131.036 27.4387 131.036 26.9956ZM135.308 33.9387V21.9387H137.331V23.3819H137.45C137.556 23.1698 137.706 22.9444 137.899 22.7058C138.092 22.4634 138.354 22.2569 138.683 22.0865C139.013 21.9122 139.433 21.8251 139.945 21.8251C140.619 21.8251 141.227 21.9975 141.768 22.3422C142.314 22.6831 142.746 23.1887 143.064 23.8592C143.386 24.5259 143.547 25.344 143.547 26.3137C143.547 27.2721 143.39 28.0865 143.075 28.7569C142.761 29.4274 142.333 29.9387 141.791 30.291C141.249 30.6433 140.636 30.8194 139.95 30.8194C139.45 30.8194 139.035 30.7361 138.706 30.5694C138.376 30.4028 138.111 30.202 137.91 29.9672C137.713 29.7285 137.56 29.5031 137.45 29.291H137.365V33.9387H135.308ZM137.325 26.3024C137.325 26.8668 137.405 27.3611 137.564 27.7853C137.727 28.2096 137.96 28.541 138.263 28.7797C138.57 29.0145 138.941 29.1319 139.376 29.1319C139.831 29.1319 140.212 29.0107 140.518 28.7683C140.825 28.5221 141.056 28.1868 141.212 27.7626C141.371 27.3346 141.45 26.8478 141.45 26.3024C141.45 25.7607 141.373 25.2797 141.217 24.8592C141.062 24.4387 140.831 24.1092 140.524 23.8706C140.217 23.6319 139.835 23.5126 139.376 23.5126C138.937 23.5126 138.564 23.6281 138.257 23.8592C137.95 24.0903 137.717 24.4141 137.558 24.8308C137.403 25.2475 137.325 25.738 137.325 26.3024ZM147.465 19.0297V30.666H145.408V19.0297H147.465ZM149.68 30.666V21.9387H151.737V30.666H149.68ZM150.714 20.7001C150.388 20.7001 150.108 20.5922 149.873 20.3762C149.638 20.1565 149.521 19.8933 149.521 19.5865C149.521 19.2759 149.638 19.0126 149.873 18.7967C150.108 18.577 150.388 18.4672 150.714 18.4672C151.044 18.4672 151.324 18.577 151.555 18.7967C151.79 19.0126 151.907 19.2759 151.907 19.5865C151.907 19.8933 151.79 20.1565 151.555 20.3762C151.324 20.5922 151.044 20.7001 150.714 20.7001ZM157.759 30.8365C156.888 30.8365 156.139 30.6452 155.514 30.2626C154.893 29.88 154.414 29.3516 154.077 28.6774C153.744 27.9993 153.577 27.219 153.577 26.3365C153.577 25.4501 153.747 24.6679 154.088 23.9899C154.429 23.3081 154.91 22.7778 155.531 22.399C156.156 22.0164 156.895 21.8251 157.747 21.8251C158.456 21.8251 159.083 21.9558 159.628 22.2172C160.177 22.4747 160.615 22.8403 160.941 23.3137C161.266 23.7834 161.452 24.3327 161.497 24.9615H159.531C159.452 24.541 159.263 24.1906 158.963 23.9103C158.668 23.6262 158.272 23.4842 157.776 23.4842C157.355 23.4842 156.986 23.5978 156.668 23.8251C156.35 24.0486 156.102 24.3706 155.924 24.791C155.749 25.2115 155.662 25.7153 155.662 26.3024C155.662 26.8971 155.749 27.4084 155.924 27.8365C156.098 28.2607 156.342 28.5884 156.656 28.8194C156.975 29.0467 157.348 29.1603 157.776 29.1603C158.079 29.1603 158.35 29.1035 158.588 28.9899C158.831 28.8725 159.033 28.7039 159.196 28.4842C159.359 28.2645 159.471 27.9975 159.531 27.6831H161.497C161.448 28.3005 161.266 28.8478 160.952 29.3251C160.638 29.7986 160.21 30.1698 159.668 30.4387C159.126 30.7039 158.49 30.8365 157.759 30.8365ZM165.798 30.8422C165.245 30.8422 164.747 30.7437 164.303 30.5467C163.864 30.3459 163.515 30.0505 163.258 29.6603C163.004 29.2702 162.877 28.7891 162.877 28.2172C162.877 27.7247 162.968 27.3175 163.15 26.9956C163.332 26.6736 163.58 26.416 163.894 26.2228C164.209 26.0297 164.563 25.8838 164.957 25.7853C165.354 25.6831 165.765 25.6092 166.19 25.5637C166.701 25.5107 167.116 25.4634 167.434 25.4217C167.752 25.3762 167.983 25.3081 168.127 25.2172C168.275 25.1225 168.349 24.9766 168.349 24.7797V24.7456C168.349 24.3175 168.222 23.9861 167.968 23.7512C167.714 23.5164 167.349 23.399 166.872 23.399C166.368 23.399 165.968 23.5088 165.673 23.7285C165.381 23.9482 165.184 24.2077 165.082 24.5069L163.161 24.2342C163.313 23.7039 163.563 23.2607 163.911 22.9047C164.26 22.5448 164.686 22.2759 165.19 22.0978C165.694 21.916 166.25 21.8251 166.86 21.8251C167.281 21.8251 167.699 21.8743 168.116 21.9728C168.533 22.0713 168.913 22.2342 169.258 22.4615C169.603 22.685 169.879 22.9899 170.087 23.3762C170.3 23.7626 170.406 24.2456 170.406 24.8251V30.666H168.428V29.4672H168.36C168.235 29.7096 168.059 29.9368 167.832 30.149C167.608 30.3573 167.326 30.5259 166.985 30.6547C166.648 30.7797 166.252 30.8422 165.798 30.8422ZM166.332 29.3308C166.745 29.3308 167.103 29.2493 167.406 29.0865C167.709 28.9198 167.942 28.7001 168.104 28.4274C168.271 28.1547 168.354 27.8573 168.354 27.5353V26.5069C168.29 26.56 168.18 26.6092 168.025 26.6547C167.873 26.7001 167.703 26.7399 167.514 26.774C167.324 26.8081 167.137 26.8384 166.951 26.8649C166.765 26.8914 166.604 26.9141 166.468 26.9331C166.161 26.9747 165.887 27.0429 165.644 27.1376C165.402 27.2323 165.211 27.3649 165.07 27.5353C164.93 27.702 164.86 27.9179 164.86 28.1831C164.86 28.5618 164.998 28.8478 165.275 29.041C165.551 29.2342 165.904 29.3308 166.332 29.3308ZM176.932 21.9387V23.5297H171.915V21.9387H176.932ZM173.153 19.8478H175.21V28.041C175.21 28.3175 175.252 28.5297 175.335 28.6774C175.422 28.8213 175.536 28.9198 175.676 28.9728C175.816 29.0259 175.972 29.0524 176.142 29.0524C176.271 29.0524 176.388 29.0429 176.494 29.024C176.604 29.005 176.687 28.988 176.744 28.9728L177.091 30.5808C176.981 30.6187 176.824 30.6603 176.619 30.7058C176.419 30.7512 176.172 30.7778 175.881 30.7853C175.365 30.8005 174.901 30.7228 174.489 30.5524C174.076 30.3781 173.748 30.1092 173.506 29.7456C173.267 29.3819 173.15 28.9274 173.153 28.3819V19.8478ZM182.522 30.8365C181.647 30.8365 180.891 30.6547 180.255 30.291C179.622 29.9236 179.135 29.4047 178.795 28.7342C178.454 28.06 178.283 27.2664 178.283 26.3535C178.283 25.4558 178.454 24.6679 178.795 23.9899C179.139 23.3081 179.62 22.7778 180.238 22.399C180.855 22.0164 181.581 21.8251 182.414 21.8251C182.952 21.8251 183.459 21.9122 183.937 22.0865C184.418 22.2569 184.842 22.5221 185.209 22.8819C185.581 23.2418 185.872 23.7001 186.084 24.2569C186.296 24.81 186.403 25.469 186.403 26.2342V26.8649H179.249V25.4785H184.431C184.427 25.0846 184.342 24.7342 184.175 24.4274C184.009 24.1168 183.776 23.8725 183.476 23.6944C183.181 23.5164 182.836 23.4274 182.442 23.4274C182.022 23.4274 181.653 23.5297 181.334 23.7342C181.016 23.935 180.768 24.2001 180.59 24.5297C180.416 24.8554 180.327 25.2134 180.323 25.6035V26.8137C180.323 27.3213 180.416 27.7569 180.601 28.1206C180.787 28.4804 181.046 28.7569 181.38 28.9501C181.713 29.1395 182.103 29.2342 182.55 29.2342C182.849 29.2342 183.12 29.1925 183.363 29.1092C183.605 29.0221 183.815 28.8952 183.993 28.7285C184.171 28.5618 184.306 28.3554 184.397 28.1092L186.317 28.3251C186.196 28.8327 185.965 29.2759 185.624 29.6547C185.287 30.0297 184.855 30.3213 184.329 30.5297C183.802 30.7342 183.2 30.8365 182.522 30.8365ZM191.481 30.8194C190.796 30.8194 190.182 30.6433 189.64 30.291C189.099 29.9387 188.671 29.4274 188.356 28.7569C188.042 28.0865 187.885 27.2721 187.885 26.3137C187.885 25.344 188.044 24.5259 188.362 23.8592C188.684 23.1887 189.118 22.6831 189.663 22.3422C190.208 21.9975 190.816 21.8251 191.487 21.8251C191.998 21.8251 192.419 21.9122 192.748 22.0865C193.078 22.2569 193.339 22.4634 193.532 22.7058C193.726 22.9444 193.875 23.1698 193.981 23.3819H194.066V19.0297H196.129V30.666H194.106V29.291H193.981C193.875 29.5031 193.722 29.7285 193.521 29.9672C193.32 30.202 193.055 30.4028 192.726 30.5694C192.396 30.7361 191.981 30.8194 191.481 30.8194ZM192.055 29.1319C192.491 29.1319 192.862 29.0145 193.169 28.7797C193.476 28.541 193.708 28.2096 193.868 27.7853C194.027 27.3611 194.106 26.8668 194.106 26.3024C194.106 25.738 194.027 25.2475 193.868 24.8308C193.712 24.4141 193.481 24.0903 193.174 23.8592C192.871 23.6281 192.498 23.5126 192.055 23.5126C191.597 23.5126 191.214 23.6319 190.907 23.8706C190.601 24.1092 190.369 24.4387 190.214 24.8592C190.059 25.2797 189.981 25.7607 189.981 26.3024C189.981 26.8478 190.059 27.3346 190.214 27.7626C190.373 28.1868 190.606 28.5221 190.913 28.7683C191.224 29.0107 191.604 29.1319 192.055 29.1319ZM200.938 19.0297L200.75 27.2456H198.921L198.739 19.0297H200.938ZM199.835 30.791C199.491 30.791 199.195 30.6698 198.949 30.4274C198.707 30.185 198.585 29.8895 198.585 29.541C198.585 29.2001 198.707 28.9084 198.949 28.666C199.195 28.4236 199.491 28.3024 199.835 28.3024C200.173 28.3024 200.464 28.4236 200.71 28.666C200.96 28.9084 201.085 29.2001 201.085 29.541C201.085 29.7721 201.027 29.9823 200.909 30.1717C200.796 30.3611 200.644 30.5126 200.455 30.6262C200.269 30.7361 200.063 30.791 199.835 30.791Z" fill="white"/>
<path d="M49.4772 30.666V19.0297H53.8409C54.7348 19.0297 55.4848 19.1963 56.0909 19.5297C56.7007 19.863 57.1609 20.3213 57.4715 20.9047C57.7859 21.4842 57.9431 22.1433 57.9431 22.8819C57.9431 23.6281 57.7859 24.291 57.4715 24.8706C57.1571 25.4501 56.6931 25.9065 56.0795 26.2399C55.4659 26.5694 54.7102 26.7342 53.8124 26.7342H50.9204V25.0012H53.5284C54.0511 25.0012 54.4791 24.9103 54.8124 24.7285C55.1458 24.5467 55.392 24.2967 55.5511 23.9785C55.714 23.6603 55.7954 23.2948 55.7954 22.8819C55.7954 22.469 55.714 22.1054 55.5511 21.791C55.392 21.4766 55.1439 21.2323 54.8068 21.0581C54.4734 20.88 54.0435 20.791 53.517 20.791H51.5852V30.666H49.4772ZM59.7832 30.666V21.9387H61.7775V23.3933H61.8684C62.0275 22.8895 62.3002 22.5012 62.6866 22.2285C63.0767 21.952 63.5218 21.8137 64.0218 21.8137C64.1355 21.8137 64.2624 21.8194 64.4025 21.8308C64.5464 21.8384 64.6658 21.8516 64.7605 21.8706V23.7626C64.6733 23.7323 64.5351 23.7058 64.3457 23.6831C64.1601 23.6565 63.9802 23.6433 63.8059 23.6433C63.4309 23.6433 63.0938 23.7247 62.7945 23.8876C62.4991 24.0467 62.2661 24.2683 62.0957 24.5524C61.9252 24.8365 61.84 25.1641 61.84 25.5353V30.666H59.7832ZM69.6744 30.8365C68.8221 30.8365 68.0835 30.649 67.4585 30.274C66.8335 29.899 66.3486 29.3743 66.0039 28.7001C65.663 28.0259 65.4926 27.238 65.4926 26.3365C65.4926 25.435 65.663 24.6452 66.0039 23.9672C66.3486 23.2891 66.8335 22.7626 67.4585 22.3876C68.0835 22.0126 68.8221 21.8251 69.6744 21.8251C70.5267 21.8251 71.2653 22.0126 71.8903 22.3876C72.5153 22.7626 72.9982 23.2891 73.3392 23.9672C73.6838 24.6452 73.8562 25.435 73.8562 26.3365C73.8562 27.238 73.6838 28.0259 73.3392 28.7001C72.9982 29.3743 72.5153 29.899 71.8903 30.274C71.2653 30.649 70.5267 30.8365 69.6744 30.8365ZM69.6857 29.1887C70.1479 29.1887 70.5342 29.0618 70.8448 28.8081C71.1554 28.5505 71.3865 28.2058 71.538 27.774C71.6933 27.3422 71.771 26.8611 71.771 26.3308C71.771 25.7967 71.6933 25.3137 71.538 24.8819C71.3865 24.4463 71.1554 24.0997 70.8448 23.8422C70.5342 23.5846 70.1479 23.4558 69.6857 23.4558C69.2123 23.4558 68.8183 23.5846 68.5039 23.8422C68.1933 24.0997 67.9604 24.4463 67.8051 24.8819C67.6535 25.3137 67.5778 25.7967 67.5778 26.3308C67.5778 26.8611 67.6535 27.3422 67.8051 27.774C67.9604 28.2058 68.1933 28.5505 68.5039 28.8081C68.8183 29.0618 69.2123 29.1887 69.6857 29.1887ZM78.9406 30.8194C78.255 30.8194 77.6413 30.6433 77.0997 30.291C76.558 29.9387 76.13 29.4274 75.8156 28.7569C75.5012 28.0865 75.344 27.2721 75.344 26.3137C75.344 25.344 75.5031 24.5259 75.8213 23.8592C76.1432 23.1887 76.5769 22.6831 77.1224 22.3422C77.6678 21.9975 78.2758 21.8251 78.9463 21.8251C79.4576 21.8251 79.8781 21.9122 80.2076 22.0865C80.5372 22.2569 80.7985 22.4634 80.9917 22.7058C81.1849 22.9444 81.3345 23.1698 81.4406 23.3819H81.5258V19.0297H83.5883V30.666H81.5656V29.291H81.4406C81.3345 29.5031 81.1811 29.7285 80.9803 29.9672C80.7796 30.202 80.5144 30.4028 80.1849 30.5694C79.8553 30.7361 79.4406 30.8194 78.9406 30.8194ZM79.5144 29.1319C79.95 29.1319 80.3213 29.0145 80.6281 28.7797C80.9349 28.541 81.1678 28.2096 81.3269 27.7853C81.486 27.3611 81.5656 26.8668 81.5656 26.3024C81.5656 25.738 81.486 25.2475 81.3269 24.8308C81.1716 24.4141 80.9406 24.0903 80.6338 23.8592C80.3307 23.6281 79.9576 23.5126 79.5144 23.5126C79.0561 23.5126 78.6735 23.6319 78.3667 23.8706C78.0599 24.1092 77.8288 24.4387 77.6735 24.8592C77.5182 25.2797 77.4406 25.7607 77.4406 26.3024C77.4406 26.8478 77.5182 27.3346 77.6735 27.7626C77.8326 28.1868 78.0656 28.5221 78.3724 28.7683C78.683 29.0107 79.0637 29.1319 79.5144 29.1319ZM91.4426 26.9956V21.9387H93.4994V30.666H91.5051V29.1149H91.4142C91.2172 29.6035 90.8933 30.0031 90.4426 30.3137C89.9956 30.6243 89.4445 30.7797 88.7892 30.7797C88.2172 30.7797 87.7115 30.6528 87.2721 30.399C86.8365 30.1414 86.4956 29.7683 86.2494 29.2797C86.0032 28.7872 85.8801 28.1925 85.8801 27.4956V21.9387H87.9369V27.1774C87.9369 27.7304 88.0884 28.1698 88.3914 28.4956C88.6945 28.8213 89.0922 28.9842 89.5846 28.9842C89.8876 28.9842 90.1812 28.9103 90.4653 28.7626C90.7494 28.6149 90.9823 28.3952 91.1642 28.1035C91.3498 27.8081 91.4426 27.4387 91.4426 26.9956ZM99.5213 30.8365C98.65 30.8365 97.9019 30.6452 97.2769 30.2626C96.6557 29.88 96.1766 29.3516 95.8394 28.6774C95.5061 27.9993 95.3394 27.219 95.3394 26.3365C95.3394 25.4501 95.5099 24.6679 95.8508 23.9899C96.1917 23.3081 96.6728 22.7778 97.294 22.399C97.919 22.0164 98.6576 21.8251 99.5099 21.8251C100.218 21.8251 100.845 21.9558 101.391 22.2172C101.94 22.4747 102.377 22.8403 102.703 23.3137C103.029 23.7834 103.214 24.3327 103.26 24.9615H101.294C101.214 24.541 101.025 24.1906 100.726 23.9103C100.43 23.6262 100.035 23.4842 99.5383 23.4842C99.1178 23.4842 98.7485 23.5978 98.4303 23.8251C98.1122 24.0486 97.8641 24.3706 97.686 24.791C97.5118 25.2115 97.4247 25.7153 97.4247 26.3024C97.4247 26.8971 97.5118 27.4084 97.686 27.8365C97.8603 28.2607 98.1046 28.5884 98.419 28.8194C98.7372 29.0467 99.1103 29.1603 99.5383 29.1603C99.8413 29.1603 100.112 29.1035 100.351 28.9899C100.593 28.8725 100.796 28.7039 100.959 28.4842C101.122 28.2645 101.233 27.9975 101.294 27.6831H103.26C103.211 28.3005 103.029 28.8478 102.714 29.3251C102.4 29.7986 101.972 30.1698 101.43 30.4387C100.889 30.7039 100.252 30.8365 99.5213 30.8365ZM109.407 21.9387V23.5297H104.39V21.9387H109.407ZM105.628 19.8478H107.685V28.041C107.685 28.3175 107.727 28.5297 107.81 28.6774C107.897 28.8213 108.011 28.9198 108.151 28.9728C108.291 29.0259 108.447 29.0524 108.617 29.0524C108.746 29.0524 108.863 29.0429 108.969 29.024C109.079 29.005 109.162 28.988 109.219 28.9728L109.566 30.5808C109.456 30.6187 109.299 30.6603 109.094 30.7058C108.894 30.7512 108.647 30.7778 108.356 30.7853C107.84 30.8005 107.376 30.7228 106.964 30.5524C106.551 30.3781 106.223 30.1092 105.981 29.7456C105.742 29.3819 105.625 28.9274 105.628 28.3819V19.8478ZM118.534 30.8194C117.849 30.8194 117.235 30.6433 116.693 30.291C116.152 29.9387 115.724 29.4274 115.409 28.7569C115.095 28.0865 114.938 27.2721 114.938 26.3137C114.938 25.344 115.097 24.5259 115.415 23.8592C115.737 23.1887 116.171 22.6831 116.716 22.3422C117.262 21.9975 117.87 21.8251 118.54 21.8251C119.051 21.8251 119.472 21.9122 119.801 22.0865C120.131 22.2569 120.392 22.4634 120.585 22.7058C120.779 22.9444 120.928 23.1698 121.034 23.3819H121.12V19.0297H123.182V30.666H121.159V29.291H121.034C120.928 29.5031 120.775 29.7285 120.574 29.9672C120.373 30.202 120.108 30.4028 119.779 30.5694C119.449 30.7361 119.034 30.8194 118.534 30.8194ZM119.108 29.1319C119.544 29.1319 119.915 29.0145 120.222 28.7797C120.529 28.541 120.762 28.2096 120.921 27.7853C121.08 27.3611 121.159 26.8668 121.159 26.3024C121.159 25.738 121.08 25.2475 120.921 24.8308C120.765 24.4141 120.534 24.0903 120.228 23.8592C119.924 23.6281 119.551 23.5126 119.108 23.5126C118.65 23.5126 118.267 23.6319 117.96 23.8706C117.654 24.1092 117.423 24.4387 117.267 24.8592C117.112 25.2797 117.034 25.7607 117.034 26.3024C117.034 26.8478 117.112 27.3346 117.267 27.7626C117.426 28.1868 117.659 28.5221 117.966 28.7683C118.277 29.0107 118.657 29.1319 119.108 29.1319ZM131.036 26.9956V21.9387H133.093V30.666H131.099V29.1149H131.008C130.811 29.6035 130.487 30.0031 130.036 30.3137C129.589 30.6243 129.038 30.7797 128.383 30.7797C127.811 30.7797 127.305 30.6528 126.866 30.399C126.43 30.1414 126.089 29.7683 125.843 29.2797C125.597 28.7872 125.474 28.1925 125.474 27.4956V21.9387H127.531V27.1774C127.531 27.7304 127.682 28.1698 127.985 28.4956C128.288 28.8213 128.686 28.9842 129.178 28.9842C129.481 28.9842 129.775 28.9103 130.059 28.7626C130.343 28.6149 130.576 28.3952 130.758 28.1035C130.944 27.8081 131.036 27.4387 131.036 26.9956ZM135.308 33.9387V21.9387H137.331V23.3819H137.45C137.556 23.1698 137.706 22.9444 137.899 22.7058C138.092 22.4634 138.354 22.2569 138.683 22.0865C139.013 21.9122 139.433 21.8251 139.945 21.8251C140.619 21.8251 141.227 21.9975 141.768 22.3422C142.314 22.6831 142.746 23.1887 143.064 23.8592C143.386 24.5259 143.547 25.344 143.547 26.3137C143.547 27.2721 143.39 28.0865 143.075 28.7569C142.761 29.4274 142.333 29.9387 141.791 30.291C141.249 30.6433 140.636 30.8194 139.95 30.8194C139.45 30.8194 139.035 30.7361 138.706 30.5694C138.376 30.4028 138.111 30.202 137.91 29.9672C137.713 29.7285 137.56 29.5031 137.45 29.291H137.365V33.9387H135.308ZM137.325 26.3024C137.325 26.8668 137.405 27.3611 137.564 27.7853C137.727 28.2096 137.96 28.541 138.263 28.7797C138.57 29.0145 138.941 29.1319 139.376 29.1319C139.831 29.1319 140.212 29.0107 140.518 28.7683C140.825 28.5221 141.056 28.1868 141.212 27.7626C141.371 27.3346 141.45 26.8478 141.45 26.3024C141.45 25.7607 141.373 25.2797 141.217 24.8592C141.062 24.4387 140.831 24.1092 140.524 23.8706C140.217 23.6319 139.835 23.5126 139.376 23.5126C138.937 23.5126 138.564 23.6281 138.257 23.8592C137.95 24.0903 137.717 24.4141 137.558 24.8308C137.403 25.2475 137.325 25.738 137.325 26.3024ZM147.465 19.0297V30.666H145.408V19.0297H147.465ZM149.68 30.666V21.9387H151.737V30.666H149.68ZM150.714 20.7001C150.388 20.7001 150.108 20.5922 149.873 20.3762C149.638 20.1565 149.521 19.8933 149.521 19.5865C149.521 19.2759 149.638 19.0126 149.873 18.7967C150.108 18.577 150.388 18.4672 150.714 18.4672C151.044 18.4672 151.324 18.577 151.555 18.7967C151.79 19.0126 151.907 19.2759 151.907 19.5865C151.907 19.8933 151.79 20.1565 151.555 20.3762C151.324 20.5922 151.044 20.7001 150.714 20.7001ZM157.759 30.8365C156.888 30.8365 156.139 30.6452 155.514 30.2626C154.893 29.88 154.414 29.3516 154.077 28.6774C153.744 27.9993 153.577 27.219 153.577 26.3365C153.577 25.4501 153.747 24.6679 154.088 23.9899C154.429 23.3081 154.91 22.7778 155.531 22.399C156.156 22.0164 156.895 21.8251 157.747 21.8251C158.456 21.8251 159.083 21.9558 159.628 22.2172C160.177 22.4747 160.615 22.8403 160.941 23.3137C161.266 23.7834 161.452 24.3327 161.497 24.9615H159.531C159.452 24.541 159.263 24.1906 158.963 23.9103C158.668 23.6262 158.272 23.4842 157.776 23.4842C157.355 23.4842 156.986 23.5978 156.668 23.8251C156.35 24.0486 156.102 24.3706 155.924 24.791C155.749 25.2115 155.662 25.7153 155.662 26.3024C155.662 26.8971 155.749 27.4084 155.924 27.8365C156.098 28.2607 156.342 28.5884 156.656 28.8194C156.975 29.0467 157.348 29.1603 157.776 29.1603C158.079 29.1603 158.35 29.1035 158.588 28.9899C158.831 28.8725 159.033 28.7039 159.196 28.4842C159.359 28.2645 159.471 27.9975 159.531 27.6831H161.497C161.448 28.3005 161.266 28.8478 160.952 29.3251C160.638 29.7986 160.21 30.1698 159.668 30.4387C159.126 30.7039 158.49 30.8365 157.759 30.8365ZM165.798 30.8422C165.245 30.8422 164.747 30.7437 164.303 30.5467C163.864 30.3459 163.515 30.0505 163.258 29.6603C163.004 29.2702 162.877 28.7891 162.877 28.2172C162.877 27.7247 162.968 27.3175 163.15 26.9956C163.332 26.6736 163.58 26.416 163.894 26.2228C164.209 26.0297 164.563 25.8838 164.957 25.7853C165.354 25.6831 165.765 25.6092 166.19 25.5637C166.701 25.5107 167.116 25.4634 167.434 25.4217C167.752 25.3762 167.983 25.3081 168.127 25.2172C168.275 25.1225 168.349 24.9766 168.349 24.7797V24.7456C168.349 24.3175 168.222 23.9861 167.968 23.7512C167.714 23.5164 167.349 23.399 166.872 23.399C166.368 23.399 165.968 23.5088 165.673 23.7285C165.381 23.9482 165.184 24.2077 165.082 24.5069L163.161 24.2342C163.313 23.7039 163.563 23.2607 163.911 22.9047C164.26 22.5448 164.686 22.2759 165.19 22.0978C165.694 21.916 166.25 21.8251 166.86 21.8251C167.281 21.8251 167.699 21.8743 168.116 21.9728C168.533 22.0713 168.913 22.2342 169.258 22.4615C169.603 22.685 169.879 22.9899 170.087 23.3762C170.3 23.7626 170.406 24.2456 170.406 24.8251V30.666H168.428V29.4672H168.36C168.235 29.7096 168.059 29.9368 167.832 30.149C167.608 30.3573 167.326 30.5259 166.985 30.6547C166.648 30.7797 166.252 30.8422 165.798 30.8422ZM166.332 29.3308C166.745 29.3308 167.103 29.2493 167.406 29.0865C167.709 28.9198 167.942 28.7001 168.104 28.4274C168.271 28.1547 168.354 27.8573 168.354 27.5353V26.5069C168.29 26.56 168.18 26.6092 168.025 26.6547C167.873 26.7001 167.703 26.7399 167.514 26.774C167.324 26.8081 167.137 26.8384 166.951 26.8649C166.765 26.8914 166.604 26.9141 166.468 26.9331C166.161 26.9747 165.887 27.0429 165.644 27.1376C165.402 27.2323 165.211 27.3649 165.07 27.5353C164.93 27.702 164.86 27.9179 164.86 28.1831C164.86 28.5618 164.998 28.8478 165.275 29.041C165.551 29.2342 165.904 29.3308 166.332 29.3308ZM176.932 21.9387V23.5297H171.915V21.9387H176.932ZM173.153 19.8478H175.21V28.041C175.21 28.3175 175.252 28.5297 175.335 28.6774C175.422 28.8213 175.536 28.9198 175.676 28.9728C175.816 29.0259 175.972 29.0524 176.142 29.0524C176.271 29.0524 176.388 29.0429 176.494 29.024C176.604 29.005 176.687 28.988 176.744 28.9728L177.091 30.5808C176.981 30.6187 176.824 30.6603 176.619 30.7058C176.419 30.7512 176.172 30.7778 175.881 30.7853C175.365 30.8005 174.901 30.7228 174.489 30.5524C174.076 30.3781 173.748 30.1092 173.506 29.7456C173.267 29.3819 173.15 28.9274 173.153 28.3819V19.8478ZM182.522 30.8365C181.647 30.8365 180.891 30.6547 180.255 30.291C179.622 29.9236 179.135 29.4047 178.795 28.7342C178.454 28.06 178.283 27.2664 178.283 26.3535C178.283 25.4558 178.454 24.6679 178.795 23.9899C179.139 23.3081 179.62 22.7778 180.238 22.399C180.855 22.0164 181.581 21.8251 182.414 21.8251C182.952 21.8251 183.459 21.9122 183.937 22.0865C184.418 22.2569 184.842 22.5221 185.209 22.8819C185.581 23.2418 185.872 23.7001 186.084 24.2569C186.296 24.81 186.403 25.469 186.403 26.2342V26.8649H179.249V25.4785H184.431C184.427 25.0846 184.342 24.7342 184.175 24.4274C184.009 24.1168 183.776 23.8725 183.476 23.6944C183.181 23.5164 182.836 23.4274 182.442 23.4274C182.022 23.4274 181.653 23.5297 181.334 23.7342C181.016 23.935 180.768 24.2001 180.59 24.5297C180.416 24.8554 180.327 25.2134 180.323 25.6035V26.8137C180.323 27.3213 180.416 27.7569 180.601 28.1206C180.787 28.4804 181.046 28.7569 181.38 28.9501C181.713 29.1395 182.103 29.2342 182.55 29.2342C182.849 29.2342 183.12 29.1925 183.363 29.1092C183.605 29.0221 183.815 28.8952 183.993 28.7285C184.171 28.5618 184.306 28.3554 184.397 28.1092L186.317 28.3251C186.196 28.8327 185.965 29.2759 185.624 29.6547C185.287 30.0297 184.855 30.3213 184.329 30.5297C183.802 30.7342 183.2 30.8365 182.522 30.8365ZM191.481 30.8194C190.796 30.8194 190.182 30.6433 189.64 30.291C189.099 29.9387 188.671 29.4274 188.356 28.7569C188.042 28.0865 187.885 27.2721 187.885 26.3137C187.885 25.344 188.044 24.5259 188.362 23.8592C188.684 23.1887 189.118 22.6831 189.663 22.3422C190.208 21.9975 190.816 21.8251 191.487 21.8251C191.998 21.8251 192.419 21.9122 192.748 22.0865C193.078 22.2569 193.339 22.4634 193.532 22.7058C193.726 22.9444 193.875 23.1698 193.981 23.3819H194.066V19.0297H196.129V30.666H194.106V29.291H193.981C193.875 29.5031 193.722 29.7285 193.521 29.9672C193.32 30.202 193.055 30.4028 192.726 30.5694C192.396 30.7361 191.981 30.8194 191.481 30.8194ZM192.055 29.1319C192.491 29.1319 192.862 29.0145 193.169 28.7797C193.476 28.541 193.708 28.2096 193.868 27.7853C194.027 27.3611 194.106 26.8668 194.106 26.3024C194.106 25.738 194.027 25.2475 193.868 24.8308C193.712 24.4141 193.481 24.0903 193.174 23.8592C192.871 23.6281 192.498 23.5126 192.055 23.5126C191.597 23.5126 191.214 23.6319 190.907 23.8706C190.601 24.1092 190.369 24.4387 190.214 24.8592C190.059 25.2797 189.981 25.7607 189.981 26.3024C189.981 26.8478 190.059 27.3346 190.214 27.7626C190.373 28.1868 190.606 28.5221 190.913 28.7683C191.224 29.0107 191.604 29.1319 192.055 29.1319ZM200.938 19.0297L200.75 27.2456H198.921L198.739 19.0297H200.938ZM199.835 30.791C199.491 30.791 199.195 30.6698 198.949 30.4274C198.707 30.185 198.585 29.8895 198.585 29.541C198.585 29.2001 198.707 28.9084 198.949 28.666C199.195 28.4236 199.491 28.3024 199.835 28.3024C200.173 28.3024 200.464 28.4236 200.71 28.666C200.96 28.9084 201.085 29.2001 201.085 29.541C201.085 29.7721 201.027 29.9823 200.909 30.1717C200.796 30.3611 200.644 30.5126 200.455 30.6262C200.269 30.7361 200.063 30.791 199.835 30.791Z" fill="#3D3D4F"/>
</g>
<rect x="1.31543" y="1.66602" width="220" height="46" rx="9" stroke="url(#paint0_linear_2541_1862)" stroke-width="2"/>
<defs>
<linearGradient id="paint0_linear_2541_1862" x1="222.315" y1="1.689" x2="132.134" y2="136.091" gradientUnits="userSpaceOnUse">
<stop stop-color="#1AD1FF"/>
<stop offset="1" stop-color="#369EFF"/>
</linearGradient>
<clipPath id="clip0_2541_1862">
<rect x="0.31543" y="0.666016" width="222" height="48" rx="10" fill="white"/>
</clipPath>
</defs>
</svg>
