<svg width="211" height="48" viewBox="0 0 211 48" fill="none" xmlns="http://www.w3.org/2000/svg">
<g clip-path="url(#clip0_2541_1866)">
<rect width="211" height="48" rx="10" fill="url(#paint0_linear_2541_1866)"/>
<mask id="mask0_2541_1866" style="mask-type:alpha" maskUnits="userSpaceOnUse" x="13" y="12" width="24" height="24">
<rect x="13" y="12" width="24" height="24" fill="#D9D9D9"/>
</mask>
<g mask="url(#mask0_2541_1866)">
<path d="M23.6 28.6L30.65 21.55L29.25 20.15L23.6 25.8L20.75 22.95L19.35 24.35L23.6 28.6ZM25 34C23.6167 34 22.3167 33.7375 21.1 33.2125C19.8833 32.6875 18.825 31.975 17.925 31.075C17.025 30.175 16.3125 29.1167 15.7875 27.9C15.2625 26.6833 15 25.3833 15 24C15 22.6167 15.2625 21.3167 15.7875 20.1C16.3125 18.8833 17.025 17.825 17.925 16.925C18.825 16.025 19.8833 15.3125 21.1 14.7875C22.3167 14.2625 23.6167 14 25 14C26.3833 14 27.6833 14.2625 28.9 14.7875C30.1167 15.3125 31.175 16.025 32.075 16.925C32.975 17.825 33.6875 18.8833 34.2125 20.1C34.7375 21.3167 35 22.6167 35 24C35 25.3833 34.7375 26.6833 34.2125 27.9C33.6875 29.1167 32.975 30.175 32.075 31.075C31.175 31.975 30.1167 32.6875 28.9 33.2125C27.6833 33.7375 26.3833 34 25 34ZM25 32C27.2333 32 29.125 31.225 30.675 29.675C32.225 28.125 33 26.2333 33 24C33 21.7667 32.225 19.875 30.675 18.325C29.125 16.775 27.2333 16 25 16C22.7667 16 20.875 16.775 19.325 18.325C17.775 19.875 17 21.7667 17 24C17 26.2333 17.775 28.125 19.325 29.675C20.875 31.225 22.7667 32 25 32Z" fill="white"/>
</g>
<path d="M46.618 30V18.3636H50.9817C51.8756 18.3636 52.6256 18.5303 53.2317 18.8636C53.8415 19.197 54.3018 19.6553 54.6124 20.2386C54.9268 20.8182 55.084 21.4773 55.084 22.2159C55.084 22.9621 54.9268 23.625 54.6124 24.2045C54.298 24.7841 53.834 25.2405 53.2203 25.5739C52.6067 25.9034 51.851 26.0682 50.9533 26.0682H48.0612V24.3352H50.6692C51.1919 24.3352 51.6199 24.2443 51.9533 24.0625C52.2866 23.8807 52.5328 23.6307 52.6919 23.3125C52.8548 22.9943 52.9362 22.6288 52.9362 22.2159C52.9362 21.803 52.8548 21.4394 52.6919 21.125C52.5328 20.8106 52.2847 20.5663 51.9476 20.392C51.6143 20.214 51.1843 20.125 50.6578 20.125H48.726V30H46.618ZM56.924 30V21.2727H58.9183V22.7273H59.0092C59.1683 22.2235 59.4411 21.8352 59.8274 21.5625C60.2176 21.286 60.6626 21.1477 61.1626 21.1477C61.2763 21.1477 61.4032 21.1534 61.5433 21.1648C61.6873 21.1723 61.8066 21.1856 61.9013 21.2045V23.0966C61.8142 23.0663 61.6759 23.0398 61.4865 23.017C61.3009 22.9905 61.121 22.9773 60.9467 22.9773C60.5717 22.9773 60.2346 23.0587 59.9354 23.2216C59.6399 23.3807 59.407 23.6023 59.2365 23.8864C59.0661 24.1705 58.9808 24.4981 58.9808 24.8693V30H56.924ZM66.8152 30.1705C65.9629 30.1705 65.2243 29.983 64.5993 29.608C63.9743 29.233 63.4894 28.7083 63.1447 28.0341C62.8038 27.3598 62.6334 26.572 62.6334 25.6705C62.6334 24.7689 62.8038 23.9792 63.1447 23.3011C63.4894 22.6231 63.9743 22.0966 64.5993 21.7216C65.2243 21.3466 65.9629 21.1591 66.8152 21.1591C67.6675 21.1591 68.4061 21.3466 69.0311 21.7216C69.6561 22.0966 70.1391 22.6231 70.48 23.3011C70.8247 23.9792 70.997 24.7689 70.997 25.6705C70.997 26.572 70.8247 27.3598 70.48 28.0341C70.1391 28.7083 69.6561 29.233 69.0311 29.608C68.4061 29.983 67.6675 30.1705 66.8152 30.1705ZM66.8266 28.5227C67.2887 28.5227 67.675 28.3958 67.9857 28.142C68.2963 27.8845 68.5273 27.5398 68.6788 27.108C68.8341 26.6761 68.9118 26.1951 68.9118 25.6648C68.9118 25.1307 68.8341 24.6477 68.6788 24.2159C68.5273 23.7803 68.2963 23.4337 67.9857 23.1761C67.675 22.9186 67.2887 22.7898 66.8266 22.7898C66.3531 22.7898 65.9591 22.9186 65.6447 23.1761C65.3341 23.4337 65.1012 23.7803 64.9459 24.2159C64.7944 24.6477 64.7186 25.1307 64.7186 25.6648C64.7186 26.1951 64.7944 26.6761 64.9459 27.108C65.1012 27.5398 65.3341 27.8845 65.6447 28.142C65.9591 28.3958 66.3531 28.5227 66.8266 28.5227ZM76.0814 30.1534C75.3958 30.1534 74.7822 29.9773 74.2405 29.625C73.6988 29.2727 73.2708 28.7614 72.9564 28.0909C72.642 27.4205 72.4848 26.6061 72.4848 25.6477C72.4848 24.678 72.6439 23.8598 72.9621 23.1932C73.284 22.5227 73.7178 22.017 74.2632 21.6761C74.8087 21.3314 75.4166 21.1591 76.0871 21.1591C76.5984 21.1591 77.0189 21.2462 77.3484 21.4205C77.678 21.5909 77.9393 21.7973 78.1325 22.0398C78.3257 22.2784 78.4753 22.5038 78.5814 22.7159H78.6666V18.3636H80.7291V30H78.7064V28.625H78.5814C78.4753 28.8371 78.3219 29.0625 78.1212 29.3011C77.9204 29.536 77.6553 29.7367 77.3257 29.9034C76.9962 30.0701 76.5814 30.1534 76.0814 30.1534ZM76.6553 28.4659C77.0909 28.4659 77.4621 28.3485 77.7689 28.1136C78.0757 27.875 78.3087 27.5436 78.4678 27.1193C78.6268 26.6951 78.7064 26.2008 78.7064 25.6364C78.7064 25.072 78.6268 24.5814 78.4678 24.1648C78.3125 23.7481 78.0814 23.4242 77.7746 23.1932C77.4715 22.9621 77.0984 22.8466 76.6553 22.8466C76.1969 22.8466 75.8143 22.9659 75.5075 23.2045C75.2007 23.4432 74.9697 23.7727 74.8143 24.1932C74.659 24.6136 74.5814 25.0947 74.5814 25.6364C74.5814 26.1818 74.659 26.6686 74.8143 27.0966C74.9734 27.5208 75.2064 27.8561 75.5132 28.1023C75.8238 28.3447 76.2045 28.4659 76.6553 28.4659ZM88.5834 26.3295V21.2727H90.6402V30H88.6459V28.4489H88.555C88.358 28.9375 88.0341 29.3371 87.5834 29.6477C87.1364 29.9583 86.5853 30.1136 85.93 30.1136C85.358 30.1136 84.8523 29.9867 84.4129 29.733C83.9773 29.4754 83.6364 29.1023 83.3902 28.6136C83.144 28.1212 83.0209 27.5265 83.0209 26.8295V21.2727H85.0777V26.5114C85.0777 27.0644 85.2292 27.5038 85.5322 27.8295C85.8353 28.1553 86.233 28.3182 86.7254 28.3182C87.0285 28.3182 87.322 28.2443 87.6061 28.0966C87.8902 27.9489 88.1232 27.7292 88.305 27.4375C88.4906 27.142 88.5834 26.7727 88.5834 26.3295ZM96.6621 30.1705C95.7909 30.1705 95.0428 29.9792 94.4178 29.5966C93.7965 29.214 93.3174 28.6856 92.9803 28.0114C92.6469 27.3333 92.4803 26.553 92.4803 25.6705C92.4803 24.7841 92.6507 24.0019 92.9916 23.3239C93.3325 22.642 93.8136 22.1117 94.4348 21.733C95.0598 21.3504 95.7984 21.1591 96.6507 21.1591C97.359 21.1591 97.9859 21.2898 98.5314 21.5511C99.0806 21.8087 99.5181 22.1742 99.8439 22.6477C100.17 23.1174 100.355 23.6667 100.401 24.2955H98.4348C98.3553 23.875 98.1659 23.5246 97.8666 23.2443C97.5712 22.9602 97.1753 22.8182 96.6791 22.8182C96.2587 22.8182 95.8893 22.9318 95.5712 23.1591C95.253 23.3826 95.0049 23.7045 94.8268 24.125C94.6526 24.5455 94.5655 25.0492 94.5655 25.6364C94.5655 26.2311 94.6526 26.7424 94.8268 27.1705C95.0011 27.5947 95.2454 27.9223 95.5598 28.1534C95.878 28.3807 96.2511 28.4943 96.6791 28.4943C96.9822 28.4943 97.253 28.4375 97.4916 28.3239C97.734 28.2064 97.9367 28.0379 98.0996 27.8182C98.2625 27.5985 98.3742 27.3314 98.4348 27.017H100.401C100.351 27.6345 100.17 28.1818 99.8553 28.6591C99.5409 29.1326 99.1128 29.5038 98.5712 29.7727C98.0295 30.0379 97.3931 30.1705 96.6621 30.1705ZM106.548 21.2727V22.8636H101.531V21.2727H106.548ZM102.769 19.1818H104.826V27.375C104.826 27.6515 104.868 27.8636 104.951 28.0114C105.038 28.1553 105.152 28.2538 105.292 28.3068C105.432 28.3598 105.587 28.3864 105.758 28.3864C105.887 28.3864 106.004 28.3769 106.11 28.358C106.22 28.339 106.303 28.322 106.36 28.3068L106.707 29.9148C106.597 29.9527 106.44 29.9943 106.235 30.0398C106.034 30.0852 105.788 30.1117 105.496 30.1193C104.981 30.1345 104.517 30.0568 104.104 29.8864C103.692 29.7121 103.364 29.4432 103.121 29.0795C102.883 28.7159 102.765 28.2614 102.769 27.7159V19.1818ZM112.437 33.2727V21.2727H114.459V22.7159H114.579C114.685 22.5038 114.834 22.2784 115.027 22.0398C115.221 21.7973 115.482 21.5909 115.812 21.4205C116.141 21.2462 116.562 21.1591 117.073 21.1591C117.747 21.1591 118.355 21.3314 118.897 21.6761C119.442 22.017 119.874 22.5227 120.192 23.1932C120.514 23.8598 120.675 24.678 120.675 25.6477C120.675 26.6061 120.518 27.4205 120.204 28.0909C119.889 28.7614 119.461 29.2727 118.919 29.625C118.378 29.9773 117.764 30.1534 117.079 30.1534C116.579 30.1534 116.164 30.0701 115.834 29.9034C115.505 29.7367 115.24 29.536 115.039 29.3011C114.842 29.0625 114.688 28.8371 114.579 28.625H114.493V33.2727H112.437ZM114.454 25.6364C114.454 26.2008 114.533 26.6951 114.692 27.1193C114.855 27.5436 115.088 27.875 115.391 28.1136C115.698 28.3485 116.069 28.4659 116.505 28.4659C116.959 28.4659 117.34 28.3447 117.647 28.1023C117.954 27.8561 118.185 27.5208 118.34 27.0966C118.499 26.6686 118.579 26.1818 118.579 25.6364C118.579 25.0947 118.501 24.6136 118.346 24.1932C118.19 23.7727 117.959 23.4432 117.652 23.2045C117.346 22.9659 116.963 22.8466 116.505 22.8466C116.065 22.8466 115.692 22.9621 115.385 23.1932C115.079 23.4242 114.846 23.7481 114.687 24.1648C114.531 24.5814 114.454 25.072 114.454 25.6364ZM128.099 26.3295V21.2727H130.156V30H128.162V28.4489H128.071C127.874 28.9375 127.55 29.3371 127.099 29.6477C126.652 29.9583 126.101 30.1136 125.446 30.1136C124.874 30.1136 124.368 29.9867 123.929 29.733C123.493 29.4754 123.152 29.1023 122.906 28.6136C122.66 28.1212 122.537 27.5265 122.537 26.8295V21.2727H124.593V26.5114C124.593 27.0644 124.745 27.5038 125.048 27.8295C125.351 28.1553 125.749 28.3182 126.241 28.3182C126.544 28.3182 126.838 28.2443 127.122 28.0966C127.406 27.9489 127.639 27.7292 127.821 27.4375C128.006 27.142 128.099 26.7727 128.099 26.3295ZM132.462 30V18.3636H134.519V22.7159H134.604C134.71 22.5038 134.86 22.2784 135.053 22.0398C135.246 21.7973 135.507 21.5909 135.837 21.4205C136.166 21.2462 136.587 21.1591 137.098 21.1591C137.772 21.1591 138.38 21.3314 138.922 21.6761C139.467 22.017 139.899 22.5227 140.217 23.1932C140.539 23.8598 140.7 24.678 140.7 25.6477C140.7 26.6061 140.543 27.4205 140.229 28.0909C139.914 28.7614 139.486 29.2727 138.945 29.625C138.403 29.9773 137.789 30.1534 137.104 30.1534C136.604 30.1534 136.189 30.0701 135.86 29.9034C135.53 29.7367 135.265 29.536 135.064 29.3011C134.867 29.0625 134.714 28.8371 134.604 28.625H134.485V30H132.462ZM134.479 25.6364C134.479 26.2008 134.558 26.6951 134.717 27.1193C134.88 27.5436 135.113 27.875 135.416 28.1136C135.723 28.3485 136.094 28.4659 136.53 28.4659C136.985 28.4659 137.365 28.3447 137.672 28.1023C137.979 27.8561 138.21 27.5208 138.365 27.0966C138.524 26.6686 138.604 26.1818 138.604 25.6364C138.604 25.0947 138.526 24.6136 138.371 24.1932C138.216 23.7727 137.985 23.4432 137.678 23.2045C137.371 22.9659 136.988 22.8466 136.53 22.8466C136.091 22.8466 135.717 22.9621 135.411 23.1932C135.104 23.4242 134.871 23.7481 134.712 24.1648C134.556 24.5814 134.479 25.072 134.479 25.6364ZM144.606 18.3636V30H142.549V18.3636H144.606ZM146.821 30V21.2727H148.878V30H146.821ZM147.855 20.0341C147.529 20.0341 147.249 19.9261 147.014 19.7102C146.779 19.4905 146.662 19.2273 146.662 18.9205C146.662 18.6098 146.779 18.3466 147.014 18.1307C147.249 17.911 147.529 17.8011 147.855 17.8011C148.185 17.8011 148.465 17.911 148.696 18.1307C148.931 18.3466 149.048 18.6098 149.048 18.9205C149.048 19.2273 148.931 19.4905 148.696 19.7102C148.465 19.9261 148.185 20.0341 147.855 20.0341ZM157.99 23.5795L156.115 23.7841C156.062 23.5947 155.97 23.4167 155.837 23.25C155.708 23.0833 155.534 22.9489 155.314 22.8466C155.095 22.7443 154.826 22.6932 154.508 22.6932C154.08 22.6932 153.72 22.786 153.428 22.9716C153.14 23.1572 152.998 23.3977 153.002 23.6932C152.998 23.947 153.091 24.1534 153.28 24.3125C153.473 24.4716 153.792 24.6023 154.235 24.7045L155.723 25.0227C156.549 25.2008 157.163 25.483 157.564 25.8693C157.97 26.2557 158.174 26.7614 158.178 27.3864C158.174 27.9356 158.013 28.4205 157.695 28.8409C157.381 29.2576 156.943 29.5833 156.383 29.8182C155.822 30.053 155.178 30.1705 154.451 30.1705C153.383 30.1705 152.523 29.947 151.871 29.5C151.22 29.0492 150.831 28.4223 150.706 27.6193L152.712 27.4261C152.803 27.8201 152.996 28.1174 153.292 28.3182C153.587 28.5189 153.972 28.6193 154.445 28.6193C154.934 28.6193 155.326 28.5189 155.621 28.3182C155.92 28.1174 156.07 27.8693 156.07 27.5739C156.07 27.3239 155.973 27.1174 155.78 26.9545C155.591 26.7917 155.295 26.6667 154.894 26.5795L153.405 26.267C152.568 26.0928 151.949 25.7992 151.547 25.3864C151.146 24.9697 150.947 24.4432 150.951 23.8068C150.947 23.2689 151.093 22.803 151.388 22.4091C151.687 22.0114 152.102 21.7045 152.633 21.4886C153.167 21.2689 153.782 21.1591 154.479 21.1591C155.502 21.1591 156.307 21.3769 156.894 21.8125C157.485 22.2481 157.85 22.8371 157.99 23.5795ZM162.031 24.8864V30H159.974V18.3636H161.985V22.7557H162.088C162.292 22.2633 162.608 21.875 163.037 21.5909C163.468 21.303 164.018 21.1591 164.684 21.1591C165.29 21.1591 165.819 21.286 166.269 21.5398C166.72 21.7936 167.069 22.1648 167.315 22.6534C167.565 23.142 167.69 23.7386 167.69 24.4432V30H165.633V24.7614C165.633 24.1742 165.482 23.7178 165.179 23.392C164.879 23.0625 164.459 22.8977 163.917 22.8977C163.554 22.8977 163.228 22.9773 162.94 23.1364C162.656 23.2917 162.432 23.517 162.269 23.8125C162.11 24.108 162.031 24.4659 162.031 24.8864ZM173.75 30.1705C172.875 30.1705 172.119 29.9886 171.483 29.625C170.851 29.2576 170.364 28.7386 170.023 28.0682C169.682 27.3939 169.512 26.6004 169.512 25.6875C169.512 24.7898 169.682 24.0019 170.023 23.3239C170.368 22.642 170.849 22.1117 171.466 21.733C172.083 21.3504 172.809 21.1591 173.642 21.1591C174.18 21.1591 174.688 21.2462 175.165 21.4205C175.646 21.5909 176.07 21.8561 176.438 22.2159C176.809 22.5758 177.101 23.0341 177.313 23.5909C177.525 24.1439 177.631 24.803 177.631 25.5682V26.1989H170.477V24.8125H175.659C175.655 24.4186 175.57 24.0682 175.404 23.7614C175.237 23.4508 175.004 23.2064 174.705 23.0284C174.409 22.8504 174.065 22.7614 173.671 22.7614C173.25 22.7614 172.881 22.8636 172.563 23.0682C172.244 23.2689 171.996 23.5341 171.818 23.8636C171.644 24.1894 171.555 24.5473 171.551 24.9375V26.1477C171.551 26.6553 171.644 27.0909 171.83 27.4545C172.015 27.8144 172.275 28.0909 172.608 28.2841C172.941 28.4735 173.332 28.5682 173.779 28.5682C174.078 28.5682 174.349 28.5265 174.591 28.4432C174.833 28.3561 175.044 28.2292 175.222 28.0625C175.4 27.8958 175.534 27.6894 175.625 27.4432L177.546 27.6591C177.424 28.1667 177.193 28.6098 176.852 28.9886C176.515 29.3636 176.083 29.6553 175.557 29.8636C175.03 30.0682 174.428 30.1705 173.75 30.1705ZM182.71 30.1534C182.024 30.1534 181.41 29.9773 180.869 29.625C180.327 29.2727 179.899 28.7614 179.585 28.0909C179.27 27.4205 179.113 26.6061 179.113 25.6477C179.113 24.678 179.272 23.8598 179.59 23.1932C179.912 22.5227 180.346 22.017 180.891 21.6761C181.437 21.3314 182.045 21.1591 182.715 21.1591C183.227 21.1591 183.647 21.2462 183.977 21.4205C184.306 21.5909 184.567 21.7973 184.761 22.0398C184.954 22.2784 185.103 22.5038 185.21 22.7159H185.295V18.3636H187.357V30H185.335V28.625H185.21C185.103 28.8371 184.95 29.0625 184.749 29.3011C184.549 29.536 184.283 29.7367 183.954 29.9034C183.624 30.0701 183.21 30.1534 182.71 30.1534ZM183.283 28.4659C183.719 28.4659 184.09 28.3485 184.397 28.1136C184.704 27.875 184.937 27.5436 185.096 27.1193C185.255 26.6951 185.335 26.2008 185.335 25.6364C185.335 25.072 185.255 24.5814 185.096 24.1648C184.941 23.7481 184.71 23.4242 184.403 23.1932C184.1 22.9621 183.727 22.8466 183.283 22.8466C182.825 22.8466 182.442 22.9659 182.136 23.2045C181.829 23.4432 181.598 23.7727 181.442 24.1932C181.287 24.6136 181.21 25.0947 181.21 25.6364C181.21 26.1818 181.287 26.6686 181.442 27.0966C181.602 27.5208 181.835 27.8561 182.141 28.1023C182.452 28.3447 182.833 28.4659 183.283 28.4659ZM192.166 18.3636L191.979 26.5795H190.149L189.967 18.3636H192.166ZM191.064 30.125C190.719 30.125 190.424 30.0038 190.177 29.7614C189.935 29.5189 189.814 29.2235 189.814 28.875C189.814 28.5341 189.935 28.2424 190.177 28C190.424 27.7576 190.719 27.6364 191.064 27.6364C191.401 27.6364 191.693 27.7576 191.939 28C192.189 28.2424 192.314 28.5341 192.314 28.875C192.314 29.1061 192.255 29.3163 192.138 29.5057C192.024 29.6951 191.872 29.8466 191.683 29.9602C191.497 30.0701 191.291 30.125 191.064 30.125Z" fill="white"/>
</g>
<defs>
<linearGradient id="paint0_linear_2541_1866" x1="211" y1="1.02299" x2="119.167" y2="131.105" gradientUnits="userSpaceOnUse">
<stop stop-color="#1AD1FF"/>
<stop offset="1" stop-color="#369EFF"/>
</linearGradient>
<clipPath id="clip0_2541_1866">
<rect width="211" height="48" rx="10" fill="white"/>
</clipPath>
</defs>
</svg>
