<svg xmlns="http://www.w3.org/2000/svg" fill="none" viewBox="32 46 684.47 552.86">
<circle opacity="0.9" cx="359.972" cy="328.023" r="258" stroke="white" stroke-width="1.82" stroke-linejoin="round" stroke-dasharray="2 4"/>
<circle opacity="0.9" cx="359.972" cy="328.023" r="164.361" stroke="white" stroke-width="1.82" stroke-linejoin="round" stroke-dasharray="2 4"/>
<g filter="url(#filter0_d_2450_983)">
<rect x="265.444" y="46" width="155.122" height="54" rx="27" fill="white" shape-rendering="crispEdges"/>
<circle cx="292.444" cy="73" r="19" fill="#19C5C7"/>
<g clip-path="url(#clip0_2450_983)">
<path d="M288.881 73C288.881 73.9448 289.257 74.851 289.925 75.5191C290.593 76.1872 291.499 76.5625 292.444 76.5625C293.389 76.5625 294.295 76.1872 294.963 75.5191C295.631 74.851 296.006 73.9448 296.006 73C296.006 72.0552 295.631 71.149 294.963 70.4809C294.295 69.8128 293.389 69.4375 292.444 69.4375C291.499 69.4375 290.593 69.8128 289.925 70.4809C289.257 71.149 288.881 72.0552 288.881 73Z" stroke="white" stroke-width="1.5" stroke-linecap="round" stroke-linejoin="round"/>
<path d="M281.756 68.25C281.756 67.6201 282.007 67.016 282.452 66.5706C282.897 66.1252 283.501 65.875 284.131 65.875H300.756C301.386 65.875 301.99 66.1252 302.436 66.5706C302.881 67.016 303.131 67.6201 303.131 68.25V77.75C303.131 78.3799 302.881 78.984 302.436 79.4294C301.99 79.8748 301.386 80.125 300.756 80.125H284.131C283.501 80.125 282.897 79.8748 282.452 79.4294C282.007 78.984 281.756 78.3799 281.756 77.75V68.25Z" stroke="white" stroke-width="1.5" stroke-linecap="round" stroke-linejoin="round"/>
<path d="M299.569 73H299.579" stroke="white" stroke-width="1.5" stroke-linecap="round" stroke-linejoin="round"/>
<path d="M285.319 73H285.329" stroke="white" stroke-width="1.5" stroke-linecap="round" stroke-linejoin="round"/>
</g>
<path d="M329.888 79.6516C326.45 79.6516 323.444 77.1676 323.444 73.0096C323.444 68.8516 326.558 66.3496 329.87 66.3496C333.11 66.3496 335.036 68.2576 335.612 70.4896L333.578 71.1736C333.2 69.6256 332.012 68.3836 329.87 68.3836C327.764 68.3836 325.658 69.9136 325.658 73.0096C325.658 75.9976 327.71 77.5816 329.888 77.5816C332.03 77.5816 333.254 76.2136 333.686 74.7736L335.666 75.4216C335.09 77.5816 333.146 79.6516 329.888 79.6516Z" fill="black"/>
<path d="M336.84 77.0056C336.84 75.4396 337.992 74.5756 339.486 74.3596L341.736 74.0176C342.24 73.9456 342.384 73.6936 342.384 73.3876C342.384 72.6496 341.88 72.0556 340.728 72.0556C339.63 72.0556 339.018 72.7576 338.928 73.6396L337.02 73.2076C337.182 71.6956 338.55 70.3456 340.71 70.3456C343.41 70.3456 344.436 71.8756 344.436 73.6216V77.9776C344.436 78.7696 344.526 79.2916 344.544 79.3816H342.6C342.582 79.3276 342.51 78.9676 342.51 78.2656C342.096 78.9316 341.232 79.6516 339.81 79.6516C337.974 79.6516 336.84 78.3916 336.84 77.0056ZM340.206 78.0136C341.376 78.0136 342.384 77.4556 342.384 75.7456V75.3496L340.098 75.6916C339.45 75.7996 338.928 76.1596 338.928 76.8796C338.928 77.4736 339.378 78.0136 340.206 78.0136Z" fill="black"/>
<path d="M346.186 77.0056L348.004 76.5016C348.076 77.2936 348.67 77.9956 349.786 77.9956C350.65 77.9956 351.1 77.5276 351.1 76.9876C351.1 76.5196 350.776 76.1596 350.074 76.0156L348.778 75.7276C347.23 75.3856 346.42 74.3776 346.42 73.1716C346.42 71.6416 347.824 70.3456 349.642 70.3456C352.09 70.3456 352.882 71.9296 353.026 72.7936L351.262 73.2976C351.19 72.7936 350.812 71.9836 349.642 71.9836C348.904 71.9836 348.382 72.4516 348.382 72.9916C348.382 73.4596 348.724 73.8016 349.264 73.9096L350.596 74.1796C352.252 74.5396 353.116 75.5476 353.116 76.8436C353.116 78.1756 352.036 79.6516 349.804 79.6516C347.266 79.6516 346.294 77.9956 346.186 77.0056Z" fill="black"/>
<path d="M357.274 74.2336V79.3816H355.186V66.3496H357.274V71.4616C357.868 70.6876 358.858 70.3636 359.776 70.3636C361.936 70.3636 362.98 71.9116 362.98 73.8376V79.3816H360.892V74.1976C360.892 73.1176 360.406 72.2536 359.092 72.2536C357.94 72.2536 357.31 73.1176 357.274 74.2336Z" fill="black"/>
<path d="M372.075 79.3816H369.987V66.3496H372.075V79.3816Z" fill="black"/>
<path d="M378.62 77.7796C379.916 77.7796 381.068 76.8256 381.068 74.9896C381.068 73.1716 379.916 72.2356 378.62 72.2356C377.342 72.2356 376.172 73.1716 376.172 74.9896C376.172 76.8076 377.342 77.7796 378.62 77.7796ZM378.62 70.3456C381.248 70.3456 383.174 72.3076 383.174 74.9896C383.174 77.6896 381.248 79.6516 378.62 79.6516C376.01 79.6516 374.084 77.6896 374.084 74.9896C374.084 72.3076 376.01 70.3456 378.62 70.3456Z" fill="black"/>
<path d="M384.652 77.0056C384.652 75.4396 385.804 74.5756 387.298 74.3596L389.548 74.0176C390.052 73.9456 390.196 73.6936 390.196 73.3876C390.196 72.6496 389.692 72.0556 388.54 72.0556C387.442 72.0556 386.83 72.7576 386.74 73.6396L384.832 73.2076C384.994 71.6956 386.362 70.3456 388.522 70.3456C391.222 70.3456 392.248 71.8756 392.248 73.6216V77.9776C392.248 78.7696 392.338 79.2916 392.356 79.3816H390.412C390.394 79.3276 390.322 78.9676 390.322 78.2656C389.908 78.9316 389.044 79.6516 387.622 79.6516C385.786 79.6516 384.652 78.3916 384.652 77.0056ZM388.018 78.0136C389.188 78.0136 390.196 77.4556 390.196 75.7456V75.3496L387.91 75.6916C387.262 75.7996 386.74 76.1596 386.74 76.8796C386.74 77.4736 387.19 78.0136 388.018 78.0136Z" fill="black"/>
<path d="M396.86 74.3236V79.3816H394.772V70.6156H396.806V71.7856C397.382 70.7776 398.426 70.3636 399.398 70.3636C401.54 70.3636 402.566 71.9116 402.566 73.8376V79.3816H400.478V74.1976C400.478 73.1176 399.992 72.2536 398.678 72.2536C397.49 72.2536 396.86 73.1716 396.86 74.3236Z" fill="black"/>
</g>
<path d="M42.08 140.001L40.874 136.797H35.474L34.286 140.001H32L36.968 127.239H39.47L44.438 140.001H42.08ZM38.174 129.579L36.23 134.799H40.118L38.174 129.579Z" fill="white"/>
<path d="M47.1951 135.591C47.1951 137.265 48.1311 138.381 49.5531 138.381C50.9211 138.381 51.8751 137.247 51.8751 135.573C51.8751 133.899 50.9391 132.855 49.5711 132.855C48.2031 132.855 47.1951 133.917 47.1951 135.591ZM53.8911 126.969V138.399C53.8911 139.191 53.9631 139.857 53.9811 140.001H51.9831C51.9471 139.803 51.8931 139.227 51.8931 138.867C51.4791 139.605 50.5611 140.217 49.3191 140.217C46.7991 140.217 45.1071 138.237 45.1071 135.591C45.1071 133.071 46.8171 131.001 49.2831 131.001C50.8131 131.001 51.5871 131.703 51.8571 132.261V126.969H53.8911Z" fill="white"/>
<path d="M58.0232 135.591C58.0232 137.265 58.9592 138.381 60.3812 138.381C61.7492 138.381 62.7032 137.247 62.7032 135.573C62.7032 133.899 61.7672 132.855 60.3992 132.855C59.0312 132.855 58.0232 133.917 58.0232 135.591ZM64.7192 126.969V138.399C64.7192 139.191 64.7912 139.857 64.8092 140.001H62.8112C62.7752 139.803 62.7212 139.227 62.7212 138.867C62.3072 139.605 61.3892 140.217 60.1472 140.217C57.6272 140.217 55.9352 138.237 55.9352 135.591C55.9352 133.071 57.6452 131.001 60.1112 131.001C61.6412 131.001 62.4152 131.703 62.6852 132.261V126.969H64.7192Z" fill="white"/>
<path d="M73.9822 143.421H71.9122V131.235H73.9282V132.423C74.3602 131.667 75.3682 131.037 76.7182 131.037C79.3102 131.037 80.7682 133.017 80.7682 135.609C80.7682 138.237 79.1662 140.217 76.6462 140.217C75.3862 140.217 74.4322 139.677 73.9822 139.011V143.421ZM78.6802 135.609C78.6802 133.971 77.7262 132.891 76.3222 132.891C74.9542 132.891 73.9642 133.971 73.9642 135.609C73.9642 137.283 74.9542 138.363 76.3222 138.363C77.7082 138.363 78.6802 137.283 78.6802 135.609Z" fill="white"/>
<path d="M87.9055 131.181V133.305C87.6715 133.269 87.4375 133.251 87.2215 133.251C85.6015 133.251 84.8635 134.187 84.8635 135.825V140.001H82.7755V131.235H84.8095V132.639C85.2235 131.685 86.1955 131.127 87.3475 131.127C87.5995 131.127 87.8155 131.163 87.9055 131.181Z" fill="white"/>
<path d="M93.4126 138.399C94.7086 138.399 95.8606 137.445 95.8606 135.609C95.8606 133.791 94.7086 132.855 93.4126 132.855C92.1346 132.855 90.9646 133.791 90.9646 135.609C90.9646 137.427 92.1346 138.399 93.4126 138.399ZM93.4126 130.965C96.0406 130.965 97.9666 132.927 97.9666 135.609C97.9666 138.309 96.0406 140.271 93.4126 140.271C90.8026 140.271 88.8766 138.309 88.8766 135.609C88.8766 132.927 90.8026 130.965 93.4126 130.965Z" fill="white"/>
<path d="M101.388 135.591C101.388 137.265 102.324 138.381 103.746 138.381C105.114 138.381 106.068 137.247 106.068 135.573C106.068 133.899 105.132 132.855 103.764 132.855C102.396 132.855 101.388 133.917 101.388 135.591ZM108.084 126.969V138.399C108.084 139.191 108.156 139.857 108.174 140.001H106.176C106.14 139.803 106.086 139.227 106.086 138.867C105.672 139.605 104.754 140.217 103.512 140.217C100.992 140.217 99.3005 138.237 99.3005 135.591C99.3005 133.071 101.01 131.001 103.476 131.001C105.006 131.001 105.78 131.703 106.05 132.261V126.969H108.084Z" fill="white"/>
<path d="M116.466 139.029C116.034 139.821 115.008 140.253 113.982 140.253C111.894 140.253 110.67 138.705 110.67 136.761V131.235H112.758V136.383C112.758 137.463 113.262 138.381 114.522 138.381C115.728 138.381 116.358 137.571 116.358 136.419V131.235H118.446V138.399C118.446 139.119 118.5 139.677 118.536 140.001H116.538C116.502 139.803 116.466 139.389 116.466 139.029Z" fill="white"/>
<path d="M124.912 132.891C123.634 132.891 122.5 133.845 122.5 135.609C122.5 137.373 123.634 138.363 124.948 138.363C126.316 138.363 126.946 137.409 127.144 136.743L128.98 137.409C128.566 138.777 127.252 140.271 124.948 140.271C122.374 140.271 120.412 138.273 120.412 135.609C120.412 132.909 122.374 130.965 124.894 130.965C127.252 130.965 128.548 132.441 128.908 133.845L127.036 134.529C126.838 133.755 126.244 132.891 124.912 132.891Z" fill="white"/>
<path d="M133.48 128.553V131.235H135.298V133.089H133.48V137.157C133.48 137.931 133.822 138.255 134.596 138.255C134.884 138.255 135.226 138.201 135.316 138.183V139.911C135.19 139.965 134.794 140.109 134.038 140.109C132.418 140.109 131.41 139.137 131.41 137.499V133.089H129.79V131.235H130.24C131.176 131.235 131.59 130.641 131.59 129.867V128.553H133.48Z" fill="white"/>
<path d="M41.234 371.028H33.35V358.266H41.234V360.282H35.51V363.666H40.694V365.628H35.51V369.012H41.234V371.028Z" fill="white"/>
<path d="M44.7869 366.618C44.7869 368.292 45.7229 369.408 47.1449 369.408C48.5129 369.408 49.4669 368.274 49.4669 366.6C49.4669 364.926 48.5309 363.882 47.1629 363.882C45.7949 363.882 44.7869 364.944 44.7869 366.618ZM51.4829 357.996V369.426C51.4829 370.218 51.5549 370.884 51.5729 371.028H49.5749C49.5389 370.83 49.4849 370.254 49.4849 369.894C49.0709 370.632 48.1529 371.244 46.9109 371.244C44.3909 371.244 42.6989 369.264 42.6989 366.618C42.6989 364.098 44.4089 362.028 46.8749 362.028C48.4049 362.028 49.1789 362.73 49.4489 363.288V357.996H51.4829Z" fill="white"/>
<path d="M56.281 371.028H54.211V362.262H56.281V371.028ZM53.887 359.184C53.887 358.428 54.499 357.816 55.237 357.816C55.993 357.816 56.605 358.428 56.605 359.184C56.605 359.94 55.993 360.534 55.237 360.534C54.499 360.534 53.887 359.94 53.887 359.184Z" fill="white"/>
<path d="M61.6207 359.58V362.262H63.4387V364.116H61.6207V368.184C61.6207 368.958 61.9627 369.282 62.7367 369.282C63.0247 369.282 63.3667 369.228 63.4567 369.21V370.938C63.3307 370.992 62.9347 371.136 62.1787 371.136C60.5587 371.136 59.5507 370.164 59.5507 368.526V364.116H57.9307V362.262H58.3807C59.3167 362.262 59.7307 361.668 59.7307 360.894V359.58H61.6207Z" fill="white"/>
<path d="M570.511 137.021H572.779C574.993 137.021 576.829 135.599 576.829 132.647C576.829 129.659 575.011 128.219 572.797 128.219H570.511V137.021ZM572.851 139.001H568.351V126.239H572.869C576.343 126.239 579.079 128.543 579.079 132.647C579.079 136.733 576.307 139.001 572.851 139.001Z" fill="white"/>
<path d="M582.654 133.655H586.956C586.92 132.629 586.236 131.711 584.796 131.711C583.482 131.711 582.726 132.719 582.654 133.655ZM587.19 135.941L588.954 136.499C588.486 138.029 587.1 139.271 584.994 139.271C582.618 139.271 580.512 137.543 580.512 134.573C580.512 131.801 582.564 129.965 584.778 129.965C587.478 129.965 589.062 131.747 589.062 134.519C589.062 134.861 589.026 135.149 589.008 135.185H582.6C582.654 136.517 583.698 137.471 584.994 137.471C586.254 137.471 586.902 136.805 587.19 135.941Z" fill="white"/>
<path d="M593.145 139.001H591.057V125.969H593.145V139.001Z" fill="white"/>
<path d="M597.297 133.655H601.599C601.563 132.629 600.879 131.711 599.439 131.711C598.125 131.711 597.369 132.719 597.297 133.655ZM601.833 135.941L603.597 136.499C603.129 138.029 601.743 139.271 599.637 139.271C597.261 139.271 595.155 137.543 595.155 134.573C595.155 131.801 597.207 129.965 599.421 129.965C602.121 129.965 603.705 131.747 603.705 134.519C603.705 134.861 603.669 135.149 603.651 135.185H597.243C597.297 136.517 598.341 137.471 599.637 137.471C600.897 137.471 601.545 136.805 601.833 135.941Z" fill="white"/>
<path d="M608.346 127.553V130.235H610.164V132.089H608.346V136.157C608.346 136.931 608.688 137.255 609.462 137.255C609.75 137.255 610.092 137.201 610.182 137.183V138.911C610.056 138.965 609.66 139.109 608.904 139.109C607.284 139.109 606.276 138.137 606.276 136.499V132.089H604.656V130.235H605.106C606.042 130.235 606.456 129.641 606.456 128.867V127.553H608.346Z" fill="white"/>
<path d="M613.679 133.655H617.981C617.945 132.629 617.261 131.711 615.821 131.711C614.507 131.711 613.751 132.719 613.679 133.655ZM618.215 135.941L619.979 136.499C619.511 138.029 618.125 139.271 616.019 139.271C613.643 139.271 611.537 137.543 611.537 134.573C611.537 131.801 613.589 129.965 615.803 129.965C618.503 129.965 620.087 131.747 620.087 134.519C620.087 134.861 620.051 135.149 620.033 135.185H613.625C613.679 136.517 614.723 137.471 616.019 137.471C617.279 137.471 617.927 136.805 618.215 135.941Z" fill="white"/>
<path d="M661.511 364.105H663.761C665.129 364.105 665.957 363.349 665.957 362.143C665.957 360.919 665.129 360.145 663.761 360.145H661.511V364.105ZM664.085 366.013H661.511V370.999H659.351V358.237H664.085C666.533 358.237 668.153 359.893 668.153 362.125C668.153 364.375 666.533 366.013 664.085 366.013Z" fill="white"/>
<path d="M675.353 370.027C674.921 370.819 673.895 371.251 672.869 371.251C670.781 371.251 669.557 369.703 669.557 367.759V362.233H671.645V367.381C671.645 368.461 672.149 369.379 673.409 369.379C674.615 369.379 675.245 368.569 675.245 367.417V362.233H677.333V369.397C677.333 370.117 677.387 370.675 677.423 370.999H675.425C675.389 370.801 675.353 370.387 675.353 370.027Z" fill="white"/>
<path d="M682.07 370.999H680.036V357.967H682.088V363.313C682.484 362.629 683.492 361.999 684.842 361.999C687.47 361.999 688.892 363.997 688.892 366.571C688.892 369.217 687.326 371.215 684.77 371.215C683.528 371.215 682.574 370.675 682.07 369.829V370.999ZM686.786 366.589C686.786 364.843 685.814 363.853 684.428 363.853C683.096 363.853 682.07 364.843 682.07 366.589C682.07 368.317 683.096 369.361 684.428 369.361C685.796 369.361 686.786 368.317 686.786 366.589Z" fill="white"/>
<path d="M692.987 370.999H690.899V357.967H692.987V370.999Z" fill="white"/>
<path d="M697.75 370.999H695.68V362.233H697.75V370.999ZM695.356 359.155C695.356 358.399 695.968 357.787 696.706 357.787C697.462 357.787 698.074 358.399 698.074 359.155C698.074 359.911 697.462 360.505 696.706 360.505C695.968 360.505 695.356 359.911 695.356 359.155Z" fill="white"/>
<path d="M699.67 368.623L701.488 368.119C701.56 368.911 702.154 369.613 703.27 369.613C704.134 369.613 704.584 369.145 704.584 368.605C704.584 368.137 704.26 367.777 703.558 367.633L702.262 367.345C700.714 367.003 699.904 365.995 699.904 364.789C699.904 363.259 701.308 361.963 703.126 361.963C705.574 361.963 706.366 363.547 706.51 364.411L704.746 364.915C704.674 364.411 704.296 363.601 703.126 363.601C702.388 363.601 701.866 364.069 701.866 364.609C701.866 365.077 702.208 365.419 702.748 365.527L704.08 365.797C705.736 366.157 706.6 367.165 706.6 368.461C706.6 369.793 705.52 371.269 703.288 371.269C700.75 371.269 699.778 369.613 699.67 368.623Z" fill="white"/>
<path d="M710.759 365.851V370.999H708.671V357.967H710.759V363.079C711.353 362.305 712.343 361.981 713.261 361.981C715.421 361.981 716.465 363.529 716.465 365.455V370.999H714.377V365.815C714.377 364.735 713.891 363.871 712.577 363.871C711.425 363.871 710.795 364.735 710.759 365.851Z" fill="white"/>
<g filter="url(#filter1_d_2450_983)">
<rect x="241.05" y="544.863" width="194.673" height="54" rx="27" fill="white" shape-rendering="crispEdges"/>
<circle cx="268.05" cy="571.863" r="19" fill="#FF6822"/>
<g clip-path="url(#clip1_2450_983)">
<path d="M259.181 571.865H256.647L268.047 560.465L279.447 571.865H276.914" stroke="white" stroke-width="1.5" stroke-linecap="round" stroke-linejoin="round"/>
<path d="M259.181 571.863V580.73C259.181 581.402 259.448 582.046 259.923 582.521C260.398 582.996 261.043 583.263 261.714 583.263H274.381C275.053 583.263 275.697 582.996 276.172 582.521C276.648 582.046 276.914 581.402 276.914 580.73V571.863" stroke="white" stroke-width="1.5" stroke-linecap="round" stroke-linejoin="round"/>
<path d="M264.248 583.264V575.664C264.248 574.992 264.514 574.348 264.99 573.873C265.465 573.398 266.109 573.131 266.781 573.131H269.314C269.986 573.131 270.63 573.398 271.106 573.873C271.581 574.348 271.848 574.992 271.848 575.664V583.264" stroke="white" stroke-width="1.5" stroke-linecap="round" stroke-linejoin="round"/>
</g>
<path d="M313.09 576.534H310.948V567.138L306.97 576.534H305.098L301.156 567.174V576.534H299.05V563.772H301.93L306.07 573.51L310.156 563.772H313.09V576.534Z" fill="black"/>
<path d="M319.791 574.932C321.087 574.932 322.239 573.978 322.239 572.142C322.239 570.324 321.087 569.388 319.791 569.388C318.513 569.388 317.343 570.324 317.343 572.142C317.343 573.96 318.513 574.932 319.791 574.932ZM319.791 567.498C322.419 567.498 324.345 569.46 324.345 572.142C324.345 574.842 322.419 576.804 319.791 576.804C317.181 576.804 315.255 574.842 315.255 572.142C315.255 569.46 317.181 567.498 319.791 567.498Z" fill="black"/>
<path d="M331.492 567.714V569.838C331.258 569.802 331.024 569.784 330.808 569.784C329.188 569.784 328.45 570.72 328.45 572.358V576.534H326.362V567.768H328.396V569.172C328.81 568.218 329.782 567.66 330.934 567.66C331.186 567.66 331.402 567.696 331.492 567.714Z" fill="black"/>
<path d="M336.268 565.086V567.768H338.086V569.622H336.268V573.69C336.268 574.464 336.61 574.788 337.384 574.788C337.672 574.788 338.014 574.734 338.104 574.716V576.444C337.978 576.498 337.582 576.642 336.826 576.642C335.206 576.642 334.198 575.67 334.198 574.032V569.622H332.578V567.768H333.028C333.964 567.768 334.378 567.174 334.378 566.4V565.086H336.268Z" fill="black"/>
<path d="M339.514 577.02L341.44 576.516C341.584 577.596 342.43 578.406 343.636 578.406C345.292 578.406 346.12 577.56 346.12 575.778V574.86C345.742 575.544 344.86 576.138 343.582 576.138C341.242 576.138 339.532 574.338 339.532 571.872C339.532 569.532 341.17 567.606 343.582 567.606C344.95 567.606 345.796 568.164 346.174 568.884V567.768H348.19V575.706C348.19 578.046 346.984 580.224 343.69 580.224C341.368 580.224 339.748 578.784 339.514 577.02ZM343.924 574.356C345.256 574.356 346.174 573.384 346.174 571.872C346.174 570.378 345.22 569.406 343.924 569.406C342.592 569.406 341.638 570.378 341.638 571.872C341.638 573.402 342.556 574.356 343.924 574.356Z" fill="black"/>
<path d="M350.115 574.158C350.115 572.592 351.267 571.728 352.761 571.512L355.011 571.17C355.515 571.098 355.659 570.846 355.659 570.54C355.659 569.802 355.155 569.208 354.003 569.208C352.905 569.208 352.293 569.91 352.203 570.792L350.295 570.36C350.457 568.848 351.825 567.498 353.985 567.498C356.685 567.498 357.711 569.028 357.711 570.774V575.13C357.711 575.922 357.801 576.444 357.819 576.534H355.875C355.857 576.48 355.785 576.12 355.785 575.418C355.371 576.084 354.507 576.804 353.085 576.804C351.249 576.804 350.115 575.544 350.115 574.158ZM353.481 575.166C354.651 575.166 355.659 574.608 355.659 572.898V572.502L353.373 572.844C352.725 572.952 352.203 573.312 352.203 574.032C352.203 574.626 352.653 575.166 353.481 575.166Z" fill="black"/>
<path d="M359.588 577.02L361.514 576.516C361.658 577.596 362.504 578.406 363.71 578.406C365.366 578.406 366.194 577.56 366.194 575.778V574.86C365.816 575.544 364.934 576.138 363.656 576.138C361.316 576.138 359.606 574.338 359.606 571.872C359.606 569.532 361.244 567.606 363.656 567.606C365.024 567.606 365.87 568.164 366.248 568.884V567.768H368.264V575.706C368.264 578.046 367.058 580.224 363.764 580.224C361.442 580.224 359.822 578.784 359.588 577.02ZM363.998 574.356C365.33 574.356 366.248 573.384 366.248 571.872C366.248 570.378 365.294 569.406 363.998 569.406C362.666 569.406 361.712 570.378 361.712 571.872C361.712 573.402 362.63 574.356 363.998 574.356Z" fill="black"/>
<path d="M372.276 571.188H376.578C376.542 570.162 375.858 569.244 374.418 569.244C373.104 569.244 372.348 570.252 372.276 571.188ZM376.812 573.474L378.576 574.032C378.108 575.562 376.722 576.804 374.616 576.804C372.24 576.804 370.134 575.076 370.134 572.106C370.134 569.334 372.186 567.498 374.4 567.498C377.1 567.498 378.684 569.28 378.684 572.052C378.684 572.394 378.648 572.682 378.63 572.718H372.222C372.276 574.05 373.32 575.004 374.616 575.004C375.876 575.004 376.524 574.338 376.812 573.474Z" fill="black"/>
<path d="M387.232 576.534H385.144V563.502H387.232V576.534Z" fill="black"/>
<path d="M393.777 574.932C395.073 574.932 396.225 573.978 396.225 572.142C396.225 570.324 395.073 569.388 393.777 569.388C392.499 569.388 391.329 570.324 391.329 572.142C391.329 573.96 392.499 574.932 393.777 574.932ZM393.777 567.498C396.405 567.498 398.331 569.46 398.331 572.142C398.331 574.842 396.405 576.804 393.777 576.804C391.167 576.804 389.241 574.842 389.241 572.142C389.241 569.46 391.167 567.498 393.777 567.498Z" fill="black"/>
<path d="M399.809 574.158C399.809 572.592 400.961 571.728 402.455 571.512L404.705 571.17C405.209 571.098 405.353 570.846 405.353 570.54C405.353 569.802 404.849 569.208 403.697 569.208C402.599 569.208 401.987 569.91 401.897 570.792L399.989 570.36C400.151 568.848 401.519 567.498 403.679 567.498C406.379 567.498 407.405 569.028 407.405 570.774V575.13C407.405 575.922 407.495 576.444 407.513 576.534H405.569C405.551 576.48 405.479 576.12 405.479 575.418C405.065 576.084 404.201 576.804 402.779 576.804C400.943 576.804 399.809 575.544 399.809 574.158ZM403.175 575.166C404.345 575.166 405.353 574.608 405.353 572.898V572.502L403.067 572.844C402.419 572.952 401.897 573.312 401.897 574.032C401.897 574.626 402.347 575.166 403.175 575.166Z" fill="black"/>
<path d="M412.017 571.476V576.534H409.929V567.768H411.963V568.938C412.539 567.93 413.583 567.516 414.555 567.516C416.697 567.516 417.723 569.064 417.723 570.99V576.534H415.635V571.35C415.635 570.27 415.149 569.406 413.835 569.406C412.647 569.406 412.017 570.324 412.017 571.476Z" fill="black"/>
</g>
<g filter="url(#filter2_d_2450_983)">
<rect x="50.7749" y="210.662" width="177.713" height="54" rx="27" fill="white" shape-rendering="crispEdges"/>
<circle cx="77.7749" cy="237.662" r="19" fill="#FFCC81"/>
<g clip-path="url(#clip2_2450_983)">
<path d="M66.3721 232.597C66.3721 231.589 66.7724 230.623 67.4851 229.91C68.1977 229.197 69.1642 228.797 70.1721 228.797H85.3721C86.3799 228.797 87.3464 229.197 88.0591 229.91C88.7717 230.623 89.1721 231.589 89.1721 232.597V242.73C89.1721 243.738 88.7717 244.705 88.0591 245.417C87.3464 246.13 86.3799 246.53 85.3721 246.53H70.1721C69.1642 246.53 68.1977 246.13 67.4851 245.417C66.7724 244.705 66.3721 243.738 66.3721 242.73V232.597Z" stroke="white" stroke-width="1.5" stroke-linecap="round" stroke-linejoin="round"/>
<path d="M66.3721 235.129H89.1721" stroke="white" stroke-width="1.5" stroke-linecap="round" stroke-linejoin="round"/>
<path d="M71.439 241.463H71.449" stroke="white" stroke-width="1.5" stroke-linecap="round" stroke-linejoin="round"/>
<path d="M76.5054 241.463H79.0387" stroke="white" stroke-width="1.5" stroke-linecap="round" stroke-linejoin="round"/>
</g>
<path d="M115.935 245.152C112.115 245.152 108.775 242.392 108.775 237.772C108.775 233.152 112.235 230.372 115.915 230.372C119.515 230.372 121.655 232.492 122.295 234.972L120.035 235.732C119.615 234.012 118.295 232.632 115.915 232.632C113.575 232.632 111.235 234.332 111.235 237.772C111.235 241.092 113.515 242.852 115.935 242.852C118.315 242.852 119.675 241.332 120.155 239.732L122.355 240.452C121.715 242.852 119.555 245.152 115.935 245.152Z" fill="black"/>
<path d="M130.057 235.052V237.412C129.797 237.372 129.537 237.352 129.297 237.352C127.497 237.352 126.677 238.392 126.677 240.212V244.852H124.357V235.112H126.617V236.672C127.077 235.612 128.157 234.992 129.437 234.992C129.717 234.992 129.957 235.032 130.057 235.052Z" fill="black"/>
<path d="M133.516 238.912H138.296C138.256 237.772 137.496 236.752 135.896 236.752C134.436 236.752 133.596 237.872 133.516 238.912ZM138.556 241.452L140.516 242.072C139.996 243.772 138.456 245.152 136.116 245.152C133.476 245.152 131.136 243.232 131.136 239.932C131.136 236.852 133.416 234.812 135.876 234.812C138.876 234.812 140.636 236.792 140.636 239.872C140.636 240.252 140.596 240.572 140.576 240.612H133.456C133.516 242.092 134.676 243.152 136.116 243.152C137.516 243.152 138.236 242.412 138.556 241.452Z" fill="black"/>
<path d="M144.413 239.952C144.413 241.812 145.453 243.052 147.033 243.052C148.553 243.052 149.613 241.792 149.613 239.932C149.613 238.072 148.573 236.912 147.053 236.912C145.533 236.912 144.413 238.092 144.413 239.952ZM151.853 230.372V243.072C151.853 243.952 151.933 244.692 151.953 244.852H149.733C149.693 244.632 149.633 243.992 149.633 243.592C149.173 244.412 148.153 245.092 146.773 245.092C143.973 245.092 142.093 242.892 142.093 239.952C142.093 237.152 143.993 234.852 146.733 234.852C148.433 234.852 149.293 235.632 149.593 236.252V230.372H151.853Z" fill="black"/>
<path d="M157.184 244.852H154.884V235.112H157.184V244.852ZM154.524 231.692C154.524 230.852 155.204 230.172 156.024 230.172C156.864 230.172 157.544 230.852 157.544 231.692C157.544 232.532 156.864 233.192 156.024 233.192C155.204 233.192 154.524 232.532 154.524 231.692Z" fill="black"/>
<path d="M163.117 232.132V235.112H165.137V237.172H163.117V241.692C163.117 242.552 163.497 242.912 164.357 242.912C164.677 242.912 165.057 242.852 165.157 242.832V244.752C165.017 244.812 164.577 244.972 163.737 244.972C161.937 244.972 160.817 243.892 160.817 242.072V237.172H159.017V235.112H159.517C160.557 235.112 161.017 234.452 161.017 233.592V232.132H163.117Z" fill="black"/>
<path d="M176.683 236.952C175.263 236.952 174.003 238.012 174.003 239.972C174.003 241.932 175.263 243.032 176.723 243.032C178.243 243.032 178.943 241.972 179.163 241.232L181.203 241.972C180.743 243.492 179.283 245.152 176.723 245.152C173.863 245.152 171.683 242.932 171.683 239.972C171.683 236.972 173.863 234.812 176.663 234.812C179.283 234.812 180.723 236.452 181.123 238.012L179.043 238.772C178.823 237.912 178.163 236.952 176.683 236.952Z" fill="black"/>
<path d="M182.604 242.212C182.604 240.472 183.884 239.512 185.544 239.272L188.044 238.892C188.604 238.812 188.764 238.532 188.764 238.192C188.764 237.372 188.204 236.712 186.924 236.712C185.704 236.712 185.024 237.492 184.924 238.472L182.804 237.992C182.984 236.312 184.504 234.812 186.904 234.812C189.904 234.812 191.044 236.512 191.044 238.452V243.292C191.044 244.172 191.144 244.752 191.164 244.852H189.004C188.984 244.792 188.904 244.392 188.904 243.612C188.444 244.352 187.484 245.152 185.904 245.152C183.864 245.152 182.604 243.752 182.604 242.212ZM186.344 243.332C187.644 243.332 188.764 242.712 188.764 240.812V240.372L186.224 240.752C185.504 240.872 184.924 241.272 184.924 242.072C184.924 242.732 185.424 243.332 186.344 243.332Z" fill="black"/>
<path d="M199.549 235.052V237.412C199.289 237.372 199.029 237.352 198.789 237.352C196.989 237.352 196.169 238.392 196.169 240.212V244.852H193.849V235.112H196.109V236.672C196.569 235.612 197.649 234.992 198.929 234.992C199.209 234.992 199.449 235.032 199.549 235.052Z" fill="black"/>
<path d="M202.948 239.952C202.948 241.812 203.988 243.052 205.568 243.052C207.088 243.052 208.148 241.792 208.148 239.932C208.148 238.072 207.108 236.912 205.588 236.912C204.068 236.912 202.948 238.092 202.948 239.952ZM210.388 230.372V243.072C210.388 243.952 210.468 244.692 210.488 244.852H208.268C208.228 244.632 208.168 243.992 208.168 243.592C207.708 244.412 206.688 245.092 205.308 245.092C202.508 245.092 200.628 242.892 200.628 239.952C200.628 237.152 202.528 234.852 205.268 234.852C206.968 234.852 207.828 235.632 208.128 236.252V230.372H210.388Z" fill="black"/>
</g>
<g filter="url(#filter3_d_2450_983)">
<rect x="422.788" y="442.406" width="168.086" height="54" rx="27" fill="white" shape-rendering="crispEdges"/>
<circle cx="449.788" cy="469.406" r="19" fill="#19C5C7"/>
<g clip-path="url(#clip3_2450_983)">
<path d="M448.518 469.407C448.518 469.906 448.616 470.401 448.807 470.862C448.998 471.323 449.278 471.742 449.631 472.094C449.984 472.447 450.403 472.727 450.864 472.918C451.325 473.109 451.819 473.207 452.318 473.207C452.817 473.207 453.311 473.109 453.772 472.918C454.233 472.727 454.652 472.447 455.005 472.094C455.358 471.742 455.638 471.323 455.829 470.862C456.02 470.401 456.118 469.906 456.118 469.407C456.118 468.908 456.02 468.414 455.829 467.953C455.638 467.492 455.358 467.073 455.005 466.72C454.652 466.368 454.233 466.088 453.772 465.897C453.311 465.706 452.817 465.607 452.318 465.607C451.819 465.607 451.325 465.706 450.864 465.897C450.403 466.088 449.984 466.368 449.631 466.72C449.278 467.073 448.998 467.492 448.807 467.953C448.616 468.414 448.518 468.908 448.518 469.407Z" stroke="white" stroke-width="1.5" stroke-linecap="round" stroke-linejoin="round"/>
<path d="M449.785 466.576C449.238 466.087 448.562 465.766 447.837 465.653C447.112 465.54 446.37 465.639 445.7 465.938C445.03 466.237 444.461 466.724 444.062 467.34C443.663 467.956 443.45 468.674 443.45 469.407C443.45 470.141 443.663 470.859 444.062 471.475C444.461 472.09 445.03 472.577 445.7 472.877C446.37 473.176 447.112 473.275 447.837 473.162C448.562 473.049 449.238 472.728 449.785 472.238" stroke="white" stroke-width="1.5" stroke-linecap="round" stroke-linejoin="round"/>
<path d="M438.385 463.074C438.385 462.402 438.652 461.758 439.127 461.283C439.602 460.808 440.246 460.541 440.918 460.541H458.651C459.323 460.541 459.968 460.808 460.443 461.283C460.918 461.758 461.185 462.402 461.185 463.074V475.741C461.185 476.413 460.918 477.057 460.443 477.532C459.968 478.007 459.323 478.274 458.651 478.274H440.918C440.246 478.274 439.602 478.007 439.127 477.532C438.652 477.057 438.385 476.413 438.385 475.741V463.074Z" stroke="white" stroke-width="1.5" stroke-linecap="round" stroke-linejoin="round"/>
</g>
<path d="M494.828 475.788H492.686V466.392L488.708 475.788H486.836L482.894 466.428V475.788H480.788V463.026H483.668L487.808 472.764L491.894 463.026H494.828V475.788Z" fill="black"/>
<path d="M497.118 473.412C497.118 471.846 498.27 470.982 499.764 470.766L502.014 470.424C502.518 470.352 502.662 470.1 502.662 469.794C502.662 469.056 502.158 468.462 501.006 468.462C499.908 468.462 499.296 469.164 499.206 470.046L497.298 469.614C497.46 468.102 498.828 466.752 500.988 466.752C503.688 466.752 504.714 468.282 504.714 470.028V474.384C504.714 475.176 504.804 475.698 504.822 475.788H502.878C502.86 475.734 502.788 475.374 502.788 474.672C502.374 475.338 501.51 476.058 500.088 476.058C498.252 476.058 497.118 474.798 497.118 473.412ZM500.484 474.42C501.654 474.42 502.662 473.862 502.662 472.152V471.756L500.376 472.098C499.728 472.206 499.206 472.566 499.206 473.286C499.206 473.88 499.656 474.42 500.484 474.42Z" fill="black"/>
<path d="M506.464 473.412L508.282 472.908C508.354 473.7 508.948 474.402 510.064 474.402C510.928 474.402 511.378 473.934 511.378 473.394C511.378 472.926 511.054 472.566 510.352 472.422L509.056 472.134C507.508 471.792 506.698 470.784 506.698 469.578C506.698 468.048 508.102 466.752 509.92 466.752C512.368 466.752 513.16 468.336 513.304 469.2L511.54 469.704C511.468 469.2 511.09 468.39 509.92 468.39C509.182 468.39 508.66 468.858 508.66 469.398C508.66 469.866 509.002 470.208 509.542 470.316L510.874 470.586C512.53 470.946 513.394 471.954 513.394 473.25C513.394 474.582 512.314 476.058 510.082 476.058C507.544 476.058 506.572 474.402 506.464 473.412Z" fill="black"/>
<path d="M518.111 464.34V467.022H519.929V468.876H518.111V472.944C518.111 473.718 518.453 474.042 519.227 474.042C519.515 474.042 519.857 473.988 519.947 473.97V475.698C519.821 475.752 519.425 475.896 518.669 475.896C517.049 475.896 516.041 474.924 516.041 473.286V468.876H514.421V467.022H514.871C515.807 467.022 516.221 466.428 516.221 465.654V464.34H518.111Z" fill="black"/>
<path d="M523.445 470.442H527.747C527.711 469.416 527.027 468.498 525.587 468.498C524.273 468.498 523.517 469.506 523.445 470.442ZM527.981 472.728L529.745 473.286C529.277 474.816 527.891 476.058 525.785 476.058C523.409 476.058 521.303 474.33 521.303 471.36C521.303 468.588 523.355 466.752 525.569 466.752C528.269 466.752 529.853 468.534 529.853 471.306C529.853 471.648 529.817 471.936 529.799 471.972H523.391C523.445 473.304 524.489 474.258 525.785 474.258C527.045 474.258 527.693 473.592 527.981 472.728Z" fill="black"/>
<path d="M536.978 466.968V469.092C536.744 469.056 536.51 469.038 536.294 469.038C534.674 469.038 533.936 469.974 533.936 471.612V475.788H531.848V467.022H533.882V468.426C534.296 467.472 535.268 466.914 536.42 466.914C536.672 466.914 536.888 466.95 536.978 466.968Z" fill="black"/>
<path d="M542.449 468.678C541.171 468.678 540.037 469.632 540.037 471.396C540.037 473.16 541.171 474.15 542.485 474.15C543.853 474.15 544.483 473.196 544.681 472.53L546.517 473.196C546.103 474.564 544.789 476.058 542.485 476.058C539.911 476.058 537.949 474.06 537.949 471.396C537.949 468.696 539.911 466.752 542.431 466.752C544.789 466.752 546.085 468.228 546.445 469.632L544.573 470.316C544.375 469.542 543.781 468.678 542.449 468.678Z" fill="black"/>
<path d="M547.779 473.412C547.779 471.846 548.931 470.982 550.425 470.766L552.675 470.424C553.179 470.352 553.323 470.1 553.323 469.794C553.323 469.056 552.819 468.462 551.667 468.462C550.569 468.462 549.957 469.164 549.867 470.046L547.959 469.614C548.121 468.102 549.489 466.752 551.649 466.752C554.349 466.752 555.375 468.282 555.375 470.028V474.384C555.375 475.176 555.465 475.698 555.483 475.788H553.539C553.521 475.734 553.449 475.374 553.449 474.672C553.035 475.338 552.171 476.058 550.749 476.058C548.913 476.058 547.779 474.798 547.779 473.412ZM551.145 474.42C552.315 474.42 553.323 473.862 553.323 472.152V471.756L551.037 472.098C550.389 472.206 549.867 472.566 549.867 473.286C549.867 473.88 550.317 474.42 551.145 474.42Z" fill="black"/>
<path d="M563.029 466.968V469.092C562.795 469.056 562.561 469.038 562.345 469.038C560.725 469.038 559.987 469.974 559.987 471.612V475.788H557.899V467.022H559.933V468.426C560.347 467.472 561.319 466.914 562.471 466.914C562.723 466.914 562.939 466.95 563.029 466.968Z" fill="black"/>
<path d="M566.088 471.378C566.088 473.052 567.024 474.168 568.446 474.168C569.814 474.168 570.768 473.034 570.768 471.36C570.768 469.686 569.832 468.642 568.464 468.642C567.096 468.642 566.088 469.704 566.088 471.378ZM572.784 462.756V474.186C572.784 474.978 572.856 475.644 572.874 475.788H570.876C570.84 475.59 570.786 475.014 570.786 474.654C570.372 475.392 569.454 476.004 568.212 476.004C565.692 476.004 564 474.024 564 471.378C564 468.858 565.71 466.788 568.176 466.788C569.706 466.788 570.48 467.49 570.75 468.048V462.756H572.784Z" fill="black"/>
</g>
<g filter="url(#filter4_d_2450_983)">
<rect x="458.159" y="210.662" width="184.62" height="54" rx="27" fill="white" shape-rendering="crispEdges"/>
<circle cx="485.159" cy="237.662" r="19" fill="#49C6FD"/>
<g clip-path="url(#clip4_2450_983)">
<path d="M488.956 236.396V236.406" stroke="white" stroke-width="1.5" stroke-linecap="round" stroke-linejoin="round"/>
<path d="M476.509 233.075C475.953 232.648 475.527 232.075 475.276 231.421C475.025 230.767 474.96 230.056 475.088 229.367C475.217 228.678 475.533 228.038 476.002 227.518C476.471 226.997 477.075 226.616 477.747 226.418C478.419 226.219 479.132 226.21 479.809 226.392C480.486 226.573 481.099 226.938 481.581 227.447C482.064 227.955 482.396 228.587 482.542 229.272C482.687 229.958 482.64 230.67 482.406 231.33" stroke="white" stroke-width="1.5" stroke-linecap="round" stroke-linejoin="round"/>
<path d="M490.223 227.529V232.346C491.79 233.254 492.984 234.689 493.589 236.396H495.288C495.624 236.396 495.946 236.529 496.184 236.767C496.421 237.005 496.555 237.327 496.555 237.663V240.196C496.555 240.532 496.421 240.854 496.184 241.092C495.946 241.329 495.624 241.463 495.288 241.463H493.588C493.163 242.666 492.439 243.743 491.488 244.595V247.163C491.488 247.667 491.288 248.15 490.931 248.506C490.575 248.862 490.092 249.063 489.588 249.063C489.084 249.063 488.601 248.862 488.244 248.506C487.888 248.15 487.688 247.667 487.688 247.163V246.424C487.269 246.494 486.846 246.529 486.421 246.529H481.355C480.93 246.529 480.507 246.494 480.088 246.424V247.163C480.088 247.667 479.888 248.15 479.531 248.506C479.175 248.862 478.692 249.063 478.188 249.063C477.684 249.063 477.201 248.862 476.844 248.506C476.488 248.15 476.288 247.667 476.288 247.163V244.629V244.595C475.14 243.569 474.331 242.219 473.968 240.723C473.605 239.227 473.704 237.656 474.254 236.218C474.803 234.78 475.776 233.542 477.044 232.669C478.312 231.796 479.815 231.329 481.355 231.329H484.521L490.221 227.529H490.223Z" stroke="white" stroke-width="1.5" stroke-linecap="round" stroke-linejoin="round"/>
</g>
<path d="M526.239 242.423L525.033 239.219H519.633L518.445 242.423H516.159L521.127 229.661H523.629L528.597 242.423H526.239ZM522.333 232.001L520.389 237.221H524.277L522.333 232.001Z" fill="black"/>
<path d="M533.766 235.313C532.488 235.313 531.354 236.267 531.354 238.031C531.354 239.795 532.488 240.785 533.802 240.785C535.17 240.785 535.8 239.831 535.998 239.165L537.834 239.831C537.42 241.199 536.106 242.693 533.802 242.693C531.228 242.693 529.266 240.695 529.266 238.031C529.266 235.331 531.228 233.387 533.748 233.387C536.106 233.387 537.402 234.863 537.762 236.267L535.89 236.951C535.692 236.177 535.098 235.313 533.766 235.313Z" fill="black"/>
<path d="M542.334 230.975V233.657H544.152V235.511H542.334V239.579C542.334 240.353 542.676 240.677 543.45 240.677C543.738 240.677 544.08 240.623 544.17 240.605V242.333C544.044 242.387 543.648 242.531 542.892 242.531C541.272 242.531 540.264 241.559 540.264 239.921V235.511H538.644V233.657H539.094C540.03 233.657 540.444 233.063 540.444 232.289V230.975H542.334Z" fill="black"/>
<path d="M548.367 242.423H546.297V233.657H548.367V242.423ZM545.973 230.579C545.973 229.823 546.585 229.211 547.323 229.211C548.079 229.211 548.691 229.823 548.691 230.579C548.691 231.335 548.079 231.929 547.323 231.929C546.585 231.929 545.973 231.335 545.973 230.579Z" fill="black"/>
<path d="M558.981 233.657L555.543 242.423H553.455L549.891 233.657H552.195L554.517 239.921L556.785 233.657H558.981Z" fill="black"/>
<path d="M561.712 237.077H566.014C565.978 236.051 565.294 235.133 563.854 235.133C562.54 235.133 561.784 236.141 561.712 237.077ZM566.248 239.363L568.012 239.921C567.544 241.451 566.158 242.693 564.052 242.693C561.676 242.693 559.57 240.965 559.57 237.995C559.57 235.223 561.622 233.387 563.836 233.387C566.536 233.387 568.12 235.169 568.12 237.941C568.12 238.283 568.084 238.571 568.066 238.607H561.658C561.712 239.939 562.756 240.893 564.052 240.893C565.312 240.893 565.96 240.227 566.248 239.363Z" fill="black"/>
<path d="M573.807 240.047L575.625 239.543C575.697 240.335 576.291 241.037 577.407 241.037C578.271 241.037 578.721 240.569 578.721 240.029C578.721 239.561 578.397 239.201 577.695 239.057L576.399 238.769C574.851 238.427 574.041 237.419 574.041 236.213C574.041 234.683 575.445 233.387 577.263 233.387C579.711 233.387 580.503 234.971 580.647 235.835L578.883 236.339C578.811 235.835 578.433 235.025 577.263 235.025C576.525 235.025 576.003 235.493 576.003 236.033C576.003 236.501 576.345 236.843 576.885 236.951L578.217 237.221C579.873 237.581 580.737 238.589 580.737 239.885C580.737 241.217 579.657 242.693 577.425 242.693C574.887 242.693 573.915 241.037 573.807 240.047Z" fill="black"/>
<path d="M582.144 240.047C582.144 238.481 583.296 237.617 584.79 237.401L587.04 237.059C587.544 236.987 587.688 236.735 587.688 236.429C587.688 235.691 587.184 235.097 586.032 235.097C584.934 235.097 584.322 235.799 584.232 236.681L582.324 236.249C582.486 234.737 583.854 233.387 586.014 233.387C588.714 233.387 589.74 234.917 589.74 236.663V241.019C589.74 241.811 589.83 242.333 589.848 242.423H587.904C587.886 242.369 587.814 242.009 587.814 241.307C587.4 241.973 586.536 242.693 585.114 242.693C583.278 242.693 582.144 241.433 582.144 240.047ZM585.51 241.055C586.68 241.055 587.688 240.497 587.688 238.787V238.391L585.402 238.733C584.754 238.841 584.232 239.201 584.232 239.921C584.232 240.515 584.682 241.055 585.51 241.055Z" fill="black"/>
<path d="M600.096 233.657L596.658 242.423H594.57L591.006 233.657H593.31L595.632 239.921L597.9 233.657H600.096Z" fill="black"/>
<path d="M603.703 242.423H601.633V233.657H603.703V242.423ZM601.309 230.579C601.309 229.823 601.921 229.211 602.659 229.211C603.415 229.211 604.027 229.823 604.027 230.579C604.027 231.335 603.415 231.929 602.659 231.929C601.921 231.929 601.309 231.335 601.309 230.579Z" fill="black"/>
<path d="M608.485 237.365V242.423H606.397V233.657H608.431V234.827C609.007 233.819 610.051 233.405 611.023 233.405C613.165 233.405 614.191 234.953 614.191 236.879V242.423H612.103V237.239C612.103 236.159 611.617 235.295 610.303 235.295C609.115 235.295 608.485 236.213 608.485 237.365Z" fill="black"/>
<path d="M616.103 242.909L618.029 242.405C618.173 243.485 619.019 244.295 620.225 244.295C621.881 244.295 622.709 243.449 622.709 241.667V240.749C622.331 241.433 621.449 242.027 620.171 242.027C617.831 242.027 616.121 240.227 616.121 237.761C616.121 235.421 617.759 233.495 620.171 233.495C621.539 233.495 622.385 234.053 622.763 234.773V233.657H624.779V241.595C624.779 243.935 623.573 246.113 620.279 246.113C617.957 246.113 616.337 244.673 616.103 242.909ZM620.513 240.245C621.845 240.245 622.763 239.273 622.763 237.761C622.763 236.267 621.809 235.295 620.513 235.295C619.181 235.295 618.227 236.267 618.227 237.761C618.227 239.291 619.145 240.245 620.513 240.245Z" fill="black"/>
</g>
<g filter="url(#filter5_d_2450_983)">
<rect x="76.3882" y="442.406" width="136.583" height="54" rx="27" fill="white" shape-rendering="crispEdges"/>
<circle cx="103.388" cy="469.406" r="19" fill="#3EA0FD"/>
<g clip-path="url(#clip5_2450_983)">
<path d="M94.519 475.74C94.519 476.412 94.7859 477.057 95.261 477.532C95.7361 478.007 96.3805 478.274 97.0524 478.274C97.7243 478.274 98.3686 478.007 98.8437 477.532C99.3188 477.057 99.5857 476.412 99.5857 475.74C99.5857 475.068 99.3188 474.424 98.8437 473.949C98.3686 473.474 97.7243 473.207 97.0524 473.207C96.3805 473.207 95.7361 473.474 95.261 473.949C94.7859 474.424 94.519 475.068 94.519 475.74Z" stroke="white" stroke-width="1.5" stroke-linecap="round" stroke-linejoin="round"/>
<path d="M107.186 475.74C107.186 476.412 107.452 477.057 107.928 477.532C108.403 478.007 109.047 478.274 109.719 478.274C110.391 478.274 111.035 478.007 111.51 477.532C111.985 477.057 112.252 476.412 112.252 475.74C112.252 475.068 111.985 474.424 111.51 473.949C111.035 473.474 110.391 473.207 109.719 473.207C109.047 473.207 108.403 473.474 107.928 473.949C107.452 474.424 107.186 475.068 107.186 475.74Z" stroke="white" stroke-width="1.5" stroke-linecap="round" stroke-linejoin="round"/>
<path d="M94.5187 475.74H91.9854V468.14M91.9854 468.14L94.5187 461.807H105.919L110.985 468.14M91.9854 468.14H110.985M110.985 468.14H112.252C112.924 468.14 113.568 468.407 114.043 468.882C114.518 469.357 114.785 470.001 114.785 470.673V475.74H112.252M107.185 475.74H99.5854M103.385 468.14V461.807" stroke="white" stroke-width="1.5" stroke-linecap="round" stroke-linejoin="round"/>
</g>
<path d="M142.398 474.167H134.388V461.405H136.548V472.115H142.398V474.167Z" fill="black"/>
<path d="M145.615 468.821H149.917C149.881 467.795 149.197 466.877 147.757 466.877C146.443 466.877 145.687 467.885 145.615 468.821ZM150.151 471.107L151.915 471.665C151.447 473.195 150.061 474.437 147.955 474.437C145.579 474.437 143.473 472.709 143.473 469.739C143.473 466.967 145.525 465.131 147.739 465.131C150.439 465.131 152.023 466.913 152.023 469.685C152.023 470.027 151.987 470.315 151.969 470.351H145.561C145.615 471.683 146.659 472.637 147.955 472.637C149.215 472.637 149.863 471.971 150.151 471.107Z" fill="black"/>
<path d="M153.479 471.791C153.479 470.225 154.631 469.361 156.125 469.145L158.375 468.803C158.879 468.731 159.023 468.479 159.023 468.173C159.023 467.435 158.519 466.841 157.367 466.841C156.269 466.841 155.657 467.543 155.567 468.425L153.659 467.993C153.821 466.481 155.189 465.131 157.349 465.131C160.049 465.131 161.075 466.661 161.075 468.407V472.763C161.075 473.555 161.165 474.077 161.183 474.167H159.239C159.221 474.113 159.149 473.753 159.149 473.051C158.735 473.717 157.871 474.437 156.449 474.437C154.613 474.437 153.479 473.177 153.479 471.791ZM156.845 472.799C158.015 472.799 159.023 472.241 159.023 470.531V470.135L156.737 470.477C156.089 470.585 155.567 470.945 155.567 471.665C155.567 472.259 156.017 472.799 156.845 472.799Z" fill="black"/>
<path d="M162.825 471.791L164.643 471.287C164.715 472.079 165.309 472.781 166.425 472.781C167.289 472.781 167.739 472.313 167.739 471.773C167.739 471.305 167.415 470.945 166.713 470.801L165.417 470.513C163.869 470.171 163.059 469.163 163.059 467.957C163.059 466.427 164.463 465.131 166.281 465.131C168.729 465.131 169.521 466.715 169.665 467.579L167.901 468.083C167.829 467.579 167.451 466.769 166.281 466.769C165.543 466.769 165.021 467.237 165.021 467.777C165.021 468.245 165.363 468.587 165.903 468.695L167.235 468.965C168.891 469.325 169.755 470.333 169.755 471.629C169.755 472.961 168.675 474.437 166.443 474.437C163.905 474.437 162.933 472.781 162.825 471.791Z" fill="black"/>
<path d="M173.895 474.167H171.825V465.401H173.895V474.167ZM171.501 462.323C171.501 461.567 172.113 460.955 172.851 460.955C173.607 460.955 174.219 461.567 174.219 462.323C174.219 463.079 173.607 463.673 172.851 463.673C172.113 463.673 171.501 463.079 171.501 462.323Z" fill="black"/>
<path d="M178.677 469.109V474.167H176.589V465.401H178.623V466.571C179.199 465.563 180.243 465.149 181.215 465.149C183.357 465.149 184.383 466.697 184.383 468.623V474.167H182.295V468.983C182.295 467.903 181.809 467.039 180.495 467.039C179.307 467.039 178.677 467.957 178.677 469.109Z" fill="black"/>
<path d="M186.295 474.653L188.221 474.149C188.365 475.229 189.211 476.039 190.417 476.039C192.073 476.039 192.901 475.193 192.901 473.411V472.493C192.523 473.177 191.641 473.771 190.363 473.771C188.023 473.771 186.313 471.971 186.313 469.505C186.313 467.165 187.951 465.239 190.363 465.239C191.731 465.239 192.577 465.797 192.955 466.517V465.401H194.971V473.339C194.971 475.679 193.765 477.857 190.471 477.857C188.149 477.857 186.529 476.417 186.295 474.653ZM190.705 471.989C192.037 471.989 192.955 471.017 192.955 469.505C192.955 468.011 192.001 467.039 190.705 467.039C189.373 467.039 188.419 468.011 188.419 469.505C188.419 471.035 189.337 471.989 190.705 471.989Z" fill="black"/>
</g>
<circle cx="106.219" cy="364.26" r="26.0606" fill="#FFCC81"/>
<g clip-path="url(#clip6_2450_983)">
<path d="M94.6377 375.843H100.429L115.631 360.641C116.011 360.261 116.313 359.809 116.519 359.313C116.724 358.816 116.83 358.283 116.83 357.745C116.83 357.208 116.724 356.675 116.519 356.178C116.313 355.681 116.011 355.23 115.631 354.85C115.251 354.47 114.799 354.168 114.302 353.962C113.806 353.756 113.273 353.65 112.735 353.65C112.198 353.65 111.665 353.756 111.168 353.962C110.671 354.168 110.22 354.47 109.84 354.85L94.6377 370.052V375.843Z" stroke="white" stroke-width="1.5" stroke-linecap="round" stroke-linejoin="round"/>
<path d="M108.392 356.297L114.183 362.088" stroke="white" stroke-width="1.5" stroke-linecap="round" stroke-linejoin="round"/>
</g>
<circle cx="183.027" cy="137.945" r="26.0606" fill="#3397F6"/>
<g clip-path="url(#clip7_2450_983)">
<path d="M183.028 127.811V148.08" stroke="white" stroke-width="1.5" stroke-linecap="round" stroke-linejoin="round"/>
<path d="M172.894 137.945H193.163" stroke="white" stroke-width="1.5" stroke-linecap="round" stroke-linejoin="round"/>
</g>
<circle cx="527.301" cy="132.457" r="26.0606" fill="#FF6822"/>
<g clip-path="url(#clip8_2450_983)">
<path d="M535.531 124.229L519.071 140.688" stroke="white" stroke-width="1.5" stroke-linecap="round" stroke-linejoin="round"/>
<path d="M519.071 124.229L535.531 140.688" stroke="white" stroke-width="1.5" stroke-linecap="round" stroke-linejoin="round"/>
</g>
<circle cx="616.459" cy="364.26" r="26.0606" fill="#97EB91"/>
<g clip-path="url(#clip9_2450_983)">
<path d="M606.857 364.26L613.715 371.118L627.431 357.402" stroke="white" stroke-width="1.5" stroke-linecap="round" stroke-linejoin="round"/>
</g>
<path d="M363.118 405.596C319.87 405.596 284.82 370.538 284.82 327.293C284.82 284.047 319.88 249 363.118 249C406.366 249 441.416 284.058 441.416 327.293C441.416 370.538 406.355 405.596 363.118 405.596Z" fill="white"/>
<g clip-path="url(#clip10_2450_983)">
<path d="M367.205 326.914L374.084 323.024L374.084 305.597L335.992 326.818L335.82 326.911L389.82 357L389.82 339.573L367.205 326.914Z" fill="black"/>
<path d="M376.518 329.317L389.82 336.932L389.82 297L376.518 304.533L376.518 329.317Z" fill="#4DBDFC"/>
</g>
<defs>
<filter id="filter0_d_2450_983" x="215.444" y="0" width="255.123" height="154" filterUnits="userSpaceOnUse" color-interpolation-filters="sRGB">
<feFlood flood-opacity="0" result="BackgroundImageFix"/>
<feColorMatrix in="SourceAlpha" type="matrix" values="0 0 0 0 0 0 0 0 0 0 0 0 0 0 0 0 0 0 127 0" result="hardAlpha"/>
<feOffset dy="4"/>
<feGaussianBlur stdDeviation="25"/>
<feComposite in2="hardAlpha" operator="out"/>
<feColorMatrix type="matrix" values="0 0 0 0 0 0 0 0 0 0 0 0 0 0 0 0 0 0 0.1 0"/>
<feBlend mode="normal" in2="BackgroundImageFix" result="effect1_dropShadow_2450_983"/>
<feBlend mode="normal" in="SourceGraphic" in2="effect1_dropShadow_2450_983" result="shape"/>
</filter>
<filter id="filter1_d_2450_983" x="191.05" y="498.863" width="294.672" height="154" filterUnits="userSpaceOnUse" color-interpolation-filters="sRGB">
<feFlood flood-opacity="0" result="BackgroundImageFix"/>
<feColorMatrix in="SourceAlpha" type="matrix" values="0 0 0 0 0 0 0 0 0 0 0 0 0 0 0 0 0 0 127 0" result="hardAlpha"/>
<feOffset dy="4"/>
<feGaussianBlur stdDeviation="25"/>
<feComposite in2="hardAlpha" operator="out"/>
<feColorMatrix type="matrix" values="0 0 0 0 0 0 0 0 0 0 0 0 0 0 0 0 0 0 0.1 0"/>
<feBlend mode="normal" in2="BackgroundImageFix" result="effect1_dropShadow_2450_983"/>
<feBlend mode="normal" in="SourceGraphic" in2="effect1_dropShadow_2450_983" result="shape"/>
</filter>
<filter id="filter2_d_2450_983" x="0.774902" y="164.662" width="277.713" height="154" filterUnits="userSpaceOnUse" color-interpolation-filters="sRGB">
<feFlood flood-opacity="0" result="BackgroundImageFix"/>
<feColorMatrix in="SourceAlpha" type="matrix" values="0 0 0 0 0 0 0 0 0 0 0 0 0 0 0 0 0 0 127 0" result="hardAlpha"/>
<feOffset dy="4"/>
<feGaussianBlur stdDeviation="25"/>
<feComposite in2="hardAlpha" operator="out"/>
<feColorMatrix type="matrix" values="0 0 0 0 0 0 0 0 0 0 0 0 0 0 0 0 0 0 0.1 0"/>
<feBlend mode="normal" in2="BackgroundImageFix" result="effect1_dropShadow_2450_983"/>
<feBlend mode="normal" in="SourceGraphic" in2="effect1_dropShadow_2450_983" result="shape"/>
</filter>
<filter id="filter3_d_2450_983" x="372.788" y="396.406" width="268.086" height="154" filterUnits="userSpaceOnUse" color-interpolation-filters="sRGB">
<feFlood flood-opacity="0" result="BackgroundImageFix"/>
<feColorMatrix in="SourceAlpha" type="matrix" values="0 0 0 0 0 0 0 0 0 0 0 0 0 0 0 0 0 0 127 0" result="hardAlpha"/>
<feOffset dy="4"/>
<feGaussianBlur stdDeviation="25"/>
<feComposite in2="hardAlpha" operator="out"/>
<feColorMatrix type="matrix" values="0 0 0 0 0 0 0 0 0 0 0 0 0 0 0 0 0 0 0.1 0"/>
<feBlend mode="normal" in2="BackgroundImageFix" result="effect1_dropShadow_2450_983"/>
<feBlend mode="normal" in="SourceGraphic" in2="effect1_dropShadow_2450_983" result="shape"/>
</filter>
<filter id="filter4_d_2450_983" x="408.159" y="164.662" width="284.62" height="154" filterUnits="userSpaceOnUse" color-interpolation-filters="sRGB">
<feFlood flood-opacity="0" result="BackgroundImageFix"/>
<feColorMatrix in="SourceAlpha" type="matrix" values="0 0 0 0 0 0 0 0 0 0 0 0 0 0 0 0 0 0 127 0" result="hardAlpha"/>
<feOffset dy="4"/>
<feGaussianBlur stdDeviation="25"/>
<feComposite in2="hardAlpha" operator="out"/>
<feColorMatrix type="matrix" values="0 0 0 0 0 0 0 0 0 0 0 0 0 0 0 0 0 0 0.1 0"/>
<feBlend mode="normal" in2="BackgroundImageFix" result="effect1_dropShadow_2450_983"/>
<feBlend mode="normal" in="SourceGraphic" in2="effect1_dropShadow_2450_983" result="shape"/>
</filter>
<filter id="filter5_d_2450_983" x="26.3882" y="396.406" width="236.583" height="154" filterUnits="userSpaceOnUse" color-interpolation-filters="sRGB">
<feFlood flood-opacity="0" result="BackgroundImageFix"/>
<feColorMatrix in="SourceAlpha" type="matrix" values="0 0 0 0 0 0 0 0 0 0 0 0 0 0 0 0 0 0 127 0" result="hardAlpha"/>
<feOffset dy="4"/>
<feGaussianBlur stdDeviation="25"/>
<feComposite in2="hardAlpha" operator="out"/>
<feColorMatrix type="matrix" values="0 0 0 0 0 0 0 0 0 0 0 0 0 0 0 0 0 0 0.1 0"/>
<feBlend mode="normal" in2="BackgroundImageFix" result="effect1_dropShadow_2450_983"/>
<feBlend mode="normal" in="SourceGraphic" in2="effect1_dropShadow_2450_983" result="shape"/>
</filter>
<clipPath id="clip0_2450_983">
<rect width="28.5" height="28.5" fill="white" transform="translate(278.194 58.75)"/>
</clipPath>
<clipPath id="clip1_2450_983">
<rect width="30.4" height="30.4" fill="white" transform="translate(252.848 556.664)"/>
</clipPath>
<clipPath id="clip2_2450_983">
<rect width="30.4" height="30.4" fill="white" transform="translate(62.5723 222.463)"/>
</clipPath>
<clipPath id="clip3_2450_983">
<rect width="30.4" height="30.4" fill="white" transform="translate(434.585 454.207)"/>
</clipPath>
<clipPath id="clip4_2450_983">
<rect width="30.4" height="30.4" fill="white" transform="translate(469.956 222.463)"/>
</clipPath>
<clipPath id="clip5_2450_983">
<rect width="30.4" height="30.4" fill="white" transform="translate(88.1855 454.207)"/>
</clipPath>
<clipPath id="clip6_2450_983">
<rect width="34.7475" height="34.7475" fill="white" transform="translate(88.8467 346.887)"/>
</clipPath>
<clipPath id="clip7_2450_983">
<rect width="34.7475" height="34.7475" fill="white" transform="translate(165.654 120.572)"/>
</clipPath>
<clipPath id="clip8_2450_983">
<rect width="32.9187" height="32.9187" fill="white" transform="translate(510.842 115.998)"/>
</clipPath>
<clipPath id="clip9_2450_983">
<rect width="32.9187" height="32.9187" fill="white" transform="translate(599.999 347.801)"/>
</clipPath>
<clipPath id="clip10_2450_983">
<rect width="60" height="54" fill="white" transform="translate(335.82 357) rotate(-90)"/>
</clipPath>
</defs>
</svg>