<svg width="338" height="175" viewBox="0 0 338 175" fill="none" xmlns="http://www.w3.org/2000/svg">
<g filter="url(#filter0_d_2541_1900)">
<rect x="50.6221" y="46.0449" width="237.344" height="74" rx="16" fill="white" shape-rendering="crispEdges"/>
<rect x="65.6221" y="61.0449" width="44" height="44" rx="10" fill="#62D264"/>
<mask id="mask0_2541_1900" style="mask-type:alpha" maskUnits="userSpaceOnUse" x="73" y="69" width="29" height="29">
<rect x="73.2675" y="69.8516" width="28" height="28" fill="#D9D9D9"/>
</mask>
<g mask="url(#mask0_2541_1900)">
<path d="M86.101 81.5189C86.7427 81.5189 87.292 81.2904 87.7489 80.8335C88.2059 80.3765 88.4344 79.8272 88.4344 79.1855C88.4344 78.5439 88.2059 77.9946 87.7489 77.5376C87.292 77.0807 86.7427 76.8522 86.101 76.8522C85.4594 76.8522 84.9101 77.0807 84.4531 77.5376C83.9962 77.9946 83.7677 78.5439 83.7677 79.1855C83.7677 79.8272 83.9962 80.3765 84.4531 80.8335C84.9101 81.2904 85.4594 81.5189 86.101 81.5189ZM86.101 86.1855C86.976 86.1855 87.7976 86.0008 88.5656 85.6314C89.3337 85.2619 89.9996 84.7369 90.5635 84.0564C89.883 83.6092 89.1684 83.2689 88.4198 83.0355C87.6712 82.8022 86.8983 82.6855 86.101 82.6855C85.3038 82.6855 84.5309 82.8022 83.7823 83.0355C83.0337 83.2689 82.3191 83.6092 81.6385 84.0564C82.2024 84.7369 82.8684 85.2619 83.6364 85.6314C84.4045 86.0008 85.226 86.1855 86.101 86.1855ZM97.301 94.3522L91.8177 88.8689C91.0205 89.4911 90.1406 89.9772 89.1781 90.3272C88.2156 90.6772 87.1899 90.8522 86.101 90.8522C83.4955 90.8522 81.2885 89.948 79.4802 88.1397C77.6719 86.3314 76.7677 84.1244 76.7677 81.5189C76.7677 78.9133 77.6719 76.7064 79.4802 74.898C81.2885 73.0897 83.4955 72.1855 86.101 72.1855C88.7066 72.1855 90.9135 73.0897 92.7219 74.898C94.5302 76.7064 95.4344 78.9133 95.4344 81.5189C95.4344 82.6078 95.2594 83.6335 94.9094 84.596C94.5594 85.5585 94.0733 86.4383 93.451 87.2355L98.9344 92.7189L97.301 94.3522ZM86.101 88.5189C88.0455 88.5189 89.6983 87.8383 91.0594 86.4772C92.4205 85.1161 93.101 83.4633 93.101 81.5189C93.101 79.5744 92.4205 77.9217 91.0594 76.5605C89.6983 75.1994 88.0455 74.5189 86.101 74.5189C84.1566 74.5189 82.5038 75.1994 81.1427 76.5605C79.7816 77.9217 79.101 79.5744 79.101 81.5189C79.101 83.4633 79.7816 85.1161 81.1427 86.4772C82.5038 87.8383 84.1566 88.5189 86.101 88.5189Z" fill="white"/>
</g>
<path d="M125.867 79.0449V68.5449H129.572C130.292 68.5449 130.927 68.6899 131.477 68.9799C132.027 69.2699 132.457 69.6749 132.767 70.1949C133.077 70.7049 133.232 71.2999 133.232 71.9799C133.232 72.6399 133.087 73.2299 132.797 73.7499C132.507 74.2699 132.102 74.6799 131.582 74.9799C131.072 75.2699 130.477 75.4149 129.797 75.4149H127.607V79.0449H125.867ZM127.607 73.8099H129.767C130.267 73.8099 130.677 73.6399 130.997 73.2999C131.317 72.9599 131.477 72.5199 131.477 71.9799C131.477 71.4299 131.297 70.9849 130.937 70.6449C130.577 70.3049 130.112 70.1349 129.542 70.1349H127.607V73.8099ZM137.912 79.2249C137.162 79.2249 136.492 79.0599 135.902 78.7299C135.322 78.3899 134.867 77.9249 134.537 77.3349C134.207 76.7449 134.042 76.0649 134.042 75.2949C134.042 74.5249 134.202 73.8449 134.522 73.2549C134.852 72.6649 135.307 72.2049 135.887 71.8749C136.467 71.5349 137.132 71.3649 137.882 71.3649C138.632 71.3649 139.297 71.5349 139.877 71.8749C140.457 72.2049 140.907 72.6649 141.227 73.2549C141.557 73.8449 141.722 74.5249 141.722 75.2949C141.722 76.0649 141.562 76.7449 141.242 77.3349C140.922 77.9249 140.472 78.3899 139.892 78.7299C139.312 79.0599 138.652 79.2249 137.912 79.2249ZM137.912 77.6799C138.322 77.6799 138.687 77.5799 139.007 77.3799C139.327 77.1699 139.577 76.8899 139.757 76.5399C139.937 76.1799 140.027 75.7649 140.027 75.2949C140.027 74.8249 139.932 74.4149 139.742 74.0649C139.562 73.7049 139.312 73.4249 138.992 73.2249C138.672 73.0149 138.302 72.9099 137.882 72.9099C137.462 72.9099 137.092 73.0099 136.772 73.2099C136.452 73.4099 136.202 73.6899 136.022 74.0499C135.842 74.4099 135.752 74.8249 135.752 75.2949C135.752 75.7649 135.842 76.1799 136.022 76.5399C136.212 76.8899 136.467 77.1699 136.787 77.3799C137.117 77.5799 137.492 77.6799 137.912 77.6799ZM144.438 75.0549C144.438 74.2449 144.593 73.5799 144.903 73.0599C145.213 72.5399 145.613 72.1549 146.103 71.9049C146.603 71.6449 147.123 71.5149 147.663 71.5149V73.1199C147.203 73.1199 146.768 73.1849 146.358 73.3149C145.958 73.4349 145.633 73.6349 145.383 73.9149C145.133 74.1949 145.008 74.5649 145.008 75.0249L144.438 75.0549ZM143.328 79.0449V71.5449H145.008V79.0449H143.328ZM151.912 79.2249C151.122 79.2249 150.517 79.0299 150.097 78.6399C149.687 78.2399 149.482 77.6699 149.482 76.9299V69.2049H151.147V76.6149C151.147 76.9649 151.227 77.2299 151.387 77.4099C151.557 77.5899 151.802 77.6799 152.122 77.6799C152.222 77.6799 152.332 77.6599 152.452 77.6199C152.572 77.5799 152.707 77.5049 152.857 77.3949L153.472 78.6699C153.212 78.8499 152.952 78.9849 152.692 79.0749C152.432 79.1749 152.172 79.2249 151.912 79.2249ZM148.237 72.9849V71.5449H153.172V72.9849H148.237ZM155.716 79.0449V70.7499C155.716 69.9599 155.911 69.3549 156.301 68.9349C156.701 68.5049 157.301 68.2899 158.101 68.2899C158.361 68.2899 158.636 68.3349 158.926 68.4249C159.226 68.5049 159.511 68.6149 159.781 68.7549L159.166 69.9999C158.976 69.9099 158.806 69.8449 158.656 69.8049C158.516 69.7649 158.391 69.7449 158.281 69.7449C157.981 69.7449 157.756 69.8449 157.606 70.0449C157.466 70.2349 157.396 70.5499 157.396 70.9899V79.0449H155.716ZM154.426 72.9249V71.5449H159.361V72.9249H154.426ZM164.191 79.2249C163.441 79.2249 162.771 79.0599 162.181 78.7299C161.601 78.3899 161.146 77.9249 160.816 77.3349C160.486 76.7449 160.321 76.0649 160.321 75.2949C160.321 74.5249 160.481 73.8449 160.801 73.2549C161.131 72.6649 161.586 72.2049 162.166 71.8749C162.746 71.5349 163.411 71.3649 164.161 71.3649C164.911 71.3649 165.576 71.5349 166.156 71.8749C166.736 72.2049 167.186 72.6649 167.506 73.2549C167.836 73.8449 168.001 74.5249 168.001 75.2949C168.001 76.0649 167.841 76.7449 167.521 77.3349C167.201 77.9249 166.751 78.3899 166.171 78.7299C165.591 79.0599 164.931 79.2249 164.191 79.2249ZM164.191 77.6799C164.601 77.6799 164.966 77.5799 165.286 77.3799C165.606 77.1699 165.856 76.8899 166.036 76.5399C166.216 76.1799 166.306 75.7649 166.306 75.2949C166.306 74.8249 166.211 74.4149 166.021 74.0649C165.841 73.7049 165.591 73.4249 165.271 73.2249C164.951 73.0149 164.581 72.9099 164.161 72.9099C163.741 72.9099 163.371 73.0099 163.051 73.2099C162.731 73.4099 162.481 73.6899 162.301 74.0499C162.121 74.4099 162.031 74.8249 162.031 75.2949C162.031 75.7649 162.121 76.1799 162.301 76.5399C162.491 76.8899 162.746 77.1699 163.066 77.3799C163.396 77.5799 163.771 77.6799 164.191 77.6799ZM169.606 79.0449V68.5449H171.286V79.0449H169.606ZM173.406 79.0449V71.5449H175.071V79.0449H173.406ZM174.246 70.1199C173.976 70.1199 173.741 70.0249 173.541 69.8349C173.351 69.6349 173.256 69.3999 173.256 69.1299C173.256 68.8599 173.351 68.6299 173.541 68.4399C173.741 68.2499 173.976 68.1549 174.246 68.1549C174.516 68.1549 174.746 68.2499 174.936 68.4399C175.136 68.6299 175.236 68.8599 175.236 69.1299C175.236 69.3999 175.136 69.6349 174.936 69.8349C174.746 70.0249 174.516 70.1199 174.246 70.1199ZM180.651 79.2249C179.901 79.2249 179.231 79.0599 178.641 78.7299C178.061 78.3899 177.606 77.9249 177.276 77.3349C176.946 76.7449 176.781 76.0649 176.781 75.2949C176.781 74.5249 176.941 73.8449 177.261 73.2549C177.591 72.6649 178.046 72.2049 178.626 71.8749C179.206 71.5349 179.871 71.3649 180.621 71.3649C181.371 71.3649 182.036 71.5349 182.616 71.8749C183.196 72.2049 183.646 72.6649 183.966 73.2549C184.296 73.8449 184.461 74.5249 184.461 75.2949C184.461 76.0649 184.301 76.7449 183.981 77.3349C183.661 77.9249 183.211 78.3899 182.631 78.7299C182.051 79.0599 181.391 79.2249 180.651 79.2249ZM180.651 77.6799C181.061 77.6799 181.426 77.5799 181.746 77.3799C182.066 77.1699 182.316 76.8899 182.496 76.5399C182.676 76.1799 182.766 75.7649 182.766 75.2949C182.766 74.8249 182.671 74.4149 182.481 74.0649C182.301 73.7049 182.051 73.4249 181.731 73.2249C181.411 73.0149 181.041 72.9099 180.621 72.9099C180.201 72.9099 179.831 73.0099 179.511 73.2099C179.191 73.4099 178.941 73.6899 178.761 74.0499C178.581 74.4099 178.491 74.8249 178.491 75.2949C178.491 75.7649 178.581 76.1799 178.761 76.5399C178.951 76.8899 179.206 77.1699 179.526 77.3799C179.856 77.5799 180.231 77.6799 180.651 77.6799ZM190.945 75.0549C190.945 74.2449 191.1 73.5799 191.41 73.0599C191.72 72.5399 192.12 72.1549 192.61 71.9049C193.11 71.6449 193.63 71.5149 194.17 71.5149V73.1199C193.71 73.1199 193.275 73.1849 192.865 73.3149C192.465 73.4349 192.14 73.6349 191.89 73.9149C191.64 74.1949 191.515 74.5649 191.515 75.0249L190.945 75.0549ZM189.835 79.0449V71.5449H191.515V79.0449H189.835ZM198.779 79.2249C198.049 79.2249 197.399 79.0599 196.829 78.7299C196.269 78.3899 195.824 77.9249 195.494 77.3349C195.174 76.7449 195.014 76.0649 195.014 75.2949C195.014 74.5249 195.179 73.8449 195.509 73.2549C195.839 72.6649 196.289 72.2049 196.859 71.8749C197.439 71.5349 198.099 71.3649 198.839 71.3649C199.509 71.3649 200.114 71.5399 200.654 71.8899C201.194 72.2299 201.619 72.7249 201.929 73.3749C202.249 74.0249 202.409 74.7999 202.409 75.6999H196.514L196.739 75.4899C196.739 75.9499 196.839 76.3499 197.039 76.6899C197.239 77.0199 197.504 77.2749 197.834 77.4549C198.164 77.6349 198.529 77.7249 198.929 77.7249C199.389 77.7249 199.769 77.6249 200.069 77.4249C200.369 77.2149 200.604 76.9449 200.774 76.6149L202.259 77.2449C202.049 77.6449 201.779 77.9949 201.449 78.2949C201.129 78.5949 200.744 78.8249 200.294 78.9849C199.854 79.1449 199.349 79.2249 198.779 79.2249ZM196.844 74.6199L196.604 74.4099H200.834L200.609 74.6199C200.609 74.2099 200.519 73.8749 200.339 73.6149C200.159 73.3449 199.929 73.1449 199.649 73.0149C199.379 72.8749 199.094 72.8049 198.794 72.8049C198.494 72.8049 198.194 72.8749 197.894 73.0149C197.594 73.1449 197.344 73.3449 197.144 73.6149C196.944 73.8749 196.844 74.2099 196.844 74.6199ZM206.576 79.2249C206.076 79.2249 205.616 79.1499 205.196 78.9999C204.776 78.8499 204.416 78.6399 204.116 78.3699C203.816 78.0899 203.586 77.7649 203.426 77.3949L204.881 76.7499C205.031 77.0299 205.251 77.2649 205.541 77.4549C205.841 77.6449 206.171 77.7399 206.531 77.7399C206.921 77.7399 207.231 77.6749 207.461 77.5449C207.701 77.4049 207.821 77.2149 207.821 76.9749C207.821 76.7449 207.731 76.5699 207.551 76.4499C207.371 76.3199 207.116 76.2149 206.786 76.1349L206.081 75.9399C205.371 75.7599 204.816 75.4749 204.416 75.0849C204.016 74.6849 203.816 74.2299 203.816 73.7199C203.816 72.9699 204.056 72.3899 204.536 71.9799C205.026 71.5699 205.726 71.3649 206.636 71.3649C207.096 71.3649 207.516 71.4349 207.896 71.5749C208.286 71.7049 208.621 71.8949 208.901 72.1449C209.181 72.3849 209.376 72.6699 209.486 72.9999L208.091 73.6299C207.991 73.3799 207.801 73.1899 207.521 73.0599C207.241 72.9199 206.931 72.8499 206.591 72.8499C206.251 72.8499 205.986 72.9249 205.796 73.0749C205.606 73.2149 205.511 73.4149 205.511 73.6749C205.511 73.8249 205.596 73.9649 205.766 74.0949C205.936 74.2149 206.181 74.3149 206.501 74.3949L207.386 74.6049C207.876 74.7249 208.276 74.9149 208.586 75.1749C208.896 75.4249 209.126 75.7099 209.276 76.0299C209.426 76.3399 209.501 76.6549 209.501 76.9749C209.501 77.4249 209.371 77.8199 209.111 78.1599C208.861 78.4999 208.516 78.7649 208.076 78.9549C207.636 79.1349 207.136 79.2249 206.576 79.2249ZM211.059 82.0449V71.5449H212.634L212.739 72.9249V82.0449H211.059ZM215.109 79.2249C214.479 79.2249 213.934 79.0649 213.474 78.7449C213.024 78.4149 212.679 77.9549 212.439 77.3649C212.199 76.7749 212.079 76.0849 212.079 75.2949C212.079 74.4949 212.199 73.8049 212.439 73.2249C212.679 72.6349 213.024 72.1799 213.474 71.8599C213.934 71.5299 214.479 71.3649 215.109 71.3649C215.789 71.3649 216.379 71.5299 216.879 71.8599C217.389 72.1799 217.784 72.6349 218.064 73.2249C218.354 73.8049 218.499 74.4949 218.499 75.2949C218.499 76.0849 218.354 76.7749 218.064 77.3649C217.784 77.9549 217.389 78.4149 216.879 78.7449C216.379 79.0649 215.789 79.2249 215.109 79.2249ZM214.689 77.6949C215.089 77.6949 215.444 77.5949 215.754 77.3949C216.064 77.1849 216.309 76.8999 216.489 76.5399C216.679 76.1799 216.774 75.7649 216.774 75.2949C216.774 74.8249 216.684 74.4099 216.504 74.0499C216.334 73.6899 216.094 73.4099 215.784 73.2099C215.474 73.0099 215.114 72.9099 214.704 72.9099C214.324 72.9099 213.984 73.0099 213.684 73.2099C213.384 73.4099 213.149 73.6899 212.979 74.0499C212.819 74.4099 212.739 74.8249 212.739 75.2949C212.739 75.7649 212.819 76.1799 212.979 76.5399C213.149 76.8999 213.379 77.1849 213.669 77.3949C213.969 77.5949 214.309 77.6949 214.689 77.6949ZM223.534 79.2249C222.784 79.2249 222.114 79.0599 221.524 78.7299C220.944 78.3899 220.489 77.9249 220.159 77.3349C219.829 76.7449 219.664 76.0649 219.664 75.2949C219.664 74.5249 219.824 73.8449 220.144 73.2549C220.474 72.6649 220.929 72.2049 221.509 71.8749C222.089 71.5349 222.754 71.3649 223.504 71.3649C224.254 71.3649 224.919 71.5349 225.499 71.8749C226.079 72.2049 226.529 72.6649 226.849 73.2549C227.179 73.8449 227.344 74.5249 227.344 75.2949C227.344 76.0649 227.184 76.7449 226.864 77.3349C226.544 77.9249 226.094 78.3899 225.514 78.7299C224.934 79.0599 224.274 79.2249 223.534 79.2249ZM223.534 77.6799C223.944 77.6799 224.309 77.5799 224.629 77.3799C224.949 77.1699 225.199 76.8899 225.379 76.5399C225.559 76.1799 225.649 75.7649 225.649 75.2949C225.649 74.8249 225.554 74.4149 225.364 74.0649C225.184 73.7049 224.934 73.4249 224.614 73.2249C224.294 73.0149 223.924 72.9099 223.504 72.9099C223.084 72.9099 222.714 73.0099 222.394 73.2099C222.074 73.4099 221.824 73.6899 221.644 74.0499C221.464 74.4099 221.374 74.8249 221.374 75.2949C221.374 75.7649 221.464 76.1799 221.644 76.5399C221.834 76.8899 222.089 77.1699 222.409 77.3799C222.739 77.5799 223.114 77.6799 223.534 77.6799ZM228.95 79.0449V71.5449H230.525L230.63 72.9249V79.0449H228.95ZM234.035 79.0449V75.2049H235.715V79.0449H234.035ZM234.035 75.2049C234.035 74.6049 233.965 74.1449 233.825 73.8249C233.695 73.4949 233.505 73.2649 233.255 73.1349C233.015 73.0049 232.73 72.9399 232.4 72.9399C231.84 72.9299 231.405 73.1149 231.095 73.4949C230.785 73.8749 230.63 74.4199 230.63 75.1299H230C230 74.3399 230.115 73.6649 230.345 73.1049C230.575 72.5349 230.905 72.1049 231.335 71.8149C231.765 71.5149 232.275 71.3649 232.865 71.3649C233.465 71.3649 233.975 71.4849 234.395 71.7249C234.825 71.9649 235.15 72.3399 235.37 72.8499C235.6 73.3499 235.715 74.0049 235.715 74.8149V75.2049H234.035ZM240.296 79.2249C239.796 79.2249 239.336 79.1499 238.916 78.9999C238.496 78.8499 238.136 78.6399 237.836 78.3699C237.536 78.0899 237.306 77.7649 237.146 77.3949L238.601 76.7499C238.751 77.0299 238.971 77.2649 239.261 77.4549C239.561 77.6449 239.891 77.7399 240.251 77.7399C240.641 77.7399 240.951 77.6749 241.181 77.5449C241.421 77.4049 241.541 77.2149 241.541 76.9749C241.541 76.7449 241.451 76.5699 241.271 76.4499C241.091 76.3199 240.836 76.2149 240.506 76.1349L239.801 75.9399C239.091 75.7599 238.536 75.4749 238.136 75.0849C237.736 74.6849 237.536 74.2299 237.536 73.7199C237.536 72.9699 237.776 72.3899 238.256 71.9799C238.746 71.5699 239.446 71.3649 240.356 71.3649C240.816 71.3649 241.236 71.4349 241.616 71.5749C242.006 71.7049 242.341 71.8949 242.621 72.1449C242.901 72.3849 243.096 72.6699 243.206 72.9999L241.811 73.6299C241.711 73.3799 241.521 73.1899 241.241 73.0599C240.961 72.9199 240.651 72.8499 240.311 72.8499C239.971 72.8499 239.706 72.9249 239.516 73.0749C239.326 73.2149 239.231 73.4149 239.231 73.6749C239.231 73.8249 239.316 73.9649 239.486 74.0949C239.656 74.2149 239.901 74.3149 240.221 74.3949L241.106 74.6049C241.596 74.7249 241.996 74.9149 242.306 75.1749C242.616 75.4249 242.846 75.7099 242.996 76.0299C243.146 76.3399 243.221 76.6549 243.221 76.9749C243.221 77.4249 243.091 77.8199 242.831 78.1599C242.581 78.4999 242.236 78.7649 241.796 78.9549C241.356 79.1349 240.856 79.2249 240.296 79.2249ZM248.049 79.2249C247.319 79.2249 246.669 79.0599 246.099 78.7299C245.539 78.3899 245.094 77.9249 244.764 77.3349C244.444 76.7449 244.284 76.0649 244.284 75.2949C244.284 74.5249 244.449 73.8449 244.779 73.2549C245.109 72.6649 245.559 72.2049 246.129 71.8749C246.709 71.5349 247.369 71.3649 248.109 71.3649C248.779 71.3649 249.384 71.5399 249.924 71.8899C250.464 72.2299 250.889 72.7249 251.199 73.3749C251.519 74.0249 251.679 74.7999 251.679 75.6999H245.784L246.009 75.4899C246.009 75.9499 246.109 76.3499 246.309 76.6899C246.509 77.0199 246.774 77.2749 247.104 77.4549C247.434 77.6349 247.799 77.7249 248.199 77.7249C248.659 77.7249 249.039 77.6249 249.339 77.4249C249.639 77.2149 249.874 76.9449 250.044 76.6149L251.529 77.2449C251.319 77.6449 251.049 77.9949 250.719 78.2949C250.399 78.5949 250.014 78.8249 249.564 78.9849C249.124 79.1449 248.619 79.2249 248.049 79.2249ZM246.114 74.6199L245.874 74.4099H250.104L249.879 74.6199C249.879 74.2099 249.789 73.8749 249.609 73.6149C249.429 73.3449 249.199 73.1449 248.919 73.0149C248.649 72.8749 248.364 72.8049 248.064 72.8049C247.764 72.8049 247.464 72.8749 247.164 73.0149C246.864 73.1449 246.614 73.3449 246.414 73.6149C246.214 73.8749 246.114 74.2099 246.114 74.6199ZM126.662 93.0549C126.662 92.2449 126.817 91.5799 127.127 91.0599C127.437 90.5399 127.837 90.1549 128.327 89.9049C128.827 89.6449 129.347 89.5149 129.887 89.5149V91.1199C129.427 91.1199 128.992 91.1849 128.582 91.3149C128.182 91.4349 127.857 91.6349 127.607 91.9149C127.357 92.1949 127.232 92.5649 127.232 93.0249L126.662 93.0549ZM125.552 97.0449V89.5449H127.232V97.0449H125.552ZM134.496 97.2249C133.766 97.2249 133.116 97.0599 132.546 96.7299C131.986 96.3899 131.541 95.9249 131.211 95.3349C130.891 94.7449 130.731 94.0649 130.731 93.2949C130.731 92.5249 130.896 91.8449 131.226 91.2549C131.556 90.6649 132.006 90.2049 132.576 89.8749C133.156 89.5349 133.816 89.3649 134.556 89.3649C135.226 89.3649 135.831 89.5399 136.371 89.8899C136.911 90.2299 137.336 90.7249 137.646 91.3749C137.966 92.0249 138.126 92.7999 138.126 93.6999H132.231L132.456 93.4899C132.456 93.9499 132.556 94.3499 132.756 94.6899C132.956 95.0199 133.221 95.2749 133.551 95.4549C133.881 95.6349 134.246 95.7249 134.646 95.7249C135.106 95.7249 135.486 95.6249 135.786 95.4249C136.086 95.2149 136.321 94.9449 136.491 94.6149L137.976 95.2449C137.766 95.6449 137.496 95.9949 137.166 96.2949C136.846 96.5949 136.461 96.8249 136.011 96.9849C135.571 97.1449 135.066 97.2249 134.496 97.2249ZM132.561 92.6199L132.321 92.4099H136.551L136.326 92.6199C136.326 92.2099 136.236 91.8749 136.056 91.6149C135.876 91.3449 135.646 91.1449 135.366 91.0149C135.096 90.8749 134.811 90.8049 134.511 90.8049C134.211 90.8049 133.911 90.8749 133.611 91.0149C133.311 91.1449 133.061 91.3449 132.861 91.6149C132.661 91.8749 132.561 92.2099 132.561 92.6199ZM143.073 97.2249C142.303 97.2249 141.623 97.0599 141.033 96.7299C140.443 96.3899 139.978 95.9249 139.638 95.3349C139.308 94.7449 139.143 94.0649 139.143 93.2949C139.143 92.5249 139.308 91.8449 139.638 91.2549C139.978 90.6649 140.438 90.2049 141.018 89.8749C141.608 89.5349 142.283 89.3649 143.043 89.3649C143.783 89.3649 144.453 89.5449 145.053 89.9049C145.653 90.2549 146.098 90.7599 146.388 91.4199L144.828 92.0199C144.668 91.6899 144.423 91.4249 144.093 91.2249C143.763 91.0249 143.388 90.9249 142.968 90.9249C142.558 90.9249 142.193 91.0299 141.873 91.2399C141.553 91.4399 141.303 91.7199 141.123 92.0799C140.943 92.4299 140.853 92.8349 140.853 93.2949C140.853 93.7549 140.943 94.1649 141.123 94.5249C141.313 94.8749 141.568 95.1549 141.888 95.3649C142.218 95.5649 142.588 95.6649 142.998 95.6649C143.418 95.6649 143.793 95.5599 144.123 95.3499C144.453 95.1299 144.698 94.8349 144.858 94.4649L146.418 95.0649C146.128 95.7449 145.683 96.2749 145.083 96.6549C144.493 97.0349 143.823 97.2249 143.073 97.2249ZM151.217 97.2249C150.487 97.2249 149.837 97.0599 149.267 96.7299C148.707 96.3899 148.262 95.9249 147.932 95.3349C147.612 94.7449 147.452 94.0649 147.452 93.2949C147.452 92.5249 147.617 91.8449 147.947 91.2549C148.277 90.6649 148.727 90.2049 149.297 89.8749C149.877 89.5349 150.537 89.3649 151.277 89.3649C151.947 89.3649 152.552 89.5399 153.092 89.8899C153.632 90.2299 154.057 90.7249 154.367 91.3749C154.687 92.0249 154.847 92.7999 154.847 93.6999H148.952L149.177 93.4899C149.177 93.9499 149.277 94.3499 149.477 94.6899C149.677 95.0199 149.942 95.2749 150.272 95.4549C150.602 95.6349 150.967 95.7249 151.367 95.7249C151.827 95.7249 152.207 95.6249 152.507 95.4249C152.807 95.2149 153.042 94.9449 153.212 94.6149L154.697 95.2449C154.487 95.6449 154.217 95.9949 153.887 96.2949C153.567 96.5949 153.182 96.8249 152.732 96.9849C152.292 97.1449 151.787 97.2249 151.217 97.2249ZM149.282 92.6199L149.042 92.4099H153.272L153.047 92.6199C153.047 92.2099 152.957 91.8749 152.777 91.6149C152.597 91.3449 152.367 91.1449 152.087 91.0149C151.817 90.8749 151.532 90.8049 151.232 90.8049C150.932 90.8049 150.632 90.8749 150.332 91.0149C150.032 91.1449 149.782 91.3449 149.582 91.6149C149.382 91.8749 149.282 92.2099 149.282 92.6199ZM156.389 97.0449V89.5449H158.054V97.0449H156.389ZM157.229 88.1199C156.959 88.1199 156.724 88.0249 156.524 87.8349C156.334 87.6349 156.239 87.3999 156.239 87.1299C156.239 86.8599 156.334 86.6299 156.524 86.4399C156.724 86.2499 156.959 86.1549 157.229 86.1549C157.499 86.1549 157.729 86.2499 157.919 86.4399C158.119 86.6299 158.219 86.8599 158.219 87.1299C158.219 87.3999 158.119 87.6349 157.919 87.8349C157.729 88.0249 157.499 88.1199 157.229 88.1199ZM162.599 97.0449L165.524 89.5449H167.264L164.174 97.0449H162.599ZM162.479 97.0449L159.374 89.5449H161.099L164.039 97.0449H162.479ZM171.604 97.2249C170.874 97.2249 170.224 97.0599 169.654 96.7299C169.094 96.3899 168.649 95.9249 168.319 95.3349C167.999 94.7449 167.839 94.0649 167.839 93.2949C167.839 92.5249 168.004 91.8449 168.334 91.2549C168.664 90.6649 169.114 90.2049 169.684 89.8749C170.264 89.5349 170.924 89.3649 171.664 89.3649C172.334 89.3649 172.939 89.5399 173.479 89.8899C174.019 90.2299 174.444 90.7249 174.754 91.3749C175.074 92.0249 175.234 92.7999 175.234 93.6999H169.339L169.564 93.4899C169.564 93.9499 169.664 94.3499 169.864 94.6899C170.064 95.0199 170.329 95.2749 170.659 95.4549C170.989 95.6349 171.354 95.7249 171.754 95.7249C172.214 95.7249 172.594 95.6249 172.894 95.4249C173.194 95.2149 173.429 94.9449 173.599 94.6149L175.084 95.2449C174.874 95.6449 174.604 95.9949 174.274 96.2949C173.954 96.5949 173.569 96.8249 173.119 96.9849C172.679 97.1449 172.174 97.2249 171.604 97.2249ZM169.669 92.6199L169.429 92.4099H173.659L173.434 92.6199C173.434 92.2099 173.344 91.8749 173.164 91.6149C172.984 91.3449 172.754 91.1449 172.474 91.0149C172.204 90.8749 171.919 90.8049 171.619 90.8049C171.319 90.8049 171.019 90.8749 170.719 91.0149C170.419 91.1449 170.169 91.3449 169.969 91.6149C169.769 91.8749 169.669 92.2099 169.669 92.6199ZM182.085 97.0449L182.01 95.6499V86.5449H183.675V97.0449H182.085ZM179.64 97.2249C178.96 97.2249 178.365 97.0649 177.855 96.7449C177.355 96.4149 176.96 95.9549 176.67 95.3649C176.39 94.7749 176.25 94.0849 176.25 93.2949C176.25 92.4949 176.39 91.8049 176.67 91.2249C176.96 90.6349 177.355 90.1799 177.855 89.8599C178.365 89.5299 178.96 89.3649 179.64 89.3649C180.27 89.3649 180.81 89.5299 181.26 89.8599C181.72 90.1799 182.07 90.6349 182.31 91.2249C182.55 91.8049 182.67 92.4949 182.67 93.2949C182.67 94.0849 182.55 94.7749 182.31 95.3649C182.07 95.9549 181.72 96.4149 181.26 96.7449C180.81 97.0649 180.27 97.2249 179.64 97.2249ZM180.06 95.6949C180.44 95.6949 180.775 95.5949 181.065 95.3949C181.365 95.1849 181.595 94.8999 181.755 94.5399C181.925 94.1799 182.01 93.7649 182.01 93.2949C182.01 92.8249 181.925 92.4099 181.755 92.0499C181.595 91.6899 181.365 91.4099 181.065 91.2099C180.775 91.0099 180.435 90.9099 180.045 90.9099C179.645 90.9099 179.29 91.0099 178.98 91.2099C178.67 91.4099 178.425 91.6899 178.245 92.0499C178.075 92.4099 177.985 92.8249 177.975 93.2949C177.985 93.7649 178.075 94.1799 178.245 94.5399C178.425 94.8999 178.67 95.1849 178.98 95.3949C179.3 95.5949 179.66 95.6949 180.06 95.6949ZM186.238 93.7749L186.133 86.5449H187.978L187.873 93.7749H186.238ZM187.048 97.2699C186.758 97.2699 186.508 97.1649 186.298 96.9549C186.098 96.7449 185.998 96.4949 185.998 96.2049C185.998 95.9149 186.098 95.6699 186.298 95.4699C186.508 95.2599 186.758 95.1549 187.048 95.1549C187.338 95.1549 187.588 95.2599 187.798 95.4699C188.008 95.6699 188.113 95.9149 188.113 96.2049C188.113 96.4949 188.008 96.7449 187.798 96.9549C187.588 97.1649 187.338 97.2699 187.048 97.2699Z" fill="white"/>
<path d="M125.867 79.0449V68.5449H129.572C130.292 68.5449 130.927 68.6899 131.477 68.9799C132.027 69.2699 132.457 69.6749 132.767 70.1949C133.077 70.7049 133.232 71.2999 133.232 71.9799C133.232 72.6399 133.087 73.2299 132.797 73.7499C132.507 74.2699 132.102 74.6799 131.582 74.9799C131.072 75.2699 130.477 75.4149 129.797 75.4149H127.607V79.0449H125.867ZM127.607 73.8099H129.767C130.267 73.8099 130.677 73.6399 130.997 73.2999C131.317 72.9599 131.477 72.5199 131.477 71.9799C131.477 71.4299 131.297 70.9849 130.937 70.6449C130.577 70.3049 130.112 70.1349 129.542 70.1349H127.607V73.8099ZM137.912 79.2249C137.162 79.2249 136.492 79.0599 135.902 78.7299C135.322 78.3899 134.867 77.9249 134.537 77.3349C134.207 76.7449 134.042 76.0649 134.042 75.2949C134.042 74.5249 134.202 73.8449 134.522 73.2549C134.852 72.6649 135.307 72.2049 135.887 71.8749C136.467 71.5349 137.132 71.3649 137.882 71.3649C138.632 71.3649 139.297 71.5349 139.877 71.8749C140.457 72.2049 140.907 72.6649 141.227 73.2549C141.557 73.8449 141.722 74.5249 141.722 75.2949C141.722 76.0649 141.562 76.7449 141.242 77.3349C140.922 77.9249 140.472 78.3899 139.892 78.7299C139.312 79.0599 138.652 79.2249 137.912 79.2249ZM137.912 77.6799C138.322 77.6799 138.687 77.5799 139.007 77.3799C139.327 77.1699 139.577 76.8899 139.757 76.5399C139.937 76.1799 140.027 75.7649 140.027 75.2949C140.027 74.8249 139.932 74.4149 139.742 74.0649C139.562 73.7049 139.312 73.4249 138.992 73.2249C138.672 73.0149 138.302 72.9099 137.882 72.9099C137.462 72.9099 137.092 73.0099 136.772 73.2099C136.452 73.4099 136.202 73.6899 136.022 74.0499C135.842 74.4099 135.752 74.8249 135.752 75.2949C135.752 75.7649 135.842 76.1799 136.022 76.5399C136.212 76.8899 136.467 77.1699 136.787 77.3799C137.117 77.5799 137.492 77.6799 137.912 77.6799ZM144.438 75.0549C144.438 74.2449 144.593 73.5799 144.903 73.0599C145.213 72.5399 145.613 72.1549 146.103 71.9049C146.603 71.6449 147.123 71.5149 147.663 71.5149V73.1199C147.203 73.1199 146.768 73.1849 146.358 73.3149C145.958 73.4349 145.633 73.6349 145.383 73.9149C145.133 74.1949 145.008 74.5649 145.008 75.0249L144.438 75.0549ZM143.328 79.0449V71.5449H145.008V79.0449H143.328ZM151.912 79.2249C151.122 79.2249 150.517 79.0299 150.097 78.6399C149.687 78.2399 149.482 77.6699 149.482 76.9299V69.2049H151.147V76.6149C151.147 76.9649 151.227 77.2299 151.387 77.4099C151.557 77.5899 151.802 77.6799 152.122 77.6799C152.222 77.6799 152.332 77.6599 152.452 77.6199C152.572 77.5799 152.707 77.5049 152.857 77.3949L153.472 78.6699C153.212 78.8499 152.952 78.9849 152.692 79.0749C152.432 79.1749 152.172 79.2249 151.912 79.2249ZM148.237 72.9849V71.5449H153.172V72.9849H148.237ZM155.716 79.0449V70.7499C155.716 69.9599 155.911 69.3549 156.301 68.9349C156.701 68.5049 157.301 68.2899 158.101 68.2899C158.361 68.2899 158.636 68.3349 158.926 68.4249C159.226 68.5049 159.511 68.6149 159.781 68.7549L159.166 69.9999C158.976 69.9099 158.806 69.8449 158.656 69.8049C158.516 69.7649 158.391 69.7449 158.281 69.7449C157.981 69.7449 157.756 69.8449 157.606 70.0449C157.466 70.2349 157.396 70.5499 157.396 70.9899V79.0449H155.716ZM154.426 72.9249V71.5449H159.361V72.9249H154.426ZM164.191 79.2249C163.441 79.2249 162.771 79.0599 162.181 78.7299C161.601 78.3899 161.146 77.9249 160.816 77.3349C160.486 76.7449 160.321 76.0649 160.321 75.2949C160.321 74.5249 160.481 73.8449 160.801 73.2549C161.131 72.6649 161.586 72.2049 162.166 71.8749C162.746 71.5349 163.411 71.3649 164.161 71.3649C164.911 71.3649 165.576 71.5349 166.156 71.8749C166.736 72.2049 167.186 72.6649 167.506 73.2549C167.836 73.8449 168.001 74.5249 168.001 75.2949C168.001 76.0649 167.841 76.7449 167.521 77.3349C167.201 77.9249 166.751 78.3899 166.171 78.7299C165.591 79.0599 164.931 79.2249 164.191 79.2249ZM164.191 77.6799C164.601 77.6799 164.966 77.5799 165.286 77.3799C165.606 77.1699 165.856 76.8899 166.036 76.5399C166.216 76.1799 166.306 75.7649 166.306 75.2949C166.306 74.8249 166.211 74.4149 166.021 74.0649C165.841 73.7049 165.591 73.4249 165.271 73.2249C164.951 73.0149 164.581 72.9099 164.161 72.9099C163.741 72.9099 163.371 73.0099 163.051 73.2099C162.731 73.4099 162.481 73.6899 162.301 74.0499C162.121 74.4099 162.031 74.8249 162.031 75.2949C162.031 75.7649 162.121 76.1799 162.301 76.5399C162.491 76.8899 162.746 77.1699 163.066 77.3799C163.396 77.5799 163.771 77.6799 164.191 77.6799ZM169.606 79.0449V68.5449H171.286V79.0449H169.606ZM173.406 79.0449V71.5449H175.071V79.0449H173.406ZM174.246 70.1199C173.976 70.1199 173.741 70.0249 173.541 69.8349C173.351 69.6349 173.256 69.3999 173.256 69.1299C173.256 68.8599 173.351 68.6299 173.541 68.4399C173.741 68.2499 173.976 68.1549 174.246 68.1549C174.516 68.1549 174.746 68.2499 174.936 68.4399C175.136 68.6299 175.236 68.8599 175.236 69.1299C175.236 69.3999 175.136 69.6349 174.936 69.8349C174.746 70.0249 174.516 70.1199 174.246 70.1199ZM180.651 79.2249C179.901 79.2249 179.231 79.0599 178.641 78.7299C178.061 78.3899 177.606 77.9249 177.276 77.3349C176.946 76.7449 176.781 76.0649 176.781 75.2949C176.781 74.5249 176.941 73.8449 177.261 73.2549C177.591 72.6649 178.046 72.2049 178.626 71.8749C179.206 71.5349 179.871 71.3649 180.621 71.3649C181.371 71.3649 182.036 71.5349 182.616 71.8749C183.196 72.2049 183.646 72.6649 183.966 73.2549C184.296 73.8449 184.461 74.5249 184.461 75.2949C184.461 76.0649 184.301 76.7449 183.981 77.3349C183.661 77.9249 183.211 78.3899 182.631 78.7299C182.051 79.0599 181.391 79.2249 180.651 79.2249ZM180.651 77.6799C181.061 77.6799 181.426 77.5799 181.746 77.3799C182.066 77.1699 182.316 76.8899 182.496 76.5399C182.676 76.1799 182.766 75.7649 182.766 75.2949C182.766 74.8249 182.671 74.4149 182.481 74.0649C182.301 73.7049 182.051 73.4249 181.731 73.2249C181.411 73.0149 181.041 72.9099 180.621 72.9099C180.201 72.9099 179.831 73.0099 179.511 73.2099C179.191 73.4099 178.941 73.6899 178.761 74.0499C178.581 74.4099 178.491 74.8249 178.491 75.2949C178.491 75.7649 178.581 76.1799 178.761 76.5399C178.951 76.8899 179.206 77.1699 179.526 77.3799C179.856 77.5799 180.231 77.6799 180.651 77.6799ZM190.945 75.0549C190.945 74.2449 191.1 73.5799 191.41 73.0599C191.72 72.5399 192.12 72.1549 192.61 71.9049C193.11 71.6449 193.63 71.5149 194.17 71.5149V73.1199C193.71 73.1199 193.275 73.1849 192.865 73.3149C192.465 73.4349 192.14 73.6349 191.89 73.9149C191.64 74.1949 191.515 74.5649 191.515 75.0249L190.945 75.0549ZM189.835 79.0449V71.5449H191.515V79.0449H189.835ZM198.779 79.2249C198.049 79.2249 197.399 79.0599 196.829 78.7299C196.269 78.3899 195.824 77.9249 195.494 77.3349C195.174 76.7449 195.014 76.0649 195.014 75.2949C195.014 74.5249 195.179 73.8449 195.509 73.2549C195.839 72.6649 196.289 72.2049 196.859 71.8749C197.439 71.5349 198.099 71.3649 198.839 71.3649C199.509 71.3649 200.114 71.5399 200.654 71.8899C201.194 72.2299 201.619 72.7249 201.929 73.3749C202.249 74.0249 202.409 74.7999 202.409 75.6999H196.514L196.739 75.4899C196.739 75.9499 196.839 76.3499 197.039 76.6899C197.239 77.0199 197.504 77.2749 197.834 77.4549C198.164 77.6349 198.529 77.7249 198.929 77.7249C199.389 77.7249 199.769 77.6249 200.069 77.4249C200.369 77.2149 200.604 76.9449 200.774 76.6149L202.259 77.2449C202.049 77.6449 201.779 77.9949 201.449 78.2949C201.129 78.5949 200.744 78.8249 200.294 78.9849C199.854 79.1449 199.349 79.2249 198.779 79.2249ZM196.844 74.6199L196.604 74.4099H200.834L200.609 74.6199C200.609 74.2099 200.519 73.8749 200.339 73.6149C200.159 73.3449 199.929 73.1449 199.649 73.0149C199.379 72.8749 199.094 72.8049 198.794 72.8049C198.494 72.8049 198.194 72.8749 197.894 73.0149C197.594 73.1449 197.344 73.3449 197.144 73.6149C196.944 73.8749 196.844 74.2099 196.844 74.6199ZM206.576 79.2249C206.076 79.2249 205.616 79.1499 205.196 78.9999C204.776 78.8499 204.416 78.6399 204.116 78.3699C203.816 78.0899 203.586 77.7649 203.426 77.3949L204.881 76.7499C205.031 77.0299 205.251 77.2649 205.541 77.4549C205.841 77.6449 206.171 77.7399 206.531 77.7399C206.921 77.7399 207.231 77.6749 207.461 77.5449C207.701 77.4049 207.821 77.2149 207.821 76.9749C207.821 76.7449 207.731 76.5699 207.551 76.4499C207.371 76.3199 207.116 76.2149 206.786 76.1349L206.081 75.9399C205.371 75.7599 204.816 75.4749 204.416 75.0849C204.016 74.6849 203.816 74.2299 203.816 73.7199C203.816 72.9699 204.056 72.3899 204.536 71.9799C205.026 71.5699 205.726 71.3649 206.636 71.3649C207.096 71.3649 207.516 71.4349 207.896 71.5749C208.286 71.7049 208.621 71.8949 208.901 72.1449C209.181 72.3849 209.376 72.6699 209.486 72.9999L208.091 73.6299C207.991 73.3799 207.801 73.1899 207.521 73.0599C207.241 72.9199 206.931 72.8499 206.591 72.8499C206.251 72.8499 205.986 72.9249 205.796 73.0749C205.606 73.2149 205.511 73.4149 205.511 73.6749C205.511 73.8249 205.596 73.9649 205.766 74.0949C205.936 74.2149 206.181 74.3149 206.501 74.3949L207.386 74.6049C207.876 74.7249 208.276 74.9149 208.586 75.1749C208.896 75.4249 209.126 75.7099 209.276 76.0299C209.426 76.3399 209.501 76.6549 209.501 76.9749C209.501 77.4249 209.371 77.8199 209.111 78.1599C208.861 78.4999 208.516 78.7649 208.076 78.9549C207.636 79.1349 207.136 79.2249 206.576 79.2249ZM211.059 82.0449V71.5449H212.634L212.739 72.9249V82.0449H211.059ZM215.109 79.2249C214.479 79.2249 213.934 79.0649 213.474 78.7449C213.024 78.4149 212.679 77.9549 212.439 77.3649C212.199 76.7749 212.079 76.0849 212.079 75.2949C212.079 74.4949 212.199 73.8049 212.439 73.2249C212.679 72.6349 213.024 72.1799 213.474 71.8599C213.934 71.5299 214.479 71.3649 215.109 71.3649C215.789 71.3649 216.379 71.5299 216.879 71.8599C217.389 72.1799 217.784 72.6349 218.064 73.2249C218.354 73.8049 218.499 74.4949 218.499 75.2949C218.499 76.0849 218.354 76.7749 218.064 77.3649C217.784 77.9549 217.389 78.4149 216.879 78.7449C216.379 79.0649 215.789 79.2249 215.109 79.2249ZM214.689 77.6949C215.089 77.6949 215.444 77.5949 215.754 77.3949C216.064 77.1849 216.309 76.8999 216.489 76.5399C216.679 76.1799 216.774 75.7649 216.774 75.2949C216.774 74.8249 216.684 74.4099 216.504 74.0499C216.334 73.6899 216.094 73.4099 215.784 73.2099C215.474 73.0099 215.114 72.9099 214.704 72.9099C214.324 72.9099 213.984 73.0099 213.684 73.2099C213.384 73.4099 213.149 73.6899 212.979 74.0499C212.819 74.4099 212.739 74.8249 212.739 75.2949C212.739 75.7649 212.819 76.1799 212.979 76.5399C213.149 76.8999 213.379 77.1849 213.669 77.3949C213.969 77.5949 214.309 77.6949 214.689 77.6949ZM223.534 79.2249C222.784 79.2249 222.114 79.0599 221.524 78.7299C220.944 78.3899 220.489 77.9249 220.159 77.3349C219.829 76.7449 219.664 76.0649 219.664 75.2949C219.664 74.5249 219.824 73.8449 220.144 73.2549C220.474 72.6649 220.929 72.2049 221.509 71.8749C222.089 71.5349 222.754 71.3649 223.504 71.3649C224.254 71.3649 224.919 71.5349 225.499 71.8749C226.079 72.2049 226.529 72.6649 226.849 73.2549C227.179 73.8449 227.344 74.5249 227.344 75.2949C227.344 76.0649 227.184 76.7449 226.864 77.3349C226.544 77.9249 226.094 78.3899 225.514 78.7299C224.934 79.0599 224.274 79.2249 223.534 79.2249ZM223.534 77.6799C223.944 77.6799 224.309 77.5799 224.629 77.3799C224.949 77.1699 225.199 76.8899 225.379 76.5399C225.559 76.1799 225.649 75.7649 225.649 75.2949C225.649 74.8249 225.554 74.4149 225.364 74.0649C225.184 73.7049 224.934 73.4249 224.614 73.2249C224.294 73.0149 223.924 72.9099 223.504 72.9099C223.084 72.9099 222.714 73.0099 222.394 73.2099C222.074 73.4099 221.824 73.6899 221.644 74.0499C221.464 74.4099 221.374 74.8249 221.374 75.2949C221.374 75.7649 221.464 76.1799 221.644 76.5399C221.834 76.8899 222.089 77.1699 222.409 77.3799C222.739 77.5799 223.114 77.6799 223.534 77.6799ZM228.95 79.0449V71.5449H230.525L230.63 72.9249V79.0449H228.95ZM234.035 79.0449V75.2049H235.715V79.0449H234.035ZM234.035 75.2049C234.035 74.6049 233.965 74.1449 233.825 73.8249C233.695 73.4949 233.505 73.2649 233.255 73.1349C233.015 73.0049 232.73 72.9399 232.4 72.9399C231.84 72.9299 231.405 73.1149 231.095 73.4949C230.785 73.8749 230.63 74.4199 230.63 75.1299H230C230 74.3399 230.115 73.6649 230.345 73.1049C230.575 72.5349 230.905 72.1049 231.335 71.8149C231.765 71.5149 232.275 71.3649 232.865 71.3649C233.465 71.3649 233.975 71.4849 234.395 71.7249C234.825 71.9649 235.15 72.3399 235.37 72.8499C235.6 73.3499 235.715 74.0049 235.715 74.8149V75.2049H234.035ZM240.296 79.2249C239.796 79.2249 239.336 79.1499 238.916 78.9999C238.496 78.8499 238.136 78.6399 237.836 78.3699C237.536 78.0899 237.306 77.7649 237.146 77.3949L238.601 76.7499C238.751 77.0299 238.971 77.2649 239.261 77.4549C239.561 77.6449 239.891 77.7399 240.251 77.7399C240.641 77.7399 240.951 77.6749 241.181 77.5449C241.421 77.4049 241.541 77.2149 241.541 76.9749C241.541 76.7449 241.451 76.5699 241.271 76.4499C241.091 76.3199 240.836 76.2149 240.506 76.1349L239.801 75.9399C239.091 75.7599 238.536 75.4749 238.136 75.0849C237.736 74.6849 237.536 74.2299 237.536 73.7199C237.536 72.9699 237.776 72.3899 238.256 71.9799C238.746 71.5699 239.446 71.3649 240.356 71.3649C240.816 71.3649 241.236 71.4349 241.616 71.5749C242.006 71.7049 242.341 71.8949 242.621 72.1449C242.901 72.3849 243.096 72.6699 243.206 72.9999L241.811 73.6299C241.711 73.3799 241.521 73.1899 241.241 73.0599C240.961 72.9199 240.651 72.8499 240.311 72.8499C239.971 72.8499 239.706 72.9249 239.516 73.0749C239.326 73.2149 239.231 73.4149 239.231 73.6749C239.231 73.8249 239.316 73.9649 239.486 74.0949C239.656 74.2149 239.901 74.3149 240.221 74.3949L241.106 74.6049C241.596 74.7249 241.996 74.9149 242.306 75.1749C242.616 75.4249 242.846 75.7099 242.996 76.0299C243.146 76.3399 243.221 76.6549 243.221 76.9749C243.221 77.4249 243.091 77.8199 242.831 78.1599C242.581 78.4999 242.236 78.7649 241.796 78.9549C241.356 79.1349 240.856 79.2249 240.296 79.2249ZM248.049 79.2249C247.319 79.2249 246.669 79.0599 246.099 78.7299C245.539 78.3899 245.094 77.9249 244.764 77.3349C244.444 76.7449 244.284 76.0649 244.284 75.2949C244.284 74.5249 244.449 73.8449 244.779 73.2549C245.109 72.6649 245.559 72.2049 246.129 71.8749C246.709 71.5349 247.369 71.3649 248.109 71.3649C248.779 71.3649 249.384 71.5399 249.924 71.8899C250.464 72.2299 250.889 72.7249 251.199 73.3749C251.519 74.0249 251.679 74.7999 251.679 75.6999H245.784L246.009 75.4899C246.009 75.9499 246.109 76.3499 246.309 76.6899C246.509 77.0199 246.774 77.2749 247.104 77.4549C247.434 77.6349 247.799 77.7249 248.199 77.7249C248.659 77.7249 249.039 77.6249 249.339 77.4249C249.639 77.2149 249.874 76.9449 250.044 76.6149L251.529 77.2449C251.319 77.6449 251.049 77.9949 250.719 78.2949C250.399 78.5949 250.014 78.8249 249.564 78.9849C249.124 79.1449 248.619 79.2249 248.049 79.2249ZM246.114 74.6199L245.874 74.4099H250.104L249.879 74.6199C249.879 74.2099 249.789 73.8749 249.609 73.6149C249.429 73.3449 249.199 73.1449 248.919 73.0149C248.649 72.8749 248.364 72.8049 248.064 72.8049C247.764 72.8049 247.464 72.8749 247.164 73.0149C246.864 73.1449 246.614 73.3449 246.414 73.6149C246.214 73.8749 246.114 74.2099 246.114 74.6199ZM126.662 93.0549C126.662 92.2449 126.817 91.5799 127.127 91.0599C127.437 90.5399 127.837 90.1549 128.327 89.9049C128.827 89.6449 129.347 89.5149 129.887 89.5149V91.1199C129.427 91.1199 128.992 91.1849 128.582 91.3149C128.182 91.4349 127.857 91.6349 127.607 91.9149C127.357 92.1949 127.232 92.5649 127.232 93.0249L126.662 93.0549ZM125.552 97.0449V89.5449H127.232V97.0449H125.552ZM134.496 97.2249C133.766 97.2249 133.116 97.0599 132.546 96.7299C131.986 96.3899 131.541 95.9249 131.211 95.3349C130.891 94.7449 130.731 94.0649 130.731 93.2949C130.731 92.5249 130.896 91.8449 131.226 91.2549C131.556 90.6649 132.006 90.2049 132.576 89.8749C133.156 89.5349 133.816 89.3649 134.556 89.3649C135.226 89.3649 135.831 89.5399 136.371 89.8899C136.911 90.2299 137.336 90.7249 137.646 91.3749C137.966 92.0249 138.126 92.7999 138.126 93.6999H132.231L132.456 93.4899C132.456 93.9499 132.556 94.3499 132.756 94.6899C132.956 95.0199 133.221 95.2749 133.551 95.4549C133.881 95.6349 134.246 95.7249 134.646 95.7249C135.106 95.7249 135.486 95.6249 135.786 95.4249C136.086 95.2149 136.321 94.9449 136.491 94.6149L137.976 95.2449C137.766 95.6449 137.496 95.9949 137.166 96.2949C136.846 96.5949 136.461 96.8249 136.011 96.9849C135.571 97.1449 135.066 97.2249 134.496 97.2249ZM132.561 92.6199L132.321 92.4099H136.551L136.326 92.6199C136.326 92.2099 136.236 91.8749 136.056 91.6149C135.876 91.3449 135.646 91.1449 135.366 91.0149C135.096 90.8749 134.811 90.8049 134.511 90.8049C134.211 90.8049 133.911 90.8749 133.611 91.0149C133.311 91.1449 133.061 91.3449 132.861 91.6149C132.661 91.8749 132.561 92.2099 132.561 92.6199ZM143.073 97.2249C142.303 97.2249 141.623 97.0599 141.033 96.7299C140.443 96.3899 139.978 95.9249 139.638 95.3349C139.308 94.7449 139.143 94.0649 139.143 93.2949C139.143 92.5249 139.308 91.8449 139.638 91.2549C139.978 90.6649 140.438 90.2049 141.018 89.8749C141.608 89.5349 142.283 89.3649 143.043 89.3649C143.783 89.3649 144.453 89.5449 145.053 89.9049C145.653 90.2549 146.098 90.7599 146.388 91.4199L144.828 92.0199C144.668 91.6899 144.423 91.4249 144.093 91.2249C143.763 91.0249 143.388 90.9249 142.968 90.9249C142.558 90.9249 142.193 91.0299 141.873 91.2399C141.553 91.4399 141.303 91.7199 141.123 92.0799C140.943 92.4299 140.853 92.8349 140.853 93.2949C140.853 93.7549 140.943 94.1649 141.123 94.5249C141.313 94.8749 141.568 95.1549 141.888 95.3649C142.218 95.5649 142.588 95.6649 142.998 95.6649C143.418 95.6649 143.793 95.5599 144.123 95.3499C144.453 95.1299 144.698 94.8349 144.858 94.4649L146.418 95.0649C146.128 95.7449 145.683 96.2749 145.083 96.6549C144.493 97.0349 143.823 97.2249 143.073 97.2249ZM151.217 97.2249C150.487 97.2249 149.837 97.0599 149.267 96.7299C148.707 96.3899 148.262 95.9249 147.932 95.3349C147.612 94.7449 147.452 94.0649 147.452 93.2949C147.452 92.5249 147.617 91.8449 147.947 91.2549C148.277 90.6649 148.727 90.2049 149.297 89.8749C149.877 89.5349 150.537 89.3649 151.277 89.3649C151.947 89.3649 152.552 89.5399 153.092 89.8899C153.632 90.2299 154.057 90.7249 154.367 91.3749C154.687 92.0249 154.847 92.7999 154.847 93.6999H148.952L149.177 93.4899C149.177 93.9499 149.277 94.3499 149.477 94.6899C149.677 95.0199 149.942 95.2749 150.272 95.4549C150.602 95.6349 150.967 95.7249 151.367 95.7249C151.827 95.7249 152.207 95.6249 152.507 95.4249C152.807 95.2149 153.042 94.9449 153.212 94.6149L154.697 95.2449C154.487 95.6449 154.217 95.9949 153.887 96.2949C153.567 96.5949 153.182 96.8249 152.732 96.9849C152.292 97.1449 151.787 97.2249 151.217 97.2249ZM149.282 92.6199L149.042 92.4099H153.272L153.047 92.6199C153.047 92.2099 152.957 91.8749 152.777 91.6149C152.597 91.3449 152.367 91.1449 152.087 91.0149C151.817 90.8749 151.532 90.8049 151.232 90.8049C150.932 90.8049 150.632 90.8749 150.332 91.0149C150.032 91.1449 149.782 91.3449 149.582 91.6149C149.382 91.8749 149.282 92.2099 149.282 92.6199ZM156.389 97.0449V89.5449H158.054V97.0449H156.389ZM157.229 88.1199C156.959 88.1199 156.724 88.0249 156.524 87.8349C156.334 87.6349 156.239 87.3999 156.239 87.1299C156.239 86.8599 156.334 86.6299 156.524 86.4399C156.724 86.2499 156.959 86.1549 157.229 86.1549C157.499 86.1549 157.729 86.2499 157.919 86.4399C158.119 86.6299 158.219 86.8599 158.219 87.1299C158.219 87.3999 158.119 87.6349 157.919 87.8349C157.729 88.0249 157.499 88.1199 157.229 88.1199ZM162.599 97.0449L165.524 89.5449H167.264L164.174 97.0449H162.599ZM162.479 97.0449L159.374 89.5449H161.099L164.039 97.0449H162.479ZM171.604 97.2249C170.874 97.2249 170.224 97.0599 169.654 96.7299C169.094 96.3899 168.649 95.9249 168.319 95.3349C167.999 94.7449 167.839 94.0649 167.839 93.2949C167.839 92.5249 168.004 91.8449 168.334 91.2549C168.664 90.6649 169.114 90.2049 169.684 89.8749C170.264 89.5349 170.924 89.3649 171.664 89.3649C172.334 89.3649 172.939 89.5399 173.479 89.8899C174.019 90.2299 174.444 90.7249 174.754 91.3749C175.074 92.0249 175.234 92.7999 175.234 93.6999H169.339L169.564 93.4899C169.564 93.9499 169.664 94.3499 169.864 94.6899C170.064 95.0199 170.329 95.2749 170.659 95.4549C170.989 95.6349 171.354 95.7249 171.754 95.7249C172.214 95.7249 172.594 95.6249 172.894 95.4249C173.194 95.2149 173.429 94.9449 173.599 94.6149L175.084 95.2449C174.874 95.6449 174.604 95.9949 174.274 96.2949C173.954 96.5949 173.569 96.8249 173.119 96.9849C172.679 97.1449 172.174 97.2249 171.604 97.2249ZM169.669 92.6199L169.429 92.4099H173.659L173.434 92.6199C173.434 92.2099 173.344 91.8749 173.164 91.6149C172.984 91.3449 172.754 91.1449 172.474 91.0149C172.204 90.8749 171.919 90.8049 171.619 90.8049C171.319 90.8049 171.019 90.8749 170.719 91.0149C170.419 91.1449 170.169 91.3449 169.969 91.6149C169.769 91.8749 169.669 92.2099 169.669 92.6199ZM182.085 97.0449L182.01 95.6499V86.5449H183.675V97.0449H182.085ZM179.64 97.2249C178.96 97.2249 178.365 97.0649 177.855 96.7449C177.355 96.4149 176.96 95.9549 176.67 95.3649C176.39 94.7749 176.25 94.0849 176.25 93.2949C176.25 92.4949 176.39 91.8049 176.67 91.2249C176.96 90.6349 177.355 90.1799 177.855 89.8599C178.365 89.5299 178.96 89.3649 179.64 89.3649C180.27 89.3649 180.81 89.5299 181.26 89.8599C181.72 90.1799 182.07 90.6349 182.31 91.2249C182.55 91.8049 182.67 92.4949 182.67 93.2949C182.67 94.0849 182.55 94.7749 182.31 95.3649C182.07 95.9549 181.72 96.4149 181.26 96.7449C180.81 97.0649 180.27 97.2249 179.64 97.2249ZM180.06 95.6949C180.44 95.6949 180.775 95.5949 181.065 95.3949C181.365 95.1849 181.595 94.8999 181.755 94.5399C181.925 94.1799 182.01 93.7649 182.01 93.2949C182.01 92.8249 181.925 92.4099 181.755 92.0499C181.595 91.6899 181.365 91.4099 181.065 91.2099C180.775 91.0099 180.435 90.9099 180.045 90.9099C179.645 90.9099 179.29 91.0099 178.98 91.2099C178.67 91.4099 178.425 91.6899 178.245 92.0499C178.075 92.4099 177.985 92.8249 177.975 93.2949C177.985 93.7649 178.075 94.1799 178.245 94.5399C178.425 94.8999 178.67 95.1849 178.98 95.3949C179.3 95.5949 179.66 95.6949 180.06 95.6949ZM186.238 93.7749L186.133 86.5449H187.978L187.873 93.7749H186.238ZM187.048 97.2699C186.758 97.2699 186.508 97.1649 186.298 96.9549C186.098 96.7449 185.998 96.4949 185.998 96.2049C185.998 95.9149 186.098 95.6699 186.298 95.4699C186.508 95.2599 186.758 95.1549 187.048 95.1549C187.338 95.1549 187.588 95.2599 187.798 95.4699C188.008 95.6699 188.113 95.9149 188.113 96.2049C188.113 96.4949 188.008 96.7449 187.798 96.9549C187.588 97.1649 187.338 97.2699 187.048 97.2699Z" fill="#3D3D4F"/>
</g>
<rect x="263.409" y="19.6699" width="50" height="50" rx="18" fill="#E8ECFE"/>
<mask id="mask1_2541_1900" style="mask-type:alpha" maskUnits="userSpaceOnUse" x="273" y="27" width="31" height="31">
<rect x="273.409" y="27.6699" width="30" height="30" fill="#D9D9D9"/>
</mask>
<g mask="url(#mask1_2541_1900)">
<path d="M278.409 51.4199V48.9199H280.909V40.1699C280.909 38.4408 281.43 36.9043 282.471 35.5605C283.513 34.2168 284.867 33.3366 286.534 32.9199V32.0449C286.534 31.5241 286.716 31.0814 287.081 30.7168C287.445 30.3522 287.888 30.1699 288.409 30.1699C288.93 30.1699 289.372 30.3522 289.737 30.7168C290.101 31.0814 290.284 31.5241 290.284 32.0449V32.9199C291.95 33.3366 293.305 34.2168 294.346 35.5605C295.388 36.9043 295.909 38.4408 295.909 40.1699V48.9199H298.409V51.4199H278.409ZM288.409 55.1699C287.721 55.1699 287.133 54.9251 286.643 54.4355C286.153 53.946 285.909 53.3574 285.909 52.6699H290.909C290.909 53.3574 290.664 53.946 290.174 54.4355C289.685 54.9251 289.096 55.1699 288.409 55.1699Z" fill="#1C1B1F"/>
</g>
<defs>
<filter id="filter0_d_2541_1900" x="0.62207" y="0.0449219" width="337.344" height="174" filterUnits="userSpaceOnUse" color-interpolation-filters="sRGB">
<feFlood flood-opacity="0" result="BackgroundImageFix"/>
<feColorMatrix in="SourceAlpha" type="matrix" values="0 0 0 0 0 0 0 0 0 0 0 0 0 0 0 0 0 0 127 0" result="hardAlpha"/>
<feOffset dy="4"/>
<feGaussianBlur stdDeviation="25"/>
<feComposite in2="hardAlpha" operator="out"/>
<feColorMatrix type="matrix" values="0 0 0 0 0 0 0 0 0 0 0 0 0 0 0 0 0 0 0.1 0"/>
<feBlend mode="normal" in2="BackgroundImageFix" result="effect1_dropShadow_2541_1900"/>
<feBlend mode="normal" in="SourceGraphic" in2="effect1_dropShadow_2541_1900" result="shape"/>
</filter>
</defs>
</svg>
