<svg width="238" height="75" viewBox="0 0 238 75" fill="none" xmlns="http://www.w3.org/2000/svg">
<rect x="0.62207" y="0.0449219" width="237.344" height="74" rx="16" fill="white"/>
<rect x="15.6221" y="15.0449" width="44" height="44" rx="10" fill="#62D264"/>
<mask id="mask0_2393_2562" style="mask-type:alpha" maskUnits="userSpaceOnUse" x="23" y="23" width="29" height="29">
<rect x="23.2675" y="23.8516" width="28" height="28" fill="#D9D9D9"/>
</mask>
<g mask="url(#mask0_2393_2562)">
<path d="M36.101 35.5189C36.7427 35.5189 37.292 35.2904 37.7489 34.8335C38.2059 34.3765 38.4344 33.8272 38.4344 33.1855C38.4344 32.5439 38.2059 31.9946 37.7489 31.5376C37.292 31.0807 36.7427 30.8522 36.101 30.8522C35.4594 30.8522 34.9101 31.0807 34.4531 31.5376C33.9962 31.9946 33.7677 32.5439 33.7677 33.1855C33.7677 33.8272 33.9962 34.3765 34.4531 34.8335C34.9101 35.2904 35.4594 35.5189 36.101 35.5189ZM36.101 40.1855C36.976 40.1855 37.7976 40.0008 38.5656 39.6314C39.3337 39.2619 39.9996 38.7369 40.5635 38.0564C39.883 37.6092 39.1684 37.2689 38.4198 37.0355C37.6712 36.8022 36.8983 36.6855 36.101 36.6855C35.3038 36.6855 34.5309 36.8022 33.7823 37.0355C33.0337 37.2689 32.3191 37.6092 31.6385 38.0564C32.2024 38.7369 32.8684 39.2619 33.6364 39.6314C34.4045 40.0008 35.226 40.1855 36.101 40.1855ZM47.301 48.3522L41.8177 42.8689C41.0205 43.4911 40.1406 43.9772 39.1781 44.3272C38.2156 44.6772 37.1899 44.8522 36.101 44.8522C33.4955 44.8522 31.2885 43.948 29.4802 42.1397C27.6719 40.3314 26.7677 38.1244 26.7677 35.5189C26.7677 32.9133 27.6719 30.7064 29.4802 28.898C31.2885 27.0897 33.4955 26.1855 36.101 26.1855C38.7066 26.1855 40.9135 27.0897 42.7219 28.898C44.5302 30.7064 45.4344 32.9133 45.4344 35.5189C45.4344 36.6078 45.2594 37.6335 44.9094 38.596C44.5594 39.5585 44.0733 40.4383 43.451 41.2355L48.9344 46.7189L47.301 48.3522ZM36.101 42.5189C38.0455 42.5189 39.6983 41.8383 41.0594 40.4772C42.4205 39.1161 43.101 37.4633 43.101 35.5189C43.101 33.5744 42.4205 31.9217 41.0594 30.5605C39.6983 29.1994 38.0455 28.5189 36.101 28.5189C34.1566 28.5189 32.5038 29.1994 31.1427 30.5605C29.7816 31.9217 29.101 33.5744 29.101 35.5189C29.101 37.4633 29.7816 39.1161 31.1427 40.4772C32.5038 41.8383 34.1566 42.5189 36.101 42.5189Z" fill="white"/>
</g>
<path d="M75.8671 33.0449V22.5449H79.5721C80.2921 22.5449 80.9271 22.6899 81.4771 22.9799C82.0271 23.2699 82.4571 23.6749 82.7671 24.1949C83.0771 24.7049 83.2321 25.2999 83.2321 25.9799C83.2321 26.6399 83.0871 27.2299 82.7971 27.7499C82.5071 28.2699 82.1021 28.6799 81.5821 28.9799C81.0721 29.2699 80.4771 29.4149 79.7971 29.4149H77.6071V33.0449H75.8671ZM77.6071 27.8099H79.7671C80.2671 27.8099 80.6771 27.6399 80.9971 27.2999C81.3171 26.9599 81.4771 26.5199 81.4771 25.9799C81.4771 25.4299 81.2971 24.9849 80.9371 24.6449C80.5771 24.3049 80.1121 24.1349 79.5421 24.1349H77.6071V27.8099ZM87.9118 33.2249C87.1618 33.2249 86.4918 33.0599 85.9018 32.7299C85.3218 32.3899 84.8668 31.9249 84.5368 31.3349C84.2068 30.7449 84.0418 30.0649 84.0418 29.2949C84.0418 28.5249 84.2018 27.8449 84.5218 27.2549C84.8518 26.6649 85.3068 26.2049 85.8868 25.8749C86.4668 25.5349 87.1318 25.3649 87.8818 25.3649C88.6318 25.3649 89.2968 25.5349 89.8768 25.8749C90.4568 26.2049 90.9068 26.6649 91.2268 27.2549C91.5568 27.8449 91.7218 28.5249 91.7218 29.2949C91.7218 30.0649 91.5618 30.7449 91.2418 31.3349C90.9218 31.9249 90.4718 32.3899 89.8918 32.7299C89.3118 33.0599 88.6518 33.2249 87.9118 33.2249ZM87.9118 31.6799C88.3218 31.6799 88.6868 31.5799 89.0068 31.3799C89.3268 31.1699 89.5768 30.8899 89.7568 30.5399C89.9368 30.1799 90.0268 29.7649 90.0268 29.2949C90.0268 28.8249 89.9318 28.4149 89.7418 28.0649C89.5618 27.7049 89.3118 27.4249 88.9918 27.2249C88.6718 27.0149 88.3018 26.9099 87.8818 26.9099C87.4618 26.9099 87.0918 27.0099 86.7718 27.2099C86.4518 27.4099 86.2018 27.6899 86.0218 28.0499C85.8418 28.4099 85.7518 28.8249 85.7518 29.2949C85.7518 29.7649 85.8418 30.1799 86.0218 30.5399C86.2118 30.8899 86.4668 31.1699 86.7868 31.3799C87.1168 31.5799 87.4918 31.6799 87.9118 31.6799ZM94.4377 29.0549C94.4377 28.2449 94.5927 27.5799 94.9027 27.0599C95.2127 26.5399 95.6127 26.1549 96.1027 25.9049C96.6027 25.6449 97.1227 25.5149 97.6627 25.5149V27.1199C97.2027 27.1199 96.7677 27.1849 96.3577 27.3149C95.9577 27.4349 95.6327 27.6349 95.3827 27.9149C95.1327 28.1949 95.0077 28.5649 95.0077 29.0249L94.4377 29.0549ZM93.3277 33.0449V25.5449H95.0077V33.0449H93.3277ZM101.912 33.2249C101.122 33.2249 100.517 33.0299 100.097 32.6399C99.6869 32.2399 99.4819 31.6699 99.4819 30.9299V23.2049H101.147V30.6149C101.147 30.9649 101.227 31.2299 101.387 31.4099C101.557 31.5899 101.802 31.6799 102.122 31.6799C102.222 31.6799 102.332 31.6599 102.452 31.6199C102.572 31.5799 102.707 31.5049 102.857 31.3949L103.472 32.6699C103.212 32.8499 102.952 32.9849 102.692 33.0749C102.432 33.1749 102.172 33.2249 101.912 33.2249ZM98.2369 26.9849V25.5449H103.172V26.9849H98.2369ZM105.716 33.0449V24.7499C105.716 23.9599 105.911 23.3549 106.301 22.9349C106.701 22.5049 107.301 22.2899 108.101 22.2899C108.361 22.2899 108.636 22.3349 108.926 22.4249C109.226 22.5049 109.511 22.6149 109.781 22.7549L109.166 23.9999C108.976 23.9099 108.806 23.8449 108.656 23.8049C108.516 23.7649 108.391 23.7449 108.281 23.7449C107.981 23.7449 107.756 23.8449 107.606 24.0449C107.466 24.2349 107.396 24.5499 107.396 24.9899V33.0449H105.716ZM104.426 26.9249V25.5449H109.361V26.9249H104.426ZM114.191 33.2249C113.441 33.2249 112.771 33.0599 112.181 32.7299C111.601 32.3899 111.146 31.9249 110.816 31.3349C110.486 30.7449 110.321 30.0649 110.321 29.2949C110.321 28.5249 110.481 27.8449 110.801 27.2549C111.131 26.6649 111.586 26.2049 112.166 25.8749C112.746 25.5349 113.411 25.3649 114.161 25.3649C114.911 25.3649 115.576 25.5349 116.156 25.8749C116.736 26.2049 117.186 26.6649 117.506 27.2549C117.836 27.8449 118.001 28.5249 118.001 29.2949C118.001 30.0649 117.841 30.7449 117.521 31.3349C117.201 31.9249 116.751 32.3899 116.171 32.7299C115.591 33.0599 114.931 33.2249 114.191 33.2249ZM114.191 31.6799C114.601 31.6799 114.966 31.5799 115.286 31.3799C115.606 31.1699 115.856 30.8899 116.036 30.5399C116.216 30.1799 116.306 29.7649 116.306 29.2949C116.306 28.8249 116.211 28.4149 116.021 28.0649C115.841 27.7049 115.591 27.4249 115.271 27.2249C114.951 27.0149 114.581 26.9099 114.161 26.9099C113.741 26.9099 113.371 27.0099 113.051 27.2099C112.731 27.4099 112.481 27.6899 112.301 28.0499C112.121 28.4099 112.031 28.8249 112.031 29.2949C112.031 29.7649 112.121 30.1799 112.301 30.5399C112.491 30.8899 112.746 31.1699 113.066 31.3799C113.396 31.5799 113.771 31.6799 114.191 31.6799ZM119.606 33.0449V22.5449H121.286V33.0449H119.606ZM123.406 33.0449V25.5449H125.071V33.0449H123.406ZM124.246 24.1199C123.976 24.1199 123.741 24.0249 123.541 23.8349C123.351 23.6349 123.256 23.3999 123.256 23.1299C123.256 22.8599 123.351 22.6299 123.541 22.4399C123.741 22.2499 123.976 22.1549 124.246 22.1549C124.516 22.1549 124.746 22.2499 124.936 22.4399C125.136 22.6299 125.236 22.8599 125.236 23.1299C125.236 23.3999 125.136 23.6349 124.936 23.8349C124.746 24.0249 124.516 24.1199 124.246 24.1199ZM130.651 33.2249C129.901 33.2249 129.231 33.0599 128.641 32.7299C128.061 32.3899 127.606 31.9249 127.276 31.3349C126.946 30.7449 126.781 30.0649 126.781 29.2949C126.781 28.5249 126.941 27.8449 127.261 27.2549C127.591 26.6649 128.046 26.2049 128.626 25.8749C129.206 25.5349 129.871 25.3649 130.621 25.3649C131.371 25.3649 132.036 25.5349 132.616 25.8749C133.196 26.2049 133.646 26.6649 133.966 27.2549C134.296 27.8449 134.461 28.5249 134.461 29.2949C134.461 30.0649 134.301 30.7449 133.981 31.3349C133.661 31.9249 133.211 32.3899 132.631 32.7299C132.051 33.0599 131.391 33.2249 130.651 33.2249ZM130.651 31.6799C131.061 31.6799 131.426 31.5799 131.746 31.3799C132.066 31.1699 132.316 30.8899 132.496 30.5399C132.676 30.1799 132.766 29.7649 132.766 29.2949C132.766 28.8249 132.671 28.4149 132.481 28.0649C132.301 27.7049 132.051 27.4249 131.731 27.2249C131.411 27.0149 131.041 26.9099 130.621 26.9099C130.201 26.9099 129.831 27.0099 129.511 27.2099C129.191 27.4099 128.941 27.6899 128.761 28.0499C128.581 28.4099 128.491 28.8249 128.491 29.2949C128.491 29.7649 128.581 30.1799 128.761 30.5399C128.951 30.8899 129.206 31.1699 129.526 31.3799C129.856 31.5799 130.231 31.6799 130.651 31.6799ZM140.945 29.0549C140.945 28.2449 141.1 27.5799 141.41 27.0599C141.72 26.5399 142.12 26.1549 142.61 25.9049C143.11 25.6449 143.63 25.5149 144.17 25.5149V27.1199C143.71 27.1199 143.275 27.1849 142.865 27.3149C142.465 27.4349 142.14 27.6349 141.89 27.9149C141.64 28.1949 141.515 28.5649 141.515 29.0249L140.945 29.0549ZM139.835 33.0449V25.5449H141.515V33.0449H139.835ZM148.779 33.2249C148.049 33.2249 147.399 33.0599 146.829 32.7299C146.269 32.3899 145.824 31.9249 145.494 31.3349C145.174 30.7449 145.014 30.0649 145.014 29.2949C145.014 28.5249 145.179 27.8449 145.509 27.2549C145.839 26.6649 146.289 26.2049 146.859 25.8749C147.439 25.5349 148.099 25.3649 148.839 25.3649C149.509 25.3649 150.114 25.5399 150.654 25.8899C151.194 26.2299 151.619 26.7249 151.929 27.3749C152.249 28.0249 152.409 28.7999 152.409 29.6999H146.514L146.739 29.4899C146.739 29.9499 146.839 30.3499 147.039 30.6899C147.239 31.0199 147.504 31.2749 147.834 31.4549C148.164 31.6349 148.529 31.7249 148.929 31.7249C149.389 31.7249 149.769 31.6249 150.069 31.4249C150.369 31.2149 150.604 30.9449 150.774 30.6149L152.259 31.2449C152.049 31.6449 151.779 31.9949 151.449 32.2949C151.129 32.5949 150.744 32.8249 150.294 32.9849C149.854 33.1449 149.349 33.2249 148.779 33.2249ZM146.844 28.6199L146.604 28.4099H150.834L150.609 28.6199C150.609 28.2099 150.519 27.8749 150.339 27.6149C150.159 27.3449 149.929 27.1449 149.649 27.0149C149.379 26.8749 149.094 26.8049 148.794 26.8049C148.494 26.8049 148.194 26.8749 147.894 27.0149C147.594 27.1449 147.344 27.3449 147.144 27.6149C146.944 27.8749 146.844 28.2099 146.844 28.6199ZM156.576 33.2249C156.076 33.2249 155.616 33.1499 155.196 32.9999C154.776 32.8499 154.416 32.6399 154.116 32.3699C153.816 32.0899 153.586 31.7649 153.426 31.3949L154.881 30.7499C155.031 31.0299 155.251 31.2649 155.541 31.4549C155.841 31.6449 156.171 31.7399 156.531 31.7399C156.921 31.7399 157.231 31.6749 157.461 31.5449C157.701 31.4049 157.821 31.2149 157.821 30.9749C157.821 30.7449 157.731 30.5699 157.551 30.4499C157.371 30.3199 157.116 30.2149 156.786 30.1349L156.081 29.9399C155.371 29.7599 154.816 29.4749 154.416 29.0849C154.016 28.6849 153.816 28.2299 153.816 27.7199C153.816 26.9699 154.056 26.3899 154.536 25.9799C155.026 25.5699 155.726 25.3649 156.636 25.3649C157.096 25.3649 157.516 25.4349 157.896 25.5749C158.286 25.7049 158.621 25.8949 158.901 26.1449C159.181 26.3849 159.376 26.6699 159.486 26.9999L158.091 27.6299C157.991 27.3799 157.801 27.1899 157.521 27.0599C157.241 26.9199 156.931 26.8499 156.591 26.8499C156.251 26.8499 155.986 26.9249 155.796 27.0749C155.606 27.2149 155.511 27.4149 155.511 27.6749C155.511 27.8249 155.596 27.9649 155.766 28.0949C155.936 28.2149 156.181 28.3149 156.501 28.3949L157.386 28.6049C157.876 28.7249 158.276 28.9149 158.586 29.1749C158.896 29.4249 159.126 29.7099 159.276 30.0299C159.426 30.3399 159.501 30.6549 159.501 30.9749C159.501 31.4249 159.371 31.8199 159.111 32.1599C158.861 32.4999 158.516 32.7649 158.076 32.9549C157.636 33.1349 157.136 33.2249 156.576 33.2249ZM161.059 36.0449V25.5449H162.634L162.739 26.9249V36.0449H161.059ZM165.109 33.2249C164.479 33.2249 163.934 33.0649 163.474 32.7449C163.024 32.4149 162.679 31.9549 162.439 31.3649C162.199 30.7749 162.079 30.0849 162.079 29.2949C162.079 28.4949 162.199 27.8049 162.439 27.2249C162.679 26.6349 163.024 26.1799 163.474 25.8599C163.934 25.5299 164.479 25.3649 165.109 25.3649C165.789 25.3649 166.379 25.5299 166.879 25.8599C167.389 26.1799 167.784 26.6349 168.064 27.2249C168.354 27.8049 168.499 28.4949 168.499 29.2949C168.499 30.0849 168.354 30.7749 168.064 31.3649C167.784 31.9549 167.389 32.4149 166.879 32.7449C166.379 33.0649 165.789 33.2249 165.109 33.2249ZM164.689 31.6949C165.089 31.6949 165.444 31.5949 165.754 31.3949C166.064 31.1849 166.309 30.8999 166.489 30.5399C166.679 30.1799 166.774 29.7649 166.774 29.2949C166.774 28.8249 166.684 28.4099 166.504 28.0499C166.334 27.6899 166.094 27.4099 165.784 27.2099C165.474 27.0099 165.114 26.9099 164.704 26.9099C164.324 26.9099 163.984 27.0099 163.684 27.2099C163.384 27.4099 163.149 27.6899 162.979 28.0499C162.819 28.4099 162.739 28.8249 162.739 29.2949C162.739 29.7649 162.819 30.1799 162.979 30.5399C163.149 30.8999 163.379 31.1849 163.669 31.3949C163.969 31.5949 164.309 31.6949 164.689 31.6949ZM173.534 33.2249C172.784 33.2249 172.114 33.0599 171.524 32.7299C170.944 32.3899 170.489 31.9249 170.159 31.3349C169.829 30.7449 169.664 30.0649 169.664 29.2949C169.664 28.5249 169.824 27.8449 170.144 27.2549C170.474 26.6649 170.929 26.2049 171.509 25.8749C172.089 25.5349 172.754 25.3649 173.504 25.3649C174.254 25.3649 174.919 25.5349 175.499 25.8749C176.079 26.2049 176.529 26.6649 176.849 27.2549C177.179 27.8449 177.344 28.5249 177.344 29.2949C177.344 30.0649 177.184 30.7449 176.864 31.3349C176.544 31.9249 176.094 32.3899 175.514 32.7299C174.934 33.0599 174.274 33.2249 173.534 33.2249ZM173.534 31.6799C173.944 31.6799 174.309 31.5799 174.629 31.3799C174.949 31.1699 175.199 30.8899 175.379 30.5399C175.559 30.1799 175.649 29.7649 175.649 29.2949C175.649 28.8249 175.554 28.4149 175.364 28.0649C175.184 27.7049 174.934 27.4249 174.614 27.2249C174.294 27.0149 173.924 26.9099 173.504 26.9099C173.084 26.9099 172.714 27.0099 172.394 27.2099C172.074 27.4099 171.824 27.6899 171.644 28.0499C171.464 28.4099 171.374 28.8249 171.374 29.2949C171.374 29.7649 171.464 30.1799 171.644 30.5399C171.834 30.8899 172.089 31.1699 172.409 31.3799C172.739 31.5799 173.114 31.6799 173.534 31.6799ZM178.95 33.0449V25.5449H180.525L180.63 26.9249V33.0449H178.95ZM184.035 33.0449V29.2049H185.715V33.0449H184.035ZM184.035 29.2049C184.035 28.6049 183.965 28.1449 183.825 27.8249C183.695 27.4949 183.505 27.2649 183.255 27.1349C183.015 27.0049 182.73 26.9399 182.4 26.9399C181.84 26.9299 181.405 27.1149 181.095 27.4949C180.785 27.8749 180.63 28.4199 180.63 29.1299H180C180 28.3399 180.115 27.6649 180.345 27.1049C180.575 26.5349 180.905 26.1049 181.335 25.8149C181.765 25.5149 182.275 25.3649 182.865 25.3649C183.465 25.3649 183.975 25.4849 184.395 25.7249C184.825 25.9649 185.15 26.3399 185.37 26.8499C185.6 27.3499 185.715 28.0049 185.715 28.8149V29.2049H184.035ZM190.296 33.2249C189.796 33.2249 189.336 33.1499 188.916 32.9999C188.496 32.8499 188.136 32.6399 187.836 32.3699C187.536 32.0899 187.306 31.7649 187.146 31.3949L188.601 30.7499C188.751 31.0299 188.971 31.2649 189.261 31.4549C189.561 31.6449 189.891 31.7399 190.251 31.7399C190.641 31.7399 190.951 31.6749 191.181 31.5449C191.421 31.4049 191.541 31.2149 191.541 30.9749C191.541 30.7449 191.451 30.5699 191.271 30.4499C191.091 30.3199 190.836 30.2149 190.506 30.1349L189.801 29.9399C189.091 29.7599 188.536 29.4749 188.136 29.0849C187.736 28.6849 187.536 28.2299 187.536 27.7199C187.536 26.9699 187.776 26.3899 188.256 25.9799C188.746 25.5699 189.446 25.3649 190.356 25.3649C190.816 25.3649 191.236 25.4349 191.616 25.5749C192.006 25.7049 192.341 25.8949 192.621 26.1449C192.901 26.3849 193.096 26.6699 193.206 26.9999L191.811 27.6299C191.711 27.3799 191.521 27.1899 191.241 27.0599C190.961 26.9199 190.651 26.8499 190.311 26.8499C189.971 26.8499 189.706 26.9249 189.516 27.0749C189.326 27.2149 189.231 27.4149 189.231 27.6749C189.231 27.8249 189.316 27.9649 189.486 28.0949C189.656 28.2149 189.901 28.3149 190.221 28.3949L191.106 28.6049C191.596 28.7249 191.996 28.9149 192.306 29.1749C192.616 29.4249 192.846 29.7099 192.996 30.0299C193.146 30.3399 193.221 30.6549 193.221 30.9749C193.221 31.4249 193.091 31.8199 192.831 32.1599C192.581 32.4999 192.236 32.7649 191.796 32.9549C191.356 33.1349 190.856 33.2249 190.296 33.2249ZM198.049 33.2249C197.319 33.2249 196.669 33.0599 196.099 32.7299C195.539 32.3899 195.094 31.9249 194.764 31.3349C194.444 30.7449 194.284 30.0649 194.284 29.2949C194.284 28.5249 194.449 27.8449 194.779 27.2549C195.109 26.6649 195.559 26.2049 196.129 25.8749C196.709 25.5349 197.369 25.3649 198.109 25.3649C198.779 25.3649 199.384 25.5399 199.924 25.8899C200.464 26.2299 200.889 26.7249 201.199 27.3749C201.519 28.0249 201.679 28.7999 201.679 29.6999H195.784L196.009 29.4899C196.009 29.9499 196.109 30.3499 196.309 30.6899C196.509 31.0199 196.774 31.2749 197.104 31.4549C197.434 31.6349 197.799 31.7249 198.199 31.7249C198.659 31.7249 199.039 31.6249 199.339 31.4249C199.639 31.2149 199.874 30.9449 200.044 30.6149L201.529 31.2449C201.319 31.6449 201.049 31.9949 200.719 32.2949C200.399 32.5949 200.014 32.8249 199.564 32.9849C199.124 33.1449 198.619 33.2249 198.049 33.2249ZM196.114 28.6199L195.874 28.4099H200.104L199.879 28.6199C199.879 28.2099 199.789 27.8749 199.609 27.6149C199.429 27.3449 199.199 27.1449 198.919 27.0149C198.649 26.8749 198.364 26.8049 198.064 26.8049C197.764 26.8049 197.464 26.8749 197.164 27.0149C196.864 27.1449 196.614 27.3449 196.414 27.6149C196.214 27.8749 196.114 28.2099 196.114 28.6199ZM76.6621 47.0549C76.6621 46.2449 76.8171 45.5799 77.1271 45.0599C77.4371 44.5399 77.8371 44.1549 78.3271 43.9049C78.8271 43.6449 79.3471 43.5149 79.8871 43.5149V45.1199C79.4271 45.1199 78.9921 45.1849 78.5821 45.3149C78.1821 45.4349 77.8571 45.6349 77.6071 45.9149C77.3571 46.1949 77.2321 46.5649 77.2321 47.0249L76.6621 47.0549ZM75.5521 51.0449V43.5449H77.2321V51.0449H75.5521ZM84.4963 51.2249C83.7663 51.2249 83.1163 51.0599 82.5463 50.7299C81.9863 50.3899 81.5413 49.9249 81.2113 49.3349C80.8913 48.7449 80.7313 48.0649 80.7313 47.2949C80.7313 46.5249 80.8963 45.8449 81.2263 45.2549C81.5563 44.6649 82.0063 44.2049 82.5763 43.8749C83.1563 43.5349 83.8163 43.3649 84.5563 43.3649C85.2263 43.3649 85.8313 43.5399 86.3713 43.8899C86.9113 44.2299 87.3363 44.7249 87.6463 45.3749C87.9663 46.0249 88.1263 46.7999 88.1263 47.6999H82.2313L82.4563 47.4899C82.4563 47.9499 82.5563 48.3499 82.7563 48.6899C82.9563 49.0199 83.2213 49.2749 83.5513 49.4549C83.8813 49.6349 84.2463 49.7249 84.6463 49.7249C85.1063 49.7249 85.4863 49.6249 85.7863 49.4249C86.0863 49.2149 86.3213 48.9449 86.4913 48.6149L87.9763 49.2449C87.7663 49.6449 87.4963 49.9949 87.1663 50.2949C86.8463 50.5949 86.4613 50.8249 86.0113 50.9849C85.5713 51.1449 85.0663 51.2249 84.4963 51.2249ZM82.5613 46.6199L82.3213 46.4099H86.5513L86.3263 46.6199C86.3263 46.2099 86.2363 45.8749 86.0563 45.6149C85.8763 45.3449 85.6463 45.1449 85.3663 45.0149C85.0963 44.8749 84.8113 44.8049 84.5113 44.8049C84.2113 44.8049 83.9113 44.8749 83.6113 45.0149C83.3113 45.1449 83.0613 45.3449 82.8613 45.6149C82.6613 45.8749 82.5613 46.2099 82.5613 46.6199ZM93.073 51.2249C92.303 51.2249 91.623 51.0599 91.033 50.7299C90.443 50.3899 89.978 49.9249 89.638 49.3349C89.308 48.7449 89.143 48.0649 89.143 47.2949C89.143 46.5249 89.308 45.8449 89.638 45.2549C89.978 44.6649 90.438 44.2049 91.018 43.8749C91.608 43.5349 92.283 43.3649 93.043 43.3649C93.783 43.3649 94.453 43.5449 95.053 43.9049C95.653 44.2549 96.098 44.7599 96.388 45.4199L94.828 46.0199C94.668 45.6899 94.423 45.4249 94.093 45.2249C93.763 45.0249 93.388 44.9249 92.968 44.9249C92.558 44.9249 92.193 45.0299 91.873 45.2399C91.553 45.4399 91.303 45.7199 91.123 46.0799C90.943 46.4299 90.853 46.8349 90.853 47.2949C90.853 47.7549 90.943 48.1649 91.123 48.5249C91.313 48.8749 91.568 49.1549 91.888 49.3649C92.218 49.5649 92.588 49.6649 92.998 49.6649C93.418 49.6649 93.793 49.5599 94.123 49.3499C94.453 49.1299 94.698 48.8349 94.858 48.4649L96.418 49.0649C96.128 49.7449 95.683 50.2749 95.083 50.6549C94.493 51.0349 93.823 51.2249 93.073 51.2249ZM101.217 51.2249C100.487 51.2249 99.8372 51.0599 99.2672 50.7299C98.7072 50.3899 98.2622 49.9249 97.9322 49.3349C97.6122 48.7449 97.4522 48.0649 97.4522 47.2949C97.4522 46.5249 97.6172 45.8449 97.9472 45.2549C98.2772 44.6649 98.7272 44.2049 99.2972 43.8749C99.8772 43.5349 100.537 43.3649 101.277 43.3649C101.947 43.3649 102.552 43.5399 103.092 43.8899C103.632 44.2299 104.057 44.7249 104.367 45.3749C104.687 46.0249 104.847 46.7999 104.847 47.6999H98.9522L99.1772 47.4899C99.1772 47.9499 99.2772 48.3499 99.4772 48.6899C99.6772 49.0199 99.9422 49.2749 100.272 49.4549C100.602 49.6349 100.967 49.7249 101.367 49.7249C101.827 49.7249 102.207 49.6249 102.507 49.4249C102.807 49.2149 103.042 48.9449 103.212 48.6149L104.697 49.2449C104.487 49.6449 104.217 49.9949 103.887 50.2949C103.567 50.5949 103.182 50.8249 102.732 50.9849C102.292 51.1449 101.787 51.2249 101.217 51.2249ZM99.2822 46.6199L99.0422 46.4099H103.272L103.047 46.6199C103.047 46.2099 102.957 45.8749 102.777 45.6149C102.597 45.3449 102.367 45.1449 102.087 45.0149C101.817 44.8749 101.532 44.8049 101.232 44.8049C100.932 44.8049 100.632 44.8749 100.332 45.0149C100.032 45.1449 99.7822 45.3449 99.5822 45.6149C99.3822 45.8749 99.2822 46.2099 99.2822 46.6199ZM106.389 51.0449V43.5449H108.054V51.0449H106.389ZM107.229 42.1199C106.959 42.1199 106.724 42.0249 106.524 41.8349C106.334 41.6349 106.239 41.3999 106.239 41.1299C106.239 40.8599 106.334 40.6299 106.524 40.4399C106.724 40.2499 106.959 40.1549 107.229 40.1549C107.499 40.1549 107.729 40.2499 107.919 40.4399C108.119 40.6299 108.219 40.8599 108.219 41.1299C108.219 41.3999 108.119 41.6349 107.919 41.8349C107.729 42.0249 107.499 42.1199 107.229 42.1199ZM112.599 51.0449L115.524 43.5449H117.264L114.174 51.0449H112.599ZM112.479 51.0449L109.374 43.5449H111.099L114.039 51.0449H112.479ZM121.604 51.2249C120.874 51.2249 120.224 51.0599 119.654 50.7299C119.094 50.3899 118.649 49.9249 118.319 49.3349C117.999 48.7449 117.839 48.0649 117.839 47.2949C117.839 46.5249 118.004 45.8449 118.334 45.2549C118.664 44.6649 119.114 44.2049 119.684 43.8749C120.264 43.5349 120.924 43.3649 121.664 43.3649C122.334 43.3649 122.939 43.5399 123.479 43.8899C124.019 44.2299 124.444 44.7249 124.754 45.3749C125.074 46.0249 125.234 46.7999 125.234 47.6999H119.339L119.564 47.4899C119.564 47.9499 119.664 48.3499 119.864 48.6899C120.064 49.0199 120.329 49.2749 120.659 49.4549C120.989 49.6349 121.354 49.7249 121.754 49.7249C122.214 49.7249 122.594 49.6249 122.894 49.4249C123.194 49.2149 123.429 48.9449 123.599 48.6149L125.084 49.2449C124.874 49.6449 124.604 49.9949 124.274 50.2949C123.954 50.5949 123.569 50.8249 123.119 50.9849C122.679 51.1449 122.174 51.2249 121.604 51.2249ZM119.669 46.6199L119.429 46.4099H123.659L123.434 46.6199C123.434 46.2099 123.344 45.8749 123.164 45.6149C122.984 45.3449 122.754 45.1449 122.474 45.0149C122.204 44.8749 121.919 44.8049 121.619 44.8049C121.319 44.8049 121.019 44.8749 120.719 45.0149C120.419 45.1449 120.169 45.3449 119.969 45.6149C119.769 45.8749 119.669 46.2099 119.669 46.6199ZM132.085 51.0449L132.01 49.6499V40.5449H133.675V51.0449H132.085ZM129.64 51.2249C128.96 51.2249 128.365 51.0649 127.855 50.7449C127.355 50.4149 126.96 49.9549 126.67 49.3649C126.39 48.7749 126.25 48.0849 126.25 47.2949C126.25 46.4949 126.39 45.8049 126.67 45.2249C126.96 44.6349 127.355 44.1799 127.855 43.8599C128.365 43.5299 128.96 43.3649 129.64 43.3649C130.27 43.3649 130.81 43.5299 131.26 43.8599C131.72 44.1799 132.07 44.6349 132.31 45.2249C132.55 45.8049 132.67 46.4949 132.67 47.2949C132.67 48.0849 132.55 48.7749 132.31 49.3649C132.07 49.9549 131.72 50.4149 131.26 50.7449C130.81 51.0649 130.27 51.2249 129.64 51.2249ZM130.06 49.6949C130.44 49.6949 130.775 49.5949 131.065 49.3949C131.365 49.1849 131.595 48.8999 131.755 48.5399C131.925 48.1799 132.01 47.7649 132.01 47.2949C132.01 46.8249 131.925 46.4099 131.755 46.0499C131.595 45.6899 131.365 45.4099 131.065 45.2099C130.775 45.0099 130.435 44.9099 130.045 44.9099C129.645 44.9099 129.29 45.0099 128.98 45.2099C128.67 45.4099 128.425 45.6899 128.245 46.0499C128.075 46.4099 127.985 46.8249 127.975 47.2949C127.985 47.7649 128.075 48.1799 128.245 48.5399C128.425 48.8999 128.67 49.1849 128.98 49.3949C129.3 49.5949 129.66 49.6949 130.06 49.6949ZM136.238 47.7749L136.133 40.5449H137.978L137.873 47.7749H136.238ZM137.048 51.2699C136.758 51.2699 136.508 51.1649 136.298 50.9549C136.098 50.7449 135.998 50.4949 135.998 50.2049C135.998 49.9149 136.098 49.6699 136.298 49.4699C136.508 49.2599 136.758 49.1549 137.048 49.1549C137.338 49.1549 137.588 49.2599 137.798 49.4699C138.008 49.6699 138.113 49.9149 138.113 50.2049C138.113 50.4949 138.008 50.7449 137.798 50.9549C137.588 51.1649 137.338 51.2699 137.048 51.2699Z" fill="white"/>
<path d="M75.8671 33.0449V22.5449H79.5721C80.2921 22.5449 80.9271 22.6899 81.4771 22.9799C82.0271 23.2699 82.4571 23.6749 82.7671 24.1949C83.0771 24.7049 83.2321 25.2999 83.2321 25.9799C83.2321 26.6399 83.0871 27.2299 82.7971 27.7499C82.5071 28.2699 82.1021 28.6799 81.5821 28.9799C81.0721 29.2699 80.4771 29.4149 79.7971 29.4149H77.6071V33.0449H75.8671ZM77.6071 27.8099H79.7671C80.2671 27.8099 80.6771 27.6399 80.9971 27.2999C81.3171 26.9599 81.4771 26.5199 81.4771 25.9799C81.4771 25.4299 81.2971 24.9849 80.9371 24.6449C80.5771 24.3049 80.1121 24.1349 79.5421 24.1349H77.6071V27.8099ZM87.9118 33.2249C87.1618 33.2249 86.4918 33.0599 85.9018 32.7299C85.3218 32.3899 84.8668 31.9249 84.5368 31.3349C84.2068 30.7449 84.0418 30.0649 84.0418 29.2949C84.0418 28.5249 84.2018 27.8449 84.5218 27.2549C84.8518 26.6649 85.3068 26.2049 85.8868 25.8749C86.4668 25.5349 87.1318 25.3649 87.8818 25.3649C88.6318 25.3649 89.2968 25.5349 89.8768 25.8749C90.4568 26.2049 90.9068 26.6649 91.2268 27.2549C91.5568 27.8449 91.7218 28.5249 91.7218 29.2949C91.7218 30.0649 91.5618 30.7449 91.2418 31.3349C90.9218 31.9249 90.4718 32.3899 89.8918 32.7299C89.3118 33.0599 88.6518 33.2249 87.9118 33.2249ZM87.9118 31.6799C88.3218 31.6799 88.6868 31.5799 89.0068 31.3799C89.3268 31.1699 89.5768 30.8899 89.7568 30.5399C89.9368 30.1799 90.0268 29.7649 90.0268 29.2949C90.0268 28.8249 89.9318 28.4149 89.7418 28.0649C89.5618 27.7049 89.3118 27.4249 88.9918 27.2249C88.6718 27.0149 88.3018 26.9099 87.8818 26.9099C87.4618 26.9099 87.0918 27.0099 86.7718 27.2099C86.4518 27.4099 86.2018 27.6899 86.0218 28.0499C85.8418 28.4099 85.7518 28.8249 85.7518 29.2949C85.7518 29.7649 85.8418 30.1799 86.0218 30.5399C86.2118 30.8899 86.4668 31.1699 86.7868 31.3799C87.1168 31.5799 87.4918 31.6799 87.9118 31.6799ZM94.4377 29.0549C94.4377 28.2449 94.5927 27.5799 94.9027 27.0599C95.2127 26.5399 95.6127 26.1549 96.1027 25.9049C96.6027 25.6449 97.1227 25.5149 97.6627 25.5149V27.1199C97.2027 27.1199 96.7677 27.1849 96.3577 27.3149C95.9577 27.4349 95.6327 27.6349 95.3827 27.9149C95.1327 28.1949 95.0077 28.5649 95.0077 29.0249L94.4377 29.0549ZM93.3277 33.0449V25.5449H95.0077V33.0449H93.3277ZM101.912 33.2249C101.122 33.2249 100.517 33.0299 100.097 32.6399C99.6869 32.2399 99.4819 31.6699 99.4819 30.9299V23.2049H101.147V30.6149C101.147 30.9649 101.227 31.2299 101.387 31.4099C101.557 31.5899 101.802 31.6799 102.122 31.6799C102.222 31.6799 102.332 31.6599 102.452 31.6199C102.572 31.5799 102.707 31.5049 102.857 31.3949L103.472 32.6699C103.212 32.8499 102.952 32.9849 102.692 33.0749C102.432 33.1749 102.172 33.2249 101.912 33.2249ZM98.2369 26.9849V25.5449H103.172V26.9849H98.2369ZM105.716 33.0449V24.7499C105.716 23.9599 105.911 23.3549 106.301 22.9349C106.701 22.5049 107.301 22.2899 108.101 22.2899C108.361 22.2899 108.636 22.3349 108.926 22.4249C109.226 22.5049 109.511 22.6149 109.781 22.7549L109.166 23.9999C108.976 23.9099 108.806 23.8449 108.656 23.8049C108.516 23.7649 108.391 23.7449 108.281 23.7449C107.981 23.7449 107.756 23.8449 107.606 24.0449C107.466 24.2349 107.396 24.5499 107.396 24.9899V33.0449H105.716ZM104.426 26.9249V25.5449H109.361V26.9249H104.426ZM114.191 33.2249C113.441 33.2249 112.771 33.0599 112.181 32.7299C111.601 32.3899 111.146 31.9249 110.816 31.3349C110.486 30.7449 110.321 30.0649 110.321 29.2949C110.321 28.5249 110.481 27.8449 110.801 27.2549C111.131 26.6649 111.586 26.2049 112.166 25.8749C112.746 25.5349 113.411 25.3649 114.161 25.3649C114.911 25.3649 115.576 25.5349 116.156 25.8749C116.736 26.2049 117.186 26.6649 117.506 27.2549C117.836 27.8449 118.001 28.5249 118.001 29.2949C118.001 30.0649 117.841 30.7449 117.521 31.3349C117.201 31.9249 116.751 32.3899 116.171 32.7299C115.591 33.0599 114.931 33.2249 114.191 33.2249ZM114.191 31.6799C114.601 31.6799 114.966 31.5799 115.286 31.3799C115.606 31.1699 115.856 30.8899 116.036 30.5399C116.216 30.1799 116.306 29.7649 116.306 29.2949C116.306 28.8249 116.211 28.4149 116.021 28.0649C115.841 27.7049 115.591 27.4249 115.271 27.2249C114.951 27.0149 114.581 26.9099 114.161 26.9099C113.741 26.9099 113.371 27.0099 113.051 27.2099C112.731 27.4099 112.481 27.6899 112.301 28.0499C112.121 28.4099 112.031 28.8249 112.031 29.2949C112.031 29.7649 112.121 30.1799 112.301 30.5399C112.491 30.8899 112.746 31.1699 113.066 31.3799C113.396 31.5799 113.771 31.6799 114.191 31.6799ZM119.606 33.0449V22.5449H121.286V33.0449H119.606ZM123.406 33.0449V25.5449H125.071V33.0449H123.406ZM124.246 24.1199C123.976 24.1199 123.741 24.0249 123.541 23.8349C123.351 23.6349 123.256 23.3999 123.256 23.1299C123.256 22.8599 123.351 22.6299 123.541 22.4399C123.741 22.2499 123.976 22.1549 124.246 22.1549C124.516 22.1549 124.746 22.2499 124.936 22.4399C125.136 22.6299 125.236 22.8599 125.236 23.1299C125.236 23.3999 125.136 23.6349 124.936 23.8349C124.746 24.0249 124.516 24.1199 124.246 24.1199ZM130.651 33.2249C129.901 33.2249 129.231 33.0599 128.641 32.7299C128.061 32.3899 127.606 31.9249 127.276 31.3349C126.946 30.7449 126.781 30.0649 126.781 29.2949C126.781 28.5249 126.941 27.8449 127.261 27.2549C127.591 26.6649 128.046 26.2049 128.626 25.8749C129.206 25.5349 129.871 25.3649 130.621 25.3649C131.371 25.3649 132.036 25.5349 132.616 25.8749C133.196 26.2049 133.646 26.6649 133.966 27.2549C134.296 27.8449 134.461 28.5249 134.461 29.2949C134.461 30.0649 134.301 30.7449 133.981 31.3349C133.661 31.9249 133.211 32.3899 132.631 32.7299C132.051 33.0599 131.391 33.2249 130.651 33.2249ZM130.651 31.6799C131.061 31.6799 131.426 31.5799 131.746 31.3799C132.066 31.1699 132.316 30.8899 132.496 30.5399C132.676 30.1799 132.766 29.7649 132.766 29.2949C132.766 28.8249 132.671 28.4149 132.481 28.0649C132.301 27.7049 132.051 27.4249 131.731 27.2249C131.411 27.0149 131.041 26.9099 130.621 26.9099C130.201 26.9099 129.831 27.0099 129.511 27.2099C129.191 27.4099 128.941 27.6899 128.761 28.0499C128.581 28.4099 128.491 28.8249 128.491 29.2949C128.491 29.7649 128.581 30.1799 128.761 30.5399C128.951 30.8899 129.206 31.1699 129.526 31.3799C129.856 31.5799 130.231 31.6799 130.651 31.6799ZM140.945 29.0549C140.945 28.2449 141.1 27.5799 141.41 27.0599C141.72 26.5399 142.12 26.1549 142.61 25.9049C143.11 25.6449 143.63 25.5149 144.17 25.5149V27.1199C143.71 27.1199 143.275 27.1849 142.865 27.3149C142.465 27.4349 142.14 27.6349 141.89 27.9149C141.64 28.1949 141.515 28.5649 141.515 29.0249L140.945 29.0549ZM139.835 33.0449V25.5449H141.515V33.0449H139.835ZM148.779 33.2249C148.049 33.2249 147.399 33.0599 146.829 32.7299C146.269 32.3899 145.824 31.9249 145.494 31.3349C145.174 30.7449 145.014 30.0649 145.014 29.2949C145.014 28.5249 145.179 27.8449 145.509 27.2549C145.839 26.6649 146.289 26.2049 146.859 25.8749C147.439 25.5349 148.099 25.3649 148.839 25.3649C149.509 25.3649 150.114 25.5399 150.654 25.8899C151.194 26.2299 151.619 26.7249 151.929 27.3749C152.249 28.0249 152.409 28.7999 152.409 29.6999H146.514L146.739 29.4899C146.739 29.9499 146.839 30.3499 147.039 30.6899C147.239 31.0199 147.504 31.2749 147.834 31.4549C148.164 31.6349 148.529 31.7249 148.929 31.7249C149.389 31.7249 149.769 31.6249 150.069 31.4249C150.369 31.2149 150.604 30.9449 150.774 30.6149L152.259 31.2449C152.049 31.6449 151.779 31.9949 151.449 32.2949C151.129 32.5949 150.744 32.8249 150.294 32.9849C149.854 33.1449 149.349 33.2249 148.779 33.2249ZM146.844 28.6199L146.604 28.4099H150.834L150.609 28.6199C150.609 28.2099 150.519 27.8749 150.339 27.6149C150.159 27.3449 149.929 27.1449 149.649 27.0149C149.379 26.8749 149.094 26.8049 148.794 26.8049C148.494 26.8049 148.194 26.8749 147.894 27.0149C147.594 27.1449 147.344 27.3449 147.144 27.6149C146.944 27.8749 146.844 28.2099 146.844 28.6199ZM156.576 33.2249C156.076 33.2249 155.616 33.1499 155.196 32.9999C154.776 32.8499 154.416 32.6399 154.116 32.3699C153.816 32.0899 153.586 31.7649 153.426 31.3949L154.881 30.7499C155.031 31.0299 155.251 31.2649 155.541 31.4549C155.841 31.6449 156.171 31.7399 156.531 31.7399C156.921 31.7399 157.231 31.6749 157.461 31.5449C157.701 31.4049 157.821 31.2149 157.821 30.9749C157.821 30.7449 157.731 30.5699 157.551 30.4499C157.371 30.3199 157.116 30.2149 156.786 30.1349L156.081 29.9399C155.371 29.7599 154.816 29.4749 154.416 29.0849C154.016 28.6849 153.816 28.2299 153.816 27.7199C153.816 26.9699 154.056 26.3899 154.536 25.9799C155.026 25.5699 155.726 25.3649 156.636 25.3649C157.096 25.3649 157.516 25.4349 157.896 25.5749C158.286 25.7049 158.621 25.8949 158.901 26.1449C159.181 26.3849 159.376 26.6699 159.486 26.9999L158.091 27.6299C157.991 27.3799 157.801 27.1899 157.521 27.0599C157.241 26.9199 156.931 26.8499 156.591 26.8499C156.251 26.8499 155.986 26.9249 155.796 27.0749C155.606 27.2149 155.511 27.4149 155.511 27.6749C155.511 27.8249 155.596 27.9649 155.766 28.0949C155.936 28.2149 156.181 28.3149 156.501 28.3949L157.386 28.6049C157.876 28.7249 158.276 28.9149 158.586 29.1749C158.896 29.4249 159.126 29.7099 159.276 30.0299C159.426 30.3399 159.501 30.6549 159.501 30.9749C159.501 31.4249 159.371 31.8199 159.111 32.1599C158.861 32.4999 158.516 32.7649 158.076 32.9549C157.636 33.1349 157.136 33.2249 156.576 33.2249ZM161.059 36.0449V25.5449H162.634L162.739 26.9249V36.0449H161.059ZM165.109 33.2249C164.479 33.2249 163.934 33.0649 163.474 32.7449C163.024 32.4149 162.679 31.9549 162.439 31.3649C162.199 30.7749 162.079 30.0849 162.079 29.2949C162.079 28.4949 162.199 27.8049 162.439 27.2249C162.679 26.6349 163.024 26.1799 163.474 25.8599C163.934 25.5299 164.479 25.3649 165.109 25.3649C165.789 25.3649 166.379 25.5299 166.879 25.8599C167.389 26.1799 167.784 26.6349 168.064 27.2249C168.354 27.8049 168.499 28.4949 168.499 29.2949C168.499 30.0849 168.354 30.7749 168.064 31.3649C167.784 31.9549 167.389 32.4149 166.879 32.7449C166.379 33.0649 165.789 33.2249 165.109 33.2249ZM164.689 31.6949C165.089 31.6949 165.444 31.5949 165.754 31.3949C166.064 31.1849 166.309 30.8999 166.489 30.5399C166.679 30.1799 166.774 29.7649 166.774 29.2949C166.774 28.8249 166.684 28.4099 166.504 28.0499C166.334 27.6899 166.094 27.4099 165.784 27.2099C165.474 27.0099 165.114 26.9099 164.704 26.9099C164.324 26.9099 163.984 27.0099 163.684 27.2099C163.384 27.4099 163.149 27.6899 162.979 28.0499C162.819 28.4099 162.739 28.8249 162.739 29.2949C162.739 29.7649 162.819 30.1799 162.979 30.5399C163.149 30.8999 163.379 31.1849 163.669 31.3949C163.969 31.5949 164.309 31.6949 164.689 31.6949ZM173.534 33.2249C172.784 33.2249 172.114 33.0599 171.524 32.7299C170.944 32.3899 170.489 31.9249 170.159 31.3349C169.829 30.7449 169.664 30.0649 169.664 29.2949C169.664 28.5249 169.824 27.8449 170.144 27.2549C170.474 26.6649 170.929 26.2049 171.509 25.8749C172.089 25.5349 172.754 25.3649 173.504 25.3649C174.254 25.3649 174.919 25.5349 175.499 25.8749C176.079 26.2049 176.529 26.6649 176.849 27.2549C177.179 27.8449 177.344 28.5249 177.344 29.2949C177.344 30.0649 177.184 30.7449 176.864 31.3349C176.544 31.9249 176.094 32.3899 175.514 32.7299C174.934 33.0599 174.274 33.2249 173.534 33.2249ZM173.534 31.6799C173.944 31.6799 174.309 31.5799 174.629 31.3799C174.949 31.1699 175.199 30.8899 175.379 30.5399C175.559 30.1799 175.649 29.7649 175.649 29.2949C175.649 28.8249 175.554 28.4149 175.364 28.0649C175.184 27.7049 174.934 27.4249 174.614 27.2249C174.294 27.0149 173.924 26.9099 173.504 26.9099C173.084 26.9099 172.714 27.0099 172.394 27.2099C172.074 27.4099 171.824 27.6899 171.644 28.0499C171.464 28.4099 171.374 28.8249 171.374 29.2949C171.374 29.7649 171.464 30.1799 171.644 30.5399C171.834 30.8899 172.089 31.1699 172.409 31.3799C172.739 31.5799 173.114 31.6799 173.534 31.6799ZM178.95 33.0449V25.5449H180.525L180.63 26.9249V33.0449H178.95ZM184.035 33.0449V29.2049H185.715V33.0449H184.035ZM184.035 29.2049C184.035 28.6049 183.965 28.1449 183.825 27.8249C183.695 27.4949 183.505 27.2649 183.255 27.1349C183.015 27.0049 182.73 26.9399 182.4 26.9399C181.84 26.9299 181.405 27.1149 181.095 27.4949C180.785 27.8749 180.63 28.4199 180.63 29.1299H180C180 28.3399 180.115 27.6649 180.345 27.1049C180.575 26.5349 180.905 26.1049 181.335 25.8149C181.765 25.5149 182.275 25.3649 182.865 25.3649C183.465 25.3649 183.975 25.4849 184.395 25.7249C184.825 25.9649 185.15 26.3399 185.37 26.8499C185.6 27.3499 185.715 28.0049 185.715 28.8149V29.2049H184.035ZM190.296 33.2249C189.796 33.2249 189.336 33.1499 188.916 32.9999C188.496 32.8499 188.136 32.6399 187.836 32.3699C187.536 32.0899 187.306 31.7649 187.146 31.3949L188.601 30.7499C188.751 31.0299 188.971 31.2649 189.261 31.4549C189.561 31.6449 189.891 31.7399 190.251 31.7399C190.641 31.7399 190.951 31.6749 191.181 31.5449C191.421 31.4049 191.541 31.2149 191.541 30.9749C191.541 30.7449 191.451 30.5699 191.271 30.4499C191.091 30.3199 190.836 30.2149 190.506 30.1349L189.801 29.9399C189.091 29.7599 188.536 29.4749 188.136 29.0849C187.736 28.6849 187.536 28.2299 187.536 27.7199C187.536 26.9699 187.776 26.3899 188.256 25.9799C188.746 25.5699 189.446 25.3649 190.356 25.3649C190.816 25.3649 191.236 25.4349 191.616 25.5749C192.006 25.7049 192.341 25.8949 192.621 26.1449C192.901 26.3849 193.096 26.6699 193.206 26.9999L191.811 27.6299C191.711 27.3799 191.521 27.1899 191.241 27.0599C190.961 26.9199 190.651 26.8499 190.311 26.8499C189.971 26.8499 189.706 26.9249 189.516 27.0749C189.326 27.2149 189.231 27.4149 189.231 27.6749C189.231 27.8249 189.316 27.9649 189.486 28.0949C189.656 28.2149 189.901 28.3149 190.221 28.3949L191.106 28.6049C191.596 28.7249 191.996 28.9149 192.306 29.1749C192.616 29.4249 192.846 29.7099 192.996 30.0299C193.146 30.3399 193.221 30.6549 193.221 30.9749C193.221 31.4249 193.091 31.8199 192.831 32.1599C192.581 32.4999 192.236 32.7649 191.796 32.9549C191.356 33.1349 190.856 33.2249 190.296 33.2249ZM198.049 33.2249C197.319 33.2249 196.669 33.0599 196.099 32.7299C195.539 32.3899 195.094 31.9249 194.764 31.3349C194.444 30.7449 194.284 30.0649 194.284 29.2949C194.284 28.5249 194.449 27.8449 194.779 27.2549C195.109 26.6649 195.559 26.2049 196.129 25.8749C196.709 25.5349 197.369 25.3649 198.109 25.3649C198.779 25.3649 199.384 25.5399 199.924 25.8899C200.464 26.2299 200.889 26.7249 201.199 27.3749C201.519 28.0249 201.679 28.7999 201.679 29.6999H195.784L196.009 29.4899C196.009 29.9499 196.109 30.3499 196.309 30.6899C196.509 31.0199 196.774 31.2749 197.104 31.4549C197.434 31.6349 197.799 31.7249 198.199 31.7249C198.659 31.7249 199.039 31.6249 199.339 31.4249C199.639 31.2149 199.874 30.9449 200.044 30.6149L201.529 31.2449C201.319 31.6449 201.049 31.9949 200.719 32.2949C200.399 32.5949 200.014 32.8249 199.564 32.9849C199.124 33.1449 198.619 33.2249 198.049 33.2249ZM196.114 28.6199L195.874 28.4099H200.104L199.879 28.6199C199.879 28.2099 199.789 27.8749 199.609 27.6149C199.429 27.3449 199.199 27.1449 198.919 27.0149C198.649 26.8749 198.364 26.8049 198.064 26.8049C197.764 26.8049 197.464 26.8749 197.164 27.0149C196.864 27.1449 196.614 27.3449 196.414 27.6149C196.214 27.8749 196.114 28.2099 196.114 28.6199ZM76.6621 47.0549C76.6621 46.2449 76.8171 45.5799 77.1271 45.0599C77.4371 44.5399 77.8371 44.1549 78.3271 43.9049C78.8271 43.6449 79.3471 43.5149 79.8871 43.5149V45.1199C79.4271 45.1199 78.9921 45.1849 78.5821 45.3149C78.1821 45.4349 77.8571 45.6349 77.6071 45.9149C77.3571 46.1949 77.2321 46.5649 77.2321 47.0249L76.6621 47.0549ZM75.5521 51.0449V43.5449H77.2321V51.0449H75.5521ZM84.4963 51.2249C83.7663 51.2249 83.1163 51.0599 82.5463 50.7299C81.9863 50.3899 81.5413 49.9249 81.2113 49.3349C80.8913 48.7449 80.7313 48.0649 80.7313 47.2949C80.7313 46.5249 80.8963 45.8449 81.2263 45.2549C81.5563 44.6649 82.0063 44.2049 82.5763 43.8749C83.1563 43.5349 83.8163 43.3649 84.5563 43.3649C85.2263 43.3649 85.8313 43.5399 86.3713 43.8899C86.9113 44.2299 87.3363 44.7249 87.6463 45.3749C87.9663 46.0249 88.1263 46.7999 88.1263 47.6999H82.2313L82.4563 47.4899C82.4563 47.9499 82.5563 48.3499 82.7563 48.6899C82.9563 49.0199 83.2213 49.2749 83.5513 49.4549C83.8813 49.6349 84.2463 49.7249 84.6463 49.7249C85.1063 49.7249 85.4863 49.6249 85.7863 49.4249C86.0863 49.2149 86.3213 48.9449 86.4913 48.6149L87.9763 49.2449C87.7663 49.6449 87.4963 49.9949 87.1663 50.2949C86.8463 50.5949 86.4613 50.8249 86.0113 50.9849C85.5713 51.1449 85.0663 51.2249 84.4963 51.2249ZM82.5613 46.6199L82.3213 46.4099H86.5513L86.3263 46.6199C86.3263 46.2099 86.2363 45.8749 86.0563 45.6149C85.8763 45.3449 85.6463 45.1449 85.3663 45.0149C85.0963 44.8749 84.8113 44.8049 84.5113 44.8049C84.2113 44.8049 83.9113 44.8749 83.6113 45.0149C83.3113 45.1449 83.0613 45.3449 82.8613 45.6149C82.6613 45.8749 82.5613 46.2099 82.5613 46.6199ZM93.073 51.2249C92.303 51.2249 91.623 51.0599 91.033 50.7299C90.443 50.3899 89.978 49.9249 89.638 49.3349C89.308 48.7449 89.143 48.0649 89.143 47.2949C89.143 46.5249 89.308 45.8449 89.638 45.2549C89.978 44.6649 90.438 44.2049 91.018 43.8749C91.608 43.5349 92.283 43.3649 93.043 43.3649C93.783 43.3649 94.453 43.5449 95.053 43.9049C95.653 44.2549 96.098 44.7599 96.388 45.4199L94.828 46.0199C94.668 45.6899 94.423 45.4249 94.093 45.2249C93.763 45.0249 93.388 44.9249 92.968 44.9249C92.558 44.9249 92.193 45.0299 91.873 45.2399C91.553 45.4399 91.303 45.7199 91.123 46.0799C90.943 46.4299 90.853 46.8349 90.853 47.2949C90.853 47.7549 90.943 48.1649 91.123 48.5249C91.313 48.8749 91.568 49.1549 91.888 49.3649C92.218 49.5649 92.588 49.6649 92.998 49.6649C93.418 49.6649 93.793 49.5599 94.123 49.3499C94.453 49.1299 94.698 48.8349 94.858 48.4649L96.418 49.0649C96.128 49.7449 95.683 50.2749 95.083 50.6549C94.493 51.0349 93.823 51.2249 93.073 51.2249ZM101.217 51.2249C100.487 51.2249 99.8372 51.0599 99.2672 50.7299C98.7072 50.3899 98.2622 49.9249 97.9322 49.3349C97.6122 48.7449 97.4522 48.0649 97.4522 47.2949C97.4522 46.5249 97.6172 45.8449 97.9472 45.2549C98.2772 44.6649 98.7272 44.2049 99.2972 43.8749C99.8772 43.5349 100.537 43.3649 101.277 43.3649C101.947 43.3649 102.552 43.5399 103.092 43.8899C103.632 44.2299 104.057 44.7249 104.367 45.3749C104.687 46.0249 104.847 46.7999 104.847 47.6999H98.9522L99.1772 47.4899C99.1772 47.9499 99.2772 48.3499 99.4772 48.6899C99.6772 49.0199 99.9422 49.2749 100.272 49.4549C100.602 49.6349 100.967 49.7249 101.367 49.7249C101.827 49.7249 102.207 49.6249 102.507 49.4249C102.807 49.2149 103.042 48.9449 103.212 48.6149L104.697 49.2449C104.487 49.6449 104.217 49.9949 103.887 50.2949C103.567 50.5949 103.182 50.8249 102.732 50.9849C102.292 51.1449 101.787 51.2249 101.217 51.2249ZM99.2822 46.6199L99.0422 46.4099H103.272L103.047 46.6199C103.047 46.2099 102.957 45.8749 102.777 45.6149C102.597 45.3449 102.367 45.1449 102.087 45.0149C101.817 44.8749 101.532 44.8049 101.232 44.8049C100.932 44.8049 100.632 44.8749 100.332 45.0149C100.032 45.1449 99.7822 45.3449 99.5822 45.6149C99.3822 45.8749 99.2822 46.2099 99.2822 46.6199ZM106.389 51.0449V43.5449H108.054V51.0449H106.389ZM107.229 42.1199C106.959 42.1199 106.724 42.0249 106.524 41.8349C106.334 41.6349 106.239 41.3999 106.239 41.1299C106.239 40.8599 106.334 40.6299 106.524 40.4399C106.724 40.2499 106.959 40.1549 107.229 40.1549C107.499 40.1549 107.729 40.2499 107.919 40.4399C108.119 40.6299 108.219 40.8599 108.219 41.1299C108.219 41.3999 108.119 41.6349 107.919 41.8349C107.729 42.0249 107.499 42.1199 107.229 42.1199ZM112.599 51.0449L115.524 43.5449H117.264L114.174 51.0449H112.599ZM112.479 51.0449L109.374 43.5449H111.099L114.039 51.0449H112.479ZM121.604 51.2249C120.874 51.2249 120.224 51.0599 119.654 50.7299C119.094 50.3899 118.649 49.9249 118.319 49.3349C117.999 48.7449 117.839 48.0649 117.839 47.2949C117.839 46.5249 118.004 45.8449 118.334 45.2549C118.664 44.6649 119.114 44.2049 119.684 43.8749C120.264 43.5349 120.924 43.3649 121.664 43.3649C122.334 43.3649 122.939 43.5399 123.479 43.8899C124.019 44.2299 124.444 44.7249 124.754 45.3749C125.074 46.0249 125.234 46.7999 125.234 47.6999H119.339L119.564 47.4899C119.564 47.9499 119.664 48.3499 119.864 48.6899C120.064 49.0199 120.329 49.2749 120.659 49.4549C120.989 49.6349 121.354 49.7249 121.754 49.7249C122.214 49.7249 122.594 49.6249 122.894 49.4249C123.194 49.2149 123.429 48.9449 123.599 48.6149L125.084 49.2449C124.874 49.6449 124.604 49.9949 124.274 50.2949C123.954 50.5949 123.569 50.8249 123.119 50.9849C122.679 51.1449 122.174 51.2249 121.604 51.2249ZM119.669 46.6199L119.429 46.4099H123.659L123.434 46.6199C123.434 46.2099 123.344 45.8749 123.164 45.6149C122.984 45.3449 122.754 45.1449 122.474 45.0149C122.204 44.8749 121.919 44.8049 121.619 44.8049C121.319 44.8049 121.019 44.8749 120.719 45.0149C120.419 45.1449 120.169 45.3449 119.969 45.6149C119.769 45.8749 119.669 46.2099 119.669 46.6199ZM132.085 51.0449L132.01 49.6499V40.5449H133.675V51.0449H132.085ZM129.64 51.2249C128.96 51.2249 128.365 51.0649 127.855 50.7449C127.355 50.4149 126.96 49.9549 126.67 49.3649C126.39 48.7749 126.25 48.0849 126.25 47.2949C126.25 46.4949 126.39 45.8049 126.67 45.2249C126.96 44.6349 127.355 44.1799 127.855 43.8599C128.365 43.5299 128.96 43.3649 129.64 43.3649C130.27 43.3649 130.81 43.5299 131.26 43.8599C131.72 44.1799 132.07 44.6349 132.31 45.2249C132.55 45.8049 132.67 46.4949 132.67 47.2949C132.67 48.0849 132.55 48.7749 132.31 49.3649C132.07 49.9549 131.72 50.4149 131.26 50.7449C130.81 51.0649 130.27 51.2249 129.64 51.2249ZM130.06 49.6949C130.44 49.6949 130.775 49.5949 131.065 49.3949C131.365 49.1849 131.595 48.8999 131.755 48.5399C131.925 48.1799 132.01 47.7649 132.01 47.2949C132.01 46.8249 131.925 46.4099 131.755 46.0499C131.595 45.6899 131.365 45.4099 131.065 45.2099C130.775 45.0099 130.435 44.9099 130.045 44.9099C129.645 44.9099 129.29 45.0099 128.98 45.2099C128.67 45.4099 128.425 45.6899 128.245 46.0499C128.075 46.4099 127.985 46.8249 127.975 47.2949C127.985 47.7649 128.075 48.1799 128.245 48.5399C128.425 48.8999 128.67 49.1849 128.98 49.3949C129.3 49.5949 129.66 49.6949 130.06 49.6949ZM136.238 47.7749L136.133 40.5449H137.978L137.873 47.7749H136.238ZM137.048 51.2699C136.758 51.2699 136.508 51.1649 136.298 50.9549C136.098 50.7449 135.998 50.4949 135.998 50.2049C135.998 49.9149 136.098 49.6699 136.298 49.4699C136.508 49.2599 136.758 49.1549 137.048 49.1549C137.338 49.1549 137.588 49.2599 137.798 49.4699C138.008 49.6699 138.113 49.9149 138.113 50.2049C138.113 50.4949 138.008 50.7449 137.798 50.9549C137.588 51.1649 137.338 51.2699 137.048 51.2699Z" fill="#3D3D4F"/>
</svg>
