<svg width="558" height="494" viewBox="0 0 558 494" fill="none" xmlns="http://www.w3.org/2000/svg">
    <g clip-path="url(#clip0_2560_2235)">
        <path d="M263.638 371.896L194.423 493.666H557.431L488.952 371.896H263.638Z" stroke="#DFE2EE" stroke-miterlimit="10"/>
        <path d="M201.323 489.648L265.974 375.912H486.603L550.565 489.648H201.323Z" stroke="#DFE2EE" stroke-miterlimit="10"/>
        <path d="M208.229 485.632L268.31 379.93H484.254L543.699 485.632H208.229Z" stroke="#DFE2EE" stroke-miterlimit="10"/>
        <path d="M215.128 481.614L270.645 383.945H481.905L536.833 481.614H215.128Z" stroke="#DFE2EE" stroke-miterlimit="10"/>
        <path d="M222.034 477.598L272.981 387.963H479.563L529.967 477.598H222.034Z" stroke="#DFE2EE" stroke-miterlimit="10"/>
        <path d="M228.934 473.582L275.316 391.98H477.214L523.101 473.582H228.934Z" stroke="#DFE2EE" stroke-miterlimit="10"/>
        <path d="M235.833 469.564L277.652 395.996H474.865L516.235 469.564H235.833Z" stroke="#DFE2EE" stroke-miterlimit="10"/>
        <path d="M242.739 465.548L279.987 400.014H472.516L509.369 465.548H242.739Z" stroke="#DFE2EE" stroke-miterlimit="10"/>
        <path d="M249.639 461.532L282.323 404.031H470.167L502.503 461.532H249.639Z" stroke="#DFE2EE" stroke-miterlimit="10"/>
        <path d="M256.545 457.514L284.658 408.047H467.818L495.637 457.514H256.545Z" stroke="#DFE2EE" stroke-miterlimit="10"/>
        <path d="M263.444 453.498L286.994 412.064H465.47L488.771 453.498H263.444Z" stroke="#DFE2EE" stroke-miterlimit="10"/>
        <path d="M270.344 449.48L289.329 416.08H463.121L481.905 449.48H270.344Z" stroke="#DFE2EE" stroke-miterlimit="10"/>
        <path d="M277.364 445.396L291.705 420.164H460.738L474.925 445.396H277.364Z" stroke="#DFE2EE" stroke-miterlimit="10"/>
        <path d="M284.611 441.18L294.161 424.383H458.269L467.718 441.18H284.611Z" stroke="#DFE2EE" stroke-miterlimit="10"/>
        <path d="M291.859 436.968L296.61 428.6H455.806L460.511 436.968H291.859Z" stroke="#DFE2EE" stroke-miterlimit="10"/>
        <path d="M279.452 286.652L359.234 147.189L282.985 2.2694L282.135 0.689453L0.575562 493.665H161.692L279.452 286.652Z" stroke="#DFE2EE" stroke-miterlimit="10"/>
        <path d="M7.60876 489.581L282.001 9.1582L354.576 147.109L275.905 284.624L159.317 489.581H7.60876Z" stroke="#DFE2EE" stroke-miterlimit="10"/>
        <path d="M14.6421 485.504L281.854 17.6465L349.919 147.028L272.365 282.595L156.941 485.504H14.6421Z" stroke="#DFE2EE" stroke-miterlimit="10"/>
        <path d="M21.6754 481.421L281.707 26.1367L345.261 146.942L268.818 280.568L154.572 481.421H21.6754Z" stroke="#DFE2EE" stroke-miterlimit="10"/>
        <path d="M28.7087 477.337L281.56 34.625L340.61 146.861L265.278 278.539L152.196 477.337H28.7087Z" stroke="#DFE2EE" stroke-miterlimit="10"/>
        <path d="M35.7488 473.253L281.412 43.1133L335.952 146.78L261.738 276.51L149.821 473.253H35.7488Z" stroke="#DFE2EE" stroke-miterlimit="10"/>
        <path d="M42.782 469.17L281.265 51.6035L331.295 146.695L258.191 274.483L147.452 469.17H42.782Z" stroke="#DFE2EE" stroke-miterlimit="10"/>
        <path d="M49.8153 465.086L281.118 60.0918L326.637 146.614L254.651 272.454L145.076 465.086H49.8153Z" stroke="#DFE2EE" stroke-miterlimit="10"/>
        <path d="M56.8486 461.002L280.971 68.5801L321.979 146.533L251.104 270.424L142.7 461.002H56.8486Z" stroke="#DFE2EE" stroke-miterlimit="10"/>
        <path d="M63.882 456.917L280.824 77.0684L317.329 146.452L247.564 268.395L140.331 456.917H63.882Z" stroke="#DFE2EE" stroke-miterlimit="10"/>
        <path d="M70.9153 452.835L280.676 85.5586L312.671 146.366L244.024 266.368L137.956 452.835H70.9153Z" stroke="#DFE2EE" stroke-miterlimit="10"/>
        <path d="M77.9485 448.751L280.529 94.0469L308.013 146.285L240.477 264.339L135.58 448.751H77.9485Z" stroke="#DFE2EE" stroke-miterlimit="10"/>
        <path d="M84.9818 444.666L280.382 102.535L303.356 146.205L236.937 262.31L133.211 444.666H84.9818Z" stroke="#DFE2EE" stroke-miterlimit="10"/>
        <path d="M92.0151 440.584L280.235 111.025L298.698 146.119L233.391 260.283L130.835 440.584H92.0151Z" stroke="#DFE2EE" stroke-miterlimit="10"/>
        <path d="M99.0485 436.5L280.087 119.514L294.047 146.038L229.851 258.254L128.46 436.5H99.0485Z" stroke="#DFE2EE" stroke-miterlimit="10"/>
        <path d="M106.196 432.349L279.94 128.143L289.309 145.957L226.25 256.192L126.051 432.349H106.196Z" stroke="#DFE2EE" stroke-miterlimit="10"/>
        <path d="M113.349 428.197L279.793 136.771L284.578 145.87L222.65 254.129L123.635 428.197H113.349Z" stroke="#DFE2EE" stroke-miterlimit="10"/>
        <path d="M298.537 433.213H454.347" stroke="#DFE2EE" stroke-miterlimit="10"/>
        <path d="M120.791 424.362L279.873 145.281" stroke="#DFE2EE" stroke-miterlimit="10"/>
    </g>
    <defs>
        <clipPath id="clip0_2560_2235">
            <rect width="558" height="494" fill="white"/>
        </clipPath>
    </defs>
</svg>
