<svg width="222" height="74" viewBox="0 0 222 74" fill="none" xmlns="http://www.w3.org/2000/svg">
<rect width="221.245" height="74" rx="16" fill="white"/>
<rect x="15" y="15" width="44" height="44" rx="10" fill="#8950EB"/>
<mask id="mask0_2393_2554" style="mask-type:alpha" maskUnits="userSpaceOnUse" x="21" y="23" width="29" height="29">
<rect x="21.9976" y="23.248" width="28" height="28" fill="#D9D9D9"/>
</mask>
<g mask="url(#mask0_2393_2554)">
<path d="M26.664 44.2493L26.664 30.2493V36.4327V36.0827L26.664 44.2493ZM26.664 46.5827C26.0224 46.5827 25.473 46.3542 25.0161 45.8973C24.5592 45.4403 24.3307 44.891 24.3307 44.2493L24.3307 30.2493C24.3307 29.6077 24.5592 29.0584 25.0161 28.6014C25.473 28.1445 26.0224 27.916 26.664 27.916L33.664 27.916L35.9974 30.2493L45.3307 30.2493C45.9724 30.2493 46.5217 30.4778 46.9786 30.9348C47.4355 31.3917 47.664 31.941 47.664 32.5827V37.5702C47.314 37.3174 46.9446 37.0987 46.5557 36.9139C46.1668 36.7292 45.7585 36.5688 45.3307 36.4327V32.5827H35.0349L32.7015 30.2493L26.664 30.2493L26.664 44.2493H34.8307C34.8307 44.6577 34.8599 45.0563 34.9182 45.4452C34.9765 45.8341 35.064 46.2132 35.1807 46.5827H26.664ZM42.1515 46.8743L46.2057 42.8493L44.9807 41.6243L42.1515 44.3952L41.014 43.2577L39.789 44.5119L42.1515 46.8743ZM42.9974 38.416C44.6112 38.416 45.9869 38.9848 47.1244 40.1223C48.2619 41.2598 48.8307 42.6355 48.8307 44.2493C48.8307 45.8632 48.2619 47.2389 47.1244 48.3764C45.9869 49.5139 44.6112 50.0827 42.9974 50.0827C41.3835 50.0827 40.0078 49.5139 38.8703 48.3764C37.7328 47.2389 37.164 45.8632 37.164 44.2493C37.164 42.6355 37.7328 41.2598 38.8703 40.1223C40.0078 38.9848 41.3835 38.416 42.9974 38.416Z" fill="white"/>
</g>
<path d="M75.328 34V22.8H82.224V24.496H77.184V27.472H81.632V29.136H77.184V32.304H82.272V34H75.328ZM83.9175 34L87.1975 29.424L89.4855 26H91.5975L88.4775 30.416L86.0615 34H83.9175ZM89.6615 34L87.2935 30.416L84.1255 26H86.2375L88.5415 29.424L91.7895 34H89.6615ZM96.7979 34.192C95.9765 34.192 95.2512 34.016 94.6219 33.664C93.9925 33.3013 93.4965 32.8053 93.1339 32.176C92.7819 31.5467 92.6059 30.8213 92.6059 30C92.6059 29.1787 92.7819 28.4533 93.1339 27.824C93.4965 27.1947 93.9872 26.704 94.6059 26.352C95.2352 25.9893 95.9552 25.808 96.7659 25.808C97.5552 25.808 98.2699 26 98.9099 26.384C99.5499 26.7573 100.025 27.296 100.334 28L98.6699 28.64C98.4992 28.288 98.2379 28.0053 97.8859 27.792C97.5339 27.5787 97.1339 27.472 96.6859 27.472C96.2485 27.472 95.8592 27.584 95.5179 27.808C95.1765 28.0213 94.9099 28.32 94.7179 28.704C94.5259 29.0773 94.4299 29.5093 94.4299 30C94.4299 30.4907 94.5259 30.928 94.7179 31.312C94.9205 31.6853 95.1925 31.984 95.5339 32.208C95.8859 32.4213 96.2805 32.528 96.7179 32.528C97.1659 32.528 97.5659 32.416 97.9179 32.192C98.2699 31.9573 98.5312 31.6427 98.7019 31.248L100.366 31.888C100.057 32.6133 99.5819 33.1787 98.9419 33.584C98.3125 33.9893 97.5979 34.192 96.7979 34.192ZM105.645 34.192C104.866 34.192 104.173 34.016 103.565 33.664C102.968 33.3013 102.493 32.8053 102.141 32.176C101.8 31.5467 101.629 30.8213 101.629 30C101.629 29.1787 101.805 28.4533 102.157 27.824C102.509 27.1947 102.989 26.704 103.597 26.352C104.216 25.9893 104.92 25.808 105.709 25.808C106.424 25.808 107.069 25.9947 107.645 26.368C108.221 26.7307 108.674 27.2587 109.005 27.952C109.346 28.6453 109.517 29.472 109.517 30.432H103.229L103.469 30.208C103.469 30.6987 103.576 31.1253 103.789 31.488C104.002 31.84 104.285 32.112 104.637 32.304C104.989 32.496 105.378 32.592 105.805 32.592C106.296 32.592 106.701 32.4853 107.021 32.272C107.341 32.048 107.592 31.76 107.773 31.408L109.357 32.08C109.133 32.5067 108.845 32.88 108.493 33.2C108.152 33.52 107.741 33.7653 107.261 33.936C106.792 34.1067 106.253 34.192 105.645 34.192ZM103.581 29.28L103.325 29.056H107.837L107.597 29.28C107.597 28.8427 107.501 28.4853 107.309 28.208C107.117 27.92 106.872 27.7067 106.573 27.568C106.285 27.4187 105.981 27.344 105.661 27.344C105.341 27.344 105.021 27.4187 104.701 27.568C104.381 27.7067 104.114 27.92 103.901 28.208C103.688 28.4853 103.581 28.8427 103.581 29.28ZM111.289 37.2V26H112.969L113.081 27.472V37.2H111.289ZM115.609 34.192C114.937 34.192 114.356 34.0213 113.865 33.68C113.385 33.328 113.017 32.8373 112.761 32.208C112.505 31.5787 112.377 30.8427 112.377 30C112.377 29.1467 112.505 28.4107 112.761 27.792C113.017 27.1627 113.385 26.6773 113.865 26.336C114.356 25.984 114.937 25.808 115.609 25.808C116.335 25.808 116.964 25.984 117.497 26.336C118.041 26.6773 118.463 27.1627 118.761 27.792C119.071 28.4107 119.225 29.1467 119.225 30C119.225 30.8427 119.071 31.5787 118.761 32.208C118.463 32.8373 118.041 33.328 117.497 33.68C116.964 34.0213 116.335 34.192 115.609 34.192ZM115.161 32.56C115.588 32.56 115.967 32.4533 116.297 32.24C116.628 32.016 116.889 31.712 117.081 31.328C117.284 30.944 117.385 30.5013 117.385 30C117.385 29.4987 117.289 29.056 117.097 28.672C116.916 28.288 116.66 27.9893 116.329 27.776C115.999 27.5627 115.615 27.456 115.177 27.456C114.772 27.456 114.409 27.5627 114.089 27.776C113.769 27.9893 113.519 28.288 113.337 28.672C113.167 29.056 113.081 29.4987 113.081 30C113.081 30.5013 113.167 30.944 113.337 31.328C113.519 31.712 113.764 32.016 114.073 32.24C114.393 32.4533 114.756 32.56 115.161 32.56ZM124.26 34.192C123.418 34.192 122.772 33.984 122.324 33.568C121.887 33.1413 121.668 32.5333 121.668 31.744V23.504H123.444V31.408C123.444 31.7813 123.53 32.064 123.7 32.256C123.882 32.448 124.143 32.544 124.484 32.544C124.591 32.544 124.708 32.5227 124.836 32.48C124.964 32.4373 125.108 32.3573 125.268 32.24L125.924 33.6C125.647 33.792 125.37 33.936 125.092 34.032C124.815 34.1387 124.538 34.192 124.26 34.192ZM120.34 27.536V26H125.604V27.536H120.34ZM127.79 34V26H129.566V34H127.79ZM128.686 24.48C128.398 24.48 128.147 24.3787 127.934 24.176C127.731 23.9627 127.63 23.712 127.63 23.424C127.63 23.136 127.731 22.8907 127.934 22.688C128.147 22.4853 128.398 22.384 128.686 22.384C128.974 22.384 129.219 22.4853 129.422 22.688C129.635 22.8907 129.742 23.136 129.742 23.424C129.742 23.712 129.635 23.9627 129.422 24.176C129.219 24.3787 128.974 24.48 128.686 24.48ZM135.678 34.192C134.878 34.192 134.163 34.016 133.534 33.664C132.915 33.3013 132.43 32.8053 132.078 32.176C131.726 31.5467 131.55 30.8213 131.55 30C131.55 29.1787 131.72 28.4533 132.062 27.824C132.414 27.1947 132.899 26.704 133.518 26.352C134.136 25.9893 134.846 25.808 135.646 25.808C136.446 25.808 137.155 25.9893 137.774 26.352C138.392 26.704 138.872 27.1947 139.214 27.824C139.566 28.4533 139.742 29.1787 139.742 30C139.742 30.8213 139.571 31.5467 139.23 32.176C138.888 32.8053 138.408 33.3013 137.79 33.664C137.171 34.016 136.467 34.192 135.678 34.192ZM135.678 32.544C136.115 32.544 136.504 32.4373 136.846 32.224C137.187 32 137.454 31.7013 137.646 31.328C137.838 30.944 137.934 30.5013 137.934 30C137.934 29.4987 137.832 29.0613 137.63 28.688C137.438 28.304 137.171 28.0053 136.83 27.792C136.488 27.568 136.094 27.456 135.646 27.456C135.198 27.456 134.803 27.5627 134.462 27.776C134.12 27.9893 133.854 28.288 133.662 28.672C133.47 29.056 133.374 29.4987 133.374 30C133.374 30.5013 133.47 30.944 133.662 31.328C133.864 31.7013 134.136 32 134.478 32.224C134.83 32.4373 135.23 32.544 135.678 32.544ZM141.614 34V26H143.294L143.406 27.472V34H141.614ZM147.038 34V29.904H148.83V34H147.038ZM147.038 29.904C147.038 29.264 146.964 28.7733 146.814 28.432C146.676 28.08 146.473 27.8347 146.206 27.696C145.95 27.5573 145.646 27.488 145.294 27.488C144.697 27.4773 144.233 27.6747 143.902 28.08C143.572 28.4853 143.406 29.0667 143.406 29.824H142.734C142.734 28.9813 142.857 28.2613 143.102 27.664C143.348 27.056 143.7 26.5973 144.158 26.288C144.617 25.968 145.161 25.808 145.79 25.808C146.43 25.808 146.974 25.936 147.422 26.192C147.881 26.448 148.228 26.848 148.462 27.392C148.708 27.9253 148.83 28.624 148.83 29.488V29.904H147.038ZM155.945 34V25.152C155.945 24.3093 156.153 23.664 156.569 23.216C156.996 22.7573 157.636 22.528 158.489 22.528C158.766 22.528 159.06 22.576 159.369 22.672C159.689 22.7573 159.993 22.8747 160.281 23.024L159.625 24.352C159.422 24.256 159.241 24.1867 159.081 24.144C158.932 24.1013 158.798 24.08 158.681 24.08C158.361 24.08 158.121 24.1867 157.961 24.4C157.812 24.6027 157.737 24.9387 157.737 25.408V34H155.945ZM154.569 27.472V26H159.833V27.472H154.569ZM161.718 34V26H163.494V34H161.718ZM162.614 24.48C162.326 24.48 162.075 24.3787 161.862 24.176C161.659 23.9627 161.558 23.712 161.558 23.424C161.558 23.136 161.659 22.8907 161.862 22.688C162.075 22.4853 162.326 22.384 162.614 22.384C162.902 22.384 163.147 22.4853 163.35 22.688C163.563 22.8907 163.67 23.136 163.67 23.424C163.67 23.712 163.563 23.9627 163.35 24.176C163.147 24.3787 162.902 24.48 162.614 24.48ZM165.926 34V22.8H167.718V34H165.926ZM173.595 34.192C172.816 34.192 172.123 34.016 171.515 33.664C170.918 33.3013 170.443 32.8053 170.091 32.176C169.75 31.5467 169.579 30.8213 169.579 30C169.579 29.1787 169.755 28.4533 170.107 27.824C170.459 27.1947 170.939 26.704 171.547 26.352C172.166 25.9893 172.87 25.808 173.659 25.808C174.374 25.808 175.019 25.9947 175.595 26.368C176.171 26.7307 176.624 27.2587 176.955 27.952C177.296 28.6453 177.467 29.472 177.467 30.432H171.179L171.419 30.208C171.419 30.6987 171.526 31.1253 171.739 31.488C171.952 31.84 172.235 32.112 172.587 32.304C172.939 32.496 173.328 32.592 173.755 32.592C174.246 32.592 174.651 32.4853 174.971 32.272C175.291 32.048 175.542 31.76 175.723 31.408L177.307 32.08C177.083 32.5067 176.795 32.88 176.443 33.2C176.102 33.52 175.691 33.7653 175.211 33.936C174.742 34.1067 174.203 34.192 173.595 34.192ZM171.531 29.28L171.275 29.056H175.787L175.547 29.28C175.547 28.8427 175.451 28.4853 175.259 28.208C175.067 27.92 174.822 27.7067 174.523 27.568C174.235 27.4187 173.931 27.344 173.611 27.344C173.291 27.344 172.971 27.4187 172.651 27.568C172.331 27.7067 172.064 27.92 171.851 28.208C171.638 28.4853 171.531 28.8427 171.531 29.28ZM78.736 52.192C77.9147 52.192 77.1893 52.016 76.56 51.664C75.9307 51.3013 75.4347 50.8053 75.072 50.176C74.72 49.5467 74.544 48.8213 74.544 48C74.544 47.1787 74.72 46.4533 75.072 45.824C75.4347 45.1947 75.9253 44.704 76.544 44.352C77.1733 43.9893 77.8933 43.808 78.704 43.808C79.4933 43.808 80.208 44 80.848 44.384C81.488 44.7573 81.9627 45.296 82.272 46L80.608 46.64C80.4373 46.288 80.176 46.0053 79.824 45.792C79.472 45.5787 79.072 45.472 78.624 45.472C78.1867 45.472 77.7973 45.584 77.456 45.808C77.1147 46.0213 76.848 46.32 76.656 46.704C76.464 47.0773 76.368 47.5093 76.368 48C76.368 48.4907 76.464 48.928 76.656 49.312C76.8587 49.6853 77.1307 49.984 77.472 50.208C77.824 50.4213 78.2187 50.528 78.656 50.528C79.104 50.528 79.504 50.416 79.856 50.192C80.208 49.9573 80.4693 49.6427 80.64 49.248L82.304 49.888C81.9947 50.6133 81.52 51.1787 80.88 51.584C80.2507 51.9893 79.536 52.192 78.736 52.192ZM85.1991 47.744C85.1991 46.88 85.3645 46.1707 85.6951 45.616C86.0258 45.0613 86.4525 44.6507 86.9751 44.384C87.5085 44.1067 88.0631 43.968 88.6391 43.968V45.68C88.1485 45.68 87.6845 45.7493 87.2471 45.888C86.8205 46.016 86.4738 46.2293 86.2071 46.528C85.9405 46.8267 85.8071 47.2213 85.8071 47.712L85.1991 47.744ZM84.0151 52V44H85.8071V52H84.0151ZM93.7156 52.192C92.937 52.192 92.2436 52.016 91.6356 51.664C91.0383 51.3013 90.5636 50.8053 90.2116 50.176C89.8703 49.5467 89.6996 48.8213 89.6996 48C89.6996 47.1787 89.8756 46.4533 90.2276 45.824C90.5796 45.1947 91.0596 44.704 91.6676 44.352C92.2863 43.9893 92.9903 43.808 93.7796 43.808C94.4943 43.808 95.1396 43.9947 95.7156 44.368C96.2916 44.7307 96.745 45.2587 97.0756 45.952C97.417 46.6453 97.5876 47.472 97.5876 48.432H91.2996L91.5396 48.208C91.5396 48.6987 91.6463 49.1253 91.8596 49.488C92.073 49.84 92.3556 50.112 92.7076 50.304C93.0596 50.496 93.449 50.592 93.8756 50.592C94.3663 50.592 94.7716 50.4853 95.0916 50.272C95.4116 50.048 95.6623 49.76 95.8436 49.408L97.4276 50.08C97.2036 50.5067 96.9156 50.88 96.5636 51.2C96.2223 51.52 95.8116 51.7653 95.3316 51.936C94.8623 52.1067 94.3236 52.192 93.7156 52.192ZM91.6516 47.28L91.3956 47.056H95.9076L95.6676 47.28C95.6676 46.8427 95.5716 46.4853 95.3796 46.208C95.1876 45.92 94.9423 45.7067 94.6436 45.568C94.3556 45.4187 94.0516 45.344 93.7316 45.344C93.4116 45.344 93.0916 45.4187 92.7716 45.568C92.4516 45.7067 92.185 45.92 91.9716 46.208C91.7583 46.4853 91.6516 46.8427 91.6516 47.28ZM104.16 52L104.08 50.496V47.888C104.08 47.344 104.021 46.8907 103.904 46.528C103.797 46.1547 103.616 45.872 103.36 45.68C103.115 45.4773 102.784 45.376 102.368 45.376C101.984 45.376 101.648 45.456 101.36 45.616C101.072 45.776 100.827 46.0267 100.624 46.368L99.0561 45.792C99.2268 45.44 99.4508 45.1147 99.7281 44.816C100.016 44.5067 100.373 44.2613 100.8 44.08C101.237 43.8987 101.76 43.808 102.368 43.808C103.147 43.808 103.797 43.9627 104.32 44.272C104.843 44.5707 105.227 45.0027 105.472 45.568C105.728 46.1333 105.856 46.816 105.856 47.616L105.808 52H104.16ZM101.856 52.192C100.896 52.192 100.149 51.9787 99.6161 51.552C99.0935 51.1253 98.8321 50.5227 98.8321 49.744C98.8321 48.912 99.1095 48.2773 99.6641 47.84C100.229 47.4027 101.013 47.184 102.016 47.184H104.16V48.56H102.592C101.877 48.56 101.376 48.6613 101.088 48.864C100.8 49.056 100.656 49.3333 100.656 49.696C100.656 50.0053 100.779 50.2507 101.024 50.432C101.28 50.6027 101.632 50.688 102.08 50.688C102.485 50.688 102.837 50.5973 103.136 50.416C103.435 50.2347 103.664 49.9947 103.824 49.696C103.995 49.3973 104.08 49.0613 104.08 48.688H104.608C104.608 49.776 104.389 50.6347 103.952 51.264C103.515 51.8827 102.816 52.192 101.856 52.192ZM111.175 52.192C110.332 52.192 109.687 51.984 109.239 51.568C108.801 51.1413 108.583 50.5333 108.583 49.744V41.504H110.359V49.408C110.359 49.7813 110.444 50.064 110.615 50.256C110.796 50.448 111.057 50.544 111.399 50.544C111.505 50.544 111.623 50.5227 111.751 50.48C111.879 50.4373 112.023 50.3573 112.183 50.24L112.839 51.6C112.561 51.792 112.284 51.936 112.007 52.032C111.729 52.1387 111.452 52.192 111.175 52.192ZM107.255 45.536V44H112.519V45.536H107.255ZM118.051 52.192C117.272 52.192 116.579 52.016 115.971 51.664C115.373 51.3013 114.899 50.8053 114.547 50.176C114.205 49.5467 114.035 48.8213 114.035 48C114.035 47.1787 114.211 46.4533 114.563 45.824C114.915 45.1947 115.395 44.704 116.003 44.352C116.621 43.9893 117.325 43.808 118.115 43.808C118.829 43.808 119.475 43.9947 120.051 44.368C120.627 44.7307 121.08 45.2587 121.411 45.952C121.752 46.6453 121.923 47.472 121.923 48.432H115.635L115.875 48.208C115.875 48.6987 115.981 49.1253 116.195 49.488C116.408 49.84 116.691 50.112 117.043 50.304C117.395 50.496 117.784 50.592 118.211 50.592C118.701 50.592 119.107 50.4853 119.427 50.272C119.747 50.048 119.997 49.76 120.179 49.408L121.763 50.08C121.539 50.5067 121.251 50.88 120.899 51.2C120.557 51.52 120.147 51.7653 119.667 51.936C119.197 52.1067 118.659 52.192 118.051 52.192ZM115.987 47.28L115.731 47.056H120.243L120.003 47.28C120.003 46.8427 119.907 46.4853 119.715 46.208C119.523 45.92 119.277 45.7067 118.979 45.568C118.691 45.4187 118.387 45.344 118.067 45.344C117.747 45.344 117.427 45.4187 117.107 45.568C116.787 45.7067 116.52 45.92 116.307 46.208C116.093 46.4853 115.987 46.8427 115.987 47.28ZM129.391 52L129.311 50.512V40.8H131.087V52H129.391ZM126.783 52.192C126.058 52.192 125.423 52.0213 124.879 51.68C124.346 51.328 123.924 50.8373 123.615 50.208C123.316 49.5787 123.167 48.8427 123.167 48C123.167 47.1467 123.316 46.4107 123.615 45.792C123.924 45.1627 124.346 44.6773 124.879 44.336C125.423 43.984 126.058 43.808 126.783 43.808C127.455 43.808 128.031 43.984 128.511 44.336C129.002 44.6773 129.375 45.1627 129.631 45.792C129.887 46.4107 130.015 47.1467 130.015 48C130.015 48.8427 129.887 49.5787 129.631 50.208C129.375 50.8373 129.002 51.328 128.511 51.68C128.031 52.0213 127.455 52.192 126.783 52.192ZM127.231 50.56C127.636 50.56 127.994 50.4533 128.303 50.24C128.623 50.016 128.868 49.712 129.039 49.328C129.22 48.944 129.311 48.5013 129.311 48C129.311 47.4987 129.22 47.056 129.039 46.672C128.868 46.288 128.623 45.9893 128.303 45.776C127.994 45.5627 127.631 45.456 127.215 45.456C126.788 45.456 126.41 45.5627 126.079 45.776C125.748 45.9893 125.487 46.288 125.295 46.672C125.114 47.056 125.018 47.4987 125.007 48C125.018 48.5013 125.114 48.944 125.295 49.328C125.487 49.712 125.748 50.016 126.079 50.24C126.42 50.4533 126.804 50.56 127.231 50.56ZM133.98 48.512L133.868 40.8H135.836L135.724 48.512H133.98ZM134.844 52.24C134.535 52.24 134.268 52.128 134.044 51.904C133.831 51.68 133.724 51.4133 133.724 51.104C133.724 50.7947 133.831 50.5333 134.044 50.32C134.268 50.096 134.535 49.984 134.844 49.984C135.154 49.984 135.42 50.096 135.644 50.32C135.868 50.5333 135.98 50.7947 135.98 51.104C135.98 51.4133 135.868 51.68 135.644 51.904C135.42 52.128 135.154 52.24 134.844 52.24Z" fill="white"/>
<path d="M75.328 34V22.8H82.224V24.496H77.184V27.472H81.632V29.136H77.184V32.304H82.272V34H75.328ZM83.9175 34L87.1975 29.424L89.4855 26H91.5975L88.4775 30.416L86.0615 34H83.9175ZM89.6615 34L87.2935 30.416L84.1255 26H86.2375L88.5415 29.424L91.7895 34H89.6615ZM96.7979 34.192C95.9765 34.192 95.2512 34.016 94.6219 33.664C93.9925 33.3013 93.4965 32.8053 93.1339 32.176C92.7819 31.5467 92.6059 30.8213 92.6059 30C92.6059 29.1787 92.7819 28.4533 93.1339 27.824C93.4965 27.1947 93.9872 26.704 94.6059 26.352C95.2352 25.9893 95.9552 25.808 96.7659 25.808C97.5552 25.808 98.2699 26 98.9099 26.384C99.5499 26.7573 100.025 27.296 100.334 28L98.6699 28.64C98.4992 28.288 98.2379 28.0053 97.8859 27.792C97.5339 27.5787 97.1339 27.472 96.6859 27.472C96.2485 27.472 95.8592 27.584 95.5179 27.808C95.1765 28.0213 94.9099 28.32 94.7179 28.704C94.5259 29.0773 94.4299 29.5093 94.4299 30C94.4299 30.4907 94.5259 30.928 94.7179 31.312C94.9205 31.6853 95.1925 31.984 95.5339 32.208C95.8859 32.4213 96.2805 32.528 96.7179 32.528C97.1659 32.528 97.5659 32.416 97.9179 32.192C98.2699 31.9573 98.5312 31.6427 98.7019 31.248L100.366 31.888C100.057 32.6133 99.5819 33.1787 98.9419 33.584C98.3125 33.9893 97.5979 34.192 96.7979 34.192ZM105.645 34.192C104.866 34.192 104.173 34.016 103.565 33.664C102.968 33.3013 102.493 32.8053 102.141 32.176C101.8 31.5467 101.629 30.8213 101.629 30C101.629 29.1787 101.805 28.4533 102.157 27.824C102.509 27.1947 102.989 26.704 103.597 26.352C104.216 25.9893 104.92 25.808 105.709 25.808C106.424 25.808 107.069 25.9947 107.645 26.368C108.221 26.7307 108.674 27.2587 109.005 27.952C109.346 28.6453 109.517 29.472 109.517 30.432H103.229L103.469 30.208C103.469 30.6987 103.576 31.1253 103.789 31.488C104.002 31.84 104.285 32.112 104.637 32.304C104.989 32.496 105.378 32.592 105.805 32.592C106.296 32.592 106.701 32.4853 107.021 32.272C107.341 32.048 107.592 31.76 107.773 31.408L109.357 32.08C109.133 32.5067 108.845 32.88 108.493 33.2C108.152 33.52 107.741 33.7653 107.261 33.936C106.792 34.1067 106.253 34.192 105.645 34.192ZM103.581 29.28L103.325 29.056H107.837L107.597 29.28C107.597 28.8427 107.501 28.4853 107.309 28.208C107.117 27.92 106.872 27.7067 106.573 27.568C106.285 27.4187 105.981 27.344 105.661 27.344C105.341 27.344 105.021 27.4187 104.701 27.568C104.381 27.7067 104.114 27.92 103.901 28.208C103.688 28.4853 103.581 28.8427 103.581 29.28ZM111.289 37.2V26H112.969L113.081 27.472V37.2H111.289ZM115.609 34.192C114.937 34.192 114.356 34.0213 113.865 33.68C113.385 33.328 113.017 32.8373 112.761 32.208C112.505 31.5787 112.377 30.8427 112.377 30C112.377 29.1467 112.505 28.4107 112.761 27.792C113.017 27.1627 113.385 26.6773 113.865 26.336C114.356 25.984 114.937 25.808 115.609 25.808C116.335 25.808 116.964 25.984 117.497 26.336C118.041 26.6773 118.463 27.1627 118.761 27.792C119.071 28.4107 119.225 29.1467 119.225 30C119.225 30.8427 119.071 31.5787 118.761 32.208C118.463 32.8373 118.041 33.328 117.497 33.68C116.964 34.0213 116.335 34.192 115.609 34.192ZM115.161 32.56C115.588 32.56 115.967 32.4533 116.297 32.24C116.628 32.016 116.889 31.712 117.081 31.328C117.284 30.944 117.385 30.5013 117.385 30C117.385 29.4987 117.289 29.056 117.097 28.672C116.916 28.288 116.66 27.9893 116.329 27.776C115.999 27.5627 115.615 27.456 115.177 27.456C114.772 27.456 114.409 27.5627 114.089 27.776C113.769 27.9893 113.519 28.288 113.337 28.672C113.167 29.056 113.081 29.4987 113.081 30C113.081 30.5013 113.167 30.944 113.337 31.328C113.519 31.712 113.764 32.016 114.073 32.24C114.393 32.4533 114.756 32.56 115.161 32.56ZM124.26 34.192C123.418 34.192 122.772 33.984 122.324 33.568C121.887 33.1413 121.668 32.5333 121.668 31.744V23.504H123.444V31.408C123.444 31.7813 123.53 32.064 123.7 32.256C123.882 32.448 124.143 32.544 124.484 32.544C124.591 32.544 124.708 32.5227 124.836 32.48C124.964 32.4373 125.108 32.3573 125.268 32.24L125.924 33.6C125.647 33.792 125.37 33.936 125.092 34.032C124.815 34.1387 124.538 34.192 124.26 34.192ZM120.34 27.536V26H125.604V27.536H120.34ZM127.79 34V26H129.566V34H127.79ZM128.686 24.48C128.398 24.48 128.147 24.3787 127.934 24.176C127.731 23.9627 127.63 23.712 127.63 23.424C127.63 23.136 127.731 22.8907 127.934 22.688C128.147 22.4853 128.398 22.384 128.686 22.384C128.974 22.384 129.219 22.4853 129.422 22.688C129.635 22.8907 129.742 23.136 129.742 23.424C129.742 23.712 129.635 23.9627 129.422 24.176C129.219 24.3787 128.974 24.48 128.686 24.48ZM135.678 34.192C134.878 34.192 134.163 34.016 133.534 33.664C132.915 33.3013 132.43 32.8053 132.078 32.176C131.726 31.5467 131.55 30.8213 131.55 30C131.55 29.1787 131.72 28.4533 132.062 27.824C132.414 27.1947 132.899 26.704 133.518 26.352C134.136 25.9893 134.846 25.808 135.646 25.808C136.446 25.808 137.155 25.9893 137.774 26.352C138.392 26.704 138.872 27.1947 139.214 27.824C139.566 28.4533 139.742 29.1787 139.742 30C139.742 30.8213 139.571 31.5467 139.23 32.176C138.888 32.8053 138.408 33.3013 137.79 33.664C137.171 34.016 136.467 34.192 135.678 34.192ZM135.678 32.544C136.115 32.544 136.504 32.4373 136.846 32.224C137.187 32 137.454 31.7013 137.646 31.328C137.838 30.944 137.934 30.5013 137.934 30C137.934 29.4987 137.832 29.0613 137.63 28.688C137.438 28.304 137.171 28.0053 136.83 27.792C136.488 27.568 136.094 27.456 135.646 27.456C135.198 27.456 134.803 27.5627 134.462 27.776C134.12 27.9893 133.854 28.288 133.662 28.672C133.47 29.056 133.374 29.4987 133.374 30C133.374 30.5013 133.47 30.944 133.662 31.328C133.864 31.7013 134.136 32 134.478 32.224C134.83 32.4373 135.23 32.544 135.678 32.544ZM141.614 34V26H143.294L143.406 27.472V34H141.614ZM147.038 34V29.904H148.83V34H147.038ZM147.038 29.904C147.038 29.264 146.964 28.7733 146.814 28.432C146.676 28.08 146.473 27.8347 146.206 27.696C145.95 27.5573 145.646 27.488 145.294 27.488C144.697 27.4773 144.233 27.6747 143.902 28.08C143.572 28.4853 143.406 29.0667 143.406 29.824H142.734C142.734 28.9813 142.857 28.2613 143.102 27.664C143.348 27.056 143.7 26.5973 144.158 26.288C144.617 25.968 145.161 25.808 145.79 25.808C146.43 25.808 146.974 25.936 147.422 26.192C147.881 26.448 148.228 26.848 148.462 27.392C148.708 27.9253 148.83 28.624 148.83 29.488V29.904H147.038ZM155.945 34V25.152C155.945 24.3093 156.153 23.664 156.569 23.216C156.996 22.7573 157.636 22.528 158.489 22.528C158.766 22.528 159.06 22.576 159.369 22.672C159.689 22.7573 159.993 22.8747 160.281 23.024L159.625 24.352C159.422 24.256 159.241 24.1867 159.081 24.144C158.932 24.1013 158.798 24.08 158.681 24.08C158.361 24.08 158.121 24.1867 157.961 24.4C157.812 24.6027 157.737 24.9387 157.737 25.408V34H155.945ZM154.569 27.472V26H159.833V27.472H154.569ZM161.718 34V26H163.494V34H161.718ZM162.614 24.48C162.326 24.48 162.075 24.3787 161.862 24.176C161.659 23.9627 161.558 23.712 161.558 23.424C161.558 23.136 161.659 22.8907 161.862 22.688C162.075 22.4853 162.326 22.384 162.614 22.384C162.902 22.384 163.147 22.4853 163.35 22.688C163.563 22.8907 163.67 23.136 163.67 23.424C163.67 23.712 163.563 23.9627 163.35 24.176C163.147 24.3787 162.902 24.48 162.614 24.48ZM165.926 34V22.8H167.718V34H165.926ZM173.595 34.192C172.816 34.192 172.123 34.016 171.515 33.664C170.918 33.3013 170.443 32.8053 170.091 32.176C169.75 31.5467 169.579 30.8213 169.579 30C169.579 29.1787 169.755 28.4533 170.107 27.824C170.459 27.1947 170.939 26.704 171.547 26.352C172.166 25.9893 172.87 25.808 173.659 25.808C174.374 25.808 175.019 25.9947 175.595 26.368C176.171 26.7307 176.624 27.2587 176.955 27.952C177.296 28.6453 177.467 29.472 177.467 30.432H171.179L171.419 30.208C171.419 30.6987 171.526 31.1253 171.739 31.488C171.952 31.84 172.235 32.112 172.587 32.304C172.939 32.496 173.328 32.592 173.755 32.592C174.246 32.592 174.651 32.4853 174.971 32.272C175.291 32.048 175.542 31.76 175.723 31.408L177.307 32.08C177.083 32.5067 176.795 32.88 176.443 33.2C176.102 33.52 175.691 33.7653 175.211 33.936C174.742 34.1067 174.203 34.192 173.595 34.192ZM171.531 29.28L171.275 29.056H175.787L175.547 29.28C175.547 28.8427 175.451 28.4853 175.259 28.208C175.067 27.92 174.822 27.7067 174.523 27.568C174.235 27.4187 173.931 27.344 173.611 27.344C173.291 27.344 172.971 27.4187 172.651 27.568C172.331 27.7067 172.064 27.92 171.851 28.208C171.638 28.4853 171.531 28.8427 171.531 29.28ZM78.736 52.192C77.9147 52.192 77.1893 52.016 76.56 51.664C75.9307 51.3013 75.4347 50.8053 75.072 50.176C74.72 49.5467 74.544 48.8213 74.544 48C74.544 47.1787 74.72 46.4533 75.072 45.824C75.4347 45.1947 75.9253 44.704 76.544 44.352C77.1733 43.9893 77.8933 43.808 78.704 43.808C79.4933 43.808 80.208 44 80.848 44.384C81.488 44.7573 81.9627 45.296 82.272 46L80.608 46.64C80.4373 46.288 80.176 46.0053 79.824 45.792C79.472 45.5787 79.072 45.472 78.624 45.472C78.1867 45.472 77.7973 45.584 77.456 45.808C77.1147 46.0213 76.848 46.32 76.656 46.704C76.464 47.0773 76.368 47.5093 76.368 48C76.368 48.4907 76.464 48.928 76.656 49.312C76.8587 49.6853 77.1307 49.984 77.472 50.208C77.824 50.4213 78.2187 50.528 78.656 50.528C79.104 50.528 79.504 50.416 79.856 50.192C80.208 49.9573 80.4693 49.6427 80.64 49.248L82.304 49.888C81.9947 50.6133 81.52 51.1787 80.88 51.584C80.2507 51.9893 79.536 52.192 78.736 52.192ZM85.1991 47.744C85.1991 46.88 85.3645 46.1707 85.6951 45.616C86.0258 45.0613 86.4525 44.6507 86.9751 44.384C87.5085 44.1067 88.0631 43.968 88.6391 43.968V45.68C88.1485 45.68 87.6845 45.7493 87.2471 45.888C86.8205 46.016 86.4738 46.2293 86.2071 46.528C85.9405 46.8267 85.8071 47.2213 85.8071 47.712L85.1991 47.744ZM84.0151 52V44H85.8071V52H84.0151ZM93.7156 52.192C92.937 52.192 92.2436 52.016 91.6356 51.664C91.0383 51.3013 90.5636 50.8053 90.2116 50.176C89.8703 49.5467 89.6996 48.8213 89.6996 48C89.6996 47.1787 89.8756 46.4533 90.2276 45.824C90.5796 45.1947 91.0596 44.704 91.6676 44.352C92.2863 43.9893 92.9903 43.808 93.7796 43.808C94.4943 43.808 95.1396 43.9947 95.7156 44.368C96.2916 44.7307 96.745 45.2587 97.0756 45.952C97.417 46.6453 97.5876 47.472 97.5876 48.432H91.2996L91.5396 48.208C91.5396 48.6987 91.6463 49.1253 91.8596 49.488C92.073 49.84 92.3556 50.112 92.7076 50.304C93.0596 50.496 93.449 50.592 93.8756 50.592C94.3663 50.592 94.7716 50.4853 95.0916 50.272C95.4116 50.048 95.6623 49.76 95.8436 49.408L97.4276 50.08C97.2036 50.5067 96.9156 50.88 96.5636 51.2C96.2223 51.52 95.8116 51.7653 95.3316 51.936C94.8623 52.1067 94.3236 52.192 93.7156 52.192ZM91.6516 47.28L91.3956 47.056H95.9076L95.6676 47.28C95.6676 46.8427 95.5716 46.4853 95.3796 46.208C95.1876 45.92 94.9423 45.7067 94.6436 45.568C94.3556 45.4187 94.0516 45.344 93.7316 45.344C93.4116 45.344 93.0916 45.4187 92.7716 45.568C92.4516 45.7067 92.185 45.92 91.9716 46.208C91.7583 46.4853 91.6516 46.8427 91.6516 47.28ZM104.16 52L104.08 50.496V47.888C104.08 47.344 104.021 46.8907 103.904 46.528C103.797 46.1547 103.616 45.872 103.36 45.68C103.115 45.4773 102.784 45.376 102.368 45.376C101.984 45.376 101.648 45.456 101.36 45.616C101.072 45.776 100.827 46.0267 100.624 46.368L99.0561 45.792C99.2268 45.44 99.4508 45.1147 99.7281 44.816C100.016 44.5067 100.373 44.2613 100.8 44.08C101.237 43.8987 101.76 43.808 102.368 43.808C103.147 43.808 103.797 43.9627 104.32 44.272C104.843 44.5707 105.227 45.0027 105.472 45.568C105.728 46.1333 105.856 46.816 105.856 47.616L105.808 52H104.16ZM101.856 52.192C100.896 52.192 100.149 51.9787 99.6161 51.552C99.0935 51.1253 98.8321 50.5227 98.8321 49.744C98.8321 48.912 99.1095 48.2773 99.6641 47.84C100.229 47.4027 101.013 47.184 102.016 47.184H104.16V48.56H102.592C101.877 48.56 101.376 48.6613 101.088 48.864C100.8 49.056 100.656 49.3333 100.656 49.696C100.656 50.0053 100.779 50.2507 101.024 50.432C101.28 50.6027 101.632 50.688 102.08 50.688C102.485 50.688 102.837 50.5973 103.136 50.416C103.435 50.2347 103.664 49.9947 103.824 49.696C103.995 49.3973 104.08 49.0613 104.08 48.688H104.608C104.608 49.776 104.389 50.6347 103.952 51.264C103.515 51.8827 102.816 52.192 101.856 52.192ZM111.175 52.192C110.332 52.192 109.687 51.984 109.239 51.568C108.801 51.1413 108.583 50.5333 108.583 49.744V41.504H110.359V49.408C110.359 49.7813 110.444 50.064 110.615 50.256C110.796 50.448 111.057 50.544 111.399 50.544C111.505 50.544 111.623 50.5227 111.751 50.48C111.879 50.4373 112.023 50.3573 112.183 50.24L112.839 51.6C112.561 51.792 112.284 51.936 112.007 52.032C111.729 52.1387 111.452 52.192 111.175 52.192ZM107.255 45.536V44H112.519V45.536H107.255ZM118.051 52.192C117.272 52.192 116.579 52.016 115.971 51.664C115.373 51.3013 114.899 50.8053 114.547 50.176C114.205 49.5467 114.035 48.8213 114.035 48C114.035 47.1787 114.211 46.4533 114.563 45.824C114.915 45.1947 115.395 44.704 116.003 44.352C116.621 43.9893 117.325 43.808 118.115 43.808C118.829 43.808 119.475 43.9947 120.051 44.368C120.627 44.7307 121.08 45.2587 121.411 45.952C121.752 46.6453 121.923 47.472 121.923 48.432H115.635L115.875 48.208C115.875 48.6987 115.981 49.1253 116.195 49.488C116.408 49.84 116.691 50.112 117.043 50.304C117.395 50.496 117.784 50.592 118.211 50.592C118.701 50.592 119.107 50.4853 119.427 50.272C119.747 50.048 119.997 49.76 120.179 49.408L121.763 50.08C121.539 50.5067 121.251 50.88 120.899 51.2C120.557 51.52 120.147 51.7653 119.667 51.936C119.197 52.1067 118.659 52.192 118.051 52.192ZM115.987 47.28L115.731 47.056H120.243L120.003 47.28C120.003 46.8427 119.907 46.4853 119.715 46.208C119.523 45.92 119.277 45.7067 118.979 45.568C118.691 45.4187 118.387 45.344 118.067 45.344C117.747 45.344 117.427 45.4187 117.107 45.568C116.787 45.7067 116.52 45.92 116.307 46.208C116.093 46.4853 115.987 46.8427 115.987 47.28ZM129.391 52L129.311 50.512V40.8H131.087V52H129.391ZM126.783 52.192C126.058 52.192 125.423 52.0213 124.879 51.68C124.346 51.328 123.924 50.8373 123.615 50.208C123.316 49.5787 123.167 48.8427 123.167 48C123.167 47.1467 123.316 46.4107 123.615 45.792C123.924 45.1627 124.346 44.6773 124.879 44.336C125.423 43.984 126.058 43.808 126.783 43.808C127.455 43.808 128.031 43.984 128.511 44.336C129.002 44.6773 129.375 45.1627 129.631 45.792C129.887 46.4107 130.015 47.1467 130.015 48C130.015 48.8427 129.887 49.5787 129.631 50.208C129.375 50.8373 129.002 51.328 128.511 51.68C128.031 52.0213 127.455 52.192 126.783 52.192ZM127.231 50.56C127.636 50.56 127.994 50.4533 128.303 50.24C128.623 50.016 128.868 49.712 129.039 49.328C129.22 48.944 129.311 48.5013 129.311 48C129.311 47.4987 129.22 47.056 129.039 46.672C128.868 46.288 128.623 45.9893 128.303 45.776C127.994 45.5627 127.631 45.456 127.215 45.456C126.788 45.456 126.41 45.5627 126.079 45.776C125.748 45.9893 125.487 46.288 125.295 46.672C125.114 47.056 125.018 47.4987 125.007 48C125.018 48.5013 125.114 48.944 125.295 49.328C125.487 49.712 125.748 50.016 126.079 50.24C126.42 50.4533 126.804 50.56 127.231 50.56ZM133.98 48.512L133.868 40.8H135.836L135.724 48.512H133.98ZM134.844 52.24C134.535 52.24 134.268 52.128 134.044 51.904C133.831 51.68 133.724 51.4133 133.724 51.104C133.724 50.7947 133.831 50.5333 134.044 50.32C134.268 50.096 134.535 49.984 134.844 49.984C135.154 49.984 135.42 50.096 135.644 50.32C135.868 50.5333 135.98 50.7947 135.98 51.104C135.98 51.4133 135.868 51.68 135.644 51.904C135.42 52.128 135.154 52.24 134.844 52.24Z" fill="#282828"/>
</svg>
