<svg width="1052" height="64" viewBox="0 0 1052 64" fill="none" xmlns="http://www.w3.org/2000/svg">
<path d="M0 18C0 8.05888 8.05887 0 18 0H1034C1043.94 0 1052 8.05888 1052 18V46C1052 55.9411 1043.94 64 1034 64H18C8.0589 64 0 55.9411 0 46V18Z" fill="white"/>
<circle cx="38" cy="32" r="14" fill="#60ADFA"/>
<circle cx="38" cy="32" r="17" stroke="white" stroke-opacity="0.2" stroke-width="6"/>
<path d="M38.168 37.334V27.764L38.333 26.834H39.848V37.334H38.168ZM35.888 29.909V28.334C36.118 28.344 36.378 28.279 36.668 28.139C36.968 27.989 37.263 27.794 37.553 27.554C37.843 27.314 38.103 27.069 38.333 26.819L39.413 27.944C39.063 28.314 38.698 28.654 38.318 28.964C37.938 29.274 37.543 29.514 37.133 29.684C36.733 29.854 36.318 29.929 35.888 29.909Z" fill="white"/>
<path d="M38.168 37.334V27.764L38.333 26.834H39.848V37.334H38.168ZM35.888 29.909V28.334C36.118 28.344 36.378 28.279 36.668 28.139C36.968 27.989 37.263 27.794 37.553 27.554C37.843 27.314 38.103 27.069 38.333 26.819L39.413 27.944C39.063 28.314 38.698 28.654 38.318 28.964C37.938 29.274 37.543 29.514 37.133 29.684C36.733 29.854 36.318 29.929 35.888 29.909Z" fill="url(#paint0_linear_2393_2458)"/>
<path d="M71.488 38V26.8H72.848V38H71.488ZM75.7838 38V30H76.9838L77.0638 31.472V38H75.7838ZM81.3998 38V33.904H82.6798V38H81.3998ZM81.3998 33.904C81.3998 33.1147 81.3091 32.512 81.1278 32.096C80.9464 31.68 80.6958 31.3973 80.3758 31.248C80.0558 31.088 79.6931 31.008 79.2878 31.008C78.5838 31.008 78.0344 31.2587 77.6398 31.76C77.2558 32.2507 77.0638 32.9493 77.0638 33.856H76.4398C76.4398 33.0133 76.5624 32.288 76.8078 31.68C77.0531 31.072 77.4104 30.608 77.8798 30.288C78.3491 29.968 78.9144 29.808 79.5758 29.808C80.2051 29.808 80.7491 29.936 81.2078 30.192C81.6771 30.4373 82.0398 30.832 82.2958 31.376C82.5624 31.92 82.6904 32.6347 82.6798 33.52V33.904H81.3998ZM90.8816 41.2V31.488L90.9456 30H92.1616V41.2H90.8816ZM88.1776 38.192C87.463 38.192 86.8336 38.016 86.2896 37.664C85.7456 37.312 85.319 36.8213 85.0096 36.192C84.711 35.552 84.5616 34.8213 84.5616 34C84.5616 33.168 84.711 32.4373 85.0096 31.808C85.319 31.1787 85.7456 30.688 86.2896 30.336C86.8336 29.984 87.463 29.808 88.1776 29.808C88.8496 29.808 89.4363 29.984 89.9376 30.336C90.4496 30.688 90.8443 31.1787 91.1216 31.808C91.399 32.4373 91.5376 33.168 91.5376 34C91.5376 34.8213 91.399 35.552 91.1216 36.192C90.8443 36.8213 90.4496 37.312 89.9376 37.664C89.4363 38.016 88.8496 38.192 88.1776 38.192ZM88.4656 37.024C88.935 37.024 89.351 36.896 89.7136 36.64C90.0763 36.384 90.359 36.0267 90.5616 35.568C90.775 35.1093 90.8816 34.5867 90.8816 34C90.8816 33.4133 90.775 32.8907 90.5616 32.432C90.359 31.9733 90.0763 31.616 89.7136 31.36C89.351 31.104 88.9296 30.976 88.4496 30.976C87.9483 30.976 87.5003 31.104 87.1056 31.36C86.7216 31.616 86.4176 31.9733 86.1936 32.432C85.9696 32.8907 85.8576 33.4133 85.8576 34C85.8576 34.5867 85.9696 35.1093 86.1936 35.568C86.4176 36.0267 86.727 36.384 87.1216 36.64C87.5163 36.896 87.9643 37.024 88.4656 37.024ZM100.084 38L100.004 36.528V30H101.284V38H100.084ZM94.3876 34.096V30H95.6676V34.096H94.3876ZM95.6676 34.096C95.6676 34.8853 95.7583 35.488 95.9396 35.904C96.121 36.32 96.3716 36.608 96.6916 36.768C97.0223 36.9173 97.3903 36.992 97.7956 36.992C98.489 36.992 99.0276 36.7413 99.4116 36.24C99.8063 35.7387 100.004 35.04 100.004 34.144H100.628C100.628 34.9867 100.505 35.712 100.26 36.32C100.014 36.928 99.657 37.392 99.1876 37.712C98.729 38.032 98.1636 38.192 97.4916 38.192C96.873 38.192 96.329 38.0693 95.8596 37.824C95.3903 37.568 95.0276 37.168 94.7716 36.624C94.5156 36.0693 94.3876 35.3547 94.3876 34.48V34.096H95.6676ZM103.917 38V30H105.197V38H103.917ZM104.573 28.144C104.36 28.144 104.173 28.064 104.013 27.904C103.853 27.744 103.773 27.5573 103.773 27.344C103.773 27.12 103.853 26.9333 104.013 26.784C104.173 26.624 104.36 26.544 104.573 26.544C104.797 26.544 104.984 26.624 105.133 26.784C105.293 26.9333 105.373 27.12 105.373 27.344C105.373 27.5573 105.293 27.744 105.133 27.904C104.984 28.064 104.797 28.144 104.573 28.144ZM108.58 33.664C108.58 32.8 108.746 32.1013 109.076 31.568C109.407 31.024 109.828 30.624 110.34 30.368C110.863 30.1013 111.412 29.968 111.988 29.968V31.168C111.519 31.168 111.066 31.248 110.628 31.408C110.202 31.5573 109.85 31.808 109.572 32.16C109.295 32.512 109.156 32.992 109.156 33.6L108.58 33.664ZM107.876 38V30H109.156V38H107.876ZM114.322 41.392C114.12 41.392 113.885 41.3493 113.618 41.264C113.352 41.1893 113.069 41.088 112.77 40.96L113.25 39.888C113.496 39.9947 113.709 40.0747 113.89 40.128C114.082 40.1813 114.232 40.208 114.338 40.208C114.626 40.208 114.861 40.128 115.042 39.968C115.234 39.8187 115.394 39.6 115.522 39.312L116.434 37.136L119.394 30H120.77L116.93 39.12C116.728 39.5893 116.514 39.9947 116.29 40.336C116.077 40.6773 115.816 40.9387 115.506 41.12C115.197 41.3013 114.802 41.392 114.322 41.392ZM116.082 38L112.626 30H113.986L116.962 37.12L117.346 38H116.082ZM126.698 41.2V30H127.898L127.978 31.472V41.2H126.698ZM130.682 38.192C130.01 38.192 129.418 38.016 128.906 37.664C128.404 37.312 128.015 36.8213 127.738 36.192C127.46 35.552 127.322 34.8213 127.322 34C127.322 33.168 127.46 32.4373 127.738 31.808C128.015 31.1787 128.404 30.688 128.906 30.336C129.418 29.984 130.01 29.808 130.682 29.808C131.396 29.808 132.026 29.984 132.57 30.336C133.114 30.688 133.535 31.1787 133.834 31.808C134.143 32.4373 134.298 33.168 134.298 34C134.298 34.8213 134.143 35.552 133.834 36.192C133.535 36.8213 133.114 37.312 132.57 37.664C132.026 38.016 131.396 38.192 130.682 38.192ZM130.394 37.024C130.895 37.024 131.338 36.896 131.722 36.64C132.116 36.384 132.426 36.0267 132.65 35.568C132.884 35.1093 133.002 34.5867 133.002 34C133.002 33.4133 132.89 32.8907 132.666 32.432C132.452 31.9733 132.148 31.616 131.754 31.36C131.359 31.104 130.911 30.976 130.41 30.976C129.94 30.976 129.519 31.104 129.146 31.36C128.783 31.616 128.495 31.9733 128.282 32.432C128.079 32.8907 127.978 33.4133 127.978 34C127.978 34.5867 128.079 35.1093 128.282 35.568C128.495 36.0267 128.783 36.384 129.146 36.64C129.508 36.896 129.924 37.024 130.394 37.024ZM137.095 33.664C137.095 32.8 137.26 32.1013 137.591 31.568C137.921 31.024 138.343 30.624 138.855 30.368C139.377 30.1013 139.927 29.968 140.503 29.968V31.168C140.033 31.168 139.58 31.248 139.143 31.408C138.716 31.5573 138.364 31.808 138.087 32.16C137.809 32.512 137.671 32.992 137.671 33.6L137.095 33.664ZM136.391 38V30H137.671V38H136.391ZM145.621 38.192C144.842 38.192 144.154 38.016 143.557 37.664C142.96 37.3013 142.49 36.8053 142.149 36.176C141.818 35.5467 141.653 34.8213 141.653 34C141.653 33.1787 141.818 32.4533 142.149 31.824C142.49 31.1947 142.954 30.704 143.541 30.352C144.138 29.9893 144.821 29.808 145.589 29.808C146.336 29.808 146.981 29.9947 147.525 30.368C148.069 30.7307 148.49 31.2427 148.789 31.904C149.088 32.5653 149.237 33.344 149.237 34.24H142.629L142.949 33.968C142.949 34.608 143.061 35.1573 143.285 35.616C143.52 36.0747 143.845 36.4267 144.261 36.672C144.677 36.9067 145.152 37.024 145.685 37.024C146.25 37.024 146.725 36.8907 147.109 36.624C147.504 36.3573 147.808 36.0053 148.021 35.568L149.125 36.128C148.922 36.544 148.65 36.9067 148.309 37.216C147.978 37.5253 147.584 37.7653 147.125 37.936C146.677 38.1067 146.176 38.192 145.621 38.192ZM143.029 33.424L142.693 33.168H148.213L147.877 33.44C147.877 32.928 147.776 32.4853 147.573 32.112C147.37 31.7387 147.098 31.4507 146.757 31.248C146.416 31.0453 146.021 30.944 145.573 30.944C145.136 30.944 144.72 31.0453 144.325 31.248C143.941 31.4507 143.626 31.7387 143.381 32.112C143.146 32.4747 143.029 32.912 143.029 33.424ZM151.251 41.2V30H152.451L152.531 31.472V41.2H151.251ZM155.235 38.192C154.563 38.192 153.971 38.016 153.459 37.664C152.958 37.312 152.569 36.8213 152.291 36.192C152.014 35.552 151.875 34.8213 151.875 34C151.875 33.168 152.014 32.4373 152.291 31.808C152.569 31.1787 152.958 30.688 153.459 30.336C153.971 29.984 154.563 29.808 155.235 29.808C155.95 29.808 156.579 29.984 157.123 30.336C157.667 30.688 158.089 31.1787 158.387 31.808C158.697 32.4373 158.851 33.168 158.851 34C158.851 34.8213 158.697 35.552 158.387 36.192C158.089 36.8213 157.667 37.312 157.123 37.664C156.579 38.016 155.95 38.192 155.235 38.192ZM154.947 37.024C155.449 37.024 155.891 36.896 156.275 36.64C156.67 36.384 156.979 36.0267 157.203 35.568C157.438 35.1093 157.555 34.5867 157.555 34C157.555 33.4133 157.443 32.8907 157.219 32.432C157.006 31.9733 156.702 31.616 156.307 31.36C155.913 31.104 155.465 30.976 154.963 30.976C154.494 30.976 154.073 31.104 153.699 31.36C153.337 31.616 153.049 31.9733 152.835 32.432C152.633 32.8907 152.531 33.4133 152.531 34C152.531 34.5867 152.633 35.1093 152.835 35.568C153.049 36.0267 153.337 36.384 153.699 36.64C154.062 36.896 154.478 37.024 154.947 37.024ZM165.872 38L165.808 36.688V33.776C165.808 33.1467 165.739 32.6293 165.6 32.224C165.462 31.808 165.243 31.4933 164.944 31.28C164.646 31.0667 164.256 30.96 163.776 30.96C163.339 30.96 162.96 31.0507 162.64 31.232C162.331 31.4027 162.075 31.68 161.872 32.064L160.72 31.616C160.923 31.2427 161.168 30.9227 161.456 30.656C161.744 30.3787 162.08 30.1707 162.464 30.032C162.848 29.8827 163.286 29.808 163.776 29.808C164.523 29.808 165.136 29.9573 165.616 30.256C166.107 30.544 166.475 30.976 166.72 31.552C166.966 32.1173 167.083 32.8213 167.072 33.664L167.056 38H165.872ZM163.472 38.192C162.534 38.192 161.798 37.9787 161.264 37.552C160.742 37.1147 160.48 36.512 160.48 35.744C160.48 34.9333 160.747 34.3147 161.28 33.888C161.824 33.4507 162.582 33.232 163.552 33.232H165.84V34.304H163.84C163.094 34.304 162.56 34.4267 162.24 34.672C161.931 34.9173 161.776 35.2693 161.776 35.728C161.776 36.144 161.931 36.4747 162.24 36.72C162.55 36.9547 162.982 37.072 163.536 37.072C163.995 37.072 164.395 36.976 164.736 36.784C165.078 36.5813 165.339 36.2987 165.52 35.936C165.712 35.5627 165.808 35.1253 165.808 34.624H166.352C166.352 35.712 166.107 36.5813 165.616 37.232C165.126 37.872 164.411 38.192 163.472 38.192ZM170.125 33.664C170.125 32.8 170.29 32.1013 170.621 31.568C170.951 31.024 171.373 30.624 171.885 30.368C172.407 30.1013 172.957 29.968 173.533 29.968V31.168C173.063 31.168 172.61 31.248 172.173 31.408C171.746 31.5573 171.394 31.808 171.117 32.16C170.839 32.512 170.701 32.992 170.701 33.6L170.125 33.664ZM169.421 38V30H170.701V38H169.421ZM180.075 38L180.011 36.688V33.776C180.011 33.1467 179.942 32.6293 179.803 32.224C179.664 31.808 179.446 31.4933 179.147 31.28C178.848 31.0667 178.459 30.96 177.979 30.96C177.542 30.96 177.163 31.0507 176.843 31.232C176.534 31.4027 176.278 31.68 176.075 32.064L174.923 31.616C175.126 31.2427 175.371 30.9227 175.659 30.656C175.947 30.3787 176.283 30.1707 176.667 30.032C177.051 29.8827 177.488 29.808 177.979 29.808C178.726 29.808 179.339 29.9573 179.819 30.256C180.31 30.544 180.678 30.976 180.923 31.552C181.168 32.1173 181.286 32.8213 181.275 33.664L181.259 38H180.075ZM177.675 38.192C176.736 38.192 176 37.9787 175.467 37.552C174.944 37.1147 174.683 36.512 174.683 35.744C174.683 34.9333 174.95 34.3147 175.483 33.888C176.027 33.4507 176.784 33.232 177.755 33.232H180.043V34.304H178.043C177.296 34.304 176.763 34.4267 176.443 34.672C176.134 34.9173 175.979 35.2693 175.979 35.728C175.979 36.144 176.134 36.4747 176.443 36.72C176.752 36.9547 177.184 37.072 177.739 37.072C178.198 37.072 178.598 36.976 178.939 36.784C179.28 36.5813 179.542 36.2987 179.723 35.936C179.915 35.5627 180.011 35.1253 180.011 34.624H180.555C180.555 35.712 180.31 36.5813 179.819 37.232C179.328 37.872 178.614 38.192 177.675 38.192ZM186.631 38.192C185.852 38.192 185.25 37.9893 184.823 37.584C184.396 37.1787 184.183 36.608 184.183 35.872V27.504H185.463V35.744C185.463 36.1493 185.57 36.464 185.783 36.688C186.007 36.9013 186.316 37.008 186.711 37.008C186.839 37.008 186.962 36.992 187.079 36.96C187.207 36.9173 187.372 36.8213 187.575 36.672L188.071 37.712C187.794 37.8933 187.543 38.016 187.319 38.08C187.095 38.1547 186.866 38.192 186.631 38.192ZM182.791 31.136V30H187.863V31.136H182.791ZM190.07 38V30H191.35V38H190.07ZM190.726 28.144C190.513 28.144 190.326 28.064 190.166 27.904C190.006 27.744 189.926 27.5573 189.926 27.344C189.926 27.12 190.006 26.9333 190.166 26.784C190.326 26.624 190.513 26.544 190.726 26.544C190.95 26.544 191.137 26.624 191.286 26.784C191.446 26.9333 191.526 27.12 191.526 27.344C191.526 27.5573 191.446 27.744 191.286 27.904C191.137 28.064 190.95 28.144 190.726 28.144ZM197.565 38.192C196.786 38.192 196.093 38.016 195.485 37.664C194.887 37.3013 194.418 36.8053 194.077 36.176C193.735 35.5467 193.565 34.8213 193.565 34C193.565 33.1787 193.73 32.4533 194.061 31.824C194.402 31.1947 194.871 30.704 195.469 30.352C196.077 29.9893 196.765 29.808 197.533 29.808C198.322 29.808 199.015 29.9893 199.613 30.352C200.221 30.704 200.69 31.1947 201.021 31.824C201.362 32.4533 201.533 33.1787 201.533 34C201.533 34.8213 201.362 35.5467 201.021 36.176C200.69 36.8053 200.226 37.3013 199.629 37.664C199.031 38.016 198.343 38.192 197.565 38.192ZM197.565 37.008C198.098 37.008 198.562 36.88 198.957 36.624C199.351 36.368 199.661 36.016 199.885 35.568C200.119 35.12 200.237 34.5973 200.237 34C200.237 33.4027 200.119 32.88 199.885 32.432C199.661 31.984 199.346 31.632 198.941 31.376C198.535 31.12 198.066 30.992 197.533 30.992C197.01 30.992 196.546 31.12 196.141 31.376C195.746 31.632 195.431 31.984 195.197 32.432C194.973 32.88 194.861 33.4027 194.861 34C194.861 34.5867 194.973 35.1093 195.197 35.568C195.431 36.016 195.751 36.368 196.157 36.624C196.573 36.88 197.042 37.008 197.565 37.008ZM203.63 38V30H204.83L204.91 31.472V38H203.63ZM209.246 38V33.904H210.526V38H209.246ZM209.246 33.904C209.246 33.1147 209.155 32.512 208.974 32.096C208.793 31.68 208.542 31.3973 208.222 31.248C207.902 31.088 207.539 31.008 207.134 31.008C206.43 31.008 205.881 31.2587 205.486 31.76C205.102 32.2507 204.91 32.9493 204.91 33.856H204.286C204.286 33.0133 204.409 32.288 204.654 31.68C204.899 31.072 205.257 30.608 205.726 30.288C206.195 29.968 206.761 29.808 207.422 29.808C208.051 29.808 208.595 29.936 209.054 30.192C209.523 30.4373 209.886 30.832 210.142 31.376C210.409 31.92 210.537 32.6347 210.526 33.52V33.904H209.246Z" fill="white"/>
<path d="M71.488 38V26.8H72.848V38H71.488ZM75.7838 38V30H76.9838L77.0638 31.472V38H75.7838ZM81.3998 38V33.904H82.6798V38H81.3998ZM81.3998 33.904C81.3998 33.1147 81.3091 32.512 81.1278 32.096C80.9464 31.68 80.6958 31.3973 80.3758 31.248C80.0558 31.088 79.6931 31.008 79.2878 31.008C78.5838 31.008 78.0344 31.2587 77.6398 31.76C77.2558 32.2507 77.0638 32.9493 77.0638 33.856H76.4398C76.4398 33.0133 76.5624 32.288 76.8078 31.68C77.0531 31.072 77.4104 30.608 77.8798 30.288C78.3491 29.968 78.9144 29.808 79.5758 29.808C80.2051 29.808 80.7491 29.936 81.2078 30.192C81.6771 30.4373 82.0398 30.832 82.2958 31.376C82.5624 31.92 82.6904 32.6347 82.6798 33.52V33.904H81.3998ZM90.8816 41.2V31.488L90.9456 30H92.1616V41.2H90.8816ZM88.1776 38.192C87.463 38.192 86.8336 38.016 86.2896 37.664C85.7456 37.312 85.319 36.8213 85.0096 36.192C84.711 35.552 84.5616 34.8213 84.5616 34C84.5616 33.168 84.711 32.4373 85.0096 31.808C85.319 31.1787 85.7456 30.688 86.2896 30.336C86.8336 29.984 87.463 29.808 88.1776 29.808C88.8496 29.808 89.4363 29.984 89.9376 30.336C90.4496 30.688 90.8443 31.1787 91.1216 31.808C91.399 32.4373 91.5376 33.168 91.5376 34C91.5376 34.8213 91.399 35.552 91.1216 36.192C90.8443 36.8213 90.4496 37.312 89.9376 37.664C89.4363 38.016 88.8496 38.192 88.1776 38.192ZM88.4656 37.024C88.935 37.024 89.351 36.896 89.7136 36.64C90.0763 36.384 90.359 36.0267 90.5616 35.568C90.775 35.1093 90.8816 34.5867 90.8816 34C90.8816 33.4133 90.775 32.8907 90.5616 32.432C90.359 31.9733 90.0763 31.616 89.7136 31.36C89.351 31.104 88.9296 30.976 88.4496 30.976C87.9483 30.976 87.5003 31.104 87.1056 31.36C86.7216 31.616 86.4176 31.9733 86.1936 32.432C85.9696 32.8907 85.8576 33.4133 85.8576 34C85.8576 34.5867 85.9696 35.1093 86.1936 35.568C86.4176 36.0267 86.727 36.384 87.1216 36.64C87.5163 36.896 87.9643 37.024 88.4656 37.024ZM100.084 38L100.004 36.528V30H101.284V38H100.084ZM94.3876 34.096V30H95.6676V34.096H94.3876ZM95.6676 34.096C95.6676 34.8853 95.7583 35.488 95.9396 35.904C96.121 36.32 96.3716 36.608 96.6916 36.768C97.0223 36.9173 97.3903 36.992 97.7956 36.992C98.489 36.992 99.0276 36.7413 99.4116 36.24C99.8063 35.7387 100.004 35.04 100.004 34.144H100.628C100.628 34.9867 100.505 35.712 100.26 36.32C100.014 36.928 99.657 37.392 99.1876 37.712C98.729 38.032 98.1636 38.192 97.4916 38.192C96.873 38.192 96.329 38.0693 95.8596 37.824C95.3903 37.568 95.0276 37.168 94.7716 36.624C94.5156 36.0693 94.3876 35.3547 94.3876 34.48V34.096H95.6676ZM103.917 38V30H105.197V38H103.917ZM104.573 28.144C104.36 28.144 104.173 28.064 104.013 27.904C103.853 27.744 103.773 27.5573 103.773 27.344C103.773 27.12 103.853 26.9333 104.013 26.784C104.173 26.624 104.36 26.544 104.573 26.544C104.797 26.544 104.984 26.624 105.133 26.784C105.293 26.9333 105.373 27.12 105.373 27.344C105.373 27.5573 105.293 27.744 105.133 27.904C104.984 28.064 104.797 28.144 104.573 28.144ZM108.58 33.664C108.58 32.8 108.746 32.1013 109.076 31.568C109.407 31.024 109.828 30.624 110.34 30.368C110.863 30.1013 111.412 29.968 111.988 29.968V31.168C111.519 31.168 111.066 31.248 110.628 31.408C110.202 31.5573 109.85 31.808 109.572 32.16C109.295 32.512 109.156 32.992 109.156 33.6L108.58 33.664ZM107.876 38V30H109.156V38H107.876ZM114.322 41.392C114.12 41.392 113.885 41.3493 113.618 41.264C113.352 41.1893 113.069 41.088 112.77 40.96L113.25 39.888C113.496 39.9947 113.709 40.0747 113.89 40.128C114.082 40.1813 114.232 40.208 114.338 40.208C114.626 40.208 114.861 40.128 115.042 39.968C115.234 39.8187 115.394 39.6 115.522 39.312L116.434 37.136L119.394 30H120.77L116.93 39.12C116.728 39.5893 116.514 39.9947 116.29 40.336C116.077 40.6773 115.816 40.9387 115.506 41.12C115.197 41.3013 114.802 41.392 114.322 41.392ZM116.082 38L112.626 30H113.986L116.962 37.12L117.346 38H116.082ZM126.698 41.2V30H127.898L127.978 31.472V41.2H126.698ZM130.682 38.192C130.01 38.192 129.418 38.016 128.906 37.664C128.404 37.312 128.015 36.8213 127.738 36.192C127.46 35.552 127.322 34.8213 127.322 34C127.322 33.168 127.46 32.4373 127.738 31.808C128.015 31.1787 128.404 30.688 128.906 30.336C129.418 29.984 130.01 29.808 130.682 29.808C131.396 29.808 132.026 29.984 132.57 30.336C133.114 30.688 133.535 31.1787 133.834 31.808C134.143 32.4373 134.298 33.168 134.298 34C134.298 34.8213 134.143 35.552 133.834 36.192C133.535 36.8213 133.114 37.312 132.57 37.664C132.026 38.016 131.396 38.192 130.682 38.192ZM130.394 37.024C130.895 37.024 131.338 36.896 131.722 36.64C132.116 36.384 132.426 36.0267 132.65 35.568C132.884 35.1093 133.002 34.5867 133.002 34C133.002 33.4133 132.89 32.8907 132.666 32.432C132.452 31.9733 132.148 31.616 131.754 31.36C131.359 31.104 130.911 30.976 130.41 30.976C129.94 30.976 129.519 31.104 129.146 31.36C128.783 31.616 128.495 31.9733 128.282 32.432C128.079 32.8907 127.978 33.4133 127.978 34C127.978 34.5867 128.079 35.1093 128.282 35.568C128.495 36.0267 128.783 36.384 129.146 36.64C129.508 36.896 129.924 37.024 130.394 37.024ZM137.095 33.664C137.095 32.8 137.26 32.1013 137.591 31.568C137.921 31.024 138.343 30.624 138.855 30.368C139.377 30.1013 139.927 29.968 140.503 29.968V31.168C140.033 31.168 139.58 31.248 139.143 31.408C138.716 31.5573 138.364 31.808 138.087 32.16C137.809 32.512 137.671 32.992 137.671 33.6L137.095 33.664ZM136.391 38V30H137.671V38H136.391ZM145.621 38.192C144.842 38.192 144.154 38.016 143.557 37.664C142.96 37.3013 142.49 36.8053 142.149 36.176C141.818 35.5467 141.653 34.8213 141.653 34C141.653 33.1787 141.818 32.4533 142.149 31.824C142.49 31.1947 142.954 30.704 143.541 30.352C144.138 29.9893 144.821 29.808 145.589 29.808C146.336 29.808 146.981 29.9947 147.525 30.368C148.069 30.7307 148.49 31.2427 148.789 31.904C149.088 32.5653 149.237 33.344 149.237 34.24H142.629L142.949 33.968C142.949 34.608 143.061 35.1573 143.285 35.616C143.52 36.0747 143.845 36.4267 144.261 36.672C144.677 36.9067 145.152 37.024 145.685 37.024C146.25 37.024 146.725 36.8907 147.109 36.624C147.504 36.3573 147.808 36.0053 148.021 35.568L149.125 36.128C148.922 36.544 148.65 36.9067 148.309 37.216C147.978 37.5253 147.584 37.7653 147.125 37.936C146.677 38.1067 146.176 38.192 145.621 38.192ZM143.029 33.424L142.693 33.168H148.213L147.877 33.44C147.877 32.928 147.776 32.4853 147.573 32.112C147.37 31.7387 147.098 31.4507 146.757 31.248C146.416 31.0453 146.021 30.944 145.573 30.944C145.136 30.944 144.72 31.0453 144.325 31.248C143.941 31.4507 143.626 31.7387 143.381 32.112C143.146 32.4747 143.029 32.912 143.029 33.424ZM151.251 41.2V30H152.451L152.531 31.472V41.2H151.251ZM155.235 38.192C154.563 38.192 153.971 38.016 153.459 37.664C152.958 37.312 152.569 36.8213 152.291 36.192C152.014 35.552 151.875 34.8213 151.875 34C151.875 33.168 152.014 32.4373 152.291 31.808C152.569 31.1787 152.958 30.688 153.459 30.336C153.971 29.984 154.563 29.808 155.235 29.808C155.95 29.808 156.579 29.984 157.123 30.336C157.667 30.688 158.089 31.1787 158.387 31.808C158.697 32.4373 158.851 33.168 158.851 34C158.851 34.8213 158.697 35.552 158.387 36.192C158.089 36.8213 157.667 37.312 157.123 37.664C156.579 38.016 155.95 38.192 155.235 38.192ZM154.947 37.024C155.449 37.024 155.891 36.896 156.275 36.64C156.67 36.384 156.979 36.0267 157.203 35.568C157.438 35.1093 157.555 34.5867 157.555 34C157.555 33.4133 157.443 32.8907 157.219 32.432C157.006 31.9733 156.702 31.616 156.307 31.36C155.913 31.104 155.465 30.976 154.963 30.976C154.494 30.976 154.073 31.104 153.699 31.36C153.337 31.616 153.049 31.9733 152.835 32.432C152.633 32.8907 152.531 33.4133 152.531 34C152.531 34.5867 152.633 35.1093 152.835 35.568C153.049 36.0267 153.337 36.384 153.699 36.64C154.062 36.896 154.478 37.024 154.947 37.024ZM165.872 38L165.808 36.688V33.776C165.808 33.1467 165.739 32.6293 165.6 32.224C165.462 31.808 165.243 31.4933 164.944 31.28C164.646 31.0667 164.256 30.96 163.776 30.96C163.339 30.96 162.96 31.0507 162.64 31.232C162.331 31.4027 162.075 31.68 161.872 32.064L160.72 31.616C160.923 31.2427 161.168 30.9227 161.456 30.656C161.744 30.3787 162.08 30.1707 162.464 30.032C162.848 29.8827 163.286 29.808 163.776 29.808C164.523 29.808 165.136 29.9573 165.616 30.256C166.107 30.544 166.475 30.976 166.72 31.552C166.966 32.1173 167.083 32.8213 167.072 33.664L167.056 38H165.872ZM163.472 38.192C162.534 38.192 161.798 37.9787 161.264 37.552C160.742 37.1147 160.48 36.512 160.48 35.744C160.48 34.9333 160.747 34.3147 161.28 33.888C161.824 33.4507 162.582 33.232 163.552 33.232H165.84V34.304H163.84C163.094 34.304 162.56 34.4267 162.24 34.672C161.931 34.9173 161.776 35.2693 161.776 35.728C161.776 36.144 161.931 36.4747 162.24 36.72C162.55 36.9547 162.982 37.072 163.536 37.072C163.995 37.072 164.395 36.976 164.736 36.784C165.078 36.5813 165.339 36.2987 165.52 35.936C165.712 35.5627 165.808 35.1253 165.808 34.624H166.352C166.352 35.712 166.107 36.5813 165.616 37.232C165.126 37.872 164.411 38.192 163.472 38.192ZM170.125 33.664C170.125 32.8 170.29 32.1013 170.621 31.568C170.951 31.024 171.373 30.624 171.885 30.368C172.407 30.1013 172.957 29.968 173.533 29.968V31.168C173.063 31.168 172.61 31.248 172.173 31.408C171.746 31.5573 171.394 31.808 171.117 32.16C170.839 32.512 170.701 32.992 170.701 33.6L170.125 33.664ZM169.421 38V30H170.701V38H169.421ZM180.075 38L180.011 36.688V33.776C180.011 33.1467 179.942 32.6293 179.803 32.224C179.664 31.808 179.446 31.4933 179.147 31.28C178.848 31.0667 178.459 30.96 177.979 30.96C177.542 30.96 177.163 31.0507 176.843 31.232C176.534 31.4027 176.278 31.68 176.075 32.064L174.923 31.616C175.126 31.2427 175.371 30.9227 175.659 30.656C175.947 30.3787 176.283 30.1707 176.667 30.032C177.051 29.8827 177.488 29.808 177.979 29.808C178.726 29.808 179.339 29.9573 179.819 30.256C180.31 30.544 180.678 30.976 180.923 31.552C181.168 32.1173 181.286 32.8213 181.275 33.664L181.259 38H180.075ZM177.675 38.192C176.736 38.192 176 37.9787 175.467 37.552C174.944 37.1147 174.683 36.512 174.683 35.744C174.683 34.9333 174.95 34.3147 175.483 33.888C176.027 33.4507 176.784 33.232 177.755 33.232H180.043V34.304H178.043C177.296 34.304 176.763 34.4267 176.443 34.672C176.134 34.9173 175.979 35.2693 175.979 35.728C175.979 36.144 176.134 36.4747 176.443 36.72C176.752 36.9547 177.184 37.072 177.739 37.072C178.198 37.072 178.598 36.976 178.939 36.784C179.28 36.5813 179.542 36.2987 179.723 35.936C179.915 35.5627 180.011 35.1253 180.011 34.624H180.555C180.555 35.712 180.31 36.5813 179.819 37.232C179.328 37.872 178.614 38.192 177.675 38.192ZM186.631 38.192C185.852 38.192 185.25 37.9893 184.823 37.584C184.396 37.1787 184.183 36.608 184.183 35.872V27.504H185.463V35.744C185.463 36.1493 185.57 36.464 185.783 36.688C186.007 36.9013 186.316 37.008 186.711 37.008C186.839 37.008 186.962 36.992 187.079 36.96C187.207 36.9173 187.372 36.8213 187.575 36.672L188.071 37.712C187.794 37.8933 187.543 38.016 187.319 38.08C187.095 38.1547 186.866 38.192 186.631 38.192ZM182.791 31.136V30H187.863V31.136H182.791ZM190.07 38V30H191.35V38H190.07ZM190.726 28.144C190.513 28.144 190.326 28.064 190.166 27.904C190.006 27.744 189.926 27.5573 189.926 27.344C189.926 27.12 190.006 26.9333 190.166 26.784C190.326 26.624 190.513 26.544 190.726 26.544C190.95 26.544 191.137 26.624 191.286 26.784C191.446 26.9333 191.526 27.12 191.526 27.344C191.526 27.5573 191.446 27.744 191.286 27.904C191.137 28.064 190.95 28.144 190.726 28.144ZM197.565 38.192C196.786 38.192 196.093 38.016 195.485 37.664C194.887 37.3013 194.418 36.8053 194.077 36.176C193.735 35.5467 193.565 34.8213 193.565 34C193.565 33.1787 193.73 32.4533 194.061 31.824C194.402 31.1947 194.871 30.704 195.469 30.352C196.077 29.9893 196.765 29.808 197.533 29.808C198.322 29.808 199.015 29.9893 199.613 30.352C200.221 30.704 200.69 31.1947 201.021 31.824C201.362 32.4533 201.533 33.1787 201.533 34C201.533 34.8213 201.362 35.5467 201.021 36.176C200.69 36.8053 200.226 37.3013 199.629 37.664C199.031 38.016 198.343 38.192 197.565 38.192ZM197.565 37.008C198.098 37.008 198.562 36.88 198.957 36.624C199.351 36.368 199.661 36.016 199.885 35.568C200.119 35.12 200.237 34.5973 200.237 34C200.237 33.4027 200.119 32.88 199.885 32.432C199.661 31.984 199.346 31.632 198.941 31.376C198.535 31.12 198.066 30.992 197.533 30.992C197.01 30.992 196.546 31.12 196.141 31.376C195.746 31.632 195.431 31.984 195.197 32.432C194.973 32.88 194.861 33.4027 194.861 34C194.861 34.5867 194.973 35.1093 195.197 35.568C195.431 36.016 195.751 36.368 196.157 36.624C196.573 36.88 197.042 37.008 197.565 37.008ZM203.63 38V30H204.83L204.91 31.472V38H203.63ZM209.246 38V33.904H210.526V38H209.246ZM209.246 33.904C209.246 33.1147 209.155 32.512 208.974 32.096C208.793 31.68 208.542 31.3973 208.222 31.248C207.902 31.088 207.539 31.008 207.134 31.008C206.43 31.008 205.881 31.2587 205.486 31.76C205.102 32.2507 204.91 32.9493 204.91 33.856H204.286C204.286 33.0133 204.409 32.288 204.654 31.68C204.899 31.072 205.257 30.608 205.726 30.288C206.195 29.968 206.761 29.808 207.422 29.808C208.051 29.808 208.595 29.936 209.054 30.192C209.523 30.4373 209.886 30.832 210.142 31.376C210.409 31.92 210.537 32.6347 210.526 33.52V33.904H209.246Z" fill="#3D3D4F"/>
<g opacity="0.32">
<line x1="230" y1="31.5" x2="356.5" y2="31.5" stroke="white"/>
<line x1="230" y1="31.5" x2="356.5" y2="31.5" stroke="#8A8A8A"/>
</g>
<circle cx="388.5" cy="32" r="14" fill="#60ADFA"/>
<circle cx="388.5" cy="32" r="17" stroke="#60ADFA" stroke-opacity="0.2" stroke-width="6"/>
<path d="M384.942 37.334V35.999C384.942 35.689 385.022 35.369 385.182 35.039C385.342 34.699 385.567 34.359 385.857 34.019C386.157 33.679 386.507 33.359 386.907 33.059L388.737 31.739C388.967 31.579 389.177 31.394 389.367 31.184C389.567 30.974 389.727 30.754 389.847 30.524C389.967 30.284 390.027 30.049 390.027 29.819C390.027 29.529 389.952 29.264 389.802 29.024C389.662 28.784 389.457 28.594 389.187 28.454C388.927 28.314 388.607 28.244 388.227 28.244C387.887 28.244 387.582 28.314 387.312 28.454C387.052 28.584 386.837 28.759 386.667 28.979C386.497 29.199 386.377 29.439 386.307 29.699L384.522 29.369C384.622 28.889 384.832 28.444 385.152 28.034C385.482 27.614 385.902 27.279 386.412 27.029C386.932 26.779 387.522 26.654 388.182 26.654C388.922 26.654 389.562 26.789 390.102 27.059C390.652 27.329 391.072 27.704 391.362 28.184C391.662 28.654 391.812 29.194 391.812 29.804C391.812 30.424 391.642 30.984 391.302 31.484C390.972 31.974 390.507 32.444 389.907 32.894L388.227 34.139C387.897 34.379 387.627 34.639 387.417 34.919C387.207 35.189 387.062 35.479 386.982 35.789H391.947V37.334H384.942Z" fill="white"/>
<path d="M384.942 37.334V35.999C384.942 35.689 385.022 35.369 385.182 35.039C385.342 34.699 385.567 34.359 385.857 34.019C386.157 33.679 386.507 33.359 386.907 33.059L388.737 31.739C388.967 31.579 389.177 31.394 389.367 31.184C389.567 30.974 389.727 30.754 389.847 30.524C389.967 30.284 390.027 30.049 390.027 29.819C390.027 29.529 389.952 29.264 389.802 29.024C389.662 28.784 389.457 28.594 389.187 28.454C388.927 28.314 388.607 28.244 388.227 28.244C387.887 28.244 387.582 28.314 387.312 28.454C387.052 28.584 386.837 28.759 386.667 28.979C386.497 29.199 386.377 29.439 386.307 29.699L384.522 29.369C384.622 28.889 384.832 28.444 385.152 28.034C385.482 27.614 385.902 27.279 386.412 27.029C386.932 26.779 387.522 26.654 388.182 26.654C388.922 26.654 389.562 26.789 390.102 27.059C390.652 27.329 391.072 27.704 391.362 28.184C391.662 28.654 391.812 29.194 391.812 29.804C391.812 30.424 391.642 30.984 391.302 31.484C390.972 31.974 390.507 32.444 389.907 32.894L388.227 34.139C387.897 34.379 387.627 34.639 387.417 34.919C387.207 35.189 387.062 35.479 386.982 35.789H391.947V37.334H384.942Z" fill="url(#paint1_linear_2393_2458)"/>
<path d="M421.828 38V26.8H423.684V38H421.828ZM426.328 38V30H428.008L428.12 31.472V38H426.328ZM431.752 38V33.904H433.544V38H431.752ZM431.752 33.904C431.752 33.264 431.677 32.7733 431.528 32.432C431.389 32.08 431.186 31.8347 430.92 31.696C430.664 31.5573 430.36 31.488 430.008 31.488C429.41 31.4773 428.946 31.6747 428.616 32.08C428.285 32.4853 428.12 33.0667 428.12 33.824H427.448C427.448 32.9813 427.57 32.2613 427.816 31.664C428.061 31.056 428.413 30.5973 428.872 30.288C429.33 29.968 429.874 29.808 430.504 29.808C431.144 29.808 431.688 29.936 432.136 30.192C432.594 30.448 432.941 30.848 433.176 31.392C433.421 31.9253 433.544 32.624 433.544 33.488V33.904H431.752ZM441.375 41.2V31.488L441.471 30H443.167V41.2H441.375ZM438.847 38.192C438.122 38.192 437.487 38.0213 436.943 37.68C436.41 37.328 435.988 36.8373 435.679 36.208C435.38 35.5787 435.231 34.8427 435.231 34C435.231 33.1467 435.38 32.4107 435.679 31.792C435.988 31.1627 436.41 30.6773 436.943 30.336C437.487 29.984 438.122 29.808 438.847 29.808C439.519 29.808 440.095 29.984 440.575 30.336C441.066 30.6773 441.439 31.1627 441.695 31.792C441.951 32.4107 442.079 33.1467 442.079 34C442.079 34.8427 441.951 35.5787 441.695 36.208C441.439 36.8373 441.066 37.328 440.575 37.68C440.095 38.0213 439.519 38.192 438.847 38.192ZM439.295 36.56C439.7 36.56 440.058 36.4533 440.367 36.24C440.687 36.016 440.932 35.712 441.103 35.328C441.284 34.944 441.375 34.5013 441.375 34C441.375 33.4987 441.284 33.056 441.103 32.672C440.932 32.288 440.687 31.9893 440.367 31.776C440.058 31.5627 439.695 31.456 439.279 31.456C438.852 31.456 438.474 31.5627 438.143 31.776C437.812 31.9893 437.551 32.288 437.359 32.672C437.178 33.056 437.082 33.4987 437.071 34C437.082 34.5013 437.178 34.944 437.359 35.328C437.551 35.712 437.812 36.016 438.143 36.24C438.484 36.4533 438.868 36.56 439.295 36.56ZM450.734 38L450.638 36.528V30H452.414V38H450.734ZM445.198 34.096V30H446.99V34.096H445.198ZM446.99 34.096C446.99 34.7253 447.065 35.216 447.214 35.568C447.363 35.92 447.566 36.1653 447.822 36.304C448.089 36.4427 448.393 36.512 448.734 36.512C449.342 36.5227 449.811 36.3253 450.142 35.92C450.473 35.5147 450.638 34.9333 450.638 34.176H451.31C451.31 35.0187 451.182 35.744 450.926 36.352C450.681 36.9493 450.329 37.408 449.87 37.728C449.422 38.0373 448.878 38.192 448.238 38.192C447.609 38.192 447.065 38.064 446.606 37.808C446.158 37.552 445.811 37.152 445.566 36.608C445.321 36.064 445.198 35.3653 445.198 34.512V34.096H446.99ZM454.837 38V30H456.613V38H454.837ZM455.733 28.48C455.445 28.48 455.194 28.3787 454.981 28.176C454.778 27.9627 454.677 27.712 454.677 27.424C454.677 27.136 454.778 26.8907 454.981 26.688C455.194 26.4853 455.445 26.384 455.733 26.384C456.021 26.384 456.266 26.4853 456.469 26.688C456.682 26.8907 456.789 27.136 456.789 27.424C456.789 27.712 456.682 27.9627 456.469 28.176C456.266 28.3787 456.021 28.48 455.733 28.48ZM460.229 33.744C460.229 32.88 460.394 32.1707 460.725 31.616C461.056 31.0613 461.482 30.6507 462.005 30.384C462.538 30.1067 463.093 29.968 463.669 29.968V31.68C463.178 31.68 462.714 31.7493 462.277 31.888C461.85 32.016 461.504 32.2293 461.237 32.528C460.97 32.8267 460.837 33.2213 460.837 33.712L460.229 33.744ZM459.045 38V30H460.837V38H459.045ZM466.442 41.392C466.186 41.392 465.898 41.344 465.578 41.248C465.268 41.152 464.97 41.0293 464.682 40.88L465.354 39.424C465.556 39.52 465.743 39.5947 465.914 39.648C466.084 39.712 466.223 39.744 466.33 39.744C466.586 39.744 466.799 39.6747 466.97 39.536C467.151 39.408 467.295 39.216 467.402 38.96L468.346 36.752L471.05 30H473.002L469.29 38.848C469.066 39.36 468.836 39.808 468.602 40.192C468.378 40.576 468.095 40.8693 467.754 41.072C467.412 41.2853 466.975 41.392 466.442 41.392ZM467.866 38L464.282 30H466.234L469.018 36.736L469.594 38H467.866ZM482.312 38.192C481.49 38.192 480.765 38.016 480.136 37.664C479.506 37.3013 479.01 36.8053 478.648 36.176C478.296 35.5467 478.12 34.8213 478.12 34C478.12 33.1787 478.296 32.4533 478.648 31.824C479.01 31.1947 479.501 30.704 480.12 30.352C480.749 29.9893 481.469 29.808 482.28 29.808C483.069 29.808 483.784 30 484.424 30.384C485.064 30.7573 485.538 31.296 485.848 32L484.184 32.64C484.013 32.288 483.752 32.0053 483.4 31.792C483.048 31.5787 482.648 31.472 482.2 31.472C481.762 31.472 481.373 31.584 481.032 31.808C480.69 32.0213 480.424 32.32 480.232 32.704C480.04 33.0773 479.944 33.5093 479.944 34C479.944 34.4907 480.04 34.928 480.232 35.312C480.434 35.6853 480.706 35.984 481.048 36.208C481.4 36.4213 481.794 36.528 482.232 36.528C482.68 36.528 483.08 36.416 483.432 36.192C483.784 35.9573 484.045 35.6427 484.216 35.248L485.88 35.888C485.57 36.6133 485.096 37.1787 484.456 37.584C483.826 37.9893 483.112 38.192 482.312 38.192ZM488.775 33.744C488.775 32.88 488.94 32.1707 489.271 31.616C489.601 31.0613 490.028 30.6507 490.551 30.384C491.084 30.1067 491.639 29.968 492.215 29.968V31.68C491.724 31.68 491.26 31.7493 490.823 31.888C490.396 32.016 490.049 32.2293 489.783 32.528C489.516 32.8267 489.383 33.2213 489.383 33.712L488.775 33.744ZM487.591 38V30H489.383V38H487.591ZM497.291 38.192C496.513 38.192 495.819 38.016 495.211 37.664C494.614 37.3013 494.139 36.8053 493.787 36.176C493.446 35.5467 493.275 34.8213 493.275 34C493.275 33.1787 493.451 32.4533 493.803 31.824C494.155 31.1947 494.635 30.704 495.243 30.352C495.862 29.9893 496.566 29.808 497.355 29.808C498.07 29.808 498.715 29.9947 499.291 30.368C499.867 30.7307 500.321 31.2587 500.651 31.952C500.993 32.6453 501.163 33.472 501.163 34.432H494.875L495.115 34.208C495.115 34.6987 495.222 35.1253 495.435 35.488C495.649 35.84 495.931 36.112 496.283 36.304C496.635 36.496 497.025 36.592 497.451 36.592C497.942 36.592 498.347 36.4853 498.667 36.272C498.987 36.048 499.238 35.76 499.419 35.408L501.003 36.08C500.779 36.5067 500.491 36.88 500.139 37.2C499.798 37.52 499.387 37.7653 498.907 37.936C498.438 38.1067 497.899 38.192 497.291 38.192ZM495.227 33.28L494.971 33.056H499.483L499.243 33.28C499.243 32.8427 499.147 32.4853 498.955 32.208C498.763 31.92 498.518 31.7067 498.219 31.568C497.931 31.4187 497.627 31.344 497.307 31.344C496.987 31.344 496.667 31.4187 496.347 31.568C496.027 31.7067 495.761 31.92 495.547 32.208C495.334 32.4853 495.227 32.8427 495.227 33.28ZM507.736 38L507.656 36.496V33.888C507.656 33.344 507.597 32.8907 507.48 32.528C507.373 32.1547 507.192 31.872 506.936 31.68C506.69 31.4773 506.36 31.376 505.944 31.376C505.56 31.376 505.224 31.456 504.936 31.616C504.648 31.776 504.402 32.0267 504.2 32.368L502.632 31.792C502.802 31.44 503.026 31.1147 503.304 30.816C503.592 30.5067 503.949 30.2613 504.376 30.08C504.813 29.8987 505.336 29.808 505.944 29.808C506.722 29.808 507.373 29.9627 507.896 30.272C508.418 30.5707 508.802 31.0027 509.048 31.568C509.304 32.1333 509.432 32.816 509.432 33.616L509.384 38H507.736ZM505.432 38.192C504.472 38.192 503.725 37.9787 503.192 37.552C502.669 37.1253 502.408 36.5227 502.408 35.744C502.408 34.912 502.685 34.2773 503.24 33.84C503.805 33.4027 504.589 33.184 505.592 33.184H507.736V34.56H506.168C505.453 34.56 504.952 34.6613 504.664 34.864C504.376 35.056 504.232 35.3333 504.232 35.696C504.232 36.0053 504.354 36.2507 504.6 36.432C504.856 36.6027 505.208 36.688 505.656 36.688C506.061 36.688 506.413 36.5973 506.712 36.416C507.01 36.2347 507.24 35.9947 507.4 35.696C507.57 35.3973 507.656 35.0613 507.656 34.688H508.184C508.184 35.776 507.965 36.6347 507.528 37.264C507.09 37.8827 506.392 38.192 505.432 38.192ZM514.75 38.192C513.908 38.192 513.262 37.984 512.814 37.568C512.377 37.1413 512.158 36.5333 512.158 35.744V27.504H513.934V35.408C513.934 35.7813 514.02 36.064 514.19 36.256C514.372 36.448 514.633 36.544 514.974 36.544C515.081 36.544 515.198 36.5227 515.326 36.48C515.454 36.4373 515.598 36.3573 515.758 36.24L516.414 37.6C516.137 37.792 515.86 37.936 515.582 38.032C515.305 38.1387 515.028 38.192 514.75 38.192ZM510.83 31.536V30H516.094V31.536H510.83ZM518.28 38V30H520.056V38H518.28ZM519.176 28.48C518.888 28.48 518.637 28.3787 518.424 28.176C518.221 27.9627 518.12 27.712 518.12 27.424C518.12 27.136 518.221 26.8907 518.424 26.688C518.637 26.4853 518.888 26.384 519.176 26.384C519.464 26.384 519.709 26.4853 519.912 26.688C520.125 26.8907 520.232 27.136 520.232 27.424C520.232 27.712 520.125 27.9627 519.912 28.176C519.709 28.3787 519.464 28.48 519.176 28.48ZM526.168 38.192C525.368 38.192 524.653 38.016 524.024 37.664C523.405 37.3013 522.92 36.8053 522.568 36.176C522.216 35.5467 522.04 34.8213 522.04 34C522.04 33.1787 522.21 32.4533 522.552 31.824C522.904 31.1947 523.389 30.704 524.008 30.352C524.626 29.9893 525.336 29.808 526.136 29.808C526.936 29.808 527.645 29.9893 528.264 30.352C528.882 30.704 529.362 31.1947 529.704 31.824C530.056 32.4533 530.232 33.1787 530.232 34C530.232 34.8213 530.061 35.5467 529.72 36.176C529.378 36.8053 528.898 37.3013 528.28 37.664C527.661 38.016 526.957 38.192 526.168 38.192ZM526.168 36.544C526.605 36.544 526.994 36.4373 527.336 36.224C527.677 36 527.944 35.7013 528.136 35.328C528.328 34.944 528.424 34.5013 528.424 34C528.424 33.4987 528.322 33.0613 528.12 32.688C527.928 32.304 527.661 32.0053 527.32 31.792C526.978 31.568 526.584 31.456 526.136 31.456C525.688 31.456 525.293 31.5627 524.952 31.776C524.61 31.9893 524.344 32.288 524.152 32.672C523.96 33.056 523.864 33.4987 523.864 34C523.864 34.5013 523.96 34.944 524.152 35.328C524.354 35.7013 524.626 36 524.968 36.224C525.32 36.4373 525.72 36.544 526.168 36.544ZM532.105 38V30H533.785L533.897 31.472V38H532.105ZM537.529 38V33.904H539.321V38H537.529ZM537.529 33.904C537.529 33.264 537.454 32.7733 537.305 32.432C537.166 32.08 536.963 31.8347 536.697 31.696C536.441 31.5573 536.137 31.488 535.785 31.488C535.187 31.4773 534.723 31.6747 534.393 32.08C534.062 32.4853 533.897 33.0667 533.897 33.824H533.225C533.225 32.9813 533.347 32.2613 533.593 31.664C533.838 31.056 534.19 30.5973 534.649 30.288C535.107 29.968 535.651 29.808 536.281 29.808C536.921 29.808 537.465 29.936 537.913 30.192C538.371 30.448 538.718 30.848 538.953 31.392C539.198 31.9253 539.321 32.624 539.321 33.488V33.904H537.529ZM550.515 38L550.435 36.496V33.888C550.435 33.344 550.376 32.8907 550.259 32.528C550.152 32.1547 549.971 31.872 549.715 31.68C549.47 31.4773 549.139 31.376 548.723 31.376C548.339 31.376 548.003 31.456 547.715 31.616C547.427 31.776 547.182 32.0267 546.979 32.368L545.411 31.792C545.582 31.44 545.806 31.1147 546.083 30.816C546.371 30.5067 546.728 30.2613 547.155 30.08C547.592 29.8987 548.115 29.808 548.723 29.808C549.502 29.808 550.152 29.9627 550.675 30.272C551.198 30.5707 551.582 31.0027 551.827 31.568C552.083 32.1333 552.211 32.816 552.211 33.616L552.163 38H550.515ZM548.211 38.192C547.251 38.192 546.504 37.9787 545.971 37.552C545.448 37.1253 545.187 36.5227 545.187 35.744C545.187 34.912 545.464 34.2773 546.019 33.84C546.584 33.4027 547.368 33.184 548.371 33.184H550.515V34.56H548.947C548.232 34.56 547.731 34.6613 547.443 34.864C547.155 35.056 547.011 35.3333 547.011 35.696C547.011 36.0053 547.134 36.2507 547.379 36.432C547.635 36.6027 547.987 36.688 548.435 36.688C548.84 36.688 549.192 36.5973 549.491 36.416C549.79 36.2347 550.019 35.9947 550.179 35.696C550.35 35.3973 550.435 35.0613 550.435 34.688H550.963C550.963 35.776 550.744 36.6347 550.307 37.264C549.87 37.8827 549.171 38.192 548.211 38.192ZM554.346 38V30H556.026L556.138 31.472V38H554.346ZM559.77 38V33.904H561.562V38H559.77ZM559.77 33.904C559.77 33.264 559.695 32.7733 559.546 32.432C559.407 32.08 559.204 31.8347 558.938 31.696C558.682 31.5573 558.378 31.488 558.026 31.488C557.428 31.4773 556.964 31.6747 556.634 32.08C556.303 32.4853 556.138 33.0667 556.138 33.824H555.466C555.466 32.9813 555.588 32.2613 555.834 31.664C556.079 31.056 556.431 30.5973 556.89 30.288C557.348 29.968 557.892 29.808 558.522 29.808C559.162 29.808 559.706 29.936 560.154 30.192C560.612 30.448 560.959 30.848 561.194 31.392C561.439 31.9253 561.562 32.624 561.562 33.488V33.904H559.77ZM569.473 38L569.393 36.512V26.8H571.169V38H569.473ZM566.865 38.192C566.14 38.192 565.505 38.0213 564.961 37.68C564.428 37.328 564.006 36.8373 563.697 36.208C563.398 35.5787 563.249 34.8427 563.249 34C563.249 33.1467 563.398 32.4107 563.697 31.792C564.006 31.1627 564.428 30.6773 564.961 30.336C565.505 29.984 566.14 29.808 566.865 29.808C567.537 29.808 568.113 29.984 568.593 30.336C569.084 30.6773 569.457 31.1627 569.713 31.792C569.969 32.4107 570.097 33.1467 570.097 34C570.097 34.8427 569.969 35.5787 569.713 36.208C569.457 36.8373 569.084 37.328 568.593 37.68C568.113 38.0213 567.537 38.192 566.865 38.192ZM567.313 36.56C567.718 36.56 568.076 36.4533 568.385 36.24C568.705 36.016 568.95 35.712 569.121 35.328C569.302 34.944 569.393 34.5013 569.393 34C569.393 33.4987 569.302 33.056 569.121 32.672C568.95 32.288 568.705 31.9893 568.385 31.776C568.076 31.5627 567.713 31.456 567.297 31.456C566.87 31.456 566.492 31.5627 566.161 31.776C565.83 31.9893 565.569 32.288 565.377 32.672C565.196 33.056 565.1 33.4987 565.089 34C565.1 34.5013 565.196 34.944 565.377 35.328C565.569 35.712 565.83 36.016 566.161 36.24C566.502 36.4533 566.886 36.56 567.313 36.56ZM580.562 38.192C580.028 38.192 579.538 38.112 579.09 37.952C578.642 37.792 578.258 37.568 577.938 37.28C577.618 36.9813 577.372 36.6347 577.202 36.24L578.754 35.552C578.914 35.8507 579.148 36.1013 579.458 36.304C579.778 36.5067 580.13 36.608 580.514 36.608C580.93 36.608 581.26 36.5387 581.506 36.4C581.762 36.2507 581.89 36.048 581.89 35.792C581.89 35.5467 581.794 35.36 581.602 35.232C581.41 35.0933 581.138 34.9813 580.786 34.896L580.034 34.688C579.276 34.496 578.684 34.192 578.258 33.776C577.831 33.3493 577.618 32.864 577.618 32.32C577.618 31.52 577.874 30.9013 578.386 30.464C578.908 30.0267 579.655 29.808 580.626 29.808C581.116 29.808 581.564 29.8827 581.97 30.032C582.386 30.1707 582.743 30.3733 583.042 30.64C583.34 30.896 583.548 31.2 583.666 31.552L582.178 32.224C582.071 31.9573 581.868 31.7547 581.57 31.616C581.271 31.4667 580.94 31.392 580.578 31.392C580.215 31.392 579.932 31.472 579.73 31.632C579.527 31.7813 579.426 31.9947 579.426 32.272C579.426 32.432 579.516 32.5813 579.698 32.72C579.879 32.848 580.14 32.9547 580.482 33.04L581.426 33.264C581.948 33.392 582.375 33.5947 582.706 33.872C583.036 34.1387 583.282 34.4427 583.442 34.784C583.602 35.1147 583.682 35.4507 583.682 35.792C583.682 36.272 583.543 36.6933 583.266 37.056C582.999 37.4187 582.631 37.7013 582.162 37.904C581.692 38.096 581.159 38.192 580.562 38.192ZM590.783 38L590.687 36.528V30H592.463V38H590.783ZM585.247 34.096V30H587.039V34.096H585.247ZM587.039 34.096C587.039 34.7253 587.113 35.216 587.263 35.568C587.412 35.92 587.615 36.1653 587.871 36.304C588.137 36.4427 588.441 36.512 588.783 36.512C589.391 36.5227 589.86 36.3253 590.191 35.92C590.521 35.5147 590.687 34.9333 590.687 34.176H591.359C591.359 35.0187 591.231 35.744 590.975 36.352C590.729 36.9493 590.377 37.408 589.919 37.728C589.471 38.0373 588.927 38.192 588.287 38.192C587.657 38.192 587.113 38.064 586.655 37.808C586.207 37.552 585.86 37.152 585.615 36.608C585.369 36.064 585.247 35.3653 585.247 34.512V34.096H587.039ZM594.774 38V26.8H596.566V36.512L596.47 38H594.774ZM599.094 38.192C598.422 38.192 597.841 38.0213 597.35 37.68C596.87 37.328 596.502 36.8373 596.246 36.208C595.99 35.5787 595.862 34.8427 595.862 34C595.862 33.1467 595.99 32.4107 596.246 31.792C596.502 31.1627 596.87 30.6773 597.35 30.336C597.841 29.984 598.422 29.808 599.094 29.808C599.819 29.808 600.449 29.984 600.982 30.336C601.526 30.6773 601.947 31.1627 602.246 31.792C602.555 32.4107 602.71 33.1467 602.71 34C602.71 34.8427 602.555 35.5787 602.246 36.208C601.947 36.8373 601.526 37.328 600.982 37.68C600.449 38.0213 599.819 38.192 599.094 38.192ZM598.646 36.56C599.073 36.56 599.451 36.4533 599.782 36.24C600.113 36.016 600.374 35.712 600.566 35.328C600.769 34.944 600.87 34.5013 600.87 34C600.87 33.4987 600.774 33.056 600.582 32.672C600.401 32.288 600.145 31.9893 599.814 31.776C599.483 31.5627 599.099 31.456 598.662 31.456C598.257 31.456 597.894 31.5627 597.574 31.776C597.254 31.9893 597.003 32.288 596.822 32.672C596.651 33.056 596.566 33.4987 596.566 34C596.566 34.5013 596.651 34.944 596.822 35.328C597.003 35.712 597.249 36.016 597.558 36.24C597.878 36.4533 598.241 36.56 598.646 36.56ZM604.563 38V30H606.243L606.323 31.072C606.568 30.656 606.883 30.3413 607.267 30.128C607.651 29.9147 608.088 29.808 608.579 29.808C609.219 29.808 609.763 29.952 610.211 30.24C610.659 30.528 610.984 30.9653 611.187 31.552C611.421 30.9867 611.752 30.5547 612.179 30.256C612.605 29.9573 613.107 29.808 613.683 29.808C614.611 29.808 615.325 30.1067 615.827 30.704C616.328 31.2907 616.573 32.1973 616.563 33.424V38H614.787V33.904C614.787 33.264 614.717 32.7733 614.579 32.432C614.44 32.08 614.253 31.8347 614.019 31.696C613.784 31.5573 613.512 31.488 613.203 31.488C612.648 31.4773 612.216 31.6747 611.907 32.08C611.608 32.4853 611.459 33.0667 611.459 33.824V38H609.667V33.904C609.667 33.264 609.597 32.7733 609.459 32.432C609.331 32.08 609.149 31.8347 608.915 31.696C608.68 31.5573 608.408 31.488 608.099 31.488C607.544 31.4773 607.112 31.6747 606.803 32.08C606.504 32.4853 606.355 33.0667 606.355 33.824V38H604.563ZM618.823 38V30H620.599V38H618.823ZM619.719 28.48C619.431 28.48 619.18 28.3787 618.967 28.176C618.764 27.9627 618.663 27.712 618.663 27.424C618.663 27.136 618.764 26.8907 618.967 26.688C619.18 26.4853 619.431 26.384 619.719 26.384C620.007 26.384 620.252 26.4853 620.455 26.688C620.668 26.8907 620.775 27.136 620.775 27.424C620.775 27.712 620.668 27.9627 620.455 28.176C620.252 28.3787 620.007 28.48 619.719 28.48ZM626.215 38.192C625.372 38.192 624.727 37.984 624.279 37.568C623.841 37.1413 623.623 36.5333 623.623 35.744V27.504H625.399V35.408C625.399 35.7813 625.484 36.064 625.655 36.256C625.836 36.448 626.097 36.544 626.439 36.544C626.545 36.544 626.663 36.5227 626.791 36.48C626.919 36.4373 627.063 36.3573 627.223 36.24L627.879 37.6C627.601 37.792 627.324 37.936 627.047 38.032C626.769 38.1387 626.492 38.192 626.215 38.192ZM622.295 31.536V30H627.559V31.536H622.295Z" fill="white"/>
<path d="M421.828 38V26.8H423.684V38H421.828ZM426.328 38V30H428.008L428.12 31.472V38H426.328ZM431.752 38V33.904H433.544V38H431.752ZM431.752 33.904C431.752 33.264 431.677 32.7733 431.528 32.432C431.389 32.08 431.186 31.8347 430.92 31.696C430.664 31.5573 430.36 31.488 430.008 31.488C429.41 31.4773 428.946 31.6747 428.616 32.08C428.285 32.4853 428.12 33.0667 428.12 33.824H427.448C427.448 32.9813 427.57 32.2613 427.816 31.664C428.061 31.056 428.413 30.5973 428.872 30.288C429.33 29.968 429.874 29.808 430.504 29.808C431.144 29.808 431.688 29.936 432.136 30.192C432.594 30.448 432.941 30.848 433.176 31.392C433.421 31.9253 433.544 32.624 433.544 33.488V33.904H431.752ZM441.375 41.2V31.488L441.471 30H443.167V41.2H441.375ZM438.847 38.192C438.122 38.192 437.487 38.0213 436.943 37.68C436.41 37.328 435.988 36.8373 435.679 36.208C435.38 35.5787 435.231 34.8427 435.231 34C435.231 33.1467 435.38 32.4107 435.679 31.792C435.988 31.1627 436.41 30.6773 436.943 30.336C437.487 29.984 438.122 29.808 438.847 29.808C439.519 29.808 440.095 29.984 440.575 30.336C441.066 30.6773 441.439 31.1627 441.695 31.792C441.951 32.4107 442.079 33.1467 442.079 34C442.079 34.8427 441.951 35.5787 441.695 36.208C441.439 36.8373 441.066 37.328 440.575 37.68C440.095 38.0213 439.519 38.192 438.847 38.192ZM439.295 36.56C439.7 36.56 440.058 36.4533 440.367 36.24C440.687 36.016 440.932 35.712 441.103 35.328C441.284 34.944 441.375 34.5013 441.375 34C441.375 33.4987 441.284 33.056 441.103 32.672C440.932 32.288 440.687 31.9893 440.367 31.776C440.058 31.5627 439.695 31.456 439.279 31.456C438.852 31.456 438.474 31.5627 438.143 31.776C437.812 31.9893 437.551 32.288 437.359 32.672C437.178 33.056 437.082 33.4987 437.071 34C437.082 34.5013 437.178 34.944 437.359 35.328C437.551 35.712 437.812 36.016 438.143 36.24C438.484 36.4533 438.868 36.56 439.295 36.56ZM450.734 38L450.638 36.528V30H452.414V38H450.734ZM445.198 34.096V30H446.99V34.096H445.198ZM446.99 34.096C446.99 34.7253 447.065 35.216 447.214 35.568C447.363 35.92 447.566 36.1653 447.822 36.304C448.089 36.4427 448.393 36.512 448.734 36.512C449.342 36.5227 449.811 36.3253 450.142 35.92C450.473 35.5147 450.638 34.9333 450.638 34.176H451.31C451.31 35.0187 451.182 35.744 450.926 36.352C450.681 36.9493 450.329 37.408 449.87 37.728C449.422 38.0373 448.878 38.192 448.238 38.192C447.609 38.192 447.065 38.064 446.606 37.808C446.158 37.552 445.811 37.152 445.566 36.608C445.321 36.064 445.198 35.3653 445.198 34.512V34.096H446.99ZM454.837 38V30H456.613V38H454.837ZM455.733 28.48C455.445 28.48 455.194 28.3787 454.981 28.176C454.778 27.9627 454.677 27.712 454.677 27.424C454.677 27.136 454.778 26.8907 454.981 26.688C455.194 26.4853 455.445 26.384 455.733 26.384C456.021 26.384 456.266 26.4853 456.469 26.688C456.682 26.8907 456.789 27.136 456.789 27.424C456.789 27.712 456.682 27.9627 456.469 28.176C456.266 28.3787 456.021 28.48 455.733 28.48ZM460.229 33.744C460.229 32.88 460.394 32.1707 460.725 31.616C461.056 31.0613 461.482 30.6507 462.005 30.384C462.538 30.1067 463.093 29.968 463.669 29.968V31.68C463.178 31.68 462.714 31.7493 462.277 31.888C461.85 32.016 461.504 32.2293 461.237 32.528C460.97 32.8267 460.837 33.2213 460.837 33.712L460.229 33.744ZM459.045 38V30H460.837V38H459.045ZM466.442 41.392C466.186 41.392 465.898 41.344 465.578 41.248C465.268 41.152 464.97 41.0293 464.682 40.88L465.354 39.424C465.556 39.52 465.743 39.5947 465.914 39.648C466.084 39.712 466.223 39.744 466.33 39.744C466.586 39.744 466.799 39.6747 466.97 39.536C467.151 39.408 467.295 39.216 467.402 38.96L468.346 36.752L471.05 30H473.002L469.29 38.848C469.066 39.36 468.836 39.808 468.602 40.192C468.378 40.576 468.095 40.8693 467.754 41.072C467.412 41.2853 466.975 41.392 466.442 41.392ZM467.866 38L464.282 30H466.234L469.018 36.736L469.594 38H467.866ZM482.312 38.192C481.49 38.192 480.765 38.016 480.136 37.664C479.506 37.3013 479.01 36.8053 478.648 36.176C478.296 35.5467 478.12 34.8213 478.12 34C478.12 33.1787 478.296 32.4533 478.648 31.824C479.01 31.1947 479.501 30.704 480.12 30.352C480.749 29.9893 481.469 29.808 482.28 29.808C483.069 29.808 483.784 30 484.424 30.384C485.064 30.7573 485.538 31.296 485.848 32L484.184 32.64C484.013 32.288 483.752 32.0053 483.4 31.792C483.048 31.5787 482.648 31.472 482.2 31.472C481.762 31.472 481.373 31.584 481.032 31.808C480.69 32.0213 480.424 32.32 480.232 32.704C480.04 33.0773 479.944 33.5093 479.944 34C479.944 34.4907 480.04 34.928 480.232 35.312C480.434 35.6853 480.706 35.984 481.048 36.208C481.4 36.4213 481.794 36.528 482.232 36.528C482.68 36.528 483.08 36.416 483.432 36.192C483.784 35.9573 484.045 35.6427 484.216 35.248L485.88 35.888C485.57 36.6133 485.096 37.1787 484.456 37.584C483.826 37.9893 483.112 38.192 482.312 38.192ZM488.775 33.744C488.775 32.88 488.94 32.1707 489.271 31.616C489.601 31.0613 490.028 30.6507 490.551 30.384C491.084 30.1067 491.639 29.968 492.215 29.968V31.68C491.724 31.68 491.26 31.7493 490.823 31.888C490.396 32.016 490.049 32.2293 489.783 32.528C489.516 32.8267 489.383 33.2213 489.383 33.712L488.775 33.744ZM487.591 38V30H489.383V38H487.591ZM497.291 38.192C496.513 38.192 495.819 38.016 495.211 37.664C494.614 37.3013 494.139 36.8053 493.787 36.176C493.446 35.5467 493.275 34.8213 493.275 34C493.275 33.1787 493.451 32.4533 493.803 31.824C494.155 31.1947 494.635 30.704 495.243 30.352C495.862 29.9893 496.566 29.808 497.355 29.808C498.07 29.808 498.715 29.9947 499.291 30.368C499.867 30.7307 500.321 31.2587 500.651 31.952C500.993 32.6453 501.163 33.472 501.163 34.432H494.875L495.115 34.208C495.115 34.6987 495.222 35.1253 495.435 35.488C495.649 35.84 495.931 36.112 496.283 36.304C496.635 36.496 497.025 36.592 497.451 36.592C497.942 36.592 498.347 36.4853 498.667 36.272C498.987 36.048 499.238 35.76 499.419 35.408L501.003 36.08C500.779 36.5067 500.491 36.88 500.139 37.2C499.798 37.52 499.387 37.7653 498.907 37.936C498.438 38.1067 497.899 38.192 497.291 38.192ZM495.227 33.28L494.971 33.056H499.483L499.243 33.28C499.243 32.8427 499.147 32.4853 498.955 32.208C498.763 31.92 498.518 31.7067 498.219 31.568C497.931 31.4187 497.627 31.344 497.307 31.344C496.987 31.344 496.667 31.4187 496.347 31.568C496.027 31.7067 495.761 31.92 495.547 32.208C495.334 32.4853 495.227 32.8427 495.227 33.28ZM507.736 38L507.656 36.496V33.888C507.656 33.344 507.597 32.8907 507.48 32.528C507.373 32.1547 507.192 31.872 506.936 31.68C506.69 31.4773 506.36 31.376 505.944 31.376C505.56 31.376 505.224 31.456 504.936 31.616C504.648 31.776 504.402 32.0267 504.2 32.368L502.632 31.792C502.802 31.44 503.026 31.1147 503.304 30.816C503.592 30.5067 503.949 30.2613 504.376 30.08C504.813 29.8987 505.336 29.808 505.944 29.808C506.722 29.808 507.373 29.9627 507.896 30.272C508.418 30.5707 508.802 31.0027 509.048 31.568C509.304 32.1333 509.432 32.816 509.432 33.616L509.384 38H507.736ZM505.432 38.192C504.472 38.192 503.725 37.9787 503.192 37.552C502.669 37.1253 502.408 36.5227 502.408 35.744C502.408 34.912 502.685 34.2773 503.24 33.84C503.805 33.4027 504.589 33.184 505.592 33.184H507.736V34.56H506.168C505.453 34.56 504.952 34.6613 504.664 34.864C504.376 35.056 504.232 35.3333 504.232 35.696C504.232 36.0053 504.354 36.2507 504.6 36.432C504.856 36.6027 505.208 36.688 505.656 36.688C506.061 36.688 506.413 36.5973 506.712 36.416C507.01 36.2347 507.24 35.9947 507.4 35.696C507.57 35.3973 507.656 35.0613 507.656 34.688H508.184C508.184 35.776 507.965 36.6347 507.528 37.264C507.09 37.8827 506.392 38.192 505.432 38.192ZM514.75 38.192C513.908 38.192 513.262 37.984 512.814 37.568C512.377 37.1413 512.158 36.5333 512.158 35.744V27.504H513.934V35.408C513.934 35.7813 514.02 36.064 514.19 36.256C514.372 36.448 514.633 36.544 514.974 36.544C515.081 36.544 515.198 36.5227 515.326 36.48C515.454 36.4373 515.598 36.3573 515.758 36.24L516.414 37.6C516.137 37.792 515.86 37.936 515.582 38.032C515.305 38.1387 515.028 38.192 514.75 38.192ZM510.83 31.536V30H516.094V31.536H510.83ZM518.28 38V30H520.056V38H518.28ZM519.176 28.48C518.888 28.48 518.637 28.3787 518.424 28.176C518.221 27.9627 518.12 27.712 518.12 27.424C518.12 27.136 518.221 26.8907 518.424 26.688C518.637 26.4853 518.888 26.384 519.176 26.384C519.464 26.384 519.709 26.4853 519.912 26.688C520.125 26.8907 520.232 27.136 520.232 27.424C520.232 27.712 520.125 27.9627 519.912 28.176C519.709 28.3787 519.464 28.48 519.176 28.48ZM526.168 38.192C525.368 38.192 524.653 38.016 524.024 37.664C523.405 37.3013 522.92 36.8053 522.568 36.176C522.216 35.5467 522.04 34.8213 522.04 34C522.04 33.1787 522.21 32.4533 522.552 31.824C522.904 31.1947 523.389 30.704 524.008 30.352C524.626 29.9893 525.336 29.808 526.136 29.808C526.936 29.808 527.645 29.9893 528.264 30.352C528.882 30.704 529.362 31.1947 529.704 31.824C530.056 32.4533 530.232 33.1787 530.232 34C530.232 34.8213 530.061 35.5467 529.72 36.176C529.378 36.8053 528.898 37.3013 528.28 37.664C527.661 38.016 526.957 38.192 526.168 38.192ZM526.168 36.544C526.605 36.544 526.994 36.4373 527.336 36.224C527.677 36 527.944 35.7013 528.136 35.328C528.328 34.944 528.424 34.5013 528.424 34C528.424 33.4987 528.322 33.0613 528.12 32.688C527.928 32.304 527.661 32.0053 527.32 31.792C526.978 31.568 526.584 31.456 526.136 31.456C525.688 31.456 525.293 31.5627 524.952 31.776C524.61 31.9893 524.344 32.288 524.152 32.672C523.96 33.056 523.864 33.4987 523.864 34C523.864 34.5013 523.96 34.944 524.152 35.328C524.354 35.7013 524.626 36 524.968 36.224C525.32 36.4373 525.72 36.544 526.168 36.544ZM532.105 38V30H533.785L533.897 31.472V38H532.105ZM537.529 38V33.904H539.321V38H537.529ZM537.529 33.904C537.529 33.264 537.454 32.7733 537.305 32.432C537.166 32.08 536.963 31.8347 536.697 31.696C536.441 31.5573 536.137 31.488 535.785 31.488C535.187 31.4773 534.723 31.6747 534.393 32.08C534.062 32.4853 533.897 33.0667 533.897 33.824H533.225C533.225 32.9813 533.347 32.2613 533.593 31.664C533.838 31.056 534.19 30.5973 534.649 30.288C535.107 29.968 535.651 29.808 536.281 29.808C536.921 29.808 537.465 29.936 537.913 30.192C538.371 30.448 538.718 30.848 538.953 31.392C539.198 31.9253 539.321 32.624 539.321 33.488V33.904H537.529ZM550.515 38L550.435 36.496V33.888C550.435 33.344 550.376 32.8907 550.259 32.528C550.152 32.1547 549.971 31.872 549.715 31.68C549.47 31.4773 549.139 31.376 548.723 31.376C548.339 31.376 548.003 31.456 547.715 31.616C547.427 31.776 547.182 32.0267 546.979 32.368L545.411 31.792C545.582 31.44 545.806 31.1147 546.083 30.816C546.371 30.5067 546.728 30.2613 547.155 30.08C547.592 29.8987 548.115 29.808 548.723 29.808C549.502 29.808 550.152 29.9627 550.675 30.272C551.198 30.5707 551.582 31.0027 551.827 31.568C552.083 32.1333 552.211 32.816 552.211 33.616L552.163 38H550.515ZM548.211 38.192C547.251 38.192 546.504 37.9787 545.971 37.552C545.448 37.1253 545.187 36.5227 545.187 35.744C545.187 34.912 545.464 34.2773 546.019 33.84C546.584 33.4027 547.368 33.184 548.371 33.184H550.515V34.56H548.947C548.232 34.56 547.731 34.6613 547.443 34.864C547.155 35.056 547.011 35.3333 547.011 35.696C547.011 36.0053 547.134 36.2507 547.379 36.432C547.635 36.6027 547.987 36.688 548.435 36.688C548.84 36.688 549.192 36.5973 549.491 36.416C549.79 36.2347 550.019 35.9947 550.179 35.696C550.35 35.3973 550.435 35.0613 550.435 34.688H550.963C550.963 35.776 550.744 36.6347 550.307 37.264C549.87 37.8827 549.171 38.192 548.211 38.192ZM554.346 38V30H556.026L556.138 31.472V38H554.346ZM559.77 38V33.904H561.562V38H559.77ZM559.77 33.904C559.77 33.264 559.695 32.7733 559.546 32.432C559.407 32.08 559.204 31.8347 558.938 31.696C558.682 31.5573 558.378 31.488 558.026 31.488C557.428 31.4773 556.964 31.6747 556.634 32.08C556.303 32.4853 556.138 33.0667 556.138 33.824H555.466C555.466 32.9813 555.588 32.2613 555.834 31.664C556.079 31.056 556.431 30.5973 556.89 30.288C557.348 29.968 557.892 29.808 558.522 29.808C559.162 29.808 559.706 29.936 560.154 30.192C560.612 30.448 560.959 30.848 561.194 31.392C561.439 31.9253 561.562 32.624 561.562 33.488V33.904H559.77ZM569.473 38L569.393 36.512V26.8H571.169V38H569.473ZM566.865 38.192C566.14 38.192 565.505 38.0213 564.961 37.68C564.428 37.328 564.006 36.8373 563.697 36.208C563.398 35.5787 563.249 34.8427 563.249 34C563.249 33.1467 563.398 32.4107 563.697 31.792C564.006 31.1627 564.428 30.6773 564.961 30.336C565.505 29.984 566.14 29.808 566.865 29.808C567.537 29.808 568.113 29.984 568.593 30.336C569.084 30.6773 569.457 31.1627 569.713 31.792C569.969 32.4107 570.097 33.1467 570.097 34C570.097 34.8427 569.969 35.5787 569.713 36.208C569.457 36.8373 569.084 37.328 568.593 37.68C568.113 38.0213 567.537 38.192 566.865 38.192ZM567.313 36.56C567.718 36.56 568.076 36.4533 568.385 36.24C568.705 36.016 568.95 35.712 569.121 35.328C569.302 34.944 569.393 34.5013 569.393 34C569.393 33.4987 569.302 33.056 569.121 32.672C568.95 32.288 568.705 31.9893 568.385 31.776C568.076 31.5627 567.713 31.456 567.297 31.456C566.87 31.456 566.492 31.5627 566.161 31.776C565.83 31.9893 565.569 32.288 565.377 32.672C565.196 33.056 565.1 33.4987 565.089 34C565.1 34.5013 565.196 34.944 565.377 35.328C565.569 35.712 565.83 36.016 566.161 36.24C566.502 36.4533 566.886 36.56 567.313 36.56ZM580.562 38.192C580.028 38.192 579.538 38.112 579.09 37.952C578.642 37.792 578.258 37.568 577.938 37.28C577.618 36.9813 577.372 36.6347 577.202 36.24L578.754 35.552C578.914 35.8507 579.148 36.1013 579.458 36.304C579.778 36.5067 580.13 36.608 580.514 36.608C580.93 36.608 581.26 36.5387 581.506 36.4C581.762 36.2507 581.89 36.048 581.89 35.792C581.89 35.5467 581.794 35.36 581.602 35.232C581.41 35.0933 581.138 34.9813 580.786 34.896L580.034 34.688C579.276 34.496 578.684 34.192 578.258 33.776C577.831 33.3493 577.618 32.864 577.618 32.32C577.618 31.52 577.874 30.9013 578.386 30.464C578.908 30.0267 579.655 29.808 580.626 29.808C581.116 29.808 581.564 29.8827 581.97 30.032C582.386 30.1707 582.743 30.3733 583.042 30.64C583.34 30.896 583.548 31.2 583.666 31.552L582.178 32.224C582.071 31.9573 581.868 31.7547 581.57 31.616C581.271 31.4667 580.94 31.392 580.578 31.392C580.215 31.392 579.932 31.472 579.73 31.632C579.527 31.7813 579.426 31.9947 579.426 32.272C579.426 32.432 579.516 32.5813 579.698 32.72C579.879 32.848 580.14 32.9547 580.482 33.04L581.426 33.264C581.948 33.392 582.375 33.5947 582.706 33.872C583.036 34.1387 583.282 34.4427 583.442 34.784C583.602 35.1147 583.682 35.4507 583.682 35.792C583.682 36.272 583.543 36.6933 583.266 37.056C582.999 37.4187 582.631 37.7013 582.162 37.904C581.692 38.096 581.159 38.192 580.562 38.192ZM590.783 38L590.687 36.528V30H592.463V38H590.783ZM585.247 34.096V30H587.039V34.096H585.247ZM587.039 34.096C587.039 34.7253 587.113 35.216 587.263 35.568C587.412 35.92 587.615 36.1653 587.871 36.304C588.137 36.4427 588.441 36.512 588.783 36.512C589.391 36.5227 589.86 36.3253 590.191 35.92C590.521 35.5147 590.687 34.9333 590.687 34.176H591.359C591.359 35.0187 591.231 35.744 590.975 36.352C590.729 36.9493 590.377 37.408 589.919 37.728C589.471 38.0373 588.927 38.192 588.287 38.192C587.657 38.192 587.113 38.064 586.655 37.808C586.207 37.552 585.86 37.152 585.615 36.608C585.369 36.064 585.247 35.3653 585.247 34.512V34.096H587.039ZM594.774 38V26.8H596.566V36.512L596.47 38H594.774ZM599.094 38.192C598.422 38.192 597.841 38.0213 597.35 37.68C596.87 37.328 596.502 36.8373 596.246 36.208C595.99 35.5787 595.862 34.8427 595.862 34C595.862 33.1467 595.99 32.4107 596.246 31.792C596.502 31.1627 596.87 30.6773 597.35 30.336C597.841 29.984 598.422 29.808 599.094 29.808C599.819 29.808 600.449 29.984 600.982 30.336C601.526 30.6773 601.947 31.1627 602.246 31.792C602.555 32.4107 602.71 33.1467 602.71 34C602.71 34.8427 602.555 35.5787 602.246 36.208C601.947 36.8373 601.526 37.328 600.982 37.68C600.449 38.0213 599.819 38.192 599.094 38.192ZM598.646 36.56C599.073 36.56 599.451 36.4533 599.782 36.24C600.113 36.016 600.374 35.712 600.566 35.328C600.769 34.944 600.87 34.5013 600.87 34C600.87 33.4987 600.774 33.056 600.582 32.672C600.401 32.288 600.145 31.9893 599.814 31.776C599.483 31.5627 599.099 31.456 598.662 31.456C598.257 31.456 597.894 31.5627 597.574 31.776C597.254 31.9893 597.003 32.288 596.822 32.672C596.651 33.056 596.566 33.4987 596.566 34C596.566 34.5013 596.651 34.944 596.822 35.328C597.003 35.712 597.249 36.016 597.558 36.24C597.878 36.4533 598.241 36.56 598.646 36.56ZM604.563 38V30H606.243L606.323 31.072C606.568 30.656 606.883 30.3413 607.267 30.128C607.651 29.9147 608.088 29.808 608.579 29.808C609.219 29.808 609.763 29.952 610.211 30.24C610.659 30.528 610.984 30.9653 611.187 31.552C611.421 30.9867 611.752 30.5547 612.179 30.256C612.605 29.9573 613.107 29.808 613.683 29.808C614.611 29.808 615.325 30.1067 615.827 30.704C616.328 31.2907 616.573 32.1973 616.563 33.424V38H614.787V33.904C614.787 33.264 614.717 32.7733 614.579 32.432C614.44 32.08 614.253 31.8347 614.019 31.696C613.784 31.5573 613.512 31.488 613.203 31.488C612.648 31.4773 612.216 31.6747 611.907 32.08C611.608 32.4853 611.459 33.0667 611.459 33.824V38H609.667V33.904C609.667 33.264 609.597 32.7733 609.459 32.432C609.331 32.08 609.149 31.8347 608.915 31.696C608.68 31.5573 608.408 31.488 608.099 31.488C607.544 31.4773 607.112 31.6747 606.803 32.08C606.504 32.4853 606.355 33.0667 606.355 33.824V38H604.563ZM618.823 38V30H620.599V38H618.823ZM619.719 28.48C619.431 28.48 619.18 28.3787 618.967 28.176C618.764 27.9627 618.663 27.712 618.663 27.424C618.663 27.136 618.764 26.8907 618.967 26.688C619.18 26.4853 619.431 26.384 619.719 26.384C620.007 26.384 620.252 26.4853 620.455 26.688C620.668 26.8907 620.775 27.136 620.775 27.424C620.775 27.712 620.668 27.9627 620.455 28.176C620.252 28.3787 620.007 28.48 619.719 28.48ZM626.215 38.192C625.372 38.192 624.727 37.984 624.279 37.568C623.841 37.1413 623.623 36.5333 623.623 35.744V27.504H625.399V35.408C625.399 35.7813 625.484 36.064 625.655 36.256C625.836 36.448 626.097 36.544 626.439 36.544C626.545 36.544 626.663 36.5227 626.791 36.48C626.919 36.4373 627.063 36.3573 627.223 36.24L627.879 37.6C627.601 37.792 627.324 37.936 627.047 38.032C626.769 38.1387 626.492 38.192 626.215 38.192ZM622.295 31.536V30H627.559V31.536H622.295Z" fill="#3D3D4F"/>
<g opacity="0.32">
<line x1="647.5" y1="31.5" x2="774" y2="31.5" stroke="white"/>
<line x1="647.5" y1="31.5" x2="774" y2="31.5" stroke="#8A8A8A"/>
</g>
<circle cx="807.667" cy="31" r="14" fill="#D5D5D5"/>
<circle cx="807.667" cy="31" r="17" stroke="white" stroke-opacity="0.2" stroke-width="6"/>
<path d="M807.259 36.514C806.689 36.514 806.169 36.429 805.699 36.259C805.229 36.089 804.834 35.849 804.514 35.539C804.194 35.229 803.964 34.879 803.824 34.489L805.384 33.904C805.464 34.044 805.574 34.199 805.714 34.369C805.854 34.539 806.039 34.689 806.269 34.819C806.499 34.939 806.794 34.999 807.154 34.999C807.724 34.999 808.174 34.839 808.504 34.519C808.844 34.189 809.014 33.774 809.014 33.274C809.014 32.914 808.919 32.604 808.729 32.344C808.549 32.084 808.264 31.884 807.874 31.744C807.494 31.604 807.014 31.534 806.434 31.534H805.954V30.304H806.389C806.999 30.304 807.564 30.374 808.084 30.514C808.614 30.654 809.079 30.864 809.479 31.144C809.889 31.414 810.204 31.744 810.424 32.134C810.654 32.524 810.769 32.964 810.769 33.454C810.769 34.084 810.604 34.629 810.274 35.089C809.954 35.549 809.529 35.904 808.999 36.154C808.469 36.394 807.889 36.514 807.259 36.514ZM805.954 31.264V30.094H806.434C807.204 30.094 807.789 29.964 808.189 29.704C808.589 29.444 808.789 29.079 808.789 28.609C808.789 28.339 808.719 28.099 808.579 27.889C808.449 27.669 808.259 27.494 808.009 27.364C807.759 27.234 807.464 27.169 807.124 27.169C806.904 27.169 806.689 27.204 806.479 27.274C806.269 27.344 806.074 27.454 805.894 27.604C805.714 27.754 805.564 27.949 805.444 28.189L803.929 27.634C804.079 27.214 804.319 26.859 804.649 26.569C804.979 26.269 805.364 26.044 805.804 25.894C806.244 25.734 806.704 25.654 807.184 25.654C807.824 25.654 808.394 25.774 808.894 26.014C809.404 26.254 809.804 26.589 810.094 27.019C810.394 27.439 810.544 27.924 810.544 28.474C810.544 28.934 810.429 29.339 810.199 29.689C809.979 30.039 809.674 30.334 809.284 30.574C808.894 30.804 808.449 30.979 807.949 31.099C807.459 31.209 806.934 31.264 806.374 31.264H805.954Z" fill="white"/>
<path d="M807.259 36.514C806.689 36.514 806.169 36.429 805.699 36.259C805.229 36.089 804.834 35.849 804.514 35.539C804.194 35.229 803.964 34.879 803.824 34.489L805.384 33.904C805.464 34.044 805.574 34.199 805.714 34.369C805.854 34.539 806.039 34.689 806.269 34.819C806.499 34.939 806.794 34.999 807.154 34.999C807.724 34.999 808.174 34.839 808.504 34.519C808.844 34.189 809.014 33.774 809.014 33.274C809.014 32.914 808.919 32.604 808.729 32.344C808.549 32.084 808.264 31.884 807.874 31.744C807.494 31.604 807.014 31.534 806.434 31.534H805.954V30.304H806.389C806.999 30.304 807.564 30.374 808.084 30.514C808.614 30.654 809.079 30.864 809.479 31.144C809.889 31.414 810.204 31.744 810.424 32.134C810.654 32.524 810.769 32.964 810.769 33.454C810.769 34.084 810.604 34.629 810.274 35.089C809.954 35.549 809.529 35.904 808.999 36.154C808.469 36.394 807.889 36.514 807.259 36.514ZM805.954 31.264V30.094H806.434C807.204 30.094 807.789 29.964 808.189 29.704C808.589 29.444 808.789 29.079 808.789 28.609C808.789 28.339 808.719 28.099 808.579 27.889C808.449 27.669 808.259 27.494 808.009 27.364C807.759 27.234 807.464 27.169 807.124 27.169C806.904 27.169 806.689 27.204 806.479 27.274C806.269 27.344 806.074 27.454 805.894 27.604C805.714 27.754 805.564 27.949 805.444 28.189L803.929 27.634C804.079 27.214 804.319 26.859 804.649 26.569C804.979 26.269 805.364 26.044 805.804 25.894C806.244 25.734 806.704 25.654 807.184 25.654C807.824 25.654 808.394 25.774 808.894 26.014C809.404 26.254 809.804 26.589 810.094 27.019C810.394 27.439 810.544 27.924 810.544 28.474C810.544 28.934 810.429 29.339 810.199 29.689C809.979 30.039 809.674 30.334 809.284 30.574C808.894 30.804 808.449 30.979 807.949 31.099C807.459 31.209 806.934 31.264 806.374 31.264H805.954Z" fill="url(#paint2_linear_2393_2458)"/>
<path d="M843.488 38V26.8H847.136C847.861 26.8 848.501 26.944 849.056 27.232C849.621 27.52 850.059 27.92 850.368 28.432C850.688 28.944 850.848 29.5307 850.848 30.192C850.848 30.8533 850.677 31.44 850.336 31.952C849.995 32.464 849.531 32.8693 848.944 33.168C848.357 33.456 847.696 33.6 846.96 33.6H844.848V38H843.488ZM849.808 38L847.12 33.408L848.192 32.704L851.296 38H849.808ZM844.848 32.352H847.328C847.733 32.352 848.096 32.2613 848.416 32.08C848.736 31.888 848.992 31.632 849.184 31.312C849.387 30.9813 849.488 30.608 849.488 30.192C849.488 29.552 849.264 29.0347 848.816 28.64C848.379 28.2347 847.808 28.032 847.104 28.032H844.848V32.352ZM856.96 38.192C856.181 38.192 855.493 38.016 854.896 37.664C854.298 37.3013 853.829 36.8053 853.488 36.176C853.157 35.5467 852.992 34.8213 852.992 34C852.992 33.1787 853.157 32.4533 853.488 31.824C853.829 31.1947 854.293 30.704 854.88 30.352C855.477 29.9893 856.16 29.808 856.928 29.808C857.674 29.808 858.32 29.9947 858.864 30.368C859.408 30.7307 859.829 31.2427 860.128 31.904C860.426 32.5653 860.576 33.344 860.576 34.24H853.968L854.288 33.968C854.288 34.608 854.4 35.1573 854.624 35.616C854.858 36.0747 855.184 36.4267 855.6 36.672C856.016 36.9067 856.49 37.024 857.024 37.024C857.589 37.024 858.064 36.8907 858.448 36.624C858.842 36.3573 859.146 36.0053 859.36 35.568L860.464 36.128C860.261 36.544 859.989 36.9067 859.648 37.216C859.317 37.5253 858.922 37.7653 858.464 37.936C858.016 38.1067 857.514 38.192 856.96 38.192ZM854.368 33.424L854.032 33.168H859.552L859.216 33.44C859.216 32.928 859.114 32.4853 858.912 32.112C858.709 31.7387 858.437 31.4507 858.096 31.248C857.754 31.0453 857.36 30.944 856.912 30.944C856.474 30.944 856.058 31.0453 855.664 31.248C855.28 31.4507 854.965 31.7387 854.72 32.112C854.485 32.4747 854.368 32.912 854.368 33.424ZM865.31 38.192C864.723 38.192 864.211 38.1067 863.774 37.936C863.337 37.7547 862.969 37.52 862.67 37.232C862.382 36.944 862.174 36.6293 862.046 36.288L863.166 35.824C863.347 36.1867 863.619 36.48 863.982 36.704C864.345 36.928 864.745 37.04 865.182 37.04C865.683 37.04 866.105 36.944 866.446 36.752C866.787 36.5493 866.958 36.2667 866.958 35.904C866.958 35.5733 866.83 35.3067 866.574 35.104C866.329 34.9013 865.961 34.736 865.47 34.608L864.702 34.4C863.977 34.208 863.411 33.92 863.006 33.536C862.601 33.1413 862.398 32.6987 862.398 32.208C862.398 31.4507 862.643 30.864 863.134 30.448C863.635 30.0213 864.377 29.808 865.358 29.808C865.827 29.808 866.254 29.8773 866.638 30.016C867.022 30.1547 867.353 30.352 867.63 30.608C867.907 30.8533 868.11 31.1467 868.238 31.488L867.118 31.984C866.979 31.6213 866.75 31.36 866.43 31.2C866.11 31.04 865.721 30.96 865.262 30.96C864.771 30.96 864.387 31.0667 864.11 31.28C863.833 31.4827 863.694 31.7707 863.694 32.144C863.694 32.3573 863.806 32.56 864.03 32.752C864.265 32.9333 864.606 33.0827 865.054 33.2L865.854 33.408C866.377 33.536 866.814 33.728 867.166 33.984C867.518 34.2293 867.785 34.512 867.966 34.832C868.147 35.152 868.238 35.4933 868.238 35.856C868.238 36.336 868.11 36.752 867.854 37.104C867.598 37.456 867.251 37.728 866.814 37.92C866.377 38.1013 865.875 38.192 865.31 38.192ZM870.363 41.2V30H871.563L871.643 31.472V41.2H870.363ZM874.347 38.192C873.675 38.192 873.083 38.016 872.571 37.664C872.07 37.312 871.68 36.8213 871.403 36.192C871.126 35.552 870.987 34.8213 870.987 34C870.987 33.168 871.126 32.4373 871.403 31.808C871.68 31.1787 872.07 30.688 872.571 30.336C873.083 29.984 873.675 29.808 874.347 29.808C875.062 29.808 875.691 29.984 876.235 30.336C876.779 30.688 877.2 31.1787 877.499 31.808C877.808 32.4373 877.963 33.168 877.963 34C877.963 34.8213 877.808 35.552 877.499 36.192C877.2 36.8213 876.779 37.312 876.235 37.664C875.691 38.016 875.062 38.192 874.347 38.192ZM874.059 37.024C874.56 37.024 875.003 36.896 875.387 36.64C875.782 36.384 876.091 36.0267 876.315 35.568C876.55 35.1093 876.667 34.5867 876.667 34C876.667 33.4133 876.555 32.8907 876.331 32.432C876.118 31.9733 875.814 31.616 875.419 31.36C875.024 31.104 874.576 30.976 874.075 30.976C873.606 30.976 873.184 31.104 872.811 31.36C872.448 31.616 872.16 31.9733 871.947 32.432C871.744 32.8907 871.643 33.4133 871.643 34C871.643 34.5867 871.744 35.1093 871.947 35.568C872.16 36.0267 872.448 36.384 872.811 36.64C873.174 36.896 873.59 37.024 874.059 37.024ZM883.592 38.192C882.814 38.192 882.12 38.016 881.512 37.664C880.915 37.3013 880.446 36.8053 880.104 36.176C879.763 35.5467 879.592 34.8213 879.592 34C879.592 33.1787 879.758 32.4533 880.088 31.824C880.43 31.1947 880.899 30.704 881.496 30.352C882.104 29.9893 882.792 29.808 883.56 29.808C884.35 29.808 885.043 29.9893 885.64 30.352C886.248 30.704 886.718 31.1947 887.048 31.824C887.39 32.4533 887.56 33.1787 887.56 34C887.56 34.8213 887.39 35.5467 887.048 36.176C886.718 36.8053 886.254 37.3013 885.656 37.664C885.059 38.016 884.371 38.192 883.592 38.192ZM883.592 37.008C884.126 37.008 884.59 36.88 884.984 36.624C885.379 36.368 885.688 36.016 885.912 35.568C886.147 35.12 886.264 34.5973 886.264 34C886.264 33.4027 886.147 32.88 885.912 32.432C885.688 31.984 885.374 31.632 884.968 31.376C884.563 31.12 884.094 30.992 883.56 30.992C883.038 30.992 882.574 31.12 882.168 31.376C881.774 31.632 881.459 31.984 881.224 32.432C881 32.88 880.888 33.4027 880.888 34C880.888 34.5867 881 35.1093 881.224 35.568C881.459 36.016 881.779 36.368 882.184 36.624C882.6 36.88 883.07 37.008 883.592 37.008ZM889.657 38V30H890.857L890.937 31.472V38H889.657ZM895.273 38V33.904H896.553V38H895.273ZM895.273 33.904C895.273 33.1147 895.183 32.512 895.001 32.096C894.82 31.68 894.569 31.3973 894.249 31.248C893.929 31.088 893.567 31.008 893.161 31.008C892.457 31.008 891.908 31.2587 891.513 31.76C891.129 32.2507 890.937 32.9493 890.937 33.856H890.313C890.313 33.0133 890.436 32.288 890.681 31.68C890.927 31.072 891.284 30.608 891.753 30.288C892.223 29.968 892.788 29.808 893.449 29.808C894.079 29.808 894.623 29.936 895.081 30.192C895.551 30.4373 895.913 30.832 896.169 31.376C896.436 31.92 896.564 32.6347 896.553 33.52V33.904H895.273ZM901.699 38.192C901.113 38.192 900.601 38.1067 900.163 37.936C899.726 37.7547 899.358 37.52 899.059 37.232C898.771 36.944 898.563 36.6293 898.435 36.288L899.555 35.824C899.737 36.1867 900.009 36.48 900.371 36.704C900.734 36.928 901.134 37.04 901.571 37.04C902.073 37.04 902.494 36.944 902.835 36.752C903.177 36.5493 903.347 36.2667 903.347 35.904C903.347 35.5733 903.219 35.3067 902.963 35.104C902.718 34.9013 902.35 34.736 901.859 34.608L901.091 34.4C900.366 34.208 899.801 33.92 899.395 33.536C898.99 33.1413 898.787 32.6987 898.787 32.208C898.787 31.4507 899.033 30.864 899.523 30.448C900.025 30.0213 900.766 29.808 901.747 29.808C902.217 29.808 902.643 29.8773 903.027 30.016C903.411 30.1547 903.742 30.352 904.019 30.608C904.297 30.8533 904.499 31.1467 904.627 31.488L903.507 31.984C903.369 31.6213 903.139 31.36 902.819 31.2C902.499 31.04 902.11 30.96 901.651 30.96C901.161 30.96 900.777 31.0667 900.499 31.28C900.222 31.4827 900.083 31.7707 900.083 32.144C900.083 32.3573 900.195 32.56 900.419 32.752C900.654 32.9333 900.995 33.0827 901.443 33.2L902.243 33.408C902.766 33.536 903.203 33.728 903.555 33.984C903.907 34.2293 904.174 34.512 904.355 34.832C904.537 35.152 904.627 35.4933 904.627 35.856C904.627 36.336 904.499 36.752 904.243 37.104C903.987 37.456 903.641 37.728 903.203 37.92C902.766 38.1013 902.265 38.192 901.699 38.192ZM910.177 38.192C909.398 38.192 908.71 38.016 908.113 37.664C907.515 37.3013 907.046 36.8053 906.705 36.176C906.374 35.5467 906.209 34.8213 906.209 34C906.209 33.1787 906.374 32.4533 906.705 31.824C907.046 31.1947 907.51 30.704 908.097 30.352C908.694 29.9893 909.377 29.808 910.145 29.808C910.891 29.808 911.537 29.9947 912.081 30.368C912.625 30.7307 913.046 31.2427 913.345 31.904C913.643 32.5653 913.793 33.344 913.793 34.24H907.185L907.505 33.968C907.505 34.608 907.617 35.1573 907.841 35.616C908.075 36.0747 908.401 36.4267 908.817 36.672C909.233 36.9067 909.707 37.024 910.241 37.024C910.806 37.024 911.281 36.8907 911.665 36.624C912.059 36.3573 912.363 36.0053 912.577 35.568L913.681 36.128C913.478 36.544 913.206 36.9067 912.865 37.216C912.534 37.5253 912.139 37.7653 911.681 37.936C911.233 38.1067 910.731 38.192 910.177 38.192ZM907.585 33.424L907.249 33.168H912.769L912.433 33.44C912.433 32.928 912.331 32.4853 912.129 32.112C911.926 31.7387 911.654 31.4507 911.313 31.248C910.971 31.0453 910.577 30.944 910.129 30.944C909.691 30.944 909.275 31.0453 908.881 31.248C908.497 31.4507 908.182 31.7387 907.937 32.112C907.702 32.4747 907.585 32.912 907.585 33.424ZM925.488 38L925.408 36.528V30H926.688V38H925.488ZM919.792 34.096V30H921.072V34.096H919.792ZM921.072 34.096C921.072 34.8853 921.163 35.488 921.344 35.904C921.525 36.32 921.776 36.608 922.096 36.768C922.427 36.9173 922.795 36.992 923.2 36.992C923.893 36.992 924.432 36.7413 924.816 36.24C925.211 35.7387 925.408 35.04 925.408 34.144H926.032C926.032 34.9867 925.909 35.712 925.664 36.32C925.419 36.928 925.061 37.392 924.592 37.712C924.133 38.032 923.568 38.192 922.896 38.192C922.277 38.192 921.733 38.0693 921.264 37.824C920.795 37.568 920.432 37.168 920.176 36.624C919.92 36.0693 919.792 35.3547 919.792 34.48V34.096H921.072ZM929.322 41.2V30H930.522L930.602 31.472V41.2H929.322ZM933.306 38.192C932.634 38.192 932.042 38.016 931.53 37.664C931.029 37.312 930.639 36.8213 930.362 36.192C930.085 35.552 929.946 34.8213 929.946 34C929.946 33.168 930.085 32.4373 930.362 31.808C930.639 31.1787 931.029 30.688 931.53 30.336C932.042 29.984 932.634 29.808 933.306 29.808C934.021 29.808 934.65 29.984 935.194 30.336C935.738 30.688 936.159 31.1787 936.458 31.808C936.767 32.4373 936.922 33.168 936.922 34C936.922 34.8213 936.767 35.552 936.458 36.192C936.159 36.8213 935.738 37.312 935.194 37.664C934.65 38.016 934.021 38.192 933.306 38.192ZM933.018 37.024C933.519 37.024 933.962 36.896 934.346 36.64C934.741 36.384 935.05 36.0267 935.274 35.568C935.509 35.1093 935.626 34.5867 935.626 34C935.626 33.4133 935.514 32.8907 935.29 32.432C935.077 31.9733 934.773 31.616 934.378 31.36C933.983 31.104 933.535 30.976 933.034 30.976C932.565 30.976 932.143 31.104 931.77 31.36C931.407 31.616 931.119 31.9733 930.906 32.432C930.703 32.8907 930.602 33.4133 930.602 34C930.602 34.5867 930.703 35.1093 930.906 35.568C931.119 36.0267 931.407 36.384 931.77 36.64C932.133 36.896 932.549 37.024 933.018 37.024ZM939.015 38V26.8H940.295V38H939.015ZM946.387 38.192C945.608 38.192 944.915 38.016 944.307 37.664C943.709 37.3013 943.24 36.8053 942.899 36.176C942.557 35.5467 942.387 34.8213 942.387 34C942.387 33.1787 942.552 32.4533 942.883 31.824C943.224 31.1947 943.693 30.704 944.291 30.352C944.899 29.9893 945.587 29.808 946.355 29.808C947.144 29.808 947.837 29.9893 948.435 30.352C949.043 30.704 949.512 31.1947 949.843 31.824C950.184 32.4533 950.355 33.1787 950.355 34C950.355 34.8213 950.184 35.5467 949.843 36.176C949.512 36.8053 949.048 37.3013 948.451 37.664C947.853 38.016 947.165 38.192 946.387 38.192ZM946.387 37.008C946.92 37.008 947.384 36.88 947.779 36.624C948.173 36.368 948.483 36.016 948.707 35.568C948.941 35.12 949.059 34.5973 949.059 34C949.059 33.4027 948.941 32.88 948.707 32.432C948.483 31.984 948.168 31.632 947.763 31.376C947.357 31.12 946.888 30.992 946.355 30.992C945.832 30.992 945.368 31.12 944.963 31.376C944.568 31.632 944.253 31.984 944.019 32.432C943.795 32.88 943.683 33.4027 943.683 34C943.683 34.5867 943.795 35.1093 944.019 35.568C944.253 36.016 944.573 36.368 944.979 36.624C945.395 36.88 945.864 37.008 946.387 37.008ZM957.38 38L957.316 36.688V33.776C957.316 33.1467 957.247 32.6293 957.108 32.224C956.969 31.808 956.751 31.4933 956.452 31.28C956.153 31.0667 955.764 30.96 955.284 30.96C954.847 30.96 954.468 31.0507 954.148 31.232C953.839 31.4027 953.583 31.68 953.38 32.064L952.228 31.616C952.431 31.2427 952.676 30.9227 952.964 30.656C953.252 30.3787 953.588 30.1707 953.972 30.032C954.356 29.8827 954.793 29.808 955.284 29.808C956.031 29.808 956.644 29.9573 957.124 30.256C957.615 30.544 957.983 30.976 958.228 31.552C958.473 32.1173 958.591 32.8213 958.58 33.664L958.564 38H957.38ZM954.98 38.192C954.041 38.192 953.305 37.9787 952.772 37.552C952.249 37.1147 951.988 36.512 951.988 35.744C951.988 34.9333 952.255 34.3147 952.788 33.888C953.332 33.4507 954.089 33.232 955.06 33.232H957.348V34.304H955.348C954.601 34.304 954.068 34.4267 953.748 34.672C953.439 34.9173 953.284 35.2693 953.284 35.728C953.284 36.144 953.439 36.4747 953.748 36.72C954.057 36.9547 954.489 37.072 955.044 37.072C955.503 37.072 955.903 36.976 956.244 36.784C956.585 36.5813 956.847 36.2987 957.028 35.936C957.22 35.5627 957.316 35.1253 957.316 34.624H957.86C957.86 35.712 957.615 36.5813 957.124 37.232C956.633 37.872 955.919 38.192 954.98 38.192ZM966.848 38L966.784 36.512V26.8H968.064V38H966.848ZM964.08 38.192C963.365 38.192 962.736 38.016 962.192 37.664C961.648 37.312 961.221 36.8213 960.912 36.192C960.613 35.552 960.464 34.8213 960.464 34C960.464 33.168 960.613 32.4373 960.912 31.808C961.221 31.1787 961.648 30.688 962.192 30.336C962.736 29.984 963.365 29.808 964.08 29.808C964.752 29.808 965.339 29.984 965.84 30.336C966.352 30.688 966.747 31.1787 967.024 31.808C967.301 32.4373 967.44 33.168 967.44 34C967.44 34.8213 967.301 35.552 967.024 36.192C966.747 36.8213 966.352 37.312 965.84 37.664C965.339 38.016 964.752 38.192 964.08 38.192ZM964.368 37.024C964.837 37.024 965.253 36.896 965.616 36.64C965.979 36.384 966.261 36.0267 966.464 35.568C966.677 35.1093 966.784 34.5867 966.784 34C966.784 33.4133 966.677 32.8907 966.464 32.432C966.261 31.9733 965.979 31.616 965.616 31.36C965.253 31.104 964.832 30.976 964.352 30.976C963.851 30.976 963.403 31.104 963.008 31.36C962.624 31.616 962.32 31.9733 962.096 32.432C961.872 32.8907 961.76 33.4133 961.76 34C961.76 34.5867 961.872 35.1093 962.096 35.568C962.32 36.0267 962.629 36.384 963.024 36.64C963.419 36.896 963.867 37.024 964.368 37.024Z" fill="#8A8A8A"/>
<g opacity="0.32">
<line x1="988" y1="31.5" x2="1028" y2="31.5" stroke="white"/>
<line x1="988" y1="31.5" x2="1028" y2="31.5" stroke="white"/>
</g>
<defs>
<linearGradient id="paint0_linear_2393_2458" x1="38.4001" y1="21.334" x2="38.4001" y2="42.6673" gradientUnits="userSpaceOnUse">
<stop stop-color="white"/>
<stop offset="1" stop-color="white" stop-opacity="0"/>
</linearGradient>
<linearGradient id="paint1_linear_2393_2458" x1="388.567" y1="21.334" x2="388.567" y2="42.6673" gradientUnits="userSpaceOnUse">
<stop stop-color="white"/>
<stop offset="1" stop-color="white" stop-opacity="0"/>
</linearGradient>
<linearGradient id="paint2_linear_2393_2458" x1="807.4" y1="20.334" x2="807.4" y2="41.6673" gradientUnits="userSpaceOnUse">
<stop stop-color="white"/>
<stop offset="1" stop-color="white" stop-opacity="0"/>
</linearGradient>
</defs>
</svg>
