<svg width="290" height="251" viewBox="0 0 290 251" fill="none" xmlns="http://www.w3.org/2000/svg">
<rect width="290" height="192" rx="14" fill="white"/>
<path d="M21.66 41V27H26.6C27.56 27 28.4067 27.1867 29.14 27.56C29.8733 27.9333 30.4467 28.4533 30.86 29.12C31.2733 29.7733 31.48 30.5333 31.48 31.4C31.48 32.2667 31.26 33.0333 30.82 33.7C30.3933 34.3667 29.8 34.8933 29.04 35.28C28.28 35.6533 27.42 35.84 26.46 35.84H23.98V41H21.66ZM29.42 41L26.14 35.32L27.94 34.08L32.04 41H29.42ZM23.98 33.7H26.7C27.1533 33.7 27.5533 33.6 27.9 33.4C28.26 33.2 28.5467 32.9267 28.76 32.58C28.9867 32.2333 29.1 31.84 29.1 31.4C29.1 30.7333 28.86 30.1867 28.38 29.76C27.9 29.3333 27.28 29.12 26.52 29.12H23.98V33.7ZM38.5844 41.24C37.611 41.24 36.7444 41.02 35.9844 40.58C35.2377 40.1267 34.6444 39.5067 34.2044 38.72C33.7777 37.9333 33.5644 37.0267 33.5644 36C33.5644 34.9733 33.7844 34.0667 34.2244 33.28C34.6644 32.4933 35.2644 31.88 36.0244 31.44C36.7977 30.9867 37.6777 30.76 38.6644 30.76C39.5577 30.76 40.3644 30.9933 41.0844 31.46C41.8044 31.9133 42.371 32.5733 42.7844 33.44C43.211 34.3067 43.4244 35.34 43.4244 36.54H35.5644L35.8644 36.26C35.8644 36.8733 35.9977 37.4067 36.2644 37.86C36.531 38.3 36.8844 38.64 37.3244 38.88C37.7644 39.12 38.251 39.24 38.7844 39.24C39.3977 39.24 39.9044 39.1067 40.3044 38.84C40.7044 38.56 41.0177 38.2 41.2444 37.76L43.2244 38.6C42.9444 39.1333 42.5844 39.6 42.1444 40C41.7177 40.4 41.2044 40.7067 40.6044 40.92C40.0177 41.1333 39.3444 41.24 38.5844 41.24ZM36.0044 35.1L35.6844 34.82H41.3244L41.0244 35.1C41.0244 34.5533 40.9044 34.1067 40.6644 33.76C40.4244 33.4 40.1177 33.1333 39.7444 32.96C39.3844 32.7733 39.0044 32.68 38.6044 32.68C38.2044 32.68 37.8044 32.7733 37.4044 32.96C37.0044 33.1333 36.671 33.4 36.4044 33.76C36.1377 34.1067 36.0044 34.5533 36.0044 35.1ZM49.97 41.24C48.9433 41.24 48.0367 41.02 47.25 40.58C46.4633 40.1267 45.8433 39.5067 45.39 38.72C44.95 37.9333 44.73 37.0267 44.73 36C44.73 34.9733 44.95 34.0667 45.39 33.28C45.8433 32.4933 46.4567 31.88 47.23 31.44C48.0167 30.9867 48.9167 30.76 49.93 30.76C50.9167 30.76 51.81 31 52.61 31.48C53.41 31.9467 54.0033 32.62 54.39 33.5L52.31 34.3C52.0967 33.86 51.77 33.5067 51.33 33.24C50.89 32.9733 50.39 32.84 49.83 32.84C49.2833 32.84 48.7967 32.98 48.37 33.26C47.9433 33.5267 47.61 33.9 47.37 34.38C47.13 34.8467 47.01 35.3867 47.01 36C47.01 36.6133 47.13 37.16 47.37 37.64C47.6233 38.1067 47.9633 38.48 48.39 38.76C48.83 39.0267 49.3233 39.16 49.87 39.16C50.43 39.16 50.93 39.02 51.37 38.74C51.81 38.4467 52.1367 38.0533 52.35 37.56L54.43 38.36C54.0433 39.2667 53.45 39.9733 52.65 40.48C51.8633 40.9867 50.97 41.24 49.97 41.24ZM60.9189 41.24C59.9189 41.24 59.0256 41.02 58.2389 40.58C57.4656 40.1267 56.8589 39.5067 56.4189 38.72C55.9789 37.9333 55.7589 37.0267 55.7589 36C55.7589 34.9733 55.9722 34.0667 56.3989 33.28C56.8389 32.4933 57.4456 31.88 58.2189 31.44C58.9922 30.9867 59.8789 30.76 60.8789 30.76C61.8789 30.76 62.7656 30.9867 63.5389 31.44C64.3122 31.88 64.9122 32.4933 65.3389 33.28C65.7789 34.0667 65.9989 34.9733 65.9989 36C65.9989 37.0267 65.7856 37.9333 65.3589 38.72C64.9322 39.5067 64.3322 40.1267 63.5589 40.58C62.7856 41.02 61.9056 41.24 60.9189 41.24ZM60.9189 39.18C61.4656 39.18 61.9522 39.0467 62.3789 38.78C62.8056 38.5 63.1389 38.1267 63.3789 37.66C63.6189 37.18 63.7389 36.6267 63.7389 36C63.7389 35.3733 63.6122 34.8267 63.3589 34.36C63.1189 33.88 62.7856 33.5067 62.3589 33.24C61.9322 32.96 61.4389 32.82 60.8789 32.82C60.3189 32.82 59.8256 32.9533 59.3989 33.22C58.9722 33.4867 58.6389 33.86 58.3989 34.34C58.1589 34.82 58.0389 35.3733 58.0389 36C58.0389 36.6267 58.1589 37.18 58.3989 37.66C58.6522 38.1267 58.9922 38.5 59.4189 38.78C59.8589 39.0467 60.3589 39.18 60.9189 39.18ZM69.57 35.68C69.57 34.6 69.7767 33.7133 70.19 33.02C70.6033 32.3267 71.1367 31.8133 71.79 31.48C72.4567 31.1333 73.15 30.96 73.87 30.96V33.1C73.2567 33.1 72.6767 33.1867 72.13 33.36C71.5967 33.52 71.1633 33.7867 70.83 34.16C70.4967 34.5333 70.33 35.0267 70.33 35.64L69.57 35.68ZM68.09 41V31H70.33V41H68.09ZM82.7256 41L82.6256 39.14V27H84.8456V41H82.7256ZM79.4656 41.24C78.559 41.24 77.7656 41.0267 77.0856 40.6C76.419 40.16 75.8923 39.5467 75.5056 38.76C75.1323 37.9733 74.9456 37.0533 74.9456 36C74.9456 34.9333 75.1323 34.0133 75.5056 33.24C75.8923 32.4533 76.419 31.8467 77.0856 31.42C77.7656 30.98 78.559 30.76 79.4656 30.76C80.3056 30.76 81.0256 30.98 81.6256 31.42C82.239 31.8467 82.7056 32.4533 83.0256 33.24C83.3456 34.0133 83.5056 34.9333 83.5056 36C83.5056 37.0533 83.3456 37.9733 83.0256 38.76C82.7056 39.5467 82.239 40.16 81.6256 40.6C81.0256 41.0267 80.3056 41.24 79.4656 41.24ZM80.0256 39.2C80.5323 39.2 80.979 39.0667 81.3656 38.8C81.7656 38.52 82.0723 38.14 82.2856 37.66C82.5123 37.18 82.6256 36.6267 82.6256 36C82.6256 35.3733 82.5123 34.82 82.2856 34.34C82.0723 33.86 81.7656 33.4867 81.3656 33.22C80.979 32.9533 80.5256 32.82 80.0056 32.82C79.4723 32.82 78.999 32.9533 78.5856 33.22C78.1723 33.4867 77.8456 33.86 77.6056 34.34C77.379 34.82 77.259 35.3733 77.2456 36C77.259 36.6267 77.379 37.18 77.6056 37.66C77.8456 38.14 78.1723 38.52 78.5856 38.8C79.0123 39.0667 79.4923 39.2 80.0256 39.2ZM96.9063 41.24C95.9329 41.24 95.0663 41.02 94.3063 40.58C93.5596 40.1267 92.9663 39.5067 92.5263 38.72C92.0996 37.9333 91.8863 37.0267 91.8863 36C91.8863 34.9733 92.1063 34.0667 92.5463 33.28C92.9863 32.4933 93.5863 31.88 94.3463 31.44C95.1196 30.9867 95.9996 30.76 96.9863 30.76C97.8796 30.76 98.6863 30.9933 99.4063 31.46C100.126 31.9133 100.693 32.5733 101.106 33.44C101.533 34.3067 101.746 35.34 101.746 36.54H93.8863L94.1863 36.26C94.1863 36.8733 94.3196 37.4067 94.5863 37.86C94.8529 38.3 95.2063 38.64 95.6463 38.88C96.0863 39.12 96.5729 39.24 97.1063 39.24C97.7196 39.24 98.2263 39.1067 98.6263 38.84C99.0263 38.56 99.3396 38.2 99.5663 37.76L101.546 38.6C101.266 39.1333 100.906 39.6 100.466 40C100.04 40.4 99.5263 40.7067 98.9263 40.92C98.3396 41.1333 97.6663 41.24 96.9063 41.24ZM94.3263 35.1L94.0063 34.82H99.6463L99.3463 35.1C99.3463 34.5533 99.2263 34.1067 98.9863 33.76C98.7463 33.4 98.4396 33.1333 98.0663 32.96C97.7063 32.7733 97.3263 32.68 96.9263 32.68C96.5263 32.68 96.1263 32.7733 95.7263 32.96C95.3263 33.1333 94.9929 33.4 94.7263 33.76C94.4596 34.1067 94.3263 34.5533 94.3263 35.1ZM110.832 41L110.732 39.14V27H112.952V41H110.832ZM107.572 41.24C106.665 41.24 105.872 41.0267 105.192 40.6C104.525 40.16 103.999 39.5467 103.612 38.76C103.239 37.9733 103.052 37.0533 103.052 36C103.052 34.9333 103.239 34.0133 103.612 33.24C103.999 32.4533 104.525 31.8467 105.192 31.42C105.872 30.98 106.665 30.76 107.572 30.76C108.412 30.76 109.132 30.98 109.732 31.42C110.345 31.8467 110.812 32.4533 111.132 33.24C111.452 34.0133 111.612 34.9333 111.612 36C111.612 37.0533 111.452 37.9733 111.132 38.76C110.812 39.5467 110.345 40.16 109.732 40.6C109.132 41.0267 108.412 41.24 107.572 41.24ZM108.132 39.2C108.639 39.2 109.085 39.0667 109.472 38.8C109.872 38.52 110.179 38.14 110.392 37.66C110.619 37.18 110.732 36.6267 110.732 36C110.732 35.3733 110.619 34.82 110.392 34.34C110.179 33.86 109.872 33.4867 109.472 33.22C109.085 32.9533 108.632 32.82 108.112 32.82C107.579 32.82 107.105 32.9533 106.692 33.22C106.279 33.4867 105.952 33.86 105.712 34.34C105.485 34.82 105.365 35.3733 105.352 36C105.365 36.6267 105.485 37.18 105.712 37.66C105.952 38.14 106.279 38.52 106.692 38.8C107.119 39.0667 107.599 39.2 108.132 39.2ZM115.718 41V31H117.938V41H115.718ZM116.838 29.1C116.478 29.1 116.165 28.9733 115.898 28.72C115.645 28.4533 115.518 28.14 115.518 27.78C115.518 27.42 115.645 27.1133 115.898 26.86C116.165 26.6067 116.478 26.48 116.838 26.48C117.198 26.48 117.505 26.6067 117.758 26.86C118.025 27.1133 118.158 27.42 118.158 27.78C118.158 28.14 118.025 28.4533 117.758 28.72C117.505 28.9733 117.198 29.1 116.838 29.1ZM124.708 41.24C123.655 41.24 122.848 40.98 122.288 40.46C121.742 39.9267 121.468 39.1667 121.468 38.18V27.88H123.688V37.76C123.688 38.2267 123.795 38.58 124.008 38.82C124.235 39.06 124.562 39.18 124.988 39.18C125.122 39.18 125.268 39.1533 125.428 39.1C125.588 39.0467 125.768 38.9467 125.968 38.8L126.788 40.5C126.442 40.74 126.095 40.92 125.748 41.04C125.402 41.1733 125.055 41.24 124.708 41.24ZM119.808 32.92V31H126.388V32.92H119.808Z" fill="white"/>
<path d="M21.66 41V27H26.6C27.56 27 28.4067 27.1867 29.14 27.56C29.8733 27.9333 30.4467 28.4533 30.86 29.12C31.2733 29.7733 31.48 30.5333 31.48 31.4C31.48 32.2667 31.26 33.0333 30.82 33.7C30.3933 34.3667 29.8 34.8933 29.04 35.28C28.28 35.6533 27.42 35.84 26.46 35.84H23.98V41H21.66ZM29.42 41L26.14 35.32L27.94 34.08L32.04 41H29.42ZM23.98 33.7H26.7C27.1533 33.7 27.5533 33.6 27.9 33.4C28.26 33.2 28.5467 32.9267 28.76 32.58C28.9867 32.2333 29.1 31.84 29.1 31.4C29.1 30.7333 28.86 30.1867 28.38 29.76C27.9 29.3333 27.28 29.12 26.52 29.12H23.98V33.7ZM38.5844 41.24C37.611 41.24 36.7444 41.02 35.9844 40.58C35.2377 40.1267 34.6444 39.5067 34.2044 38.72C33.7777 37.9333 33.5644 37.0267 33.5644 36C33.5644 34.9733 33.7844 34.0667 34.2244 33.28C34.6644 32.4933 35.2644 31.88 36.0244 31.44C36.7977 30.9867 37.6777 30.76 38.6644 30.76C39.5577 30.76 40.3644 30.9933 41.0844 31.46C41.8044 31.9133 42.371 32.5733 42.7844 33.44C43.211 34.3067 43.4244 35.34 43.4244 36.54H35.5644L35.8644 36.26C35.8644 36.8733 35.9977 37.4067 36.2644 37.86C36.531 38.3 36.8844 38.64 37.3244 38.88C37.7644 39.12 38.251 39.24 38.7844 39.24C39.3977 39.24 39.9044 39.1067 40.3044 38.84C40.7044 38.56 41.0177 38.2 41.2444 37.76L43.2244 38.6C42.9444 39.1333 42.5844 39.6 42.1444 40C41.7177 40.4 41.2044 40.7067 40.6044 40.92C40.0177 41.1333 39.3444 41.24 38.5844 41.24ZM36.0044 35.1L35.6844 34.82H41.3244L41.0244 35.1C41.0244 34.5533 40.9044 34.1067 40.6644 33.76C40.4244 33.4 40.1177 33.1333 39.7444 32.96C39.3844 32.7733 39.0044 32.68 38.6044 32.68C38.2044 32.68 37.8044 32.7733 37.4044 32.96C37.0044 33.1333 36.671 33.4 36.4044 33.76C36.1377 34.1067 36.0044 34.5533 36.0044 35.1ZM49.97 41.24C48.9433 41.24 48.0367 41.02 47.25 40.58C46.4633 40.1267 45.8433 39.5067 45.39 38.72C44.95 37.9333 44.73 37.0267 44.73 36C44.73 34.9733 44.95 34.0667 45.39 33.28C45.8433 32.4933 46.4567 31.88 47.23 31.44C48.0167 30.9867 48.9167 30.76 49.93 30.76C50.9167 30.76 51.81 31 52.61 31.48C53.41 31.9467 54.0033 32.62 54.39 33.5L52.31 34.3C52.0967 33.86 51.77 33.5067 51.33 33.24C50.89 32.9733 50.39 32.84 49.83 32.84C49.2833 32.84 48.7967 32.98 48.37 33.26C47.9433 33.5267 47.61 33.9 47.37 34.38C47.13 34.8467 47.01 35.3867 47.01 36C47.01 36.6133 47.13 37.16 47.37 37.64C47.6233 38.1067 47.9633 38.48 48.39 38.76C48.83 39.0267 49.3233 39.16 49.87 39.16C50.43 39.16 50.93 39.02 51.37 38.74C51.81 38.4467 52.1367 38.0533 52.35 37.56L54.43 38.36C54.0433 39.2667 53.45 39.9733 52.65 40.48C51.8633 40.9867 50.97 41.24 49.97 41.24ZM60.9189 41.24C59.9189 41.24 59.0256 41.02 58.2389 40.58C57.4656 40.1267 56.8589 39.5067 56.4189 38.72C55.9789 37.9333 55.7589 37.0267 55.7589 36C55.7589 34.9733 55.9722 34.0667 56.3989 33.28C56.8389 32.4933 57.4456 31.88 58.2189 31.44C58.9922 30.9867 59.8789 30.76 60.8789 30.76C61.8789 30.76 62.7656 30.9867 63.5389 31.44C64.3122 31.88 64.9122 32.4933 65.3389 33.28C65.7789 34.0667 65.9989 34.9733 65.9989 36C65.9989 37.0267 65.7856 37.9333 65.3589 38.72C64.9322 39.5067 64.3322 40.1267 63.5589 40.58C62.7856 41.02 61.9056 41.24 60.9189 41.24ZM60.9189 39.18C61.4656 39.18 61.9522 39.0467 62.3789 38.78C62.8056 38.5 63.1389 38.1267 63.3789 37.66C63.6189 37.18 63.7389 36.6267 63.7389 36C63.7389 35.3733 63.6122 34.8267 63.3589 34.36C63.1189 33.88 62.7856 33.5067 62.3589 33.24C61.9322 32.96 61.4389 32.82 60.8789 32.82C60.3189 32.82 59.8256 32.9533 59.3989 33.22C58.9722 33.4867 58.6389 33.86 58.3989 34.34C58.1589 34.82 58.0389 35.3733 58.0389 36C58.0389 36.6267 58.1589 37.18 58.3989 37.66C58.6522 38.1267 58.9922 38.5 59.4189 38.78C59.8589 39.0467 60.3589 39.18 60.9189 39.18ZM69.57 35.68C69.57 34.6 69.7767 33.7133 70.19 33.02C70.6033 32.3267 71.1367 31.8133 71.79 31.48C72.4567 31.1333 73.15 30.96 73.87 30.96V33.1C73.2567 33.1 72.6767 33.1867 72.13 33.36C71.5967 33.52 71.1633 33.7867 70.83 34.16C70.4967 34.5333 70.33 35.0267 70.33 35.64L69.57 35.68ZM68.09 41V31H70.33V41H68.09ZM82.7256 41L82.6256 39.14V27H84.8456V41H82.7256ZM79.4656 41.24C78.559 41.24 77.7656 41.0267 77.0856 40.6C76.419 40.16 75.8923 39.5467 75.5056 38.76C75.1323 37.9733 74.9456 37.0533 74.9456 36C74.9456 34.9333 75.1323 34.0133 75.5056 33.24C75.8923 32.4533 76.419 31.8467 77.0856 31.42C77.7656 30.98 78.559 30.76 79.4656 30.76C80.3056 30.76 81.0256 30.98 81.6256 31.42C82.239 31.8467 82.7056 32.4533 83.0256 33.24C83.3456 34.0133 83.5056 34.9333 83.5056 36C83.5056 37.0533 83.3456 37.9733 83.0256 38.76C82.7056 39.5467 82.239 40.16 81.6256 40.6C81.0256 41.0267 80.3056 41.24 79.4656 41.24ZM80.0256 39.2C80.5323 39.2 80.979 39.0667 81.3656 38.8C81.7656 38.52 82.0723 38.14 82.2856 37.66C82.5123 37.18 82.6256 36.6267 82.6256 36C82.6256 35.3733 82.5123 34.82 82.2856 34.34C82.0723 33.86 81.7656 33.4867 81.3656 33.22C80.979 32.9533 80.5256 32.82 80.0056 32.82C79.4723 32.82 78.999 32.9533 78.5856 33.22C78.1723 33.4867 77.8456 33.86 77.6056 34.34C77.379 34.82 77.259 35.3733 77.2456 36C77.259 36.6267 77.379 37.18 77.6056 37.66C77.8456 38.14 78.1723 38.52 78.5856 38.8C79.0123 39.0667 79.4923 39.2 80.0256 39.2ZM96.9063 41.24C95.9329 41.24 95.0663 41.02 94.3063 40.58C93.5596 40.1267 92.9663 39.5067 92.5263 38.72C92.0996 37.9333 91.8863 37.0267 91.8863 36C91.8863 34.9733 92.1063 34.0667 92.5463 33.28C92.9863 32.4933 93.5863 31.88 94.3463 31.44C95.1196 30.9867 95.9996 30.76 96.9863 30.76C97.8796 30.76 98.6863 30.9933 99.4063 31.46C100.126 31.9133 100.693 32.5733 101.106 33.44C101.533 34.3067 101.746 35.34 101.746 36.54H93.8863L94.1863 36.26C94.1863 36.8733 94.3196 37.4067 94.5863 37.86C94.8529 38.3 95.2063 38.64 95.6463 38.88C96.0863 39.12 96.5729 39.24 97.1063 39.24C97.7196 39.24 98.2263 39.1067 98.6263 38.84C99.0263 38.56 99.3396 38.2 99.5663 37.76L101.546 38.6C101.266 39.1333 100.906 39.6 100.466 40C100.04 40.4 99.5263 40.7067 98.9263 40.92C98.3396 41.1333 97.6663 41.24 96.9063 41.24ZM94.3263 35.1L94.0063 34.82H99.6463L99.3463 35.1C99.3463 34.5533 99.2263 34.1067 98.9863 33.76C98.7463 33.4 98.4396 33.1333 98.0663 32.96C97.7063 32.7733 97.3263 32.68 96.9263 32.68C96.5263 32.68 96.1263 32.7733 95.7263 32.96C95.3263 33.1333 94.9929 33.4 94.7263 33.76C94.4596 34.1067 94.3263 34.5533 94.3263 35.1ZM110.832 41L110.732 39.14V27H112.952V41H110.832ZM107.572 41.24C106.665 41.24 105.872 41.0267 105.192 40.6C104.525 40.16 103.999 39.5467 103.612 38.76C103.239 37.9733 103.052 37.0533 103.052 36C103.052 34.9333 103.239 34.0133 103.612 33.24C103.999 32.4533 104.525 31.8467 105.192 31.42C105.872 30.98 106.665 30.76 107.572 30.76C108.412 30.76 109.132 30.98 109.732 31.42C110.345 31.8467 110.812 32.4533 111.132 33.24C111.452 34.0133 111.612 34.9333 111.612 36C111.612 37.0533 111.452 37.9733 111.132 38.76C110.812 39.5467 110.345 40.16 109.732 40.6C109.132 41.0267 108.412 41.24 107.572 41.24ZM108.132 39.2C108.639 39.2 109.085 39.0667 109.472 38.8C109.872 38.52 110.179 38.14 110.392 37.66C110.619 37.18 110.732 36.6267 110.732 36C110.732 35.3733 110.619 34.82 110.392 34.34C110.179 33.86 109.872 33.4867 109.472 33.22C109.085 32.9533 108.632 32.82 108.112 32.82C107.579 32.82 107.105 32.9533 106.692 33.22C106.279 33.4867 105.952 33.86 105.712 34.34C105.485 34.82 105.365 35.3733 105.352 36C105.365 36.6267 105.485 37.18 105.712 37.66C105.952 38.14 106.279 38.52 106.692 38.8C107.119 39.0667 107.599 39.2 108.132 39.2ZM115.718 41V31H117.938V41H115.718ZM116.838 29.1C116.478 29.1 116.165 28.9733 115.898 28.72C115.645 28.4533 115.518 28.14 115.518 27.78C115.518 27.42 115.645 27.1133 115.898 26.86C116.165 26.6067 116.478 26.48 116.838 26.48C117.198 26.48 117.505 26.6067 117.758 26.86C118.025 27.1133 118.158 27.42 118.158 27.78C118.158 28.14 118.025 28.4533 117.758 28.72C117.505 28.9733 117.198 29.1 116.838 29.1ZM124.708 41.24C123.655 41.24 122.848 40.98 122.288 40.46C121.742 39.9267 121.468 39.1667 121.468 38.18V27.88H123.688V37.76C123.688 38.2267 123.795 38.58 124.008 38.82C124.235 39.06 124.562 39.18 124.988 39.18C125.122 39.18 125.268 39.1533 125.428 39.1C125.588 39.0467 125.768 38.9467 125.968 38.8L126.788 40.5C126.442 40.74 126.095 40.92 125.748 41.04C125.402 41.1733 125.055 41.24 124.708 41.24ZM119.808 32.92V31H126.388V32.92H119.808Z" fill="#3D3D4F"/>
<circle cx="256" cy="34" r="14" fill="#F2F4FD"/>
<mask id="mask0_2393_2353" style="mask-type:alpha" maskUnits="userSpaceOnUse" x="246" y="24" width="20" height="20">
<rect x="246" y="24" width="20" height="20" fill="#D9D9D9"/>
</mask>
<g mask="url(#mask0_2393_2353)">
<path d="M251.333 39.8327L250.167 38.666L254.833 33.9993L250.167 29.3327L251.333 28.166L256 32.8327L260.667 28.166L261.833 29.3327L257.167 33.9993L261.833 38.666L260.667 39.8327L256 35.166L251.333 39.8327Z" fill="white"/>
<path d="M251.333 39.8327L250.167 38.666L254.833 33.9993L250.167 29.3327L251.333 28.166L256 32.8327L260.667 28.166L261.833 29.3327L257.167 33.9993L261.833 38.666L260.667 39.8327L256 35.166L251.333 39.8327Z" fill="#3D3D4F"/>
</g>
<path d="M20 72C20 69.7909 21.7909 68 24 68H266C268.209 68 270 69.7909 270 72V112H20V72Z" stroke="white"/>
<path d="M20 72C20 69.7909 21.7909 68 24 68H266C268.209 68 270 69.7909 270 72V112H20V72Z" stroke="#8A8A8A"/>
<path d="M28 69H262C265.866 69 269 72.134 269 76V104C269 107.866 265.866 111 262 111H28C24.134 111 21 107.866 21 104V76C21 72.134 24.134 69 28 69Z" stroke="url(#paint0_linear_2393_2353)" stroke-width="2"/>
<path d="M42.256 96.192C41.1787 96.192 40.224 95.9467 39.392 95.456C38.56 94.9653 37.9093 94.2827 37.44 93.408C36.9707 92.5333 36.736 91.5307 36.736 90.4C36.736 89.2587 36.9653 88.256 37.424 87.392C37.8933 86.5173 38.5387 85.8347 39.36 85.344C40.1813 84.8533 41.1307 84.608 42.208 84.608C43.2853 84.608 44.2347 84.8587 45.056 85.36C45.888 85.8507 46.5333 86.5333 46.992 87.408C47.4507 88.272 47.68 89.2693 47.68 90.4C47.68 91.5307 47.4507 92.5333 46.992 93.408C46.5333 94.2827 45.8933 94.9653 45.072 95.456C44.2613 95.9467 43.3227 96.192 42.256 96.192ZM42.256 94.96C43.056 94.96 43.76 94.768 44.368 94.384C44.976 93.9893 45.4507 93.4507 45.792 92.768C46.144 92.0853 46.32 91.296 46.32 90.4C46.32 89.5147 46.144 88.7307 45.792 88.048C45.44 87.3547 44.9547 86.816 44.336 86.432C43.728 86.0373 43.0187 85.84 42.208 85.84C41.408 85.84 40.6987 86.0373 40.08 86.432C39.4613 86.816 38.976 87.3547 38.624 88.048C38.272 88.7307 38.096 89.5147 38.096 90.4C38.096 91.296 38.272 92.0853 38.624 92.768C38.976 93.4507 39.4667 93.9893 40.096 94.384C40.7253 94.768 41.4453 94.96 42.256 94.96ZM51.1739 92.16L50.6139 90.928L56.5019 84.8H58.1979L51.1739 92.16ZM50.2299 96V84.8H51.5259V96H50.2299ZM56.7579 96L52.1659 90.304L53.0459 89.44L58.4059 96H56.7579Z" fill="white"/>
<path d="M42.256 96.192C41.1787 96.192 40.224 95.9467 39.392 95.456C38.56 94.9653 37.9093 94.2827 37.44 93.408C36.9707 92.5333 36.736 91.5307 36.736 90.4C36.736 89.2587 36.9653 88.256 37.424 87.392C37.8933 86.5173 38.5387 85.8347 39.36 85.344C40.1813 84.8533 41.1307 84.608 42.208 84.608C43.2853 84.608 44.2347 84.8587 45.056 85.36C45.888 85.8507 46.5333 86.5333 46.992 87.408C47.4507 88.272 47.68 89.2693 47.68 90.4C47.68 91.5307 47.4507 92.5333 46.992 93.408C46.5333 94.2827 45.8933 94.9653 45.072 95.456C44.2613 95.9467 43.3227 96.192 42.256 96.192ZM42.256 94.96C43.056 94.96 43.76 94.768 44.368 94.384C44.976 93.9893 45.4507 93.4507 45.792 92.768C46.144 92.0853 46.32 91.296 46.32 90.4C46.32 89.5147 46.144 88.7307 45.792 88.048C45.44 87.3547 44.9547 86.816 44.336 86.432C43.728 86.0373 43.0187 85.84 42.208 85.84C41.408 85.84 40.6987 86.0373 40.08 86.432C39.4613 86.816 38.976 87.3547 38.624 88.048C38.272 88.7307 38.096 89.5147 38.096 90.4C38.096 91.296 38.272 92.0853 38.624 92.768C38.976 93.4507 39.4667 93.9893 40.096 94.384C40.7253 94.768 41.4453 94.96 42.256 94.96ZM51.1739 92.16L50.6139 90.928L56.5019 84.8H58.1979L51.1739 92.16ZM50.2299 96V84.8H51.5259V96H50.2299ZM56.7579 96L52.1659 90.304L53.0459 89.44L58.4059 96H56.7579Z" fill="#3D3D4F"/>
<path d="M59 82V98" stroke="url(#paint1_linear_2393_2353)" stroke-linecap="square"/>
<rect width="47" height="16" transform="translate(32 60)" fill="white"/>
<path d="M40.069 73.156C39.5923 73.156 39.1547 73.0997 38.756 72.987C38.366 72.8743 38.0193 72.7183 37.716 72.519C37.4213 72.3197 37.1743 72.0987 36.975 71.856C36.7843 71.6047 36.65 71.3447 36.572 71.076L38.054 70.621C38.1667 70.9417 38.3877 71.2233 38.717 71.466C39.0463 71.7087 39.4537 71.8343 39.939 71.843C40.5023 71.843 40.9487 71.726 41.278 71.492C41.6073 71.258 41.772 70.9503 41.772 70.569C41.772 70.2223 41.6333 69.9407 41.356 69.724C41.0787 69.4987 40.706 69.3253 40.238 69.204L39.12 68.918C38.6953 68.8053 38.3097 68.6407 37.963 68.424C37.625 68.2073 37.3563 67.9343 37.157 67.605C36.9663 67.2757 36.871 66.8857 36.871 66.435C36.871 65.5857 37.1483 64.927 37.703 64.459C38.2577 63.9823 39.0507 63.744 40.082 63.744C40.6627 63.744 41.1697 63.835 41.603 64.017C42.045 64.1903 42.409 64.433 42.695 64.745C42.981 65.0483 43.1933 65.395 43.332 65.785L41.876 66.253C41.746 65.9063 41.5207 65.6203 41.2 65.395C40.8793 65.1697 40.4807 65.057 40.004 65.057C39.51 65.057 39.12 65.174 38.834 65.408C38.5567 65.642 38.418 65.967 38.418 66.383C38.418 66.721 38.5263 66.9853 38.743 67.176C38.9683 67.358 39.2717 67.4967 39.653 67.592L40.771 67.865C41.5857 68.0643 42.2183 68.4067 42.669 68.892C43.1197 69.3773 43.345 69.9147 43.345 70.504C43.345 71.024 43.2193 71.4833 42.968 71.882C42.7167 72.2807 42.344 72.5927 41.85 72.818C41.3647 73.0433 40.771 73.156 40.069 73.156ZM47.4576 73.156C46.7729 73.156 46.2486 72.987 45.8846 72.649C45.5292 72.3023 45.3516 71.8083 45.3516 71.167V64.472H46.7946V70.894C46.7946 71.1973 46.8639 71.427 47.0026 71.583C47.1499 71.739 47.3622 71.817 47.6396 71.817C47.7262 71.817 47.8216 71.7997 47.9256 71.765C48.0296 71.7303 48.1466 71.6653 48.2766 71.57L48.8096 72.675C48.5842 72.831 48.3589 72.948 48.1336 73.026C47.9082 73.1127 47.6829 73.156 47.4576 73.156ZM44.2726 67.748V66.5H48.5496V67.748H44.2726ZM53.9802 73L53.9152 71.778V69.659C53.9152 69.217 53.8676 68.8487 53.7722 68.554C53.6856 68.2507 53.5382 68.021 53.3302 67.865C53.1309 67.7003 52.8622 67.618 52.5242 67.618C52.2122 67.618 51.9392 67.683 51.7052 67.813C51.4712 67.943 51.2719 68.1467 51.1072 68.424L49.8332 67.956C49.9719 67.67 50.1539 67.4057 50.3792 67.163C50.6132 66.9117 50.9036 66.7123 51.2502 66.565C51.6056 66.4177 52.0302 66.344 52.5242 66.344C53.1569 66.344 53.6856 66.4697 54.1102 66.721C54.5349 66.9637 54.8469 67.3147 55.0462 67.774C55.2542 68.2333 55.3582 68.788 55.3582 69.438L55.3192 73H53.9802ZM52.1082 73.156C51.3282 73.156 50.7216 72.9827 50.2882 72.636C49.8636 72.2893 49.6512 71.7997 49.6512 71.167C49.6512 70.491 49.8766 69.9753 50.3272 69.62C50.7866 69.2647 51.4236 69.087 52.2382 69.087H53.9802V70.205H52.7062C52.1256 70.205 51.7182 70.2873 51.4842 70.452C51.2502 70.608 51.1332 70.8333 51.1332 71.128C51.1332 71.3793 51.2329 71.5787 51.4322 71.726C51.6402 71.8647 51.9262 71.934 52.2902 71.934C52.6196 71.934 52.9056 71.8603 53.1482 71.713C53.3909 71.5657 53.5772 71.3707 53.7072 71.128C53.8459 70.8853 53.9152 70.6123 53.9152 70.309H54.3442C54.3442 71.193 54.1666 71.8907 53.8112 72.402C53.4559 72.9047 52.8882 73.156 52.1082 73.156ZM59.5496 73.156C58.8649 73.156 58.3406 72.987 57.9766 72.649C57.6213 72.3023 57.4436 71.8083 57.4436 71.167V64.472H58.8866V70.894C58.8866 71.1973 58.9559 71.427 59.0946 71.583C59.2419 71.739 59.4543 71.817 59.7316 71.817C59.8183 71.817 59.9136 71.7997 60.0176 71.765C60.1216 71.7303 60.2386 71.6653 60.3686 71.57L60.9016 72.675C60.6763 72.831 60.4509 72.948 60.2256 73.026C60.0003 73.1127 59.7749 73.156 59.5496 73.156ZM56.3646 67.748V66.5H60.6416V67.748H56.3646ZM66.5511 73L66.4731 71.804V66.5H67.9161V73H66.5511ZM62.0531 69.828V66.5H63.5091V69.828H62.0531ZM63.5091 69.828C63.5091 70.3393 63.5698 70.738 63.6911 71.024C63.8125 71.31 63.9771 71.5093 64.1851 71.622C64.4018 71.7347 64.6488 71.791 64.9261 71.791C65.4201 71.7997 65.8015 71.6393 66.0701 71.31C66.3388 70.9807 66.4731 70.5083 66.4731 69.893H67.0191C67.0191 70.5777 66.9151 71.167 66.7071 71.661C66.5078 72.1463 66.2218 72.519 65.8491 72.779C65.4851 73.0303 65.0431 73.156 64.5231 73.156C64.0118 73.156 63.5698 73.052 63.1971 72.844C62.8331 72.636 62.5515 72.311 62.3521 71.869C62.1528 71.427 62.0531 70.8593 62.0531 70.166V69.828H63.5091ZM72.03 73.156C71.5967 73.156 71.198 73.091 70.834 72.961C70.47 72.831 70.158 72.649 69.898 72.415C69.638 72.1723 69.4387 71.8907 69.3 71.57L70.561 71.011C70.691 71.2537 70.8817 71.4573 71.133 71.622C71.393 71.7867 71.679 71.869 71.991 71.869C72.329 71.869 72.5977 71.8127 72.797 71.7C73.005 71.5787 73.109 71.414 73.109 71.206C73.109 71.0067 73.031 70.855 72.875 70.751C72.719 70.6383 72.498 70.5473 72.212 70.478L71.601 70.309C70.9857 70.153 70.5047 69.906 70.158 69.568C69.8113 69.2213 69.638 68.827 69.638 68.385C69.638 67.735 69.846 67.2323 70.262 66.877C70.6867 66.5217 71.2933 66.344 72.082 66.344C72.4807 66.344 72.8447 66.4047 73.174 66.526C73.512 66.6387 73.8023 66.8033 74.045 67.02C74.2877 67.228 74.4567 67.475 74.552 67.761L73.343 68.307C73.2563 68.0903 73.0917 67.9257 72.849 67.813C72.6063 67.6917 72.3377 67.631 72.043 67.631C71.7483 67.631 71.5187 67.696 71.354 67.826C71.1893 67.9473 71.107 68.1207 71.107 68.346C71.107 68.476 71.1807 68.5973 71.328 68.71C71.4753 68.814 71.6877 68.9007 71.965 68.97L72.732 69.152C73.1567 69.256 73.5033 69.4207 73.772 69.646C74.0407 69.8627 74.24 70.1097 74.37 70.387C74.5 70.6557 74.565 70.9287 74.565 71.206C74.565 71.596 74.4523 71.9383 74.227 72.233C74.0103 72.5277 73.7113 72.7573 73.33 72.922C72.9487 73.078 72.5153 73.156 72.03 73.156Z" fill="url(#paint2_linear_2393_2353)"/>
<g clip-path="url(#clip0_2393_2353)">
<path d="M248 93L243 88H253L248 93Z" fill="white"/>
<path d="M248 93L243 88H253L248 93Z" fill="#3D3D4F"/>
</g>
<g clip-path="url(#clip1_2393_2353)">
<path d="M98.7806 157.168C97.8379 157.168 96.9979 156.953 96.2606 156.524C95.5326 156.085 94.9586 155.488 94.5386 154.732C94.1279 153.967 93.9226 153.089 93.9226 152.1C93.9226 151.111 94.1279 150.238 94.5386 149.482C94.9586 148.717 95.5326 148.119 96.2606 147.69C96.9886 147.251 97.8239 147.032 98.7666 147.032C99.4012 147.032 99.9986 147.149 100.559 147.382C101.119 147.606 101.613 147.919 102.043 148.32C102.481 148.721 102.817 149.188 103.051 149.72L101.567 150.322C101.399 149.967 101.17 149.655 100.881 149.384C100.601 149.104 100.279 148.889 99.9146 148.74C99.5506 148.591 99.1679 148.516 98.7666 148.516C98.1506 148.516 97.5999 148.67 97.1146 148.978C96.6386 149.286 96.2606 149.711 95.9806 150.252C95.7099 150.784 95.5746 151.4 95.5746 152.1C95.5746 152.8 95.7099 153.421 95.9806 153.962C96.2606 154.503 96.6432 154.928 97.1286 155.236C97.6232 155.544 98.1832 155.698 98.8086 155.698C99.2192 155.698 99.6019 155.619 99.9566 155.46C100.321 155.292 100.643 155.063 100.923 154.774C101.212 154.485 101.441 154.149 101.609 153.766L103.093 154.368C102.859 154.919 102.528 155.409 102.099 155.838C101.669 156.258 101.17 156.585 100.601 156.818C100.031 157.051 99.4246 157.168 98.7806 157.168ZM111.586 157L107.764 147.2H109.388L113.308 157H111.586ZM103.76 157L107.666 147.2H109.304L105.482 157H103.76ZM105.594 154.592V153.15H111.46V154.592H105.594ZM114.725 157V147.2H116.405L121.613 154.284V147.2H123.237V157H121.613L116.349 149.832V157H114.725ZM129.949 157.168C129.006 157.168 128.166 156.953 127.429 156.524C126.701 156.085 126.127 155.488 125.707 154.732C125.296 153.967 125.091 153.089 125.091 152.1C125.091 151.111 125.296 150.238 125.707 149.482C126.127 148.717 126.701 148.119 127.429 147.69C128.157 147.251 128.992 147.032 129.935 147.032C130.569 147.032 131.167 147.149 131.727 147.382C132.287 147.606 132.781 147.919 133.211 148.32C133.649 148.721 133.985 149.188 134.219 149.72L132.735 150.322C132.567 149.967 132.338 149.655 132.049 149.384C131.769 149.104 131.447 148.889 131.083 148.74C130.719 148.591 130.336 148.516 129.935 148.516C129.319 148.516 128.768 148.67 128.283 148.978C127.807 149.286 127.429 149.711 127.149 150.252C126.878 150.784 126.743 151.4 126.743 152.1C126.743 152.8 126.878 153.421 127.149 153.962C127.429 154.503 127.811 154.928 128.297 155.236C128.791 155.544 129.351 155.698 129.977 155.698C130.387 155.698 130.77 155.619 131.125 155.46C131.489 155.292 131.811 155.063 132.091 154.774C132.38 154.485 132.609 154.149 132.777 153.766L134.261 154.368C134.027 154.919 133.696 155.409 133.267 155.838C132.837 156.258 132.338 156.585 131.769 156.818C131.199 157.051 130.593 157.168 129.949 157.168ZM135.964 157V147.2H141.998V148.684H137.588V151.288H141.48V152.744H137.588V155.516H142.04V157H135.964ZM144.362 157V147.2H145.986V155.516H150.424V157H144.362Z" fill="white"/>
<path d="M98.7806 157.168C97.8379 157.168 96.9979 156.953 96.2606 156.524C95.5326 156.085 94.9586 155.488 94.5386 154.732C94.1279 153.967 93.9226 153.089 93.9226 152.1C93.9226 151.111 94.1279 150.238 94.5386 149.482C94.9586 148.717 95.5326 148.119 96.2606 147.69C96.9886 147.251 97.8239 147.032 98.7666 147.032C99.4012 147.032 99.9986 147.149 100.559 147.382C101.119 147.606 101.613 147.919 102.043 148.32C102.481 148.721 102.817 149.188 103.051 149.72L101.567 150.322C101.399 149.967 101.17 149.655 100.881 149.384C100.601 149.104 100.279 148.889 99.9146 148.74C99.5506 148.591 99.1679 148.516 98.7666 148.516C98.1506 148.516 97.5999 148.67 97.1146 148.978C96.6386 149.286 96.2606 149.711 95.9806 150.252C95.7099 150.784 95.5746 151.4 95.5746 152.1C95.5746 152.8 95.7099 153.421 95.9806 153.962C96.2606 154.503 96.6432 154.928 97.1286 155.236C97.6232 155.544 98.1832 155.698 98.8086 155.698C99.2192 155.698 99.6019 155.619 99.9566 155.46C100.321 155.292 100.643 155.063 100.923 154.774C101.212 154.485 101.441 154.149 101.609 153.766L103.093 154.368C102.859 154.919 102.528 155.409 102.099 155.838C101.669 156.258 101.17 156.585 100.601 156.818C100.031 157.051 99.4246 157.168 98.7806 157.168ZM111.586 157L107.764 147.2H109.388L113.308 157H111.586ZM103.76 157L107.666 147.2H109.304L105.482 157H103.76ZM105.594 154.592V153.15H111.46V154.592H105.594ZM114.725 157V147.2H116.405L121.613 154.284V147.2H123.237V157H121.613L116.349 149.832V157H114.725ZM129.949 157.168C129.006 157.168 128.166 156.953 127.429 156.524C126.701 156.085 126.127 155.488 125.707 154.732C125.296 153.967 125.091 153.089 125.091 152.1C125.091 151.111 125.296 150.238 125.707 149.482C126.127 148.717 126.701 148.119 127.429 147.69C128.157 147.251 128.992 147.032 129.935 147.032C130.569 147.032 131.167 147.149 131.727 147.382C132.287 147.606 132.781 147.919 133.211 148.32C133.649 148.721 133.985 149.188 134.219 149.72L132.735 150.322C132.567 149.967 132.338 149.655 132.049 149.384C131.769 149.104 131.447 148.889 131.083 148.74C130.719 148.591 130.336 148.516 129.935 148.516C129.319 148.516 128.768 148.67 128.283 148.978C127.807 149.286 127.429 149.711 127.149 150.252C126.878 150.784 126.743 151.4 126.743 152.1C126.743 152.8 126.878 153.421 127.149 153.962C127.429 154.503 127.811 154.928 128.297 155.236C128.791 155.544 129.351 155.698 129.977 155.698C130.387 155.698 130.77 155.619 131.125 155.46C131.489 155.292 131.811 155.063 132.091 154.774C132.38 154.485 132.609 154.149 132.777 153.766L134.261 154.368C134.027 154.919 133.696 155.409 133.267 155.838C132.837 156.258 132.338 156.585 131.769 156.818C131.199 157.051 130.593 157.168 129.949 157.168ZM135.964 157V147.2H141.998V148.684H137.588V151.288H141.48V152.744H137.588V155.516H142.04V157H135.964ZM144.362 157V147.2H145.986V155.516H150.424V157H144.362Z" fill="#484964"/>
</g>
<g clip-path="url(#clip2_2393_2353)">
<rect x="185" y="132" width="85" height="40" rx="8" fill="url(#paint3_linear_2393_2353)"/>
<path d="M213.851 157.168C213.337 157.168 212.866 157.107 212.437 156.986C212.017 156.865 211.643 156.697 211.317 156.482C210.999 156.267 210.733 156.029 210.519 155.768C210.313 155.497 210.169 155.217 210.085 154.928L211.681 154.438C211.802 154.783 212.04 155.087 212.395 155.348C212.749 155.609 213.188 155.745 213.711 155.754C214.317 155.754 214.798 155.628 215.153 155.376C215.507 155.124 215.685 154.793 215.685 154.382C215.685 154.009 215.535 153.705 215.237 153.472C214.938 153.229 214.537 153.043 214.033 152.912L212.829 152.604C212.371 152.483 211.956 152.305 211.583 152.072C211.219 151.839 210.929 151.545 210.715 151.19C210.509 150.835 210.407 150.415 210.407 149.93C210.407 149.015 210.705 148.306 211.303 147.802C211.9 147.289 212.754 147.032 213.865 147.032C214.49 147.032 215.036 147.13 215.503 147.326C215.979 147.513 216.371 147.774 216.679 148.11C216.987 148.437 217.215 148.81 217.365 149.23L215.797 149.734C215.657 149.361 215.414 149.053 215.069 148.81C214.723 148.567 214.294 148.446 213.781 148.446C213.249 148.446 212.829 148.572 212.521 148.824C212.222 149.076 212.073 149.426 212.073 149.874C212.073 150.238 212.189 150.523 212.423 150.728C212.665 150.924 212.992 151.073 213.403 151.176L214.607 151.47C215.484 151.685 216.165 152.053 216.651 152.576C217.136 153.099 217.379 153.677 217.379 154.312C217.379 154.872 217.243 155.367 216.973 155.796C216.702 156.225 216.301 156.561 215.769 156.804C215.246 157.047 214.607 157.168 213.851 157.168ZM226.106 157L222.284 147.2H223.908L227.828 157H226.106ZM218.28 157L222.186 147.2H223.824L220.002 157H218.28ZM220.114 154.592V153.15H225.98V154.592H220.114ZM231.436 157L235.272 147.2H237.008L233.046 157H231.436ZM231.268 157L227.306 147.2H229.028L232.864 157H231.268ZM238.435 157V147.2H244.469V148.684H240.059V151.288H243.951V152.744H240.059V155.516H244.511V157H238.435Z" fill="white"/>
</g>
<rect x="20" y="119" width="250" height="132" rx="8" fill="white"/>
<path d="M33.488 147V135.8H36.896C37.952 135.8 38.88 136.04 39.68 136.52C40.4907 136.989 41.1253 137.645 41.584 138.488C42.0427 139.331 42.272 140.301 42.272 141.4C42.272 142.488 42.0427 143.453 41.584 144.296C41.1253 145.139 40.4907 145.8 39.68 146.28C38.88 146.76 37.952 147 36.896 147H33.488ZM34.848 145.752H36.896C37.4613 145.752 37.984 145.645 38.464 145.432C38.944 145.208 39.3653 144.893 39.728 144.488C40.1013 144.083 40.3893 143.619 40.592 143.096C40.8053 142.563 40.912 141.997 40.912 141.4C40.912 140.803 40.8053 140.243 40.592 139.72C40.3893 139.187 40.1013 138.717 39.728 138.312C39.3653 137.907 38.944 137.597 38.464 137.384C37.984 137.16 37.4613 137.048 36.896 137.048H34.848V145.752ZM49.9436 147L49.8636 145.528V139H51.1436V147H49.9436ZM44.2476 143.096V139H45.5276V143.096H44.2476ZM45.5276 143.096C45.5276 143.885 45.6183 144.488 45.7996 144.904C45.981 145.32 46.2316 145.608 46.5516 145.768C46.8823 145.917 47.2503 145.992 47.6556 145.992C48.349 145.992 48.8876 145.741 49.2716 145.24C49.6663 144.739 49.8636 144.04 49.8636 143.144H50.4876C50.4876 143.987 50.365 144.712 50.1196 145.32C49.8743 145.928 49.517 146.392 49.0476 146.712C48.589 147.032 48.0236 147.192 47.3516 147.192C46.733 147.192 46.189 147.069 45.7196 146.824C45.2503 146.568 44.8876 146.168 44.6316 145.624C44.3756 145.069 44.2476 144.355 44.2476 143.48V143.096H45.5276ZM53.7775 150.2V139H54.9775L55.0575 140.472V150.2H53.7775ZM57.7615 147.192C57.0895 147.192 56.4975 147.016 55.9855 146.664C55.4842 146.312 55.0948 145.821 54.8175 145.192C54.5402 144.552 54.4015 143.821 54.4015 143C54.4015 142.168 54.5402 141.437 54.8175 140.808C55.0948 140.179 55.4842 139.688 55.9855 139.336C56.4975 138.984 57.0895 138.808 57.7615 138.808C58.4762 138.808 59.1055 138.984 59.6495 139.336C60.1935 139.688 60.6148 140.179 60.9135 140.808C61.2228 141.437 61.3775 142.168 61.3775 143C61.3775 143.821 61.2228 144.552 60.9135 145.192C60.6148 145.821 60.1935 146.312 59.6495 146.664C59.1055 147.016 58.4762 147.192 57.7615 147.192ZM57.4735 146.024C57.9748 146.024 58.4175 145.896 58.8015 145.64C59.1962 145.384 59.5055 145.027 59.7295 144.568C59.9642 144.109 60.0815 143.587 60.0815 143C60.0815 142.413 59.9695 141.891 59.7455 141.432C59.5322 140.973 59.2282 140.616 58.8335 140.36C58.4388 140.104 57.9908 139.976 57.4895 139.976C57.0202 139.976 56.5988 140.104 56.2255 140.36C55.8628 140.616 55.5748 140.973 55.3615 141.432C55.1588 141.891 55.0575 142.413 55.0575 143C55.0575 143.587 55.1588 144.109 55.3615 144.568C55.5748 145.027 55.8628 145.384 56.2255 145.64C56.5882 145.896 57.0042 146.024 57.4735 146.024ZM63.4706 147V135.8H64.7506V147H63.4706ZM67.3862 147V139H68.6662V147H67.3862ZM68.0422 137.144C67.8289 137.144 67.6422 137.064 67.4822 136.904C67.3222 136.744 67.2422 136.557 67.2422 136.344C67.2422 136.12 67.3222 135.933 67.4822 135.784C67.6422 135.624 67.8289 135.544 68.0422 135.544C68.2662 135.544 68.4529 135.624 68.6022 135.784C68.7622 135.933 68.8422 136.12 68.8422 136.344C68.8422 136.557 68.7622 136.744 68.6022 136.904C68.4529 137.064 68.2662 137.144 68.0422 137.144ZM74.913 147.192C74.1237 147.192 73.425 147.016 72.817 146.664C72.209 146.301 71.7343 145.805 71.393 145.176C71.0517 144.547 70.881 143.821 70.881 143C70.881 142.179 71.0463 141.453 71.377 140.824C71.7183 140.195 72.193 139.704 72.801 139.352C73.409 138.989 74.1023 138.808 74.881 138.808C75.649 138.808 76.337 138.984 76.945 139.336C77.553 139.688 78.017 140.184 78.337 140.824L77.169 141.352C76.9557 140.925 76.6463 140.595 76.241 140.36C75.8357 140.115 75.3717 139.992 74.849 139.992C74.3263 139.992 73.8623 140.12 73.457 140.376C73.0623 140.632 72.7477 140.989 72.513 141.448C72.289 141.896 72.177 142.413 72.177 143C72.177 143.587 72.289 144.109 72.513 144.568C72.7477 145.016 73.0677 145.368 73.473 145.624C73.889 145.88 74.3583 146.008 74.881 146.008C75.4037 146.008 75.8677 145.875 76.273 145.608C76.689 145.341 77.0037 144.968 77.217 144.488L78.385 145.016C78.065 145.699 77.601 146.232 76.993 146.616C76.385 147 75.6917 147.192 74.913 147.192ZM85.2492 147L85.1852 145.688V142.776C85.1852 142.147 85.1159 141.629 84.9772 141.224C84.8386 140.808 84.6199 140.493 84.3212 140.28C84.0226 140.067 83.6332 139.96 83.1532 139.96C82.7159 139.96 82.3372 140.051 82.0172 140.232C81.7079 140.403 81.4519 140.68 81.2492 141.064L80.0972 140.616C80.2999 140.243 80.5452 139.923 80.8332 139.656C81.1212 139.379 81.4572 139.171 81.8412 139.032C82.2252 138.883 82.6626 138.808 83.1532 138.808C83.8999 138.808 84.5132 138.957 84.9932 139.256C85.4839 139.544 85.8519 139.976 86.0972 140.552C86.3426 141.117 86.4599 141.821 86.4492 142.664L86.4332 147H85.2492ZM82.8492 147.192C81.9106 147.192 81.1746 146.979 80.6412 146.552C80.1186 146.115 79.8572 145.512 79.8572 144.744C79.8572 143.933 80.1239 143.315 80.6572 142.888C81.2012 142.451 81.9586 142.232 82.9292 142.232H85.2172V143.304H83.2172C82.4706 143.304 81.9372 143.427 81.6172 143.672C81.3079 143.917 81.1532 144.269 81.1532 144.728C81.1532 145.144 81.3079 145.475 81.6172 145.72C81.9266 145.955 82.3586 146.072 82.9132 146.072C83.3719 146.072 83.7719 145.976 84.1132 145.784C84.4546 145.581 84.7159 145.299 84.8972 144.936C85.0892 144.563 85.1852 144.125 85.1852 143.624H85.7292C85.7292 144.712 85.4839 145.581 84.9932 146.232C84.5026 146.872 83.7879 147.192 82.8492 147.192ZM91.8055 147.192C91.0268 147.192 90.4242 146.989 89.9975 146.584C89.5708 146.179 89.3575 145.608 89.3575 144.872V136.504H90.6375V144.744C90.6375 145.149 90.7442 145.464 90.9575 145.688C91.1815 145.901 91.4908 146.008 91.8855 146.008C92.0135 146.008 92.1362 145.992 92.2535 145.96C92.3815 145.917 92.5468 145.821 92.7495 145.672L93.2455 146.712C92.9682 146.893 92.7175 147.016 92.4935 147.08C92.2695 147.155 92.0402 147.192 91.8055 147.192ZM87.9655 140.136V139H93.0375V140.136H87.9655ZM98.6215 147.192C97.8428 147.192 97.1548 147.016 96.5575 146.664C95.9602 146.301 95.4908 145.805 95.1495 145.176C94.8188 144.547 94.6535 143.821 94.6535 143C94.6535 142.179 94.8188 141.453 95.1495 140.824C95.4908 140.195 95.9548 139.704 96.5415 139.352C97.1388 138.989 97.8215 138.808 98.5895 138.808C99.3362 138.808 99.9815 138.995 100.526 139.368C101.07 139.731 101.491 140.243 101.79 140.904C102.088 141.565 102.238 142.344 102.238 143.24H95.6295L95.9495 142.968C95.9495 143.608 96.0615 144.157 96.2855 144.616C96.5202 145.075 96.8455 145.427 97.2615 145.672C97.6775 145.907 98.1522 146.024 98.6855 146.024C99.2508 146.024 99.7255 145.891 100.11 145.624C100.504 145.357 100.808 145.005 101.022 144.568L102.126 145.128C101.923 145.544 101.651 145.907 101.31 146.216C100.979 146.525 100.584 146.765 100.126 146.936C99.6775 147.107 99.1762 147.192 98.6215 147.192ZM96.0295 142.424L95.6935 142.168H101.214L100.878 142.44C100.878 141.928 100.776 141.485 100.574 141.112C100.371 140.739 100.099 140.451 99.7575 140.248C99.4162 140.045 99.0215 139.944 98.5735 139.944C98.1362 139.944 97.7202 140.045 97.3255 140.248C96.9415 140.451 96.6268 140.739 96.3815 141.112C96.1468 141.475 96.0295 141.912 96.0295 142.424ZM110.092 147L110.028 145.512V135.8H111.308V147H110.092ZM107.324 147.192C106.609 147.192 105.98 147.016 105.436 146.664C104.892 146.312 104.465 145.821 104.156 145.192C103.857 144.552 103.708 143.821 103.708 143C103.708 142.168 103.857 141.437 104.156 140.808C104.465 140.179 104.892 139.688 105.436 139.336C105.98 138.984 106.609 138.808 107.324 138.808C107.996 138.808 108.583 138.984 109.084 139.336C109.596 139.688 109.991 140.179 110.268 140.808C110.545 141.437 110.684 142.168 110.684 143C110.684 143.821 110.545 144.552 110.268 145.192C109.991 145.821 109.596 146.312 109.084 146.664C108.583 147.016 107.996 147.192 107.324 147.192ZM107.612 146.024C108.081 146.024 108.497 145.896 108.86 145.64C109.223 145.384 109.505 145.027 109.708 144.568C109.921 144.109 110.028 143.587 110.028 143C110.028 142.413 109.921 141.891 109.708 141.432C109.505 140.973 109.223 140.616 108.86 140.36C108.497 140.104 108.076 139.976 107.596 139.976C107.095 139.976 106.647 140.104 106.252 140.36C105.868 140.616 105.564 140.973 105.34 141.432C105.116 141.891 105.004 142.413 105.004 143C105.004 143.587 105.116 144.109 105.34 144.568C105.564 145.027 105.873 145.384 106.268 145.64C106.663 145.896 107.111 146.024 107.612 146.024Z" fill="white"/>
<path d="M33.488 147V135.8H36.896C37.952 135.8 38.88 136.04 39.68 136.52C40.4907 136.989 41.1253 137.645 41.584 138.488C42.0427 139.331 42.272 140.301 42.272 141.4C42.272 142.488 42.0427 143.453 41.584 144.296C41.1253 145.139 40.4907 145.8 39.68 146.28C38.88 146.76 37.952 147 36.896 147H33.488ZM34.848 145.752H36.896C37.4613 145.752 37.984 145.645 38.464 145.432C38.944 145.208 39.3653 144.893 39.728 144.488C40.1013 144.083 40.3893 143.619 40.592 143.096C40.8053 142.563 40.912 141.997 40.912 141.4C40.912 140.803 40.8053 140.243 40.592 139.72C40.3893 139.187 40.1013 138.717 39.728 138.312C39.3653 137.907 38.944 137.597 38.464 137.384C37.984 137.16 37.4613 137.048 36.896 137.048H34.848V145.752ZM49.9436 147L49.8636 145.528V139H51.1436V147H49.9436ZM44.2476 143.096V139H45.5276V143.096H44.2476ZM45.5276 143.096C45.5276 143.885 45.6183 144.488 45.7996 144.904C45.981 145.32 46.2316 145.608 46.5516 145.768C46.8823 145.917 47.2503 145.992 47.6556 145.992C48.349 145.992 48.8876 145.741 49.2716 145.24C49.6663 144.739 49.8636 144.04 49.8636 143.144H50.4876C50.4876 143.987 50.365 144.712 50.1196 145.32C49.8743 145.928 49.517 146.392 49.0476 146.712C48.589 147.032 48.0236 147.192 47.3516 147.192C46.733 147.192 46.189 147.069 45.7196 146.824C45.2503 146.568 44.8876 146.168 44.6316 145.624C44.3756 145.069 44.2476 144.355 44.2476 143.48V143.096H45.5276ZM53.7775 150.2V139H54.9775L55.0575 140.472V150.2H53.7775ZM57.7615 147.192C57.0895 147.192 56.4975 147.016 55.9855 146.664C55.4842 146.312 55.0948 145.821 54.8175 145.192C54.5402 144.552 54.4015 143.821 54.4015 143C54.4015 142.168 54.5402 141.437 54.8175 140.808C55.0948 140.179 55.4842 139.688 55.9855 139.336C56.4975 138.984 57.0895 138.808 57.7615 138.808C58.4762 138.808 59.1055 138.984 59.6495 139.336C60.1935 139.688 60.6148 140.179 60.9135 140.808C61.2228 141.437 61.3775 142.168 61.3775 143C61.3775 143.821 61.2228 144.552 60.9135 145.192C60.6148 145.821 60.1935 146.312 59.6495 146.664C59.1055 147.016 58.4762 147.192 57.7615 147.192ZM57.4735 146.024C57.9748 146.024 58.4175 145.896 58.8015 145.64C59.1962 145.384 59.5055 145.027 59.7295 144.568C59.9642 144.109 60.0815 143.587 60.0815 143C60.0815 142.413 59.9695 141.891 59.7455 141.432C59.5322 140.973 59.2282 140.616 58.8335 140.36C58.4388 140.104 57.9908 139.976 57.4895 139.976C57.0202 139.976 56.5988 140.104 56.2255 140.36C55.8628 140.616 55.5748 140.973 55.3615 141.432C55.1588 141.891 55.0575 142.413 55.0575 143C55.0575 143.587 55.1588 144.109 55.3615 144.568C55.5748 145.027 55.8628 145.384 56.2255 145.64C56.5882 145.896 57.0042 146.024 57.4735 146.024ZM63.4706 147V135.8H64.7506V147H63.4706ZM67.3862 147V139H68.6662V147H67.3862ZM68.0422 137.144C67.8289 137.144 67.6422 137.064 67.4822 136.904C67.3222 136.744 67.2422 136.557 67.2422 136.344C67.2422 136.12 67.3222 135.933 67.4822 135.784C67.6422 135.624 67.8289 135.544 68.0422 135.544C68.2662 135.544 68.4529 135.624 68.6022 135.784C68.7622 135.933 68.8422 136.12 68.8422 136.344C68.8422 136.557 68.7622 136.744 68.6022 136.904C68.4529 137.064 68.2662 137.144 68.0422 137.144ZM74.913 147.192C74.1237 147.192 73.425 147.016 72.817 146.664C72.209 146.301 71.7343 145.805 71.393 145.176C71.0517 144.547 70.881 143.821 70.881 143C70.881 142.179 71.0463 141.453 71.377 140.824C71.7183 140.195 72.193 139.704 72.801 139.352C73.409 138.989 74.1023 138.808 74.881 138.808C75.649 138.808 76.337 138.984 76.945 139.336C77.553 139.688 78.017 140.184 78.337 140.824L77.169 141.352C76.9557 140.925 76.6463 140.595 76.241 140.36C75.8357 140.115 75.3717 139.992 74.849 139.992C74.3263 139.992 73.8623 140.12 73.457 140.376C73.0623 140.632 72.7477 140.989 72.513 141.448C72.289 141.896 72.177 142.413 72.177 143C72.177 143.587 72.289 144.109 72.513 144.568C72.7477 145.016 73.0677 145.368 73.473 145.624C73.889 145.88 74.3583 146.008 74.881 146.008C75.4037 146.008 75.8677 145.875 76.273 145.608C76.689 145.341 77.0037 144.968 77.217 144.488L78.385 145.016C78.065 145.699 77.601 146.232 76.993 146.616C76.385 147 75.6917 147.192 74.913 147.192ZM85.2492 147L85.1852 145.688V142.776C85.1852 142.147 85.1159 141.629 84.9772 141.224C84.8386 140.808 84.6199 140.493 84.3212 140.28C84.0226 140.067 83.6332 139.96 83.1532 139.96C82.7159 139.96 82.3372 140.051 82.0172 140.232C81.7079 140.403 81.4519 140.68 81.2492 141.064L80.0972 140.616C80.2999 140.243 80.5452 139.923 80.8332 139.656C81.1212 139.379 81.4572 139.171 81.8412 139.032C82.2252 138.883 82.6626 138.808 83.1532 138.808C83.8999 138.808 84.5132 138.957 84.9932 139.256C85.4839 139.544 85.8519 139.976 86.0972 140.552C86.3426 141.117 86.4599 141.821 86.4492 142.664L86.4332 147H85.2492ZM82.8492 147.192C81.9106 147.192 81.1746 146.979 80.6412 146.552C80.1186 146.115 79.8572 145.512 79.8572 144.744C79.8572 143.933 80.1239 143.315 80.6572 142.888C81.2012 142.451 81.9586 142.232 82.9292 142.232H85.2172V143.304H83.2172C82.4706 143.304 81.9372 143.427 81.6172 143.672C81.3079 143.917 81.1532 144.269 81.1532 144.728C81.1532 145.144 81.3079 145.475 81.6172 145.72C81.9266 145.955 82.3586 146.072 82.9132 146.072C83.3719 146.072 83.7719 145.976 84.1132 145.784C84.4546 145.581 84.7159 145.299 84.8972 144.936C85.0892 144.563 85.1852 144.125 85.1852 143.624H85.7292C85.7292 144.712 85.4839 145.581 84.9932 146.232C84.5026 146.872 83.7879 147.192 82.8492 147.192ZM91.8055 147.192C91.0268 147.192 90.4242 146.989 89.9975 146.584C89.5708 146.179 89.3575 145.608 89.3575 144.872V136.504H90.6375V144.744C90.6375 145.149 90.7442 145.464 90.9575 145.688C91.1815 145.901 91.4908 146.008 91.8855 146.008C92.0135 146.008 92.1362 145.992 92.2535 145.96C92.3815 145.917 92.5468 145.821 92.7495 145.672L93.2455 146.712C92.9682 146.893 92.7175 147.016 92.4935 147.08C92.2695 147.155 92.0402 147.192 91.8055 147.192ZM87.9655 140.136V139H93.0375V140.136H87.9655ZM98.6215 147.192C97.8428 147.192 97.1548 147.016 96.5575 146.664C95.9602 146.301 95.4908 145.805 95.1495 145.176C94.8188 144.547 94.6535 143.821 94.6535 143C94.6535 142.179 94.8188 141.453 95.1495 140.824C95.4908 140.195 95.9548 139.704 96.5415 139.352C97.1388 138.989 97.8215 138.808 98.5895 138.808C99.3362 138.808 99.9815 138.995 100.526 139.368C101.07 139.731 101.491 140.243 101.79 140.904C102.088 141.565 102.238 142.344 102.238 143.24H95.6295L95.9495 142.968C95.9495 143.608 96.0615 144.157 96.2855 144.616C96.5202 145.075 96.8455 145.427 97.2615 145.672C97.6775 145.907 98.1522 146.024 98.6855 146.024C99.2508 146.024 99.7255 145.891 100.11 145.624C100.504 145.357 100.808 145.005 101.022 144.568L102.126 145.128C101.923 145.544 101.651 145.907 101.31 146.216C100.979 146.525 100.584 146.765 100.126 146.936C99.6775 147.107 99.1762 147.192 98.6215 147.192ZM96.0295 142.424L95.6935 142.168H101.214L100.878 142.44C100.878 141.928 100.776 141.485 100.574 141.112C100.371 140.739 100.099 140.451 99.7575 140.248C99.4162 140.045 99.0215 139.944 98.5735 139.944C98.1362 139.944 97.7202 140.045 97.3255 140.248C96.9415 140.451 96.6268 140.739 96.3815 141.112C96.1468 141.475 96.0295 141.912 96.0295 142.424ZM110.092 147L110.028 145.512V135.8H111.308V147H110.092ZM107.324 147.192C106.609 147.192 105.98 147.016 105.436 146.664C104.892 146.312 104.465 145.821 104.156 145.192C103.857 144.552 103.708 143.821 103.708 143C103.708 142.168 103.857 141.437 104.156 140.808C104.465 140.179 104.892 139.688 105.436 139.336C105.98 138.984 106.609 138.808 107.324 138.808C107.996 138.808 108.583 138.984 109.084 139.336C109.596 139.688 109.991 140.179 110.268 140.808C110.545 141.437 110.684 142.168 110.684 143C110.684 143.821 110.545 144.552 110.268 145.192C109.991 145.821 109.596 146.312 109.084 146.664C108.583 147.016 107.996 147.192 107.324 147.192ZM107.612 146.024C108.081 146.024 108.497 145.896 108.86 145.64C109.223 145.384 109.505 145.027 109.708 144.568C109.921 144.109 110.028 143.587 110.028 143C110.028 142.413 109.921 141.891 109.708 141.432C109.505 140.973 109.223 140.616 108.86 140.36C108.497 140.104 108.076 139.976 107.596 139.976C107.095 139.976 106.647 140.104 106.252 140.36C105.868 140.616 105.564 140.973 105.34 141.432C105.116 141.891 105.004 142.413 105.004 143C105.004 143.587 105.116 144.109 105.34 144.568C105.564 145.027 105.873 145.384 106.268 145.64C106.663 145.896 107.111 146.024 107.612 146.024Z" fill="#3D3D4F"/>
<rect width="250" height="44" transform="translate(20 163)" fill="#60ADFA" fill-opacity="0.25"/>
<path d="M38.256 191.192C37.1787 191.192 36.224 190.947 35.392 190.456C34.56 189.965 33.9093 189.283 33.44 188.408C32.9707 187.533 32.736 186.531 32.736 185.4C32.736 184.259 32.9653 183.256 33.424 182.392C33.8933 181.517 34.5387 180.835 35.36 180.344C36.1813 179.853 37.1307 179.608 38.208 179.608C39.2853 179.608 40.2347 179.859 41.056 180.36C41.888 180.851 42.5333 181.533 42.992 182.408C43.4507 183.272 43.68 184.269 43.68 185.4C43.68 186.531 43.4507 187.533 42.992 188.408C42.5333 189.283 41.8933 189.965 41.072 190.456C40.2613 190.947 39.3227 191.192 38.256 191.192ZM38.256 189.96C39.056 189.96 39.76 189.768 40.368 189.384C40.976 188.989 41.4507 188.451 41.792 187.768C42.144 187.085 42.32 186.296 42.32 185.4C42.32 184.515 42.144 183.731 41.792 183.048C41.44 182.355 40.9547 181.816 40.336 181.432C39.728 181.037 39.0187 180.84 38.208 180.84C37.408 180.84 36.6987 181.037 36.08 181.432C35.4613 181.816 34.976 182.355 34.624 183.048C34.272 183.731 34.096 184.515 34.096 185.4C34.096 186.296 34.272 187.085 34.624 187.768C34.976 188.451 35.4667 188.989 36.096 189.384C36.7253 189.768 37.4453 189.96 38.256 189.96ZM47.1739 187.16L46.6139 185.928L52.5019 179.8H54.1979L47.1739 187.16ZM46.2299 191V179.8H47.5259V191H46.2299ZM52.7579 191L48.1659 185.304L49.0459 184.44L54.4059 191H52.7579Z" fill="white"/>
<path d="M38.256 191.192C37.1787 191.192 36.224 190.947 35.392 190.456C34.56 189.965 33.9093 189.283 33.44 188.408C32.9707 187.533 32.736 186.531 32.736 185.4C32.736 184.259 32.9653 183.256 33.424 182.392C33.8933 181.517 34.5387 180.835 35.36 180.344C36.1813 179.853 37.1307 179.608 38.208 179.608C39.2853 179.608 40.2347 179.859 41.056 180.36C41.888 180.851 42.5333 181.533 42.992 182.408C43.4507 183.272 43.68 184.269 43.68 185.4C43.68 186.531 43.4507 187.533 42.992 188.408C42.5333 189.283 41.8933 189.965 41.072 190.456C40.2613 190.947 39.3227 191.192 38.256 191.192ZM38.256 189.96C39.056 189.96 39.76 189.768 40.368 189.384C40.976 188.989 41.4507 188.451 41.792 187.768C42.144 187.085 42.32 186.296 42.32 185.4C42.32 184.515 42.144 183.731 41.792 183.048C41.44 182.355 40.9547 181.816 40.336 181.432C39.728 181.037 39.0187 180.84 38.208 180.84C37.408 180.84 36.6987 181.037 36.08 181.432C35.4613 181.816 34.976 182.355 34.624 183.048C34.272 183.731 34.096 184.515 34.096 185.4C34.096 186.296 34.272 187.085 34.624 187.768C34.976 188.451 35.4667 188.989 36.096 189.384C36.7253 189.768 37.4453 189.96 38.256 189.96ZM47.1739 187.16L46.6139 185.928L52.5019 179.8H54.1979L47.1739 187.16ZM46.2299 191V179.8H47.5259V191H46.2299ZM52.7579 191L48.1659 185.304L49.0459 184.44L54.4059 191H52.7579Z" fill="#3D3D4F"/>
<path d="M33.488 235V223.8H37.136C37.8613 223.8 38.5013 223.944 39.056 224.232C39.6213 224.52 40.0587 224.92 40.368 225.432C40.688 225.944 40.848 226.531 40.848 227.192C40.848 227.853 40.6773 228.44 40.336 228.952C39.9947 229.464 39.5307 229.869 38.944 230.168C38.3573 230.456 37.696 230.6 36.96 230.6H34.848V235H33.488ZM39.808 235L37.12 230.408L38.192 229.704L41.296 235H39.808ZM34.848 229.352H37.328C37.7333 229.352 38.096 229.261 38.416 229.08C38.736 228.888 38.992 228.632 39.184 228.312C39.3867 227.981 39.488 227.608 39.488 227.192C39.488 226.552 39.264 226.035 38.816 225.64C38.3787 225.235 37.808 225.032 37.104 225.032H34.848V229.352ZM46.9596 235.192C46.181 235.192 45.493 235.016 44.8956 234.664C44.2983 234.301 43.829 233.805 43.4876 233.176C43.157 232.547 42.9916 231.821 42.9916 231C42.9916 230.179 43.157 229.453 43.4876 228.824C43.829 228.195 44.293 227.704 44.8796 227.352C45.477 226.989 46.1596 226.808 46.9276 226.808C47.6743 226.808 48.3196 226.995 48.8636 227.368C49.4076 227.731 49.829 228.243 50.1276 228.904C50.4263 229.565 50.5756 230.344 50.5756 231.24H43.9676L44.2876 230.968C44.2876 231.608 44.3996 232.157 44.6236 232.616C44.8583 233.075 45.1836 233.427 45.5996 233.672C46.0156 233.907 46.4903 234.024 47.0236 234.024C47.589 234.024 48.0636 233.891 48.4476 233.624C48.8423 233.357 49.1463 233.005 49.3596 232.568L50.4636 233.128C50.261 233.544 49.989 233.907 49.6476 234.216C49.317 234.525 48.9223 234.765 48.4636 234.936C48.0156 235.107 47.5143 235.192 46.9596 235.192ZM44.3676 230.424L44.0316 230.168H49.5516L49.2156 230.44C49.2156 229.928 49.1143 229.485 48.9116 229.112C48.709 228.739 48.437 228.451 48.0956 228.248C47.7543 228.045 47.3596 227.944 46.9116 227.944C46.4743 227.944 46.0583 228.045 45.6636 228.248C45.2796 228.451 44.965 228.739 44.7196 229.112C44.485 229.475 44.3676 229.912 44.3676 230.424ZM53.822 225.128C53.6087 225.128 53.422 225.048 53.262 224.888C53.102 224.728 53.022 224.541 53.022 224.328C53.022 224.093 53.102 223.901 53.262 223.752C53.422 223.592 53.6087 223.512 53.822 223.512C54.046 223.512 54.238 223.592 54.398 223.752C54.558 223.901 54.638 224.093 54.638 224.328C54.638 224.541 54.558 224.728 54.398 224.888C54.238 225.048 54.046 225.128 53.822 225.128ZM52.046 238.44C51.6513 238.44 51.15 238.301 50.542 238.024L51.022 236.952C51.278 237.048 51.4913 237.123 51.662 237.176C51.8433 237.229 51.9873 237.256 52.094 237.256C52.8193 237.256 53.182 236.792 53.182 235.864V227H54.462V235.896C54.462 236.728 54.2593 237.357 53.854 237.784C53.4487 238.221 52.846 238.44 52.046 238.44ZM60.6309 235.192C59.8522 235.192 59.1642 235.016 58.5669 234.664C57.9695 234.301 57.5002 233.805 57.1589 233.176C56.8282 232.547 56.6629 231.821 56.6629 231C56.6629 230.179 56.8282 229.453 57.1589 228.824C57.5002 228.195 57.9642 227.704 58.5509 227.352C59.1482 226.989 59.8309 226.808 60.5989 226.808C61.3455 226.808 61.9909 226.995 62.5349 227.368C63.0789 227.731 63.5002 228.243 63.7989 228.904C64.0975 229.565 64.2469 230.344 64.2469 231.24H57.6389L57.9589 230.968C57.9589 231.608 58.0709 232.157 58.2949 232.616C58.5295 233.075 58.8549 233.427 59.2709 233.672C59.6869 233.907 60.1615 234.024 60.6949 234.024C61.2602 234.024 61.7349 233.891 62.1189 233.624C62.5135 233.357 62.8175 233.005 63.0309 232.568L64.1349 233.128C63.9322 233.544 63.6602 233.907 63.3189 234.216C62.9882 234.525 62.5935 234.765 62.1349 234.936C61.6869 235.107 61.1855 235.192 60.6309 235.192ZM58.0389 230.424L57.7029 230.168H63.2229L62.8869 230.44C62.8869 229.928 62.7855 229.485 62.5829 229.112C62.3802 228.739 62.1082 228.451 61.7669 228.248C61.4255 228.045 61.0309 227.944 60.5829 227.944C60.1455 227.944 59.7295 228.045 59.3349 228.248C58.9509 228.451 58.6362 228.739 58.3909 229.112C58.1562 229.475 58.0389 229.912 58.0389 230.424ZM69.7492 235.192C68.9599 235.192 68.2612 235.016 67.6532 234.664C67.0452 234.301 66.5706 233.805 66.2292 233.176C65.8879 232.547 65.7172 231.821 65.7172 231C65.7172 230.179 65.8826 229.453 66.2132 228.824C66.5546 228.195 67.0292 227.704 67.6372 227.352C68.2452 226.989 68.9386 226.808 69.7172 226.808C70.4852 226.808 71.1732 226.984 71.7812 227.336C72.3892 227.688 72.8532 228.184 73.1732 228.824L72.0052 229.352C71.7919 228.925 71.4826 228.595 71.0772 228.36C70.6719 228.115 70.2079 227.992 69.6852 227.992C69.1626 227.992 68.6986 228.12 68.2932 228.376C67.8986 228.632 67.5839 228.989 67.3492 229.448C67.1252 229.896 67.0132 230.413 67.0132 231C67.0132 231.587 67.1252 232.109 67.3492 232.568C67.5839 233.016 67.9039 233.368 68.3092 233.624C68.7252 233.88 69.1946 234.008 69.7172 234.008C70.2399 234.008 70.7039 233.875 71.1092 233.608C71.5252 233.341 71.8399 232.968 72.0532 232.488L73.2212 233.016C72.9012 233.699 72.4372 234.232 71.8292 234.616C71.2212 235 70.5279 235.192 69.7492 235.192ZM78.1655 235.192C77.3868 235.192 76.7842 234.989 76.3575 234.584C75.9308 234.179 75.7175 233.608 75.7175 232.872V224.504H76.9975V232.744C76.9975 233.149 77.1042 233.464 77.3175 233.688C77.5415 233.901 77.8508 234.008 78.2455 234.008C78.3735 234.008 78.4962 233.992 78.6135 233.96C78.7415 233.917 78.9068 233.821 79.1095 233.672L79.6055 234.712C79.3282 234.893 79.0775 235.016 78.8535 235.08C78.6295 235.155 78.4002 235.192 78.1655 235.192ZM74.3255 228.136V227H79.3975V228.136H74.3255ZM84.9815 235.192C84.2028 235.192 83.5148 235.016 82.9175 234.664C82.3202 234.301 81.8508 233.805 81.5095 233.176C81.1788 232.547 81.0135 231.821 81.0135 231C81.0135 230.179 81.1788 229.453 81.5095 228.824C81.8508 228.195 82.3148 227.704 82.9015 227.352C83.4988 226.989 84.1815 226.808 84.9495 226.808C85.6962 226.808 86.3415 226.995 86.8855 227.368C87.4295 227.731 87.8508 228.243 88.1495 228.904C88.4482 229.565 88.5975 230.344 88.5975 231.24H81.9895L82.3095 230.968C82.3095 231.608 82.4215 232.157 82.6455 232.616C82.8802 233.075 83.2055 233.427 83.6215 233.672C84.0375 233.907 84.5122 234.024 85.0455 234.024C85.6108 234.024 86.0855 233.891 86.4695 233.624C86.8642 233.357 87.1682 233.005 87.3815 232.568L88.4855 233.128C88.2828 233.544 88.0108 233.907 87.6695 234.216C87.3388 234.525 86.9442 234.765 86.4855 234.936C86.0375 235.107 85.5362 235.192 84.9815 235.192ZM82.3895 230.424L82.0535 230.168H87.5735L87.2375 230.44C87.2375 229.928 87.1362 229.485 86.9335 229.112C86.7308 228.739 86.4588 228.451 86.1175 228.248C85.7762 228.045 85.3815 227.944 84.9335 227.944C84.4962 227.944 84.0802 228.045 83.6855 228.248C83.3015 228.451 82.9868 228.739 82.7415 229.112C82.5068 229.475 82.3895 229.912 82.3895 230.424ZM96.4519 235L96.3879 233.512V223.8H97.6679V235H96.4519ZM93.6839 235.192C92.9692 235.192 92.3399 235.016 91.7959 234.664C91.2519 234.312 90.8252 233.821 90.5159 233.192C90.2172 232.552 90.0679 231.821 90.0679 231C90.0679 230.168 90.2172 229.437 90.5159 228.808C90.8252 228.179 91.2519 227.688 91.7959 227.336C92.3399 226.984 92.9692 226.808 93.6839 226.808C94.3559 226.808 94.9425 226.984 95.4439 227.336C95.9559 227.688 96.3505 228.179 96.6279 228.808C96.9052 229.437 97.0439 230.168 97.0439 231C97.0439 231.821 96.9052 232.552 96.6279 233.192C96.3505 233.821 95.9559 234.312 95.4439 234.664C94.9425 235.016 94.3559 235.192 93.6839 235.192ZM93.9719 234.024C94.4412 234.024 94.8572 233.896 95.2199 233.64C95.5825 233.384 95.8652 233.027 96.0679 232.568C96.2812 232.109 96.3879 231.587 96.3879 231C96.3879 230.413 96.2812 229.891 96.0679 229.432C95.8652 228.973 95.5825 228.616 95.2199 228.36C94.8572 228.104 94.4359 227.976 93.9559 227.976C93.4545 227.976 93.0065 228.104 92.6119 228.36C92.2279 228.616 91.9239 228.973 91.6999 229.432C91.4759 229.891 91.3639 230.413 91.3639 231C91.3639 231.587 91.4759 232.109 91.6999 232.568C91.9239 233.027 92.2332 233.384 92.6279 233.64C93.0225 233.896 93.4705 234.024 93.9719 234.024Z" fill="white"/>
<path d="M33.488 235V223.8H37.136C37.8613 223.8 38.5013 223.944 39.056 224.232C39.6213 224.52 40.0587 224.92 40.368 225.432C40.688 225.944 40.848 226.531 40.848 227.192C40.848 227.853 40.6773 228.44 40.336 228.952C39.9947 229.464 39.5307 229.869 38.944 230.168C38.3573 230.456 37.696 230.6 36.96 230.6H34.848V235H33.488ZM39.808 235L37.12 230.408L38.192 229.704L41.296 235H39.808ZM34.848 229.352H37.328C37.7333 229.352 38.096 229.261 38.416 229.08C38.736 228.888 38.992 228.632 39.184 228.312C39.3867 227.981 39.488 227.608 39.488 227.192C39.488 226.552 39.264 226.035 38.816 225.64C38.3787 225.235 37.808 225.032 37.104 225.032H34.848V229.352ZM46.9596 235.192C46.181 235.192 45.493 235.016 44.8956 234.664C44.2983 234.301 43.829 233.805 43.4876 233.176C43.157 232.547 42.9916 231.821 42.9916 231C42.9916 230.179 43.157 229.453 43.4876 228.824C43.829 228.195 44.293 227.704 44.8796 227.352C45.477 226.989 46.1596 226.808 46.9276 226.808C47.6743 226.808 48.3196 226.995 48.8636 227.368C49.4076 227.731 49.829 228.243 50.1276 228.904C50.4263 229.565 50.5756 230.344 50.5756 231.24H43.9676L44.2876 230.968C44.2876 231.608 44.3996 232.157 44.6236 232.616C44.8583 233.075 45.1836 233.427 45.5996 233.672C46.0156 233.907 46.4903 234.024 47.0236 234.024C47.589 234.024 48.0636 233.891 48.4476 233.624C48.8423 233.357 49.1463 233.005 49.3596 232.568L50.4636 233.128C50.261 233.544 49.989 233.907 49.6476 234.216C49.317 234.525 48.9223 234.765 48.4636 234.936C48.0156 235.107 47.5143 235.192 46.9596 235.192ZM44.3676 230.424L44.0316 230.168H49.5516L49.2156 230.44C49.2156 229.928 49.1143 229.485 48.9116 229.112C48.709 228.739 48.437 228.451 48.0956 228.248C47.7543 228.045 47.3596 227.944 46.9116 227.944C46.4743 227.944 46.0583 228.045 45.6636 228.248C45.2796 228.451 44.965 228.739 44.7196 229.112C44.485 229.475 44.3676 229.912 44.3676 230.424ZM53.822 225.128C53.6087 225.128 53.422 225.048 53.262 224.888C53.102 224.728 53.022 224.541 53.022 224.328C53.022 224.093 53.102 223.901 53.262 223.752C53.422 223.592 53.6087 223.512 53.822 223.512C54.046 223.512 54.238 223.592 54.398 223.752C54.558 223.901 54.638 224.093 54.638 224.328C54.638 224.541 54.558 224.728 54.398 224.888C54.238 225.048 54.046 225.128 53.822 225.128ZM52.046 238.44C51.6513 238.44 51.15 238.301 50.542 238.024L51.022 236.952C51.278 237.048 51.4913 237.123 51.662 237.176C51.8433 237.229 51.9873 237.256 52.094 237.256C52.8193 237.256 53.182 236.792 53.182 235.864V227H54.462V235.896C54.462 236.728 54.2593 237.357 53.854 237.784C53.4487 238.221 52.846 238.44 52.046 238.44ZM60.6309 235.192C59.8522 235.192 59.1642 235.016 58.5669 234.664C57.9695 234.301 57.5002 233.805 57.1589 233.176C56.8282 232.547 56.6629 231.821 56.6629 231C56.6629 230.179 56.8282 229.453 57.1589 228.824C57.5002 228.195 57.9642 227.704 58.5509 227.352C59.1482 226.989 59.8309 226.808 60.5989 226.808C61.3455 226.808 61.9909 226.995 62.5349 227.368C63.0789 227.731 63.5002 228.243 63.7989 228.904C64.0975 229.565 64.2469 230.344 64.2469 231.24H57.6389L57.9589 230.968C57.9589 231.608 58.0709 232.157 58.2949 232.616C58.5295 233.075 58.8549 233.427 59.2709 233.672C59.6869 233.907 60.1615 234.024 60.6949 234.024C61.2602 234.024 61.7349 233.891 62.1189 233.624C62.5135 233.357 62.8175 233.005 63.0309 232.568L64.1349 233.128C63.9322 233.544 63.6602 233.907 63.3189 234.216C62.9882 234.525 62.5935 234.765 62.1349 234.936C61.6869 235.107 61.1855 235.192 60.6309 235.192ZM58.0389 230.424L57.7029 230.168H63.2229L62.8869 230.44C62.8869 229.928 62.7855 229.485 62.5829 229.112C62.3802 228.739 62.1082 228.451 61.7669 228.248C61.4255 228.045 61.0309 227.944 60.5829 227.944C60.1455 227.944 59.7295 228.045 59.3349 228.248C58.9509 228.451 58.6362 228.739 58.3909 229.112C58.1562 229.475 58.0389 229.912 58.0389 230.424ZM69.7492 235.192C68.9599 235.192 68.2612 235.016 67.6532 234.664C67.0452 234.301 66.5706 233.805 66.2292 233.176C65.8879 232.547 65.7172 231.821 65.7172 231C65.7172 230.179 65.8826 229.453 66.2132 228.824C66.5546 228.195 67.0292 227.704 67.6372 227.352C68.2452 226.989 68.9386 226.808 69.7172 226.808C70.4852 226.808 71.1732 226.984 71.7812 227.336C72.3892 227.688 72.8532 228.184 73.1732 228.824L72.0052 229.352C71.7919 228.925 71.4826 228.595 71.0772 228.36C70.6719 228.115 70.2079 227.992 69.6852 227.992C69.1626 227.992 68.6986 228.12 68.2932 228.376C67.8986 228.632 67.5839 228.989 67.3492 229.448C67.1252 229.896 67.0132 230.413 67.0132 231C67.0132 231.587 67.1252 232.109 67.3492 232.568C67.5839 233.016 67.9039 233.368 68.3092 233.624C68.7252 233.88 69.1946 234.008 69.7172 234.008C70.2399 234.008 70.7039 233.875 71.1092 233.608C71.5252 233.341 71.8399 232.968 72.0532 232.488L73.2212 233.016C72.9012 233.699 72.4372 234.232 71.8292 234.616C71.2212 235 70.5279 235.192 69.7492 235.192ZM78.1655 235.192C77.3868 235.192 76.7842 234.989 76.3575 234.584C75.9308 234.179 75.7175 233.608 75.7175 232.872V224.504H76.9975V232.744C76.9975 233.149 77.1042 233.464 77.3175 233.688C77.5415 233.901 77.8508 234.008 78.2455 234.008C78.3735 234.008 78.4962 233.992 78.6135 233.96C78.7415 233.917 78.9068 233.821 79.1095 233.672L79.6055 234.712C79.3282 234.893 79.0775 235.016 78.8535 235.08C78.6295 235.155 78.4002 235.192 78.1655 235.192ZM74.3255 228.136V227H79.3975V228.136H74.3255ZM84.9815 235.192C84.2028 235.192 83.5148 235.016 82.9175 234.664C82.3202 234.301 81.8508 233.805 81.5095 233.176C81.1788 232.547 81.0135 231.821 81.0135 231C81.0135 230.179 81.1788 229.453 81.5095 228.824C81.8508 228.195 82.3148 227.704 82.9015 227.352C83.4988 226.989 84.1815 226.808 84.9495 226.808C85.6962 226.808 86.3415 226.995 86.8855 227.368C87.4295 227.731 87.8508 228.243 88.1495 228.904C88.4482 229.565 88.5975 230.344 88.5975 231.24H81.9895L82.3095 230.968C82.3095 231.608 82.4215 232.157 82.6455 232.616C82.8802 233.075 83.2055 233.427 83.6215 233.672C84.0375 233.907 84.5122 234.024 85.0455 234.024C85.6108 234.024 86.0855 233.891 86.4695 233.624C86.8642 233.357 87.1682 233.005 87.3815 232.568L88.4855 233.128C88.2828 233.544 88.0108 233.907 87.6695 234.216C87.3388 234.525 86.9442 234.765 86.4855 234.936C86.0375 235.107 85.5362 235.192 84.9815 235.192ZM82.3895 230.424L82.0535 230.168H87.5735L87.2375 230.44C87.2375 229.928 87.1362 229.485 86.9335 229.112C86.7308 228.739 86.4588 228.451 86.1175 228.248C85.7762 228.045 85.3815 227.944 84.9335 227.944C84.4962 227.944 84.0802 228.045 83.6855 228.248C83.3015 228.451 82.9868 228.739 82.7415 229.112C82.5068 229.475 82.3895 229.912 82.3895 230.424ZM96.4519 235L96.3879 233.512V223.8H97.6679V235H96.4519ZM93.6839 235.192C92.9692 235.192 92.3399 235.016 91.7959 234.664C91.2519 234.312 90.8252 233.821 90.5159 233.192C90.2172 232.552 90.0679 231.821 90.0679 231C90.0679 230.168 90.2172 229.437 90.5159 228.808C90.8252 228.179 91.2519 227.688 91.7959 227.336C92.3399 226.984 92.9692 226.808 93.6839 226.808C94.3559 226.808 94.9425 226.984 95.4439 227.336C95.9559 227.688 96.3505 228.179 96.6279 228.808C96.9052 229.437 97.0439 230.168 97.0439 231C97.0439 231.821 96.9052 232.552 96.6279 233.192C96.3505 233.821 95.9559 234.312 95.4439 234.664C94.9425 235.016 94.3559 235.192 93.6839 235.192ZM93.9719 234.024C94.4412 234.024 94.8572 233.896 95.2199 233.64C95.5825 233.384 95.8652 233.027 96.0679 232.568C96.2812 232.109 96.3879 231.587 96.3879 231C96.3879 230.413 96.2812 229.891 96.0679 229.432C95.8652 228.973 95.5825 228.616 95.2199 228.36C94.8572 228.104 94.4359 227.976 93.9559 227.976C93.4545 227.976 93.0065 228.104 92.6119 228.36C92.2279 228.616 91.9239 228.973 91.6999 229.432C91.4759 229.891 91.3639 230.413 91.3639 231C91.3639 231.587 91.4759 232.109 91.6999 232.568C91.9239 233.027 92.2332 233.384 92.6279 233.64C93.0225 233.896 93.4705 234.024 93.9719 234.024Z" fill="#3D3D4F"/>
<defs>
<linearGradient id="paint0_linear_2393_2353" x1="270" y1="68.9377" x2="194.836" y2="206.555" gradientUnits="userSpaceOnUse">
<stop stop-color="#359BFF"/>
<stop offset="1" stop-color="#4F6BCF"/>
</linearGradient>
<linearGradient id="paint1_linear_2393_2353" x1="60" y1="82.341" x2="58.692" y2="82.3673" gradientUnits="userSpaceOnUse">
<stop stop-color="#359BFF"/>
<stop offset="1" stop-color="#4F6BCF"/>
</linearGradient>
<linearGradient id="paint2_linear_2393_2353" x1="75" y1="60.341" x2="43.4394" y2="85.1304" gradientUnits="userSpaceOnUse">
<stop stop-color="#359BFF"/>
<stop offset="1" stop-color="#4F6BCF"/>
</linearGradient>
<linearGradient id="paint3_linear_2393_2353" x1="270" y1="132.852" x2="194.281" y2="184.701" gradientUnits="userSpaceOnUse">
<stop stop-color="#359BFF"/>
<stop offset="1" stop-color="#4F6BCF"/>
</linearGradient>
<clipPath id="clip0_2393_2353">
<rect x="228" y="70" width="40" height="40" rx="20" fill="white"/>
</clipPath>
<clipPath id="clip1_2393_2353">
<rect x="69" y="132" width="106" height="40" rx="8" fill="white"/>
</clipPath>
<clipPath id="clip2_2393_2353">
<rect x="185" y="132" width="85" height="40" rx="8" fill="white"/>
</clipPath>
</defs>
</svg>
