<svg width="323" height="175" viewBox="0 0 323 175" fill="none" xmlns="http://www.w3.org/2000/svg">
<g opacity="0.7" filter="url(#filter0_d_2541_1899)">
<rect x="50.9132" y="46.9141" width="221.245" height="74" rx="16" fill="white" shape-rendering="crispEdges"/>
<rect x="65.9132" y="61.9141" width="44" height="44" rx="10" fill="#8950EB"/>
<mask id="mask0_2541_1899" style="mask-type:alpha" maskUnits="userSpaceOnUse" x="72" y="70" width="29" height="29">
<rect x="72.9108" y="70.1621" width="28" height="28" fill="#D9D9D9"/>
</mask>
<g mask="url(#mask0_2541_1899)">
<path d="M77.5772 91.1634V77.1634V83.3467V82.9967V91.1634ZM77.5772 93.4967C76.9356 93.4967 76.3863 93.2683 75.9293 92.8113C75.4724 92.3544 75.2439 91.8051 75.2439 91.1634V77.1634C75.2439 76.5217 75.4724 75.9724 75.9293 75.5155C76.3863 75.0586 76.9356 74.8301 77.5772 74.8301H84.5772L86.9106 77.1634L96.2439 77.1634C96.8856 77.1634 97.4349 77.3919 97.8918 77.8488C98.3488 78.3058 98.5772 78.8551 98.5772 79.4967V84.4842C98.2272 84.2315 97.8578 84.0127 97.4689 83.828C97.08 83.6433 96.6717 83.4829 96.2439 83.3467V79.4967L85.9481 79.4967L83.6147 77.1634H77.5772V91.1634H85.7439C85.7439 91.5717 85.7731 91.9704 85.8314 92.3592C85.8897 92.7481 85.9772 93.1273 86.0939 93.4967H77.5772ZM93.0647 93.7884L97.1189 89.7634L95.8939 88.5384L93.0647 91.3092L91.9272 90.1717L90.7022 91.4259L93.0647 93.7884ZM93.9106 85.3301C95.5245 85.3301 96.9001 85.8988 98.0376 87.0363C99.1751 88.1738 99.7439 89.5495 99.7439 91.1634C99.7439 92.7773 99.1751 94.153 98.0376 95.2905C96.9001 96.428 95.5245 96.9967 93.9106 96.9967C92.2967 96.9967 90.921 96.428 89.7835 95.2905C88.646 94.153 88.0772 92.7773 88.0772 91.1634C88.0772 89.5495 88.646 88.1738 89.7835 87.0363C90.921 85.8988 92.2967 85.3301 93.9106 85.3301Z" fill="white"/>
</g>
<path d="M126.241 80.9141V69.7141H133.137V71.4101H128.097V74.3861H132.545V76.0501H128.097V79.2181H133.185V80.9141H126.241ZM134.831 80.9141L138.111 76.3381L140.399 72.9141H142.511L139.391 77.3301L136.975 80.9141H134.831ZM140.575 80.9141L138.207 77.3301L135.039 72.9141H137.151L139.455 76.3381L142.703 80.9141H140.575ZM147.711 81.1061C146.89 81.1061 146.164 80.9301 145.535 80.5781C144.906 80.2154 144.41 79.7194 144.047 79.0901C143.695 78.4607 143.519 77.7354 143.519 76.9141C143.519 76.0927 143.695 75.3674 144.047 74.7381C144.41 74.1087 144.9 73.6181 145.519 73.2661C146.148 72.9034 146.868 72.7221 147.679 72.7221C148.468 72.7221 149.183 72.9141 149.823 73.2981C150.463 73.6714 150.938 74.2101 151.247 74.9141L149.583 75.5541C149.412 75.2021 149.151 74.9194 148.799 74.7061C148.447 74.4927 148.047 74.3861 147.599 74.3861C147.162 74.3861 146.772 74.4981 146.431 74.7221C146.09 74.9354 145.823 75.2341 145.631 75.6181C145.439 75.9914 145.343 76.4234 145.343 76.9141C145.343 77.4047 145.439 77.8421 145.631 78.2261C145.834 78.5994 146.106 78.8981 146.447 79.1221C146.799 79.3354 147.194 79.4421 147.631 79.4421C148.079 79.4421 148.479 79.3301 148.831 79.1061C149.183 78.8714 149.444 78.5567 149.615 78.1621L151.279 78.8021C150.97 79.5274 150.495 80.0927 149.855 80.4981C149.226 80.9034 148.511 81.1061 147.711 81.1061ZM156.558 81.1061C155.78 81.1061 155.086 80.9301 154.478 80.5781C153.881 80.2154 153.406 79.7194 153.054 79.0901C152.713 78.4607 152.542 77.7354 152.542 76.9141C152.542 76.0927 152.718 75.3674 153.07 74.7381C153.422 74.1087 153.902 73.6181 154.51 73.2661C155.129 72.9034 155.833 72.7221 156.622 72.7221C157.337 72.7221 157.982 72.9087 158.558 73.2821C159.134 73.6447 159.588 74.1727 159.918 74.8661C160.26 75.5594 160.43 76.3861 160.43 77.3461H154.142L154.382 77.1221C154.382 77.6127 154.489 78.0394 154.702 78.4021C154.916 78.7541 155.198 79.0261 155.55 79.2181C155.902 79.4101 156.292 79.5061 156.718 79.5061C157.209 79.5061 157.614 79.3994 157.934 79.1861C158.254 78.9621 158.505 78.6741 158.686 78.3221L160.27 78.9941C160.046 79.4207 159.758 79.7941 159.406 80.1141C159.065 80.4341 158.654 80.6794 158.174 80.8501C157.705 81.0207 157.166 81.1061 156.558 81.1061ZM154.494 76.1941L154.238 75.9701H158.75L158.51 76.1941C158.51 75.7567 158.414 75.3994 158.222 75.1221C158.03 74.8341 157.785 74.6207 157.486 74.4821C157.198 74.3327 156.894 74.2581 156.574 74.2581C156.254 74.2581 155.934 74.3327 155.614 74.4821C155.294 74.6207 155.028 74.8341 154.814 75.1221C154.601 75.3994 154.494 75.7567 154.494 76.1941ZM162.203 84.1141V72.9141H163.883L163.995 74.3861V84.1141H162.203ZM166.523 81.1061C165.851 81.1061 165.269 80.9354 164.779 80.5941C164.299 80.2421 163.931 79.7514 163.675 79.1221C163.419 78.4927 163.291 77.7567 163.291 76.9141C163.291 76.0607 163.419 75.3247 163.675 74.7061C163.931 74.0767 164.299 73.5914 164.779 73.2501C165.269 72.8981 165.851 72.7221 166.523 72.7221C167.248 72.7221 167.877 72.8981 168.411 73.2501C168.955 73.5914 169.376 74.0767 169.675 74.7061C169.984 75.3247 170.139 76.0607 170.139 76.9141C170.139 77.7567 169.984 78.4927 169.675 79.1221C169.376 79.7514 168.955 80.2421 168.411 80.5941C167.877 80.9354 167.248 81.1061 166.523 81.1061ZM166.075 79.4741C166.501 79.4741 166.88 79.3674 167.211 79.1541C167.541 78.9301 167.803 78.6261 167.995 78.2421C168.197 77.8581 168.299 77.4154 168.299 76.9141C168.299 76.4127 168.203 75.9701 168.011 75.5861C167.829 75.2021 167.573 74.9034 167.243 74.6901C166.912 74.4767 166.528 74.3701 166.091 74.3701C165.685 74.3701 165.323 74.4767 165.003 74.6901C164.683 74.9034 164.432 75.2021 164.251 75.5861C164.08 75.9701 163.995 76.4127 163.995 76.9141C163.995 77.4154 164.08 77.8581 164.251 78.2421C164.432 78.6261 164.677 78.9301 164.987 79.1541C165.307 79.3674 165.669 79.4741 166.075 79.4741ZM175.174 81.1061C174.331 81.1061 173.686 80.8981 173.238 80.4821C172.8 80.0554 172.582 79.4474 172.582 78.6581V70.4181H174.358V78.3221C174.358 78.6954 174.443 78.9781 174.614 79.1701C174.795 79.3621 175.056 79.4581 175.398 79.4581C175.504 79.4581 175.622 79.4367 175.75 79.3941C175.878 79.3514 176.022 79.2714 176.182 79.1541L176.838 80.5141C176.56 80.7061 176.283 80.8501 176.006 80.9461C175.728 81.0527 175.451 81.1061 175.174 81.1061ZM171.254 74.4501V72.9141H176.518V74.4501H171.254ZM178.703 80.9141V72.9141H180.479V80.9141H178.703ZM179.599 71.3941C179.311 71.3941 179.06 71.2927 178.847 71.0901C178.644 70.8767 178.543 70.6261 178.543 70.3381C178.543 70.0501 178.644 69.8047 178.847 69.6021C179.06 69.3994 179.311 69.2981 179.599 69.2981C179.887 69.2981 180.132 69.3994 180.335 69.6021C180.548 69.8047 180.655 70.0501 180.655 70.3381C180.655 70.6261 180.548 70.8767 180.335 71.0901C180.132 71.2927 179.887 71.3941 179.599 71.3941ZM186.591 81.1061C185.791 81.1061 185.076 80.9301 184.447 80.5781C183.828 80.2154 183.343 79.7194 182.991 79.0901C182.639 78.4607 182.463 77.7354 182.463 76.9141C182.463 76.0927 182.634 75.3674 182.975 74.7381C183.327 74.1087 183.812 73.6181 184.431 73.2661C185.05 72.9034 185.759 72.7221 186.559 72.7221C187.359 72.7221 188.068 72.9034 188.687 73.2661C189.306 73.6181 189.786 74.1087 190.127 74.7381C190.479 75.3674 190.655 76.0927 190.655 76.9141C190.655 77.7354 190.484 78.4607 190.143 79.0901C189.802 79.7194 189.322 80.2154 188.703 80.5781C188.084 80.9301 187.38 81.1061 186.591 81.1061ZM186.591 79.4581C187.028 79.4581 187.418 79.3514 187.759 79.1381C188.1 78.9141 188.367 78.6154 188.559 78.2421C188.751 77.8581 188.847 77.4154 188.847 76.9141C188.847 76.4127 188.746 75.9754 188.543 75.6021C188.351 75.2181 188.084 74.9194 187.743 74.7061C187.402 74.4821 187.007 74.3701 186.559 74.3701C186.111 74.3701 185.716 74.4767 185.375 74.6901C185.034 74.9034 184.767 75.2021 184.575 75.5861C184.383 75.9701 184.287 76.4127 184.287 76.9141C184.287 77.4154 184.383 77.8581 184.575 78.2421C184.778 78.6154 185.05 78.9141 185.391 79.1381C185.743 79.3514 186.143 79.4581 186.591 79.4581ZM192.528 80.9141V72.9141H194.208L194.32 74.3861V80.9141H192.528ZM197.952 80.9141V76.8181H199.744V80.9141H197.952ZM197.952 76.8181C197.952 76.1781 197.877 75.6874 197.728 75.3461C197.589 74.9941 197.386 74.7487 197.12 74.6101C196.864 74.4714 196.56 74.4021 196.208 74.4021C195.61 74.3914 195.146 74.5887 194.816 74.9941C194.485 75.3994 194.32 75.9807 194.32 76.7381H193.648C193.648 75.8954 193.77 75.1754 194.016 74.5781C194.261 73.9701 194.613 73.5114 195.072 73.2021C195.53 72.8821 196.074 72.7221 196.704 72.7221C197.344 72.7221 197.888 72.8501 198.336 73.1061C198.794 73.3621 199.141 73.7621 199.376 74.3061C199.621 74.8394 199.744 75.5381 199.744 76.4021V76.8181H197.952ZM206.858 80.9141V72.0661C206.858 71.2234 207.066 70.5781 207.482 70.1301C207.909 69.6714 208.549 69.4421 209.402 69.4421C209.68 69.4421 209.973 69.4901 210.282 69.5861C210.602 69.6714 210.906 69.7887 211.194 69.9381L210.538 71.2661C210.336 71.1701 210.154 71.1007 209.994 71.0581C209.845 71.0154 209.712 70.9941 209.594 70.9941C209.274 70.9941 209.034 71.1007 208.874 71.3141C208.725 71.5167 208.65 71.8527 208.65 72.3221V80.9141H206.858ZM205.482 74.3861V72.9141H210.746V74.3861H205.482ZM212.631 80.9141V72.9141H214.407V80.9141H212.631ZM213.527 71.3941C213.239 71.3941 212.988 71.2927 212.775 71.0901C212.572 70.8767 212.471 70.6261 212.471 70.3381C212.471 70.0501 212.572 69.8047 212.775 69.6021C212.988 69.3994 213.239 69.2981 213.527 69.2981C213.815 69.2981 214.06 69.3994 214.263 69.6021C214.476 69.8047 214.583 70.0501 214.583 70.3381C214.583 70.6261 214.476 70.8767 214.263 71.0901C214.06 71.2927 213.815 71.3941 213.527 71.3941ZM216.839 80.9141V69.7141H218.631V80.9141H216.839ZM224.508 81.1061C223.73 81.1061 223.036 80.9301 222.428 80.5781C221.831 80.2154 221.356 79.7194 221.004 79.0901C220.663 78.4607 220.492 77.7354 220.492 76.9141C220.492 76.0927 220.668 75.3674 221.02 74.7381C221.372 74.1087 221.852 73.6181 222.46 73.2661C223.079 72.9034 223.783 72.7221 224.572 72.7221C225.287 72.7221 225.932 72.9087 226.508 73.2821C227.084 73.6447 227.538 74.1727 227.868 74.8661C228.21 75.5594 228.38 76.3861 228.38 77.3461H222.092L222.332 77.1221C222.332 77.6127 222.439 78.0394 222.652 78.4021C222.866 78.7541 223.148 79.0261 223.5 79.2181C223.852 79.4101 224.242 79.5061 224.668 79.5061C225.159 79.5061 225.564 79.3994 225.884 79.1861C226.204 78.9621 226.455 78.6741 226.636 78.3221L228.22 78.9941C227.996 79.4207 227.708 79.7941 227.356 80.1141C227.015 80.4341 226.604 80.6794 226.124 80.8501C225.655 81.0207 225.116 81.1061 224.508 81.1061ZM222.444 76.1941L222.188 75.9701H226.7L226.46 76.1941C226.46 75.7567 226.364 75.3994 226.172 75.1221C225.98 74.8341 225.735 74.6207 225.436 74.4821C225.148 74.3327 224.844 74.2581 224.524 74.2581C224.204 74.2581 223.884 74.3327 223.564 74.4821C223.244 74.6207 222.978 74.8341 222.764 75.1221C222.551 75.3994 222.444 75.7567 222.444 76.1941ZM129.649 99.1061C128.828 99.1061 128.103 98.9301 127.473 98.5781C126.844 98.2154 126.348 97.7194 125.985 97.0901C125.633 96.4607 125.457 95.7354 125.457 94.9141C125.457 94.0927 125.633 93.3674 125.985 92.7381C126.348 92.1087 126.839 91.6181 127.457 91.2661C128.087 90.9034 128.807 90.7221 129.617 90.7221C130.407 90.7221 131.121 90.9141 131.761 91.2981C132.401 91.6714 132.876 92.2101 133.185 92.9141L131.521 93.5541C131.351 93.2021 131.089 92.9194 130.737 92.7061C130.385 92.4927 129.985 92.3861 129.537 92.3861C129.1 92.3861 128.711 92.4981 128.369 92.7221C128.028 92.9354 127.761 93.2341 127.569 93.6181C127.377 93.9914 127.281 94.4234 127.281 94.9141C127.281 95.4047 127.377 95.8421 127.569 96.2261C127.772 96.5994 128.044 96.8981 128.385 97.1221C128.737 97.3354 129.132 97.4421 129.569 97.4421C130.017 97.4421 130.417 97.3301 130.769 97.1061C131.121 96.8714 131.383 96.5567 131.553 96.1621L133.217 96.8021C132.908 97.5274 132.433 98.0927 131.793 98.4981C131.164 98.9034 130.449 99.1061 129.649 99.1061ZM136.112 94.6581C136.112 93.7941 136.278 93.0847 136.608 92.5301C136.939 91.9754 137.366 91.5647 137.888 91.2981C138.422 91.0207 138.976 90.8821 139.552 90.8821V92.5941C139.062 92.5941 138.598 92.6634 138.16 92.8021C137.734 92.9301 137.387 93.1434 137.12 93.4421C136.854 93.7407 136.72 94.1354 136.72 94.6261L136.112 94.6581ZM134.928 98.9141V90.9141H136.72V98.9141H134.928ZM144.629 99.1061C143.85 99.1061 143.157 98.9301 142.549 98.5781C141.952 98.2154 141.477 97.7194 141.125 97.0901C140.784 96.4607 140.613 95.7354 140.613 94.9141C140.613 94.0927 140.789 93.3674 141.141 92.7381C141.493 92.1087 141.973 91.6181 142.581 91.2661C143.2 90.9034 143.904 90.7221 144.693 90.7221C145.408 90.7221 146.053 90.9087 146.629 91.2821C147.205 91.6447 147.658 92.1727 147.989 92.8661C148.33 93.5594 148.501 94.3861 148.501 95.3461H142.213L142.453 95.1221C142.453 95.6127 142.56 96.0394 142.773 96.4021C142.986 96.7541 143.269 97.0261 143.621 97.2181C143.973 97.4101 144.362 97.5061 144.789 97.5061C145.28 97.5061 145.685 97.3994 146.005 97.1861C146.325 96.9621 146.576 96.6741 146.757 96.3221L148.341 96.9941C148.117 97.4207 147.829 97.7941 147.477 98.1141C147.136 98.4341 146.725 98.6794 146.245 98.8501C145.776 99.0207 145.237 99.1061 144.629 99.1061ZM142.565 94.1941L142.309 93.9701H146.821L146.581 94.1941C146.581 93.7567 146.485 93.3994 146.293 93.1221C146.101 92.8341 145.856 92.6207 145.557 92.4821C145.269 92.3327 144.965 92.2581 144.645 92.2581C144.325 92.2581 144.005 92.3327 143.685 92.4821C143.365 92.6207 143.098 92.8341 142.885 93.1221C142.672 93.3994 142.565 93.7567 142.565 94.1941ZM155.073 98.9141L154.993 97.4101V94.8021C154.993 94.2581 154.935 93.8047 154.817 93.4421C154.711 93.0687 154.529 92.7861 154.273 92.5941C154.028 92.3914 153.697 92.2901 153.281 92.2901C152.897 92.2901 152.561 92.3701 152.273 92.5301C151.985 92.6901 151.74 92.9407 151.537 93.2821L149.969 92.7061C150.14 92.3541 150.364 92.0287 150.641 91.7301C150.929 91.4207 151.287 91.1754 151.713 90.9941C152.151 90.8127 152.673 90.7221 153.281 90.7221C154.06 90.7221 154.711 90.8767 155.233 91.1861C155.756 91.4847 156.14 91.9167 156.385 92.4821C156.641 93.0474 156.769 93.7301 156.769 94.5301L156.721 98.9141H155.073ZM152.769 99.1061C151.809 99.1061 151.063 98.8927 150.529 98.4661C150.007 98.0394 149.745 97.4367 149.745 96.6581C149.745 95.8261 150.023 95.1914 150.577 94.7541C151.143 94.3167 151.927 94.0981 152.929 94.0981H155.073V95.4741H153.505C152.791 95.4741 152.289 95.5754 152.001 95.7781C151.713 95.9701 151.569 96.2474 151.569 96.6101C151.569 96.9194 151.692 97.1647 151.937 97.3461C152.193 97.5167 152.545 97.6021 152.993 97.6021C153.399 97.6021 153.751 97.5114 154.049 97.3301C154.348 97.1487 154.577 96.9087 154.737 96.6101C154.908 96.3114 154.993 95.9754 154.993 95.6021H155.521C155.521 96.6901 155.303 97.5487 154.865 98.1781C154.428 98.7967 153.729 99.1061 152.769 99.1061ZM162.088 99.1061C161.245 99.1061 160.6 98.8981 160.152 98.4821C159.715 98.0554 159.496 97.4474 159.496 96.6581V88.4181H161.272V96.3221C161.272 96.6954 161.357 96.9781 161.528 97.1701C161.709 97.3621 161.971 97.4581 162.312 97.4581C162.419 97.4581 162.536 97.4367 162.664 97.3941C162.792 97.3514 162.936 97.2714 163.096 97.1541L163.752 98.5141C163.475 98.7061 163.197 98.8501 162.92 98.9461C162.643 99.0527 162.365 99.1061 162.088 99.1061ZM158.168 92.4501V90.9141H163.432V92.4501H158.168ZM168.964 99.1061C168.185 99.1061 167.492 98.9301 166.884 98.5781C166.286 98.2154 165.812 97.7194 165.46 97.0901C165.118 96.4607 164.948 95.7354 164.948 94.9141C164.948 94.0927 165.124 93.3674 165.476 92.7381C165.828 92.1087 166.308 91.6181 166.916 91.2661C167.534 90.9034 168.238 90.7221 169.028 90.7221C169.742 90.7221 170.388 90.9087 170.964 91.2821C171.54 91.6447 171.993 92.1727 172.324 92.8661C172.665 93.5594 172.836 94.3861 172.836 95.3461H166.548L166.788 95.1221C166.788 95.6127 166.894 96.0394 167.108 96.4021C167.321 96.7541 167.604 97.0261 167.956 97.2181C168.308 97.4101 168.697 97.5061 169.124 97.5061C169.614 97.5061 170.02 97.3994 170.34 97.1861C170.66 96.9621 170.91 96.6741 171.092 96.3221L172.676 96.9941C172.452 97.4207 172.164 97.7941 171.812 98.1141C171.47 98.4341 171.06 98.6794 170.58 98.8501C170.11 99.0207 169.572 99.1061 168.964 99.1061ZM166.9 94.1941L166.644 93.9701H171.156L170.916 94.1941C170.916 93.7567 170.82 93.3994 170.628 93.1221C170.436 92.8341 170.19 92.6207 169.892 92.4821C169.604 92.3327 169.3 92.2581 168.98 92.2581C168.66 92.2581 168.34 92.3327 168.02 92.4821C167.7 92.6207 167.433 92.8341 167.22 93.1221C167.006 93.3994 166.9 93.7567 166.9 94.1941ZM180.304 98.9141L180.224 97.4261V87.7141H182V98.9141H180.304ZM177.696 99.1061C176.971 99.1061 176.336 98.9354 175.792 98.5941C175.259 98.2421 174.838 97.7514 174.528 97.1221C174.23 96.4927 174.08 95.7567 174.08 94.9141C174.08 94.0607 174.23 93.3247 174.528 92.7061C174.838 92.0767 175.259 91.5914 175.792 91.2501C176.336 90.8981 176.971 90.7221 177.696 90.7221C178.368 90.7221 178.944 90.8981 179.424 91.2501C179.915 91.5914 180.288 92.0767 180.544 92.7061C180.8 93.3247 180.928 94.0607 180.928 94.9141C180.928 95.7567 180.8 96.4927 180.544 97.1221C180.288 97.7514 179.915 98.2421 179.424 98.5941C178.944 98.9354 178.368 99.1061 177.696 99.1061ZM178.144 97.4741C178.55 97.4741 178.907 97.3674 179.216 97.1541C179.536 96.9301 179.782 96.6261 179.952 96.2421C180.134 95.8581 180.224 95.4154 180.224 94.9141C180.224 94.4127 180.134 93.9701 179.952 93.5861C179.782 93.2021 179.536 92.9034 179.216 92.6901C178.907 92.4767 178.544 92.3701 178.128 92.3701C177.702 92.3701 177.323 92.4767 176.992 92.6901C176.662 92.9034 176.4 93.2021 176.208 93.5861C176.027 93.9701 175.931 94.4127 175.92 94.9141C175.931 95.4154 176.027 95.8581 176.208 96.2421C176.4 96.6261 176.662 96.9301 176.992 97.1541C177.334 97.3674 177.718 97.4741 178.144 97.4741ZM184.893 95.4261L184.781 87.7141H186.749L186.637 95.4261H184.893ZM185.757 99.1541C185.448 99.1541 185.181 99.0421 184.957 98.8181C184.744 98.5941 184.637 98.3274 184.637 98.0181C184.637 97.7087 184.744 97.4474 184.957 97.2341C185.181 97.0101 185.448 96.8981 185.757 96.8981C186.067 96.8981 186.333 97.0101 186.557 97.2341C186.781 97.4474 186.893 97.7087 186.893 98.0181C186.893 98.3274 186.781 98.5941 186.557 98.8181C186.333 99.0421 186.067 99.1541 185.757 99.1541Z" fill="white"/>
<path d="M126.241 80.9141V69.7141H133.137V71.4101H128.097V74.3861H132.545V76.0501H128.097V79.2181H133.185V80.9141H126.241ZM134.831 80.9141L138.111 76.3381L140.399 72.9141H142.511L139.391 77.3301L136.975 80.9141H134.831ZM140.575 80.9141L138.207 77.3301L135.039 72.9141H137.151L139.455 76.3381L142.703 80.9141H140.575ZM147.711 81.1061C146.89 81.1061 146.164 80.9301 145.535 80.5781C144.906 80.2154 144.41 79.7194 144.047 79.0901C143.695 78.4607 143.519 77.7354 143.519 76.9141C143.519 76.0927 143.695 75.3674 144.047 74.7381C144.41 74.1087 144.9 73.6181 145.519 73.2661C146.148 72.9034 146.868 72.7221 147.679 72.7221C148.468 72.7221 149.183 72.9141 149.823 73.2981C150.463 73.6714 150.938 74.2101 151.247 74.9141L149.583 75.5541C149.412 75.2021 149.151 74.9194 148.799 74.7061C148.447 74.4927 148.047 74.3861 147.599 74.3861C147.162 74.3861 146.772 74.4981 146.431 74.7221C146.09 74.9354 145.823 75.2341 145.631 75.6181C145.439 75.9914 145.343 76.4234 145.343 76.9141C145.343 77.4047 145.439 77.8421 145.631 78.2261C145.834 78.5994 146.106 78.8981 146.447 79.1221C146.799 79.3354 147.194 79.4421 147.631 79.4421C148.079 79.4421 148.479 79.3301 148.831 79.1061C149.183 78.8714 149.444 78.5567 149.615 78.1621L151.279 78.8021C150.97 79.5274 150.495 80.0927 149.855 80.4981C149.226 80.9034 148.511 81.1061 147.711 81.1061ZM156.558 81.1061C155.78 81.1061 155.086 80.9301 154.478 80.5781C153.881 80.2154 153.406 79.7194 153.054 79.0901C152.713 78.4607 152.542 77.7354 152.542 76.9141C152.542 76.0927 152.718 75.3674 153.07 74.7381C153.422 74.1087 153.902 73.6181 154.51 73.2661C155.129 72.9034 155.833 72.7221 156.622 72.7221C157.337 72.7221 157.982 72.9087 158.558 73.2821C159.134 73.6447 159.588 74.1727 159.918 74.8661C160.26 75.5594 160.43 76.3861 160.43 77.3461H154.142L154.382 77.1221C154.382 77.6127 154.489 78.0394 154.702 78.4021C154.916 78.7541 155.198 79.0261 155.55 79.2181C155.902 79.4101 156.292 79.5061 156.718 79.5061C157.209 79.5061 157.614 79.3994 157.934 79.1861C158.254 78.9621 158.505 78.6741 158.686 78.3221L160.27 78.9941C160.046 79.4207 159.758 79.7941 159.406 80.1141C159.065 80.4341 158.654 80.6794 158.174 80.8501C157.705 81.0207 157.166 81.1061 156.558 81.1061ZM154.494 76.1941L154.238 75.9701H158.75L158.51 76.1941C158.51 75.7567 158.414 75.3994 158.222 75.1221C158.03 74.8341 157.785 74.6207 157.486 74.4821C157.198 74.3327 156.894 74.2581 156.574 74.2581C156.254 74.2581 155.934 74.3327 155.614 74.4821C155.294 74.6207 155.028 74.8341 154.814 75.1221C154.601 75.3994 154.494 75.7567 154.494 76.1941ZM162.203 84.1141V72.9141H163.883L163.995 74.3861V84.1141H162.203ZM166.523 81.1061C165.851 81.1061 165.269 80.9354 164.779 80.5941C164.299 80.2421 163.931 79.7514 163.675 79.1221C163.419 78.4927 163.291 77.7567 163.291 76.9141C163.291 76.0607 163.419 75.3247 163.675 74.7061C163.931 74.0767 164.299 73.5914 164.779 73.2501C165.269 72.8981 165.851 72.7221 166.523 72.7221C167.248 72.7221 167.877 72.8981 168.411 73.2501C168.955 73.5914 169.376 74.0767 169.675 74.7061C169.984 75.3247 170.139 76.0607 170.139 76.9141C170.139 77.7567 169.984 78.4927 169.675 79.1221C169.376 79.7514 168.955 80.2421 168.411 80.5941C167.877 80.9354 167.248 81.1061 166.523 81.1061ZM166.075 79.4741C166.501 79.4741 166.88 79.3674 167.211 79.1541C167.541 78.9301 167.803 78.6261 167.995 78.2421C168.197 77.8581 168.299 77.4154 168.299 76.9141C168.299 76.4127 168.203 75.9701 168.011 75.5861C167.829 75.2021 167.573 74.9034 167.243 74.6901C166.912 74.4767 166.528 74.3701 166.091 74.3701C165.685 74.3701 165.323 74.4767 165.003 74.6901C164.683 74.9034 164.432 75.2021 164.251 75.5861C164.08 75.9701 163.995 76.4127 163.995 76.9141C163.995 77.4154 164.08 77.8581 164.251 78.2421C164.432 78.6261 164.677 78.9301 164.987 79.1541C165.307 79.3674 165.669 79.4741 166.075 79.4741ZM175.174 81.1061C174.331 81.1061 173.686 80.8981 173.238 80.4821C172.8 80.0554 172.582 79.4474 172.582 78.6581V70.4181H174.358V78.3221C174.358 78.6954 174.443 78.9781 174.614 79.1701C174.795 79.3621 175.056 79.4581 175.398 79.4581C175.504 79.4581 175.622 79.4367 175.75 79.3941C175.878 79.3514 176.022 79.2714 176.182 79.1541L176.838 80.5141C176.56 80.7061 176.283 80.8501 176.006 80.9461C175.728 81.0527 175.451 81.1061 175.174 81.1061ZM171.254 74.4501V72.9141H176.518V74.4501H171.254ZM178.703 80.9141V72.9141H180.479V80.9141H178.703ZM179.599 71.3941C179.311 71.3941 179.06 71.2927 178.847 71.0901C178.644 70.8767 178.543 70.6261 178.543 70.3381C178.543 70.0501 178.644 69.8047 178.847 69.6021C179.06 69.3994 179.311 69.2981 179.599 69.2981C179.887 69.2981 180.132 69.3994 180.335 69.6021C180.548 69.8047 180.655 70.0501 180.655 70.3381C180.655 70.6261 180.548 70.8767 180.335 71.0901C180.132 71.2927 179.887 71.3941 179.599 71.3941ZM186.591 81.1061C185.791 81.1061 185.076 80.9301 184.447 80.5781C183.828 80.2154 183.343 79.7194 182.991 79.0901C182.639 78.4607 182.463 77.7354 182.463 76.9141C182.463 76.0927 182.634 75.3674 182.975 74.7381C183.327 74.1087 183.812 73.6181 184.431 73.2661C185.05 72.9034 185.759 72.7221 186.559 72.7221C187.359 72.7221 188.068 72.9034 188.687 73.2661C189.306 73.6181 189.786 74.1087 190.127 74.7381C190.479 75.3674 190.655 76.0927 190.655 76.9141C190.655 77.7354 190.484 78.4607 190.143 79.0901C189.802 79.7194 189.322 80.2154 188.703 80.5781C188.084 80.9301 187.38 81.1061 186.591 81.1061ZM186.591 79.4581C187.028 79.4581 187.418 79.3514 187.759 79.1381C188.1 78.9141 188.367 78.6154 188.559 78.2421C188.751 77.8581 188.847 77.4154 188.847 76.9141C188.847 76.4127 188.746 75.9754 188.543 75.6021C188.351 75.2181 188.084 74.9194 187.743 74.7061C187.402 74.4821 187.007 74.3701 186.559 74.3701C186.111 74.3701 185.716 74.4767 185.375 74.6901C185.034 74.9034 184.767 75.2021 184.575 75.5861C184.383 75.9701 184.287 76.4127 184.287 76.9141C184.287 77.4154 184.383 77.8581 184.575 78.2421C184.778 78.6154 185.05 78.9141 185.391 79.1381C185.743 79.3514 186.143 79.4581 186.591 79.4581ZM192.528 80.9141V72.9141H194.208L194.32 74.3861V80.9141H192.528ZM197.952 80.9141V76.8181H199.744V80.9141H197.952ZM197.952 76.8181C197.952 76.1781 197.877 75.6874 197.728 75.3461C197.589 74.9941 197.386 74.7487 197.12 74.6101C196.864 74.4714 196.56 74.4021 196.208 74.4021C195.61 74.3914 195.146 74.5887 194.816 74.9941C194.485 75.3994 194.32 75.9807 194.32 76.7381H193.648C193.648 75.8954 193.77 75.1754 194.016 74.5781C194.261 73.9701 194.613 73.5114 195.072 73.2021C195.53 72.8821 196.074 72.7221 196.704 72.7221C197.344 72.7221 197.888 72.8501 198.336 73.1061C198.794 73.3621 199.141 73.7621 199.376 74.3061C199.621 74.8394 199.744 75.5381 199.744 76.4021V76.8181H197.952ZM206.858 80.9141V72.0661C206.858 71.2234 207.066 70.5781 207.482 70.1301C207.909 69.6714 208.549 69.4421 209.402 69.4421C209.68 69.4421 209.973 69.4901 210.282 69.5861C210.602 69.6714 210.906 69.7887 211.194 69.9381L210.538 71.2661C210.336 71.1701 210.154 71.1007 209.994 71.0581C209.845 71.0154 209.712 70.9941 209.594 70.9941C209.274 70.9941 209.034 71.1007 208.874 71.3141C208.725 71.5167 208.65 71.8527 208.65 72.3221V80.9141H206.858ZM205.482 74.3861V72.9141H210.746V74.3861H205.482ZM212.631 80.9141V72.9141H214.407V80.9141H212.631ZM213.527 71.3941C213.239 71.3941 212.988 71.2927 212.775 71.0901C212.572 70.8767 212.471 70.6261 212.471 70.3381C212.471 70.0501 212.572 69.8047 212.775 69.6021C212.988 69.3994 213.239 69.2981 213.527 69.2981C213.815 69.2981 214.06 69.3994 214.263 69.6021C214.476 69.8047 214.583 70.0501 214.583 70.3381C214.583 70.6261 214.476 70.8767 214.263 71.0901C214.06 71.2927 213.815 71.3941 213.527 71.3941ZM216.839 80.9141V69.7141H218.631V80.9141H216.839ZM224.508 81.1061C223.73 81.1061 223.036 80.9301 222.428 80.5781C221.831 80.2154 221.356 79.7194 221.004 79.0901C220.663 78.4607 220.492 77.7354 220.492 76.9141C220.492 76.0927 220.668 75.3674 221.02 74.7381C221.372 74.1087 221.852 73.6181 222.46 73.2661C223.079 72.9034 223.783 72.7221 224.572 72.7221C225.287 72.7221 225.932 72.9087 226.508 73.2821C227.084 73.6447 227.538 74.1727 227.868 74.8661C228.21 75.5594 228.38 76.3861 228.38 77.3461H222.092L222.332 77.1221C222.332 77.6127 222.439 78.0394 222.652 78.4021C222.866 78.7541 223.148 79.0261 223.5 79.2181C223.852 79.4101 224.242 79.5061 224.668 79.5061C225.159 79.5061 225.564 79.3994 225.884 79.1861C226.204 78.9621 226.455 78.6741 226.636 78.3221L228.22 78.9941C227.996 79.4207 227.708 79.7941 227.356 80.1141C227.015 80.4341 226.604 80.6794 226.124 80.8501C225.655 81.0207 225.116 81.1061 224.508 81.1061ZM222.444 76.1941L222.188 75.9701H226.7L226.46 76.1941C226.46 75.7567 226.364 75.3994 226.172 75.1221C225.98 74.8341 225.735 74.6207 225.436 74.4821C225.148 74.3327 224.844 74.2581 224.524 74.2581C224.204 74.2581 223.884 74.3327 223.564 74.4821C223.244 74.6207 222.978 74.8341 222.764 75.1221C222.551 75.3994 222.444 75.7567 222.444 76.1941ZM129.649 99.1061C128.828 99.1061 128.103 98.9301 127.473 98.5781C126.844 98.2154 126.348 97.7194 125.985 97.0901C125.633 96.4607 125.457 95.7354 125.457 94.9141C125.457 94.0927 125.633 93.3674 125.985 92.7381C126.348 92.1087 126.839 91.6181 127.457 91.2661C128.087 90.9034 128.807 90.7221 129.617 90.7221C130.407 90.7221 131.121 90.9141 131.761 91.2981C132.401 91.6714 132.876 92.2101 133.185 92.9141L131.521 93.5541C131.351 93.2021 131.089 92.9194 130.737 92.7061C130.385 92.4927 129.985 92.3861 129.537 92.3861C129.1 92.3861 128.711 92.4981 128.369 92.7221C128.028 92.9354 127.761 93.2341 127.569 93.6181C127.377 93.9914 127.281 94.4234 127.281 94.9141C127.281 95.4047 127.377 95.8421 127.569 96.2261C127.772 96.5994 128.044 96.8981 128.385 97.1221C128.737 97.3354 129.132 97.4421 129.569 97.4421C130.017 97.4421 130.417 97.3301 130.769 97.1061C131.121 96.8714 131.383 96.5567 131.553 96.1621L133.217 96.8021C132.908 97.5274 132.433 98.0927 131.793 98.4981C131.164 98.9034 130.449 99.1061 129.649 99.1061ZM136.112 94.6581C136.112 93.7941 136.278 93.0847 136.608 92.5301C136.939 91.9754 137.366 91.5647 137.888 91.2981C138.422 91.0207 138.976 90.8821 139.552 90.8821V92.5941C139.062 92.5941 138.598 92.6634 138.16 92.8021C137.734 92.9301 137.387 93.1434 137.12 93.4421C136.854 93.7407 136.72 94.1354 136.72 94.6261L136.112 94.6581ZM134.928 98.9141V90.9141H136.72V98.9141H134.928ZM144.629 99.1061C143.85 99.1061 143.157 98.9301 142.549 98.5781C141.952 98.2154 141.477 97.7194 141.125 97.0901C140.784 96.4607 140.613 95.7354 140.613 94.9141C140.613 94.0927 140.789 93.3674 141.141 92.7381C141.493 92.1087 141.973 91.6181 142.581 91.2661C143.2 90.9034 143.904 90.7221 144.693 90.7221C145.408 90.7221 146.053 90.9087 146.629 91.2821C147.205 91.6447 147.658 92.1727 147.989 92.8661C148.33 93.5594 148.501 94.3861 148.501 95.3461H142.213L142.453 95.1221C142.453 95.6127 142.56 96.0394 142.773 96.4021C142.986 96.7541 143.269 97.0261 143.621 97.2181C143.973 97.4101 144.362 97.5061 144.789 97.5061C145.28 97.5061 145.685 97.3994 146.005 97.1861C146.325 96.9621 146.576 96.6741 146.757 96.3221L148.341 96.9941C148.117 97.4207 147.829 97.7941 147.477 98.1141C147.136 98.4341 146.725 98.6794 146.245 98.8501C145.776 99.0207 145.237 99.1061 144.629 99.1061ZM142.565 94.1941L142.309 93.9701H146.821L146.581 94.1941C146.581 93.7567 146.485 93.3994 146.293 93.1221C146.101 92.8341 145.856 92.6207 145.557 92.4821C145.269 92.3327 144.965 92.2581 144.645 92.2581C144.325 92.2581 144.005 92.3327 143.685 92.4821C143.365 92.6207 143.098 92.8341 142.885 93.1221C142.672 93.3994 142.565 93.7567 142.565 94.1941ZM155.073 98.9141L154.993 97.4101V94.8021C154.993 94.2581 154.935 93.8047 154.817 93.4421C154.711 93.0687 154.529 92.7861 154.273 92.5941C154.028 92.3914 153.697 92.2901 153.281 92.2901C152.897 92.2901 152.561 92.3701 152.273 92.5301C151.985 92.6901 151.74 92.9407 151.537 93.2821L149.969 92.7061C150.14 92.3541 150.364 92.0287 150.641 91.7301C150.929 91.4207 151.287 91.1754 151.713 90.9941C152.151 90.8127 152.673 90.7221 153.281 90.7221C154.06 90.7221 154.711 90.8767 155.233 91.1861C155.756 91.4847 156.14 91.9167 156.385 92.4821C156.641 93.0474 156.769 93.7301 156.769 94.5301L156.721 98.9141H155.073ZM152.769 99.1061C151.809 99.1061 151.063 98.8927 150.529 98.4661C150.007 98.0394 149.745 97.4367 149.745 96.6581C149.745 95.8261 150.023 95.1914 150.577 94.7541C151.143 94.3167 151.927 94.0981 152.929 94.0981H155.073V95.4741H153.505C152.791 95.4741 152.289 95.5754 152.001 95.7781C151.713 95.9701 151.569 96.2474 151.569 96.6101C151.569 96.9194 151.692 97.1647 151.937 97.3461C152.193 97.5167 152.545 97.6021 152.993 97.6021C153.399 97.6021 153.751 97.5114 154.049 97.3301C154.348 97.1487 154.577 96.9087 154.737 96.6101C154.908 96.3114 154.993 95.9754 154.993 95.6021H155.521C155.521 96.6901 155.303 97.5487 154.865 98.1781C154.428 98.7967 153.729 99.1061 152.769 99.1061ZM162.088 99.1061C161.245 99.1061 160.6 98.8981 160.152 98.4821C159.715 98.0554 159.496 97.4474 159.496 96.6581V88.4181H161.272V96.3221C161.272 96.6954 161.357 96.9781 161.528 97.1701C161.709 97.3621 161.971 97.4581 162.312 97.4581C162.419 97.4581 162.536 97.4367 162.664 97.3941C162.792 97.3514 162.936 97.2714 163.096 97.1541L163.752 98.5141C163.475 98.7061 163.197 98.8501 162.92 98.9461C162.643 99.0527 162.365 99.1061 162.088 99.1061ZM158.168 92.4501V90.9141H163.432V92.4501H158.168ZM168.964 99.1061C168.185 99.1061 167.492 98.9301 166.884 98.5781C166.286 98.2154 165.812 97.7194 165.46 97.0901C165.118 96.4607 164.948 95.7354 164.948 94.9141C164.948 94.0927 165.124 93.3674 165.476 92.7381C165.828 92.1087 166.308 91.6181 166.916 91.2661C167.534 90.9034 168.238 90.7221 169.028 90.7221C169.742 90.7221 170.388 90.9087 170.964 91.2821C171.54 91.6447 171.993 92.1727 172.324 92.8661C172.665 93.5594 172.836 94.3861 172.836 95.3461H166.548L166.788 95.1221C166.788 95.6127 166.894 96.0394 167.108 96.4021C167.321 96.7541 167.604 97.0261 167.956 97.2181C168.308 97.4101 168.697 97.5061 169.124 97.5061C169.614 97.5061 170.02 97.3994 170.34 97.1861C170.66 96.9621 170.91 96.6741 171.092 96.3221L172.676 96.9941C172.452 97.4207 172.164 97.7941 171.812 98.1141C171.47 98.4341 171.06 98.6794 170.58 98.8501C170.11 99.0207 169.572 99.1061 168.964 99.1061ZM166.9 94.1941L166.644 93.9701H171.156L170.916 94.1941C170.916 93.7567 170.82 93.3994 170.628 93.1221C170.436 92.8341 170.19 92.6207 169.892 92.4821C169.604 92.3327 169.3 92.2581 168.98 92.2581C168.66 92.2581 168.34 92.3327 168.02 92.4821C167.7 92.6207 167.433 92.8341 167.22 93.1221C167.006 93.3994 166.9 93.7567 166.9 94.1941ZM180.304 98.9141L180.224 97.4261V87.7141H182V98.9141H180.304ZM177.696 99.1061C176.971 99.1061 176.336 98.9354 175.792 98.5941C175.259 98.2421 174.838 97.7514 174.528 97.1221C174.23 96.4927 174.08 95.7567 174.08 94.9141C174.08 94.0607 174.23 93.3247 174.528 92.7061C174.838 92.0767 175.259 91.5914 175.792 91.2501C176.336 90.8981 176.971 90.7221 177.696 90.7221C178.368 90.7221 178.944 90.8981 179.424 91.2501C179.915 91.5914 180.288 92.0767 180.544 92.7061C180.8 93.3247 180.928 94.0607 180.928 94.9141C180.928 95.7567 180.8 96.4927 180.544 97.1221C180.288 97.7514 179.915 98.2421 179.424 98.5941C178.944 98.9354 178.368 99.1061 177.696 99.1061ZM178.144 97.4741C178.55 97.4741 178.907 97.3674 179.216 97.1541C179.536 96.9301 179.782 96.6261 179.952 96.2421C180.134 95.8581 180.224 95.4154 180.224 94.9141C180.224 94.4127 180.134 93.9701 179.952 93.5861C179.782 93.2021 179.536 92.9034 179.216 92.6901C178.907 92.4767 178.544 92.3701 178.128 92.3701C177.702 92.3701 177.323 92.4767 176.992 92.6901C176.662 92.9034 176.4 93.2021 176.208 93.5861C176.027 93.9701 175.931 94.4127 175.92 94.9141C175.931 95.4154 176.027 95.8581 176.208 96.2421C176.4 96.6261 176.662 96.9301 176.992 97.1541C177.334 97.3674 177.718 97.4741 178.144 97.4741ZM184.893 95.4261L184.781 87.7141H186.749L186.637 95.4261H184.893ZM185.757 99.1541C185.448 99.1541 185.181 99.0421 184.957 98.8181C184.744 98.5941 184.637 98.3274 184.637 98.0181C184.637 97.7087 184.744 97.4474 184.957 97.2341C185.181 97.0101 185.448 96.8981 185.757 96.8981C186.067 96.8981 186.333 97.0101 186.557 97.2341C186.781 97.4474 186.893 97.7087 186.893 98.0181C186.893 98.3274 186.781 98.5941 186.557 98.8181C186.333 99.0421 186.067 99.1541 185.757 99.1541Z" fill="#282828"/>
</g>
<circle cx="267.187" cy="46.9672" r="10.2953" fill="white"/>
<path d="M266.935 53.6277L273.544 41.6427L271.164 40.3304L265.868 49.9354L261.023 47.2639L259.71 49.6439L266.935 53.6277ZM270.841 60.2147C269.016 60.7422 267.202 60.8918 265.397 60.6634C263.593 60.435 261.926 59.899 260.396 59.0554C258.866 58.2118 257.522 57.0879 256.366 55.6837C255.21 54.2795 254.368 52.6653 253.841 50.8411C253.313 49.0169 253.163 47.2026 253.392 45.398C253.62 43.5934 254.156 41.9261 255 40.3961C255.843 38.8661 256.967 37.523 258.372 36.3667C259.776 35.2105 261.39 34.3686 263.214 33.8411C265.038 33.3136 266.853 33.1641 268.657 33.3924C270.462 33.6208 272.129 34.1568 273.659 35.0004C275.189 35.844 276.532 36.968 277.689 38.3722C278.845 39.7764 279.687 41.3905 280.214 43.2147C280.742 45.0389 280.891 46.8533 280.663 48.6579C280.434 50.4625 279.898 52.1297 279.055 53.6597C278.211 55.1898 277.087 56.5329 275.683 57.6891C274.279 58.8454 272.665 59.6872 270.841 60.2147Z" fill="#62D264"/>
<defs>
<filter id="filter0_d_2541_1899" x="0.913208" y="0.914062" width="321.245" height="174" filterUnits="userSpaceOnUse" color-interpolation-filters="sRGB">
<feFlood flood-opacity="0" result="BackgroundImageFix"/>
<feColorMatrix in="SourceAlpha" type="matrix" values="0 0 0 0 0 0 0 0 0 0 0 0 0 0 0 0 0 0 127 0" result="hardAlpha"/>
<feOffset dy="4"/>
<feGaussianBlur stdDeviation="25"/>
<feComposite in2="hardAlpha" operator="out"/>
<feColorMatrix type="matrix" values="0 0 0 0 0 0 0 0 0 0 0 0 0 0 0 0 0 0 0.1 0"/>
<feBlend mode="normal" in2="BackgroundImageFix" result="effect1_dropShadow_2541_1899"/>
<feBlend mode="normal" in="SourceGraphic" in2="effect1_dropShadow_2541_1899" result="shape"/>
</filter>
</defs>
</svg>
