<svg width="600" height="410" viewBox="0 0 600 410" fill="none" xmlns="http://www.w3.org/2000/svg">
<rect width="600" height="410" rx="26" fill="#FDFDFD"/>
<g clip-path="url(#clip0_2356_3378)">
<path d="M81.2078 144.516H82.1522" stroke="#C0C0C0" stroke-miterlimit="10"/>
<path d="M84.9855 144.516H550.639" stroke="#C0C0C0" stroke-miterlimit="10" stroke-dasharray="2 3"/>
<path d="M552.056 144.516H553" stroke="#C0C0C0" stroke-miterlimit="10"/>
<path d="M81.2078 196.506H82.1522" stroke="#C0C0C0" stroke-miterlimit="10"/>
<path d="M84.9855 196.506H550.639" stroke="#C0C0C0" stroke-miterlimit="10" stroke-dasharray="2 3"/>
<path d="M552.056 196.506H553" stroke="#C0C0C0" stroke-miterlimit="10"/>
<path d="M81.2078 248.494H82.1522" stroke="#C0C0C0" stroke-miterlimit="10"/>
<path d="M84.9855 248.494H550.639" stroke="#C0C0C0" stroke-miterlimit="10" stroke-dasharray="2 3"/>
<path d="M552.056 248.494H553" stroke="#C0C0C0" stroke-miterlimit="10"/>
<path d="M81.2078 299.538H82.1522" stroke="#C0C0C0" stroke-miterlimit="10"/>
<path d="M84.9855 299.538H550.639" stroke="#C0C0C0" stroke-miterlimit="10" stroke-dasharray="2 3"/>
<path d="M552.056 299.538H553" stroke="#C0C0C0" stroke-miterlimit="10"/>
<path d="M184.413 350.809V349.863" stroke="#C0C0C0" stroke-miterlimit="10"/>
<path d="M184.413 347V96.0156" stroke="#C0C0C0" stroke-miterlimit="10" stroke-dasharray="2.02 3.02"/>
<path d="M184.413 94.5878V93.6426" stroke="#C0C0C0" stroke-miterlimit="10"/>
<path d="M493.237 350.809V349.863" stroke="#C0C0C0" stroke-miterlimit="10"/>
<path d="M493.237 347V96.0156" stroke="#C0C0C0" stroke-miterlimit="10" stroke-dasharray="2.02 3.02"/>
<path d="M493.237 94.5878V93.6426" stroke="#C0C0C0" stroke-miterlimit="10"/>
<path d="M288.299 350.809V349.863" stroke="#C0C0C0" stroke-miterlimit="10"/>
<path d="M288.299 347V96.0156" stroke="#C0C0C0" stroke-miterlimit="10" stroke-dasharray="2.02 3.02"/>
<path d="M288.299 94.5878V93.6426" stroke="#C0C0C0" stroke-miterlimit="10"/>
<path d="M391.24 350.809V349.863" stroke="#C0C0C0" stroke-miterlimit="10"/>
<path d="M391.24 347V96.0156" stroke="#C0C0C0" stroke-miterlimit="10" stroke-dasharray="2.02 3.02"/>
<path d="M391.24 94.5878V93.6426" stroke="#C0C0C0" stroke-miterlimit="10"/>
<path d="M81.2078 93.4727H82.1522" stroke="#595959" stroke-miterlimit="10"/>
<path d="M84.9855 93.4727H550.639" stroke="#C0C0C0" stroke-miterlimit="10" stroke-dasharray="2 3"/>
<path d="M552.056 93.4727H553" stroke="#595959" stroke-miterlimit="10"/>
<path opacity="0.8" d="M163 190C174.598 190 184 180.598 184 169C184 157.402 174.598 148 163 148C151.402 148 142 157.402 142 169C142 180.598 151.402 190 163 190Z" fill="#FC3F62" stroke="#FDFDFD" stroke-miterlimit="10"/>
<path opacity="0.8" d="M121 145C132.598 145 142 135.598 142 124C142 112.402 132.598 103 121 103C109.402 103 100 112.402 100 124C100 135.598 109.402 145 121 145Z" fill="#FC3F62" stroke="#FDFDFD" stroke-miterlimit="10"/>
<path opacity="0.8" d="M216 194C227.598 194 237 184.598 237 173C237 161.402 227.598 152 216 152C204.402 152 195 161.402 195 173C195 184.598 204.402 194 216 194Z" fill="#FC3F62" stroke="#FDFDFD" stroke-miterlimit="10"/>
<path opacity="0.8" d="M337 253C348.598 253 358 243.598 358 232C358 220.402 348.598 211 337 211C325.402 211 316 220.402 316 232C316 243.598 325.402 253 337 253Z" fill="#FFD23E" stroke="#FDFDFD" stroke-miterlimit="10"/>
<path opacity="0.8" d="M284 259C295.598 259 305 249.598 305 238C305 226.402 295.598 217 284 217C272.402 217 263 226.402 263 238C263 249.598 272.402 259 284 259Z" fill="#FFA728" stroke="#FDFDFD" stroke-miterlimit="10"/>
<path opacity="0.8" d="M258 243C269.598 243 279 233.598 279 222C279 210.402 269.598 201 258 201C246.402 201 237 210.402 237 222C237 233.598 246.402 243 258 243Z" fill="#FFA728" stroke="#FDFDFD" stroke-miterlimit="10"/>
<path opacity="0.8" d="M376.563 286.722C396.081 286.722 411.903 270.886 411.903 251.351C411.903 231.816 396.081 215.979 376.563 215.979C357.045 215.979 341.223 231.816 341.223 251.351C341.223 270.886 357.045 286.722 376.563 286.722Z" fill="#FFD23E" stroke="#FDFDFD" stroke-miterlimit="10"/>
<path opacity="0.8" d="M495 337C506.598 337 516 327.598 516 316C516 304.402 506.598 295 495 295C483.402 295 474 304.402 474 316C474 327.598 483.402 337 495 337Z" fill="#4DDBC1" stroke="#FDFDFD" stroke-miterlimit="10"/>
<path opacity="0.8" d="M439 326C450.598 326 460 316.598 460 305C460 293.402 450.598 284 439 284C427.402 284 418 293.402 418 305C418 316.598 427.402 326 439 326Z" fill="#5ACC52" stroke="#FDFDFD" stroke-miterlimit="10"/>
<path d="M81.2078 351.527H553" stroke="white" stroke-miterlimit="10"/>
<path d="M81.2078 351.527H553" stroke="#3D3D4F" stroke-miterlimit="10"/>
<path d="M81.4722 350.809V93.6426" stroke="white" stroke-miterlimit="10"/>
<path d="M81.4722 350.809V93.6426" stroke="#3D3D4F" stroke-miterlimit="10"/>
<path d="M364.817 248.141V239.041H366.325V248.141H364.817ZM370.306 248.141L372.841 241.641H374.349L371.671 248.141H370.306ZM370.202 248.141L367.511 241.641H369.006L371.554 248.141H370.202ZM379.046 248.141L378.981 246.919V244.8C378.981 244.358 378.933 243.989 378.838 243.695C378.751 243.391 378.604 243.162 378.396 243.006C378.197 242.841 377.928 242.759 377.59 242.759C377.278 242.759 377.005 242.824 376.771 242.954C376.537 243.084 376.338 243.287 376.173 243.565L374.899 243.097C375.038 242.811 375.22 242.546 375.445 242.304C375.679 242.052 375.969 241.853 376.316 241.706C376.671 241.558 377.096 241.485 377.59 241.485C378.223 241.485 378.751 241.61 379.176 241.862C379.601 242.104 379.913 242.455 380.112 242.915C380.32 243.374 380.424 243.929 380.424 244.579L380.385 248.141H379.046ZM377.174 248.297C376.394 248.297 375.787 248.123 375.354 247.777C374.929 247.43 374.717 246.94 374.717 246.308C374.717 245.632 374.942 245.116 375.393 244.761C375.852 244.405 376.489 244.228 377.304 244.228H379.046V245.346H377.772C377.191 245.346 376.784 245.428 376.55 245.593C376.316 245.749 376.199 245.974 376.199 246.269C376.199 246.52 376.299 246.719 376.498 246.867C376.706 247.005 376.992 247.075 377.356 247.075C377.685 247.075 377.971 247.001 378.214 246.854C378.457 246.706 378.643 246.511 378.773 246.269C378.912 246.026 378.981 245.753 378.981 245.45H379.41C379.41 246.334 379.232 247.031 378.877 247.543C378.522 248.045 377.954 248.297 377.174 248.297ZM381.899 248.141V241.641H383.264L383.355 242.837V248.141H381.899ZM386.306 248.141V244.813H387.762V248.141H386.306ZM386.306 244.813C386.306 244.293 386.245 243.894 386.124 243.617C386.011 243.331 385.846 243.131 385.63 243.019C385.422 242.906 385.175 242.85 384.889 242.85C384.403 242.841 384.026 243.001 383.758 243.331C383.489 243.66 383.355 244.132 383.355 244.748H382.809C382.809 244.063 382.908 243.478 383.108 242.993C383.307 242.499 383.593 242.126 383.966 241.875C384.338 241.615 384.78 241.485 385.292 241.485C385.812 241.485 386.254 241.589 386.618 241.797C386.99 242.005 387.272 242.33 387.463 242.772C387.662 243.205 387.762 243.773 387.762 244.475V244.813H386.306ZM362.84 261.141V252.041H364.348V261.141H362.84ZM356.756 261.141V252.041H358.264V261.141H356.756ZM357.939 257.163V255.785H363.451V257.163H357.939ZM369.223 261.297C368.573 261.297 367.992 261.154 367.481 260.868C366.978 260.573 366.584 260.17 366.298 259.659C366.012 259.147 365.869 258.558 365.869 257.891C365.869 257.223 366.007 256.634 366.285 256.123C366.571 255.611 366.965 255.213 367.468 254.927C367.97 254.632 368.547 254.485 369.197 254.485C369.847 254.485 370.423 254.632 370.926 254.927C371.428 255.213 371.818 255.611 372.096 256.123C372.382 256.634 372.525 257.223 372.525 257.891C372.525 258.558 372.386 259.147 372.109 259.659C371.831 260.17 371.441 260.573 370.939 260.868C370.436 261.154 369.864 261.297 369.223 261.297ZM369.223 259.958C369.578 259.958 369.894 259.871 370.172 259.698C370.449 259.516 370.666 259.273 370.822 258.97C370.978 258.658 371.056 258.298 371.056 257.891C371.056 257.483 370.973 257.128 370.809 256.825C370.653 256.513 370.436 256.27 370.159 256.097C369.881 255.915 369.561 255.824 369.197 255.824C368.833 255.824 368.512 255.91 368.235 256.084C367.957 256.257 367.741 256.5 367.585 256.812C367.429 257.124 367.351 257.483 367.351 257.891C367.351 258.298 367.429 258.658 367.585 258.97C367.749 259.273 367.97 259.516 368.248 259.698C368.534 259.871 368.859 259.958 369.223 259.958ZM374.748 257.683C374.748 256.981 374.883 256.404 375.151 255.954C375.42 255.503 375.767 255.169 376.191 254.953C376.625 254.727 377.075 254.615 377.543 254.615V256.006C377.145 256.006 376.768 256.062 376.412 256.175C376.066 256.279 375.784 256.452 375.567 256.695C375.351 256.937 375.242 257.258 375.242 257.657L374.748 257.683ZM373.786 261.141V254.641H375.242V261.141H373.786ZM380.602 261.141L383.137 254.641H384.645L381.967 261.141H380.602ZM380.498 261.141L377.807 254.641H379.302L381.85 261.141H380.498ZM389.342 261.141L389.277 259.919V257.8C389.277 257.358 389.229 256.989 389.134 256.695C389.047 256.391 388.9 256.162 388.692 256.006C388.493 255.841 388.224 255.759 387.886 255.759C387.574 255.759 387.301 255.824 387.067 255.954C386.833 256.084 386.634 256.287 386.469 256.565L385.195 256.097C385.334 255.811 385.516 255.546 385.741 255.304C385.975 255.052 386.265 254.853 386.612 254.706C386.967 254.558 387.392 254.485 387.886 254.485C388.519 254.485 389.047 254.61 389.472 254.862C389.897 255.104 390.209 255.455 390.408 255.915C390.616 256.374 390.72 256.929 390.72 257.579L390.681 261.141H389.342ZM387.47 261.297C386.69 261.297 386.083 261.123 385.65 260.777C385.225 260.43 385.013 259.94 385.013 259.308C385.013 258.632 385.238 258.116 385.689 257.761C386.148 257.405 386.785 257.228 387.6 257.228H389.342V258.346H388.068C387.487 258.346 387.08 258.428 386.846 258.593C386.612 258.749 386.495 258.974 386.495 259.269C386.495 259.52 386.595 259.719 386.794 259.867C387.002 260.005 387.288 260.075 387.652 260.075C387.981 260.075 388.267 260.001 388.51 259.854C388.753 259.706 388.939 259.511 389.069 259.269C389.208 259.026 389.277 258.753 389.277 258.45H389.706C389.706 259.334 389.528 260.031 389.173 260.543C388.818 261.045 388.25 261.297 387.47 261.297ZM394.781 261.297C394.097 261.297 393.572 261.128 393.208 260.79C392.853 260.443 392.675 259.949 392.675 259.308V252.613H394.118V259.035C394.118 259.338 394.188 259.568 394.326 259.724C394.474 259.88 394.686 259.958 394.963 259.958C395.05 259.958 395.145 259.94 395.249 259.906C395.353 259.871 395.47 259.806 395.6 259.711L396.133 260.816C395.908 260.972 395.683 261.089 395.457 261.167C395.232 261.253 395.007 261.297 394.781 261.297ZM391.596 255.889V254.641H395.873V255.889H391.596Z" fill="white"/>
<path d="M364.817 248.141V239.041H366.325V248.141H364.817ZM370.306 248.141L372.841 241.641H374.349L371.671 248.141H370.306ZM370.202 248.141L367.511 241.641H369.006L371.554 248.141H370.202ZM379.046 248.141L378.981 246.919V244.8C378.981 244.358 378.933 243.989 378.838 243.695C378.751 243.391 378.604 243.162 378.396 243.006C378.197 242.841 377.928 242.759 377.59 242.759C377.278 242.759 377.005 242.824 376.771 242.954C376.537 243.084 376.338 243.287 376.173 243.565L374.899 243.097C375.038 242.811 375.22 242.546 375.445 242.304C375.679 242.052 375.969 241.853 376.316 241.706C376.671 241.558 377.096 241.485 377.59 241.485C378.223 241.485 378.751 241.61 379.176 241.862C379.601 242.104 379.913 242.455 380.112 242.915C380.32 243.374 380.424 243.929 380.424 244.579L380.385 248.141H379.046ZM377.174 248.297C376.394 248.297 375.787 248.123 375.354 247.777C374.929 247.43 374.717 246.94 374.717 246.308C374.717 245.632 374.942 245.116 375.393 244.761C375.852 244.405 376.489 244.228 377.304 244.228H379.046V245.346H377.772C377.191 245.346 376.784 245.428 376.55 245.593C376.316 245.749 376.199 245.974 376.199 246.269C376.199 246.52 376.299 246.719 376.498 246.867C376.706 247.005 376.992 247.075 377.356 247.075C377.685 247.075 377.971 247.001 378.214 246.854C378.457 246.706 378.643 246.511 378.773 246.269C378.912 246.026 378.981 245.753 378.981 245.45H379.41C379.41 246.334 379.232 247.031 378.877 247.543C378.522 248.045 377.954 248.297 377.174 248.297ZM381.899 248.141V241.641H383.264L383.355 242.837V248.141H381.899ZM386.306 248.141V244.813H387.762V248.141H386.306ZM386.306 244.813C386.306 244.293 386.245 243.894 386.124 243.617C386.011 243.331 385.846 243.131 385.63 243.019C385.422 242.906 385.175 242.85 384.889 242.85C384.403 242.841 384.026 243.001 383.758 243.331C383.489 243.66 383.355 244.132 383.355 244.748H382.809C382.809 244.063 382.908 243.478 383.108 242.993C383.307 242.499 383.593 242.126 383.966 241.875C384.338 241.615 384.78 241.485 385.292 241.485C385.812 241.485 386.254 241.589 386.618 241.797C386.99 242.005 387.272 242.33 387.463 242.772C387.662 243.205 387.762 243.773 387.762 244.475V244.813H386.306ZM362.84 261.141V252.041H364.348V261.141H362.84ZM356.756 261.141V252.041H358.264V261.141H356.756ZM357.939 257.163V255.785H363.451V257.163H357.939ZM369.223 261.297C368.573 261.297 367.992 261.154 367.481 260.868C366.978 260.573 366.584 260.17 366.298 259.659C366.012 259.147 365.869 258.558 365.869 257.891C365.869 257.223 366.007 256.634 366.285 256.123C366.571 255.611 366.965 255.213 367.468 254.927C367.97 254.632 368.547 254.485 369.197 254.485C369.847 254.485 370.423 254.632 370.926 254.927C371.428 255.213 371.818 255.611 372.096 256.123C372.382 256.634 372.525 257.223 372.525 257.891C372.525 258.558 372.386 259.147 372.109 259.659C371.831 260.17 371.441 260.573 370.939 260.868C370.436 261.154 369.864 261.297 369.223 261.297ZM369.223 259.958C369.578 259.958 369.894 259.871 370.172 259.698C370.449 259.516 370.666 259.273 370.822 258.97C370.978 258.658 371.056 258.298 371.056 257.891C371.056 257.483 370.973 257.128 370.809 256.825C370.653 256.513 370.436 256.27 370.159 256.097C369.881 255.915 369.561 255.824 369.197 255.824C368.833 255.824 368.512 255.91 368.235 256.084C367.957 256.257 367.741 256.5 367.585 256.812C367.429 257.124 367.351 257.483 367.351 257.891C367.351 258.298 367.429 258.658 367.585 258.97C367.749 259.273 367.97 259.516 368.248 259.698C368.534 259.871 368.859 259.958 369.223 259.958ZM374.748 257.683C374.748 256.981 374.883 256.404 375.151 255.954C375.42 255.503 375.767 255.169 376.191 254.953C376.625 254.727 377.075 254.615 377.543 254.615V256.006C377.145 256.006 376.768 256.062 376.412 256.175C376.066 256.279 375.784 256.452 375.567 256.695C375.351 256.937 375.242 257.258 375.242 257.657L374.748 257.683ZM373.786 261.141V254.641H375.242V261.141H373.786ZM380.602 261.141L383.137 254.641H384.645L381.967 261.141H380.602ZM380.498 261.141L377.807 254.641H379.302L381.85 261.141H380.498ZM389.342 261.141L389.277 259.919V257.8C389.277 257.358 389.229 256.989 389.134 256.695C389.047 256.391 388.9 256.162 388.692 256.006C388.493 255.841 388.224 255.759 387.886 255.759C387.574 255.759 387.301 255.824 387.067 255.954C386.833 256.084 386.634 256.287 386.469 256.565L385.195 256.097C385.334 255.811 385.516 255.546 385.741 255.304C385.975 255.052 386.265 254.853 386.612 254.706C386.967 254.558 387.392 254.485 387.886 254.485C388.519 254.485 389.047 254.61 389.472 254.862C389.897 255.104 390.209 255.455 390.408 255.915C390.616 256.374 390.72 256.929 390.72 257.579L390.681 261.141H389.342ZM387.47 261.297C386.69 261.297 386.083 261.123 385.65 260.777C385.225 260.43 385.013 259.94 385.013 259.308C385.013 258.632 385.238 258.116 385.689 257.761C386.148 257.405 386.785 257.228 387.6 257.228H389.342V258.346H388.068C387.487 258.346 387.08 258.428 386.846 258.593C386.612 258.749 386.495 258.974 386.495 259.269C386.495 259.52 386.595 259.719 386.794 259.867C387.002 260.005 387.288 260.075 387.652 260.075C387.981 260.075 388.267 260.001 388.51 259.854C388.753 259.706 388.939 259.511 389.069 259.269C389.208 259.026 389.277 258.753 389.277 258.45H389.706C389.706 259.334 389.528 260.031 389.173 260.543C388.818 261.045 388.25 261.297 387.47 261.297ZM394.781 261.297C394.097 261.297 393.572 261.128 393.208 260.79C392.853 260.443 392.675 259.949 392.675 259.308V252.613H394.118V259.035C394.118 259.338 394.188 259.568 394.326 259.724C394.474 259.88 394.686 259.958 394.963 259.958C395.05 259.958 395.145 259.94 395.249 259.906C395.353 259.871 395.47 259.806 395.6 259.711L396.133 260.816C395.908 260.972 395.683 261.089 395.457 261.167C395.232 261.253 395.007 261.297 394.781 261.297ZM391.596 255.889V254.641H395.873V255.889H391.596Z" fill="#3D3D4F"/>
</g>
<path d="M49.4156 304V303.169L52.5364 299.753C52.9026 299.353 53.2042 299.005 53.4412 298.71C53.6782 298.411 53.8536 298.131 53.9675 297.869C54.0844 297.605 54.1429 297.328 54.1429 297.038C54.1429 296.706 54.0629 296.418 53.9029 296.175C53.7459 295.932 53.5305 295.744 53.2566 295.612C52.9826 295.48 52.6749 295.413 52.3333 295.413C51.9701 295.413 51.6531 295.489 51.3823 295.64C51.1145 295.787 50.9068 295.995 50.759 296.263C50.6144 296.531 50.5421 296.844 50.5421 297.205H49.4526C49.4526 296.651 49.5803 296.164 49.8357 295.746C50.0912 295.327 50.439 295.001 50.8791 294.767C51.3223 294.533 51.8193 294.416 52.3702 294.416C52.9242 294.416 53.4151 294.533 53.8428 294.767C54.2706 295.001 54.6061 295.316 54.8492 295.713C55.0924 296.11 55.2139 296.552 55.2139 297.038C55.2139 297.386 55.1509 297.726 55.0247 298.059C54.9016 298.388 54.6861 298.756 54.3784 299.162C54.0737 299.565 53.6505 300.058 53.1088 300.639L50.9852 302.911V302.984H55.3801V304H49.4156ZM60.5005 304.129C59.805 304.129 59.2126 303.94 58.7232 303.561C58.2339 303.18 57.8599 302.627 57.6014 301.904C57.3429 301.178 57.2136 300.301 57.2136 299.273C57.2136 298.251 57.3429 297.378 57.6014 296.655C57.863 295.929 58.2385 295.375 58.7278 294.993C59.2202 294.609 59.8112 294.416 60.5005 294.416C61.1899 294.416 61.7793 294.609 62.2687 294.993C62.7611 295.375 63.1366 295.929 63.3951 296.655C63.6567 297.378 63.7875 298.251 63.7875 299.273C63.7875 300.301 63.6582 301.178 63.3997 301.904C63.1412 302.627 62.7672 303.18 62.2779 303.561C61.7885 303.94 61.1961 304.129 60.5005 304.129ZM60.5005 303.114C61.1899 303.114 61.7255 302.781 62.1071 302.116C62.4887 301.452 62.6795 300.504 62.6795 299.273C62.6795 298.454 62.5918 297.757 62.4164 297.181C62.244 296.606 61.9947 296.167 61.6685 295.866C61.3454 295.564 60.956 295.413 60.5005 295.413C59.8173 295.413 59.2833 295.75 58.8986 296.424C58.5139 297.095 58.3216 298.045 58.3216 299.273C58.3216 300.091 58.4077 300.787 58.5801 301.359C58.7524 301.932 59.0002 302.367 59.3233 302.666C59.6496 302.964 60.042 303.114 60.5005 303.114Z" fill="white"/>
<path d="M49.4156 304V303.169L52.5364 299.753C52.9026 299.353 53.2042 299.005 53.4412 298.71C53.6782 298.411 53.8536 298.131 53.9675 297.869C54.0844 297.605 54.1429 297.328 54.1429 297.038C54.1429 296.706 54.0629 296.418 53.9029 296.175C53.7459 295.932 53.5305 295.744 53.2566 295.612C52.9826 295.48 52.6749 295.413 52.3333 295.413C51.9701 295.413 51.6531 295.489 51.3823 295.64C51.1145 295.787 50.9068 295.995 50.759 296.263C50.6144 296.531 50.5421 296.844 50.5421 297.205H49.4526C49.4526 296.651 49.5803 296.164 49.8357 295.746C50.0912 295.327 50.439 295.001 50.8791 294.767C51.3223 294.533 51.8193 294.416 52.3702 294.416C52.9242 294.416 53.4151 294.533 53.8428 294.767C54.2706 295.001 54.6061 295.316 54.8492 295.713C55.0924 296.11 55.2139 296.552 55.2139 297.038C55.2139 297.386 55.1509 297.726 55.0247 298.059C54.9016 298.388 54.6861 298.756 54.3784 299.162C54.0737 299.565 53.6505 300.058 53.1088 300.639L50.9852 302.911V302.984H55.3801V304H49.4156ZM60.5005 304.129C59.805 304.129 59.2126 303.94 58.7232 303.561C58.2339 303.18 57.8599 302.627 57.6014 301.904C57.3429 301.178 57.2136 300.301 57.2136 299.273C57.2136 298.251 57.3429 297.378 57.6014 296.655C57.863 295.929 58.2385 295.375 58.7278 294.993C59.2202 294.609 59.8112 294.416 60.5005 294.416C61.1899 294.416 61.7793 294.609 62.2687 294.993C62.7611 295.375 63.1366 295.929 63.3951 296.655C63.6567 297.378 63.7875 298.251 63.7875 299.273C63.7875 300.301 63.6582 301.178 63.3997 301.904C63.1412 302.627 62.7672 303.18 62.2779 303.561C61.7885 303.94 61.1961 304.129 60.5005 304.129ZM60.5005 303.114C61.1899 303.114 61.7255 302.781 62.1071 302.116C62.4887 301.452 62.6795 300.504 62.6795 299.273C62.6795 298.454 62.5918 297.757 62.4164 297.181C62.244 296.606 61.9947 296.167 61.6685 295.866C61.3454 295.564 60.956 295.413 60.5005 295.413C59.8173 295.413 59.2833 295.75 58.8986 296.424C58.5139 297.095 58.3216 298.045 58.3216 299.273C58.3216 300.091 58.4077 300.787 58.5801 301.359C58.7524 301.932 59.0002 302.367 59.3233 302.666C59.6496 302.964 60.042 303.114 60.5005 303.114Z" fill="#8A8A8A"/>
<path d="M51.4071 254.129C50.7977 254.129 50.2545 254.025 49.7775 253.815C49.3035 253.606 48.9265 253.315 48.6465 252.943C48.3695 252.567 48.2187 252.132 48.1941 251.636H49.3574C49.382 251.941 49.4867 252.204 49.6713 252.426C49.856 252.644 50.0976 252.814 50.3961 252.934C50.6946 253.054 51.0255 253.114 51.3887 253.114C51.7949 253.114 52.155 253.043 52.4689 252.901C52.7828 252.76 53.029 252.563 53.2076 252.31C53.3861 252.058 53.4753 251.766 53.4753 251.433C53.4753 251.085 53.3891 250.779 53.2168 250.515C53.0444 250.247 52.7921 250.038 52.4597 249.887C52.1273 249.736 51.721 249.661 51.2409 249.661H50.4838V248.645H51.2409C51.6164 248.645 51.9457 248.577 52.2289 248.442C52.5151 248.306 52.7382 248.116 52.8982 247.869C53.0614 247.623 53.1429 247.334 53.1429 247.001C53.1429 246.681 53.0721 246.403 52.9306 246.166C52.789 245.929 52.5889 245.744 52.3304 245.612C52.075 245.48 51.7734 245.413 51.4256 245.413C51.0994 245.413 50.7916 245.473 50.5023 245.593C50.2161 245.71 49.9822 245.881 49.8006 246.106C49.619 246.327 49.5205 246.595 49.5051 246.909H48.3972C48.4156 246.414 48.5649 245.98 48.845 245.607C49.125 245.232 49.4913 244.939 49.9437 244.73C50.3992 244.521 50.8993 244.416 51.4441 244.416C52.0288 244.416 52.5305 244.535 52.949 244.772C53.3676 245.006 53.6892 245.315 53.9139 245.7C54.1385 246.084 54.2509 246.5 54.2509 246.946C54.2509 247.478 54.1108 247.932 53.8308 248.308C53.5538 248.683 53.1768 248.943 52.6997 249.088V249.162C53.2968 249.26 53.7631 249.514 54.0985 249.924C54.434 250.33 54.6017 250.833 54.6017 251.433C54.6017 251.947 54.4617 252.409 54.1816 252.818C53.9046 253.224 53.5261 253.545 53.046 253.778C52.5659 254.012 52.0196 254.129 51.4071 254.129ZM59.7037 254.129C59.0081 254.129 58.4157 253.94 57.9263 253.561C57.437 253.18 57.063 252.627 56.8045 251.904C56.546 251.178 56.4167 250.301 56.4167 249.273C56.4167 248.251 56.546 247.378 56.8045 246.655C57.0661 245.929 57.4416 245.375 57.9309 244.993C58.4234 244.609 59.0143 244.416 59.7037 244.416C60.3931 244.416 60.9824 244.609 61.4718 244.993C61.9642 245.375 62.3397 245.929 62.5982 246.655C62.8598 247.378 62.9906 248.251 62.9906 249.273C62.9906 250.301 62.8613 251.178 62.6028 251.904C62.3443 252.627 61.9704 253.18 61.481 253.561C60.9917 253.94 60.3992 254.129 59.7037 254.129ZM59.7037 253.114C60.3931 253.114 60.9286 252.781 61.3102 252.116C61.6918 251.452 61.8826 250.504 61.8826 249.273C61.8826 248.454 61.7949 247.757 61.6195 247.181C61.4472 246.606 61.1979 246.167 60.8716 245.866C60.5485 245.564 60.1592 245.413 59.7037 245.413C59.0204 245.413 58.4865 245.75 58.1018 246.424C57.717 247.095 57.5247 248.045 57.5247 249.273C57.5247 250.091 57.6109 250.787 57.7832 251.359C57.9556 251.932 58.2033 252.367 58.5265 252.666C58.8527 252.964 59.2451 253.114 59.7037 253.114Z" fill="white"/>
<path d="M51.4071 254.129C50.7977 254.129 50.2545 254.025 49.7775 253.815C49.3035 253.606 48.9265 253.315 48.6465 252.943C48.3695 252.567 48.2187 252.132 48.1941 251.636H49.3574C49.382 251.941 49.4867 252.204 49.6713 252.426C49.856 252.644 50.0976 252.814 50.3961 252.934C50.6946 253.054 51.0255 253.114 51.3887 253.114C51.7949 253.114 52.155 253.043 52.4689 252.901C52.7828 252.76 53.029 252.563 53.2076 252.31C53.3861 252.058 53.4753 251.766 53.4753 251.433C53.4753 251.085 53.3891 250.779 53.2168 250.515C53.0444 250.247 52.7921 250.038 52.4597 249.887C52.1273 249.736 51.721 249.661 51.2409 249.661H50.4838V248.645H51.2409C51.6164 248.645 51.9457 248.577 52.2289 248.442C52.5151 248.306 52.7382 248.116 52.8982 247.869C53.0614 247.623 53.1429 247.334 53.1429 247.001C53.1429 246.681 53.0721 246.403 52.9306 246.166C52.789 245.929 52.5889 245.744 52.3304 245.612C52.075 245.48 51.7734 245.413 51.4256 245.413C51.0994 245.413 50.7916 245.473 50.5023 245.593C50.2161 245.71 49.9822 245.881 49.8006 246.106C49.619 246.327 49.5205 246.595 49.5051 246.909H48.3972C48.4156 246.414 48.5649 245.98 48.845 245.607C49.125 245.232 49.4913 244.939 49.9437 244.73C50.3992 244.521 50.8993 244.416 51.4441 244.416C52.0288 244.416 52.5305 244.535 52.949 244.772C53.3676 245.006 53.6892 245.315 53.9139 245.7C54.1385 246.084 54.2509 246.5 54.2509 246.946C54.2509 247.478 54.1108 247.932 53.8308 248.308C53.5538 248.683 53.1768 248.943 52.6997 249.088V249.162C53.2968 249.26 53.7631 249.514 54.0985 249.924C54.434 250.33 54.6017 250.833 54.6017 251.433C54.6017 251.947 54.4617 252.409 54.1816 252.818C53.9046 253.224 53.5261 253.545 53.046 253.778C52.5659 254.012 52.0196 254.129 51.4071 254.129ZM59.7037 254.129C59.0081 254.129 58.4157 253.94 57.9263 253.561C57.437 253.18 57.063 252.627 56.8045 251.904C56.546 251.178 56.4167 250.301 56.4167 249.273C56.4167 248.251 56.546 247.378 56.8045 246.655C57.0661 245.929 57.4416 245.375 57.9309 244.993C58.4234 244.609 59.0143 244.416 59.7037 244.416C60.3931 244.416 60.9824 244.609 61.4718 244.993C61.9642 245.375 62.3397 245.929 62.5982 246.655C62.8598 247.378 62.9906 248.251 62.9906 249.273C62.9906 250.301 62.8613 251.178 62.6028 251.904C62.3443 252.627 61.9704 253.18 61.481 253.561C60.9917 253.94 60.3992 254.129 59.7037 254.129ZM59.7037 253.114C60.3931 253.114 60.9286 252.781 61.3102 252.116C61.6918 251.452 61.8826 250.504 61.8826 249.273C61.8826 248.454 61.7949 247.757 61.6195 247.181C61.4472 246.606 61.1979 246.167 60.8716 245.866C60.5485 245.564 60.1592 245.413 59.7037 245.413C59.0204 245.413 58.4865 245.75 58.1018 246.424C57.717 247.095 57.5247 248.045 57.5247 249.273C57.5247 250.091 57.6109 250.787 57.7832 251.359C57.9556 251.932 58.2033 252.367 58.5265 252.666C58.8527 252.964 59.2451 253.114 59.7037 253.114Z" fill="#8A8A8A"/>
<path d="M47.9592 201.061V200.119L52.114 193.545H52.7973V195.004H52.3356L49.1964 199.972V200.045H54.7916V201.061H47.9592ZM52.4095 203V200.775V200.336V193.545H53.499V203H52.4095ZM59.7354 203.129C59.0399 203.129 58.4474 202.94 57.9581 202.561C57.4687 202.18 57.0948 201.627 56.8363 200.904C56.5777 200.178 56.4485 199.301 56.4485 198.273C56.4485 197.251 56.5777 196.378 56.8363 195.655C57.0979 194.929 57.4733 194.375 57.9627 193.993C58.4551 193.609 59.046 193.416 59.7354 193.416C60.4248 193.416 61.0142 193.609 61.5035 193.993C61.9959 194.375 62.3714 194.929 62.6299 195.655C62.8915 196.378 63.0223 197.251 63.0223 198.273C63.0223 199.301 62.8931 200.178 62.6346 200.904C62.376 201.627 62.0021 202.18 61.5128 202.561C61.0234 202.94 60.431 203.129 59.7354 203.129ZM59.7354 202.114C60.4248 202.114 60.9603 201.781 61.3419 201.116C61.7236 200.452 61.9144 199.504 61.9144 198.273C61.9144 197.454 61.8267 196.757 61.6512 196.181C61.4789 195.606 61.2296 195.167 60.9034 194.866C60.5802 194.564 60.1909 194.413 59.7354 194.413C59.0522 194.413 58.5182 194.75 58.1335 195.424C57.7488 196.095 57.5564 197.045 57.5564 198.273C57.5564 199.091 57.6426 199.787 57.815 200.359C57.9873 200.932 58.2351 201.367 58.5582 201.666C58.8844 201.964 59.2768 202.114 59.7354 202.114Z" fill="white"/>
<path d="M47.9592 201.061V200.119L52.114 193.545H52.7973V195.004H52.3356L49.1964 199.972V200.045H54.7916V201.061H47.9592ZM52.4095 203V200.775V200.336V193.545H53.499V203H52.4095ZM59.7354 203.129C59.0399 203.129 58.4474 202.94 57.9581 202.561C57.4687 202.18 57.0948 201.627 56.8363 200.904C56.5777 200.178 56.4485 199.301 56.4485 198.273C56.4485 197.251 56.5777 196.378 56.8363 195.655C57.0979 194.929 57.4733 194.375 57.9627 193.993C58.4551 193.609 59.046 193.416 59.7354 193.416C60.4248 193.416 61.0142 193.609 61.5035 193.993C61.9959 194.375 62.3714 194.929 62.6299 195.655C62.8915 196.378 63.0223 197.251 63.0223 198.273C63.0223 199.301 62.8931 200.178 62.6346 200.904C62.376 201.627 62.0021 202.18 61.5128 202.561C61.0234 202.94 60.431 203.129 59.7354 203.129ZM59.7354 202.114C60.4248 202.114 60.9603 201.781 61.3419 201.116C61.7236 200.452 61.9144 199.504 61.9144 198.273C61.9144 197.454 61.8267 196.757 61.6512 196.181C61.4789 195.606 61.2296 195.167 60.9034 194.866C60.5802 194.564 60.1909 194.413 59.7354 194.413C59.0522 194.413 58.5182 194.75 58.1335 195.424C57.7488 196.095 57.5564 197.045 57.5564 198.273C57.5564 199.091 57.6426 199.787 57.815 200.359C57.9873 200.932 58.2351 201.367 58.5582 201.666C58.8844 201.964 59.2768 202.114 59.7354 202.114Z" fill="#8A8A8A"/>
<path d="M51.3511 150.129C50.8095 150.129 50.3217 150.022 49.8877 149.806C49.4538 149.591 49.106 149.295 48.8444 148.92C48.5828 148.544 48.4397 148.116 48.4151 147.636H49.523C49.5661 148.064 49.76 148.418 50.1047 148.698C50.4525 148.975 50.868 149.114 51.3511 149.114C51.7389 149.114 52.0836 149.023 52.3852 148.841C52.6899 148.66 52.9284 148.41 53.1008 148.093C53.2762 147.773 53.3639 147.412 53.3639 147.009C53.3639 146.596 53.2731 146.228 53.0916 145.905C52.9131 145.579 52.6668 145.322 52.3529 145.134C52.039 144.946 51.6805 144.851 51.2773 144.848C50.988 144.845 50.691 144.89 50.3863 144.982C50.0816 145.071 49.8308 145.187 49.6338 145.328L48.5628 145.199L49.1352 140.545H54.0472V141.561H50.0955L49.7631 144.349H49.8185C50.0124 144.196 50.2555 144.068 50.5479 143.966C50.8403 143.865 51.1449 143.814 51.4619 143.814C52.0405 143.814 52.556 143.952 53.0085 144.229C53.464 144.503 53.821 144.879 54.0795 145.356C54.3411 145.833 54.4719 146.378 54.4719 146.99C54.4719 147.593 54.3365 148.132 54.0656 148.606C53.7979 149.077 53.4286 149.449 52.9577 149.723C52.4868 149.994 51.9513 150.129 51.3511 150.129ZM59.5196 150.129C58.824 150.129 58.2316 149.94 57.7422 149.561C57.2529 149.18 56.879 148.627 56.6204 147.904C56.3619 147.178 56.2327 146.301 56.2327 145.273C56.2327 144.251 56.3619 143.378 56.6204 142.655C56.882 141.929 57.2575 141.375 57.7469 140.993C58.2393 140.609 58.8302 140.416 59.5196 140.416C60.209 140.416 60.7984 140.609 61.2877 140.993C61.7801 141.375 62.1556 141.929 62.4141 142.655C62.6757 143.378 62.8065 144.251 62.8065 145.273C62.8065 146.301 62.6773 147.178 62.4187 147.904C62.1602 148.627 61.7863 149.18 61.2969 149.561C60.8076 149.94 60.2151 150.129 59.5196 150.129ZM59.5196 149.114C60.209 149.114 60.7445 148.781 61.1261 148.116C61.5078 147.452 61.6986 146.504 61.6986 145.273C61.6986 144.454 61.6109 143.757 61.4354 143.181C61.2631 142.606 61.0138 142.167 60.6876 141.866C60.3644 141.564 59.9751 141.413 59.5196 141.413C58.8364 141.413 58.3024 141.75 57.9177 142.424C57.533 143.095 57.3406 144.045 57.3406 145.273C57.3406 146.091 57.4268 146.787 57.5991 147.359C57.7715 147.932 58.0192 148.367 58.3424 148.666C58.6686 148.964 59.061 149.114 59.5196 149.114Z" fill="white"/>
<path d="M51.3511 150.129C50.8095 150.129 50.3217 150.022 49.8877 149.806C49.4538 149.591 49.106 149.295 48.8444 148.92C48.5828 148.544 48.4397 148.116 48.4151 147.636H49.523C49.5661 148.064 49.76 148.418 50.1047 148.698C50.4525 148.975 50.868 149.114 51.3511 149.114C51.7389 149.114 52.0836 149.023 52.3852 148.841C52.6899 148.66 52.9284 148.41 53.1008 148.093C53.2762 147.773 53.3639 147.412 53.3639 147.009C53.3639 146.596 53.2731 146.228 53.0916 145.905C52.9131 145.579 52.6668 145.322 52.3529 145.134C52.039 144.946 51.6805 144.851 51.2773 144.848C50.988 144.845 50.691 144.89 50.3863 144.982C50.0816 145.071 49.8308 145.187 49.6338 145.328L48.5628 145.199L49.1352 140.545H54.0472V141.561H50.0955L49.7631 144.349H49.8185C50.0124 144.196 50.2555 144.068 50.5479 143.966C50.8403 143.865 51.1449 143.814 51.4619 143.814C52.0405 143.814 52.556 143.952 53.0085 144.229C53.464 144.503 53.821 144.879 54.0795 145.356C54.3411 145.833 54.4719 146.378 54.4719 146.99C54.4719 147.593 54.3365 148.132 54.0656 148.606C53.7979 149.077 53.4286 149.449 52.9577 149.723C52.4868 149.994 51.9513 150.129 51.3511 150.129ZM59.5196 150.129C58.824 150.129 58.2316 149.94 57.7422 149.561C57.2529 149.18 56.879 148.627 56.6204 147.904C56.3619 147.178 56.2327 146.301 56.2327 145.273C56.2327 144.251 56.3619 143.378 56.6204 142.655C56.882 141.929 57.2575 141.375 57.7469 140.993C58.2393 140.609 58.8302 140.416 59.5196 140.416C60.209 140.416 60.7984 140.609 61.2877 140.993C61.7801 141.375 62.1556 141.929 62.4141 142.655C62.6757 143.378 62.8065 144.251 62.8065 145.273C62.8065 146.301 62.6773 147.178 62.4187 147.904C62.1602 148.627 61.7863 149.18 61.2969 149.561C60.8076 149.94 60.2151 150.129 59.5196 150.129ZM59.5196 149.114C60.209 149.114 60.7445 148.781 61.1261 148.116C61.5078 147.452 61.6986 146.504 61.6986 145.273C61.6986 144.454 61.6109 143.757 61.4354 143.181C61.2631 142.606 61.0138 142.167 60.6876 141.866C60.3644 141.564 59.9751 141.413 59.5196 141.413C58.8364 141.413 58.3024 141.75 57.9177 142.424C57.533 143.095 57.3406 144.045 57.3406 145.273C57.3406 146.091 57.4268 146.787 57.5991 147.359C57.7715 147.932 58.0192 148.367 58.3424 148.666C58.6686 148.964 59.061 149.114 59.5196 149.114Z" fill="#8A8A8A"/>
<path d="M51.4342 98.1293C51.0465 98.1231 50.6587 98.0492 50.2709 97.9077C49.8831 97.7661 49.5292 97.5276 49.2091 97.1921C48.889 96.8536 48.632 96.3965 48.4382 95.821C48.2443 95.2424 48.1473 94.5161 48.1473 93.642C48.1473 92.8049 48.2258 92.0632 48.3828 91.4169C48.5397 90.7675 48.7675 90.2212 49.066 89.7781C49.3645 89.3318 49.7246 88.9933 50.1462 88.7624C50.571 88.5316 51.0495 88.4162 51.582 88.4162C52.1113 88.4162 52.5822 88.5224 52.9946 88.7347C53.4101 88.944 53.7486 89.2364 54.0102 89.6119C54.2718 89.9873 54.4411 90.4197 54.5181 90.9091H53.3916C53.287 90.4844 53.0839 90.132 52.7823 89.8519C52.4806 89.5719 52.0806 89.4318 51.582 89.4318C50.8495 89.4318 50.2724 89.7504 49.8508 90.3874C49.4322 91.0245 49.2214 91.9186 49.2183 93.0696H49.2922C49.4645 92.808 49.6692 92.5849 49.9062 92.4002C50.1462 92.2125 50.4109 92.0678 50.7002 91.9663C50.9895 91.8647 51.2958 91.8139 51.6189 91.8139C52.1606 91.8139 52.6561 91.9493 53.1054 92.2202C53.5547 92.4879 53.9148 92.8588 54.1857 93.3327C54.4565 93.8036 54.5919 94.3438 54.5919 94.9531C54.5919 95.5379 54.4611 96.0734 54.1995 96.5597C53.9379 97.0429 53.5701 97.4276 53.0962 97.7138C52.6253 97.9969 52.0713 98.1354 51.4342 98.1293ZM51.4342 97.1136C51.822 97.1136 52.1698 97.0167 52.4776 96.8228C52.7884 96.6289 53.0331 96.3688 53.2116 96.0426C53.3932 95.7164 53.484 95.3532 53.484 94.9531C53.484 94.5623 53.3962 94.2068 53.2208 93.8867C53.0485 93.5636 52.81 93.3066 52.5053 93.1158C52.2037 92.925 51.859 92.8295 51.4712 92.8295C51.1788 92.8295 50.9064 92.888 50.6541 93.005C50.4017 93.1188 50.1801 93.2758 49.9893 93.4759C49.8016 93.6759 49.6538 93.9052 49.5461 94.1637C49.4384 94.4192 49.3845 94.6884 49.3845 94.9716C49.3845 95.3471 49.4722 95.6979 49.6477 96.0241C49.8262 96.3504 50.0693 96.6135 50.3771 96.8136C50.6879 97.0136 51.0403 97.1136 51.4342 97.1136ZM59.6212 98.1293C58.9256 98.1293 58.3332 97.94 57.8438 97.5614C57.3545 97.1798 56.9805 96.6274 56.722 95.9041C56.4635 95.1778 56.3342 94.3007 56.3342 93.2727C56.3342 92.2509 56.4635 91.3784 56.722 90.6552C56.9836 89.9289 57.3591 89.3749 57.8484 88.9933C58.3408 88.6085 58.9318 88.4162 59.6212 88.4162C60.3105 88.4162 60.8999 88.6085 61.3893 88.9933C61.8817 89.3749 62.2572 89.9289 62.5157 90.6552C62.7773 91.3784 62.9081 92.2509 62.9081 93.2727C62.9081 94.3007 62.7788 95.1778 62.5203 95.9041C62.2618 96.6274 61.8878 97.1798 61.3985 97.5614C60.9092 97.94 60.3167 98.1293 59.6212 98.1293ZM59.6212 97.1136C60.3105 97.1136 60.8461 96.7812 61.2277 96.1165C61.6093 95.4517 61.8001 94.5038 61.8001 93.2727C61.8001 92.4541 61.7124 91.757 61.537 91.1815C61.3646 90.6059 61.1154 90.1674 60.7891 89.8658C60.466 89.5642 60.0766 89.4134 59.6212 89.4134C58.9379 89.4134 58.4039 89.7504 58.0192 90.4244C57.6345 91.0953 57.4422 92.0447 57.4422 93.2727C57.4422 94.0914 57.5283 94.7869 57.7007 95.3594C57.873 95.9318 58.1208 96.3673 58.444 96.6658C58.7702 96.9644 59.1626 97.1136 59.6212 97.1136Z" fill="white"/>
<path d="M51.4342 98.1293C51.0465 98.1231 50.6587 98.0492 50.2709 97.9077C49.8831 97.7661 49.5292 97.5276 49.2091 97.1921C48.889 96.8536 48.632 96.3965 48.4382 95.821C48.2443 95.2424 48.1473 94.5161 48.1473 93.642C48.1473 92.8049 48.2258 92.0632 48.3828 91.4169C48.5397 90.7675 48.7675 90.2212 49.066 89.7781C49.3645 89.3318 49.7246 88.9933 50.1462 88.7624C50.571 88.5316 51.0495 88.4162 51.582 88.4162C52.1113 88.4162 52.5822 88.5224 52.9946 88.7347C53.4101 88.944 53.7486 89.2364 54.0102 89.6119C54.2718 89.9873 54.4411 90.4197 54.5181 90.9091H53.3916C53.287 90.4844 53.0839 90.132 52.7823 89.8519C52.4806 89.5719 52.0806 89.4318 51.582 89.4318C50.8495 89.4318 50.2724 89.7504 49.8508 90.3874C49.4322 91.0245 49.2214 91.9186 49.2183 93.0696H49.2922C49.4645 92.808 49.6692 92.5849 49.9062 92.4002C50.1462 92.2125 50.4109 92.0678 50.7002 91.9663C50.9895 91.8647 51.2958 91.8139 51.6189 91.8139C52.1606 91.8139 52.6561 91.9493 53.1054 92.2202C53.5547 92.4879 53.9148 92.8588 54.1857 93.3327C54.4565 93.8036 54.5919 94.3438 54.5919 94.9531C54.5919 95.5379 54.4611 96.0734 54.1995 96.5597C53.9379 97.0429 53.5701 97.4276 53.0962 97.7138C52.6253 97.9969 52.0713 98.1354 51.4342 98.1293ZM51.4342 97.1136C51.822 97.1136 52.1698 97.0167 52.4776 96.8228C52.7884 96.6289 53.0331 96.3688 53.2116 96.0426C53.3932 95.7164 53.484 95.3532 53.484 94.9531C53.484 94.5623 53.3962 94.2068 53.2208 93.8867C53.0485 93.5636 52.81 93.3066 52.5053 93.1158C52.2037 92.925 51.859 92.8295 51.4712 92.8295C51.1788 92.8295 50.9064 92.888 50.6541 93.005C50.4017 93.1188 50.1801 93.2758 49.9893 93.4759C49.8016 93.6759 49.6538 93.9052 49.5461 94.1637C49.4384 94.4192 49.3845 94.6884 49.3845 94.9716C49.3845 95.3471 49.4722 95.6979 49.6477 96.0241C49.8262 96.3504 50.0693 96.6135 50.3771 96.8136C50.6879 97.0136 51.0403 97.1136 51.4342 97.1136ZM59.6212 98.1293C58.9256 98.1293 58.3332 97.94 57.8438 97.5614C57.3545 97.1798 56.9805 96.6274 56.722 95.9041C56.4635 95.1778 56.3342 94.3007 56.3342 93.2727C56.3342 92.2509 56.4635 91.3784 56.722 90.6552C56.9836 89.9289 57.3591 89.3749 57.8484 88.9933C58.3408 88.6085 58.9318 88.4162 59.6212 88.4162C60.3105 88.4162 60.8999 88.6085 61.3893 88.9933C61.8817 89.3749 62.2572 89.9289 62.5157 90.6552C62.7773 91.3784 62.9081 92.2509 62.9081 93.2727C62.9081 94.3007 62.7788 95.1778 62.5203 95.9041C62.2618 96.6274 61.8878 97.1798 61.3985 97.5614C60.9092 97.94 60.3167 98.1293 59.6212 98.1293ZM59.6212 97.1136C60.3105 97.1136 60.8461 96.7812 61.2277 96.1165C61.6093 95.4517 61.8001 94.5038 61.8001 93.2727C61.8001 92.4541 61.7124 91.757 61.537 91.1815C61.3646 90.6059 61.1154 90.1674 60.7891 89.8658C60.466 89.5642 60.0766 89.4134 59.6212 89.4134C58.9379 89.4134 58.4039 89.7504 58.0192 90.4244C57.6345 91.0953 57.4422 92.0447 57.4422 93.2727C57.4422 94.0914 57.5283 94.7869 57.7007 95.3594C57.873 95.9318 58.1208 96.3673 58.444 96.6658C58.7702 96.9644 59.1626 97.1136 59.6212 97.1136Z" fill="#8A8A8A"/>
<path d="M77.3316 374.129C76.7899 374.129 76.3021 374.022 75.8681 373.806C75.4342 373.591 75.0864 373.295 74.8248 372.92C74.5632 372.544 74.4201 372.116 74.3955 371.636H75.5034C75.5465 372.064 75.7404 372.418 76.0851 372.698C76.4329 372.975 76.8484 373.114 77.3316 373.114C77.7193 373.114 78.064 373.023 78.3656 372.841C78.6703 372.66 78.9089 372.41 79.0812 372.093C79.2566 371.773 79.3443 371.412 79.3443 371.009C79.3443 370.596 79.2536 370.228 79.072 369.905C78.8935 369.579 78.6473 369.322 78.3333 369.134C78.0194 368.946 77.6609 368.851 77.2577 368.848C76.9684 368.845 76.6714 368.89 76.3667 368.982C76.062 369.071 75.8112 369.187 75.6142 369.328L74.5432 369.199L75.1156 364.545H80.0276V365.561H76.0759L75.7435 368.349H75.7989C75.9928 368.196 76.2359 368.068 76.5283 367.966C76.8207 367.865 77.1254 367.814 77.4424 367.814C78.021 367.814 78.5365 367.952 78.9889 368.229C79.4444 368.503 79.8014 368.879 80.0599 369.356C80.3215 369.833 80.4523 370.378 80.4523 370.99C80.4523 371.593 80.3169 372.132 80.046 372.606C79.7783 373.077 79.409 373.449 78.9381 373.723C78.4672 373.994 77.9317 374.129 77.3316 374.129ZM85.3707 374.129C84.8291 374.129 84.3413 374.022 83.9073 373.806C83.4734 373.591 83.1256 373.295 82.864 372.92C82.6024 372.544 82.4593 372.116 82.4347 371.636H83.5426C83.5857 372.064 83.7796 372.418 84.1243 372.698C84.4721 372.975 84.8875 373.114 85.3707 373.114C85.7585 373.114 86.1032 373.023 86.4048 372.841C86.7095 372.66 86.948 372.41 87.1204 372.093C87.2958 371.773 87.3835 371.412 87.3835 371.009C87.3835 370.596 87.2927 370.228 87.1112 369.905C86.9326 369.579 86.6864 369.322 86.3725 369.134C86.0586 368.946 85.7 368.851 85.2969 368.848C85.0076 368.845 84.7106 368.89 84.4059 368.982C84.1012 369.071 83.8504 369.187 83.6534 369.328L82.5824 369.199L83.1548 364.545H88.0668V365.561H84.1151L83.7827 368.349H83.8381C84.032 368.196 84.2751 368.068 84.5675 367.966C84.8598 367.865 85.1645 367.814 85.4815 367.814C86.0601 367.814 86.5756 367.952 87.0281 368.229C87.4835 368.503 87.8406 368.879 88.0991 369.356C88.3607 369.833 88.4915 370.378 88.4915 370.99C88.4915 371.593 88.3561 372.132 88.0852 372.606C87.8175 373.077 87.4482 373.449 86.9773 373.723C86.5064 373.994 85.9709 374.129 85.3707 374.129ZM93.5392 374.129C92.8436 374.129 92.2512 373.94 91.7618 373.561C91.2725 373.18 90.8986 372.627 90.64 371.904C90.3815 371.178 90.2522 370.301 90.2522 369.273C90.2522 368.251 90.3815 367.378 90.64 366.655C90.9016 365.929 91.2771 365.375 91.7665 364.993C92.2589 364.609 92.8498 364.416 93.5392 364.416C94.2286 364.416 94.8179 364.609 95.3073 364.993C95.7997 365.375 96.1752 365.929 96.4337 366.655C96.6953 367.378 96.8261 368.251 96.8261 369.273C96.8261 370.301 96.6969 371.178 96.4383 371.904C96.1798 372.627 95.8059 373.18 95.3165 373.561C94.8272 373.94 94.2347 374.129 93.5392 374.129ZM93.5392 373.114C94.2286 373.114 94.7641 372.781 95.1457 372.116C95.5273 371.452 95.7182 370.504 95.7182 369.273C95.7182 368.454 95.6304 367.757 95.455 367.181C95.2827 366.606 95.0334 366.167 94.7071 365.866C94.384 365.564 93.9947 365.413 93.5392 365.413C92.8559 365.413 92.322 365.75 91.9373 366.424C91.5526 367.095 91.3602 368.045 91.3602 369.273C91.3602 370.091 91.4464 370.787 91.6187 371.359C91.7911 371.932 92.0388 372.367 92.362 372.666C92.6882 372.964 93.0806 373.114 93.5392 373.114Z" fill="white"/>
<path d="M77.3316 374.129C76.7899 374.129 76.3021 374.022 75.8681 373.806C75.4342 373.591 75.0864 373.295 74.8248 372.92C74.5632 372.544 74.4201 372.116 74.3955 371.636H75.5034C75.5465 372.064 75.7404 372.418 76.0851 372.698C76.4329 372.975 76.8484 373.114 77.3316 373.114C77.7193 373.114 78.064 373.023 78.3656 372.841C78.6703 372.66 78.9089 372.41 79.0812 372.093C79.2566 371.773 79.3443 371.412 79.3443 371.009C79.3443 370.596 79.2536 370.228 79.072 369.905C78.8935 369.579 78.6473 369.322 78.3333 369.134C78.0194 368.946 77.6609 368.851 77.2577 368.848C76.9684 368.845 76.6714 368.89 76.3667 368.982C76.062 369.071 75.8112 369.187 75.6142 369.328L74.5432 369.199L75.1156 364.545H80.0276V365.561H76.0759L75.7435 368.349H75.7989C75.9928 368.196 76.2359 368.068 76.5283 367.966C76.8207 367.865 77.1254 367.814 77.4424 367.814C78.021 367.814 78.5365 367.952 78.9889 368.229C79.4444 368.503 79.8014 368.879 80.0599 369.356C80.3215 369.833 80.4523 370.378 80.4523 370.99C80.4523 371.593 80.3169 372.132 80.046 372.606C79.7783 373.077 79.409 373.449 78.9381 373.723C78.4672 373.994 77.9317 374.129 77.3316 374.129ZM85.3707 374.129C84.8291 374.129 84.3413 374.022 83.9073 373.806C83.4734 373.591 83.1256 373.295 82.864 372.92C82.6024 372.544 82.4593 372.116 82.4347 371.636H83.5426C83.5857 372.064 83.7796 372.418 84.1243 372.698C84.4721 372.975 84.8875 373.114 85.3707 373.114C85.7585 373.114 86.1032 373.023 86.4048 372.841C86.7095 372.66 86.948 372.41 87.1204 372.093C87.2958 371.773 87.3835 371.412 87.3835 371.009C87.3835 370.596 87.2927 370.228 87.1112 369.905C86.9326 369.579 86.6864 369.322 86.3725 369.134C86.0586 368.946 85.7 368.851 85.2969 368.848C85.0076 368.845 84.7106 368.89 84.4059 368.982C84.1012 369.071 83.8504 369.187 83.6534 369.328L82.5824 369.199L83.1548 364.545H88.0668V365.561H84.1151L83.7827 368.349H83.8381C84.032 368.196 84.2751 368.068 84.5675 367.966C84.8598 367.865 85.1645 367.814 85.4815 367.814C86.0601 367.814 86.5756 367.952 87.0281 368.229C87.4835 368.503 87.8406 368.879 88.0991 369.356C88.3607 369.833 88.4915 370.378 88.4915 370.99C88.4915 371.593 88.3561 372.132 88.0852 372.606C87.8175 373.077 87.4482 373.449 86.9773 373.723C86.5064 373.994 85.9709 374.129 85.3707 374.129ZM93.5392 374.129C92.8436 374.129 92.2512 373.94 91.7618 373.561C91.2725 373.18 90.8986 372.627 90.64 371.904C90.3815 371.178 90.2522 370.301 90.2522 369.273C90.2522 368.251 90.3815 367.378 90.64 366.655C90.9016 365.929 91.2771 365.375 91.7665 364.993C92.2589 364.609 92.8498 364.416 93.5392 364.416C94.2286 364.416 94.8179 364.609 95.3073 364.993C95.7997 365.375 96.1752 365.929 96.4337 366.655C96.6953 367.378 96.8261 368.251 96.8261 369.273C96.8261 370.301 96.6969 371.178 96.4383 371.904C96.1798 372.627 95.8059 373.18 95.3165 373.561C94.8272 373.94 94.2347 374.129 93.5392 374.129ZM93.5392 373.114C94.2286 373.114 94.7641 372.781 95.1457 372.116C95.5273 371.452 95.7182 370.504 95.7182 369.273C95.7182 368.454 95.6304 367.757 95.455 367.181C95.2827 366.606 95.0334 366.167 94.7071 365.866C94.384 365.564 93.9947 365.413 93.5392 365.413C92.8559 365.413 92.322 365.75 91.9373 366.424C91.5526 367.095 91.3602 368.045 91.3602 369.273C91.3602 370.091 91.4464 370.787 91.6187 371.359C91.7911 371.932 92.0388 372.367 92.362 372.666C92.6882 372.964 93.0806 373.114 93.5392 373.114Z" fill="#8A8A8A"/>
<path d="M482.477 374L486.706 365.635V365.561H481.831V364.545H487.888V365.616L483.677 374H482.477ZM492.566 374.129C492.024 374.129 491.537 374.022 491.103 373.806C490.669 373.591 490.321 373.295 490.059 372.92C489.798 372.544 489.655 372.116 489.63 371.636H490.738C490.781 372.064 490.975 372.418 491.32 372.698C491.667 372.975 492.083 373.114 492.566 373.114C492.954 373.114 493.299 373.023 493.6 372.841C493.905 372.66 494.143 372.41 494.316 372.093C494.491 371.773 494.579 371.412 494.579 371.009C494.579 370.596 494.488 370.228 494.306 369.905C494.128 369.579 493.882 369.322 493.568 369.134C493.254 368.946 492.895 368.851 492.492 368.848C492.203 368.845 491.906 368.89 491.601 368.982C491.297 369.071 491.046 369.187 490.849 369.328L489.778 369.199L490.35 364.545H495.262V365.561H491.31L490.978 368.349H491.033C491.227 368.196 491.47 368.068 491.763 367.966C492.055 367.865 492.36 367.814 492.677 367.814C493.255 367.814 493.771 367.952 494.223 368.229C494.679 368.503 495.036 368.879 495.294 369.356C495.556 369.833 495.687 370.378 495.687 370.99C495.687 371.593 495.551 372.132 495.281 372.606C495.013 373.077 494.643 373.449 494.173 373.723C493.702 373.994 493.166 374.129 492.566 374.129ZM500.734 374.129C500.039 374.129 499.446 373.94 498.957 373.561C498.468 373.18 498.094 372.627 497.835 371.904C497.577 371.178 497.448 370.301 497.448 369.273C497.448 368.251 497.577 367.378 497.835 366.655C498.097 365.929 498.472 365.375 498.962 364.993C499.454 364.609 500.045 364.416 500.734 364.416C501.424 364.416 502.013 364.609 502.503 364.993C502.995 365.375 503.371 365.929 503.629 366.655C503.891 367.378 504.021 368.251 504.021 369.273C504.021 370.301 503.892 371.178 503.634 371.904C503.375 372.627 503.001 373.18 502.512 373.561C502.022 373.94 501.43 374.129 500.734 374.129ZM500.734 373.114C501.424 373.114 501.959 372.781 502.341 372.116C502.723 371.452 502.913 370.504 502.913 369.273C502.913 368.454 502.826 367.757 502.65 367.181C502.478 366.606 502.229 366.167 501.902 365.866C501.579 365.564 501.19 365.413 500.734 365.413C500.051 365.413 499.517 365.75 499.133 366.424C498.748 367.095 498.556 368.045 498.556 369.273C498.556 370.091 498.642 370.787 498.814 371.359C498.986 371.932 499.234 372.367 499.557 372.666C499.884 372.964 500.276 373.114 500.734 373.114Z" fill="white"/>
<path d="M482.477 374L486.706 365.635V365.561H481.831V364.545H487.888V365.616L483.677 374H482.477ZM492.566 374.129C492.024 374.129 491.537 374.022 491.103 373.806C490.669 373.591 490.321 373.295 490.059 372.92C489.798 372.544 489.655 372.116 489.63 371.636H490.738C490.781 372.064 490.975 372.418 491.32 372.698C491.667 372.975 492.083 373.114 492.566 373.114C492.954 373.114 493.299 373.023 493.6 372.841C493.905 372.66 494.143 372.41 494.316 372.093C494.491 371.773 494.579 371.412 494.579 371.009C494.579 370.596 494.488 370.228 494.306 369.905C494.128 369.579 493.882 369.322 493.568 369.134C493.254 368.946 492.895 368.851 492.492 368.848C492.203 368.845 491.906 368.89 491.601 368.982C491.297 369.071 491.046 369.187 490.849 369.328L489.778 369.199L490.35 364.545H495.262V365.561H491.31L490.978 368.349H491.033C491.227 368.196 491.47 368.068 491.763 367.966C492.055 367.865 492.36 367.814 492.677 367.814C493.255 367.814 493.771 367.952 494.223 368.229C494.679 368.503 495.036 368.879 495.294 369.356C495.556 369.833 495.687 370.378 495.687 370.99C495.687 371.593 495.551 372.132 495.281 372.606C495.013 373.077 494.643 373.449 494.173 373.723C493.702 373.994 493.166 374.129 492.566 374.129ZM500.734 374.129C500.039 374.129 499.446 373.94 498.957 373.561C498.468 373.18 498.094 372.627 497.835 371.904C497.577 371.178 497.448 370.301 497.448 369.273C497.448 368.251 497.577 367.378 497.835 366.655C498.097 365.929 498.472 365.375 498.962 364.993C499.454 364.609 500.045 364.416 500.734 364.416C501.424 364.416 502.013 364.609 502.503 364.993C502.995 365.375 503.371 365.929 503.629 366.655C503.891 367.378 504.021 368.251 504.021 369.273C504.021 370.301 503.892 371.178 503.634 371.904C503.375 372.627 503.001 373.18 502.512 373.561C502.022 373.94 501.43 374.129 500.734 374.129ZM500.734 373.114C501.424 373.114 501.959 372.781 502.341 372.116C502.723 371.452 502.913 370.504 502.913 369.273C502.913 368.454 502.826 367.757 502.65 367.181C502.478 366.606 502.229 366.167 501.902 365.866C501.579 365.564 501.19 365.413 500.734 365.413C500.051 365.413 499.517 365.75 499.133 366.424C498.748 367.095 498.556 368.045 498.556 369.273C498.556 370.091 498.642 370.787 498.814 371.359C498.986 371.932 499.234 372.367 499.557 372.666C499.884 372.964 500.276 373.114 500.734 373.114Z" fill="#8A8A8A"/>
<path d="M382.407 374L386.636 365.635V365.561H381.761V364.545H387.818V365.616L383.608 374H382.407ZM392.549 374.129C391.854 374.129 391.261 373.94 390.772 373.561C390.283 373.18 389.909 372.627 389.65 371.904C389.392 371.178 389.262 370.301 389.262 369.273C389.262 368.251 389.392 367.378 389.65 366.655C389.912 365.929 390.287 365.375 390.777 364.993C391.269 364.609 391.86 364.416 392.549 364.416C393.239 364.416 393.828 364.609 394.317 364.993C394.81 365.375 395.185 365.929 395.444 366.655C395.705 367.378 395.836 368.251 395.836 369.273C395.836 370.301 395.707 371.178 395.448 371.904C395.19 372.627 394.816 373.18 394.327 373.561C393.837 373.94 393.245 374.129 392.549 374.129ZM392.549 373.114C393.239 373.114 393.774 372.781 394.156 372.116C394.537 371.452 394.728 370.504 394.728 369.273C394.728 368.454 394.641 367.757 394.465 367.181C394.293 366.606 394.044 366.167 393.717 365.866C393.394 365.564 393.005 365.413 392.549 365.413C391.866 365.413 391.332 365.75 390.947 366.424C390.563 367.095 390.37 368.045 390.37 369.273C390.37 370.091 390.457 370.787 390.629 371.359C390.801 371.932 391.049 372.367 391.372 372.666C391.698 372.964 392.091 373.114 392.549 373.114ZM400.804 374.129C400.109 374.129 399.516 373.94 399.027 373.561C398.538 373.18 398.164 372.627 397.905 371.904C397.647 371.178 397.517 370.301 397.517 369.273C397.517 368.251 397.647 367.378 397.905 366.655C398.167 365.929 398.542 365.375 399.032 364.993C399.524 364.609 400.115 364.416 400.804 364.416C401.494 364.416 402.083 364.609 402.572 364.993C403.065 365.375 403.44 365.929 403.699 366.655C403.96 367.378 404.091 368.251 404.091 369.273C404.091 370.301 403.962 371.178 403.703 371.904C403.445 372.627 403.071 373.18 402.582 373.561C402.092 373.94 401.5 374.129 400.804 374.129ZM400.804 373.114C401.494 373.114 402.029 372.781 402.411 372.116C402.792 371.452 402.983 370.504 402.983 369.273C402.983 368.454 402.896 367.757 402.72 367.181C402.548 366.606 402.299 366.167 401.972 365.866C401.649 365.564 401.26 365.413 400.804 365.413C400.121 365.413 399.587 365.75 399.202 366.424C398.818 367.095 398.625 368.045 398.625 369.273C398.625 370.091 398.712 370.787 398.884 371.359C399.056 371.932 399.304 372.367 399.627 372.666C399.953 372.964 400.346 373.114 400.804 373.114Z" fill="white"/>
<path d="M382.407 374L386.636 365.635V365.561H381.761V364.545H387.818V365.616L383.608 374H382.407ZM392.549 374.129C391.854 374.129 391.261 373.94 390.772 373.561C390.283 373.18 389.909 372.627 389.65 371.904C389.392 371.178 389.262 370.301 389.262 369.273C389.262 368.251 389.392 367.378 389.65 366.655C389.912 365.929 390.287 365.375 390.777 364.993C391.269 364.609 391.86 364.416 392.549 364.416C393.239 364.416 393.828 364.609 394.317 364.993C394.81 365.375 395.185 365.929 395.444 366.655C395.705 367.378 395.836 368.251 395.836 369.273C395.836 370.301 395.707 371.178 395.448 371.904C395.19 372.627 394.816 373.18 394.327 373.561C393.837 373.94 393.245 374.129 392.549 374.129ZM392.549 373.114C393.239 373.114 393.774 372.781 394.156 372.116C394.537 371.452 394.728 370.504 394.728 369.273C394.728 368.454 394.641 367.757 394.465 367.181C394.293 366.606 394.044 366.167 393.717 365.866C393.394 365.564 393.005 365.413 392.549 365.413C391.866 365.413 391.332 365.75 390.947 366.424C390.563 367.095 390.37 368.045 390.37 369.273C390.37 370.091 390.457 370.787 390.629 371.359C390.801 371.932 391.049 372.367 391.372 372.666C391.698 372.964 392.091 373.114 392.549 373.114ZM400.804 374.129C400.109 374.129 399.516 373.94 399.027 373.561C398.538 373.18 398.164 372.627 397.905 371.904C397.647 371.178 397.517 370.301 397.517 369.273C397.517 368.251 397.647 367.378 397.905 366.655C398.167 365.929 398.542 365.375 399.032 364.993C399.524 364.609 400.115 364.416 400.804 364.416C401.494 364.416 402.083 364.609 402.572 364.993C403.065 365.375 403.44 365.929 403.699 366.655C403.96 367.378 404.091 368.251 404.091 369.273C404.091 370.301 403.962 371.178 403.703 371.904C403.445 372.627 403.071 373.18 402.582 373.561C402.092 373.94 401.5 374.129 400.804 374.129ZM400.804 373.114C401.494 373.114 402.029 372.781 402.411 372.116C402.792 371.452 402.983 370.504 402.983 369.273C402.983 368.454 402.896 367.757 402.72 367.181C402.548 366.606 402.299 366.167 401.972 365.866C401.649 365.564 401.26 365.413 400.804 365.413C400.121 365.413 399.587 365.75 399.202 366.424C398.818 367.095 398.625 368.045 398.625 369.273C398.625 370.091 398.712 370.787 398.884 371.359C399.056 371.932 399.304 372.367 399.627 372.666C399.953 372.964 400.346 373.114 400.804 373.114Z" fill="#8A8A8A"/>
<path d="M280.415 374.129C280.027 374.123 279.639 374.049 279.251 373.908C278.864 373.766 278.51 373.528 278.19 373.192C277.869 372.854 277.612 372.397 277.419 371.821C277.225 371.242 277.128 370.516 277.128 369.642C277.128 368.805 277.206 368.063 277.363 367.417C277.52 366.768 277.748 366.221 278.046 365.778C278.345 365.332 278.705 364.993 279.127 364.762C279.551 364.532 280.03 364.416 280.562 364.416C281.092 364.416 281.563 364.522 281.975 364.735C282.391 364.944 282.729 365.236 282.991 365.612C283.252 365.987 283.422 366.42 283.498 366.909H282.372C282.267 366.484 282.064 366.132 281.763 365.852C281.461 365.572 281.061 365.432 280.562 365.432C279.83 365.432 279.253 365.75 278.831 366.387C278.413 367.025 278.202 367.919 278.199 369.07H278.273C278.445 368.808 278.65 368.585 278.887 368.4C279.127 368.212 279.391 368.068 279.681 367.966C279.97 367.865 280.276 367.814 280.599 367.814C281.141 367.814 281.636 367.949 282.086 368.22C282.535 368.488 282.895 368.859 283.166 369.333C283.437 369.804 283.572 370.344 283.572 370.953C283.572 371.538 283.442 372.073 283.18 372.56C282.918 373.043 282.551 373.428 282.077 373.714C281.606 373.997 281.052 374.135 280.415 374.129ZM280.415 373.114C280.802 373.114 281.15 373.017 281.458 372.823C281.769 372.629 282.013 372.369 282.192 372.043C282.374 371.716 282.464 371.353 282.464 370.953C282.464 370.562 282.377 370.207 282.201 369.887C282.029 369.564 281.79 369.307 281.486 369.116C281.184 368.925 280.839 368.83 280.452 368.83C280.159 368.83 279.887 368.888 279.634 369.005C279.382 369.119 279.161 369.276 278.97 369.476C278.782 369.676 278.634 369.905 278.527 370.164C278.419 370.419 278.365 370.688 278.365 370.972C278.365 371.347 278.453 371.698 278.628 372.024C278.807 372.35 279.05 372.614 279.357 372.814C279.668 373.014 280.021 373.114 280.415 373.114ZM288.472 374.129C287.931 374.129 287.443 374.022 287.009 373.806C286.575 373.591 286.227 373.295 285.966 372.92C285.704 372.544 285.561 372.116 285.536 371.636H286.644C286.687 372.064 286.881 372.418 287.226 372.698C287.574 372.975 287.989 373.114 288.472 373.114C288.86 373.114 289.205 373.023 289.506 372.841C289.811 372.66 290.05 372.41 290.222 372.093C290.397 371.773 290.485 371.412 290.485 371.009C290.485 370.596 290.394 370.228 290.213 369.905C290.034 369.579 289.788 369.322 289.474 369.134C289.16 368.946 288.802 368.851 288.398 368.848C288.109 368.845 287.812 368.89 287.507 368.982C287.203 369.071 286.952 369.187 286.755 369.328L285.684 369.199L286.256 364.545H291.168V365.561H287.217L286.884 368.349H286.94C287.134 368.196 287.377 368.068 287.669 367.966C287.961 367.865 288.266 367.814 288.583 367.814C289.162 367.814 289.677 367.952 290.13 368.229C290.585 368.503 290.942 368.879 291.201 369.356C291.462 369.833 291.593 370.378 291.593 370.99C291.593 371.593 291.458 372.132 291.187 372.606C290.919 373.077 290.55 373.449 290.079 373.723C289.608 373.994 289.072 374.129 288.472 374.129ZM296.641 374.129C295.945 374.129 295.353 373.94 294.863 373.561C294.374 373.18 294 372.627 293.742 371.904C293.483 371.178 293.354 370.301 293.354 369.273C293.354 368.251 293.483 367.378 293.742 366.655C294.003 365.929 294.379 365.375 294.868 364.993C295.36 364.609 295.951 364.416 296.641 364.416C297.33 364.416 297.92 364.609 298.409 364.993C298.901 365.375 299.277 365.929 299.535 366.655C299.797 367.378 299.928 368.251 299.928 369.273C299.928 370.301 299.798 371.178 299.54 371.904C299.281 372.627 298.907 373.18 298.418 373.561C297.929 373.94 297.336 374.129 296.641 374.129ZM296.641 373.114C297.33 373.114 297.866 372.781 298.247 372.116C298.629 371.452 298.82 370.504 298.82 369.273C298.82 368.454 298.732 367.757 298.557 367.181C298.384 366.606 298.135 366.167 297.809 365.866C297.486 365.564 297.096 365.413 296.641 365.413C295.958 365.413 295.424 365.75 295.039 366.424C294.654 367.095 294.462 368.045 294.462 369.273C294.462 370.091 294.548 370.787 294.72 371.359C294.893 371.932 295.14 372.367 295.464 372.666C295.79 372.964 296.182 373.114 296.641 373.114Z" fill="white"/>
<path d="M280.415 374.129C280.027 374.123 279.639 374.049 279.251 373.908C278.864 373.766 278.51 373.528 278.19 373.192C277.869 372.854 277.612 372.397 277.419 371.821C277.225 371.242 277.128 370.516 277.128 369.642C277.128 368.805 277.206 368.063 277.363 367.417C277.52 366.768 277.748 366.221 278.046 365.778C278.345 365.332 278.705 364.993 279.127 364.762C279.551 364.532 280.03 364.416 280.562 364.416C281.092 364.416 281.563 364.522 281.975 364.735C282.391 364.944 282.729 365.236 282.991 365.612C283.252 365.987 283.422 366.42 283.498 366.909H282.372C282.267 366.484 282.064 366.132 281.763 365.852C281.461 365.572 281.061 365.432 280.562 365.432C279.83 365.432 279.253 365.75 278.831 366.387C278.413 367.025 278.202 367.919 278.199 369.07H278.273C278.445 368.808 278.65 368.585 278.887 368.4C279.127 368.212 279.391 368.068 279.681 367.966C279.97 367.865 280.276 367.814 280.599 367.814C281.141 367.814 281.636 367.949 282.086 368.22C282.535 368.488 282.895 368.859 283.166 369.333C283.437 369.804 283.572 370.344 283.572 370.953C283.572 371.538 283.442 372.073 283.18 372.56C282.918 373.043 282.551 373.428 282.077 373.714C281.606 373.997 281.052 374.135 280.415 374.129ZM280.415 373.114C280.802 373.114 281.15 373.017 281.458 372.823C281.769 372.629 282.013 372.369 282.192 372.043C282.374 371.716 282.464 371.353 282.464 370.953C282.464 370.562 282.377 370.207 282.201 369.887C282.029 369.564 281.79 369.307 281.486 369.116C281.184 368.925 280.839 368.83 280.452 368.83C280.159 368.83 279.887 368.888 279.634 369.005C279.382 369.119 279.161 369.276 278.97 369.476C278.782 369.676 278.634 369.905 278.527 370.164C278.419 370.419 278.365 370.688 278.365 370.972C278.365 371.347 278.453 371.698 278.628 372.024C278.807 372.35 279.05 372.614 279.357 372.814C279.668 373.014 280.021 373.114 280.415 373.114ZM288.472 374.129C287.931 374.129 287.443 374.022 287.009 373.806C286.575 373.591 286.227 373.295 285.966 372.92C285.704 372.544 285.561 372.116 285.536 371.636H286.644C286.687 372.064 286.881 372.418 287.226 372.698C287.574 372.975 287.989 373.114 288.472 373.114C288.86 373.114 289.205 373.023 289.506 372.841C289.811 372.66 290.05 372.41 290.222 372.093C290.397 371.773 290.485 371.412 290.485 371.009C290.485 370.596 290.394 370.228 290.213 369.905C290.034 369.579 289.788 369.322 289.474 369.134C289.16 368.946 288.802 368.851 288.398 368.848C288.109 368.845 287.812 368.89 287.507 368.982C287.203 369.071 286.952 369.187 286.755 369.328L285.684 369.199L286.256 364.545H291.168V365.561H287.217L286.884 368.349H286.94C287.134 368.196 287.377 368.068 287.669 367.966C287.961 367.865 288.266 367.814 288.583 367.814C289.162 367.814 289.677 367.952 290.13 368.229C290.585 368.503 290.942 368.879 291.201 369.356C291.462 369.833 291.593 370.378 291.593 370.99C291.593 371.593 291.458 372.132 291.187 372.606C290.919 373.077 290.55 373.449 290.079 373.723C289.608 373.994 289.072 374.129 288.472 374.129ZM296.641 374.129C295.945 374.129 295.353 373.94 294.863 373.561C294.374 373.18 294 372.627 293.742 371.904C293.483 371.178 293.354 370.301 293.354 369.273C293.354 368.251 293.483 367.378 293.742 366.655C294.003 365.929 294.379 365.375 294.868 364.993C295.36 364.609 295.951 364.416 296.641 364.416C297.33 364.416 297.92 364.609 298.409 364.993C298.901 365.375 299.277 365.929 299.535 366.655C299.797 367.378 299.928 368.251 299.928 369.273C299.928 370.301 299.798 371.178 299.54 371.904C299.281 372.627 298.907 373.18 298.418 373.561C297.929 373.94 297.336 374.129 296.641 374.129ZM296.641 373.114C297.33 373.114 297.866 372.781 298.247 372.116C298.629 371.452 298.82 370.504 298.82 369.273C298.82 368.454 298.732 367.757 298.557 367.181C298.384 366.606 298.135 366.167 297.809 365.866C297.486 365.564 297.096 365.413 296.641 365.413C295.958 365.413 295.424 365.75 295.039 366.424C294.654 367.095 294.462 368.045 294.462 369.273C294.462 370.091 294.548 370.787 294.72 371.359C294.893 371.932 295.14 372.367 295.464 372.666C295.79 372.964 296.182 373.114 296.641 373.114Z" fill="#8A8A8A"/>
<path d="M177.307 374.129C176.919 374.123 176.531 374.049 176.143 373.908C175.756 373.766 175.402 373.528 175.082 373.192C174.762 372.854 174.505 372.397 174.311 371.821C174.117 371.242 174.02 370.516 174.02 369.642C174.02 368.805 174.098 368.063 174.255 367.417C174.412 366.768 174.64 366.221 174.938 365.778C175.237 365.332 175.597 364.993 176.019 364.762C176.443 364.532 176.922 364.416 177.454 364.416C177.984 364.416 178.455 364.522 178.867 364.735C179.283 364.944 179.621 365.236 179.883 365.612C180.144 365.987 180.314 366.42 180.391 366.909H179.264C179.159 366.484 178.956 366.132 178.655 365.852C178.353 365.572 177.953 365.432 177.454 365.432C176.722 365.432 176.145 365.75 175.723 366.387C175.305 367.025 175.094 367.919 175.091 369.07H175.165C175.337 368.808 175.542 368.585 175.779 368.4C176.019 368.212 176.283 368.068 176.573 367.966C176.862 367.865 177.168 367.814 177.491 367.814C178.033 367.814 178.529 367.949 178.978 368.22C179.427 368.488 179.787 368.859 180.058 369.333C180.329 369.804 180.464 370.344 180.464 370.953C180.464 371.538 180.334 372.073 180.072 372.56C179.81 373.043 179.443 373.428 178.969 373.714C178.498 373.997 177.944 374.135 177.307 374.129ZM177.307 373.114C177.695 373.114 178.042 373.017 178.35 372.823C178.661 372.629 178.906 372.369 179.084 372.043C179.266 371.716 179.356 371.353 179.356 370.953C179.356 370.562 179.269 370.207 179.093 369.887C178.921 369.564 178.682 369.307 178.378 369.116C178.076 368.925 177.731 368.83 177.344 368.83C177.051 368.83 176.779 368.888 176.527 369.005C176.274 369.119 176.053 369.276 175.862 369.476C175.674 369.676 175.526 369.905 175.419 370.164C175.311 370.419 175.257 370.688 175.257 370.972C175.257 371.347 175.345 371.698 175.52 372.024C175.699 372.35 175.942 372.614 176.25 372.814C176.56 373.014 176.913 373.114 177.307 373.114ZM185.494 374.129C184.798 374.129 184.206 373.94 183.716 373.561C183.227 373.18 182.853 372.627 182.595 371.904C182.336 371.178 182.207 370.301 182.207 369.273C182.207 368.251 182.336 367.378 182.595 366.655C182.856 365.929 183.232 365.375 183.721 364.993C184.213 364.609 184.804 364.416 185.494 364.416C186.183 364.416 186.772 364.609 187.262 364.993C187.754 365.375 188.13 365.929 188.388 366.655C188.65 367.378 188.781 368.251 188.781 369.273C188.781 370.301 188.651 371.178 188.393 371.904C188.134 372.627 187.76 373.18 187.271 373.561C186.782 373.94 186.189 374.129 185.494 374.129ZM185.494 373.114C186.183 373.114 186.719 372.781 187.1 372.116C187.482 371.452 187.673 370.504 187.673 369.273C187.673 368.454 187.585 367.757 187.409 367.181C187.237 366.606 186.988 366.167 186.662 365.866C186.338 365.564 185.949 365.413 185.494 365.413C184.81 365.413 184.276 365.75 183.892 366.424C183.507 367.095 183.315 368.045 183.315 369.273C183.315 370.091 183.401 370.787 183.573 371.359C183.746 371.932 183.993 372.367 184.316 372.666C184.643 372.964 185.035 373.114 185.494 373.114ZM193.749 374.129C193.053 374.129 192.461 373.94 191.971 373.561C191.482 373.18 191.108 372.627 190.85 371.904C190.591 371.178 190.462 370.301 190.462 369.273C190.462 368.251 190.591 367.378 190.85 366.655C191.111 365.929 191.487 365.375 191.976 364.993C192.468 364.609 193.059 364.416 193.749 364.416C194.438 364.416 195.027 364.609 195.517 364.993C196.009 365.375 196.385 365.929 196.643 366.655C196.905 367.378 197.036 368.251 197.036 369.273C197.036 370.301 196.906 371.178 196.648 371.904C196.389 372.627 196.015 373.18 195.526 373.561C195.037 373.94 194.444 374.129 193.749 374.129ZM193.749 373.114C194.438 373.114 194.974 372.781 195.355 372.116C195.737 371.452 195.928 370.504 195.928 369.273C195.928 368.454 195.84 367.757 195.664 367.181C195.492 366.606 195.243 366.167 194.917 365.866C194.593 365.564 194.204 365.413 193.749 365.413C193.065 365.413 192.531 365.75 192.147 366.424C191.762 367.095 191.57 368.045 191.57 369.273C191.57 370.091 191.656 370.787 191.828 371.359C192.001 371.932 192.248 372.367 192.571 372.666C192.898 372.964 193.29 373.114 193.749 373.114Z" fill="white"/>
<path d="M177.307 374.129C176.919 374.123 176.531 374.049 176.143 373.908C175.756 373.766 175.402 373.528 175.082 373.192C174.762 372.854 174.505 372.397 174.311 371.821C174.117 371.242 174.02 370.516 174.02 369.642C174.02 368.805 174.098 368.063 174.255 367.417C174.412 366.768 174.64 366.221 174.938 365.778C175.237 365.332 175.597 364.993 176.019 364.762C176.443 364.532 176.922 364.416 177.454 364.416C177.984 364.416 178.455 364.522 178.867 364.735C179.283 364.944 179.621 365.236 179.883 365.612C180.144 365.987 180.314 366.42 180.391 366.909H179.264C179.159 366.484 178.956 366.132 178.655 365.852C178.353 365.572 177.953 365.432 177.454 365.432C176.722 365.432 176.145 365.75 175.723 366.387C175.305 367.025 175.094 367.919 175.091 369.07H175.165C175.337 368.808 175.542 368.585 175.779 368.4C176.019 368.212 176.283 368.068 176.573 367.966C176.862 367.865 177.168 367.814 177.491 367.814C178.033 367.814 178.529 367.949 178.978 368.22C179.427 368.488 179.787 368.859 180.058 369.333C180.329 369.804 180.464 370.344 180.464 370.953C180.464 371.538 180.334 372.073 180.072 372.56C179.81 373.043 179.443 373.428 178.969 373.714C178.498 373.997 177.944 374.135 177.307 374.129ZM177.307 373.114C177.695 373.114 178.042 373.017 178.35 372.823C178.661 372.629 178.906 372.369 179.084 372.043C179.266 371.716 179.356 371.353 179.356 370.953C179.356 370.562 179.269 370.207 179.093 369.887C178.921 369.564 178.682 369.307 178.378 369.116C178.076 368.925 177.731 368.83 177.344 368.83C177.051 368.83 176.779 368.888 176.527 369.005C176.274 369.119 176.053 369.276 175.862 369.476C175.674 369.676 175.526 369.905 175.419 370.164C175.311 370.419 175.257 370.688 175.257 370.972C175.257 371.347 175.345 371.698 175.52 372.024C175.699 372.35 175.942 372.614 176.25 372.814C176.56 373.014 176.913 373.114 177.307 373.114ZM185.494 374.129C184.798 374.129 184.206 373.94 183.716 373.561C183.227 373.18 182.853 372.627 182.595 371.904C182.336 371.178 182.207 370.301 182.207 369.273C182.207 368.251 182.336 367.378 182.595 366.655C182.856 365.929 183.232 365.375 183.721 364.993C184.213 364.609 184.804 364.416 185.494 364.416C186.183 364.416 186.772 364.609 187.262 364.993C187.754 365.375 188.13 365.929 188.388 366.655C188.65 367.378 188.781 368.251 188.781 369.273C188.781 370.301 188.651 371.178 188.393 371.904C188.134 372.627 187.76 373.18 187.271 373.561C186.782 373.94 186.189 374.129 185.494 374.129ZM185.494 373.114C186.183 373.114 186.719 372.781 187.1 372.116C187.482 371.452 187.673 370.504 187.673 369.273C187.673 368.454 187.585 367.757 187.409 367.181C187.237 366.606 186.988 366.167 186.662 365.866C186.338 365.564 185.949 365.413 185.494 365.413C184.81 365.413 184.276 365.75 183.892 366.424C183.507 367.095 183.315 368.045 183.315 369.273C183.315 370.091 183.401 370.787 183.573 371.359C183.746 371.932 183.993 372.367 184.316 372.666C184.643 372.964 185.035 373.114 185.494 373.114ZM193.749 374.129C193.053 374.129 192.461 373.94 191.971 373.561C191.482 373.18 191.108 372.627 190.85 371.904C190.591 371.178 190.462 370.301 190.462 369.273C190.462 368.251 190.591 367.378 190.85 366.655C191.111 365.929 191.487 365.375 191.976 364.993C192.468 364.609 193.059 364.416 193.749 364.416C194.438 364.416 195.027 364.609 195.517 364.993C196.009 365.375 196.385 365.929 196.643 366.655C196.905 367.378 197.036 368.251 197.036 369.273C197.036 370.301 196.906 371.178 196.648 371.904C196.389 372.627 196.015 373.18 195.526 373.561C195.037 373.94 194.444 374.129 193.749 374.129ZM193.749 373.114C194.438 373.114 194.974 372.781 195.355 372.116C195.737 371.452 195.928 370.504 195.928 369.273C195.928 368.454 195.84 367.757 195.664 367.181C195.492 366.606 195.243 366.167 194.917 365.866C194.593 365.564 194.204 365.413 193.749 365.413C193.065 365.413 192.531 365.75 192.147 366.424C191.762 367.095 191.57 368.045 191.57 369.273C191.57 370.091 191.656 370.787 191.828 371.359C192.001 371.932 192.248 372.367 192.571 372.666C192.898 372.964 193.29 373.114 193.749 373.114Z" fill="#8A8A8A"/>
<defs>
<clipPath id="clip0_2356_3378">
<rect width="472" height="259" fill="white" transform="translate(81 93)"/>
</clipPath>
</defs>
</svg>
