<svg width="550" height="499" viewBox="0 0 550 499" fill="none" xmlns="http://www.w3.org/2000/svg">
<g clip-path="url(#clip0_2393_2609)">
<path d="M253.487 375.93L183.882 498.372H548.919L480.068 375.93H253.487Z" stroke="#B5B5B5" stroke-miterlimit="10"/>
<path d="M196.858 490.826L257.875 383.477H475.655L536.019 490.826H196.858Z" stroke="#B5B5B5" stroke-miterlimit="10"/>
<path d="M276.119 290.201L358.36 149.975L276.987 2.90594L276.132 1.30859L1.06873 498.372H160.396L276.119 290.201Z" stroke="#B5B5B5" stroke-miterlimit="10"/>
<path d="M13.8682 490.824L276.119 16.916L349.684 149.86L269.518 286.54L155.957 490.824H13.8682Z" stroke="#B5B5B5" stroke-miterlimit="10"/>
<path d="M196.858 490.826L257.875 383.477H475.655L536.019 490.826H196.858Z" stroke="#B5B5B5" stroke-miterlimit="10"/>
<path d="M209.821 483.277L262.263 391.021H471.242L523.119 483.277H209.821Z" stroke="#B5B5B5" stroke-miterlimit="10"/>
<path d="M13.8682 490.824L276.119 16.916L349.684 149.86L269.518 286.54L155.957 490.824H13.8682Z" stroke="#B5B5B5" stroke-miterlimit="10"/>
<path d="M26.6676 483.278L276.119 32.5L340.996 149.76L262.93 282.868L151.519 483.278H26.6676Z" stroke="#B5B5B5" stroke-miterlimit="10"/>
<path d="M209.821 483.277L262.263 391.021H471.242L523.119 483.277H209.821Z" stroke="#B5B5B5" stroke-miterlimit="10"/>
<path d="M222.784 475.731L266.651 398.568H466.829L510.219 475.731H222.784Z" stroke="#B5B5B5" stroke-miterlimit="10"/>
<path d="M26.6676 483.278L276.119 32.5L340.996 149.76L262.93 282.868L151.519 483.278H26.6676Z" stroke="#B5B5B5" stroke-miterlimit="10"/>
<path d="M39.4672 475.731L276.119 48.0703L332.321 149.646L256.341 279.207L147.081 475.731H39.4672Z" stroke="#B5B5B5" stroke-miterlimit="10"/>
<path d="M222.784 475.731L266.651 398.568H466.829L510.219 475.731H222.784Z" stroke="#B5B5B5" stroke-miterlimit="10"/>
<path d="M235.759 468.185L271.039 406.115H462.415L497.318 468.185H235.759Z" stroke="#B5B5B5" stroke-miterlimit="10"/>
<path d="M39.4672 475.731L276.119 48.0703L332.321 149.646L256.341 279.207L147.081 475.731H39.4672Z" stroke="#B5B5B5" stroke-miterlimit="10"/>
<path d="M52.2666 468.185L276.119 63.6543L323.633 149.534L249.741 275.535L142.642 468.185H52.2666Z" stroke="#B5B5B5" stroke-miterlimit="10"/>
<path d="M235.759 468.185L271.039 406.115H462.415L497.318 468.185H235.759Z" stroke="#B5B5B5" stroke-miterlimit="10"/>
<path d="M248.722 460.639L275.428 413.662H458.002L484.418 460.639H248.722Z" stroke="#B5B5B5" stroke-miterlimit="10"/>
<path d="M52.2666 468.185L276.119 63.6543L323.633 149.534L249.741 275.535L142.642 468.185H52.2666Z" stroke="#B5B5B5" stroke-miterlimit="10"/>
<path d="M65.066 460.639L276.119 79.2383L314.957 149.433L243.152 271.863L138.204 460.639H65.066Z" stroke="#B5B5B5" stroke-miterlimit="10"/>
<path d="M248.722 460.639L275.428 413.662H458.002L484.418 460.639H248.722Z" stroke="#B5B5B5" stroke-miterlimit="10"/>
<path d="M261.698 453.093L279.816 421.209H453.589L471.531 453.093H261.698Z" stroke="#B5B5B5" stroke-miterlimit="10"/>
<path d="M65.066 460.639L276.119 79.2383L314.957 149.433L243.152 271.863L138.204 460.639H65.066Z" stroke="#B5B5B5" stroke-miterlimit="10"/>
<path d="M77.8655 453.093L276.119 94.8223L306.269 149.321L236.551 268.203L133.778 453.093H77.8655Z" stroke="#B5B5B5" stroke-miterlimit="10"/>
<path d="M261.698 453.093L279.816 421.209H453.589L471.531 453.093H261.698Z" stroke="#B5B5B5" stroke-miterlimit="10"/>
<path d="M274.661 445.545L284.204 428.754H449.176L458.631 445.545H274.661Z" stroke="#B5B5B5" stroke-miterlimit="10"/>
<path d="M77.8655 453.093L276.119 94.8223L306.269 149.321L236.551 268.203L133.778 453.093H77.8655Z" stroke="#B5B5B5" stroke-miterlimit="10"/>
<path d="M90.665 445.546L276.119 110.406L297.594 149.22L229.963 264.531L129.34 445.546H90.665Z" stroke="#B5B5B5" stroke-miterlimit="10"/>
<path d="M274.661 445.545L284.204 428.754H449.176L458.631 445.545H274.661Z" stroke="#B5B5B5" stroke-miterlimit="10"/>
<path d="M90.665 445.546L276.119 110.406L297.594 149.22L229.963 264.531L129.34 445.546H90.665Z" stroke="#B5B5B5" stroke-miterlimit="10"/>
<path d="M286.655 437.145H447.214" stroke="#B5B5B5" stroke-miterlimit="10"/>
<path d="M276.723 146.541L121.042 426.315" stroke="#B5B5B5" stroke-miterlimit="10"/>
<path d="M105.589 436.742L276.119 128.58L287.46 149.081L222.281 260.229L124.16 436.742H105.589Z" stroke="#B5B5B5" stroke-miterlimit="10"/>
</g>
<defs>
<clipPath id="clip0_2393_2609">
<rect width="550" height="499" fill="white"/>
</clipPath>
</defs>
</svg>
