<svg width="198" height="37" viewBox="0 0 198 37" fill="none" xmlns="http://www.w3.org/2000/svg">
<path fill-rule="evenodd" clip-rule="evenodd" d="M64.7853 18.8634C63.2006 27.5208 57.701 28.6143 53.0403 28.6143C48.3796 28.6143 44.185 25.5159 45.3968 18.7723C46.3289 13.4867 49.4982 8.65683 57.3282 9.02135C62.6413 9.29474 65.8106 12.9399 64.7853 18.8634ZM56.3028 12.8488C54.625 12.8488 52.6675 13.669 51.5489 18.8634C50.3371 24.6046 52.7607 24.9691 53.9725 24.9691C55.091 24.9691 57.3282 24.4223 58.5399 18.8634C59.3789 15.0359 58.7264 12.8488 56.3028 12.8488Z" fill="black"/>
<path fill-rule="evenodd" clip-rule="evenodd" d="M76.5284 27.8864L76.2488 28.1598C75.1302 28.342 73.732 28.5243 72.9863 28.5243C70.2831 28.5243 66.2749 28.1598 67.9527 21.4162C69.0713 16.8596 69.9102 13.4878 69.9102 13.4878L67.3935 13.579L67.207 13.3056L68.2324 9.75149L68.512 9.56923H70.8424L71.8677 5.01272L72.1474 4.73933C74.8506 4.10142 75.5963 3.91916 78.113 3.28125L78.2995 3.37238L76.7148 9.56923L80.4434 9.4781L80.6298 9.75149C80.1637 11.2096 79.9773 11.6652 79.5113 13.3056L79.2316 13.579L75.8759 13.4878C75.8759 13.4878 75.2234 16.2217 74.2913 20.0492C73.2659 24.1501 73.8252 23.9678 74.8506 24.3323C75.6895 24.6968 76.9013 24.2412 77.5538 24.0589L77.7402 24.2412L76.5284 27.8864Z" fill="black"/>
<path fill-rule="evenodd" clip-rule="evenodd" d="M89.6709 10.8454C90.603 10.2075 92.1876 9.1139 94.518 9.1139C98.1533 9.1139 100.577 11.7567 100.577 16.2221C100.577 18.7737 99.6447 21.781 97.7805 23.9681C94.1451 28.3424 89.6709 28.2512 85.8491 28.2512L83.7984 36.7263L83.5188 36.9086C82.6798 36.9086 81.9341 36.9086 81.0952 36.9086C79.8834 36.9086 78.7649 36.9997 77.4599 36.9997L77.2734 36.7263C77.2734 36.7263 78.5784 32.99 80.1631 26.5198C81.8409 19.7761 83.4255 11.8478 83.5188 10.2075L83.7984 9.93407L89.9505 8.93164L90.1369 9.20503L89.6709 10.8454ZM86.688 24.3326C88.3659 24.5149 90.2301 23.9681 91.5351 22.9657C93.0266 21.781 94.3316 19.3205 94.3316 16.5866C94.3316 13.5793 92.3741 13.2148 91.6284 13.2148C90.603 13.2148 89.7641 13.7615 89.0184 14.2172L86.688 24.3326Z" fill="black"/>
<path fill-rule="evenodd" clip-rule="evenodd" d="M100.857 28.0688C101.137 26.9752 102.628 20.6872 104.213 13.6702C105.611 7.56447 106.543 3.82813 106.823 1.0031L107.103 0.729708L111.018 0.0917969L111.204 0.365187L110.179 4.28378L108.501 11.1185C109.992 10.2984 111.484 9.56933 113.814 9.56933C117.356 9.56933 120.432 11.9387 120.432 16.4041C120.432 18.2267 119.873 21.5985 117.449 24.3324C114.187 27.9776 110.179 28.251 105.518 28.4333H103.561H101.044L100.857 28.0688ZM105.332 25.426C107.382 25.5171 110.365 25.426 112.789 23.8768C115.492 22.0542 116.704 18.9557 116.704 16.6775C116.704 13.4879 114.746 12.2121 112.416 12.2121C110.552 12.2121 109.247 13.0323 108.128 13.6702C108.035 13.7613 105.518 24.6058 105.332 25.426Z" fill="black"/>
<path fill-rule="evenodd" clip-rule="evenodd" d="M139.915 16.95C138.61 22.4178 138.424 23.7847 137.678 27.9767L137.398 28.2501L134.043 28.3412L133.856 28.0678L134.136 26.6098C133.483 27.0654 131.899 28.4324 128.823 28.4324C125.094 28.4324 122.111 25.8807 122.111 21.5065C122.111 18.6814 123.51 15.6741 125.001 13.9427C128.357 10.1152 133.017 9.8418 136.373 9.8418H141.407L141.593 10.1152L139.915 16.95ZM137.305 12.4846C136.746 12.4846 136.187 12.4846 135.721 12.4846C134.509 12.4846 132.178 12.5757 130.034 13.9427C126.213 16.4943 126.12 21.0508 126.12 21.2331C126.12 22.9645 127.052 25.6984 130.314 25.6984C131.246 25.6984 132.924 25.5162 134.695 23.967L137.305 12.4846Z" fill="black"/>
<path fill-rule="evenodd" clip-rule="evenodd" d="M196.316 16.95C195.011 22.4178 194.824 23.7847 194.078 27.9767L193.799 28.2501L190.443 28.3412L190.257 28.0678L190.536 26.6098C189.884 27.0654 188.299 28.4324 185.223 28.4324C181.495 28.4324 178.512 25.8807 178.512 21.5065C178.512 18.6814 179.91 15.6741 181.401 13.9427C184.757 10.1152 189.418 9.8418 192.773 9.8418H197.807L197.993 10.1152L196.316 16.95ZM193.706 12.4846C193.146 12.4846 192.587 12.4846 192.121 12.4846C190.909 12.4846 188.579 12.5757 186.435 13.9427C182.613 16.4943 182.52 21.0508 182.52 21.2331C182.52 22.9645 183.452 25.6984 186.715 25.6984C187.647 25.6984 189.325 25.5162 191.096 23.967L193.706 12.4846Z" fill="black"/>
<path fill-rule="evenodd" clip-rule="evenodd" d="M157.904 27.9747L157.624 28.1569L153.895 28.248L153.709 27.9747C154.268 25.6053 156.505 17.5858 156.505 15.1253C156.505 13.0293 155.2 12.3003 153.429 12.3003C151.192 12.3003 149.701 13.3938 148.582 14.214C147.277 20.1375 146.811 22.0512 145.693 27.9747L145.413 28.1569L141.684 28.248L141.498 27.9747C141.498 27.9747 142.617 23.6004 143.549 19.135C144.294 15.581 144.947 12.6648 145.227 10.2954L145.506 10.022C147.184 9.83975 147.65 9.74862 149.328 9.3841L149.514 9.65749L149.048 11.4801C150.447 10.5688 152.311 9.29297 155.294 9.29297C156.505 9.29297 160.42 9.56636 160.42 13.8495C160.514 16.5834 158.183 25.5141 157.904 27.9747Z" fill="black"/>
<path fill-rule="evenodd" clip-rule="evenodd" d="M171.699 17.4065L177.292 27.8865L177.106 28.1599L173.098 28.251L172.818 28.0688C171.886 25.6082 167.784 17.771 167.784 17.771C166.759 22.2364 166.479 23.33 165.64 27.9776L165.361 28.1599L161.725 28.251L161.539 28.0688C161.539 28.0688 163.497 20.2316 165.174 12.9412C165.92 9.56933 167.132 4.19265 167.691 0.911968L167.971 0.729708L171.886 0.0917969L172.072 0.365187C171.327 2.73457 167.878 17.3154 167.878 17.3154C170.488 15.1283 174.775 10.6629 175.335 10.025L175.708 9.84272H179.902L179.995 10.1161C178.97 10.9363 177.106 12.5766 176.36 13.2145L171.699 17.4065Z" fill="black"/>
<path fill-rule="evenodd" clip-rule="evenodd" d="M0 17.497C0 7.8372 8.01639 0 17.897 0V6.28798C11.5585 6.28798 6.52496 11.3001 6.52496 17.497C6.52496 23.6938 11.6517 28.706 17.9903 28.706C24.2356 28.706 29.4556 23.785 29.4556 17.497H35.8873C35.8873 27.1568 27.8709 34.994 17.9903 34.994C8.01638 34.994 0 27.1568 0 17.497Z" fill="black"/>
<path fill-rule="evenodd" clip-rule="evenodd" d="M9.97461 17.4961C9.97461 13.2129 13.5167 9.75 17.8978 9.75C22.2788 9.75 25.821 13.2129 25.821 17.4961C25.821 21.7792 22.2788 25.2421 17.8978 25.2421C13.5167 25.2421 9.97461 21.7792 9.97461 17.4961Z" fill="black"/>
<path fill-rule="evenodd" clip-rule="evenodd" d="M23.3965 7.65483C23.3965 5.19432 25.4472 3.18945 27.964 3.18945C30.4807 3.18945 32.5314 5.19432 32.5314 7.65483C32.5314 10.1153 30.4807 12.1202 27.964 12.1202C25.4472 12.1202 23.3965 10.1153 23.3965 7.65483Z" fill="black"/>
</svg>
