<svg width="452" height="379" viewBox="0 0 452 379" fill="none" xmlns="http://www.w3.org/2000/svg">
<g filter="url(#filter0_d_2351_2919)">
<rect x="60" y="56" width="332" height="259" rx="18" fill="white" shape-rendering="crispEdges"/>
<path d="M87.66 96.5V82.5H92.06C93.4333 82.5 94.6467 82.8 95.7 83.4C96.7667 83.9867 97.6 84.8067 98.2 85.86C98.8133 86.9133 99.12 88.1267 99.12 89.5C99.12 90.86 98.8133 92.0667 98.2 93.12C97.6 94.1733 96.7667 95 95.7 95.6C94.6467 96.2 93.4333 96.5 92.06 96.5H87.66ZM89.98 94.34H92.06C92.7133 94.34 93.3267 94.22 93.9 93.98C94.4733 93.7267 94.9733 93.38 95.4 92.94C95.8267 92.5 96.16 91.9867 96.4 91.4C96.64 90.8133 96.76 90.18 96.76 89.5C96.76 88.82 96.64 88.1867 96.4 87.6C96.16 87.0133 95.8267 86.5 95.4 86.06C94.9733 85.62 94.4733 85.28 93.9 85.04C93.3267 84.7867 92.7133 84.66 92.06 84.66H89.98V94.34ZM107.646 96.5L107.546 94.62V91.36C107.546 90.68 107.473 90.1133 107.326 89.66C107.193 89.1933 106.966 88.84 106.646 88.6C106.34 88.3467 105.926 88.22 105.406 88.22C104.926 88.22 104.506 88.32 104.146 88.52C103.786 88.72 103.48 89.0333 103.226 89.46L101.266 88.74C101.48 88.3 101.76 87.8933 102.106 87.52C102.466 87.1333 102.913 86.8267 103.446 86.6C103.993 86.3733 104.646 86.26 105.406 86.26C106.38 86.26 107.193 86.4533 107.846 86.84C108.5 87.2133 108.98 87.7533 109.286 88.46C109.606 89.1667 109.766 90.02 109.766 91.02L109.706 96.5H107.646ZM104.766 96.74C103.566 96.74 102.633 96.4733 101.966 95.94C101.313 95.4067 100.986 94.6533 100.986 93.68C100.986 92.64 101.333 91.8467 102.026 91.3C102.733 90.7533 103.713 90.48 104.966 90.48H107.646V92.2H105.686C104.793 92.2 104.166 92.3267 103.806 92.58C103.446 92.82 103.266 93.1667 103.266 93.62C103.266 94.0067 103.42 94.3133 103.726 94.54C104.046 94.7533 104.486 94.86 105.046 94.86C105.553 94.86 105.993 94.7467 106.366 94.52C106.74 94.2933 107.026 93.9933 107.226 93.62C107.44 93.2467 107.546 92.8267 107.546 92.36H108.206C108.206 93.72 107.933 94.7933 107.386 95.58C106.84 96.3533 105.966 96.74 104.766 96.74ZM113.78 100.74C113.46 100.74 113.1 100.68 112.7 100.56C112.313 100.44 111.94 100.287 111.58 100.1L112.42 98.28C112.673 98.4 112.907 98.4933 113.12 98.56C113.333 98.64 113.507 98.68 113.64 98.68C113.96 98.68 114.227 98.5933 114.44 98.42C114.667 98.26 114.847 98.02 114.98 97.7L116.16 94.94L119.54 86.5H121.98L117.34 97.56C117.06 98.2 116.773 98.76 116.48 99.24C116.2 99.72 115.847 100.087 115.42 100.34C114.993 100.607 114.447 100.74 113.78 100.74ZM115.56 96.5L111.08 86.5H113.52L117 94.92L117.72 96.5H115.56ZM129.038 100.5V86.5H131.138L131.278 88.34V100.5H129.038ZM134.438 96.74C133.598 96.74 132.871 96.5267 132.258 96.1C131.658 95.66 131.198 95.0467 130.878 94.26C130.558 93.4733 130.398 92.5533 130.398 91.5C130.398 90.4333 130.558 89.5133 130.878 88.74C131.198 87.9533 131.658 87.3467 132.258 86.92C132.871 86.48 133.598 86.26 134.438 86.26C135.344 86.26 136.131 86.48 136.798 86.92C137.478 87.3467 138.004 87.9533 138.378 88.74C138.764 89.5133 138.958 90.4333 138.958 91.5C138.958 92.5533 138.764 93.4733 138.378 94.26C138.004 95.0467 137.478 95.66 136.798 96.1C136.131 96.5267 135.344 96.74 134.438 96.74ZM133.878 94.7C134.411 94.7 134.884 94.5667 135.298 94.3C135.711 94.02 136.038 93.64 136.278 93.16C136.531 92.68 136.658 92.1267 136.658 91.5C136.658 90.8733 136.538 90.32 136.298 89.84C136.071 89.36 135.751 88.9867 135.338 88.72C134.924 88.4533 134.444 88.32 133.898 88.32C133.391 88.32 132.938 88.4533 132.538 88.72C132.138 88.9867 131.824 89.36 131.598 89.84C131.384 90.32 131.278 90.8733 131.278 91.5C131.278 92.1267 131.384 92.68 131.598 93.16C131.824 93.64 132.131 94.02 132.518 94.3C132.918 94.5667 133.371 94.7 133.878 94.7ZM147.371 96.5L147.271 94.62V91.36C147.271 90.68 147.198 90.1133 147.051 89.66C146.918 89.1933 146.691 88.84 146.371 88.6C146.065 88.3467 145.651 88.22 145.131 88.22C144.651 88.22 144.231 88.32 143.871 88.52C143.511 88.72 143.205 89.0333 142.951 89.46L140.991 88.74C141.205 88.3 141.485 87.8933 141.831 87.52C142.191 87.1333 142.638 86.8267 143.171 86.6C143.718 86.3733 144.371 86.26 145.131 86.26C146.105 86.26 146.918 86.4533 147.571 86.84C148.225 87.2133 148.705 87.7533 149.011 88.46C149.331 89.1667 149.491 90.02 149.491 91.02L149.431 96.5H147.371ZM144.491 96.74C143.291 96.74 142.358 96.4733 141.691 95.94C141.038 95.4067 140.711 94.6533 140.711 93.68C140.711 92.64 141.058 91.8467 141.751 91.3C142.458 90.7533 143.438 90.48 144.691 90.48H147.371V92.2H145.411C144.518 92.2 143.891 92.3267 143.531 92.58C143.171 92.82 142.991 93.1667 142.991 93.62C142.991 94.0067 143.145 94.3133 143.451 94.54C143.771 94.7533 144.211 94.86 144.771 94.86C145.278 94.86 145.718 94.7467 146.091 94.52C146.465 94.2933 146.751 93.9933 146.951 93.62C147.165 93.2467 147.271 92.8267 147.271 92.36H147.931C147.931 93.72 147.658 94.7933 147.111 95.58C146.565 96.3533 145.691 96.74 144.491 96.74ZM155.8 96.74C155.133 96.74 154.52 96.64 153.96 96.44C153.4 96.24 152.92 95.96 152.52 95.6C152.12 95.2267 151.813 94.7933 151.6 94.3L153.54 93.44C153.74 93.8133 154.033 94.1267 154.42 94.38C154.82 94.6333 155.26 94.76 155.74 94.76C156.26 94.76 156.673 94.6733 156.98 94.5C157.3 94.3133 157.46 94.06 157.46 93.74C157.46 93.4333 157.34 93.2 157.1 93.04C156.86 92.8667 156.52 92.7267 156.08 92.62L155.14 92.36C154.193 92.12 153.453 91.74 152.92 91.22C152.386 90.6867 152.12 90.08 152.12 89.4C152.12 88.4 152.44 87.6267 153.08 87.08C153.733 86.5333 154.666 86.26 155.88 86.26C156.493 86.26 157.053 86.3533 157.56 86.54C158.08 86.7133 158.526 86.9667 158.9 87.3C159.273 87.62 159.533 88 159.68 88.44L157.82 89.28C157.686 88.9467 157.433 88.6933 157.06 88.52C156.686 88.3333 156.273 88.24 155.82 88.24C155.366 88.24 155.013 88.34 154.76 88.54C154.506 88.7267 154.38 88.9933 154.38 89.34C154.38 89.54 154.493 89.7267 154.72 89.9C154.946 90.06 155.273 90.1933 155.7 90.3L156.88 90.58C157.533 90.74 158.066 90.9933 158.48 91.34C158.893 91.6733 159.2 92.0533 159.4 92.48C159.6 92.8933 159.7 93.3133 159.7 93.74C159.7 94.34 159.526 94.8667 159.18 95.32C158.846 95.7733 158.386 96.1267 157.8 96.38C157.213 96.62 156.546 96.74 155.8 96.74ZM165.856 96.74C164.803 96.74 163.996 96.48 163.436 95.96C162.889 95.4267 162.616 94.6667 162.616 93.68V83.38H164.836V93.26C164.836 93.7267 164.943 94.08 165.156 94.32C165.383 94.56 165.709 94.68 166.136 94.68C166.269 94.68 166.416 94.6533 166.576 94.6C166.736 94.5467 166.916 94.4467 167.116 94.3L167.936 96C167.589 96.24 167.243 96.42 166.896 96.54C166.549 96.6733 166.203 96.74 165.856 96.74ZM160.956 88.42V86.5H167.536V88.42H160.956ZM182.572 96.5L182.472 94.64V82.5H184.692V96.5H182.572ZM179.312 96.74C178.405 96.74 177.612 96.5267 176.932 96.1C176.265 95.66 175.738 95.0467 175.352 94.26C174.978 93.4733 174.792 92.5533 174.792 91.5C174.792 90.4333 174.978 89.5133 175.352 88.74C175.738 87.9533 176.265 87.3467 176.932 86.92C177.612 86.48 178.405 86.26 179.312 86.26C180.152 86.26 180.872 86.48 181.472 86.92C182.085 87.3467 182.552 87.9533 182.872 88.74C183.192 89.5133 183.352 90.4333 183.352 91.5C183.352 92.5533 183.192 93.4733 182.872 94.26C182.552 95.0467 182.085 95.66 181.472 96.1C180.872 96.5267 180.152 96.74 179.312 96.74ZM179.872 94.7C180.378 94.7 180.825 94.5667 181.212 94.3C181.612 94.02 181.918 93.64 182.132 93.16C182.358 92.68 182.472 92.1267 182.472 91.5C182.472 90.8733 182.358 90.32 182.132 89.84C181.918 89.36 181.612 88.9867 181.212 88.72C180.825 88.4533 180.372 88.32 179.852 88.32C179.318 88.32 178.845 88.4533 178.432 88.72C178.018 88.9867 177.692 89.36 177.452 89.84C177.225 90.32 177.105 90.8733 177.092 91.5C177.105 92.1267 177.225 92.68 177.452 93.16C177.692 93.64 178.018 94.02 178.432 94.3C178.858 94.5667 179.338 94.7 179.872 94.7ZM194.268 96.5L194.148 94.66V86.5H196.368V96.5H194.268ZM187.348 91.62V86.5H189.588V91.62H187.348ZM189.588 91.62C189.588 92.4067 189.681 93.02 189.868 93.46C190.055 93.9 190.308 94.2067 190.628 94.38C190.961 94.5533 191.341 94.64 191.768 94.64C192.528 94.6533 193.115 94.4067 193.528 93.9C193.941 93.3933 194.148 92.6667 194.148 91.72H194.988C194.988 92.7733 194.828 93.68 194.508 94.44C194.201 95.1867 193.761 95.76 193.188 96.16C192.628 96.5467 191.948 96.74 191.148 96.74C190.361 96.74 189.681 96.58 189.108 96.26C188.548 95.94 188.115 95.44 187.808 94.76C187.501 94.08 187.348 93.2067 187.348 92.14V91.62H189.588ZM203.717 96.74C202.744 96.74 201.877 96.52 201.117 96.08C200.371 95.6267 199.777 95.0067 199.337 94.22C198.911 93.4333 198.697 92.5267 198.697 91.5C198.697 90.4733 198.917 89.5667 199.357 88.78C199.797 87.9933 200.397 87.38 201.157 86.94C201.931 86.4867 202.811 86.26 203.797 86.26C204.691 86.26 205.497 86.4933 206.217 86.96C206.937 87.4133 207.504 88.0733 207.917 88.94C208.344 89.8067 208.557 90.84 208.557 92.04H200.697L200.997 91.76C200.997 92.3733 201.131 92.9067 201.397 93.36C201.664 93.8 202.017 94.14 202.457 94.38C202.897 94.62 203.384 94.74 203.917 94.74C204.531 94.74 205.037 94.6067 205.437 94.34C205.837 94.06 206.151 93.7 206.377 93.26L208.357 94.1C208.077 94.6333 207.717 95.1 207.277 95.5C206.851 95.9 206.337 96.2067 205.737 96.42C205.151 96.6333 204.477 96.74 203.717 96.74ZM201.137 90.6L200.817 90.32H206.457L206.157 90.6C206.157 90.0533 206.037 89.6067 205.797 89.26C205.557 88.9 205.251 88.6333 204.877 88.46C204.517 88.2733 204.137 88.18 203.737 88.18C203.337 88.18 202.937 88.2733 202.537 88.46C202.137 88.6333 201.804 88.9 201.537 89.26C201.271 89.6067 201.137 90.0533 201.137 90.6Z" fill="white"/>
<path d="M87.66 96.5V82.5H92.06C93.4333 82.5 94.6467 82.8 95.7 83.4C96.7667 83.9867 97.6 84.8067 98.2 85.86C98.8133 86.9133 99.12 88.1267 99.12 89.5C99.12 90.86 98.8133 92.0667 98.2 93.12C97.6 94.1733 96.7667 95 95.7 95.6C94.6467 96.2 93.4333 96.5 92.06 96.5H87.66ZM89.98 94.34H92.06C92.7133 94.34 93.3267 94.22 93.9 93.98C94.4733 93.7267 94.9733 93.38 95.4 92.94C95.8267 92.5 96.16 91.9867 96.4 91.4C96.64 90.8133 96.76 90.18 96.76 89.5C96.76 88.82 96.64 88.1867 96.4 87.6C96.16 87.0133 95.8267 86.5 95.4 86.06C94.9733 85.62 94.4733 85.28 93.9 85.04C93.3267 84.7867 92.7133 84.66 92.06 84.66H89.98V94.34ZM107.646 96.5L107.546 94.62V91.36C107.546 90.68 107.473 90.1133 107.326 89.66C107.193 89.1933 106.966 88.84 106.646 88.6C106.34 88.3467 105.926 88.22 105.406 88.22C104.926 88.22 104.506 88.32 104.146 88.52C103.786 88.72 103.48 89.0333 103.226 89.46L101.266 88.74C101.48 88.3 101.76 87.8933 102.106 87.52C102.466 87.1333 102.913 86.8267 103.446 86.6C103.993 86.3733 104.646 86.26 105.406 86.26C106.38 86.26 107.193 86.4533 107.846 86.84C108.5 87.2133 108.98 87.7533 109.286 88.46C109.606 89.1667 109.766 90.02 109.766 91.02L109.706 96.5H107.646ZM104.766 96.74C103.566 96.74 102.633 96.4733 101.966 95.94C101.313 95.4067 100.986 94.6533 100.986 93.68C100.986 92.64 101.333 91.8467 102.026 91.3C102.733 90.7533 103.713 90.48 104.966 90.48H107.646V92.2H105.686C104.793 92.2 104.166 92.3267 103.806 92.58C103.446 92.82 103.266 93.1667 103.266 93.62C103.266 94.0067 103.42 94.3133 103.726 94.54C104.046 94.7533 104.486 94.86 105.046 94.86C105.553 94.86 105.993 94.7467 106.366 94.52C106.74 94.2933 107.026 93.9933 107.226 93.62C107.44 93.2467 107.546 92.8267 107.546 92.36H108.206C108.206 93.72 107.933 94.7933 107.386 95.58C106.84 96.3533 105.966 96.74 104.766 96.74ZM113.78 100.74C113.46 100.74 113.1 100.68 112.7 100.56C112.313 100.44 111.94 100.287 111.58 100.1L112.42 98.28C112.673 98.4 112.907 98.4933 113.12 98.56C113.333 98.64 113.507 98.68 113.64 98.68C113.96 98.68 114.227 98.5933 114.44 98.42C114.667 98.26 114.847 98.02 114.98 97.7L116.16 94.94L119.54 86.5H121.98L117.34 97.56C117.06 98.2 116.773 98.76 116.48 99.24C116.2 99.72 115.847 100.087 115.42 100.34C114.993 100.607 114.447 100.74 113.78 100.74ZM115.56 96.5L111.08 86.5H113.52L117 94.92L117.72 96.5H115.56ZM129.038 100.5V86.5H131.138L131.278 88.34V100.5H129.038ZM134.438 96.74C133.598 96.74 132.871 96.5267 132.258 96.1C131.658 95.66 131.198 95.0467 130.878 94.26C130.558 93.4733 130.398 92.5533 130.398 91.5C130.398 90.4333 130.558 89.5133 130.878 88.74C131.198 87.9533 131.658 87.3467 132.258 86.92C132.871 86.48 133.598 86.26 134.438 86.26C135.344 86.26 136.131 86.48 136.798 86.92C137.478 87.3467 138.004 87.9533 138.378 88.74C138.764 89.5133 138.958 90.4333 138.958 91.5C138.958 92.5533 138.764 93.4733 138.378 94.26C138.004 95.0467 137.478 95.66 136.798 96.1C136.131 96.5267 135.344 96.74 134.438 96.74ZM133.878 94.7C134.411 94.7 134.884 94.5667 135.298 94.3C135.711 94.02 136.038 93.64 136.278 93.16C136.531 92.68 136.658 92.1267 136.658 91.5C136.658 90.8733 136.538 90.32 136.298 89.84C136.071 89.36 135.751 88.9867 135.338 88.72C134.924 88.4533 134.444 88.32 133.898 88.32C133.391 88.32 132.938 88.4533 132.538 88.72C132.138 88.9867 131.824 89.36 131.598 89.84C131.384 90.32 131.278 90.8733 131.278 91.5C131.278 92.1267 131.384 92.68 131.598 93.16C131.824 93.64 132.131 94.02 132.518 94.3C132.918 94.5667 133.371 94.7 133.878 94.7ZM147.371 96.5L147.271 94.62V91.36C147.271 90.68 147.198 90.1133 147.051 89.66C146.918 89.1933 146.691 88.84 146.371 88.6C146.065 88.3467 145.651 88.22 145.131 88.22C144.651 88.22 144.231 88.32 143.871 88.52C143.511 88.72 143.205 89.0333 142.951 89.46L140.991 88.74C141.205 88.3 141.485 87.8933 141.831 87.52C142.191 87.1333 142.638 86.8267 143.171 86.6C143.718 86.3733 144.371 86.26 145.131 86.26C146.105 86.26 146.918 86.4533 147.571 86.84C148.225 87.2133 148.705 87.7533 149.011 88.46C149.331 89.1667 149.491 90.02 149.491 91.02L149.431 96.5H147.371ZM144.491 96.74C143.291 96.74 142.358 96.4733 141.691 95.94C141.038 95.4067 140.711 94.6533 140.711 93.68C140.711 92.64 141.058 91.8467 141.751 91.3C142.458 90.7533 143.438 90.48 144.691 90.48H147.371V92.2H145.411C144.518 92.2 143.891 92.3267 143.531 92.58C143.171 92.82 142.991 93.1667 142.991 93.62C142.991 94.0067 143.145 94.3133 143.451 94.54C143.771 94.7533 144.211 94.86 144.771 94.86C145.278 94.86 145.718 94.7467 146.091 94.52C146.465 94.2933 146.751 93.9933 146.951 93.62C147.165 93.2467 147.271 92.8267 147.271 92.36H147.931C147.931 93.72 147.658 94.7933 147.111 95.58C146.565 96.3533 145.691 96.74 144.491 96.74ZM155.8 96.74C155.133 96.74 154.52 96.64 153.96 96.44C153.4 96.24 152.92 95.96 152.52 95.6C152.12 95.2267 151.813 94.7933 151.6 94.3L153.54 93.44C153.74 93.8133 154.033 94.1267 154.42 94.38C154.82 94.6333 155.26 94.76 155.74 94.76C156.26 94.76 156.673 94.6733 156.98 94.5C157.3 94.3133 157.46 94.06 157.46 93.74C157.46 93.4333 157.34 93.2 157.1 93.04C156.86 92.8667 156.52 92.7267 156.08 92.62L155.14 92.36C154.193 92.12 153.453 91.74 152.92 91.22C152.386 90.6867 152.12 90.08 152.12 89.4C152.12 88.4 152.44 87.6267 153.08 87.08C153.733 86.5333 154.666 86.26 155.88 86.26C156.493 86.26 157.053 86.3533 157.56 86.54C158.08 86.7133 158.526 86.9667 158.9 87.3C159.273 87.62 159.533 88 159.68 88.44L157.82 89.28C157.686 88.9467 157.433 88.6933 157.06 88.52C156.686 88.3333 156.273 88.24 155.82 88.24C155.366 88.24 155.013 88.34 154.76 88.54C154.506 88.7267 154.38 88.9933 154.38 89.34C154.38 89.54 154.493 89.7267 154.72 89.9C154.946 90.06 155.273 90.1933 155.7 90.3L156.88 90.58C157.533 90.74 158.066 90.9933 158.48 91.34C158.893 91.6733 159.2 92.0533 159.4 92.48C159.6 92.8933 159.7 93.3133 159.7 93.74C159.7 94.34 159.526 94.8667 159.18 95.32C158.846 95.7733 158.386 96.1267 157.8 96.38C157.213 96.62 156.546 96.74 155.8 96.74ZM165.856 96.74C164.803 96.74 163.996 96.48 163.436 95.96C162.889 95.4267 162.616 94.6667 162.616 93.68V83.38H164.836V93.26C164.836 93.7267 164.943 94.08 165.156 94.32C165.383 94.56 165.709 94.68 166.136 94.68C166.269 94.68 166.416 94.6533 166.576 94.6C166.736 94.5467 166.916 94.4467 167.116 94.3L167.936 96C167.589 96.24 167.243 96.42 166.896 96.54C166.549 96.6733 166.203 96.74 165.856 96.74ZM160.956 88.42V86.5H167.536V88.42H160.956ZM182.572 96.5L182.472 94.64V82.5H184.692V96.5H182.572ZM179.312 96.74C178.405 96.74 177.612 96.5267 176.932 96.1C176.265 95.66 175.738 95.0467 175.352 94.26C174.978 93.4733 174.792 92.5533 174.792 91.5C174.792 90.4333 174.978 89.5133 175.352 88.74C175.738 87.9533 176.265 87.3467 176.932 86.92C177.612 86.48 178.405 86.26 179.312 86.26C180.152 86.26 180.872 86.48 181.472 86.92C182.085 87.3467 182.552 87.9533 182.872 88.74C183.192 89.5133 183.352 90.4333 183.352 91.5C183.352 92.5533 183.192 93.4733 182.872 94.26C182.552 95.0467 182.085 95.66 181.472 96.1C180.872 96.5267 180.152 96.74 179.312 96.74ZM179.872 94.7C180.378 94.7 180.825 94.5667 181.212 94.3C181.612 94.02 181.918 93.64 182.132 93.16C182.358 92.68 182.472 92.1267 182.472 91.5C182.472 90.8733 182.358 90.32 182.132 89.84C181.918 89.36 181.612 88.9867 181.212 88.72C180.825 88.4533 180.372 88.32 179.852 88.32C179.318 88.32 178.845 88.4533 178.432 88.72C178.018 88.9867 177.692 89.36 177.452 89.84C177.225 90.32 177.105 90.8733 177.092 91.5C177.105 92.1267 177.225 92.68 177.452 93.16C177.692 93.64 178.018 94.02 178.432 94.3C178.858 94.5667 179.338 94.7 179.872 94.7ZM194.268 96.5L194.148 94.66V86.5H196.368V96.5H194.268ZM187.348 91.62V86.5H189.588V91.62H187.348ZM189.588 91.62C189.588 92.4067 189.681 93.02 189.868 93.46C190.055 93.9 190.308 94.2067 190.628 94.38C190.961 94.5533 191.341 94.64 191.768 94.64C192.528 94.6533 193.115 94.4067 193.528 93.9C193.941 93.3933 194.148 92.6667 194.148 91.72H194.988C194.988 92.7733 194.828 93.68 194.508 94.44C194.201 95.1867 193.761 95.76 193.188 96.16C192.628 96.5467 191.948 96.74 191.148 96.74C190.361 96.74 189.681 96.58 189.108 96.26C188.548 95.94 188.115 95.44 187.808 94.76C187.501 94.08 187.348 93.2067 187.348 92.14V91.62H189.588ZM203.717 96.74C202.744 96.74 201.877 96.52 201.117 96.08C200.371 95.6267 199.777 95.0067 199.337 94.22C198.911 93.4333 198.697 92.5267 198.697 91.5C198.697 90.4733 198.917 89.5667 199.357 88.78C199.797 87.9933 200.397 87.38 201.157 86.94C201.931 86.4867 202.811 86.26 203.797 86.26C204.691 86.26 205.497 86.4933 206.217 86.96C206.937 87.4133 207.504 88.0733 207.917 88.94C208.344 89.8067 208.557 90.84 208.557 92.04H200.697L200.997 91.76C200.997 92.3733 201.131 92.9067 201.397 93.36C201.664 93.8 202.017 94.14 202.457 94.38C202.897 94.62 203.384 94.74 203.917 94.74C204.531 94.74 205.037 94.6067 205.437 94.34C205.837 94.06 206.151 93.7 206.377 93.26L208.357 94.1C208.077 94.6333 207.717 95.1 207.277 95.5C206.851 95.9 206.337 96.2067 205.737 96.42C205.151 96.6333 204.477 96.74 203.717 96.74ZM201.137 90.6L200.817 90.32H206.457L206.157 90.6C206.157 90.0533 206.037 89.6067 205.797 89.26C205.557 88.9 205.251 88.6333 204.877 88.46C204.517 88.2733 204.137 88.18 203.737 88.18C203.337 88.18 202.937 88.2733 202.537 88.46C202.137 88.6333 201.804 88.9 201.537 89.26C201.271 89.6067 201.137 90.0533 201.137 90.6Z" fill="#3D3D4F"/>
<g clip-path="url(#clip0_2351_2919)">
<path d="M116.395 205.38C116.395 201.848 116.748 198.391 117.39 195.049C117.604 193.926 116.949 192.829 115.853 192.526L92.3108 186.067C90.1946 185.487 88.0154 186.824 87.5997 188.969C86.5542 194.279 86 199.766 86 205.38C86 205.443 86 205.506 86 205.569C86 207.751 87.8894 209.454 90.056 209.29L114.405 207.511C115.526 207.436 116.395 206.49 116.395 205.367V205.38Z" fill="#FF6822"/>
<path d="M124.368 233.786C120.879 228.072 118.41 221.664 117.214 214.827C116.874 212.897 115.16 211.535 113.221 211.674L90.3583 213.339C88.1414 213.503 86.5668 215.445 86.8817 217.653C88.6704 230.04 93.1547 241.569 99.6922 251.648C100.901 253.515 103.358 253.944 105.146 252.606L123.436 238.832C124.96 237.684 125.364 235.439 124.368 233.799V233.786Z" fill="#FFCC81"/>
<path d="M173.028 124.296V147.229C173.028 149.184 174.514 150.786 176.442 150.988C204.002 153.738 225.592 177.074 225.592 205.38C225.592 224.906 215.314 242.087 199.883 251.749C198.233 252.783 197.616 254.89 198.485 256.643L208.65 277.179C209.62 279.147 212.064 279.878 213.953 278.768C239.083 263.959 255.987 236.612 255.987 205.367C256 160.499 221.121 123.653 177.084 120.499C174.892 120.348 173.028 122.089 173.028 124.284V124.296Z" fill="#57CCFA"/>
<path d="M194.87 258.435C194.001 256.682 191.948 255.9 190.121 256.594C184.163 258.839 177.726 260.062 171 260.062C155.192 260.062 140.933 253.301 130.956 242.504C129.634 241.066 127.454 240.851 125.893 242.024L107.603 255.799C105.852 257.123 105.575 259.659 107.023 261.324C122.617 279.185 145.505 290.5 171.013 290.5C182.374 290.5 193.207 288.242 203.121 284.168C205.149 283.335 206.03 280.939 205.06 278.984L194.883 258.435H194.87Z" fill="#19C5C7"/>
<path d="M119.972 185.904C127.203 166.958 144.686 153.057 165.571 150.976C167.511 150.787 168.985 149.172 168.985 147.217V124.297C168.985 122.102 167.12 120.362 164.929 120.513C130.566 122.948 101.771 145.93 90.7866 177.264C90.056 179.333 91.2527 181.59 93.3689 182.171L115.45 188.225C117.327 188.743 119.28 187.734 119.972 185.904Z" fill="#3B91F5"/>
</g>
<circle cx="293" cy="155.5" r="5" fill="#57CCFA"/>
<path d="M310.48 160.668C309.733 160.668 309.071 160.453 308.492 160.024C307.913 159.585 307.461 158.988 307.134 158.232C306.807 157.467 306.644 156.589 306.644 155.6C306.644 154.611 306.807 153.738 307.134 152.982C307.461 152.217 307.909 151.619 308.478 151.19C309.057 150.751 309.724 150.532 310.48 150.532C311.236 150.532 311.899 150.751 312.468 151.19C313.047 151.619 313.499 152.217 313.826 152.982C314.162 153.738 314.33 154.611 314.33 155.6C314.33 156.589 314.167 157.467 313.84 158.232C313.513 158.988 313.061 159.585 312.482 160.024C311.903 160.453 311.236 160.668 310.48 160.668ZM310.48 159.604C311.003 159.604 311.465 159.431 311.866 159.086C312.277 158.741 312.594 158.269 312.818 157.672C313.051 157.075 313.168 156.384 313.168 155.6C313.168 154.816 313.051 154.125 312.818 153.528C312.594 152.921 312.277 152.45 311.866 152.114C311.465 151.769 311.003 151.596 310.48 151.596C309.957 151.596 309.495 151.769 309.094 152.114C308.693 152.45 308.375 152.921 308.142 153.528C307.918 154.125 307.806 154.816 307.806 155.6C307.806 156.384 307.918 157.075 308.142 157.672C308.375 158.269 308.693 158.741 309.094 159.086C309.505 159.431 309.967 159.604 310.48 159.604ZM319.52 156.846V155.824H323.72V156.846H319.52ZM332.051 160.668C331.575 160.668 331.141 160.598 330.749 160.458C330.366 160.309 330.035 160.117 329.755 159.884C329.484 159.651 329.269 159.403 329.111 159.142L330.091 158.596C330.193 158.727 330.319 158.876 330.469 159.044C330.627 159.203 330.828 159.338 331.071 159.45C331.313 159.562 331.612 159.618 331.967 159.618C332.601 159.618 333.11 159.436 333.493 159.072C333.875 158.708 334.067 158.251 334.067 157.7C334.067 157.28 333.95 156.925 333.717 156.636C333.493 156.347 333.166 156.127 332.737 155.978C332.307 155.829 331.794 155.754 331.197 155.754H330.931V154.83H331.169C331.757 154.83 332.298 154.895 332.793 155.026C333.287 155.157 333.717 155.348 334.081 155.6C334.454 155.852 334.739 156.16 334.935 156.524C335.14 156.888 335.243 157.308 335.243 157.784C335.243 158.363 335.098 158.871 334.809 159.31C334.529 159.739 334.146 160.075 333.661 160.318C333.175 160.551 332.639 160.668 332.051 160.668ZM330.931 155.656V154.746H331.197C331.999 154.746 332.634 154.611 333.101 154.34C333.577 154.06 333.815 153.663 333.815 153.15C333.815 152.87 333.74 152.613 333.591 152.38C333.441 152.137 333.222 151.946 332.933 151.806C332.653 151.657 332.326 151.582 331.953 151.582C331.701 151.582 331.463 151.619 331.239 151.694C331.024 151.759 330.823 151.862 330.637 152.002C330.459 152.133 330.296 152.301 330.147 152.506L329.223 151.974C329.4 151.685 329.624 151.433 329.895 151.218C330.175 151.003 330.492 150.835 330.847 150.714C331.201 150.593 331.589 150.532 332.009 150.532C332.578 150.532 333.087 150.644 333.535 150.868C333.992 151.092 334.351 151.4 334.613 151.792C334.874 152.175 335.005 152.609 335.005 153.094C335.005 153.505 334.907 153.869 334.711 154.186C334.515 154.503 334.239 154.774 333.885 154.998C333.539 155.222 333.133 155.39 332.667 155.502C332.209 155.605 331.71 155.656 331.169 155.656H330.931ZM340.52 160.668C339.773 160.668 339.111 160.453 338.532 160.024C337.953 159.585 337.501 158.988 337.174 158.232C336.847 157.467 336.684 156.589 336.684 155.6C336.684 154.611 336.847 153.738 337.174 152.982C337.501 152.217 337.949 151.619 338.518 151.19C339.097 150.751 339.764 150.532 340.52 150.532C341.276 150.532 341.939 150.751 342.508 151.19C343.087 151.619 343.539 152.217 343.866 152.982C344.202 153.738 344.37 154.611 344.37 155.6C344.37 156.589 344.207 157.467 343.88 158.232C343.553 158.988 343.101 159.585 342.522 160.024C341.943 160.453 341.276 160.668 340.52 160.668ZM340.52 159.604C341.043 159.604 341.505 159.431 341.906 159.086C342.317 158.741 342.634 158.269 342.858 157.672C343.091 157.075 343.208 156.384 343.208 155.6C343.208 154.816 343.091 154.125 342.858 153.528C342.634 152.921 342.317 152.45 341.906 152.114C341.505 151.769 341.043 151.596 340.52 151.596C339.997 151.596 339.535 151.769 339.134 152.114C338.733 152.45 338.415 152.921 338.182 153.528C337.958 154.125 337.846 154.816 337.846 155.6C337.846 156.384 337.958 157.075 338.182 157.672C338.415 158.269 338.733 158.741 339.134 159.086C339.545 159.431 340.007 159.604 340.52 159.604Z" fill="#848484"/>
<circle cx="293" cy="180.5" r="5" fill="#3B91F5"/>
<path d="M309.766 185.668C309.29 185.668 308.856 185.598 308.464 185.458C308.081 185.309 307.75 185.117 307.47 184.884C307.199 184.651 306.985 184.403 306.826 184.142L307.806 183.596C307.909 183.727 308.035 183.876 308.184 184.044C308.343 184.203 308.543 184.338 308.786 184.45C309.029 184.562 309.327 184.618 309.682 184.618C310.317 184.618 310.825 184.436 311.208 184.072C311.591 183.708 311.782 183.251 311.782 182.7C311.782 182.28 311.665 181.925 311.432 181.636C311.208 181.347 310.881 181.127 310.452 180.978C310.023 180.829 309.509 180.754 308.912 180.754H308.646V179.83H308.884C309.472 179.83 310.013 179.895 310.508 180.026C311.003 180.157 311.432 180.348 311.796 180.6C312.169 180.852 312.454 181.16 312.65 181.524C312.855 181.888 312.958 182.308 312.958 182.784C312.958 183.363 312.813 183.871 312.524 184.31C312.244 184.739 311.861 185.075 311.376 185.318C310.891 185.551 310.354 185.668 309.766 185.668ZM308.646 180.656V179.746H308.912C309.715 179.746 310.349 179.611 310.816 179.34C311.292 179.06 311.53 178.663 311.53 178.15C311.53 177.87 311.455 177.613 311.306 177.38C311.157 177.137 310.937 176.946 310.648 176.806C310.368 176.657 310.041 176.582 309.668 176.582C309.416 176.582 309.178 176.619 308.954 176.694C308.739 176.759 308.539 176.862 308.352 177.002C308.175 177.133 308.011 177.301 307.862 177.506L306.938 176.974C307.115 176.685 307.339 176.433 307.61 176.218C307.89 176.003 308.207 175.835 308.562 175.714C308.917 175.593 309.304 175.532 309.724 175.532C310.293 175.532 310.802 175.644 311.25 175.868C311.707 176.092 312.067 176.4 312.328 176.792C312.589 177.175 312.72 177.609 312.72 178.094C312.72 178.505 312.622 178.869 312.426 179.186C312.23 179.503 311.955 179.774 311.6 179.998C311.255 180.222 310.849 180.39 310.382 180.502C309.925 180.605 309.425 180.656 308.884 180.656H308.646ZM316.793 185.5V176.33L316.891 175.7H317.955V185.5H316.793ZM314.595 178.22V177.142C314.791 177.151 315.025 177.086 315.295 176.946C315.566 176.806 315.846 176.624 316.135 176.4C316.425 176.176 316.677 175.943 316.891 175.7L317.619 176.498C317.311 176.825 316.989 177.119 316.653 177.38C316.317 177.641 315.977 177.851 315.631 178.01C315.286 178.159 314.941 178.229 314.595 178.22ZM324.089 181.846V180.824H328.289V181.846H324.089ZM337.026 185.668C336.354 185.668 335.79 185.542 335.332 185.29C334.875 185.029 334.511 184.679 334.24 184.24C333.97 183.801 333.774 183.297 333.652 182.728C333.54 182.149 333.484 181.538 333.484 180.894C333.484 180.054 333.568 179.303 333.736 178.64C333.914 177.977 334.166 177.417 334.492 176.96C334.819 176.493 335.216 176.139 335.682 175.896C336.149 175.653 336.676 175.532 337.264 175.532C337.75 175.532 338.23 175.611 338.706 175.77C339.192 175.919 339.621 176.129 339.994 176.4L339.336 177.24C339.038 177.035 338.716 176.876 338.37 176.764C338.025 176.643 337.694 176.582 337.376 176.582C336.424 176.582 335.701 176.983 335.206 177.786C334.712 178.589 334.492 179.807 334.548 181.44L334.296 181.188C334.52 180.619 334.88 180.171 335.374 179.844C335.869 179.508 336.452 179.34 337.124 179.34C337.75 179.34 338.305 179.475 338.79 179.746C339.285 180.017 339.668 180.395 339.938 180.88C340.218 181.356 340.358 181.902 340.358 182.518C340.358 183.125 340.218 183.671 339.938 184.156C339.658 184.632 339.266 185.005 338.762 185.276C338.268 185.537 337.689 185.668 337.026 185.668ZM337.026 184.632C337.446 184.632 337.815 184.543 338.132 184.366C338.459 184.179 338.711 183.927 338.888 183.61C339.075 183.283 339.168 182.91 339.168 182.49C339.168 182.07 339.075 181.701 338.888 181.384C338.711 181.057 338.459 180.805 338.132 180.628C337.815 180.451 337.446 180.362 337.026 180.362C336.616 180.362 336.247 180.451 335.92 180.628C335.594 180.805 335.337 181.057 335.15 181.384C334.964 181.701 334.87 182.07 334.87 182.49C334.87 182.91 334.964 183.283 335.15 183.61C335.337 183.927 335.594 184.179 335.92 184.366C336.247 184.543 336.616 184.632 337.026 184.632ZM345.404 185.668C344.657 185.668 343.995 185.453 343.416 185.024C342.837 184.585 342.385 183.988 342.058 183.232C341.731 182.467 341.568 181.589 341.568 180.6C341.568 179.611 341.731 178.738 342.058 177.982C342.385 177.217 342.833 176.619 343.402 176.19C343.981 175.751 344.648 175.532 345.404 175.532C346.16 175.532 346.823 175.751 347.392 176.19C347.971 176.619 348.423 177.217 348.75 177.982C349.086 178.738 349.254 179.611 349.254 180.6C349.254 181.589 349.091 182.467 348.764 183.232C348.437 183.988 347.985 184.585 347.406 185.024C346.827 185.453 346.16 185.668 345.404 185.668ZM345.404 184.604C345.927 184.604 346.389 184.431 346.79 184.086C347.201 183.741 347.518 183.269 347.742 182.672C347.975 182.075 348.092 181.384 348.092 180.6C348.092 179.816 347.975 179.125 347.742 178.528C347.518 177.921 347.201 177.45 346.79 177.114C346.389 176.769 345.927 176.596 345.404 176.596C344.881 176.596 344.419 176.769 344.018 177.114C343.617 177.45 343.299 177.921 343.066 178.528C342.842 179.125 342.73 179.816 342.73 180.6C342.73 181.384 342.842 182.075 343.066 182.672C343.299 183.269 343.617 183.741 344.018 184.086C344.429 184.431 344.891 184.604 345.404 184.604Z" fill="#848484"/>
<circle cx="293" cy="205.5" r="5" fill="#19C5C7"/>
<path d="M310.172 210.668C309.5 210.668 308.935 210.542 308.478 210.29C308.021 210.029 307.657 209.679 307.386 209.24C307.115 208.801 306.919 208.297 306.798 207.728C306.686 207.149 306.63 206.538 306.63 205.894C306.63 205.054 306.714 204.303 306.882 203.64C307.059 202.977 307.311 202.417 307.638 201.96C307.965 201.493 308.361 201.139 308.828 200.896C309.295 200.653 309.822 200.532 310.41 200.532C310.895 200.532 311.376 200.611 311.852 200.77C312.337 200.919 312.767 201.129 313.14 201.4L312.482 202.24C312.183 202.035 311.861 201.876 311.516 201.764C311.171 201.643 310.839 201.582 310.522 201.582C309.57 201.582 308.847 201.983 308.352 202.786C307.857 203.589 307.638 204.807 307.694 206.44L307.442 206.188C307.666 205.619 308.025 205.171 308.52 204.844C309.015 204.508 309.598 204.34 310.27 204.34C310.895 204.34 311.451 204.475 311.936 204.746C312.431 205.017 312.813 205.395 313.084 205.88C313.364 206.356 313.504 206.902 313.504 207.518C313.504 208.125 313.364 208.671 313.084 209.156C312.804 209.632 312.412 210.005 311.908 210.276C311.413 210.537 310.835 210.668 310.172 210.668ZM310.172 209.632C310.592 209.632 310.961 209.543 311.278 209.366C311.605 209.179 311.857 208.927 312.034 208.61C312.221 208.283 312.314 207.91 312.314 207.49C312.314 207.07 312.221 206.701 312.034 206.384C311.857 206.057 311.605 205.805 311.278 205.628C310.961 205.451 310.592 205.362 310.172 205.362C309.761 205.362 309.393 205.451 309.066 205.628C308.739 205.805 308.483 206.057 308.296 206.384C308.109 206.701 308.016 207.07 308.016 207.49C308.016 207.91 308.109 208.283 308.296 208.61C308.483 208.927 308.739 209.179 309.066 209.366C309.393 209.543 309.761 209.632 310.172 209.632ZM317.108 210.5V201.33L317.206 200.7H318.27V210.5H317.108ZM314.91 203.22V202.142C315.106 202.151 315.339 202.086 315.61 201.946C315.88 201.806 316.16 201.624 316.45 201.4C316.739 201.176 316.991 200.943 317.206 200.7L317.934 201.498C317.626 201.825 317.304 202.119 316.968 202.38C316.632 202.641 316.291 202.851 315.946 203.01C315.6 203.159 315.255 203.229 314.91 203.22ZM324.404 206.846V205.824H328.604V206.846H324.404ZM336.907 200.532C337.597 200.532 338.167 200.663 338.615 200.924C339.063 201.176 339.422 201.521 339.693 201.96C339.973 202.399 340.169 202.907 340.281 203.486C340.402 204.055 340.463 204.662 340.463 205.306C340.463 206.146 340.374 206.897 340.197 207.56C340.019 208.223 339.767 208.787 339.441 209.254C339.114 209.711 338.717 210.061 338.251 210.304C337.793 210.547 337.271 210.668 336.683 210.668C336.197 210.668 335.712 210.593 335.227 210.444C334.751 210.285 334.321 210.071 333.939 209.8L334.597 208.96C334.895 209.165 335.217 209.329 335.563 209.45C335.917 209.562 336.253 209.618 336.571 209.618C337.523 209.618 338.246 209.217 338.741 208.414C339.245 207.611 339.464 206.398 339.399 204.774L339.651 205.012C339.427 205.581 339.067 206.034 338.573 206.37C338.078 206.706 337.495 206.874 336.823 206.874C336.188 206.874 335.628 206.739 335.143 206.468C334.657 206.188 334.275 205.81 333.995 205.334C333.724 204.858 333.589 204.307 333.589 203.682C333.589 203.066 333.729 202.525 334.009 202.058C334.289 201.582 334.676 201.209 335.171 200.938C335.675 200.667 336.253 200.532 336.907 200.532ZM336.907 201.568C336.496 201.568 336.127 201.661 335.801 201.848C335.474 202.025 335.217 202.277 335.031 202.604C334.853 202.921 334.765 203.29 334.765 203.71C334.765 204.13 334.853 204.503 335.031 204.83C335.217 205.147 335.474 205.399 335.801 205.586C336.127 205.763 336.496 205.852 336.907 205.852C337.336 205.852 337.709 205.763 338.027 205.586C338.353 205.399 338.605 205.147 338.783 204.83C338.969 204.503 339.063 204.13 339.063 203.71C339.063 203.29 338.969 202.921 338.783 202.604C338.605 202.277 338.353 202.025 338.027 201.848C337.709 201.661 337.336 201.568 336.907 201.568ZM345.718 210.668C344.972 210.668 344.309 210.453 343.73 210.024C343.152 209.585 342.699 208.988 342.372 208.232C342.046 207.467 341.882 206.589 341.882 205.6C341.882 204.611 342.046 203.738 342.372 202.982C342.699 202.217 343.147 201.619 343.716 201.19C344.295 200.751 344.962 200.532 345.718 200.532C346.474 200.532 347.137 200.751 347.706 201.19C348.285 201.619 348.738 202.217 349.064 202.982C349.4 203.738 349.568 204.611 349.568 205.6C349.568 206.589 349.405 207.467 349.078 208.232C348.752 208.988 348.299 209.585 347.72 210.024C347.142 210.453 346.474 210.668 345.718 210.668ZM345.718 209.604C346.241 209.604 346.703 209.431 347.104 209.086C347.515 208.741 347.832 208.269 348.056 207.672C348.29 207.075 348.406 206.384 348.406 205.6C348.406 204.816 348.29 204.125 348.056 203.528C347.832 202.921 347.515 202.45 347.104 202.114C346.703 201.769 346.241 201.596 345.718 201.596C345.196 201.596 344.734 201.769 344.332 202.114C343.931 202.45 343.614 202.921 343.38 203.528C343.156 204.125 343.044 204.816 343.044 205.6C343.044 206.384 343.156 207.075 343.38 207.672C343.614 208.269 343.931 208.741 344.332 209.086C344.743 209.431 345.205 209.604 345.718 209.604Z" fill="#848484"/>
<circle cx="293" cy="230.5" r="5" fill="#FFCC81"/>
<path d="M309.738 225.532C310.429 225.532 310.998 225.663 311.446 225.924C311.894 226.176 312.253 226.521 312.524 226.96C312.804 227.399 313 227.907 313.112 228.486C313.233 229.055 313.294 229.662 313.294 230.306C313.294 231.146 313.205 231.897 313.028 232.56C312.851 233.223 312.599 233.787 312.272 234.254C311.945 234.711 311.549 235.061 311.082 235.304C310.625 235.547 310.102 235.668 309.514 235.668C309.029 235.668 308.543 235.593 308.058 235.444C307.582 235.285 307.153 235.071 306.77 234.8L307.428 233.96C307.727 234.165 308.049 234.329 308.394 234.45C308.749 234.562 309.085 234.618 309.402 234.618C310.354 234.618 311.077 234.217 311.572 233.414C312.076 232.611 312.295 231.398 312.23 229.774L312.482 230.012C312.258 230.581 311.899 231.034 311.404 231.37C310.909 231.706 310.326 231.874 309.654 231.874C309.019 231.874 308.459 231.739 307.974 231.468C307.489 231.188 307.106 230.81 306.826 230.334C306.555 229.858 306.42 229.307 306.42 228.682C306.42 228.066 306.56 227.525 306.84 227.058C307.12 226.582 307.507 226.209 308.002 225.938C308.506 225.667 309.085 225.532 309.738 225.532ZM309.738 226.568C309.327 226.568 308.959 226.661 308.632 226.848C308.305 227.025 308.049 227.277 307.862 227.604C307.685 227.921 307.596 228.29 307.596 228.71C307.596 229.13 307.685 229.503 307.862 229.83C308.049 230.147 308.305 230.399 308.632 230.586C308.959 230.763 309.327 230.852 309.738 230.852C310.167 230.852 310.541 230.763 310.858 230.586C311.185 230.399 311.437 230.147 311.614 229.83C311.801 229.503 311.894 229.13 311.894 228.71C311.894 228.29 311.801 227.921 311.614 227.604C311.437 227.277 311.185 227.025 310.858 226.848C310.541 226.661 310.167 226.568 309.738 226.568ZM317.108 235.5V226.33L317.206 225.7H318.27V235.5H317.108ZM314.91 228.22V227.142C315.106 227.151 315.339 227.086 315.61 226.946C315.88 226.806 316.16 226.624 316.45 226.4C316.739 226.176 316.991 225.943 317.206 225.7L317.934 226.498C317.626 226.825 317.304 227.119 316.968 227.38C316.632 227.641 316.291 227.851 315.946 228.01C315.6 228.159 315.255 228.229 314.91 228.22ZM324.404 231.846V230.824H328.604V231.846H324.404ZM336.207 235.5V226.33L336.305 225.7H337.369V235.5H336.207ZM334.009 228.22V227.142C334.205 227.151 334.438 227.086 334.709 226.946C334.979 226.806 335.259 226.624 335.549 226.4C335.838 226.176 336.09 225.943 336.305 225.7L337.033 226.498C336.725 226.825 336.403 227.119 336.067 227.38C335.731 227.641 335.39 227.851 335.045 228.01C334.699 228.159 334.354 228.229 334.009 228.22ZM343.376 235.668C342.676 235.668 342.06 235.556 341.528 235.332C340.996 235.099 340.585 234.781 340.296 234.38C340.007 233.969 339.862 233.493 339.862 232.952C339.862 232.383 340.007 231.883 340.296 231.454C340.585 231.025 340.996 230.693 341.528 230.46C342.06 230.217 342.676 230.096 343.376 230.096C344.095 230.096 344.715 230.217 345.238 230.46C345.77 230.693 346.181 231.025 346.47 231.454C346.769 231.883 346.918 232.383 346.918 232.952C346.918 233.493 346.769 233.969 346.47 234.38C346.181 234.781 345.77 235.099 345.238 235.332C344.715 235.556 344.095 235.668 343.376 235.668ZM343.376 234.632C344.067 234.632 344.631 234.469 345.07 234.142C345.509 233.806 345.728 233.372 345.728 232.84C345.728 232.299 345.509 231.86 345.07 231.524C344.631 231.179 344.067 231.006 343.376 231.006C342.928 231.006 342.527 231.085 342.172 231.244C341.827 231.393 341.551 231.608 341.346 231.888C341.15 232.159 341.052 232.476 341.052 232.84C341.052 233.195 341.15 233.507 341.346 233.778C341.551 234.049 341.827 234.259 342.172 234.408C342.527 234.557 342.928 234.632 343.376 234.632ZM343.376 230.782C342.751 230.782 342.2 230.675 341.724 230.46C341.248 230.236 340.879 229.933 340.618 229.55C340.357 229.158 340.226 228.705 340.226 228.192C340.226 227.669 340.357 227.207 340.618 226.806C340.879 226.405 341.248 226.092 341.724 225.868C342.2 225.644 342.751 225.532 343.376 225.532C344.02 225.532 344.575 225.644 345.042 225.868C345.518 226.092 345.887 226.405 346.148 226.806C346.419 227.207 346.554 227.669 346.554 228.192C346.554 228.705 346.419 229.158 346.148 229.55C345.887 229.933 345.518 230.236 345.042 230.46C344.575 230.675 344.02 230.782 343.376 230.782ZM343.376 229.9C343.964 229.9 344.445 229.755 344.818 229.466C345.201 229.167 345.392 228.78 345.392 228.304C345.392 227.781 345.201 227.361 344.818 227.044C344.445 226.717 343.964 226.554 343.376 226.554C342.797 226.554 342.321 226.717 341.948 227.044C341.575 227.361 341.388 227.781 341.388 228.304C341.388 228.78 341.575 229.167 341.948 229.466C342.321 229.755 342.797 229.9 343.376 229.9ZM352.312 235.668C351.565 235.668 350.902 235.453 350.324 235.024C349.745 234.585 349.292 233.988 348.966 233.232C348.639 232.467 348.476 231.589 348.476 230.6C348.476 229.611 348.639 228.738 348.966 227.982C349.292 227.217 349.74 226.619 350.31 226.19C350.888 225.751 351.556 225.532 352.312 225.532C353.068 225.532 353.73 225.751 354.3 226.19C354.878 226.619 355.331 227.217 355.658 227.982C355.994 228.738 356.162 229.611 356.162 230.6C356.162 231.589 355.998 232.467 355.672 233.232C355.345 233.988 354.892 234.585 354.314 235.024C353.735 235.453 353.068 235.668 352.312 235.668ZM352.312 234.604C352.834 234.604 353.296 234.431 353.698 234.086C354.108 233.741 354.426 233.269 354.65 232.672C354.883 232.075 355 231.384 355 230.6C355 229.816 354.883 229.125 354.65 228.528C354.426 227.921 354.108 227.45 353.698 227.114C353.296 226.769 352.834 226.596 352.312 226.596C351.789 226.596 351.327 226.769 350.926 227.114C350.524 227.45 350.207 227.921 349.974 228.528C349.75 229.125 349.638 229.816 349.638 230.6C349.638 231.384 349.75 232.075 349.974 232.672C350.207 233.269 350.524 233.741 350.926 234.086C351.336 234.431 351.798 234.604 352.312 234.604Z" fill="#848484"/>
<circle cx="293" cy="255.5" r="5" fill="#FF6822"/>
<path d="M308.03 259.114V258.022L312.832 255.782V256.86L308.03 259.114ZM312.832 256.846L308.03 254.648V253.542L312.832 255.768V256.846ZM321.5 260.5V251.33L321.598 250.7H322.662V260.5H321.5ZM319.302 253.22V252.142C319.498 252.151 319.731 252.086 320.002 251.946C320.272 251.806 320.552 251.624 320.842 251.4C321.131 251.176 321.383 250.943 321.598 250.7L322.326 251.498C322.018 251.825 321.696 252.119 321.36 252.38C321.024 252.641 320.683 252.851 320.338 253.01C319.992 253.159 319.647 253.229 319.302 253.22ZM328.669 260.668C327.969 260.668 327.353 260.556 326.821 260.332C326.289 260.099 325.878 259.781 325.589 259.38C325.3 258.969 325.155 258.493 325.155 257.952C325.155 257.383 325.3 256.883 325.589 256.454C325.878 256.025 326.289 255.693 326.821 255.46C327.353 255.217 327.969 255.096 328.669 255.096C329.388 255.096 330.008 255.217 330.531 255.46C331.063 255.693 331.474 256.025 331.763 256.454C332.062 256.883 332.211 257.383 332.211 257.952C332.211 258.493 332.062 258.969 331.763 259.38C331.474 259.781 331.063 260.099 330.531 260.332C330.008 260.556 329.388 260.668 328.669 260.668ZM328.669 259.632C329.36 259.632 329.924 259.469 330.363 259.142C330.802 258.806 331.021 258.372 331.021 257.84C331.021 257.299 330.802 256.86 330.363 256.524C329.924 256.179 329.36 256.006 328.669 256.006C328.221 256.006 327.82 256.085 327.465 256.244C327.12 256.393 326.844 256.608 326.639 256.888C326.443 257.159 326.345 257.476 326.345 257.84C326.345 258.195 326.443 258.507 326.639 258.778C326.844 259.049 327.12 259.259 327.465 259.408C327.82 259.557 328.221 259.632 328.669 259.632ZM328.669 255.782C328.044 255.782 327.493 255.675 327.017 255.46C326.541 255.236 326.172 254.933 325.911 254.55C325.65 254.158 325.519 253.705 325.519 253.192C325.519 252.669 325.65 252.207 325.911 251.806C326.172 251.405 326.541 251.092 327.017 250.868C327.493 250.644 328.044 250.532 328.669 250.532C329.313 250.532 329.868 250.644 330.335 250.868C330.811 251.092 331.18 251.405 331.441 251.806C331.712 252.207 331.847 252.669 331.847 253.192C331.847 253.705 331.712 254.158 331.441 254.55C331.18 254.933 330.811 255.236 330.335 255.46C329.868 255.675 329.313 255.782 328.669 255.782ZM328.669 254.9C329.257 254.9 329.738 254.755 330.111 254.466C330.494 254.167 330.685 253.78 330.685 253.304C330.685 252.781 330.494 252.361 330.111 252.044C329.738 251.717 329.257 251.554 328.669 251.554C328.09 251.554 327.614 251.717 327.241 252.044C326.868 252.361 326.681 252.781 326.681 253.304C326.681 253.78 326.868 254.167 327.241 254.466C327.614 254.755 328.09 254.9 328.669 254.9ZM337.604 260.668C336.858 260.668 336.195 260.453 335.616 260.024C335.038 259.585 334.585 258.988 334.258 258.232C333.932 257.467 333.768 256.589 333.768 255.6C333.768 254.611 333.932 253.738 334.258 252.982C334.585 252.217 335.033 251.619 335.602 251.19C336.181 250.751 336.848 250.532 337.604 250.532C338.36 250.532 339.023 250.751 339.592 251.19C340.171 251.619 340.624 252.217 340.95 252.982C341.286 253.738 341.454 254.611 341.454 255.6C341.454 256.589 341.291 257.467 340.964 258.232C340.638 258.988 340.185 259.585 339.606 260.024C339.028 260.453 338.36 260.668 337.604 260.668ZM337.604 259.604C338.127 259.604 338.589 259.431 338.99 259.086C339.401 258.741 339.718 258.269 339.942 257.672C340.176 257.075 340.292 256.384 340.292 255.6C340.292 254.816 340.176 254.125 339.942 253.528C339.718 252.921 339.401 252.45 338.99 252.114C338.589 251.769 338.127 251.596 337.604 251.596C337.082 251.596 336.62 251.769 336.218 252.114C335.817 252.45 335.5 252.921 335.266 253.528C335.042 254.125 334.93 254.816 334.93 255.6C334.93 256.384 335.042 257.075 335.266 257.672C335.5 258.269 335.817 258.741 336.218 259.086C336.629 259.431 337.091 259.604 337.604 259.604Z" fill="#848484"/>
</g>
<defs>
<filter id="filter0_d_2351_2919" x="0" y="0" width="452" height="379" filterUnits="userSpaceOnUse" color-interpolation-filters="sRGB">
<feFlood flood-opacity="0" result="BackgroundImageFix"/>
<feColorMatrix in="SourceAlpha" type="matrix" values="0 0 0 0 0 0 0 0 0 0 0 0 0 0 0 0 0 0 127 0" result="hardAlpha"/>
<feOffset dy="4"/>
<feGaussianBlur stdDeviation="30"/>
<feComposite in2="hardAlpha" operator="out"/>
<feColorMatrix type="matrix" values="0 0 0 0 0 0 0 0 0 0 0 0 0 0 0 0 0 0 0.22 0"/>
<feBlend mode="normal" in2="BackgroundImageFix" result="effect1_dropShadow_2351_2919"/>
<feBlend mode="normal" in="SourceGraphic" in2="effect1_dropShadow_2351_2919" result="shape"/>
</filter>
<clipPath id="clip0_2351_2919">
<rect width="170" height="170" fill="white" transform="translate(86 120.5)"/>
</clipPath>
</defs>
</svg>
